<svg viewBox="0 0 16 16" xmlns="http://www.w3.org/2000/svg"><path d="m1.5878906 4c-.8705555 0-1.5878906.7173351-1.5878906 1.5878906v4.8242184c0 .870556.71733509 1.587891 1.5878906 1.587891h10.8242184c.870556 0 1.587891-.717335 1.587891-1.587891v-.412109h1c.546531 0 1-.4534686 1-1v-2c0-.5465314-.453469-1-1-1h-1v-.4121094c0-.8705555-.717335-1.5878906-1.587891-1.5878906zm0 1h10.8242184c.329445 0 .587891.2584462.587891.5878906v4.8242184c0 .329445-.258446.587891-.587891.587891h-10.8242184c-.3294444 0-.5878906-.258446-.5878906-.587891v-4.8242184c0-.3294444.2584462-.5878906.5878906-.5878906zm.4121094 1v4h2v-4zm12 1h1v2h-1z" fill="#fff"/></svg>