<svg enable-background="new 0 0 186.143 138.75" height="138.75" viewBox="0 0 186.143 138.75" width="186.143" xmlns="http://www.w3.org/2000/svg"><g fill="#f6f6f6"><path d="m93.071 38.871c2.067 0 4.087.199 6.05.561l11.496-15.631c-5.69-.734-11.549-1.13-17.54-1.13-44.057-.001-81.254 20.741-93.077 49.151v.348c7.171 17.232 23.688 31.633 45.399 40.305l18.386-24.998c-2.448-4.621-3.839-9.888-3.839-15.48 0-18.295 14.83-33.126 33.125-33.126zm45.904-8.058-17.613 23.947c3.066 5.021 4.834 10.922 4.834 17.236 0 18.294-14.83 33.125-33.125 33.125-2.768 0-5.454-.346-8.023-.984l-11.602 15.775c6.341.92 12.904 1.408 19.631 1.408 44.043 0 81.231-20.729 93.065-49.125v-.398c-7.372-17.691-24.588-32.403-47.167-40.984z"/><path d="m43.363 137.389c-3.114-2.292-3.782-6.673-1.491-9.787l91.75-124.75c2.291-3.115 6.672-3.782 9.786-1.491 3.114 2.292 3.782 6.672 1.491 9.787l-91.749 124.748c-1.372 1.866-3.494 2.854-5.645 2.854-1.44-.001-2.893-.443-4.142-1.361z"/></g></svg>