<svg height="237" viewBox="0 0 193 237" width="193" xmlns="http://www.w3.org/2000/svg"><g fill="#eaeaea"><ellipse cx="43.597" cy="196.285" rx="30.514" ry="35.626" transform="matrix(.9302 -.3671 .3671 .9302 -69.0185 29.7129)"/><path d="m168.582 32.875c0-13.186-10.688-23.875-23.875-23.875-9.21 0-17.202 5.215-21.185 12.854l-.176.151c-8.338-4.145-17.932-6.504-28.14-6.504h-1.245c-10.208 0-19.802 2.36-28.139 6.504l-.176-.151c-3.981-7.639-11.974-12.854-21.184-12.854-13.186 0-23.875 10.689-23.875 23.875 0 10.675 7.005 19.713 16.67 22.769l.089.132c-.987 3.807-1.509 7.773-1.509 11.85 0 20.786 13.567 38.731 33.194 47.101l-.866-.739c-4.885-5.302-7.828-12.143-7.828-19.611 0-16.845 14.971-30.5 33.438-30.5h1.62c18.467 0 33.438 13.655 33.438 30.5 0 7.468-2.942 14.31-7.828 19.611l-.866.739c19.627-8.37 33.194-26.314 33.194-47.101 0-4.076-.522-8.043-1.509-11.85l.089-.132c9.664-3.056 16.669-12.094 16.669-22.769zm-126.476 11.503c-2.843-1.955-4.707-5.23-4.707-8.941 0-5.989 4.855-10.844 10.844-10.844 3.193 0 6.064 1.38 8.049 3.577-8.232 5.859-12.58 12.33-14.186 16.208zm104.957 0c-1.605-3.878-5.953-10.349-14.186-16.208 1.984-2.197 4.855-3.577 8.049-3.577 5.989 0 10.844 4.855 10.844 10.844 0 3.711-1.865 6.987-4.707 8.941z"/><ellipse cx="146.398" cy="196.285" rx="30.514" ry="35.626" transform="matrix(-.9302 -.3671 .3671 -.9302 210.5105 432.6104)"/><ellipse cx="94.585" cy="78.875" rx="8.125" ry="6.375"/><path d="m130.036 117.167c-9.5 7-21.5 10-33.833 10s-27-3.334-37.667-10.167c-13.167-3.333-19.167-5.667-31.167-8s-17.833 9.001-18.833 11.834-5.333 17.333 8.5 23.333c6.833 3 16.5 4.333 16.5 4.333-1.333 2.667-2.333 7.334-2.333 7.334 7.333-3.667 23.667-2.666 34.5 9 4.667-16.334 19.667-20 29.667-20s22.166 2.666 30.833 20.166c6-5.166 14.499-11.834 31.333-10.5-.666-3.166-1.5-5.666-1.5-5.666 8.834-1.834 11.834-2.834 17.167-4.834s11.501-10.499 7.667-22.166-12.167-14.834-19.667-12.834-31.167 8.167-31.167 8.167z"/><path d="m79.751 203.833s.333 8.501-3.667 15.334c13 4.166 29.5 3.166 37-.667-2.5-5.833-2.833-12.499-2.833-14.333-4.666 3-22.334 5.166-30.5-.334z"/></g></svg>