<svg height="59.673607" viewBox="0 0 73.84375 55.944008" width="78.76667" xmlns="http://www.w3.org/2000/svg"><g fill="none" stroke="#e0e0e0" stroke-linecap="round" stroke-linejoin="round" stroke-width="2.5" transform="translate(-521.375 -105.24505)"><path d="m558.375 109.18906s-3.16919-3.30294-7.18626-2.57083c-4.01165.73113-11.42111 3.8517-15.38172 4.82198-4.15371 1.01758-13.1583 1.4144-13.1583 1.4144l-.0381 47.0944s9.48962-.65837 13.64333-1.67595c3.96061-.97028 11.37007-4.09085 15.38172-4.82198 4.01707-.73211 6.73933 2.73798 6.73933 2.73798z"/><path d="m558.375 109.18906s2.91431-3.30294 6.93138-2.57083c4.01165.73113 11.42111 3.8517 15.38172 4.82198 4.15371 1.01758 13.1583 1.4144 13.1583 1.4144l.12596 47.00659s-9.57744-.57056-13.73115-1.58814c-3.96061-.97028-11.37007-4.09085-15.38172-4.82198-4.01707-.73211-6.48449 2.73798-6.48449 2.73798z"/></g><g fill="#e6e6e6"><path d="m577.50092 117.48192c1.38019.00003 2.07029.74222 2.07031 2.22656-.00002.75524-.20835 1.32164-.625 1.69922-.40366.36461-.88543.5469-1.44531.54687-1.39324.00003-2.08986-.74867-2.08985-2.24609-.00001-1.48434.69661-2.22653 2.08985-2.22656m-1.73766 11.24545-5.31313-.015v-2.40235h8.8086v18.65235l6.875.39062v2.40235h-17.14844v-2.40235l6.71875-.39062.0592-16.26288" transform="translate(-521.375 -105.24505)"/><circle cx="56.144558375" cy="14.49733625" fill-rule="evenodd" r="2.5466331875"/></g></svg>