<svg enable-background="new 0 0 960 960" viewBox="0 0 960 960" xmlns="http://www.w3.org/2000/svg"><path d="m664.34151 436.3283c2.2 3.6 3.8 7.6 4.5 11.9.5 3.1.7 6.2.3 9.5l-11.5 101.6c-1.8 15.5-16.4 26-31.7 22.8l-152.7-32.5c-13.6-2.9-21.7-17-17.3-30.3l27-80.5 2.8-8.5c.6-1.7 1.2-3.3 2-4.9 1.3-2.6 2.8-5.1 4.5-7.3 3.9-5 8.9-9 14.5-11.7l-45.7-8.5c-23.4-4.4-46.8 7.4-57.3 28.7l-33.8 69c-13.8-2.8-42.4-7.4-62.7-1.7-32.1 9.1-38.8 28.8-44.8 46.1-4.7 13.7-8.8 25.6-25.2 32.8-8.5 3.7-25.9 4-39.8 4.2-12.4.2-23.1.4-29.7 2.5-23.3 7.7-40.8 26.2-46.8 49.5-2.7 10.5-2.5 19.8.6 27.7 8 20.4 30.6 28.2 38.1 30.7.4.2.8.3 1.1.4l.4.1 59.3 14.3 3.3-13.6-58.3-14.1c-.3-.1-.6-.2-.9-.3-5.9-2-24-8.1-29.5-22.5-2-5.1-2-11.6-.1-19.2 4.8-18.6 18.8-33.5 37.6-39.6 4.5-1.5 15.2-1.7 25.5-1.8 16-.3 34.2-.5 45.3-5.4 22-9.7 27.7-26.4 32.8-41.1 5.5-16.1 10.3-30 35.3-37.1 14.9-4.2 36.4-1.7 50.1.8 1.5-1.9 3.2-3.7 5.1-5.3 2.8-2.3 6.1-4.4 9.7-6 6-2.7 13-4.2 20.4-4.2 22.6 0 41 14.1 41 31.5v12.6 1.5.5c0 .3-.1.7-.1 1 0 .2-.1.4-.1.6 0 .3-.1.6-.2.9 0 .2-.1.4-.1.6 0 .1 0 .2-.1.3 0 .2-.1.4-.1.6s-.1.4-.2.6c-.1.3-.2.6-.3.9-.1.2-.1.4-.2.6-.1.3-.2.6-.4 1-.1.2-.1.3-.2.5-.2.5-.4.9-.6 1.4-.2.5-.5 1-.8 1.5-.1.2-.2.3-.3.5-.2.3-.4.7-.6 1-.1.2-.2.4-.4.6-.2.3-.4.6-.6.8-.1.2-.3.4-.4.6-.2.3-.4.5-.6.8 0 0-.1.1-.1.1-.1.1-.2.2-.3.3-.3.4-.6.8-1 1.1-.2.2-.3.3-.4.5-.3.4-.7.7-1 1.1-.1.1-.3.3-.4.4-.5.5-1 .9-1.5 1.3-.1.1-.2.2-.3.2-.4.4-.9.7-1.3 1.1-.2.1-.4.3-.5.4-.4.3-.8.6-1.2.9-.2.1-.4.2-.5.3-.6.4-1.2.8-1.8 1.1-.6.4-1.3.7-1.9 1-.2.1-.4.2-.6.3-.5.2-1 .5-1.4.7-.2.1-.4.2-.7.3-.5.2-1.1.5-1.7.7-.1 0-.3.1-.4.2-.7.3-1.4.5-2.1.7-.2.1-.4.1-.6.2-.5.2-1.1.3-1.7.5-.2.1-.5.1-.7.2-.6.1-1.1.3-1.7.4-.2 0-.4.1-.6.1-.8.1-1.5.3-2.3.4-.2 0-.3 0-.5.1-.6.1-1.3.2-2 .2-.3 0-.5.1-.8.1-.6 0-1.2.1-1.8.1-.3 0-.5 0-.7 0-.8 0-1.7.1-2.5.1-22.6 0-41-14.1-41-31.5v-11.8l-6.7 13.7c-17.4 35.4 3.3 77.7 41.9 85.7l232.9 48.3c32.1 6.6 62.8-16.2 65.7-48.8l11.7-132.5c2.5-25.5-13.2-48.3-36.6-55.6zm-213.2 96.6.4-1.1c.5 12.1 9 23 21.7 25.6l153.4 31.5c12.6 2.6 24.7-3.9 30-14.9l-.1 1.4c-1.7 15.8-16.5 26.6-32.1 23.4l-153.4-31.2c-15.8-3.2-25.1-19.5-19.9-34.7zm227.8 88.2c-1.2 5.2-3.1 10.3-6 15l-1.1 1.8-1.2 1.7c-.4.6-.8 1.1-1.3 1.7-.4.5-.9 1.1-1.4 1.6-1.9 2.1-3.9 4-6.2 5.7s-4.6 3.2-7.1 4.5-5.1 2.4-7.8 3.2c-10.7 3.4-22.1 3.5-32.9 1.5-1.4-.2-2.6-.5-3.9-.8l-3.8-.8-7.6-1.6c-5.1-1.1-10.1-2.2-15.2-3.3-20.2-4.4-40.4-9-60.5-13.9-10-2.5-20.1-5-30.1-7.6-5-1.3-10-2.6-15-4s-10-2.8-15-4.2c5.2.6 10.3 1.3 15.4 2.1 5.1.7 10.3 1.5 15.4 2.3 10.3 1.5 20.5 3.3 30.7 5 20.4 3.5 40.8 7.3 61.1 11.3 5.1 1 10.2 2 15.2 3l15.1 3.1c9.5 1.9 19.4 2 28.6-.3 4.6-1.2 9-3 13-5.5 2-1.3 3.9-2.7 5.7-4.3 1.7-1.6 3.5-3.3 5-5.3 6.2-7.6 9.9-17.3 12.2-27.4.4 5-.1 10.3-1.3 15.5z" fill="none" stroke="#f4f4f4" stroke-width="3"/><polygon transform="translate(22.641509 80.528302)"/><path d="m437.24151 529.3283c0 .1 0 .2-.1.4 0 .2-.1.3-.1.5 0-.3.1-.6.2-.9z"/><path d="m435.84151 533.6283c-.1.2-.2.5-.3.7.1-.2.2-.4.3-.7z"/><path d="m621.34151 475.3283c0 .1-.1.1-.2.2s-.2.3-.3.4c.2-.3.3-.5.5-.6z"/><path d="m626.24151 467.8283c0 .1-.1.2-.2.3 0 .1-.1.1-.1.2.2-.2.2-.4.3-.5z"/><path d="m597.14151 413.7283-1.4 8.1c.9.5 1.7 1.1 2.6 1.7 5.5 3.9 9.7 9 12 14.7 1.3 3.2 2 6.6 2 10.1v.8c-.6 16.8-17.8 30.2-38.8 30.1-21.4-.1-40.7-15.3-40.6-32.5 0-3.2.7-6.2 1.9-9.1 1.7-4 4.5-7.7 8.1-10.9 2.5-2.2 5.3-4.1 8.5-5.7.8-.4 1.6-.9 2.5-1.2v-4.6l.1-8.6.5-50.2c-22.3-12.1-37.4-36-37.3-63.5.2-39.5 31.7-71.4 70.4-71.2s70 32.3 69.8 71.8c-.2 32.6-21.6 59.9-50.8 68.5z" fill="none" stroke="#f4f4f4" stroke-width="2.9"/><path d="m629.84151 454.8283-2.6 39.9c0 .7-.1 1.3-.2 2 0 .2 0 .4-.1.6-.1.5-.1 1-.3 1.5 0 .2-.1.4-.1.6-.1.6-.3 1.2-.4 1.8v.2c-.2.6-.4 1.3-.6 1.9-.1.2-.1.4-.2.6-.2.5-.3.9-.5 1.3-.1.2-.2.5-.3.7-.2.4-.4.8-.6 1.2-.1.2-.2.4-.3.6 0 .1-.1.2-.1.3-.1.3-.3.5-.4.7-.2.3-.3.6-.5.9s-.4.7-.6 1-.4.6-.6.9-.4.6-.7 1c-.2.3-.4.6-.6.9s-.5.6-.7.9-.5.6-.7.9c0 .1-.1.1-.2.2s-.2.3-.3.4c-.5.5-1 1.1-1.5 1.6-.2.2-.4.4-.6.6-.6.6-1.2 1.2-1.9 1.8-.1.1-.1.1-.2.2-.7.6-1.5 1.3-2.3 1.8-.2.2-.4.3-.7.5-.6.5-1.2.9-1.8 1.3-.2.2-.5.3-.7.5-.8.6-1.7 1.1-2.6 1.6-.1 0-.1.1-.2.1-.8.5-1.7.9-2.5 1.4-.3.1-.5.3-.8.4-.7.4-1.4.7-2.2 1-.3.1-.5.2-.8.3-1 .4-2 .8-3 1.2-.2.1-.4.1-.5.2-.8.3-1.7.6-2.6.9-.3.1-.6.2-.9.3-.8.3-1.7.5-2.5.7-.2.1-.5.1-.7.2-1.1.3-2.2.5-3.3.7-.3.1-.5.1-.8.2-.9.2-1.8.3-2.6.5-.3 0-.7.1-1 .1-1 .1-2 .3-3 .4-.2 0-.3 0-.5 0-1.2.1-2.3.2-3.5.2-.3 0-.6 0-1 0-.9 0-1.8 0-2.7 0-.3 0-.7 0-1 0-1.2 0-2.4-.1-3.7-.1-32.1-2.1-56.9-23.2-55.4-47.3l2.6-39.9c0 .7-.1 1.3-.1 2v.3c0 2.2.2 4.4.7 6.6.3 1.4.7 2.9 1.2 4.3 1.9 5.6 5.3 10.8 9.7 15.4 10 10.4 25.8 17.6 43.9 18.7 1.2.1 2.4.1 3.7.1h1 2.7 1c1.2-.1 2.3-.1 3.5-.2.2 0 .3 0 .5-.1 1-.1 2-.2 3-.3.3 0 .7-.1 1-.2.9-.1 1.8-.3 2.6-.4.3-.1.5-.1.8-.1 1.1-.2 2.2-.5 3.3-.7.2-.1.5-.1.7-.2.9-.2 1.7-.5 2.5-.7.3-.1.6-.2.9-.3.9-.3 1.7-.6 2.5-.9.2-.1.4-.1.5-.2 1-.4 2-.8 3-1.2.3-.1.5-.2.8-.3.7-.3 1.5-.7 2.2-1 .3-.1.5-.3.8-.4.9-.4 1.7-.9 2.5-1.4.1 0 .1-.1.2-.1.9-.5 1.7-1 2.6-1.6.2-.2.5-.3.7-.5.6-.4 1.2-.9 1.8-1.3.2-.2.5-.3.7-.5.8-.6 1.5-1.2 2.3-1.8.1-.1.1-.1.2-.2.7-.6 1.3-1.2 1.9-1.8.2-.2.4-.4.6-.6.5-.5 1-1.1 1.5-1.6.1-.1.2-.2.3-.4 0-.1.1-.1.2-.2.2-.3.5-.6.7-.9s.5-.6.7-.9.4-.6.6-.9.5-.6.7-.9.4-.6.6-.9.4-.7.6-1 .4-.6.5-.9c.1-.2.2-.4.3-.5 0-.1.1-.1.1-.2.1-.1.1-.2.2-.3.1-.2.2-.4.3-.6.2-.4.4-.8.6-1.2.1-.2.2-.5.3-.7.2-.4.3-.9.5-1.3l.2-.6c.2-.6.4-1.3.6-1.9s0-.1 0-.2c.1-.6.3-1.2.4-1.8 0-.2.1-.4.1-.6.1-.5.2-1 .3-1.5 0-.2.1-.4.1-.6.1-.9.2-1.6.2-2.2z" fill="none" stroke="#f4f4f4" stroke-width="3"/><path d="m355.74151 524.9283v-.7z" fill="#831308"/><path d="m437.74151 524.2283v12.6 1.5.5c0 .3-.1.7-.1 1 0 .2-.1.4-.1.6 0 .3-.1.6-.2.9 0 .2-.1.4-.1.6 0 .1 0 .2-.1.3 0 .2-.1.4-.1.6s-.1.4-.2.6c-.1.3-.2.6-.3.9-.1.2-.1.4-.2.6-.1.3-.2.6-.4 1-.1.2-.1.3-.2.5-.2.5-.4.9-.6 1.4-.2.5-.5 1-.8 1.5-.1.2-.2.3-.3.5-.2.3-.4.7-.6 1-.1.2-.2.4-.4.6-.2.3-.4.6-.6.8-.1.2-.3.4-.4.6-.2.3-.4.5-.6.8 0 0-.1.1-.1.1-.1.1-.2.2-.3.3-.3.4-.6.8-1 1.1-.2.2-.3.3-.4.5-.3.4-.7.7-1 1.1-.1.1-.3.3-.4.4-.5.5-1 .9-1.5 1.3-.1.1-.2.2-.3.2-.4.4-.9.7-1.3 1.1-.2.1-.4.3-.5.4-.4.3-.8.6-1.2.9-.2.1-.4.2-.5.3-.6.4-1.2.8-1.8 1.1-.6.4-1.3.7-1.9 1-.2.1-.4.2-.6.3-.5.2-1 .5-1.4.7-.2.1-.4.2-.7.3-.5.2-1.1.5-1.7.7-.1 0-.3.1-.4.2-.7.3-1.4.5-2.1.7-.2.1-.4.1-.6.2-.5.2-1.1.3-1.7.5-.2.1-.5.1-.7.2-.6.1-1.1.3-1.7.4-.2 0-.4.1-.6.1-.8.1-1.5.3-2.3.4-.2 0-.3 0-.5.1-.6.1-1.3.2-2 .2-.3 0-.5.1-.8.1-.6 0-1.2.1-1.8.1-.3 0-.5 0-.7 0-.8 0-1.7.1-2.5.1-22.6 0-41-14.1-41-31.5v-11.8c.5 17.1 18.6 30.8 41 30.8.8 0 1.7 0 2.5-.1h.7c.6 0 1.2-.1 1.8-.1.3 0 .5 0 .8-.1.7-.1 1.3-.2 2-.3.2 0 .3 0 .5-.1.8-.1 1.5-.3 2.3-.4.2 0 .4-.1.6-.1.6-.1 1.1-.3 1.7-.4.2-.1.5-.1.7-.2.6-.1 1.1-.3 1.7-.5.2-.1.4-.1.6-.2.7-.2 1.4-.5 2.1-.7.1 0 .3-.1.4-.2.6-.2 1.1-.4 1.7-.7.2-.1.4-.2.7-.3.5-.2 1-.4 1.4-.7.2-.1.4-.2.6-.3.7-.3 1.3-.7 1.9-1 .6-.4 1.2-.7 1.8-1.1l.5-.4c.4-.3.8-.6 1.2-.9l.5-.4c.5-.3.9-.7 1.3-1 .1-.1.2-.2.3-.2.5-.4 1-.9 1.5-1.3l.4-.4c.4-.3.7-.7 1-1 .2-.2.3-.3.4-.5.3-.4.7-.7 1-1.1.1-.1.2-.3.3-.4.2-.3.4-.5.6-.8.1-.2.3-.4.4-.6.2-.3.4-.6.6-.8.1-.2.3-.4.4-.5.2-.3.4-.7.6-1 .1-.2.2-.3.3-.4.3-.5.5-1 .8-1.5.1-.2.2-.5.3-.7.1-.2.2-.5.3-.7.1-.1.1-.3.2-.5.1-.3.3-.6.4-1 .1-.2.1-.4.2-.6.1-.3.2-.6.3-.9.1-.2.1-.4.2-.6 0-.2.1-.3.1-.5 0-.1 0-.2.1-.4 0-.2.1-.4.1-.6 0-.3.1-.6.2-.9 0-.2.1-.4.1-.5 0-.3.1-.7.1-1 0-.2 0-.3 0-.5.1-.9.1-1.4.1-1.9z" fill="none" stroke="#f4f4f4" stroke-width="3"/><path d="m435.54151 534.3283c.1-.2.2-.5.3-.7-.1.3-.2.5-.3.7z" fill="#bf1617"/><path d="m397.77275 509.13938 3.64498 5.62372-.39382.25082q-1.08014-1.34354-2.16479-2.00535-1.08465-.6618-2.51171-.82148-1.18043-.13813-2.44649.26497-1.27621.38553-3.13799 1.46044l-4.02216 2.32219 6.08435 10.5384 1.05384-.60843q1.59832-.92279 2.28458-1.60003.68626-.67723.88126-1.51579.19771-.79329.0306-1.61012-.15973-.84453-.78248-2.28822l.41413-.21566 5.3651 9.45487-.40397.23324q-.9389-1.26117-1.73166-1.90414-.7752-.65312-1.65432-.91838-.85142-.25782-1.8466-.0345-.99518.22329-2.29492.97369l-1.00115.57802 2.3222 4.02216q1.38926 2.40627 2.15106 3.44181.75166 1.01798 1.52885 1.55286 1.3273.91983 2.884.81731 1.56412-.13023 3.56641-1.28625 2.10768-1.21687 3.22615-2.56519 1.10833-1.36586 1.35509-3.00713.19626-1.12032.0249-2.30943-.15376-1.19925-.7327-2.97268l.41413-.21566 3.80761 7.1223-20.95386 12.09772-.23323-.40396q.97075-.63067 1.45364-1.21396.50047-.5934.69819-1.38669.21998-.87641-.0837-1.84859-.29627-.99989-1.3306-2.79141l-7.47362-12.94468q-1.03434-1.79153-1.74199-2.53048-.70023-.76665-1.56922-1.01434-.7683-.23556-1.53243-.0988-.74657.1266-1.79571.66205l-.23323-.40396z" fill="#999"/><g fill="#808080"><path d="m478.19139 578.56966-1.11188 6.35736-.44228-.081q.11789-1.65596-.21407-2.8337-.33195-1.17775-1.23456-2.22541-.74265-.87089-1.90035-1.41586-1.15335-.56403-3.17165-1.02515l-4.36031-.9962-2.61012 11.42438 1.14244.26101q1.73269.39587 2.66077.36749.92807-.0284 1.6151-.49248.6593-.43038 1.07648-1.11641.44058-.70072.94691-2.12769l.43359.11906-2.40785 10.18838-.43794-.10005q.16361-1.50529.0253-2.4785-.11923-.96886-.56594-1.73206-.432-.73981-1.2807-1.23422-.8487-.49442-2.25771-.81634l-1.08531-.24796-.9962 4.3603q-.59598 2.60857-.73676 3.83858-.13642 1.21097.0617 2.09768.33416 1.51883 1.50005 2.46638 1.18929.93286 3.35992 1.42878 2.28487.52202 3.95768.30317 1.67714-.23789 2.92663-1.23463.87252-.66214 1.53067-1.61367.6772-.94718 1.43049-2.57818l.43359.11906-1.97891 7.52162-22.71546-5.18979.10005-.43794q1.09837.19084 1.82134.0956.74202-.0909 1.40131-.5213.72946-.47444 1.15207-1.35958.446-.89983.88972-2.84197l3.2061-14.03294q.44372-1.94215.42839-2.92734.008-.99988-.44299-1.74404-.38793-.66964-1.01685-1.07377-.60986-.39978-1.70117-.70921l.10006-.43794z"/><path d="m484.85114 590.10847q.0382 1.41115-.16675 2.74671 1.49103-1.00167 3.1328-1.34781 1.66081-.3418 3.27927.028 1.78982.40892 2.78057 1.59693.59738.71749 1.21717 2.30157 1.78205-1.13551 3.40478-1.486 1.62274-.35051 3.31735.0367 2.28487.52203 3.42581 2.10498 1.16432 1.56826.7032 3.58656l-1.47472 6.45477-.31161 1.45143q-.29581 1.29476-.28269 1.93886.0175.62507.34501 1.12063.43473.64025 1.80187 1.23308l-.087.38082-8.39691-1.91844.087-.38082q1.17725.10869 1.71416-.0491.56031-.1725 1.03626-.76497.3095-.39008.58577-1.24855.29971-.87314.67817-2.52968l.83089-3.63676q.48288-2.11351.57145-3.11503.0886-1.00153-.13563-1.77399-.52515-1.82292-2.71481-2.32319-2.36104-.53942-3.82753.96871-1.27667 1.29104-2.00315 4.47082l-.83959 3.67484-.31161 1.45144q-.29581 1.29475-.28269 1.93886.0175.62506.345 1.12062.41569.6359 1.80187 1.23308l-.087.38082-8.39691-1.91844.087-.38082q1.17724.10869 1.71416-.0491.56031-.17251 1.03626-.76498.3095-.39008.58577-1.24855.29971-.87314.67817-2.52967l.80479-3.52252q.50898-2.22776.59156-3.29075.10598-1.07769-.14597-1.81643-.26229-.78116-.93691-1.33598-.67027-.57387-1.6223-.79138-1.08531-.24796-2.1548.0486-1.06948.29659-1.82178 1.0463-.69245.66321-1.17325 1.71536-.45741 1.03746-.85328 2.77017l-.79608 3.48443-.30291 1.41335q-.29581 1.29476-.28269 1.93886.0175.62506.36405 1.12497.41567.6359 1.78282 1.22874l-.087.38082-8.39693-1.91845.087-.38081q1.17724.10869 1.7332-.0448.56031-.17251 1.01721-.76932.30951-.39008.58578-1.24856.2997-.87314.68252-2.54871l1.0745-4.70304q.44807-1.96118.53119-2.76361.0875-.82147-.12307-1.39047-.2019-.60709-.60667-.93998-.40042-.35193-1.24419-.60482l.087-.3808z"/><path d="m520.52355 615.92898q.0135-1.19899.28755-2.39855-2.91951 1.81727-6.17545 1.07338-2.38008-.54377-3.5618-2.03587-1.148-1.46435-.66948-3.55882l1.51387-6.62614.31161-1.45143q.29581-1.29477.27834-1.91982-.0175-.62506-.34065-1.13966-.43473-.64025-1.80622-1.21405l.0914-.39986 5.5789 1.27461-2.20556 9.65361q-.46547 2.03734-.5584 3.05791-.0695 1.00587.16773 1.72121.27098.74309.96464 1.30226.69802.54013 1.66909.76199 1.06627.24361 2.09497.0379 1.02869-.20573 1.72714-.80747.72183-.61643 1.11506-1.54835.41227-.92757.92124-3.15532l.85265-3.73197.3029-1.41334q.29582-1.29477.27834-1.91982.002-.62072-.34065-1.13967-.41569-.6359-1.80622-1.21404l.0914-.39986 5.5789 1.27461-2.36216 10.33906q-.44807 1.96118-.53554 2.78265-.0641.80677.12744 1.37143.22092.61144.62134.96337.40477.33289 1.24855.58578l-.087.38081z"/><path d="m553.66843 595.81388-1.11188 6.35736-.44227-.081q.11788-1.65597-.21408-2.83371-.33195-1.17774-1.23456-2.2254-.74265-.87089-1.90035-1.41587-1.15334-.56402-3.17166-1.02514l-4.36029-.9962-2.61013 11.42438 1.14244.26101q1.7327.39587 2.66076.36748.92808-.0284 1.61511-.49247.65929-.43038 1.07648-1.11641.44058-.70072.94691-2.12769l.43359.11906-2.40784 10.18838-.43794-.10005q.1636-1.50529.0253-2.4785-.11923-.96886-.56593-1.73206-.43201-.73981-1.28071-1.23422-.8487-.49442-2.2577-.81633l-1.08532-.24797-.99619 4.3603q-.59598 2.60857-.73676 3.83858-.13643 1.21097.0617 2.09768.33417 1.51883 1.50006 2.46638 1.18929.93286 3.35992 1.42878 2.28488.52203 3.95767.30317 1.67715-.23789 2.92664-1.23463.87252-.66214 1.53067-1.61367.6772-.94718 1.43049-2.57818l.43359.11907-1.97891 7.52161-22.71547-5.18979.10006-.43794q1.09836.19084 1.82134.0956.74201-.0909 1.40131-.5213.72947-.47444 1.15207-1.35958.44599-.89983.88972-2.84197l3.2061-14.03294q.44372-1.94215.4284-2.92734.008-.99988-.44299-1.74404-.38795-.66964-1.01685-1.07377-.60988-.39979-1.70118-.70922l.10005-.43793z"/><path d="m551.55757 622.67873.1044-.45697q1.9231.43937 3.2183-.4067.72946-.47444 1.15207-1.35958.446-.89982.88972-2.84197l3.2061-14.03294q.46112-2.0183.4311-3.02688-.007-1.02328-.51479-1.78049-.42004-.61686-1.03426-.9976-.59518-.3764-1.61467-.64939l.10006-.43794 12.16696 2.77979-.10006.43793q-1.06028-.18213-1.77891-.10591-.71862.0762-1.34582.45383-.79095.48044-1.23694 1.38027-.446.89982-.90277 2.89909l-2.51007 10.98644q-.57858 2.5324-.72806 3.80049-.14948 1.2681.053 2.13576.35321 1.52319 1.5191 2.47074 1.17024.9285 3.34087 1.42443 2.26584.51767 3.94299.27978 1.70054-.25259 2.97776-1.28305.86219-.70458 1.52904-1.69419.68589-.98526 1.45224-2.67339l.44827.14253-2.03112 7.75011z"/><path d="m601.72697 606.7938-1.11188 6.35736-.44228-.081q.11789-1.65596-.21406-2.83371-.33196-1.17774-1.23457-2.2254-.74265-.87089-1.90035-1.41587-1.15335-.56402-3.17165-1.02514l-4.36031-.9962-2.61012 11.42438 1.14244.26101q1.73269.39587 2.66077.36749.92807-.0284 1.6151-.49248.6593-.43038 1.07648-1.11641.44058-.70072.94691-2.12769l.43359.11906-2.40785 10.18838-.43794-.10005q.16361-1.50529.0253-2.4785-.11923-.96886-.56593-1.73206-.43201-.73981-1.28071-1.23422-.8487-.49442-2.25771-.81634l-1.08531-.24796-.9962 4.3603q-.59598 2.60856-.73675 3.83858-.13643 1.21097.0617 2.09768.33416 1.51883 1.50005 2.46638 1.18929.93286 3.35992 1.42878 2.28487.52202 3.95768.30317 1.67714-.23789 2.92663-1.23463.87252-.66214 1.53067-1.61367.6772-.94718 1.43049-2.57818l.43359.11906-1.97891 7.52162-22.71546-5.18979.10005-.43794q1.09837.19083 1.82134.0956.74202-.0909 1.40131-.5213.72946-.47444 1.15207-1.35958.446-.89983.88972-2.84197l3.2061-14.03294q.44372-1.94215.42839-2.92734.008-.99988-.44299-1.74404-.38793-.66964-1.01685-1.07377-.60986-.39979-1.70117-.70922l.10006-.43793z"/><path d="m629.00456 612.88566-1.71606 8.56337-.43793-.10006q-.0833-.60003-.13229-.91175-.2488-1.98015-.46324-2.97076-.37716-1.76907-1.48165-3.42383-.83572-1.25276-1.87374-1.97075-1.03804-.71799-2.46609-1.04425-2.15159-.49158-3.94512.0803-1.57703.50117-3.12895 1.7694-1.54758 1.24919-2.75728 3.03636-1.71609 2.51293-2.52088 6.03545-.68298 2.98938-.48852 5.55816.19446 2.56878 1.25273 4.51349 1.94028 3.60875 6.28154 4.6006 2.17063.49592 4.07299.1492 1.9067-.36575 3.17195-1.51917 1.46543-1.32805 2.57386-3.89968l.42054.17619q-1.04911 2.92576-2.7294 4.40508-1.60576 1.4162-3.96181 1.81954-2.33701.40769-5.15503-.23615-2.6276-.60032-4.84837-1.92912-3.54005-2.13108-4.9434-5.89763-1.39901-3.78561-.35931-8.33632.79609-3.48442 2.7227-6.12957 1.93097-2.66418 4.58668-3.94068 2.04592-.97505 4.62774-1.22663 2.60522-.26627 5.02338.28621 2.30391.52637 4.67429 1.98951l1.44387.87082q.41782.27577.76056.35407.47602.10876.87202-.22149.17679-.15996.46725-.55439z"/></g></svg>