<svg height="103.70829" viewBox="0 0 105.12649 27.439486" width="397.32849" xmlns="http://www.w3.org/2000/svg"><g stroke-width=".264583"><g fill="#333" transform="translate(-12.685657 -229.84515)"><path d="m24.117188 235.23633c-1.856067.43908-5.720503 2.09704-2.81836 4.15625-1.322956 3.1362-1.346285 7.85841-3.888672 10.03711-2.350258-1.9825-5.289241 1.80744-2.457031 3.2207 5.064998 2.30903 8.802573-3.96918 9.267578-8.24805-.533666-2.96921 3.340072-5.75764 1.814453-8.41211-.512558-.47704-1.212449-.77654-1.917968-.7539z"/><path d="m30.541016 238.16602c-3.911845.86333-7.755661 5.56697-6.791016 9.5957 1.269315 2.57058 4.263861.36838 5.392578-.38477 2.559011 4.20378 7.573292-1.06067 8.542969-4.08203.805601-3.59381-3.475786-1.65546-3.921875.65039-2.974684 2.15318 2.626-5.65453-1.839844-5.39648-.405317-.0171-.854749-.54214-1.382812-.38281z"/><path d="m36.833984 238.08594c-2.833406 1.09336-1.992618 5.45582-3.085937 7.8457-.65848 2.8646 3.227554 4.10526 4.263672 1.22852.68036-1.81139 1.04398 3.39057 3.322265 1.41992 1.798125-1.46333 2.311646-3.12871 3.191407-.39063 3.522794 2.75872 7.937839-2.48996 8.339843-5.80273-1.615996-3.60437-4.796202 4.0005-5.09375 1.97656.611657-1.9707 3.357923-5.23546-.28125-5.98242-2.220405.1332-2.861203 3.44018-3.675781.29297-1.673877-2.00768-3.957587 1.98204-4.548828 1.29492-.363625-.97496-1.329498-1.92848-2.431641-1.88281z"/><path d="m55.859375 238.16602c-3.910801.86493-7.754187 5.56592-6.791016 9.5957 1.268459 2.56828 4.262291.37395 5.392579-.38477 2.560172 4.20291 7.569575-1.05885 8.542968-4.07812.809723-3.59659-3.47502-1.66327-3.921875.64648-2.726921 2.13252 1.093055-3.33715-.257812-4.64258-.792059-.81371-1.946611-.87327-2.964844-1.13671z"/><path d="m64.271484 233.72852c-3.133396.0666-.753349 4.09971-1.765625 4.76171-2.294211 2.19185-3.715832 5.97011-3.199218 9.09375 2.994009 4.07526 8.674492-1.81517 9.570312-5.02343-.718168-4.05356-4.781211 2.16056-5.181641 1.53711.977784-1.4549 1.630165-4.00477 1.763672-5.01172 1.825024-.90426 1.804546-5.83894-1.1875-5.35742z"/><path d="m70.951172 238.13281c-3.618284-.15314-6.691225 4.31453-4.404297 7.07422-3.141388.44442-2.287802 4.78704.804687 4.13477 3.847131-.19177 5.182138-4.58979 2.486329-6.9668 2.052145.1792 5.523913-1.73155 2.955078-3.76953-.53898-.35535-1.204073-.48561-1.841797-.47266z"/><path d="m80.853516 232.85352c-3.278603.15356-2.271912 4.16977-1.853516 5.57226-3.695312 2.66523-2.483589 8.60182-4.736328 12.26367-.0061 2.81952-3.65177-1.16118-4.144531 2.03125-.09511 4.11633 5.894381 4.1181 7.138671.63282 2.017298-4.45826 3.244281-9.52862 4.863282-13.99414-1.222752-1.50652 2.483249-5.68291-1.267578-6.50586z"/><path d="m86.09375 237.74414c-3.850423.71634-5.791457 5.1601-6 8.81055.97653 4.67227 7.246025 1.80278 8.585938-1.21094 1.895628-2.53278.303721-7.01373-2.585938-7.59961zm-.947266 5.85156c-1.369041 2.80991.462736-1.34225 0 0z"/><path d="m97.613281 238.0625c-2.062041-.11328-3.459769 5.64599-2.853515 1.89453-.956364-3.1091-4.946121-1.38008-4.890625 1.47266-1.284201 2.11323-2.973778 7.91627 1.310547 7.38476 1.786841-.51303 2.867304-2.94879 3.564453-.29297 3.551233 1.5351 7.379729-2.61286 8.615239-5.67968.19788-3.02274-3.387308-1.12043-3.98438.65039-3.251695 2.16554 2.15446-3.40232-.375-4.90821-.396697-.30749-.867689-.56887-1.386719-.52148z"/><path d="m107.39453 233.48438c-3.4046.93237-3.61671 5.31853-6.2168 7.15039-2.521495 2.43538-2.769042 8.82494 1.95118 8.35937 3.28271-.53476 8.20544-2.82886 8.21484-6.60352-1.11813-2.78684-4.62862 2.97938-3.01172-.33984.97826-1.64323-1.51948-3.14638-1.61133-3.45898 2.56384-1.14808 4.88781-4.54531.67383-5.10742z"/><path d="m113.78711 238.13281c-3.61608-.15247-6.69342 4.30956-4.4043 7.07422-3.14247.4436-2.28664 4.78731.80469 4.13477 3.33263-.14985 5.4798-4.10481 2.66992-6.46094-.041-1.31727 5.34336-.68308 3.3457-3.73828-.53787-.74954-1.5309-1.03186-2.41601-1.00977z"/></g><g fill="#f4c401" transform="translate(-12.487481 -229.826852)"><path d="m24.178051 236.23428q.413808 0 .803275.21907.413808.21908.535516.53552.121709.2921 0 .51117-.09737.21908-.219075.34079-.121708.12171-.267758.36512-.121708.24342-.219075.51118-.09737.26776-.194733.55986-.09737.26775-.267759.82761-.14605.53552-.413808 1.48484-.243417.94933-.681567 2.55588-.608541 2.21509-1.241425 3.7973-.608541 1.58221-1.265766 2.31246-.559859.63288-1.095375.94932-.535517.34079-.73025.43815-.243417.0974-.511175.19474-.267759.1217-.462492.17039-.267758.073-.511175.14605-.243417.073-.462492.073-.340783 0-.778933-.14605-.43815-.14605-.827617-.34078-.243417-.12171-.43815-.46249-.194733-.31644-.194733-.5842 0-.2921.340783-.51118.316442-.21907.632884-.21907.2921 0 .705908.12171.389467.14605.559858.24341.121709.073.2921.12171.14605.073.340784.073.194733 0 .43815-.14605.267758-.12171.5842-.41381.340783-.41381.608541-.94933.2921-.53551.559859-1.29011.316441-.8763.5842-1.70391.2921-.85196.5842-1.84997.316441-1.02235.657225-2.26377.365125-1.26577.851958-2.99403.02434-.19473-.170392-.21907-.413808-.073-.754591-.31645-.316442-.26775-.316442-.5842 0-.21907.121708-.34078.14605-.14605.316442-.21907.194733-.0974.413808-.14605.243417-.0487.559859-.0974.267758-.0487.413808-.12171.14605-.073.365125-.2921.14605-.12171.316442-.21907.170391-.12171.43815-.12171z"/><path d="m30.677296 239.15528q.267759 0 .43815.19473.194734.17039.316442.31644.07302.21908.316442.0487.2921-.26776.5842-.073.511175.2921.511175.51118.02434.21907-.02434.38946-.486833 1.09538-.778933 2.21509-.2921 1.09538-.2921 2.19075 0 .63289.170391.92499.170392.26776.43815.26776.413809 0 1.533525-.94933 1.144059-.97367 2.507192-2.89666.121708-.19473.267758-.17039.170392.0243.170392.24342 0 .55986-.365125 1.24142-.413808.80328-1.02235 1.58221-.608542.77893-1.290108 1.41182-.681567.63288-1.363134 1.02235-.681566.38946-1.265766.38946-.681567 0-1.144059-.51117-.43815-.51118-.511175-1.26577-.04868-.26776-.04868-.46249 0-.19473 0-.38947-.02434-.26775-.219075-.073-.121708.12171-.389467.38947-.267758.26775-.608541.55985-.316442.2921-.681567.5842-.340783.2921-.5842.4625-.949325.7059-1.679575.7059-.121709 0-.340784-.0974-.194733-.0974-.389466-.26776-.194734-.19473-.365125-.46249-.14605-.26776-.14605-.60854 0-.36513.170391-.99801.170392-.63289.754592-1.7526.486833-.97367 1.192742-1.82563.705908-.8763 1.484842-1.58221.511175-.43815.949325-.68156.43815-.26776.778933-.38947.340783-.12171.5842-.14605.243417-.0487.340783-.0487zm-.900641 1.82562q-.170392 0-.486834.24342-.2921.24342-.827616.8763-.316442.36512-.608542.80327-.267758.41381-.486833.82762-.219075.38947-.365125.75459-.14605.36513-.194734.60854-.04868.24342-.02434.4625.04868.19473.194733.19473.14605 0 .389467-.14605.267758-.17039.535516-.41381.316442-.26776.608542-.63288.316442-.38947.8763-1.02235.267758-.2921.511175-.70591.243417-.41381.316442-.53552.121708-.19473.14605-.38946.04868-.21908 0-.41381-.04868-.17039-.194734-.34079-.14605-.17039-.389466-.17039z"/><path d="m42.58986 239.15528q.121708 0 .316442.0974.219075.0974.365125.31645.14605.21907.170391.5842.04868.34078-.121708.85195-.07303.19474-.194733.51118-.121709.31644-.2921.68157-.14605.36512-.2921.73025-.14605.34078-.243417.60854-.219075.55986-.09737.60854.121709.0487.389467-.17039.2921-.2921.827617-.8763.559858-.5842 1.144058-1.21709.5842-.63288 1.071033-1.1684.511175-.53551.681567-.7059.632883-.63289 1.071033-.63289.413809 0 .754592.36513.365125.36512.365125.77893 0 .21908-.09737.36513-.07303.1217-.243416.26775-.121709.12171-.2921.2921-.170392.14605-.340784.48684-.194733.34078-.43815 1.04669-.243416.68157-.389466 1.72826-.121709.73025 0 1.19274.121708.43815.559858.43815.243417 0 .608542-.17039.365125-.19474.851958-.63289.486833-.43815 1.119717-1.14405.657225-.70591 1.484841-1.7526.340784-.41381.511175-.14605.219075.2921-.316441 1.21708-.657225 1.14406-1.363134 1.97167-.681566.82762-1.338791 1.36314-.657225.53551-1.241425.77893-.5842.24342-1.02235.24342-.924984 0-1.4605-.75459-.511175-.7546-.316442-2.36115.04868-.31644.09737-.7059.07303-.38947.121708-.5842.07303-.26776-.02434-.26776-.07303-.0243-.267758.21907-.219075.26776-.681567.77894-.462491.51117-.973666 1.09537-.486834.55986-.949325 1.04669-.43815.48684-.632884.68157-.705908.68157-1.192741.68157-.43815 0-.5842-.68157-.14605-.70591.121708-1.67958.267758-1.02235.632883-2.11772.07303-.19473.09737-.34078.02434-.14605-.07303-.19474-.194733-.0974-.632883.41381-.14605.14605-.608542.73025-.43815.5842-.973667 1.24143-.535516.65722-1.02235 1.26576-.462491.5842-.632883.77894-.340784.36512-.559859.48683-.194733.12171-.389466.12171-.14605 0-.340784-.12171-.170391-.12171-.316441-.38947-.14605-.26776-.219075-.68156-.07303-.43815 0-1.07104.07303-.55986.316441-1.41181.243417-.8763.5842-2.11773.04868-.19473.07303-.2921.02434-.12171.07303-.26776.04868-.21907.07303-.46249.02434-.24342.121709-.65722.04868-.19474.09737-.43815.04868-.24342.14605-.43815.09737-.21908.243417-.34079.170392-.14605.413809-.14605.340783 0 .681566.26776.389467.31644.608542.68157.219075.36512-.02434.85196-.219075.48683-.486833 1.19274-.267758.68156-.511175 1.4605-.170392.51117-.07303.63288.09737.12171.365125-.19473.778933-.85196 1.338792-1.50919.5842-.65722 1.265766-1.36313.2921-.2921.486834-.48683.194733-.21908.365125-.36513.170391-.17039.316441-.2921.14605-.12171.2921-.24341.632884-.55986 1.046692-.55986z"/><path d="m55.996414 239.15528q.267758 0 .43815.19473.194733.17039.316441.31644.07303.21908.316442.0487.2921-.26776.5842-.073.511175.2921.511175.51118.02434.21907-.02434.38946-.486834 1.09538-.778934 2.21509-.2921 1.09538-.2921 2.19075 0 .63289.170392.92499.170392.26776.43815.26776.413808 0 1.533525-.94933 1.144058-.97367 2.507192-2.89666.121708-.19473.267758-.17039.170392.0243.170392.24342 0 .55986-.365125 1.24142-.413809.80328-1.02235 1.58221-.608542.77893-1.290109 1.41182-.681566.63288-1.363133 1.02235-.681567.38946-1.265767.38946-.681567 0-1.144058-.51117-.43815-.51118-.511175-1.26577-.04868-.26776-.04868-.46249 0-.19473 0-.38947-.02434-.26775-.219075-.073-.121708.12171-.389466.38947-.267759.26775-.608542.55985-.316442.2921-.681567.5842-.340783.2921-.5842.4625-.949325.7059-1.679575.7059-.121708 0-.340783-.0974-.194733-.0974-.389467-.26776-.194733-.19473-.365125-.46249-.14605-.26776-.14605-.60854 0-.36513.170392-.99801.170392-.63289.754592-1.7526.486833-.97367 1.192741-1.82563.705909-.8763 1.484842-1.58221.511175-.43815.949325-.68156.43815-.26776.778933-.38947.340784-.12171.5842-.14605.243417-.0487.340784-.0487zm-.900642 1.82562q-.170392 0-.486833.24342-.2921.24342-.827617.8763-.316442.36512-.608542.80327-.267758.41381-.486833.82762-.219075.38947-.365125.75459-.14605.36513-.194733.60854-.04868.24342-.02434.4625.04868.19473.194733.19473.14605 0 .389467-.14605.267758-.17039.535517-.41381.316441-.26776.608541-.63288.316442-.38947.8763-1.02235.267759-.2921.511175-.70591.243417-.41381.316442-.53552.121708-.19473.14605-.38946.04868-.21908 0-.41381-.04868-.17039-.194733-.34079-.14605-.17039-.389467-.17039z"/><path d="m64.351692 234.72509q.535517 0 .924984.24342.413808.24342.316441.70591-.121708.63288-.14605 1.11972 0 .46249 0 .90064 0 .36512-.243416.41381-.219075.0487-.559859-.073-.413808-.14605-.681566-.43815-.267759-.2921-.365125-.63288-.04868-.19474-.09737-.48684-.04868-.31644-.02434-.73025.04868-.55985.243417-.77893.219075-.24342.632883-.24342zm-2.969683 13.36358q-.267758 0-.608542-.21908-.316441-.19473-.5842-.75459-.2921-.60854-.04868-1.4605.04868-.21907.14605-.53551.121708-.34079.219075-.68157.121708-.36513.219075-.65723.09737-.31644.170392-.48683.121708-.26776.121708-.38947 0-.14605.02434-.2921 0-.19473.04868-.36512.04868-.19473.170392-.46249.14605-.36513.413808-.82762.267758-.46249.5842-.85196.340783-.41381.657225-.68156.340783-.26776.608542-.26776.219075 0 .413808.14605.243417.19473.365125.55986.14605.34078-.04868.68156-.559859.99801-1.046692 2.06904-.462492 1.07104-.900642 2.48285-.365125 1.09538.267759 1.09538.2921 0 .851958-.36513.559858-.36512 1.241425-.92498.681567-.5842 1.387475-1.26577.73025-.7059 1.363133-1.36313.170392-.19473.316442-.14605.14605.0243.14605.34078 0 .1704-.07303.38947-.07303.21908-.316442.60854-.365125.5842-.924983 1.26577-.559858.65722-1.217083 1.26577-.632884.60854-1.290109 1.07103-.657225.46249-1.192741.68157-.851959.34078-1.484842.34078z"/><path d="m71.006095 239.13094q.462492 0 .754592.0974.2921.073.535517.24342.243416.17039.316441.36512.09737.1704.09737.38947 0 .34078-.243417.51118-.219075.14605-.535516.14605-.559859 0-1.144059.1217-.559858.0974-1.02235.2921-.462491.19474-.754591.43815-.267759.24342-.267759.53552 0 .34078.194734.75459.219075.38947.535516.80328.413809.53551.657225 1.04669.267759.51117.267759.99801 0 .26776-.194734.65722-.194733.38947-.413808.5842-.121708.12171-.340783.26776-.219075.12171-.486834.26776-.243416.14605-.511175.26776-.243416.14605-.43815.21907-.559858.21908-.924983.21908-.243417 0-.535517-.073-.267758-.0487-.511175-.17039-.243416-.12171-.43815-.2921-.170391-.17039-.194733-.36512 0-.12171.02434-.24342.04868-.14605.170391-.26776.267759-.2921.486834-.43815.219075-.17039.389466-.24342.316442-.17039.608542.0487.194733.073.316442.12171.14605.0243.413808.0243.243417 0 .365125-.0974.14605-.12171.14605-.24342 0-.19473-.14605-.48683-.14605-.31644-.413808-.65722-.194734-.24342-.43815-.65723-.243417-.43815-.365125-.70591-.09737-.21907-.170392-.48683-.07303-.2921-.07303-.53552 0-.65722.462492-1.31445.462491-.65722.998008-1.07103.2921-.24342.632883-.43815.365125-.19473.754592-.34078.389467-.14605.754592-.21908.389466-.073.681566-.073z"/><path d="m73.669226 253.5412q.07303 0 .267758-.12171.170392-.0974.365125-.4138.194734-.31645.413809-.77894.194733-.43815.486833-1.19274.267758-.75459.608542-1.87431.340783-1.11971.827616-2.77495.2921-.97366.511175-1.72826.219075-.75459.365125-1.33879.170392-.5842.2921-1.04669.121709-.48683.219075-.92498.219075-1.04669.754592-1.58221.219075-.24342.657225-.43815.43815-.21908 1.046692-.21908.267758 0 .413808.12171.170392.0974.219075.26776.07302.14605.04868.34078 0 .1704-.09737.2921-.559859.80328-.851959 1.53353-.2921.73025-.559858 1.60655-.194733.63288-.511175 1.65523-.2921 1.02235-.632883 2.09339-.316442 1.07103-.608542 2.02035-.2921.97367-.43815 1.43616-.900642 2.79929-2.48285 3.89467-.5842.41381-.973667.53552-.413808.1217-.681566.1217-.413809 0-.803275-.19473-.389467-.17039-.705909-.46249-.389466-.34078-.559858-.70591-.170392-.36512-.170392-.60854 0-.26776.219075-.53552.219075-.24341.486834-.24341.219075 0 .462491.0974.243417.12171.462492.26776.219075.14605.389467.31644.14605.17039.194733.31644.09737.19474.170392.21908.04868.0487.194733.0487zm7.278158-19.69241q.121709 0 .316442.26776.194733.26776.267758.38947.09737.17039 0 .70591-.04868.17039-.09737.43815-.02434.26776-.07303.53551-.02434.26776-.07303.53552-.02434.24342-.04868.36513 0 .24341-.267758.51117-.267758.24342-.608542.24342-.09737 0-.219075-.12171-.09737-.14605-.219075-.34078-.121708-.21908-.219075-.4625-.09737-.24341-.14605-.43815-.121708-.4138-.14605-.7059 0-.2921 0-.63289 0-.26776.194734-.48683.194733-.21908.43815-.41381.267758-.21907.43815-.2921.194733-.0974.462491-.0974z"/><path d="m81.05806 246.01963q0-.48684.121709-1.04669.121708-.55986.462491-1.36314.14605-.31644.316442-.63288.170392-.31644.340783-.60854.194734-.2921.340784-.51118.170391-.24341.2921-.38946.14605-.19474.267758-.38947.121708-.19473.14605-.53552.02434-.21907.09737-.36512.09737-.14605.219075-.2921.2921-.2921.632883-.2921.243417 0 .389467-.073.14605-.0974.340783-.2921.486833-.48683 1.119717-.48683.340783 0 .535516.0974.194734.0974.2921.24341.09737.14605.121709.31644.02434.1704.02434.2921 0 .12171.02434.19474.04868.0487.170392.0974.657225.34079.924983 1.0467.2921.7059.2921 1.41181 0 .73025-.316442 1.58221-.2921.82762-1.046691 1.67958-.8763 1.04669-2.0447 1.70391-1.144059.65723-2.458509.65723-.657225 0-1.144058-.5842-.462492-.60854-.462492-1.4605zm2.288117-.41381q0 .38947.170392.60854.170391.19473.340783.19473.243417 0 .535517-.14605.316441-.17039.657225-.55985.267758-.2921.535516-.7546.267759-.46249.486834-.97366.219075-.51118.365125-.97367.14605-.48683.14605-.80327 0-.4625-.14605-.8763-.121709-.41381-.462492-.41381-.121708 0-.2921.14605-.14605.12171-.267758.26776-.413809.48683-.803275 1.07103-.365125.5842-.657225 1.1684-.267759.5842-.43815 1.11972-.170392.53551-.170392.92498z"/><path d="m97.408437 245.92226q.365125 0 .8763-.31644.535517-.31644 1.144058-.82762.632885-.53551 1.290105-1.19274.65723-.68157 1.29011-1.36313.14605-.14605.26776-.073.12171.073.12171.31644 0 .21908-.12171.5842-.12171.36513-.38947.70591-.7059.92499-1.31445 1.55787-.608538.63288-1.144055 1.07103-.511175.43815-.949325.70591-.413808.26776-.73025.41381-.511175.26776-.998008.38947-.462492.1217-.73025.1217-.559858 0-.851958-.5842-.267759-.5842-.04868-1.65523.04868-.2921.09737-.51117.07303-.21908.121708-.41381.04868-.19474-.04868-.26776-.07303-.073-.194733.0487-.14605.14605-.511175.48684-.340784.34078-.827617.77893-.462492.41381-1.02235.85196-.559858.43815-1.095375.77893-.389467.24342-.705908.31644-.2921.0974-.559859.0974-.389466 0-.705908-.46249-.316442-.48684-.316442-1.07104 0-.14605.02434-.34078.02434-.21907.09737-.53552.07303-.31644.219075-.77893.14605-.46249.413808-1.14406.43815-1.31445.924983-2.31246.511175-1.02235.803275-1.5822.170392-.26776.340784-.36513.194733-.12171.413808-.12171.462492 0 .827617.38947.389466.36512.389466.77893 0 .24342-.219075.60854-.194733.36513-.365125.5842-.194733.24342-.389466.51118-.194734.26776-.316442.51117-.14605.26776-.316442.68157-.14605.38947-.365125 1.14406-.194733.5842-.121708.82762.07303.21907.2921.21907.389467 0 2.117725-1.87431.43815-.51117.827617-1.04669.389466-.55986.73025-1.07103.340783-.53552.608541-.94933.267759-.43815.43815-.70591.2921-.43815.511175-.60854.243417-.17039.462492-.17039.219075 0 .43815.14605.219075.12171.365125.31644.14605.19474.194733.43815.04868.24342-.04868.48684-.07303.17039-.194733.38946-.09737.21908-.2921.5842-.194734.38947-.389467.8763-.170392.46249-.316442.97367-.14605.48683-.267758.94932-.09737.4625-.14605.85196-.04868.41381.02434.63289.07303.21907.340783.21907z"/><path d="m100.33704 245.60582q0-.82762.43815-2.0447.43815-1.21708 1.24143-2.38548.17039-.24342.48683-.60855.31644-.38946.68157-.7059.38946-.34079.80327-.5842.41381-.24342.80328-.24342.34078 0 .53551.14605.19474.12171.31644.34078.14605.19474.36513.21908.63288.0487 1.02235.43815.38947.36512.38947 1.07103 0 .65723-.2921 1.19274-.26776.51118-.63289.92499-.38946.38946-1.04669.77893-.63288.36512-1.63089.36512-.19473 0-.38947-.0487-.19473-.073-.36512-.14605-.21908-.0974-.31644.12171-.0974.19473-.14605.36512-.0487.1704-.0487.43815 0 .41381.26776.65723.2921.24342.82762.24342.53551 0 1.21708-.1704.70591-.17039 1.48484-.53551.80328-.38947 1.67958-1.02235.8763-.63289 1.80128-1.58221.19473-.19473.34078-.19473.1704 0 .24342.1217.0974.1704 0 .4625-.073.2921-.31644.60854-.63288.80327-1.48484 1.55786-.85196.7546-1.84997 1.3388-.97367.5842-2.06904.94932-1.07103.34078-2.14207.34078-.41381 0-.82761-.17039-.38947-.14605-.70591-.46249-.31644-.31644-.51118-.75459-.17039-.43815-.17039-1.02235zm3.28613-2.50719q.2921 0 .60854-.17039.34078-.19474.60854-.4625.2921-.26775.46249-.55985.19473-.31645.19473-.5842 0-.26776-.17039-.38947-.14605-.14605-.38946-.14605-.19474 0-.41381.19473-.21908.19474-.46249.48684-.21908.2921-.41381.63288-.19474.34078-.2921.63288-.073.21908-.0243.2921.0487.073.2921.073zm.68156-4.94136q0-.0974.0487-.24342.073-.17039.17039-.2921.34078-.38946.75459-.97366.43815-.5842 1.14406-1.50919.21907-.31644.41381-.48683.19473-.17039.60854-.17039.38946 0 .68156.14605.2921.14605.48684.38946.36512.48684-.21908.99801-1.41181 1.21709-2.23943 1.7526-.80328.51118-1.24143.60854-.21907.0487-.4138.0243-.19474-.0487-.19474-.24342z"/><path d="m113.84172 239.13094q.4625 0 .7546.0974.2921.073.53551.24342.24342.17039.31644.36512.0974.1704.0974.38947 0 .34078-.24342.51118-.21907.14605-.53551.14605-.55986 0-1.14406.1217-.55986.0974-1.02235.2921-.46249.19474-.75459.43815-.26776.24342-.26776.53552 0 .34078.19473.75459.21908.38947.53552.80328.41381.53551.65722 1.04669.26776.51117.26776.99801 0 .26776-.19473.65722-.19473.38947-.41381.5842-.12171.12171-.34078.26776-.21908.12171-.48684.26776-.24341.14605-.51117.26776-.24342.14605-.43815.21907-.55986.21908-.92498.21908-.24342 0-.53552-.073-.26776-.0487-.51118-.17039-.24341-.12171-.43815-.2921-.17039-.17039-.19473-.36512 0-.12171.0243-.24342.0487-.14605.17039-.26776.26776-.2921.48684-.43815.21907-.17039.38946-.24342.31645-.17039.60855.0487.19473.073.31644.12171.14605.0243.41381.0243.24341 0 .36512-.0974.14605-.12171.14605-.24342 0-.19473-.14605-.48683-.14605-.31644-.41381-.65722-.19473-.24342-.43815-.65723-.24341-.43815-.36512-.70591-.0974-.21907-.17039-.48683-.073-.2921-.073-.53552 0-.65722.46249-1.31445.46249-.65722.99801-1.07103.2921-.24342.63288-.43815.36513-.19473.7546-.34078.38946-.14605.75459-.21908.38946-.073.68156-.073z"/></g></g></svg>