<svg enable-background="new 0 0 566.929 129.21" height="129.21" viewBox="0 0 566.929 129.21" width="566.929" xmlns="http://www.w3.org/2000/svg"><g transform="matrix(.1125246611 0 0 .1125246611 78.47184121098 -4.62030268613)"><g><path d="m22.541566 311.66294h3702.659934c109.7821 0 190.7631 81.14813 168.5678 163.98197l-79.8299 291.0433c-20.001 72.9195-100.4971 136.48517-176.1099 136.48517h-3752.19083c-75.6128 0-156.4862-63.56567-136.4852-136.48517l87.372-318.5401c17.0436-62.13726 82.886096-136.48517 186.016096-136.48517z" fill="#2285c8"/><g fill="#fff" stroke-width="12.260202"><path d="m2529.8144 586.59412q-16.855 79.12481-76.3157 132.03075-59.4606 52.90594-128.2852 52.90594-62.2698 0-101.5981-36.05095-38.8601-36.51915-38.8601-95.97981 0-17.79137 4.2137-36.98733 14.9823-70.69732 81.4658-119.85771 59.4607-44.01025 118.4531-44.01025 31.3691 0 50.565 12.64124l7.0229-5.61832 62.738 36.98733-88.0205 75.84746q-9.3638-5.61833-15.4504-8.4275-19.6641-8.89569-36.0509-8.89569-30.9008 0-54.3105 21.53693-20.6006 19.19596-26.2189 44.94664-.9364 4.21375-1.4046 7.9593-.4682 3.27736-.4682 7.49111 0 23.40971 16.855 36.51914 17.3232 13.10944 42.6057 13.10944 14.514 0 26.687-6.08652 12.6413-6.08653 22.0052-16.3868h-51.5014l38.8601-82.87037h149.8222q-.9364 5.15014-.9364 7.49111-1.4046 9.36388-1.8728 11.70486z"/><path d="m2810.3066 765.91248h-106.2801l.4682-44.47845h-90.8297l-22.4733 44.47845h-103.0027l112.8348-234.09708h-22.4733l49.6286-86.14772h159.186zm-108.1529-128.7534-4.6819-95.04341-45.4148 95.04341z"/><path d="m3130.7782 765.91248h-93.1707l37.9238-178.38198-71.6337 68.82454-46.8195-63.6744-36.9873 173.23184h-100.1935l47.2876-222.39223h-22.4734l43.0739-97.85257h101.1299l44.0103 67.41995 67.42-67.41995h98.3207z"/><path d="m3463.7739 433.02643-49.6286 112.3666h-100.6617l-3.7456 18.25957h117.5168l-39.3283 82.40217h-95.9798l-4.2138 19.66416h115.644l-44.9467 100.19355h-191.9596l47.2876-223.32862h-22.4733l43.0739-96.91618h132.9671l7.0229-12.64125z"/><path d="m3665.2144 661.97337q-9.3638 43.07387-44.9466 73.97468-42.1375 36.51914-103.9391 36.51914-21.5369 0-45.883-6.08652-32.3054-7.9593-59.4607-25.28248l44.9467-92.70245q35.5827 17.79138 50.0967 22.94152 14.5141 5.15013 29.4963 5.15013 21.0687 0 23.8779-14.98221 2.3409-10.76847-24.3461-20.60054-39.7965-14.98222-52.906-23.87791-29.4962-20.60054-29.4962-54.77871 0-12.64124 2.341-23.40971 9.3639-44.47844 44.4784-71.6337 35.1146-27.15526 85.2114-27.15526 8.8956 0 14.9822 0 6.0865 0 21.0687 1.87277l5.6183-10.30027 80.5294 16.3868-50.0967 101.59813q-15.4505-10.76847-36.9874-17.32319-21.0687-6.55471-31.369-6.55471-9.8321 0-16.855 3.74555-7.0229 3.27736-8.8957 11.23666-1.8728 8.89569 24.8143 18.72776 36.9874 13.57763 51.5014 24.3461 28.5598 20.60054 28.5598 54.77872 0 12.64124-2.341 23.4097z"/></g></g><g><path d="m520.93398 79.668492h1361.08152c138.9076 0 274.5207 147.305758 229.4344 311.680718l-104.7044 381.73037c-71.5602 267.06652-251.6725 373.10932-394.9416 377.65432h-1351.87565c-136.91429 0-283.354084-115.1003-247.137687-247.13779l154.719717-564.07608c38.06253-142.05104 231.28261-255.722113 353.4237-259.851538z" fill="#050608"/><g fill="#ed1e24" stroke-width="9.754045" transform="matrix(1 0 -.06086412 1 0 0)"><path d="m981.37204 1024.403h-271.60464l1.1965-113.66719h-232.12027l-57.43182 113.66719h-263.22916l288.35558-598.24815h-57.43181l126.82859-220.15531h406.80872zm-276.39062-329.03651-11.96497-242.88873-116.06013 242.88873z"/><path d="m1488.0695 769.54926-112.4706 254.85374h-369.7174l122.0426-573.12173h-57.4318l108.8812-245.28173h256.0502l-119.6497 563.54972z"/><path d="m1950.777 769.54926-112.4706 254.85374h-369.7174l122.0427-573.12173h-57.4319l108.8812-245.28173h256.0502l-119.6496 563.54972z"/></g></g></g></svg>