<svg height="103.70829" viewBox="0 0 105.12649 27.439486" width="397.32849" xmlns="http://www.w3.org/2000/svg"><g stroke-width=".79375"><g fill="#333" transform="matrix(.98247959 0 0 1.0874283 -15.350066 -258.063132)"><path d="m24.400391 243.22461c-1.679845.28611-4.860427 1.92741-2.482422 3.72461-1.098187 2.41304-1.108272 6.83879-3.265625 8.0957-2.859287-1.72574-4.31685 3.13557-1.09375 3.45899 6.103964.78977 7.05549-7.21919 8.287109-11.42188 1.248742-1.71038 1.162825-3.76707-1.445312-3.85742z"/><path d="m28.554688 245.32812c-3.420126.72658-5.662533 5.10611-4.886719 8.45313 3.490836 4.52657 11.043403-3.65261 6.714843-7.28906-.205331-.7873-1.04933-1.23323-1.828124-1.16407z"/><path d="m37.480469 245.5957c-1.766635.15138-1.888211 3.25669-2.828125.72266-3.555921-2.12634-4.737749 4.45651-5.046875 6.90625.333033 3.31458 4.147873.8002 4.914062.75781 2.366971 3.14787 6.706135-1.4299 7.859375-3.7207.942045-2.83152-2.914912-2.29125-3.498047-.0586-1.534571.87366 2.42729-4.0652-.865234-4.55078-.172098-.0514-.356272-.0751-.535156-.0566z"/><path d="m44.931641 241.74609c-2.945138.71698-3.140625 4.49531-5.353516 6.08399-2.261189 2.1673-2.275888 7.7636 1.857422 7.26562 2.76658-.45808 7.628207-2.72292 6.792969-6.05664-1.360276-1.54952-2.966408 1.90102-2.292969-.96289-.265828-1.56814-2.361067-1.81132-.07422-2.80469 2.000383-1.00915 1.298445-3.59511-.929686-3.52539z"/><path d="m49.505859 245.6543c-3.051389-.10242-5.700848 3.53412-3.972656 6.00781-5.446104 3.65311 5.220835 5.49734 4.484375.24805-.932868-1.83463-1.692351-2.97803 1.003906-2.90821 2.140632-1.04137.435147-3.6601-1.515625-3.34765z"/><path d="m54.820312 245.5957c-3.44412.80396-2.585474 5.4197-3.263671 7.99219 1.452697 3.21999 4.638555.26993 4.923828-2.05664.589165-2.17876 5.549763-2.24982 3.498047-5.39258-1.826054-1.63322-3.359453 1.38875-4.792969-.52344-.121587-.005-.243097-.0538-.365235-.0195z"/><path d="m64.056641 241.74609c-3.014779.98036-3.441281 4.74386-5.703125 6.62696-2.320054 2.38628-1.25183 7.7482 2.734375 6.65625 2.787773.25343 9.642949-5.90008 4.552734-6.17188-1.395525 1.85953.235728-2.61237-2.013672-2.55273 2.269458-1.00291 4.171412-4.09623.429688-4.5586z"/><path d="m68.978516 245.67188c-4.426164-.22698-8.461522 8.15618-3.03711 9.43359 3.011987-.0926 7.480579-2.56293 7.205078-5.91211-2.062884-2.21556-4.233938 3.19481-5.865234 2.11914-.194643-2.8576 4.189313-.53459 3.914062-3.86133-.07377-1.09139-1.167274-1.8519-2.216796-1.77929z"/><path d="m73.462891 245.57227c-3.771215.64549-7.115486 8.29903-2.164063 9.52148 3.155854.0178 7.97791-2.40522 7.705078-5.97461-1.739169-1.44044-2.465218 1.04495-2.599609-1.96289-.752331-.72498-1.880721-1.47192-2.941406-1.58398z"/><path d="m77.439453 245.61523c-2.554343 1.04554-2.071635 5.04161-2.736328 7.33789-.04497 3.49487 3.9891 1.17823 4.169922.70508.624487 3.12468 4.057634-.35635 4.380859-.2207 2.178584 4.23535 7.325854-.61553 7.857422-3.66602-.552801-3.82255-4.189577 1.86437-4.248047.99024 1.105714-1.54179 2.378756-4.77334-.722656-4.89258-1.546964.29785-2.070088 2.50228-2.761719.22461-2.107008-1.7662-3.519833 2.863-4.671875-.0488-.359887-.2753-.808407-.46301-1.267578-.42969z"/><path d="m89.644531 245.61523c-2.553796 1.04873-2.077103 5.04707-2.734375 7.34766-.02607 3.4876 3.965824 1.16116 4.167969.69531.625095 3.12363 4.057453-.35571 4.380859-.2207 2.178784 4.23507 7.325756-.61533 7.857426-3.66602-.55322-3.82316-4.188289 1.8648-4.248051.99024 1.105031-1.54175 2.379961-4.77449-.722656-4.89258-1.54677.3006-2.069328 2.50111-2.759765.22656-2.10626-1.77227-3.521876 2.86236-4.673829-.0508-.359887-.2753-.808406-.46301-1.267578-.42969z"/><path d="m103.88477 245.57227c-3.77049.64667-7.115822 8.29867-2.16407 9.52148 3.15591.0176 7.97792-2.40503 7.70508-5.97461-1.73894-1.441-2.46482 1.04482-2.59961-1.96289-.75233-.72498-1.88072-1.47192-2.9414-1.58398z"/><path d="m108.90039 245.30859c-3.17549 1.00682-3.55506 5.85077-3.47266 8.64258 1.38818 2.80372 3.74677-1.16259 4.07227-1.24023.21183 4.11794 5.48822 2.56676 6.72656-.11524 1.75074-1.00485 2.00628-5.3601-.71289-3.63672-1.33139 1.80017-3.15684 3.30988-1.45898.0684 2.32892-2.56831-1.77293-5.00649-3.24414-2.35937-.296-.76067-1.0651-1.40804-1.91016-1.35938z"/><path d="m118.23242 243.22266c-2.59978.53825-2.18378 3.90771-4.73047 4.5-.83631 1.89955 1.80776 2.60965.0586 4.62109-.6781 4.86714 8.17921 2.33908 6.93164-1.32031-1.2393-1.40532-3.92763 1.8679-2.25977-1.30664 1.93503.44266 6.38846-1.93545 3.10742-3.35157-3.21667 1.16232.54051-3.04645-3.10742-3.14257z"/></g><g fill="#f4c401" transform="matrix(.98247959 0 0 1.0874283 -8.128927 -271.723046)"><path d="m17.012917 256.80529q.347839 0 .675216.18415.347839.18415.450145.45015.102305.24553 0 .42968-.08185.18415-.18415.28646-.102306.1023-.225072.30691-.102306.20462-.18415.42969-.08185.22507-.163689.4706-.08184.22508-.225073.69568-.122766.45015-.347838 1.24813-.204612.79798-.572912 2.14842-.511527 1.86196-1.043516 3.19193-.511528 1.32997-1.063978 1.9438-.470606.53199-.92075.79799-.450144.28645-.613833.3683-.204611.0818-.429684.16369-.225072.1023-.388761.14322-.225072.0614-.429683.12277-.204611.0614-.388761.0614-.286456 0-.654756-.12276-.3682998-.12277-.6956776-.28646-.2046111-.1023-.3683-.38876-.1636889-.26599-.1636889-.49107 0-.24553.2864556-.42968.2659944-.18415.5319889-.18415.245533 0 .593372.10231.327378.12276.470606.20461.102305.0614.245533.1023.122767.0614.286456.0614.163689 0 .3683-.12277.225072-.10231.491066-.34784.286456-.34784.511528-.79798.245533-.45015.470606-1.08444.265994-.7366.491066-1.43228.245534-.71614.491067-1.55504.265994-.85937.55245-1.90289.306917-1.06397.716139-2.51671.02046-.16369-.143228-.18415-.347839-.0614-.634294-.266-.265995-.22507-.265995-.49106 0-.18415.102306-.28646.122766-.12277.265994-.18415.163689-.0818.347839-.12277.204611-.0409.470606-.0818.225072-.0409.347839-.10231.122766-.0614.306916-.24553.122767-.10231.265995-.18415.143227-.10231.3683-.10231z"/><path d="m16.862744 265.03066q0-.40922.102306-.87983.102306-.4706.388761-1.14582.122767-.26599.265995-.53199.143227-.26599.286455-.51153.163689-.24553.286456-.42968.143227-.20461.245533-.32738.122767-.16369.225072-.32737.102306-.16369.122767-.45015.02046-.18415.08184-.30692.08184-.12276.18415-.24553.245534-.24553.531989-.24553.204611 0 .327378-.0614.122767-.0818.286456-.24553.409222-.40922.941211-.40922.286455 0 .450144.0818.163689.0819.245533.20461.08185.12277.102306.266.02046.14323.02046.24553 0 .10231.02046.16369.04092.0409.143228.0818.55245.28645.777522.87982.245534.59338.245534 1.18675 0 .61383-.265995 1.32997-.245533.69568-.879828 1.41182-.7366.87982-1.718733 1.43227-.961672.55245-2.066572.55245-.55245 0-.961672-.49106-.388762-.51153-.388762-1.22767zm1.923345-.34784q0 .32738.143228.51153.143227.16369.286455.16369.204611 0 .450145-.12277.265994-.14323.55245-.4706.225072-.24554.450144-.6343.225072-.38876.409222-.81844.18415-.42969.306917-.81845.122767-.40922.122767-.67521 0-.38876-.122767-.7366-.102306-.34784-.388761-.34784-.102306 0-.245533.12276-.122767.10231-.225073.22508-.347839.40922-.675216.90029-.306917.49106-.55245.98213-.225073.49107-.3683.94121-.143228.45014-.143228.77752z"/><path d="m29.824924 264.94882q.306917 0 .7366-.266.450144-.26599.961672-.69568.531989-.45014 1.084439-1.00259.55245-.57291 1.084439-1.14582.122767-.12277.225072-.0614.102306.0614.102306.266 0 .18415-.102306.49107-.102305.30691-.327378.59337-.593372.77752-1.1049 1.30951-.511527.53199-.961672.90029-.429683.3683-.797983.59337-.347839.22507-.613834.34784-.429683.22507-.838905.32738-.388761.1023-.613833.1023-.470606 0-.716139-.49106-.225073-.49107-.04092-1.39136.04092-.24553.08184-.42968.06138-.18415.102305-.34784.04092-.16369-.04092-.22507-.06138-.0614-.163689.0409-.122766.12276-.429683.40922-.286456.28646-.695678.65476-.388761.34783-.859366.71613-.470606.3683-.92075.65476-.327378.20461-.593373.26599-.245533.0818-.470605.0818-.327378 0-.593372-.38876-.265995-.40922-.265995-.90029 0-.12277.02046-.28646.02046-.18415.08185-.45014.06138-.266.18415-.65476.122766-.38876.347839-.96167.3683-1.1049.777522-1.9438.429683-.85937.675216-1.32998.143228-.22507.286456-.30691.163689-.10231.347839-.10231.388761 0 .695678.32738.327377.30692.327377.65475 0 .20462-.18415.51153-.163688.30692-.306916.49107-.163689.20461-.327378.42968-.163689.22507-.265994.42969-.122767.22507-.265995.57291-.122767.32737-.306917.96167-.163688.49107-.102305.69568.06138.18415.245533.18415.327378 0 1.780117-1.57551.3683-.42968.695678-.87983.327377-.4706.613833-.90029.286456-.45014.511528-.79798.225072-.3683.3683-.59337.245533-.3683.429683-.51153.204611-.14323.388761-.14323.18415 0 .3683.12277.18415.10231.306917.26599.122767.16369.163689.3683.04092.20462-.04092.40923-.06138.14322-.163689.32737-.08184.18415-.245534.49107-.163689.32738-.327377.7366-.143228.38876-.265995.81845-.122767.40922-.225072.79798-.08185.38876-.122767.71614-.04092.34784.02046.53199.06138.18415.286456.18415z"/><path d="m31.492901 264.68282q0-.69568.3683-1.71873.3683-1.02306 1.043517-2.00519.143228-.20461.409222-.51153.265995-.32738.572911-.59337.327378-.28646.675217-.49107.347839-.20461.675217-.20461.286455 0 .450144.12277.163689.1023.265995.28645.122766.16369.306916.18415.531989.0409.859367.3683.327378.30692.327378.90029 0 .55245-.245534 1.0026-.225072.42968-.531988.77752-.327378.32738-.879828.65476-.531989.30691-1.370895.30691-.163689 0-.327377-.0409-.163689-.0614-.306917-.12277-.18415-.0818-.265995.10231-.08184.16369-.122766.30692-.04092.14322-.04092.3683 0 .34783.225072.55245.245533.20461.695678.20461.450144 0 1.023055-.14323.593372-.14323 1.248128-.45015.675217-.32737 1.411817-.85936.7366-.53199 1.514122-1.32997.163689-.16369.286455-.16369.143228 0 .204611.1023.08185.14323 0 .38876-.06138.24554-.265994.51153-.531989.67522-1.248128 1.30951-.716139.6343-1.555044 1.12536-.818445.49107-1.739195.79799-.900289.28645-1.800577.28645-.347839 0-.695678-.14323-.327378-.12276-.593372-.38876-.265995-.26599-.429684-.63429-.143228-.3683-.143228-.85937zm2.76225-2.10749q.245534 0 .511528-.14323.286456-.16369.511528-.38876.245533-.22507.388761-.47061.163689-.26599.163689-.49106 0-.22508-.143228-.32738-.122766-.12277-.327378-.12277-.163688 0-.347838.16369-.18415.16369-.388762.40922-.18415.24554-.347838.53199-.163689.28646-.245534.53199-.06138.18415-.02046.24553.04092.0614.245533.0614zm.572912-4.15361q0-.0818.04092-.20461.06138-.14323.143228-.24553.286455-.32738.634294-.81845.3683-.49106.961672-1.26859.18415-.26599.347839-.40922.163689-.14323.511528-.14323.327378 0 .572911.12277.245533.12277.409222.32738.306917.40922-.18415.8389-1.186744 1.02306-1.882422 1.4732-.675217.42969-1.043517.51153-.18415.0409-.347839.0205-.163688-.0409-.163688-.20461z"/><path d="m42.050911 259.24017q.388761 0 .634294.0818.245534.0614.450145.20461.204611.14323.265994.30692.08185.14323.08185.32738 0 .28645-.204611.42968-.18415.12277-.450145.12277-.470605 0-.961672.1023-.470606.0818-.859367.24554-.388761.16368-.634294.3683-.225072.20461-.225072.45014 0 .28646.163689.63429.18415.32738.450144.67522.347839.45015.55245.87983.225072.42968.225072.8389 0 .22508-.163689.55245-.163689.32738-.347839.49107-.102305.10231-.286455.22507-.18415.10231-.409222.22508-.204611.12276-.429684.22507-.204611.12276-.3683.18415-.470605.18415-.777522.18415-.204611 0-.450144-.0614-.225073-.0409-.429684-.14322-.204611-.10231-.3683-.24554-.143227-.14322-.163689-.30691 0-.10231.02046-.20461.04092-.12277.143227-.22508.225073-.24553.409223-.3683.18415-.14322.327377-.20461.265995-.14323.511528.0409.163689.0614.265995.10231.122766.0205.347838.0205.204612 0 .306917-.0818.122767-.10231.122767-.20461 0-.16369-.122767-.40923-.122767-.26599-.347839-.55245-.163689-.20461-.3683-.55245-.204611-.3683-.306916-.59337-.08185-.18415-.143228-.40922-.06138-.24553-.06138-.45015 0-.55245.388762-1.1049.388761-.55245.838905-.90028.245533-.20462.531989-.3683.306917-.16369.634294-.28646.327378-.12277.634295-.18415.327378-.0614.572911-.0614z"/><path d="m51.172884 259.19924q.347839 0 .593373.24554.245533.22507.18415.55245-.04092.24553-.18415.51153-.122767.26599-.286456.42968-.3683.42968-.634294.26599-.102306-.0614-.245534-.1023-.122766-.0614-.245533-.0614-.163689 0-.450144.22508-.265995.22507-.675217.7366-.3683.4706-.757061 1.04351-.3683.55245-.695678 1.1049-.306917.55245-.55245 1.0026-.225072.45014-.327378.69568-.306916.79798-.838905.79798-.470606 0-.879828-.47061-.163689-.18415-.204611-.3683-.04092-.20461.06138-.51152.18415-.49107.306917-1.06398.143228-.57291.225072-1.12536.102306-.55245.163689-1.06398.06138-.51153.102305-.90029.08184-.69568.225073-.98213.143227-.28646.429683-.51153.204611-.16369.450144-.30692.245534-.16369.470606-.16369.286456 0 .491067.266.204611.24553.204611.53199 0 .14322-.102306.32737-.102305.16369-.204611.34784-.08184.14323-.18415.40923-.08184.24553-.18415.55245-.08184.28645-.163689.59337-.06138.30691-.102305.55245-.04092.16369.04092.16369.08184-.0205.18415-.16369.08184-.12277.245533-.3683.18415-.266.409222-.57291.225073-.32738.470606-.65476.265994-.34784.531989-.63429.470605-.51153.982133-.92075.511528-.40923 1.145822-.40923z"/><path d="m50.617314 264.68282q0-.69568.3683-1.71873.3683-1.02306 1.043517-2.00519.143227-.20461.409222-.51153.265994-.32738.572911-.59337.327378-.28646.675217-.49107.347839-.20461.675216-.20461.286456 0 .450145.12277.163689.1023.265994.28645.122767.16369.306917.18415.531989.0409.859367.3683.327377.30692.327377.90029 0 .55245-.245533 1.0026-.225072.42968-.531989.77752-.327378.32738-.879828.65476-.531989.30691-1.370894.30691-.163689 0-.327378-.0409-.163689-.0614-.306917-.12277-.18415-.0818-.265994.10231-.08184.16369-.122767.30692-.04092.14322-.04092.3683 0 .34783.225072.55245.245534.20461.695678.20461.450145 0 1.023056-.14323.593372-.14323 1.248127-.45015.675217-.32737 1.411817-.85936.7366-.53199 1.514122-1.32997.163689-.16369.286456-.16369.143228 0 .204611.1023.08184.14323 0 .38876-.06138.24554-.265994.51153-.531989.67522-1.248128 1.30951-.716139.6343-1.555045 1.12536-.818444.49107-1.739194.79799-.900289.28645-1.800578.28645-.347839 0-.695678-.14323-.327377-.12276-.593372-.38876-.265994-.26599-.429683-.63429-.143228-.3683-.143228-.85937zm2.76225-2.10749q.245533 0 .511528-.14323.286455-.16369.511528-.38876.245533-.22507.388761-.47061.163689-.26599.163689-.49106 0-.22508-.143228-.32738-.122767-.12277-.327378-.12277-.163689 0-.347839.16369-.18415.16369-.388761.40922-.18415.24554-.347839.53199-.163689.28646-.245533.53199-.06138.18415-.02046.24553.04092.0614.245533.0614zm.572911-4.15361q0-.0818.04092-.20461.06138-.14323.143228-.24553.286456-.32738.634295-.81845.3683-.49106.961672-1.26859.18415-.26599.347839-.40922.163689-.14323.511527-.14323.327378 0 .572912.12277.245533.12277.409222.32738.306916.40922-.18415.8389-1.186745 1.02306-1.882422 1.4732-.675217.42969-1.043517.51153-.18415.0409-.347839.0205-.163689-.0409-.163689-.20461z"/><path d="m61.502703 259.26063q.593372 0 .879828.28645.306917.28646.306917.61384 0 .40922-.245534.69567-.225072.28646-.511527.42969-.204612.1023-.3683.1023-.163689-.0205-.245534-.0614-.204611-.10231-.163689-.40922.02046-.3683-.204611-.3683-.163689 0-.55245.26599-.3683.24554-.797983.90029-.531989.77752-.695678 1.43228-.163689.63429-.163689 1.06398 0 .4706.225072.75706.245534.26599.593373.26599.55245 0 1.145822-.26599.613833-.266 1.227667-.67522.613833-.42968 1.207205-.94121.593372-.51153 1.1049-1.02306.163689-.16368.306917-.14322.143228 0 .204611.1023.08184.14323 0 .38876-.06138.24554-.265995.51153-.55245.71614-1.248127 1.35043-.695678.6343-1.452739 1.12537-.757061.4706-1.555045.75706-.777522.28645-1.493661.28645-.3683 0-.716139-.12276-.347839-.10231-.634294-.34784-.265995-.24554-.429683-.65476-.163689-.40922-.163689-1.02305 0-.34784.08184-.77753.102306-.45014.286456-.92075.18415-.49106.470605-.96167.286456-.49107.654756-.92075.634294-.71614 1.514122-1.2072.879828-.51153 1.698272-.51153z"/><path d="m62.275204 264.66236q0-.32738.08185-.75706.102305-.45014.286455-.94121.18415-.49107.429684-1.0026.265994-.51152.613833-1.00259.143228-.20461.409222-.51153.265995-.32738.572911-.59337.327378-.28646.675217-.49107.347839-.20461.675217-.20461.286455 0 .450144.12277.163689.1023.265995.28645.122766.16369.306916.18415.531989.0409.859367.3683.327378.30692.327378.90029 0 .55245-.245534 1.0026-.225072.42968-.531989.77752-.327377.32738-.859366.65476-.511528.30691-1.227667.30691-.245533 0-.470605-.0409-.225073-.0614-.3683-.12277-.18415-.0818-.265995.10231-.08184.26599-.08184.61383 0 .42969.245533.67522.265994.24553.613833.24553.613834 0 1.28905-.26599.695678-.266 1.370895-.69568.695678-.45014 1.350433-1.02306.675217-.57291 1.268589-1.16628.143228-.14323.286456.10231.08184.14322 0 .42968-.06138.26599-.265995.53199-.55245.7366-1.28905 1.39135-.716139.6343-1.534583 1.12537-.797984.4706-1.65735.75706-.838906.28645-1.636889.28645-.3683 0-.716139-.1023-.347839-.10231-.634294-.34784-.265995-.24554-.429684-.6343-.163689-.38876-.163689-.96167zm2.76225-2.08703q.245534 0 .511528-.14323.286456-.16369.511528-.38876.245533-.22507.388761-.47061.163689-.26599.163689-.49106 0-.22508-.143228-.32738-.122767-.12277-.327378-.12277-.163689 0-.3683.16369-.18415.16369-.388761.40922-.18415.24554-.3683.53199-.163689.28646-.245533.53199-.06138.18415 0 .24553.06138.0614.265994.0614z"/><path d="m74.774472 259.26063q.102306 0 .265995.0818.18415.0819.306917.266.122766.18415.143227.49106.04092.28646-.102305.71614-.06138.16369-.163689.42969-.102306.26599-.245533.57291-.122767.30691-.245534.61383-.122766.28646-.204611.51153-.18415.4706-.08184.51153.102305.0409.327377-.14323.245534-.24554.695678-.7366.470606-.49107.961672-1.02306.491067-.53199.900289-.98213.429684-.45015.572911-.59337.531989-.53199.900289-.53199.347839 0 .634295.30691.306916.30692.306916.65476 0 .18415-.08184.30692-.06138.1023-.204611.22507-.102306.1023-.245533.24553-.143228.12277-.286456.40922-.163689.28646-.3683.87983-.204611.57291-.327378 1.45274-.102305.61383 0 1.0026.102306.3683.470606.3683.204611 0 .511528-.14323.306916-.16369.716138-.53199.409223-.3683.941212-.96167.55245-.59338 1.248127-1.4732.286456-.34784.429684-.12277.18415.24553-.265995 1.02306-.55245.96167-1.145822 1.65735-.572911.69567-1.125361 1.14582-.55245.45014-1.043517.65475-.491066.20461-.859366.20461-.777523 0-1.227667-.63429-.429683-.63429-.265995-1.98473.04092-.26599.08185-.59337.06138-.32738.102305-.49107.06138-.22507-.02046-.22507-.06138-.0205-.225072.18415-.18415.22507-.572911.65476-.388761.42968-.818444.92075-.409223.4706-.797984.87982-.3683.40923-.531989.57292-.593372.57291-1.002594.57291-.3683 0-.491067-.57291-.122766-.59338.102306-1.41182.225072-.85937.531989-1.78012.06138-.16369.08184-.28645.02046-.12277-.06138-.16369-.163689-.0819-.531989.34784-.122767.12276-.511528.61383-.3683.49107-.818444 1.04352-.450145.55245-.859367 1.06397-.388761.49107-.531989.65476-.286455.30692-.470605.40922-.163689.10231-.327378.10231-.122767 0-.286456-.10231-.143228-.1023-.265994-.32738-.122767-.22507-.18415-.57291-.06138-.3683 0-.90029.06138-.4706.265994-1.18674.204611-.7366.491067-1.78012.04092-.16369.06138-.24553.02046-.10231.06138-.22507.04092-.18415.06138-.38876.02046-.20461.102305-.55245.04092-.16369.08185-.3683.04092-.20461.122767-.3683.08184-.18415.204611-.28646.143227-.12277.347839-.12277.286455 0 .572911.22508.327377.26599.511527.57291.18415.30691-.02046.71614-.18415.40922-.409222 1.00259-.225072.57291-.429683 1.22767-.143228.42968-.06138.53199.08185.1023.306917-.16369.654756-.71614 1.125361-1.26859.491067-.55245 1.063978-1.14582.245533-.24554.409222-.40923.163689-.18415.306917-.30691.143228-.14323.265994-.24554.122767-.1023.245534-.20461.531989-.4706.879827-.4706z"/><path d="m86.979898 259.26063q.102305 0 .265994.0818.18415.0819.306917.266.122767.18415.143228.49106.04092.28646-.102306.71614-.06138.16369-.163689.42969-.102305.26599-.245533.57291-.122767.30691-.245533.61383-.122767.28646-.204612.51153-.18415.4706-.08184.51153.102306.0409.327378-.14323.245533-.24554.695678-.7366.470605-.49107.961672-1.02306.491066-.53199.900289-.98213.429683-.45015.572911-.59337.531989-.53199.900289-.53199.347839 0 .634294.30691.306917.30692.306917.65476 0 .18415-.08185.30692-.06138.1023-.204611.22507-.102305.1023-.245533.24553-.143228.12277-.286456.40922-.163689.28646-.3683.87983-.204611.57291-.327377 1.45274-.102306.61383 0 1.0026.102305.3683.470605.3683.204611 0 .511528-.14323.306917-.16369.716139-.53199.409222-.3683.941211-.96167.55245-.59338 1.248128-1.4732.286455-.34784.429683-.12277.18415.24553-.265995 1.02306-.552449.96167-1.145822 1.65735-.572911.69567-1.125361 1.14582-.55245.45014-1.043516.65475-.491067.20461-.859367.20461-.777522 0-1.227667-.63429-.429683-.63429-.265994-1.98473.04092-.26599.08184-.59337.06138-.32738.102306-.49107.06138-.22507-.02046-.22507-.06138-.0205-.225073.18415-.18415.22507-.572911.65476-.388761.42968-.818444.92075-.409222.4706-.797983.87982-.3683.40923-.531989.57292-.593373.57291-1.002595.57291-.3683 0-.491066-.57291-.122767-.59338.102305-1.41182.225072-.85937.531989-1.78012.06138-.16369.08184-.28645.02046-.12277-.06138-.16369-.163689-.0819-.531989.34784-.122766.12276-.511528.61383-.3683.49107-.818444 1.04352-.450144.55245-.859367 1.06397-.388761.49107-.531989.65476-.286455.30692-.470605.40922-.163689.10231-.327378.10231-.122767 0-.286455-.10231-.143228-.1023-.265995-.32738-.122767-.22507-.18415-.57291-.06138-.3683 0-.90029.06138-.4706.265995-1.18674.204611-.7366.491066-1.78012.04092-.16369.06138-.24553.02046-.10231.06138-.22507.04092-.18415.06138-.38876.02046-.20461.102306-.55245.04092-.16369.08184-.3683.04092-.20461.122767-.3683.08184-.18415.204611-.28646.143228-.12277.347839-.12277.286455 0 .572911.22508.327378.26599.511528.57291.18415.30691-.02046.71614-.18415.40922-.409223 1.00259-.225072.57291-.429683 1.22767-.143228.42968-.06138.53199.08184.1023.306916-.16369.654756-.71614 1.125362-1.26859.491066-.55245 1.063977-1.14582.245534-.24554.409223-.40923.163688-.18415.306916-.30691.143228-.14323.265995-.24554.122766-.1023.245533-.20461.531989-.4706.879828-.4706z"/><path d="m92.697266 264.66236q0-.32738.08185-.75706.102305-.45014.286455-.94121.18415-.49107.429684-1.0026.265994-.51152.613833-1.00259.143228-.20461.409222-.51153.265995-.32738.572911-.59337.327378-.28646.675217-.49107.347839-.20461.675217-.20461.286455 0 .450144.12277.163689.1023.265994.28645.122767.16369.306917.18415.531989.0409.859367.3683.327378.30692.327378.90029 0 .55245-.245534 1.0026-.225072.42968-.531989.77752-.327377.32738-.859366.65476-.511528.30691-1.227667.30691-.245533 0-.470606-.0409-.225072-.0614-.3683-.12277-.18415-.0818-.265994.10231-.08184.26599-.08184.61383 0 .42969.245533.67522.265994.24553.613833.24553.613834 0 1.28905-.26599.695678-.266 1.370895-.69568.695677-.45014 1.350433-1.02306.675217-.57291 1.268587-1.16628.14323-.14323.28646.10231.0818.14322 0 .42968-.0614.26599-.266.53199-.55245.7366-1.289047 1.39135-.716139.6343-1.534583 1.12537-.797984.4706-1.65735.75706-.838906.28645-1.636889.28645-.3683 0-.716139-.1023-.347839-.10231-.634295-.34784-.265994-.24554-.429683-.6343-.163689-.38876-.163689-.96167zm2.76225-2.08703q.245534 0 .511528-.14323.286456-.16369.511528-.38876.245533-.22507.388761-.47061.163689-.26599.163689-.49106 0-.22508-.143228-.32738-.122767-.12277-.327378-.12277-.163689 0-.3683.16369-.18415.16369-.388761.40922-.18415.24554-.3683.53199-.163689.28646-.245533.53199-.06138.18415 0 .24553.06138.0614.265994.0614z"/><path d="m101.4678 258.89233q.20461 0 .38876.12276.18415.10231.30691.266.14323.16369.20461.34784.0818.18415.0818.34784 0 .1023-.0818.18415-.0614.0818-.16368.0818-.24554 0-.55245.53199-.20462.34784-.34784.81844-.12277.45015-.22508.71614-.0614.16369.0205.20461.0818.0409.22507-.14322.14323-.14323.40922-.40923.28646-.28645.61383-.59337.32738-.30691.65476-.59337.32738-.28646.57291-.45014.40922-.30692.57291-.40923.18415-.12276.32738-.20461.0614-.0409.14323-.12276.1023-.10231.18415-.266.20461-.30692.4706-.30692.3683 0 .6343.22508.28645.28645.28645.53199 0 .22507-.1023.51152-.0614.14323-.20461.38876-.12277.24554-.266.55245-.24553.53199-.51153 1.28905-.24553.7366-.40922 1.35044-.22507.92075-.0614 1.28905.16369.34784.40922.34784.26599 0 .71614-.30692.45014-.30692.94121-.77752.51153-.49107 1.04352-1.06398.53199-.59337 1.00259-1.14582.0819-.10231.18415-.12277.10231-.0205.16369.0614.0818.10231.0409.3683-.0409.24554-.28645.6343-.6343 1.1049-1.26859 1.8415-.6343.71614-1.20721 1.14582-.57291.42968-1.08444.61383-.51152.18415-.90029.18415-.38876 0-.69567-.20461-.30692-.18415-.49107-.57291-.18415-.38876-.22507-.96167-.0409-.57291.12276-1.30951.12277-.59337.22508-.98213.1023-.40923.20461-.67522.12276-.34784.0818-.42968-.0409-.0614-.14323 0-.1023.0614-.32737.28645-.90029.87983-1.67781 1.88242-.77753.98214-1.534588 2.14842-.163689.24553-.265995.32738-.102305.0818-.204611.0818-.204611 0-.347839-.1023-.143228-.12277-.265994-.28646-.102306-.12277-.143228-.40922-.02046-.30692.04092-.61383.409222-1.92335.838906-3.3147.429689-1.41182.695679-1.94381.266-.57291.57291-.75706.32738-.20461.61384-.20461z"/><path d="m109.62291 265.11251q.26599 0 .55245-.0818.30692-.1023.59337-.22507.30692-.12277.57291-.266.266-.14322.45015-.26599.18415-.12277.28645-.0818.10231.0205.12277.14322.0205.10231-.0409.266-.0409.14323-.16369.28645-.28646.28646-.96167.77753-.65476.49106-1.88243.87982-.4706.16369-.87982.16369-.45015 0-.87983-.30691-.42969-.30692-.42969-.83891 0-.32738.22508-.92075.0818-.20461.22507-.63429.14323-.45015.28645-.90029.16369-.45015.28646-.81845.14323-.38876.18415-.49106.0409-.10231.0205-.16369 0-.0614-.16369-.0409-.12276.0205-.32738.0409-.18415 0-.38876.0409-.16369.0205-.28645-.0409-.12277-.0818-.22507-.16369-.10231-.10231-.10231-.28646.0205-.20461.14323-.34784.14323-.16369.24553-.24553.12277-.10231.34784-.14323.18415-.0409.42968-.0818.266-.0614.57291-.12277.14323-.0409.22508-.0818.1023-.0614.16369-.22508.0409-.0818.16368-.40922.12277-.32738.266-.71614.14323-.40922.28645-.77752.14323-.3683.22508-.53199.14322-.28645.49106-.49106.34784-.20462.57291-.20462.266 0 .49107.22508.45015.45014.12277 1.02305-.34784.61384-.57291 1.16629-.22508.55245-.28646.69567-.0409.12277.0409.14323.10231 0 .20461 0 .34784 0 .75707-.0205.42968-.0205.8389-.0409.42968-.0205.77752-.0205.3683-.0205.57291-.0205.18415 0 .24554.0818.0614.0614.0205.18415-.0205.10231-.12277.20461-.0818.10231-.18415.16369-.26599.14323-1.14582.3683-.85937.20461-2.23026.38876-.20461.0409-.28646.10231-.0818.0409-.16369.20461-.1023.24553-.24553.57291-.12277.32738-.24553.67522-.10231.34783-.20461.67521-.0819.30692-.10231.53199-.0818.47061 0 .7366.10231.266.51153.266z"/></g></g></svg>