<svg height="103.70829" viewBox="0 0 105.12649 27.439486" width="397.32849" xmlns="http://www.w3.org/2000/svg"><g fill="#f4c401" stroke-width="4.453735" transform="matrix(.15111032 0 0 .15111032 509.384719 29.02716)"><path d="m-10207.521-726.01172c-37.492-.97449-67.985 96.28125-45.817 50.29492-16.362 37.58831-52.261 124.38717-35.848 85.23438-5.1 12.91918-10.45 26.09029-15.808 39.26953-2.292-.16599-4.574-.4082-6.887-.4082-22.212 0-44.089 5.11947-64.773 14.91797-21.654 9.80161-41.94 25.97687-61.721 47.6875a22.651772 22.651772 0 0 0 -.07.0723c-13.238 14.65514-24.532 29.26704-33.84 43.93555-5.298 8.099-8.899 15.24317-12.219 21.71484-5.294 4.44255-10.416 8.63183-15.039 11.9707-9.728 7.02562-19.056 13.01175-28.037 18.18555 5.475-4.08754 10.443-8.31271 14.89-12.75976a22.651772 22.651772 0 0 0 .969-1.03125c7.913-8.96831 14.74-18.95827 20.451-29.81446 7.222-13.2785 10.801-28.3145 10.801-43.75195 0-17.07876-5.385-34.21978-17.724-45.92969-9.981-9.83221-23.313-15.59317-37.297-17.61523-3.35-4.70135-7.585-8.86384-12.457-12.11719-8.553-6.20712-18.551-8.25781-27.883-8.25781-11.899 0-23.396 3.79254-33.711 9.85937a22.651772 22.651772 0 0 0 0 .002c-8.922 5.24798-17.46 11.47458-25.611 18.60351-7.749 6.72036-14.933 14.17967-21.547 22.32031-5.909 6.84025-10.685 12.7532-14.449 18.12891a22.651772 22.651772 0 0 0 -.11.1582c-3.235 4.70523-6.23 9.46329-9.178 14.23047.668-2.36377 1.403-4.74549 1.909-7.06836 1.97-7.49899 3.295-14.105 3.295-21.26758 0-8.25968-2.24-16.63653-6.213-23.78906a22.651772 22.651772 0 0 0 0-.004c-2.696-4.85122-6.046-9.27753-9.762-13.35743-3.605-4.80776-8.008-9.15148-13.27-12.61132-4.42-3.68263-9.78-7.90039-20.337-7.9004-9.025 0-19.192 2.96822-26.784 9.4375-3.414 2.85818-6.915 6.13098-10.775 9.99219a22.651772 22.651772 0 0 0 -1.791 2.01953c-5.274 6.71146-9.726 12.85936-13.42 18.66211a22.651772 22.651772 0 0 0 0 .002c-3.309 5.20031-6.603 10.61347-9.883 16.23632-4.404 7.54911-7.534 15.83381-8.363 24.73829-.645 6.53753-.408 13.19198 1.238 19.77539l-.136-.58008c.127.57211.291 1.93706-.174 4.49805 0 .009-1.788 5.50815-6.073 12.9082-8.258 14.09654-15.587 26.03569-22.087 36.19531.305-3.01173.611-5.90689.918-8.96875 1.33-9.36992 2.472-18.38448 3.376-26.97852a22.651772 22.651772 0 0 0 .01-.11718c.954-9.53996 1.457-18.083 1.457-25.81641 0-7.23328-.239-14.85474-.711-22.87891-.52-8.83634-1.841-17.37446-3.99-25.57031-1.822-8.61918-4.98-16.85602-10.412-24.07031-6.113-8.52856-17.854-16.11719-29.756-16.11719-15.186 0-29.214 8.59731-38.359 19.70117a22.651772 22.651772 0 0 0 -.1.11719c-6.51 8.01305-12.146 16.185-16.869 24.5586-3.871 6.65602-6.891 13.13103-8.527 20.49218a22.651772 22.651772 0 0 0 -.366 2.10352c-.751 6.0062-.816 12.64771 2.118 19.97851.04.0945.374 1.08303.628 2.86524a22.651772 22.651772 0 0 0 .645 3.02148c-.632-2.20951.221 1.80838-.156 7.84961a22.651772 22.651772 0 0 0 -.03.74805l-1.209 41.08398c-.314.40283-1.218 1.55414-1.405 1.76368a22.651772 22.651772 0 0 0 -.314.36132c-9.841 11.55277-19.139 21.46633-27.817 29.7461-7.9 7.13476-14.626 12.5408-20.232 16.55859-.14-1.6244-.266-3.33869-.266-5.35937 0-18.18354 2.415-36.37576 7.319-54.76172a22.651772 22.651772 0 0 0 .03-.11914c5.068-19.42535 11.825-38.67276 20.32-57.78711a22.651772 22.651772 0 0 0 1.08-2.97461c1.816-6.35431 2.062-12.77223 1.428-18.96094-.63-9.71174-5.694-16.26331-10.045-20.61523-4.321-4.3224-8.987-7.44351-14.258-10.51758-6.13-4.02742-14.813-6.76377-23.261-5.70508-2.079.26053-4.057.72159-5.944 1.32031-.652-.59204-1.237-1.18773-1.916-1.78125l1.807 1.80664c0 .003-.02.003-.03.006-7.035-7.80153-18.523-12.80664-28.805-12.80664-5.545 0-8.801.77152-13.869 1.78516l2.187-.32813c-7.183.71841-14.09 2.59816-21.521 5.25196-8.242 2.94375-16.543 7.19183-25.434 12.60546-9.681 5.43485-19.39 12.48561-29.5 21.1504a22.651772 22.651772 0 0 0 -.47.41406c-15.25 13.82019-29.691 29.23112-43.354 46.17578-3.342 4.04027-5.891 7.64651-8.207 10.93164-2.095 1.43173-4.373 3.16391-6.293 5.35742a22.651772 22.651772 0 0 0 -.357.41797c-10.81 12.97134-21.797 25.0313-32.955 36.18945-10.671 10.67021-21.024 19.94831-30.999 27.84766-7.79 6.09387-14.674 10.81572-20.96 14.74805.567-2.66838 1.134-5.37741 2.085-8.4668 4.026-12.52776 8.704-27.43934 14.018-44.70508 5.722-17.16427 12.346-35.94394 19.869-56.30469 7.95-20.30792 16.788-41.74826 26.533-64.33789a22.651772 22.651772 0 0 0 .06-.14843c9.627-22.75571 20.601-46.01805 32.918-69.77344a22.651772 22.651772 0 0 0 .02-.0371c7.868-15.24195 13.118-27.47791 13.936-41.37695a22.651772 22.651772 0 0 0 0-.0742c1.024-18.43317-9.816-32.36535-23.033-43.74805-7.334-7.17911-18.22-11.13281-27.864-11.13281-14.368 0-27.122 8.50499-35.197 18.59961a22.651772 22.651772 0 0 0 -.121.15429c-8.585 10.92618-15.905 26.05717-28.176 51.9629 0 .0163-.02.0384-.02.0547-12.039 24.97156-27.882 62.20754-47.395 110.78321-.566-3.24704-1.41-6.53514-2.357-9.92969-2.076-9.34077-6.213-18.20166-11.973-25.88086a22.651772 22.651772 0 0 0 -.308-.40234c-6.628-8.4367-14.903-15.72309-24.451-22.12891-8.761-6.16676-18.222-11.52746-28.305-16.08008-9.635-4.54958-19.415-8.17219-29.315-10.77734-8.502-2.23749-16.278-3.62779-23.918-3.9668-8.481-8.32897-16.885-14.93716-26.789-19.18164l1.815.875c-7.54-4.05928-14.669-7.42383-24.881-7.42383-13.301 0-26.51 7.71393-34.111 17.5957a22.651772 22.651772 0 0 0 -.67.91797c-3.743 5.40631-6.706 10.6097-9.203 15.92188-10.146 3.76643-20.701 8.25648-31.803 13.58594a22.651772 22.651772 0 0 0 -.328.16015c-12.129 6.06394-22.91 13.08386-32.203 21.24024-8.388 7.12072-16.674 17.09036-16.674 31.33593a22.651772 22.651772 0 0 0 .138 2.50196c.835 7.51323 3.916 15.9854 10.139 22.45703 5.195 5.73729 12.385 10.51269 20.342 12.50195 4.895 1.22378 9.728 2.02154 14.922 2.02149 1.161 0 2.053-.10014 3.008-.17579-1.103 3.50279-1.893 6.06889-3.059 9.76172-5.407 16.67231-10.808 33.77854-16.209 51.33008-5.387 17.06084-10.555 33.68098-15.5 49.86328a22.651772 22.651772 0 0 0 0 .002c-4.566 14.94686-8.107 27.67072-10.877 38.82812 0 .003-.02.0388-.02.041 0-.0114-.57.42803-2.325 1.08593a22.651772 22.651772 0 0 0 -.457.17774c-11.379 4.55162-21.626 10.35497-28.75 21.29297-7.123 10.93799-7.317 26.79915-2.39 37.88476a22.651772 22.651772 0 0 0 .203.44727c5.348 11.36424 14.061 20.97431 24.592 27.90039 11.851 8.25549 26.306 12.03515 41.019 12.03515 7.529 0 15.168-1.42882 22.205-4.4746 6.09-2.46153 11.853-5.50199 17.135-10.70508 1.73-.11633 3.606-.3086 5.1-.3086 15.992 0 30.807-1.72663 44.437-5.53711 12.861-3.46923 22.894-6.88108 32.096-13.55078 8.968-6.4204 17.983-15.4806 19.394-29.58789.865-8.64708-4.325-20.52888-11.316-25.76562s-13.339-6.35126-19.351-7.0586c-7.735-.90993-16.952-1.79727-27.467-2.68164-4.275-.56026-7.973-1.16701-11.315-1.77734 2.274-8.30253 4.661-16.60845 7.205-24.91797 4.397 1.85746 9.32 3.14649 14.793 3.14649 3.944-.00001 7.948-.31158 12.237-.84766 4.41-.55136 8.916-1.35832 13.552-2.38867a22.651772 22.651772 0 0 0 1.311-.33203c7.104-2.02994 14.336-4.52925 21.715-7.48047 7.286-2.91458 14.367-6.08104 21.24-9.51758v.002c6.677-3.33791 12.934-6.70874 18.787-10.12304 5.381-3.13886 10.063-6.1726 14.309-9.26563 7.8-5.01494 15.204-11.16351 22.361-18.29102 3.699-3.4693 7.242-7.0614 10.602-10.79101-6.552 20.58599-11.892 38.36373-15.944 53.21875a22.651772 22.651772 0 0 0 -.16.62305c-3.69 15.22078-6.298 27.86613-7.81 38.4375-1.429 9.53508-2.256 17.17192-2.256 24.1289 0 16.03679 4.521 31.75723 13.843 44.41016a22.651772 22.651772 0 0 0 .457.59961c10.072 12.75741 26.296 21.4082 42.692 21.4082 19.922 0 39.961-6.11629 59.887-16.8457v.002c11.963-6.44149 23.393-13.75763 34.386-21.75.58 1.30733 1.103 2.6393 1.789 3.89844a22.651772 22.651772 0 0 0 .776 1.31445c3.902 6.13232 8.261 11.71987 13.193 16.65039a22.651772 22.651772 0 0 0 1.1 1.02735c4.808 4.20709 9.958 7.81509 15.562 10.61718a22.651772 22.651772 0 0 0 .93.43946c5.464 2.42862 10.341 4.64648 18.627 4.64648 20.689 0 40.099-9.27172 59.765-23.85937 5.15-3.62494 10.729-8.06739 17.002-13.42383 6.998-5.5985 13.573-11.23672 19.752-16.92969.101-.0861.174-.16592.274-.25195v.0137c3.193 11.97403 8.655 23.10395 16.627 32.4043a22.651772 22.651772 0 0 0 .4.45507c12.244 13.53446 30.216 21.5918 48.443 21.5918 15.765 0 31.187-5.17019 46.145-13.70117 12.624-6.98448 24.79-15.77115 36.588-26.0586 1.52 4.21745 3.393 8.33359 6.162 12.22852-9.374 11.47366-19.159 23.3579-26.982 33.28906a22.651772 22.651772 0 0 0 -.262.33789c-11.171 14.74407-20.764 27.22951-28.742 37.42579a22.651772 22.651772 0 0 0 -.668.89843c-10.697 15.15317-18.44 26.43176-23.719 34.56836-5.849 8.30648-10.534 15.96995-14.027 23.53906l.306-.63867c-1.653 3.30696-1.799 2.80462-2.166 2.93555l.453-.15625c-6.273 2.09121-10.756 4.81759-16.445 8.4375a22.651772 22.651772 0 0 0 0 .002c-9.202 5.85667-15.84 13.54595-23.365 23.56836-4.99 6.4965-9.188 13.01119-12.592 19.6836-3.813 6.63602-6.797 13.74723-9 21.17773-4.371 12.911404.917 30.941249 10.84 39.947266 8.806 8.440057 21.418 13.466796 33.486 13.466796 8.981 0 17.945-1.664303 26.213-5.109374v-.002c10.455-4.356747 18.627-12.343618 24.482-21.451172 3.448-5.362178 6.487-9.119431 8.415-11.046874a22.651772 22.651772 0 0 0 1.031-1.101563c.03-.03218 2.382-2.175754 7.338-4.488281a22.651772 22.651772 0 0 0 .554-.267578c3.911-1.955714 8.784-4.507617 14.75-7.720704l-1.248.623047c7.21-3.327438 14.079-7.467253 20.571-12.300783 6.696-4.66865 12.693-9.7997 17.902-15.4961 7.278-7.42051 13.066-18.17009 13.066-29.80078 0-5.79518-1.621-12.31728-4.857-17.99023 2.193-3.11286 15.023-20.06373 36.08-45.75391 22.999-27.51071 52.62-63.64809 88.959-108.51172a22.651772 22.651772 0 0 0 0-.004c8.109-10.0175 16.525-21.48203 25.318-34.43555 9.262-13.43333 17.857-26.89543 25.774-40.40039 4.306-7.34651 7.918-14.01637 11.814-20.96484-6.802 20.53563-10.73 38.99177-10.73 55.96289 0 12.96944 1.873 25.23333 6.25 36.48828a22.651772 22.651772 0 0 0 .412.99023c4.62 10.39572 10.939 19.805 18.828 27.69336 7.814 7.81471 17.09 13.97872 27.305 17.85938 9.981 4.05633 20.529 6.27734 31.125 6.27734 22.151 0 44.29-3.54618 66.121-10.49219a22.651772 22.651772 0 0 0 .297-.0977c21.678-7.22633 42.244-16.65418 61.591-28.25.227-.13302.428-.28445.655-.41797 2.227 9.39407 6.263 17.92255 13.56 25.21875a22.651772 22.651772 0 0 0 .602.58203c9.626 8.93941 22.869 14.80859 36.279 14.80859 12.071 0 23.982-3.07496 37.92-8.05273 15.01-5.36045 30.225-13.72247 46.145-24.79297 4.676-3.12305 9.886-6.93388 15.929-11.58203a22.651772 22.651772 0 0 0 .822-.66406c5.508-4.66081 11.009-9.56298 16.5-14.5918.229 1.35323.298 2.7136.586 4.0625a22.651772 22.651772 0 0 0 .08.35742c1.875 8.12024 5.023 15.91508 9.243 23.14844a22.651772 22.651772 0 0 0 .455.74805c4.852 7.62512 11.42 14.20617 19.064 19.07031 8.88 5.65055 19.419 8.25195 29.67 8.25195 17.697 0 35.26-5.50784 52.176-15.02344 16.037-9.02049 31.183-20.22629 45.402-33.46484a22.651772 22.651772 0 0 0 0-.002c13.893-12.93493 26.43-26.66247 37.555-41.17383 10.946-14.27592 19.562-27.44868 25.846-40.01563 3.719-7.43864 6.598-14.73968 8.447-22.14062a22.651772 22.651772 0 0 0 .1-.39649c2.042-8.84867 2.929-19.2923-3.077-29.79882a22.651772 22.651772 0 0 0 -.457-.76172c-2.785-4.45793-7.175-9.3042-13.578-12.26367-6.403-2.95948-14.086-3.20057-19.879-1.75196-12.879 3.21979-19.061 11.22875-24.57 19.18555a22.651772 22.651772 0 0 0 -.486.73242c-1.826 2.8689-7.333 10.06802-15.543 19.57422a22.651772 22.651772 0 0 0 0 .002c-8.122 9.40532-17.174 19.1032-27.153 29.08203a22.651772 22.651772 0 0 0 -.351.35938c-8.703 9.099-17.072 16.84723-25.11 23.48437.03-.3098.02-.5393.05-.85742a22.651772 22.651772 0 0 0 .08-1.0625c.374-7.10505 1.578-16.58424 3.7-28.03906a22.651772 22.651772 0 0 0 0-.002c2.182-11.78799 4.813-24.52088 7.898-38.18555 3.045-13.48394 6.534-27.4474 10.461-41.86133 4.336-14.28816 8.879-27.90025 13.617-40.82226 11.087-30.15508 20.584-53.50029 28.162-69.49805a22.651772 22.651772 0 0 0 .1-.20508c8.146-17.6512 14.737-32.4196 19.818-44.42969a22.651772 22.651772 0 0 0 .02-.0371c4.27-10.14166 7.327-19.27521 6.4-30.60351-.47-11.63102-5.846-21.76697-12.677-29.8418a22.651772 22.651772 0 0 0 -.09-.11133c-6.427-7.49714-12.414-13.63714-21.797-17.89648-6.158-2.9798-13.163-4.83008-20.314-4.83008zm-2367.307 84.16016c-42.777 14.1041-33.328 3.10341-50.436 27.26758-5.828 3.18873-12.739 5.78885-21.033 7.59179l.637-.1289c-6.278 1.17707-13.203 3.4665-19.397 9.27343-6.193 5.80693-9.849 15.36371-9.849 23.08594 0 13.56913 8.798 26.04015 18.511 32.76563a22.651772 22.651772 0 0 0 1.657 1.04492c1.862 1.06432 3.745 1.82717 5.611 2.75586-2.618 9.49637-5.587 19.72994-9.25 31.38476a22.651772 22.651772 0 0 0 -.123.40039c-4.389 14.92607-9.226 30.09738-14.51 45.50586a22.651772 22.651772 0 0 0 -.181.55469c-4.842 15.40381-9.899 30.34604-15.166 44.83399-4.635 12.74369-9.013 23.53442-13.161 32.875-9.458 2.48769-17.284 8.24537-23.951 14.78124-7.795 7.06402-12.935 17.25235-14.486 27.33399-1.437 9.33569-.688 20.17108 5.199 29.5918l-.594-1.00391c1.934 3.48128 3.655 6.92426 5.166 10.32422a22.651772 22.651772 0 0 0 .436.92578c1.287 2.5747 2.088 4.68693 2.519 6.19531l-.369-1.48047c2.684 12.52979 14.844 25.77795 27.832 28.77539a22.651772 22.651772 0 0 0 .348.0762c10.499 2.24995 22.55 1.10121 32.422-4.28321v-.002c4.15-2.26357 7.5-4.00572 10.512-5.53516.851-.25703 1.618-.45312 2.203-.45312.685 0 3.234.16261 6.386.49219 4.433.95077 9.601 1.96327 16.616 3.20117a22.651772 22.651772 0 0 0 1.127.16992c7.893.98673 16.7 1.69198 26.521 2.16211 9.775.90271 19.38 1.37891 28.801 1.37891 25.662 0 50.795-3.97189 75.041-11.88868 18.32-5.98221 34.706-14.90799 48.568-26.57031.477 1.02964.875 2.09294 1.42 3.0918a22.651772 22.651772 0 0 0 .776 1.31445c3.903 6.13416 8.263 11.72061 13.191 16.64844a22.651772 22.651772 0 0 0 1.102 1.0293c4.811 4.20983 9.963 7.8166 15.564 10.61718a22.651772 22.651772 0 0 0 .93.43946c5.46 2.42693 10.341 4.64648 18.625 4.64648 20.689 0 40.095-9.27318 59.759-23.85937 5.15-3.62494 10.729-8.06739 17.002-13.42383 7-5.59959 13.569-11.23716 19.745-16.92383.102-.0883.178-.16962.281-.25781v.0137c3.197 11.97793 8.665 23.10681 16.634 32.4043a22.651772 22.651772 0 0 0 .403.45507c12.244 13.53446 30.214 21.5918 48.441 21.5918 15.761 0 31.177-5.16787 46.133-13.69531 5.746-3.17895 11.379-6.8113 16.949-10.6875 2.199 4.73392 5.151 8.99205 8.526 12.36719a22.651772 22.651772 0 0 0 1.103 1.03125c5.094 4.45622 10.786 8.2327 16.895 11.2871 6.226 3.1139 12.885 5.32396 19.736 6.61719 6.507 1.56341 12.93 2.50781 19.354 2.50781 11.198.00001 21.84-2.94315 33.636-7.54492 4.862-1.8307 9.575-4.24709 14.418-7.08398 5.334-2.46586 10.496-5.15793 15.442-8.125l-.807.46289c4.98-2.71631 9.515-5.21115 13.617-7.49023a22.651772 22.651772 0 0 0 1.563-.95313c4.654-3.10295 8.675-6.17437 12.382-9.80273 6.885-6.26679 11.857-13.81819 16.19-22.48438 4.521-9.04298 7.773-17.89114 7.773-28.30273 0-13.05434-3.65-25.92292-9.896-37.91407-5.277-10.96025-12.114-21.75012-20.418-32.49609l.07.0918c-5.04-6.59112-9.164-12.82551-12.525-18.69922-1.781-3.93137-2.469-6.72046-2.727-8.75977 3.17-2.46492 7.724-5.23481 14.133-7.93359 6.764-2.84806 14.524-5.10399 23.371-6.64258a22.651772 22.651772 0 0 0 .738-.14062c8.043-1.67555 15.762-2.46075 23.297-2.68946 1.267 6.39061 4.142 13.02952 9.188 18.07617a22.651772 22.651772 0 0 0 1.871 1.67383c2.82 2.25534 5.817 4.43028 8.996 6.54883a22.651772 22.651772 0 0 0 2.432 1.41016c5.393 2.69682 11.295 3.84059 16.873 3.8789-1.862 5.38205-3.585 10.48111-5.811 16.60157a22.651772 22.651772 0 0 0 -.297.87304c-3.113 9.78546-6.226 19.57077-9.342 29.36133-3.066 9.19418-5.484 15.94915-6.941 19.58984a22.651772 22.651772 0 0 0 -.148.38282c-5.427 14.30869-8.877 25.95744-8.877 38.32617 0 17.7724 9.164 35.70954 23.629 46.04101v-.002c12.473 8.9097 27.097 14.31836 42.117 14.31836 11.907 0 23.973-2.35404 36.144-6.5625 28.253-8.97383 50.879-19.22723 68.297-32.28125 15.14-11.01914 26.157-19.7602 34.113-27.7168a22.651772 22.651772 0 0 0 1.182-1.27734c4.306-5.02362 7.972-10.95198 9.969-17.93945l-.568 1.72461c2.146-5.72787 3.999-12.18666 2.386-20.74805-1.607-8.50958-11.452-20.79602-21.849-22.875l3.97 1.17969c-13.849-5.54059-23.785.46592-30.402 4.87695-3.247 2.16481-7.614 4.76907-12.982 7.66016-5.004 2.69407-10.511 5.25388-16.528 7.66015a22.651772 22.651772 0 0 0 -.51.21094c-5.518 2.36501-11.281 4.53859-17.24 6.54102-2.441.67697-4.69 1.10333-6.814 1.37109.129-1.78626.342-3.78723.746-6.10742a22.651772 22.651772 0 0 0 .242-1.82813c.283-3.11293 1.126-7.77302 2.656-13.54297 2.129-6.82418 4.264-13.85033 6.395-21.08007 2.553-7.2288 5.097-14.23572 7.637-21.01758 2.471-5.65727 4.536-10.50115 6.476-15.10352 29.746-4.03304 54.384-8.28892 73.998-12.95898a22.651772 22.651772 0 0 0 .367-.0899c19.891-5.0883 32.179-8.39062 42.825-14.12304a22.651772 22.651772 0 0 0 .912-.51758c4.73-2.83738 8.809-6.55532 12.095-10.66211l-1.668 1.86328c3.988-3.98797 7.801-9.39447 9.664-16.36523 2.091-7.09613 1.85-19.87776-5.992-28.08008-7.666-8.50675-17.538-9.70703-24.4-9.70703-5.183 0-11.706.24686-19.895.69922-7.83.0182-16.295.23552-25.623.67968a22.651772 22.651772 0 0 0 -.05.002c-8.821.44106-17.878.88069-27.147 1.32226 4.244-9.88858 9.332-20.32772 15.666-31.50586l-.04.0703c5.335-9.33659 8.559-20.44983 7.195-31.78321-1.363-11.33286-7.288-21.52489-14.892-29.1289-8.085-8.08559-19.936-14.04883-32.174-14.04883-11.823 0-20.874 4.3019-30.336 9.86718a22.651772 22.651772 0 0 0 0 .002c-10.441 6.14253-19.475 14.63889-24.932 25.55273a22.651772 22.651772 0 0 0 0 .002c-2.468 4.9382-4.994 11.03822-8.253 19.41992-3.244 8.34076-6.477 17.10972-9.698 26.3125l.125-.34766c-3.13 8.49575-6.032 16.3152-8.707 23.44531a22.651772 22.651772 0 0 0 0 .004c-2.281 6.08401-3.681 9.30394-3.867 9.83008-5.806 1.1802-11.417 2.36139-16.623 3.55859-3.58.60603-6.656 1.23675-9.764 1.86524-.901-2.91271-2.016-5.77495-3.543-8.44532l1.543 3.28516c-3.491-9.30649-10.038-15.84374-16.972-20.69727-6.439-4.5066-13.687-7.81363-21.274-9.83984-8.588-2.76537-17.518-3.68359-27.4-3.68359-7.262 0-14.828.86696-23.027 2.40429a22.651772 22.651772 0 0 0 -.27.0527c-8.063 1.61256-16.186 3.98829-24.385 7.0625-8.103 3.03868-15.967 6.59114-23.574 10.64844a22.651772 22.651772 0 0 0 -.58.32031c-7.273 4.15594-14.101 8.88158-20.447 14.13867-11.833 9.20549-22.435 20.70793-31.955 34.23633-10.576 15.0279-16.92 31.96627-16.92 49.39844 0 .4034.06.51737.07.89453-6.424 8.37838-12.728 16.4228-18.67 23.10742a22.651772 22.651772 0 0 0 -.314.35937c-9.838 11.54844-19.142 21.46199-27.825 29.7461-7.896 7.13119-14.618 12.53534-20.222 16.55273-.14-1.62317-.266-3.33484-.266-5.35351 0-18.18952 2.409-36.38116 7.311-54.76172a22.651772 22.651772 0 0 0 .03-.11914c5.066-19.42005 11.83-38.6682 20.328-57.78711a22.651772 22.651772 0 0 0 1.08-2.97461c1.826-6.3898 2.052-12.7977 1.422-18.95117-.627-9.70729-5.687-16.26376-10.039-20.61914-4.318-4.32134-8.981-7.44278-14.248-10.51563-6.13-4.03048-14.819-6.7726-23.274-5.71289-2.078.26052-4.054.72172-5.941 1.32031-.652-.59223-1.237-1.18749-1.916-1.78125l1.807 1.80664c-.01.003-.02.003-.03.006-7.046-7.81508-18.53-12.80664-28.812-12.80664-5.545 0-8.801.77152-13.869 1.78516l2.187-.32813c-7.184.71833-14.09 2.59783-21.521 5.25196-8.249 2.94561-16.545 7.19476-25.43 12.60546-9.681 5.43485-19.39 12.48561-29.5 21.1504a22.651772 22.651772 0 0 0 -.471.41406c-15.253 13.82332-29.708 29.24052-43.379 46.19726-14.038 16.95809-25.962 35.21014-35.691 54.65235-8.193 15.71948-14.411 29.03197-18.695 40.82617-.572-.0962-1.19-.2531-1.723-.30664-9.608-.96558-14.93 1.53574-20.82 4.01562a22.651772 22.651772 0 0 0 -.03.0156c-9.835 4.16074-20.847 7.28895-33.162 9.27539a22.651772 22.651772 0 0 0 -.116.0195c-12.341 2.05676-24.108 3.05859-35.328 3.05859-5.547 0-12.185-.21875-19.644-.62304-7.452-.83863-14.899-1.86343-22.358-3.10547-6.291-1.11113-12.081-2.21603-17.705-3.31836.667-1.71223 1.235-3.09301 1.979-5.04297 4.128-9.64768 9.234-22.06904 15.466-37.65039a22.651772 22.651772 0 0 0 .07-.17773c7.2-18.45128 13.284-34.22147 18.258-47.33399 4.898-12.91337 8.898-23.80581 12.109-32.96094l.02-.0527c3.645-9.56822 6.411-17.16537 8.377-23.06445a22.651772 22.651772 0 0 0 0-.004c1.718-5.15348 3.199-9.35797 4.401-12.56641 2.018-5.24378 4.489-11.03159 7.429-17.33398a22.651772 22.651772 0 0 0 .225-.5c2.498-5.71056 4.942-9.36479 6.279-10.86914a22.651772 22.651772 0 0 0 .651-.76563c9.538-11.74062 13.36-30.51388 7.443-45.01757-4.738-11.76456-13.647-21.19833-24.162-28.00196-10.519-6.80657-22.676-11.04687-35.203-11.04687zm1029.48 90.61328c.01-.044-.34 1.02468-.529 1.63867.09-1.28689.52-1.59599.529-1.63867zm1004.918 6.41797c.256.0234.904.1263.973.15429-.328-.0295-.644-.12904-.973-.15429zm231.518 3.33789c-.07.23533 2.875-7.08758 0 0zm-1130.967 4.21094c17.22 8.35036 28.81-2.67621 22.949 22.02539-2.671 3.48563-5.962 6.83892-10.16 10.06836-5.102 3.92414-10.661 7.70209-16.695 11.32226l.994-.5625c-6.056 3.23015-11.763 6.707-17.26 10.33008 4.141-11.21629 8.895-24.14133 11.418-30.86914a22.651772 22.651772 0 0 0 .104-.28125c2.917-8.10375 5.798-15.30168 8.65-22.0332zm-77.211 7.31054c.261-.16328.09.10804-.828.48438a22.651772 22.651772 0 0 0 .828-.48438zm-419.271 8.33008c-.09.0156-.172.0427-.258.0586-.181.0397-.424.0754-.604.11524zm399.744 1.86914c-.177.0905-.222.11263-.07.0332.02-.0131.04-.0201.07-.0332zm-421.291 7.44531c-.07.0586-.134.12678-.207.18555-.05.0384-.1.0629-.143.10156zm641.144 17.81055c-.137.33008-.338.79883-.3.70313.09-.23646.208-.4662.3-.70313zm-147.052 12.85742c-.01.008-.02.0155-.03.0234-.01.007-.02.0126-.03.0195zm-19.588 14.17969c-.04.0258-.07.0542-.104.0801-.249.19045-.567.39989-.814.58984zm-346.692 17.39844c.106-.004-.101.34092-.543.82617.04-.10364.106-.24652.149-.34961.159-.2623.324-.47414.394-.47656zm1478.895 4.82031c-8.543 17.19386-69.166 85.19372-34.768 45.8125 3.364-5.25158 7.13-10.93972 11.746-17.43164a22.651772 22.651772 0 0 0 .03-.0449c7.941-11.22765 15.63-20.54848 22.99-28.33594zm-1557.858 5.95117c-.305.0443-1.401.18229-1.644.20703.486-.0747 1.177-.12911 1.644-.20703zm1570.35 54.89258c-.137.61833-.224 1.27826-.352 1.9043.05-.18501.107-.63401.122-.71875zm-2364.75 6.31641c-1.487 3.40085 1.854-2.78136 0 0zm2088.551 9.21679c2.713.50554 5.447.84182 8.213 1.00977-.233.002-.549.0586-.778.0586-4.756 0-6.534-.63101-7.435-1.06836zm273.752.58789v.10352c0 .0341 0 .0655-.01.0996zm36.859 1.5918c.05-.0564-.05.14373-.488.57227.101-.12336.227-.25381.328-.37696a22.651772 22.651772 0 0 0 .16-.19531zm-1208.334.68359c.129.0468.53.40875.84.65821-.754-.38012-1.161-.77456-.84-.65821zm-621.775 3.40235c-.352.15092-.648.36661-.994.52344-.265.13167-.564.21444-.823.35351zm-290.949 5.60547c.109.72981.192 1.42903.125 1.04883-.06-.35311-.05-.69352-.125-1.04883zm-178.934 2.07226c-.303 1.21768 1.755-3.37079 0 0zm455.469 1.02735c-.08.0541-.152.12715-.233.18164-.367.27932-.741.4988-1.109.78515zm644.838 2.84765c-.06.1556-.06.1556 0 0zm-661.754 12.10547c-.09.0922-.174.20162-.266.29492-.138.14927-.274.26357-.412.41407zm967.078 15.06445c-.08.0697-.146.12045-.1.0762.03-.0265.07-.0496.1-.0762zm-1237.77.87305c-.167.18815-.431.47331-.396.42774.127-.14728.269-.27984.396-.42774z" fill="#333" stroke-width="16.833015" transform="scale(.26458333)"/><path d="m-2728.3524-139.95727q2.3159 0 4.4537.53445.7126.17815.8907.17815.3563-.17815.7126-1.06889 2.8504-6.94783 5.5227-13.71751 2.8504-6.76968 5.1663-12.47046 2.4941-5.87893 4.2756-9.97636 1.7815-4.27559 2.6722-5.87893 1.0689-2.31594 1.9597-3.02854 1.0689-.7126 1.9596-.7126 1.4252 0 2.8504.7126 1.6034.7126 3.7412 3.20669 1.9596 2.31594 1.9596 4.45373.1781 1.95965-1.2471 5.34448-1.9596 4.63189-5.1663 11.57971-3.2067 6.76968-7.6604 18.88384-1.9597 5.34448-3.7411 11.22341-1.6034 5.87893-2.8504 11.40156-1.2471 5.52264-2.1378 10.33267-.8908 4.81003-1.0689 8.19487-.8908 8.907472 3.3848 8.907472 2.1378 0 5.8789-3.02854 3.7412-3.028539 7.6605-7.125972 4.0974-4.09744 7.4822-8.01673 3.3849-3.91928 4.6319-5.87893 1.6034-2.31594 3.0286-2.67224 1.4252-.3563 2.3159 1.0689.7126 1.24704.1782 3.56299-.5345 2.13779-1.7815 4.63188-2.1378 4.27559-6.2353 9.620069-4.0974 5.344481-9.2637 10.154515-5.1664 4.810034-10.8671 8.016723-5.7008 3.206689-10.8672 3.206689-2.6722 0-4.6318-1.247045-1.9597-1.247046-3.2067-3.20669-1.2471-2.137792-1.7815-4.453735-.5345-2.494091-.3563-4.810033.1781-3.02854.3563-4.810034.1781-1.959643.5344-3.562989.1782-1.0689-.3563-1.0689-.3563-.17814-1.0689.7126-1.6033 1.959646-3.9193 4.275588-2.3159 2.315942-4.81 4.631884-2.3159 2.137793-4.6319 4.097436-2.3159 1.781494-3.9193 2.850391-5.8789 4.097436-10.8671 5.87893-4.9882 1.781494-8.0167 1.781494-3.0285 0-5.5226-2.315942-2.4941-2.494092-2.4941-9.263769 0-2.850391.8907-6.769677.8908-4.097436 3.0286-8.907475 2.1378-4.81003 5.5226-9.97636 3.3848-5.34448 8.373-10.86711 7.3041-8.01673 14.4301-11.22342 7.126-3.38484 14.6083-3.38484zm-3.563 10.33267q-2.4941 0-7.6604 4.27559-4.9882 4.27558-10.1546 11.57971-5.7007 8.01672-7.1259 11.75786-1.4252 3.562984-1.4252 5.522628 0 3.028539 2.3159 3.028539 1.6034 0 4.6319-1.781494 3.2067-1.959643 7.4823-6.057083 2.3159-2.31594 4.6319-5.52263 2.494-3.20669 4.6318-6.41338 2.1378-3.20668 3.7412-5.70078 1.6033-2.67224 1.9596-3.74113.8908-1.7815.7126-2.85039 0-1.24705-.5344-2.1378-1.0689-1.95964-3.2067-1.95964zm-98.8744 34.382833q0-6.057083 3.2067-14.964553 3.2067-8.90747 9.0856-17.45864 1.2471-1.78149 3.563-4.45373 2.316-2.85039 4.9882-5.16633 2.8504-2.4941 5.8789-4.27559 3.0286-1.78149 5.879-1.78149 2.494 0 3.9192 1.06889 1.4252.89075 2.316 2.49409 1.0689 1.4252 2.6722 1.60335 4.6319.3563 7.4823 3.20669 2.8504 2.67224 2.8504 7.83857 0 4.81003-2.1378 8.72932-1.9596 3.74114-4.6319 6.76968-2.8504 2.85039-7.6604 5.70078-4.6319 2.67224-11.936 2.67224-1.4252 0-2.8504-.3563-1.4252-.53445-2.6723-1.06889-1.6033-.7126-2.3159.89074-.7126 1.4252-1.0689 2.67224-.3563 1.247049-.3563 3.206693 0 3.028539 1.9597 4.810033 2.1377 1.781494 6.057 1.781494 3.9193 0 8.9075-1.247046 5.1663-1.247045 10.8671-3.919286 5.8789-2.850391 12.2923-7.482278 6.4134-4.63188 13.1831-11.57971 1.4252-1.42519 2.4941-1.42519 1.247 0 1.7815.89074.7126 1.24705 0 3.38484-.5345 2.1378-2.316 4.45374-4.6319 5.87893-10.8671 11.401559-6.2352 5.522631-13.5393 9.798217-7.126 4.275585-15.1427 6.947826-7.8386 2.494092-15.6772 2.494092-3.0285 0-6.0571-1.247046-2.8504-1.068896-5.1663-3.384838-2.3159-2.315943-3.7411-5.522632-1.2471-3.206689-1.2471-7.482275zm24.0502-18.349383q2.1378 0 4.4537-1.24705 2.4941-1.4252 4.4538-3.38484 2.1377-1.95964 3.3848-4.09744 1.4252-2.31594 1.4252-4.27558 0-1.95964-1.2471-2.85039-1.0689-1.0689-2.8503-1.0689-1.4252 0-3.0286 1.4252-1.6033 1.42519-3.3848 3.56299-1.6034 2.13779-3.0286 4.63188-1.4252 2.49409-2.1378 4.63188-.5344 1.60335-.1781 2.1378.3563.53445 2.1378.53445zm-77.3642-8.55118q.1782-2.85039-.1781-4.09743-.1782-1.24705-.5345-2.13779-.3563-.89075-.1781-2.31595.3563-1.60334 1.6033-3.74113 1.6034-2.85039 3.9193-5.70079 2.4941-3.02853 5.5227-3.02853 1.7815 0 3.0285 1.78149 1.247 1.60334 1.7815 4.27558.7126 2.67225.8907 5.70079.1782 3.02854.1782 5.70078 0 2.67224-.3563 6.23523-.3563 3.38483-.8908 7.12597-.3563 3.56299-.7126 6.94783-.3563 3.38484-.5344 5.522629-.3563 3.384839.3563 4.988183.7126 1.603345 1.6033 1.603345.5345 0 4.6319-4.988183 4.0975-5.166334 11.4016-17.636794 1.9596-3.38484 2.3159-5.34448.3563-1.95964 0-3.56299-.3563-1.42519-.1781-3.20669.1781-1.95964 1.4252-4.09743 1.247-2.13779 2.4941-4.09744 1.247-1.95964 3.2067-4.45373 1.4252-1.4252 2.494-2.31595 1.2471-1.06889 3.2067-1.06889.7126 0 1.7815.89075 1.2471.71259 2.316 2.13779 1.247 1.24704 2.1378 2.85039.8907 1.60334.8907 3.38484 0 1.60334-.7126 4.27558-.5344 2.49409-1.7815 5.52263-1.247 3.02854-3.7411 7.66043-2.4941 4.63188-5.5226 9.79821-3.0286 5.16634-6.5916 10.33267-3.3848 4.988183-6.4134 8.729321-14.4301 17.81494-23.5157 28.682053-8.9074 10.867113-10.3326 13.183055-2.4941 3.384839-1.9597 4.097437 2.6723.890747 2.6723 3.384838 0 1.959644-1.7815 3.741137-1.6034 1.781494-3.9193 3.384839-2.1378 1.603345-4.4538 2.672241-2.3159 1.247046-3.7411 1.959643-2.6722 1.247046-3.9193 2.672241-1.4252 1.425196-3.0285 3.919287-1.6034 2.494092-3.7412 3.384839-2.1378.890747-4.6318.890747-2.8504 0-4.8101-1.959644-2.1378-1.781494-1.247-4.275585.7126-2.494092 1.9596-4.631885 1.0689-2.137792 2.8504-4.453735 2.6723-3.562988 4.6319-4.810033 1.9596-1.247046 3.0285-1.603345 2.4941-.890747 3.9193-3.741137 1.0689-2.315942 3.2067-5.344482 1.9597-3.02854 6.2352-9.08562 3.2067-4.097436 7.6605-9.976366 4.6318-5.87893 10.6889-13.183055 1.0689-1.247046.5345-1.247046h-1.2471q-2.4941 0-3.7411-3.919287-1.2471-4.097436-.8908-13.183055zm-33.3793-20.30903q1.9596 0 3.2067 1.4252 1.4252 1.24704 2.3159 2.31594.5345 1.60334 2.316.3563 2.1378-1.95964 4.2755-.53445 3.7412 2.13779 3.7412 3.74114.1781 1.60334-.1782 2.85039-3.563 8.01672-5.7007 16.21159-2.1378 8.01673-2.1378 16.03345 0 4.631884 1.247 6.769677 1.2471 1.959643 3.2067 1.959643 1.6033 0 4.4537-1.959643 2.8504-1.959644 6.5916-5.344482 3.7411-3.562985 7.8385-8.373025 4.2756-4.81003 8.5512-10.68896 1.4252-1.4252 2.6722-1.24705 1.2471 0 1.7815.89075.7126 1.24705.1782 3.56299-.5345 2.13779-1.7815 4.63188-3.0285 5.87893-7.4823 11.579714-4.4537 5.70078-9.4419 10.332665-4.9882 4.631884-10.1545 7.482275-4.9882 2.85039-9.2638 2.85039-4.9882 0-8.373-3.741137-3.2067-3.741138-3.7411-9.263769-.3563-1.959644-.3563-3.384839 0-1.425195 0-2.85039-.1782-1.959643-1.6034-.534448-.8907.890747-2.8504 2.85039-1.9596 1.959643-4.4537 4.097436-2.316 2.137793-4.9882 4.275586-2.4941 2.137793-4.2756 3.384838-6.9478 5.166333-12.2923 5.166333-.8907 0-2.4941-.712598-1.4252-.712597-2.8504-1.959643-1.4252-1.425195-2.6722-3.384839-1.0689-1.959643-1.0689-4.453735 0-2.672241 1.247-7.304125 1.2471-4.631884 5.5227-12.826754 3.563-7.12598 8.7293-13.36121 5.1663-6.41338 10.8671-11.57971 3.7411-3.20669 6.9478-4.98818 3.2067-1.95965 5.7008-2.85039 2.4941-.89075 4.2756-1.0689 1.7815-.3563 2.4941-.3563zm-6.5915 13.36121q-1.2471 0-3.563 1.78149-2.1378 1.7815-6.0571 6.41338-2.3159 2.67224-4.4537 5.87893-1.9597 3.02854-3.563 6.05708-1.6034 2.85039-2.6723 5.52263-1.0689 2.67224-1.4252 4.453736-.3563 1.781494-.1781 3.384839.3563 1.425195 1.4252 1.425195 1.0689 0 2.8504-1.068897 1.9596-1.247045 3.9193-3.028539 2.3159-1.959644 4.4537-4.631884 2.3159-2.85039 6.4134-7.48228 1.9596-2.13779 3.7411-5.16633 1.7815-3.02854 2.316-3.91928.8907-1.4252 1.0688-2.8504.3563-1.60334 0-3.02853-.3563-1.24705-1.4251-2.4941-1.0689-1.24704-2.8504-1.24704zm-77.8889 39.905463q0-1.959643.5345-5.522631.5344-3.741138 1.9596-9.620072 1.6034-5.87893 4.2756-14.25195 2.8504-8.37302 7.4823-19.77458 8.1948-20.48718 13.0049-30.46355 4.81-10.15451 6.7697-12.64861 2.1378-2.67224 4.6318-2.67224 1.9597 0 3.2067 1.24705 4.4538 3.74114 4.2756 6.94783-.1781 3.02854-3.0285 8.55117-4.9882 9.62006-8.9075 18.88383-3.9193 9.08562-7.126 17.28049-3.0285 8.19488-5.3445 15.1427-2.1377 6.94783-3.7411 11.93601-2.1378 6.94783-1.4252 9.441922.7126 2.315942 2.8504 2.315942 2.1378 0 5.5226-1.781494 3.3849-1.959644 7.4823-5.166333 4.2756-3.384837 8.7293-7.838577 4.6319-4.63188 9.0857-9.97636 1.247-1.4252 2.1377-1.4252 1.0689 0 1.6034.89075 1.0689 2.31594-1.2471 6.94783-1.9596 3.91928-6.7696 9.62006-4.6319 5.700784-10.8671 10.867117-6.0571 5.166332-13.005 8.90747-6.9478 3.741137-13.0049 3.741137-3.9192 0-6.5915-3.384839-2.4941-3.384838-2.4941-8.194872zm3.5769-50.059983q0 3.02854-1.4252 6.23523-1.247 3.20669-3.3848 6.23523-2.1378 2.85039-4.81 5.34448-2.4941 2.49409-4.9882 4.09744-1.4252 1.06889-3.563 2.31594-2.1378 1.24705-4.6319 2.49409-2.4941 1.24705-5.1663 2.31594-2.6723 1.0689-5.1664 1.7815-1.6033.3563-3.0285.53445-1.4252.17815-2.4941.17815-1.0689 0-2.3159-.7126-1.0689-.89075-1.0689-2.31594 0-1.24705.5344-2.67225.7126-1.42519 1.6034-2.31594 1.0689-1.42519 3.3848-3.02854 2.3159-1.78149 5.1663-3.74113 2.316-1.60335 4.9882-3.02854 2.6723-1.60335 4.9882-3.38484 2.3159-1.7815 3.9193-3.91929 1.6033-2.31594 1.6033-4.98818 0-2.85039-1.6033-4.81004-1.6034-2.13779-3.9193-3.38484-2.1378-1.24704-4.6319-1.78149-2.3159-.53445-3.9193-.53445-2.3159 0-3.2067 1.95965-1.6033 3.56298-3.2067 8.01672-1.6033 4.27558-4.81 13.00491-2.8504 7.83857-5.3445 15.32084-2.4941 7.48228-4.4537 14.964553-.8908 2.137793-.3563 3.02854.5344.712597 2.4941 1.247045 2.4941.712598 6.5915 1.247046 4.2756.356299 7.3041.712598 3.0286.356299 2.8504 2.137793-.1781 1.781494-2.6722 3.562988-1.9597 1.425195-6.5915 2.672241-4.4538 1.247045-10.1546 1.247045-1.4252 0-3.0285.17815-1.4252.356299-2.4941 1.603344-.8907.890747-2.6722 1.603345-1.6034.712598-3.563.712598-4.4538 0-7.4823-2.137793-3.0285-1.959644-4.4537-4.988183-2.1378-4.810034 4.9882-7.660425 1.4252-.534448 2.3159-1.247045 1.0689-.890747 1.7815-2.315943 1.0689-4.453734 3.0285-10.867117 1.9597-6.41337 4.0975-13.18305 2.1378-6.94783 4.2756-13.53936 2.1377-6.76967 3.7411-11.93601.7126-1.95964.5344-2.49409-.1781-.71259-1.6033.17815-1.9596 1.0689-4.81 2.49409-2.6723 1.4252-3.563 1.4252-1.0689 0-2.4941-.3563-1.4252-.3563-2.4941-1.60334-.8908-.89075-1.0689-2.4941 0-1.78149 2.3159-3.74113 3.0286-2.67224 7.3042-4.81004 4.4537-2.13779 8.373-3.56298 1.247-.53445 1.6033-.89075.5345-.3563.8908-1.24705.7126-1.78149 2.3159-4.09743 1.7815-2.31595 4.2756-2.31595 1.4252 0 3.7411 1.24705 2.4941 1.0689 5.5227 4.09744.8907.89074 1.4252 1.24704.5344.17815 1.6033.17815 2.316 0 5.7008.89075 3.3848.89075 6.7697 2.49409 3.563 1.60334 6.5915 3.74114 3.2067 2.13779 5.1663 4.63188 1.6034 2.13779 2.1378 4.63189.7126 2.49409.7126 4.09743zm-139.6413 47.744041q2.316 0 4.8101-.712598 2.6722-.890747 5.1663-1.959643 2.6722-1.068897 4.9882-2.315942 2.3159-1.247046 3.9193-2.315942 1.6033-1.068897 2.494-.712598.8908.178149 1.0689 1.247046.1782.890747-.3563 2.315942-.3563 1.247046-1.4252 2.494091-2.494 2.494092-8.373 6.769678-5.7008 4.275585-16.3897 7.660424-4.0975 1.425195-7.6604 1.425195-3.9193 0-7.6605-2.672241-3.7411-2.672241-3.7411-7.304125 0-2.850391 1.9596-8.016723.7126-1.781494 1.9597-5.522635 1.247-3.91928 2.4941-7.83857 1.4252-3.91929 2.4941-7.12598 1.247-3.38483 1.6033-4.27558.3563-.89075.1782-1.4252 0-.53445-1.4252-.3563-1.0689.17815-2.8504.3563-1.6034 0-3.3849.3563-1.4252.17815-2.4941-.3563-1.0689-.71259-1.9596-1.42519-.8907-.89075-.8907-2.49409.1781-1.7815 1.247-3.02854 1.247-1.4252 2.1378-2.1378 1.0689-.89074 3.0285-1.24704 1.6034-.3563 3.7412-.7126 2.3159-.53445 4.9882-1.0689 1.247-.35629 1.9596-.71259.8907-.53445 1.4252-1.95965.3563-.71259 1.4252-3.56299 1.0689-2.85039 2.3159-6.23522 1.2471-3.56299 2.4941-6.76968 1.2471-3.20669 1.9597-4.63189 1.247-2.49409 4.2755-4.27558 3.0286-1.7815 4.9882-1.7815 2.316 0 4.2756 1.95965 3.9193 3.91929 1.0689 8.90747-3.0285 5.34448-4.9882 10.15451-1.9596 4.81004-2.4941 6.05708-.3563 1.0689.3563 1.24705.8908 0 1.7815 0 3.0286 0 6.5916-.17815 3.7411-.17815 7.3041-.3563 3.7411-.17815 6.7697-.17815 3.2067-.17815 4.9881-.17815 1.6034 0 2.1378.7126.5345.53445.1782 1.60334-.1782.89075-1.0689 1.7815-.7126.89075-1.6034 1.42519-2.3159 1.24705-9.9763 3.20669-7.4823 1.7815-19.4183 3.38484-1.7815.3563-2.4941.89075-.7126.3563-1.4252 1.78149-.8907 2.1378-2.1378 4.98819-1.0689 2.85039-2.1378 5.87893-.8907 3.02854-1.7815 5.87893-.7126 2.67224-.8907 4.63188-.7126 4.097436 0 6.413379.8907 2.315942 4.4537 2.315942zm-37.037-51.128881q3.3849 0 5.5227.7126 2.1378.53445 3.9193 1.78149 1.7814 1.24705 2.3159 2.67225.7126 1.24704.7126 2.85039 0 2.49409-1.7815 3.74113-1.6033 1.0689-3.9193 1.0689-4.0974 0-8.373.89075-4.0974.71259-7.4823 2.13779-3.3848 1.4252-5.5226 3.20669-1.9597 1.78149-1.9597 3.91929 0 2.49409 1.4252 5.52263 1.6034 2.85039 3.9193 5.87893 3.0286 3.91928 4.8101 7.66042 1.9596 3.741139 1.9596 7.304127 0 1.959643-1.4252 4.810034-1.4252 2.85039-3.0285 4.275585-.8908.890747-2.4941 1.959644-1.6034.890747-3.563 1.959643-1.7815 1.068896-3.7411 1.959643-1.7815 1.068897-3.2067 1.603345-4.0975 1.603345-6.7697 1.603345-1.7815 0-3.9193-.534449-1.9596-.356298-3.7411-1.247045-1.7815-.890747-3.2067-2.137793-1.2471-1.247046-1.4252-2.672241 0-.890747.1781-1.781494.3563-1.068897 1.2471-1.959644 1.9596-2.137792 3.563-3.206689 1.6033-1.247046 2.8503-1.781494 2.316-1.247046 4.4538.356299 1.4252.534448 2.3159.890747 1.0689.178149 3.0286.178149 1.7815 0 2.6722-.712597 1.0689-.890747 1.0689-1.781494 0-1.425195-1.0689-3.562988-1.0689-2.315942-3.0285-4.810034-1.4252-1.781489-3.2067-4.810029-1.7815-3.20669-2.6723-5.16634-.7126-1.60334-1.247-3.56299-.5345-2.13779-.5345-3.91928 0-4.81004 3.3849-9.62007 3.3848-4.81003 7.3041-7.83857 2.1378-1.7815 4.6319-3.20669 2.6722-1.4252 5.5226-2.49409 2.8504-1.0689 5.5227-1.60335 2.8503-.53445 4.9881-.53445zm-68.9674.17815q1.9596 0 3.2067 1.4252 1.4251 1.24704 2.3159 2.31594.5344 1.60334 2.3159.3563 2.1378-1.95964 4.2756-.53445 3.7412 2.13779 3.7412 3.74114.1781 1.60334-.1782 2.85039-3.563 8.01672-5.7008 16.21159-2.1378 8.01673-2.1378 16.03345 0 4.631884 1.2471 6.769677 1.247 1.959643 3.2067 1.959643 1.6033 0 4.4537-1.959643 2.8504-1.959644 6.5915-5.344482 3.7412-3.562985 7.8386-8.373025 4.2756-4.81003 8.5512-10.68896 1.4252-1.4252 2.6722-1.24705 1.2471 0 1.7815.89075.7126 1.24705.1782 3.56299-.5345 2.13779-1.7815 4.63188-3.0286 5.87893-7.4823 11.579714-4.4537 5.70078-9.4419 10.332665-4.9882 4.631884-10.1545 7.482275-4.9882 2.85039-9.2638 2.85039-4.9882 0-8.373-3.741137-3.2067-3.741138-3.7412-9.263769-.3563-1.959644-.3563-3.384839 0-1.425195 0-2.85039-.1781-1.959643-1.6033-.534448-.8908.890747-2.8504 2.85039-1.9596 1.959643-4.4537 4.097436-2.316 2.137793-4.9882 4.275586-2.4941 2.137793-4.2756 3.384838-6.9478 5.166333-12.2923 5.166333-.8908 0-2.4941-.712598-1.4252-.712597-2.8504-1.959643-1.4252-1.425195-2.6722-3.384839-1.0689-1.959643-1.0689-4.453735 0-2.672241 1.247-7.304125 1.2471-4.631884 5.5226-12.826754 3.563-7.12598 8.7294-13.36121 5.1663-6.41338 10.8671-11.57971 3.7411-3.20669 6.9478-4.98818 3.2067-1.95965 5.7008-2.85039 2.4941-.89075 4.2756-1.0689 1.7815-.3563 2.4941-.3563zm-6.5916 13.36121q-1.247 0-3.563 1.78149-2.1377 1.7815-6.057 6.41338-2.316 2.67224-4.4538 5.87893-1.9596 3.02854-3.563 6.05708-1.6033 2.85039-2.6722 5.52263-1.0689 2.67224-1.4252 4.453736-.3563 1.781494-.1781 3.384839.3563 1.425195 1.4252 1.425195 1.0689 0 2.8503-1.068897 1.9597-1.247045 3.9193-3.028539 2.316-1.959644 4.4538-4.631884 2.3159-2.85039 6.4133-7.48228 1.9597-2.13779 3.7412-5.16633 1.7815-3.02854 2.3159-3.91928.8908-1.4252 1.0689-2.8504.3563-1.60334 0-3.02853-.3563-1.24705-1.4252-2.4941-1.0689-1.24704-2.8504-1.24704zm-66.845 39.192865q4.9882 0 10.3327-.890747 5.5226-.890747 10.1545-2.85039 3.3849-1.425195 3.563.356299.3563 1.781494-1.6033 3.919287-5.3445 6.235229-14.0738 9.085619-8.7294 2.85039-17.9931 2.85039-3.563 0-7.3041-.356298-3.7412-.17815-6.5916-.534449-3.0285-.534448-4.6319-.890747-1.6033-.178149-2.494-.178149-1.4252 0-2.8504.534448-1.4252.712598-3.3849 1.781494-1.9596 1.068897-4.4537.534448-2.316-.534448-2.8504-3.028539-.3563-1.247046-1.0689-2.672241-.7126-1.603345-1.6033-3.20669-.8908-1.425195-.5345-3.741137.3563-2.315942 1.9597-3.741137 2.6722-2.672241 4.9881-2.672241.7126 0 1.2471-.356299.5344-.356299 1.0689-1.781494 1.9596-4.275582 4.0974-10.154512 2.1378-5.87893 4.0974-12.11416 2.1378-6.23523 3.9193-12.29231 1.9597-6.23523 3.2067-11.04526.8908-3.02854-.5344-3.20669-1.9597-.3563-4.4538-1.7815-2.3159-1.60334-2.3159-3.74113 0-2.1378 2.8504-2.67225 4.0974-.89074 7.3041-2.67224 3.2067-1.95964 4.81-3.91928 1.9597-2.4941 5.5227-2.4941 3.0285 0 6.0571 1.95965 3.0285 1.95964 4.0974 4.63188 1.247 3.02854-1.0689 5.87893-1.4252 1.60335-2.6722 4.45374-1.2471 2.67224-2.1378 4.98818-.5345 1.4252-1.2471 3.56299-.7126 2.13779-2.1378 5.87893-1.247 3.56299-3.2067 8.72932-1.9596 5.16633-4.81 12.47046-2.4941 6.23523-4.0974 9.97636-1.4252 3.741141-2.1378 5.166336-.3563.890747-.1782 1.781494.1782.890747 1.4252 1.247046 1.2471.534448 3.9193 1.068897 2.6722.534448 5.7008 1.068896 3.2067.534448 6.4134.890747 3.2067.178149 5.7007.178149z" fill="#f4c401" stroke-width="4.453735"/></g></svg>