<svg height="103.70829" viewBox="0 0 105.12649 27.439486" width="397.32849" xmlns="http://www.w3.org/2000/svg"><g stroke-width=".264583"><g fill="#333" transform="matrix(.98492144 0 0 1 -4.198312 -316.440476)"><path d="m17.679688 320.8457c-3.042173.0545-3.04444 6.16567-4.53125 5.51563-1.841861-1.47721-.217618-5.58319-3.6562505-5.10352-1.9553212.74388-2.7668416 3.0402-2.3828125 4.76953-.6729692 2.34155-5.0647375 7.8607-.5917969 8.86524 3.3354451.0825 2.3480312-4.98205 3.6445309-5.61133.965701 2.06446 3.666108 7.67558 6.306641 4.17578.15591-2.78973.308152-6.25308 2.416016-8.41406 2.097328-.62721.718702-4.45788-1.205078-4.19727z"/><path d="m22.201172 323.64258c-3.965303.91945-7.771069 8.13832-3.445313 10.72851 3.969328.88257 9.32721-2.19917 9.994141-6.26953-.69422-3.08999-4.103181 2.09469-2.859375-.87304.395769-2.20032-2.042081-3.17405-3.689453-3.58594z"/><path d="m32.912109 323.74219c-2.199476.58696-2.213273 2.44553-3.851562.20703-3.433643.71159-3.840709 6.08934-3.908203 9.02344 2.257443 3.97512 7.130387-.63052 8.623047-3.22461 1.109411-1.50092 5.544023-.39758 5.255859-3.54688-1.209654-1.75407-4.260373.56395-5.035156-2.15625-.315833-.21692-.699939-.33787-1.083985-.30273zm-2.335937 3.51562c-.107272 1.43636-1.749203 3.35629 0 0z"/><path d="m39.740234 323.64258c-3.967035.91572-7.775591 8.14111-3.445312 10.73047 3.971395.87615 9.309396-2.19689 9.99414-6.26367-.683604-3.10414-4.109556 2.08636-2.863281-.875.403068-2.20431-2.037864-3.17661-3.685547-3.5918z"/><path d="m46.117188 323.66602c-3.930812.94502-2.918082 6.21435-3.767579 9.17382 1.184066 3.30508 5.023436.96539 5.144532-1.74023.878185-2.14401 2.11493-3.10868 4.048828-3.42578 2.850276-2.02319-.618905-5.56326-2.863281-3.26953-1.124095 1.65535-.922789-1.13929-2.5625-.73828z"/><path d="m60.791016 320.48242c-1.410769 1.27348-5.324667 2.11467-4.271485 4.71289 2.736201.91327-.05847 3.75271-.234375 5.83594-3.424335 1.42167.804356 5.59277 3 3.36914 2.008107.61117 5.437161-2.31085 2.328125-3.31055-3.020764-.77197 2.529545-.63818 3.267578-2.08984 3.556335-1.71885 2.824007-7.03256-1.208984-7.43359-1.121202.025-1.715678-1.2031-2.880859-1.08399zm1.916015 4.58203c1.540957.72995-2.079356 1.756 0 0z"/><path d="m70.951172 318.07227c-3.488507 2.01408-3.819757 7.293-5.519531 10.73046-1.671504 2.48381-.170657 7.35339 3.345703 5.43165 2.420671-1.32415 6.794578-4.19228 5.083984-7.33399-2.04577-1.12646-4.949547 5.63755-4.140625 1.76172.08333-3.38235 5.179794-7.08843 2.458985-10.17773-.325149-.30411-.786635-.45765-1.228516-.41211z"/><path d="m76.986328 323.76953c-3.908356.87395-7.755284 5.57458-6.78125 9.60352 1.274076 2.56804 4.263667.35012 5.390625-.38867 2.561666 4.19709 7.570429-1.06115 8.541016-4.08204.848579-3.57549-3.544597-1.69528-3.929688.6543-2.650409 2.12101.904593-3.22082-.154297-4.52539-.759176-.94897-2.00105-.97617-3.066406-1.26172z"/><path d="m88.554688 323.54492c-2.580473.0118-2.609221 4.66265-3.138672 4.43555 1.121952-2.42836-1.736522-6.2761-3.644532-3.04492-1.920602 3.46597 1.324461 8.3583-2.191406 11.01562-.815965 2.177-5.912382 4.68705-2.519531 6.91016 2.301199.39217 3.80215-2.10397 5.478515-3.28711.664264-4.38471 6.006285-7.08521 7.421876-11.54688 1.07044-1.60915.819154-4.17759-1.40625-4.48242z"/><path d="m94.136719 323.64258c-3.964157.92074-7.770386 8.13658-3.445313 10.72851 3.972605.88237 9.320524-2.19796 9.998044-6.26953-.702797-3.08537-4.104573 2.09343-2.863278-.87304.396241-2.20078-2.041475-3.17469-3.689453-3.58594z"/><path d="m107.1543 317.81445c-3.04417 1.46671-1.77558 7.14897-6.03516 6.85352-2.986589 1.66917-6.708097 6.55974-3.917968 9.70117 2.611239 1.60401 4.877478-3.27123 6.273438-.16602 3.57474 1.11395 7.79785-3.3167 7.38086-6.83007-2.08696-2.96887-5.34656 6.30351-4.19531.7539-.28638-3.31028 5.22068-7.63386 1.41406-10.17187-.28412-.11977-.61433-.20065-.91992-.14063z"/></g><g fill="#f4c401" transform="matrix(.98492144 0 0 1 -7.488806 -297.731609)"><path d="m13.280123 303.55042q.389466 0 .5842.17039.219075.14605.365125.41381.14605.24342.121708.43815-.02434.19474-.121708.31644-.07302.1704-.121709.26776-.04868.073-.04868.14605 0 .24342.219075.63289.07302.1217.267758.48683.219075.34078.486834.82762.267758.46249.559858.97366.316442.51118.5842.97367.2921.46249.486833.80327.194734.34079.243417.43815.121708.19474.170392.1704.04868-.0244.121708-.21908.365125-1.11972.754592-2.16641.413808-1.07103.851958-2.09338.486833-1.1684.778933-1.70392.316442-.53551.584201-.80327.43815-.43815.924983-.43815.316442 0 .535517.21907.243416.21908.365125.51118.121708.2921.170391.60854.07303.2921.07303.46249 0 .43815-.559858.48683-.194733.0244-.413808.1704-.194734.1217-.316442.38946-.365125.70591-.657225 1.36314-.2921.63288-.535517 1.2901-.243417.65723-.462492 1.36314-.219075.68156-.43815 1.48484-.170391.63288-.194733.92498-.02434.2921-.02434.55986 0 .17039.07303.2921.09737.12171.219075.2921.09737.14605.07302.38947-.02434.24341-.194733.46249-.170392.21907-.365125.36512-.170392.14605-.462492.14605-.389466 0-.73025-.21907-.340783-.24342-.486833-.43815-.121708-.14605-.340783-.5842-.194734-.43815-.778934-1.36313-.2921-.48684-.657225-1.07104-.340783-.60854-.657225-1.1684-.316441-.55986-.5842-.99801-.243416-.46249-.365125-.65722-.121708-.19473-.194733-.17039-.07302.0243-.14605.14605-.170392.34078-.389467.77893-.194733.43815-.389466.90064-.194734.46249-.365125.90064-.14605.41381-.219075.73025-.07302.34079-.09737.51118 0 .14605 0 .26776 0 .43815-.02434.73025-.02434.2921-.09737.53551-.04868.21908-.170392.41381-.121708.19474-.316442.43815-.267758.31644-.5842.43815-.316441.14605-.559858.14605-.3894667 0-.7302501-.26776-.3407833-.26775-.3407833-.90064 0-.19473.1217083-.5842.14605-.41381.2434167-.60854.3407834-.75459.7545917-1.70392.4138087-.97366.7789337-1.84996.389466-.8763.681566-1.55787.2921-.70591.389467-.92498.09737-.19474.04868-.31644-.02434-.14605-.14605-.26776-.170391-.17039-.267758-.31644-.09737-.1704-.02434-.43815.04868-.1704.194734-.38947.170391-.21908.413808-.38947.316442-.21907.316442-.41381 0-.0974.07302-.21907.09737-.12171.194733-.24342.2921-.2921.754592-.2921z"/><path d="m21.127675 312.5325q0-.38947.09737-.90064.121708-.53552.340783-1.11972.219075-.5842.511175-1.19274.316442-.60854.73025-1.19274.170392-.24342.486834-.60855.316441-.38946.681566-.7059.389467-.34079.803275-.5842.413809-.24342.803275-.24342.340784 0 .535517.14605.194733.12171.316442.34078.14605.19474.365125.21908.632883.0487 1.02235.43815.389466.36512.389466 1.07103 0 .65723-.2921 1.19274-.267758.51118-.632883.92499-.389467.38946-1.02235.77893-.608542.36512-1.4605.36512-.2921 0-.559858-.0487-.267759-.073-.43815-.14605-.219075-.0974-.316442.12171-.09737.31644-.09737.73025 0 .51117.2921.80327.316442.2921.73025.2921.73025 0 1.533525-.31644.827617-.31644 1.630892-.82761.827617-.53552 1.60655-1.21709.803275-.68156 1.509183-1.38747.170392-.17039.340784.12171.09737.17039 0 .51117-.07303.31644-.316442.63288-.657225.8763-1.533525 1.65524-.851958.75459-1.825625 1.33879-.949325.55986-1.971675.90064-.998008.34078-1.947333.34078-.43815 0-.851959-.1217-.413808-.12171-.754591-.41381-.316442-.2921-.511175-.75459-.194734-.4625-.194734-1.14406zm3.286125-2.48285q.2921 0 .608542-.17039.340783-.19474.608542-.4625.2921-.26775.462491-.55985.194734-.31645.194734-.5842 0-.26776-.170392-.38947-.14605-.14605-.389467-.14605-.194733 0-.43815.19473-.219075.19474-.462491.48684-.219075.2921-.43815.63288-.194734.34078-.2921.63288-.07303.21908 0 .2921.07302.073.316441.073z"/><path d="m36.31761 306.08196q.219075 0 .389466.1217.170392.12171.267759.2921.121708.14605.194733.34079.07303.17039.09737.31644.02434.14605.04868.26776.02434.12171.194733.24341.243417.14605.705909.24342.462491.0974 1.02235.0974.632883-.0243 1.095375-.073.486833-.0487.681566-.14605.340784-.17039.365125.073.02434.24341-.170391.43815-.413809.41381-1.119717.75459-.705908.31644-1.630892.31644-.511175 0-.778933-.0243-.267758-.0243-.413808-.073-.243417-.073-.365125.1704-.681567 1.21708-1.338792 2.06904-.632883.82761-1.241425 1.41181-.608542.5842-1.192742.97367-.5842.36513-1.119717.63288-.535516.26776-.900641.34079-.365125.073-.681567.073-.121708 0-.340783-.0974-.219075-.0974-.413809-.31645-.170391-.21907-.2921-.5842-.121708-.38946-.07303-.97366.04868-.34079.219075-1.11972.170392-.80327.657225-2.16641.04868-.12171.04868-.24341.02434-.12171.04868-.24342 0-.12171.02434-.24342.02434-.12171.07303-.24341.14605-.38947.316441-.82762.194734-.43815.413809-.80328.219075-.36512.43815-.5842.243416-.24341.486833-.24341.316442 0 .5842.43815.267758.41381.316442 1.02235.02434.43815-.09737.80327-.09737.34079-.413808.90064-.316442.55986-.511175 1.09538-.170392.53552-.2921 1.09537-.14605.63289-.09737.94933.04868.31644.243417.31644.219075 0 .705908-.36512.778934-.65723 1.4605-1.55787.681567-.92498 1.1684-2.06904.04868-.12171.02434-.21908 0-.12171-.121708-.21907-.365125-.2921-.365125-.92499 0-.26775.170391-.51117.170392-.26776.413809-.46249.243416-.21908.535516-.34079.2921-.1217.559859-.1217z"/><path d="m38.66429 312.5325q0-.38947.09737-.90064.121709-.53552.340784-1.11972.219075-.5842.511175-1.19274.316441-.60854.73025-1.19274.170391-.24342.486833-.60855.316442-.38946.681567-.7059.389466-.34079.803275-.5842.413808-.24342.803275-.24342.340783 0 .535516.14605.194734.12171.316442.34078.14605.19474.365125.21908.632884.0487 1.02235.43815.389467.36512.389467 1.07103 0 .65723-.2921 1.19274-.267758.51118-.632883.92499-.389467.38946-1.022351.77893-.608541.36512-1.4605.36512-.2921 0-.559858-.0487-.267758-.073-.43815-.14605-.219075-.0974-.316442.12171-.09737.31644-.09737.73025 0 .51117.2921.80327.316441.2921.73025.2921.73025 0 1.533525-.31644.827616-.31644 1.630892-.82761.827616-.53552 1.60655-1.21709.803275-.68156 1.509183-1.38747.170392-.17039.340783.12171.09737.17039 0 .51117-.07303.31644-.316441.63288-.657225.8763-1.533525 1.65524-.851959.75459-1.825625 1.33879-.949326.55986-1.971676.90064-.998008.34078-1.947333.34078-.43815 0-.851958-.1217-.413809-.12171-.754592-.41381-.316442-.2921-.511175-.75459-.194733-.4625-.194733-1.14406zm3.286125-2.48285q.2921 0 .608541-.17039.340784-.19474.608542-.4625.2921-.26775.462492-.55985.194733-.31645.194733-.5842 0-.26776-.170392-.38947-.14605-.14605-.389466-.14605-.194734 0-.43815.19473-.219075.19474-.462492.48684-.219075.2921-.43815.63288-.194733.34078-.2921.63288-.07302.21908 0 .2921.07303.073.316442.073z"/><path d="m53.982432 306.03327q.413808 0 .705908.2921.2921.26776.219075.65723-.04868.2921-.219075.60854-.14605.31644-.340783.51117-.43815.51118-.754592.31645-.121708-.073-.2921-.12171-.14605-.073-.2921-.073-.194733 0-.535517.26776-.316441.26776-.803275.8763-.43815.55986-.900641 1.24143-.43815.65722-.827617 1.31445-.365125.65722-.657225 1.19274-.267758.53551-.389467.82761-.365125.94933-.998008.94933-.559859 0-1.046692-.55986-.194733-.21907-.243417-.43815-.04868-.24342.07303-.60854.219075-.5842.365125-1.26577.170392-.68156.267759-1.33879.121708-.65722.194733-1.26577.07303-.60854.121708-1.07103.09737-.82762.267759-1.1684.170391-.34078.511175-.60854.243417-.19473.535517-.36513.2921-.19473.559858-.19473.340783 0 .5842.31644.243417.2921.243417.63289 0 .17039-.121709.38946-.121708.19474-.243416.41381-.09737.17039-.219075.48683-.09737.2921-.219075.65723-.09737.34078-.194734.70591-.07303.36512-.121708.65722-.04868.19474.04868.19474.09737-.0243.219075-.19474.09737-.14605.2921-.43815.219075-.31644.486834-.68156.267758-.38947.559858-.77894.316442-.41381.632883-.75459.559859-.60854 1.1684-1.09537.608542-.48684 1.363134-.48684z"/><path d="m69.590007 306.54445q0 .41381-.194733.85196-.170392.43815-.462492.85195-.2921.38947-.657225.73025-.340783.34079-.681567.55986-.194733.14605-.486833.31644-.2921.1704-.632883.34079-.340784.17039-.705909.31644-.365125.14605-.705908.24342-.219075.0487-.413808.073-.194734.0243-.340784.0243-.14605 0-.316441-.0974-.14605-.12171-.14605-.31645 0-.17039.07303-.36512.09737-.19473.219075-.31644.14605-.19474.462491-.41381.316442-.24342.705909-.51118.316441-.21907.681566-.4138.365125-.21908.681567-.4625.316442-.24341.535517-.53551.219075-.31644.219075-.68157 0-.38947-.219075-.65722-.219075-.2921-.535517-.4625-.2921-.17039-.632883-.24341-.316442-.073-.535517-.073-.316442 0-.43815.26776-.219075.48683-.43815 1.09538-.219075.5842-.657225 1.77694-.389467 1.07103-.73025 2.09338-.340783 1.02235-.608542 2.0447-.121708.2921-.04868.41381.07302.0974.340783.17039.340784.0974.900642.17039.5842.0487.998008.0974.413809.0487.389467.2921-.02434.24342-.365125.48683-.267758.19474-.900642.36513-.608541.17039-1.387475.17039-.194733 0-.413808.0243-.194733.0487-.340783.21908-.121709.1217-.365125.21907-.219075.0974-.486834.0974-.608541 0-1.02235-.2921-.413808-.26776-.608541-.68157-.2921-.65722.681566-1.04669.194734-.073.316442-.17039.14605-.12171.243417-.31644.14605-.60855.413808-1.48485.267758-.8763.559858-1.80128.2921-.94932.5842-1.84997.2921-.92498.511175-1.63089.09737-.26776.07303-.34078-.02434-.0974-.219075.0243-.267758.14605-.657225.34078-.365125.19474-.486833.19474-.14605 0-.340783-.0487-.194734-.0487-.340784-.21907-.121708-.12171-.14605-.34078 0-.24342.316442-.51118.413808-.36512.998008-.65722.608542-.2921 1.144059-.48684.170391-.073.219075-.12171.07302-.0487.121708-.17039.09737-.24341.316442-.55986.243416-.31644.5842-.31644.194733 0 .511175.17039.340783.14605.754591.55986.121709.12171.194734.17039.07303.0244.219075.0244.316441 0 .778933.1217.462492.12171.924983.34079.486834.21907.900642.51117.43815.2921.705908.63289.219075.2921.2921.63288.09737.34078.09737.55986z"/><path d="m69.096706 313.38446q0-.26776.07303-.7546.07303-.51117.267759-1.31445.219075-.80327.5842-1.94733.389466-1.14406 1.02235-2.70192 1.119716-2.7993 1.776941-4.16243.657225-1.38747.924984-1.72826.2921-.36512.632883-.36512.267758 0 .43815.17039.608542.51117.5842.94932-.02434.41381-.413808 1.1684-.681567 1.31445-1.217084 2.58022-.535516 1.24143-.973666 2.36114-.413809 1.11972-.73025 2.06904-.2921.94933-.511175 1.6309-.2921.94932-.194734 1.2901.09737.31645.389467.31645.2921 0 .778933-.24342.486834-.26776 1.095375-.75459.632884-.48684 1.31445-1.1684.705909-.70591 1.411817-1.55787.14605-.19473.243417-.12171.09737.073.09737.26776 0 .53552-.267758 1.07103-.267758.53552-.949325 1.31445-.657225.77894-1.533525 1.48485-.851958.7059-1.825625 1.21708-.949325.51117-1.776942.51117-.535516 0-.900641-.46249-.340784-.46249-.340784-1.11971z"/><path d="m80.430417 306.1063q.267759 0 .43815.19473.194734.17039.316442.31644.07303.21908.316442.0487.2921-.26776.5842-.073.511175.2921.511175.51118.02434.21907-.02434.38946-.486833 1.09538-.778933 2.21509-.2921 1.09538-.2921 2.19075 0 .63289.170391.92499.170392.26776.43815.26776.413809 0 1.533525-.94933 1.144059-.97367 2.507192-2.89666.121708-.19473.267758-.17039.170392.0243.170392.24342 0 .55986-.365125 1.24142-.413808.80328-1.02235 1.58221-.608542.77893-1.290108 1.41182-.681567.63288-1.363134 1.02235-.681566.38946-1.265766.38946-.681567 0-1.144059-.51117-.43815-.51118-.511175-1.26577-.04868-.26776-.04868-.46249 0-.19473 0-.38947-.02434-.26775-.219075-.073-.121709.12171-.389467.38947-.267758.26775-.608542.55985-.316441.2921-.681566.5842-.340784.2921-.5842.4625-.949325.7059-1.679575.7059-.121709 0-.340784-.0974-.194733-.0974-.389466-.26776-.194734-.19473-.365125-.46249-.14605-.26776-.14605-.60854 0-.36513.170391-.99801.170392-.63289.754592-1.7526.486833-.97367 1.192742-1.82563.705908-.8763 1.484841-1.58221.511175-.43815.949325-.68156.43815-.26776.778934-.38947.340783-.12171.5842-.14605.243416-.0487.340783-.0487zm-.900642 1.82562q-.170391 0-.486833.24342-.2921.24342-.827617.8763-.316441.36512-.608541.80327-.267759.41381-.486834.82762-.219075.38947-.365125.75459-.14605.36513-.194733.60854-.04868.24342-.02434.4625.04868.19473.194734.19473.14605 0 .389466-.14605.267759-.17039.535517-.41381.316442-.26776.608542-.63288.316441-.38947.8763-1.02235.267758-.2921.511175-.70591.243416-.41381.316441-.53552.121709-.19473.14605-.38946.04868-.21908 0-.41381-.04868-.17039-.194733-.34079-.14605-.17039-.389467-.17039z"/><path d="m85.579073 308.88125q.02434-.38947-.02434-.55986-.02434-.17039-.07303-.2921-.04868-.12171-.02434-.31644.04868-.21908.219075-.51118.219075-.38946.535517-.77893.340783-.41381.754591-.41381.243417 0 .413809.24342.170391.21907.243416.5842.09737.36512.121709.77893.02434.41381.02434.77893 0 .36513-.04868.85196-.04868.46249-.121708.97367-.04868.48683-.09737.94932-.04868.4625-.07303.7546-.04868.46249.04868.68156.09737.21908.219075.21908.07303 0 .632884-.68157.559858-.70591 1.557866-2.40982.267759-.4625.316442-.73025.04868-.26776 0-.48684-.04868-.19473-.02434-.43815.02434-.26776.194734-.55986.170391-.2921.340783-.55985.170392-.26776.43815-.60855.194733-.19473.340783-.31644.170392-.14605.43815-.14605.09737 0 .243417.12171.170392.0974.316442.2921.170391.17039.2921.38947.121708.21907.121708.46249 0 .21907-.09737.5842-.07303.34078-.243416.75459-.170392.41381-.511175 1.04669-.340784.63289-.754592 1.33879-.413808.70591-.900642 1.41182-.462491.68157-.8763 1.19274-1.971675 2.43417-3.2131 3.91901-1.217083 1.48484-1.411816 1.80128-.340784.4625-.267759.55986.365125.12171.365125.46249 0 .26776-.243416.51118-.219075.24342-.535517.46249-.2921.21908-.608542.36513-.316441.17039-.511175.26775-.365125.1704-.535517.36513-.194733.19473-.413808.53552-.219075.34078-.511175.46249-.2921.12171-.632883.12171-.389467 0-.657225-.26776-.2921-.24342-.170392-.5842.09737-.34079.267758-.63289.14605-.2921.389467-.60854.365125-.48683.632883-.65722.267759-.17039.413809-.21908.340783-.12171.535516-.51117.14605-.31644.43815-.73025.267759-.41381.851959-1.24143.43815-.55986 1.046692-1.36313.632883-.80328 1.4605-1.80128.14605-.1704.07303-.1704h-.170385q-.340783 0-.511175-.53551-.170392-.55986-.121708-1.80129z"/><path d="m93.063755 312.5325q0-.38947.09737-.90064.121708-.53552.340783-1.11972.219075-.5842.511175-1.19274.316442-.60854.73025-1.19274.170392-.24342.486834-.60855.316441-.38946.681566-.7059.389467-.34079.803275-.5842.413809-.24342.803275-.24342.340784 0 .535517.14605.194733.12171.316442.34078.14605.19474.365125.21908.632883.0487 1.02235.43815.389463.36512.389463 1.07103 0 .65723-.292097 1.19274-.267758.51118-.632883.92499-.389467.38946-1.02235.77893-.608542.36512-1.4605.36512-.2921 0-.559858-.0487-.267759-.073-.43815-.14605-.219075-.0974-.316442.12171-.09737.31644-.09737.73025 0 .51117.2921.80327.316442.2921.73025.2921.73025 0 1.533525-.31644.827617-.31644 1.630892-.82761.827613-.53552 1.606553-1.21709.80327-.68156 1.50918-1.38747.17039-.17039.34078.12171.0974.17039 0 .51117-.073.31644-.31644.63288-.65722.8763-1.53352 1.65524-.85196.75459-1.825628 1.33879-.949325.55986-1.971675.90064-.998008.34078-1.947333.34078-.43815 0-.851959-.1217-.413808-.12171-.754591-.41381-.316442-.2921-.511175-.75459-.194734-.4625-.194734-1.14406zm3.286125-2.48285q.2921 0 .608542-.17039.340783-.19474.608542-.4625.2921-.26775.462491-.55985.194734-.31645.194734-.5842 0-.26776-.170392-.38947-.14605-.14605-.389467-.14605-.194733 0-.43815.19473-.219075.19474-.462491.48684-.219075.2921-.43815.63288-.194734.34078-.2921.63288-.07303.21908 0 .2921.07303.073.316441.073z"/><path d="m106.86396 306.44708q.31644 0 .60854.073.0974.0243.12171.0243.0487-.0243.0974-.14605.38947-.94933.75459-1.87431.38947-.92498.70591-1.70392.34078-.80327.5842-1.36313.24342-.5842.36512-.80328.14605-.31644.26776-.4138.14605-.0974.26776-.0974.19473 0 .38947.0974.21907.0974.51117.43815.26776.31644.26776.60854.0243.26776-.17039.73025-.26776.63288-.70591 1.58221-.43815.92498-1.04669 2.58021-.26776.73025-.51118 1.53353-.21907.80327-.38946 1.55786-.17039.7546-.2921 1.41182-.12171.65723-.14605 1.11972-.12171 1.21708.46249 1.21708.31644 0 .85196-.41381.53551-.41381 1.09537-.99801.55986-.5842 1.07104-1.21708.53551-.65722.82761-1.11972.14605-.21907.2921-.17039.14605.0243.14605.2921 0 .26776-.0487.5842-.0487.31644-.21908.65723-.2921.5842-.85195 1.31445-.55986.73025-1.26577 1.38747-.70591.65723-1.48484 1.09538-.77894.43815-1.48484.43815-.36513 0-.63289-.17039-.26776-.1704-.43815-.43815-.17039-.2921-.24341-.60855-.073-.34078-.0487-.65722.0243-.41381.0487-.65723.0243-.26775.073-.48683.0243-.14605-.0487-.14605-.0487-.0243-.14605.0974-.21908.26776-.53552.5842-.31644.31644-.65722.63288-.31645.2921-.63289.55986-.31644.24342-.53551.38947-.80328.55985-1.48485.80327-.68156.24342-1.09537.24342-.41381 0-.75459-.31644-.34079-.34079-.34079-1.26577 0-.38947.12171-.92498.12171-.55986.41381-1.21709.2921-.65722.75459-1.36313.46249-.73025 1.14406-1.48484.99801-1.09538 1.97168-1.53353.97366-.46249 1.99601-.46249zm-.48683 1.41182q-.34078 0-1.04669.5842-.68157.5842-1.38748 1.58221-.77893 1.09537-.97367 1.60655-.19473.48683-.19473.75459 0 .41381.31644.41381.21908 0 .63289-.24342.43815-.26776 1.02235-.82762.31644-.31644.63288-.75459.34078-.43815.63288-.8763.2921-.43815.51118-.77893.21907-.36513.26776-.51118.12171-.24341.0974-.38946 0-.1704-.073-.2921-.14605-.26776-.43815-.26776z"/></g></g></svg>