<svg height="31.0688mm" viewBox="0 0 312.94241 31.0688" width="312.94241mm" xmlns="http://www.w3.org/2000/svg"><g clip-rule="evenodd" fill-rule="evenodd" stroke-linejoin="round" stroke-miterlimit="1.41421" transform="matrix(.75371292 0 0 .75371292 23.563356 0)"><path d="m315.855 3.258c0-1.798-1.46-3.258-3.259-3.258h-272.517c-1.799 0-3.259 1.46-3.259 3.258v34.705c0 1.798 1.46 3.258 3.259 3.258h272.517c1.799 0 3.259-1.46 3.259-3.258v-34.705z" fill="#7a7b7d"/><g fill="#a5aeb7" fill-rule="nonzero"><g><path d="m238.813 7.2h7.064v14.654h-4.466v-10.832h-1.159l-4.326 3.65-2.47-2.877z"/><path d="m254.273 12.654h-4.327c0-1.181.047-2.079.14-2.695.172-1.088.665-1.832 1.481-2.233.544-.264 1.307-.449 2.287-.553.981-.103 2.462-.155 4.445-.155 2.984 0 4.895.034 5.732.102.838.068 1.496.245 1.976.531.529.315.896.762 1.1 1.342s.306 1.467.306 2.663c0 .858-.048 1.537-.145 2.034-.096.497-.263.918-.499 1.261-.315.466-.734.791-1.256.977-.888.315-1.965.512-3.231.591-3.064.179-5.043.309-5.937.392-.895.082-1.439.188-1.632.316-.179.122-.294.253-.344.392-.05.14-.086.428-.107.864h13.387v3.371h-17.488c-.029-.579-.043-1.138-.043-1.674 0-1.682.054-2.885.161-3.607.215-1.375 1.006-2.233 2.373-2.577.529-.129 1.014-.218 1.454-.268.44-.051 1.723-.158 3.849-.322 2.061-.158 3.285-.258 3.672-.301.386-.043.708-.107.966-.193s.429-.21.515-.371.129-.438.129-.832c0-.422-.048-.726-.145-.912s-.27-.319-.521-.397c-.315-.108-1.435-.161-3.36-.161-1.646 0-2.795.026-3.446.08s-1.056.152-1.213.295c-.122.122-.199.29-.231.505s-.048.726-.048 1.535z"/><path d="m272.91 14.361c-.752-.05-1.306-.19-1.664-.419-.68-.451-1.02-1.395-1.02-2.834 0-1.245.229-2.154.687-2.727.286-.35.666-.615 1.138-.794s1.152-.308 2.04-.387c1.209-.114 2.734-.171 4.573-.171 3.493 0 5.708.193 6.645.579.688.279 1.167.72 1.439 1.321.236.544.354 1.27.354 2.179 0 1.16-.193 1.974-.579 2.442-.387.469-1.088.739-2.105.811.859.15 1.443.329 1.75.537.401.265.686.637.854 1.116.168.48.252 1.149.252 2.008 0 1.209-.204 2.086-.612 2.63-.293.387-.708.678-1.245.875s-1.292.335-2.265.413c-.716.058-2.212.086-4.488.086-2.304 0-3.865-.03-4.681-.091s-1.506-.199-2.072-.413c-.672-.258-1.15-.652-1.433-1.181-.283-.53-.424-1.303-.424-2.319 0-.916.099-1.621.295-2.115.197-.494.528-.866.993-1.117.294-.157.816-.3 1.568-.429zm5.303-4.047c-1.667 0-2.707.071-3.118.214-.412.144-.618.501-.618 1.074 0 .601.19.961.569 1.079.38.118 1.532.177 3.457.177 1.703 0 2.727-.009 3.07-.027.344-.018.627-.077.849-.177.286-.129.429-.483.429-1.063 0-.343-.064-.603-.193-.778s-.337-.288-.623-.338c-.53-.101-1.803-.154-3.822-.161zm.451 5.69c-2.183 0-3.442.057-3.779.171-.215.072-.365.199-.451.381-.086.183-.129.464-.129.843 0 .401.051.684.151.848.1.165.297.283.59.355.329.085 1.392.128 3.189.128 1.954 0 3.249-.043 3.886-.128.344-.051.58-.167.709-.349.128-.183.193-.5.193-.95 0-.365-.047-.63-.14-.795-.093-.164-.265-.279-.515-.343-.236-.072-1.471-.126-3.704-.161z"/></g><g><path d="m63.782 34.401v-7.844h4.814c1.186 0 1.995.171 2.426.512.432.341.647.979.647 1.913 0 .897-.224 1.508-.674 1.833-.449.326-1.292.489-2.53.489l-.462.005h-3.035v3.092zm1.186-3.839h2.812c1.176 0 1.929-.09 2.26-.27.332-.18.497-.593.497-1.241 0-.758-.112-1.238-.335-1.439s-.753-.302-1.59-.302l-.455-.006h-3.189z"/><path d="m78.266 27.304v2.672h5.338v.747h-5.338v2.931h5.569v.747h-6.755v-7.844h6.755v.747z"/><path d="m89.777 34.401v-7.844h5.007c1.13 0 1.926.167 2.388.5.462.334.693.912.693 1.736 0 .724-.126 1.228-.377 1.514-.252.285-.732.47-1.441.554v.017c1.115.062 1.672.567 1.672 1.517v2.006h-1.186v-1.805c0-.915-.532-1.373-1.595-1.373h-.393-3.581v3.178zm1.187-3.925h3.427c.904 0 1.52-.102 1.849-.307s.493-.591.493-1.158c0-.709-.122-1.17-.366-1.385-.244-.214-.766-.322-1.568-.322h-3.835z"/><path d="m111.233 28.683h-1.179c0-.632-.141-1.033-.424-1.203-.282-.171-.947-.256-1.995-.256-1.242 0-2.043.081-2.403.244-.359.163-.539.526-.539 1.089 0 .632.141 1.017.424 1.155.282.138 1.122.232 2.518.281 1.639.054 2.68.209 3.124.466s.666.831.666 1.724c0 .965-.255 1.589-.766 1.873-.511.283-1.64.425-3.386.425-1.514 0-2.522-.143-3.023-.428s-.751-.861-.751-1.727l-.008-.35h1.179v.195c0 .701.144 1.137.431 1.307.288.171 1.025.256 2.211.256 1.361 0 2.198-.085 2.511-.256.313-.17.47-.625.47-1.364 0-.479-.107-.798-.32-.957s-.658-.254-1.336-.284l-1.233-.046-1.17-.046c-1.782-.092-2.673-.782-2.673-2.069 0-.892.259-1.488.778-1.787.518-.299 1.553-.448 3.104-.448 1.571 0 2.596.139 3.073.417.478.277.717.874.717 1.789z"/><path d="m121.111 26.477c1.987 0 3.23.216 3.728.649s.747 1.515.747 3.247c0 1.865-.239 3.016-.716 3.453-.478.437-1.731.655-3.759.655-2.018 0-3.27-.216-3.755-.649-.486-.433-.728-1.552-.728-3.356v-.551l.015-.742c0-1.042.315-1.753.944-2.134s1.803-.572 3.524-.572zm-.008.747c-1.664 0-2.637.138-2.919.414-.283.275-.424 1.222-.424 2.838 0 1.621.141 2.569.424 2.844.282.276 1.255.414 2.919.414 1.669 0 2.645-.138 2.927-.414.282-.275.424-1.223.424-2.844v-.511l-.008-.741c0-.866-.195-1.416-.585-1.65-.391-.233-1.31-.35-2.758-.35z"/><path d="m140.34 26.557v7.844h-1.949l-4.406-5.338-.716-.88-.355-.436-.354-.437h-.031l.008.293.008.299v6.499h-1.186v-7.844h1.941l3.843 4.678 1.002 1.229.5.609.493.615h.031l-.008-.293-.007-.299v-.586-5.953z"/><path d="m153.222 32.74h-5.323l-.808 1.661h-1.256l3.851-7.844h1.664l3.929 7.844h-1.241zm-.347-.666-2.334-4.793-2.303 4.793z"/><path d="m161.96 26.557v7.022h5.407v.822h-6.593v-7.844z"/><path d="m188.094 31.78h1.179v.299c0 1.069-.244 1.737-.732 2.003s-1.715.399-3.682.399c-1.761 0-2.881-.235-3.358-.704-.478-.469-.717-1.573-.717-3.312 0-1.36.054-2.215.162-2.566.108-.35.416-.664.924-.939.596-.322 1.882-.483 3.859-.483 1.341 0 2.243.155 2.708.465.465.311.697.91.697 1.799l.008.212h-1.179l-.007-.241c0-.632-.138-1.038-.413-1.218-.274-.18-.894-.27-1.86-.27-1.694 0-2.729.105-3.104.316s-.562.795-.562 1.752c0 2.203.126 3.494.377 3.873.252.38 1.112.569 2.581.569 1.396 0 2.268-.082 2.615-.247.346-.165.52-.578.52-1.241z"/><path d="m198.874 26.477c1.987 0 3.229.216 3.728.649.498.433.747 1.515.747 3.247 0 1.865-.239 3.016-.717 3.453-.477.437-1.73.655-3.758.655-2.019 0-3.27-.216-3.755-.649-.486-.433-.728-1.552-.728-3.356v-.551l.015-.742c0-1.042.315-1.753.944-2.134s1.803-.572 3.524-.572zm-.008.747c-1.664 0-2.637.138-2.919.414-.283.275-.424 1.222-.424 2.838 0 1.621.141 2.569.424 2.844.282.276 1.255.414 2.919.414 1.669 0 2.644-.138 2.927-.414.282-.275.423-1.223.423-2.844v-.511l-.007-.741c0-.866-.195-1.416-.586-1.65-.39-.233-1.309-.35-2.757-.35z"/><path d="m220.66 26.557v7.844h-1.186v-6.275-.471l.007-.236.008-.235h-.031l-.092.184c-.046.092-.077.151-.093.178l-.2.367-3.582 6.488h-1.186l-3.589-6.413-.208-.362-.093-.184c-.025-.042-.056-.101-.092-.178h-.031l.008.213.008.218v6.706h-1.187v-7.844h2.057l2.804 5.074.447.822.223.408.216.408h.03l.216-.408c.108-.196.18-.332.216-.408l.454-.816 2.789-5.08z"/><path d="m227.072 34.401v-7.844h4.814c1.186 0 1.995.171 2.426.512.432.341.647.979.647 1.913 0 .897-.224 1.508-.674 1.833-.449.326-1.292.489-2.53.489l-.462.005h-3.035v3.092zm1.186-3.839h2.812c1.175 0 1.929-.09 2.26-.27s.497-.593.497-1.241c0-.758-.112-1.238-.335-1.439s-.754-.302-1.591-.302l-.454-.006h-3.189z"/><path d="m247.942 26.557h1.186v5.494c0 .996-.268 1.65-.805 1.962s-1.663.468-3.378.468c-1.607 0-2.699-.15-3.277-.451s-.867-.872-.867-1.715v-.264-5.494h1.187v5.494c0 .743.161 1.209.485 1.399.323.189 1.119.284 2.388.284 1.376 0 2.233-.093 2.572-.279.339-.185.509-.654.509-1.404z"/><path d="m259.206 27.379v7.022h-1.186v-7.022h-3.428v-.822h8.011v.822z"/><path d="m268.838 27.304v2.672h5.338v.747h-5.338v2.931h5.569v.747h-6.755v-7.844h6.755v.747z"/><path d="m280.349 34.401v-7.844h5.007c1.129 0 1.925.167 2.388.5.462.334.693.912.693 1.736 0 .724-.126 1.228-.378 1.514-.251.285-.731.47-1.44.554v.017c1.114.062 1.671.567 1.671 1.517v2.006h-1.186v-1.805c0-.915-.531-1.373-1.594-1.373h-.393-3.582v3.178zm1.186-3.925h3.428c.904 0 1.52-.102 1.849-.307.328-.205.493-.591.493-1.158 0-.709-.122-1.17-.366-1.385-.244-.214-.767-.322-1.568-.322h-3.836z"/></g><path d="m198.051 11.186h-3.534v10.137h3.687v-5.298c0-1.382.846-2.074 2.383-2.074 1.535 0 1.92.461 1.996 1.765h3.457c0-3.456-.461-4.762-4.147-4.762-2.229 0-2.997.462-3.841 2.151zm16.974 8.142c-3.532 0-4.07-.308-4.07-2.075h9.68c-.154-4.913-.154-6.067-6.683-6.067-5.533 0-6.762.999-6.762 5.376 0 4.072 1.615 5.07 6.07 5.147 4.994 0 7.375-.231 7.375-3.533h-3.611c-.155.767-.461 1.152-1.999 1.152zm-4.146-4.224c.153-1.076.46-1.46 2.917-1.46 2.691 0 3.073.154 3.227 1.46zm-137.346.384h3.687c-.307-3.458-1.306-4.302-6.451-4.302-5.838 0-7.144.92-7.144 5.223 0 4.301 1.229 5.299 6.683 5.299 5.76 0 6.913-.768 6.913-4.378h-3.687c0 .999-.383 1.461-3.226 1.461-2.459 0-2.996-.614-2.996-2.612 0-1.921.537-1.921 3.458-1.921 2.149 0 2.532.231 2.763 1.23zm85.648.612c0-4.147-1.228-4.99-7.144-4.99-6.375 0-7.142 1.075-7.142 5.375 0 4.302 1.074 5.223 7.142 5.223 6.454.001 7.144-1.073 7.144-5.608zm-10.523.233c0-2.075.461-2.304 3.15-2.304 2.995 0 3.532.076 3.532 2.304 0 2.074-.384 2.459-3.226 2.459-3.072 0-3.456-.309-3.456-2.459zm43.629-.233c0-4.147-1.152-4.99-7.064-4.99-6.3 0-7.068.996-7.068 5.299 0 4.378 1.075 5.299 7.068 5.299 6.45.001 7.064-1.073 7.064-5.608zm-10.445.233c0-2.075.46-2.304 3.149-2.304 2.996 0 3.533.076 3.533 2.304 0 2.074-.384 2.459-3.225 2.459-3.072 0-3.457-.309-3.457-2.459zm-88.26-.233c0-4.147-1.152-4.99-7.066-4.99-6.376 0-7.145.996-7.145 5.299 0 4.378 1.077 5.299 7.145 5.299 6.452.001 7.066-1.073 7.066-5.608zm-10.371.233c0-2.075.461-2.304 3.074-2.304 2.995 0 3.533.076 3.533 2.304 0 2.074-.386 2.459-3.227 2.459-2.997 0-3.38-.309-3.38-2.459zm88.798-9.45v5.915c-.844-1.152-1.612-1.765-4.684-1.765-4.916 0-5.839 1.306-5.839 5.299 0 4.072 1.307 5.222 6.069 5.222 2.996 0 3.917-.767 4.609-2.073v1.84h3.687v-14.439zm-2.688 7.069c2.073 0 2.766.306 2.766 1.918 0 2.46-.155 2.692-3.072 2.692-2.92 0-3.688-.079-3.688-2.152 0-2.382.922-2.458 3.994-2.458zm-69.902-2.766h-3.455v10.137h3.686v-5.223c0-1.535.768-2.072 2.843-2.072 1.921 0 2.459.691 2.459 2.611v4.684h3.763v-5.375c0-1.459 1.152-1.92 2.918-1.92 1.69 0 2.458.461 2.458 1.92v5.375h3.687v-5.991c0-2.993-1.844-4.378-5.223-4.378-2.919 0-3.995 1.076-4.38 2.228-.768-1.306-1.843-2.228-4.762-2.228-2.765 0-3.533.922-3.995 2.612zm24.812 0h-3.457v10.137h3.687v-5.223c0-1.535.921-2.072 2.764-2.072 1.921 0 2.458.615 2.458 2.611v4.684h3.766v-5.375c0-1.459 1.075-1.92 2.842-1.92 1.69 0 2.534.537 2.534 1.92v5.375h3.687v-5.991c0-2.993-1.843-4.378-5.222-4.378-2.919 0-3.919.999-4.378 2.228-.769-1.306-1.845-2.228-4.764-2.228-2.687 0-3.379.922-3.916 2.612z"/></g></g></svg>