<svg height="31.095339mm" viewBox="0 0 313.20969 31.095339" width="313.20969mm" xmlns="http://www.w3.org/2000/svg"><g stroke-width=".639044" transform="matrix(1.5648382 0 0 1.5648382 -1310.6971 104.513631)"><path d="m847.5286-66.788778h180.2829c5.4652 0 9.9359 4.47072 9.9359 9.9354 0 5.46515-4.4707 9.93588-9.9359 9.93588h-180.2829c-5.46516 0-9.93587-4.47073-9.93587-9.93588 0-5.46421 4.47071-9.9354 9.93587-9.9354z" fill="#5b5652" fill-rule="evenodd" stroke-width=".16908"/><g stroke-width=".336623"><path d="m951.31817748696-61.86462741088h1.29029583092v10.02296643889h-1.29029583092z" fill="#2fabc5"/><path d="m954.10495040222-61.86462741088h1.29029583092v10.02296643889h-1.29029583092z" fill="#2c9fb9"/><path d="m956.89172331749-61.86462741088h1.29029583092v10.02296643889h-1.29029583092z" fill="#2da6c0"/><path d="m959.67853420072-61.86462741088h1.29029583092v10.02296643889h-1.29029583092z" fill="#269857"/><path d="m962.46536406794-61.86462741088h1.29029583092v10.02296643889h-1.29029583092z" fill="#319b58"/><path d="m965.25219393515-61.86462741088h1.29029583092v10.02296643889h-1.29029583092z" fill="#309a57"/><path d="m968.03896685042-61.86462741088h1.29029583092v10.02296643889h-1.29029583092z" fill="#34a35c"/><path d="m970.8257207817-61.86462741088h1.29029583092v10.02296643889h-1.29029583092z" fill="#68b057"/><path d="m973.61255064891-61.86462741088h1.29029583092v10.02296643889h-1.29029583092z" fill="#6cae55"/><path d="m976.39924762824-61.86462741088h1.29029583092v10.02296643889h-1.29029583092z" fill="#bac441"/><path d="m979.18607749546-61.86462741088h1.29029583092v10.02296643889h-1.29029583092z" fill="#e0d640"/><path d="m981.97285041072-61.86462741088h1.29029583092v10.02296643889h-1.29029583092z" fill="#dccc3d"/><path d="m984.75973722989-61.86462741088h1.29029583092v10.02296643889h-1.29029583092z" fill="#ddce45"/><path d="m987.54649116117-61.86462741088h1.29029583092v10.02296643889h-1.29029583092z" fill="#dc9f2d"/><path d="m990.33332102838-61.86462741088h1.29029583092v10.02296643889h-1.29029583092z" fill="#e98f34"/><path d="m993.12009394365-61.86462741088h1.29029583092v10.02296643889h-1.29029583092z" fill="#e37c20"/><path d="m995.90679092298-61.86462741088h1.29029583092v10.02296643889h-1.29029583092z" fill="#dd561d"/><path d="m998.69362079019-61.86462741088h1.29029583092v10.02296643889h-1.29029583092z" fill="#d65424"/><path d="m1001.48039370546-61.86462741088h1.29029583092v10.02296643889h-1.29029583092z" fill="#e13e28"/><path d="m1004.26726154064-61.86462741088h1.29029583092v10.02296643889h-1.29029583092z" fill="#dd261a"/><path d="m1007.0540344559-61.86462741088h1.29029583092v10.02296643889h-1.29029583092z" fill="#e22821"/><path d="m1009.84086432312-61.86462741088h1.29029583092v10.02296643889h-1.29029583092z" fill="#e11613"/><path d="m1012.6276182544-61.86462741088h1.29029583092v10.02296643889h-1.29029583092z" fill="#e11413"/></g><g fill="#fff"><g stroke-width=".639044" transform="translate(172.98685 -192.59026)"><path d="m851.7787 140.59795c-1.2635-.0901-1.9293-.30384-2.39468-.76864-.36268-.36222-.5504-.83214-.6403-1.60276-.0659-.56498-.10588-2.75046-.0697-3.81524.0354-1.04137.0801-1.44654.20704-1.8746.27242-.91857.92127-1.34893 2.33685-1.54996.70507-.10007 1.14634-.12097 2.93563-.13858 3.86214-.0379 4.96829.14759 5.49199.92181.20537.30356.30224.76601.32136 1.534l.007.33849-1.35159-.008-1.35157-.008-.0294-.0989c-.12278-.41397-.16945-.43332-1.16407-.48149-.89225-.0432-3.35296-.021-3.68988.0331-.38875.0626-.56756.12755-.69108.25102-.17997.17998-.22161.3667-.2405 1.07857-.008.33955-.007.64061.002.66898.0159.0413.0613.0191.22657-.11011.40339-.31571.85601-.47967 1.57803-.57161.47367-.0603 3.42743-.0612 3.93927-.001 1.40447.16461 2.03719.48376 2.40056 1.21088.20405.40833.28615.94153.28694 1.86362.001 1.29681-.17491 1.96413-.63983 2.42546-.46575.46214-1.05376.62472-2.55894.70747-.70971.0391-4.35723.0368-4.91468-.002zm3.82622-2.14124c.90957-.0373 1.08232-.0702 1.24423-.23719.16144-.16658.20709-.33925.20709-.78356 0-.34057-.008-.40367-.0764-.53104-.1016-.19218-.28804-.2858-.70427-.35367-.42624-.0694-3.69979-.0817-4.01637-.0155-.40103.0845-.62853.26938-.71652.5823-.0482.17135-.0477.62133.001.79806.0999.36306.3089.49576.84615.53693.52245.0401 2.27432.0418 3.21523.002z" stroke-width=".639044"/><path d="m844.63507 130.84706h2.740327v9.780134h-2.740327z"/></g><g stroke-width=".191111" transform="matrix(.88472389 0 0 .88472389 594.91008 -154.09222)"><path d="m385.1265 106.70726h-2.26066v6.48562h2.35883v-3.39004c0-.88405.54103-1.32693 1.52443-1.32693.98215 0 1.22869.29507 1.27714 1.12945h2.21209c0-2.21095-.295-3.04649-2.65383-3.04649-1.42551 0-1.91696.29507-2.45737 1.37601v-1.22762zm10.86021 5.20893c-2.25954 0-2.60374-.1969-2.60374-1.32748h6.19289c-.0982-3.14351-.0982-3.88145-4.2758-3.88145-3.53956 0-4.32601.63863-4.32601 3.4397 0 2.60476 1.03299 3.24339 3.88314 3.29305 3.19486 0 4.71867-.14782 4.71867-2.26061h-2.31088c-.0982.49138-.29386.73679-1.27827.73679zm-2.65332-2.70234c.0982-.68828.29449-.93427 1.86738-.93427 1.72126 0 1.96617.0988 2.06421.93427zm-87.87436.24541h2.35883c-.19645-2.2121-.83553-2.752-4.12742-2.752-3.73539 0-4.57091.58841-4.57091 3.34154 0 2.752.78644 3.39063 4.27579 3.39063 3.68568 0 4.42317-.49138 4.42317-2.80165h-2.35896c0 .63922-.24541.93484-2.06421.93484-1.57289 0-1.91646-.39322-1.91646-1.67107 0-1.22874.34357-1.22874 2.21209-1.22874 1.37492 0 1.62033.14781 1.76808.78645zm54.79839.39209c0-2.65327-.78581-3.19317-4.57066-3.19317-4.07897 0-4.56979.68771-4.56979 3.43914 0 2.75256.68715 3.34211 4.56979 3.34211 4.12905.00058 4.57066-.68713 4.57066-3.58808zm-6.73266.14895c0-1.32749.29512-1.47416 2.01525-1.47416 1.91647 0 2.26004.0485 2.26004 1.47416 0 1.32692-.24604 1.5729-2.06434 1.5729-1.96554 0-2.21095-.19747-2.21095-1.5729zm27.9143-.14895c0-2.65327-.73736-3.19317-4.52007-3.19317-4.03039 0-4.52171.63749-4.52171 3.39062 0 2.80108.68765 3.39063 4.52171 3.39063 4.12691.00058 4.52007-.68713 4.52007-3.58808zm-6.68308.14895c0-1.32749.2945-1.47416 2.01463-1.47416 1.91709 0 2.26067.0485 2.26067 1.47416 0 1.32692-.24541 1.5729-2.06371 1.5729-1.96504 0-2.21159-.19747-2.21159-1.5729zm-56.46956-.14895c0-2.65327-.73737-3.19317-4.52108-3.19317-4.07897 0-4.57092.63749-4.57092 3.39062 0 2.80108.68878 3.39063 4.57092 3.39063 4.12842.00058 4.52108-.68713 4.52108-3.58808zm-6.63576.14895c0-1.32749.29525-1.47416 1.9668-1.47416 1.91646 0 2.26067.0485 2.26067 1.47416 0 1.32692-.24655 1.5729-2.06434 1.5729-1.9176 0-2.16313-.19747-2.16313-1.5729zm56.8144-6.04617v3.78442c-.54041-.73736-1.03185-1.12945-2.9974-1.12945-3.14515 0-3.73539.83554-3.73539 3.39063 0 2.60531.83603 3.34096 3.88264 3.34096 1.91696 0 2.50658-.49081 2.94882-1.32633v1.17795h2.35933v-9.23875h-2.458zm-1.72026 4.52235c1.32635 0 1.76984.19633 1.76984 1.22761 0 1.57347-.0994 1.72186-1.96554 1.72186-1.86801 0-2.35946-.0502-2.35946-1.37657 0-1.52381.58961-1.5729 2.55516-1.5729zm-44.7235-1.76918h-2.21095v6.48563h2.3587v-3.34154c0-.98222.49145-1.32578 1.81893-1.32578 1.22869 0 1.57276.44174 1.57276 1.67049v2.99683h2.40804v-3.43914c0-.93369.73661-1.22818 1.86675-1.22818 1.08144 0 1.57276.29506 1.57276 1.22818v3.43914h2.35883v-3.83293c0-1.91533-1.1796-2.80108-3.34147-2.80108-1.86801 0-2.55629.68828-2.80221 1.42508-.49145-.83553-1.17922-1.42508-3.04711-1.42508-1.76921 0-2.26066.58955-2.55566 1.67107v-1.52269zm15.8745 0h-2.21159v6.48563h2.35871v-3.34154c0-.98222.58949-1.32578 1.76871-1.32578 1.22932 0 1.57289.39322 1.57289 1.67049v2.99683h2.40904v-3.43914c0-.93369.68816-1.22818 1.81881-1.22818 1.08093 0 1.62083.34356 1.62083 1.22818v3.43914h2.35934v-3.83293c0-1.91533-1.1791-2.80108-3.34161-2.80108-1.86725 0-2.50708.63865-2.80107 1.42508-.49195-.83553-1.18023-1.42508-3.04761-1.42508-1.7195 0-2.16175.58955-2.50607 1.67107v-1.52269z"/><path d="m293.12849 110.2708h-3.7958v3.11326h6.8229zm3.0266-3.75189h-6.82302v3.11268h3.75313zm-7.03584-.21345v-4.00815c-.80985-.21343-1.36511-.29905-2.17446-.29905-4.22205 0-7.93177 3.54015-7.93177 7.93181 0 4.52065 3.752 7.88959 7.97406 7.88959.76757 0 1.19395-.0856 2.13217-.34244v-4.09316c-.93872.46854-1.40676.5964-2.17446.5964-2.34561 0-4.13761-1.96098-4.13761-4.13599 0-2.25946 1.74858-4.17934 4.09419-4.17934.81112 0 1.4931.21401 2.21788.64033z"/></g></g></g></svg>