<svg enable-background="new 0 0 228.473 40.655" height="40.655" viewBox="0 0 228.473 40.655" width="228.473" xmlns="http://www.w3.org/2000/svg"><path d="m222.73 10.716h.003c1.373 0 2.619-.559 3.519-1.459v.001c.899-.899 1.456-2.141 1.456-3.512v-.007-.004c0-1.373-.557-2.617-1.457-3.515-.898-.898-2.142-1.456-3.514-1.457h-.007-.003c-1.373 0-2.617.557-3.517 1.457-.897.899-1.454 2.141-1.456 3.512v.007.002c0 1.374.558 2.618 1.456 3.517h.003c.898.899 2.141 1.457 3.511 1.458zm.003.763h-.003-.006c-1.581-.002-3.015-.644-4.052-1.681l.002-.001c-1.039-1.038-1.683-2.474-1.684-4.056v-.002-.007c.001-1.581.644-3.013 1.681-4.049 1.039-1.039 2.475-1.683 4.057-1.683h.003.007c1.581.002 3.015.644 4.051 1.679 1.04 1.039 1.685 2.474 1.685 4.056v.004.006c-.001 1.58-.644 3.013-1.681 4.05v.002c-1.038 1.038-2.475 1.682-4.06 1.682z" fill="#004494"/><g clip-rule="evenodd" fill-rule="evenodd"><path d="m219.769 2.294h3.622c1.907 0 2.35 1.695 2.35 2.311 0 .791-.639 1.707-1.346 1.948l1.945 2.565h-1.608l-1.612-2.37h-1.883v2.37h-1.468zm3.51 3.151c.394 0 1.11-.125 1.11-.834 0-.634-.154-.938-.999-.938h-2.154v1.772z" fill="#004494"/><path d="m38.029 9.769-10.17 10.742-6.717-4.605s2.21-2.109.194-3.645c-1.572-1.198-5.982 1.343-5.791 6.332.224 5.755 3.78 9.015 7.708 9.015 3.648 0 4.606-2.941 4.606-2.941h8.173v6.781l11.49-30.313h13.143l10.553 27.245s.767 1.436 1.534 1.82c0 0 .044-17.872.044-18.374 0-.5-.066-1.053-.379-1.412-.515-.593-1.392-.839-1.392-.839v-8.44h18.417c9.553 0 12.003 2.59 14.773 7.579 3.824-5.149 9.089-8.539 16.596-8.539 7.723 0 13.188 2.847 16.309 7.578 4.359-5.211 11.375-7.626 17.795-7.626 7.89 0 14.479 3.824 17.889 9.737v-8.729h17.745l1.87 4.746 1.393-4.746h18.322v8.248s-1.057.29-1.349.766c-.284.47-.234 1.97-.234 1.97l2.556 16.304c.107.53.296 1.084.753 1.49.53.474 1.246.385 1.246.385v9.398h-18.417v-7.099h-10.551v7.118h-17.315v-4.627s-6.328 5.566-14.484 5.566c-10.438 0-17.412-7.673-17.412-7.673v6.714s-.766 0-12.276 0c-10.927 0-20.307-5.979-22.927-16.883-1.242 1.188-6.719 5.098-13.287 6.571-.511.115-.766.306-.766.86 0 1.01 2.158 1.37 2.158 1.37v8.081s-56.788 0-67.338 0c-12.472.002-22.491-8.535-22.491-19.374 0-10.84 7.811-20.05 20.76-20.05 12.376 0 17.269 9.499 17.269 9.499z" fill="#004494"/><path d="m33.183 9.937-5.418 5.681s-.288.145-.527.145c-.241 0-.578-.241-.578-.241l-.67-.573s-.193-.047-.193-.241c0-.189.528-.672.528-1.583 0-.912-.191-4.701-6.042-4.701s-8.441 5.468-8.441 9.977 2.78 12.758 11.896 12.758c5.301 0 6.424-2.976 6.424-2.976h1.822v7.772h-9.975c-11.894 0-18.514-9.307-18.514-16.021 0-10.295 8.952-16.008 17.075-16.008 7.866.001 12.613 6.011 12.613 6.011z" fill="#fc0"/><path d="m49.972 4.781h8.201l9.977 26.092c.286.717.766 1.393 1.245 1.965.478.576 1.63.962 1.63.962v2.251h-12.035v-2.302s.765.099 1.15-.574c.383-.672.383-1.199.097-1.87-.288-.673-2.307-5.995-2.307-5.995h-9.83s-2.013 5.371-2.207 5.85c-.192.479-.192 1.248 0 1.726.319.798 1.44.915 1.44.915v2.251h-9.642v-2.251s.877-.302 1.535-.962c.719-.719.958-1.488.958-1.488zm-.242 15.635h6.333l-3.261-9.112z" fill="#fc0"/><path d="m74.862 4.781h15.349c5.66 0 11.318 2.012 11.318 8.535s-4.125 8.827-7.673 10.458c-4.097 1.882-9.496 3.358-9.496 3.358v4.986s.048.337.527.909c.481.576 1.008.721 1.008.721v2.302h-11.128v-2.251s.671-.146 1.153-.625c.478-.48.576-1.056.576-1.056v-22.542s.044-.96-.337-1.342c-.383-.387-1.296-.912-1.296-.912v-2.541zm9.593 4.699v13.333s9.016-3.74 9.016-9.016c0-6.523-9.016-4.317-9.016-4.317z" fill="#fc0"/><path d="m134.769 9.992-5.42 5.681s-.288.144-.528.144c-.238 0-.574-.24-.574-.24l-.673-.577s-.191-.045-.191-.236c0-.193.526-.676.526-1.583 0-.913-.189-4.702-6.042-4.702s-8.442 5.466-8.442 9.976c0 4.506 2.782 12.758 11.897 12.758 5.301 0 6.425-2.975 6.425-2.975h1.824v7.77h-9.979c-11.893 0-18.514-9.304-18.514-16.019 0-10.294 8.951-16.009 17.075-16.009 7.867 0 12.616 6.012 12.616 6.012z" fill="#fc0"/><path d="m154.195 36.951c-10.362 0-17.809-7.566-17.809-16.773 0-9.213 7.64-16.348 17.809-16.348 10.165 0 17.805 7.135 17.805 16.348 0 9.206-7.448 16.773-17.805 16.773zm-9.212-16.631c0 9.209 4.701 11.511 9.212 11.511 4.505 0 9.304-2.878 9.304-11.511 0-8.632-5.372-11.511-9.304-11.511-3.934 0-9.212 2.3-9.212 11.511z" fill="#fc0"/><path d="m176.638 4.801h11.417l4.125 12.738 4.411-12.758h11.941v1.869s-.794.336-1.147.768c-.432.528-.432.911-.337 1.681.096.765 3.165 21.582 3.262 22.35s.191 1.199.383 1.727c.19.523 1.104.957 1.104.957v1.935h-11.465v-2.078s1.007-.143 1.345-.625c.336-.48.478-.768.383-1.534-.096-.767-2.828-18.226-2.828-18.226l-4.989 15.444h-6.043l-4.942-14.487-2.493 17.076s-.097 1.025.288 1.584c.527.768 1.489.768 1.489.768v2.061h-9.932v-2.203s.791-.122 1.366-.795c.575-.669.672-1.535.672-1.535l3.623-22.518s.217-.841-.024-1.223c-.253-.404-1.608-.743-1.608-.743v-2.233z" fill="#fc0"/></g></svg>