<svg enable-background="new 0 0 363.9 107.4" viewBox="0 0 363.9 107.4" xmlns="http://www.w3.org/2000/svg"><path d="m6.9 90.3c-.1-.2-.1-.7-.1-1 .1-.5 6.5-.5 172.1-.6 147.7-.1 172 0 171.6.3-.2.2-1 .7-1.6 1.1l-1.2.6h-170.3c-148.1 0-170.4 0-170.5-.4zm142.1-6.9c-5-.9-9.6-4.2-11.5-8.2-.9-1.9-1-2.2-1-5.3 0-3 .1-3.5.8-5.1 3.6-7.7 15.2-11.1 24.6-7.2 2.5 1.1 6.8 4.4 6.8 5.3 0 .1-1.7.2-3.8.2-3.5 0-3.9-.1-5-.7-2.5-1.5-6.3-2-9.2-1.3-6.5 1.5-10.2 7.4-7.6 12.2 1 1.9 2 3 4 4.1 4 2.3 8.5 2.3 12.9.1 1.5-.7 1.8-.8 5.2-.7l3.6.1-1 1.1c-2 2.2-5.5 4.4-8.6 5.2-2.2.6-7.6.7-10.2.2zm87.8.2c-.2-.1-.3-2.6-.3-6.5 0-5.6-.1-6.4-.5-6.7-1.2-.7-1.2-.7-5.6 7.7-1.3 2.6-2.6 4.8-2.7 5-.2.3-1.2.4-3.5.3l-3.1-.1-3.2-6.2c-1.7-3.4-3.3-6.3-3.6-6.4-.2-.1-.7-.1-1 .1-.6.3-.6.7-.7 6.4l-.1 6.1-2.9.1-2.9.1v-13.4-13.6h3.6c2.7 0 3.7.1 3.9.4.2.2 1.8 3.3 3.6 6.8 5.4 10.7 6 11.7 6.9 11.7.6 0 1.2-.6 1.2-1.1 0-.2.5-1.2 1.1-2.3 1-1.7 3.8-7 6.8-13l1.2-2.4 3.4-.1 3.4-.1v13.6 13.5l-2.4.1c-1.2.1-2.4.1-2.6 0zm39.4-.2c-2.1-.6-2.9-1.1-4.6-2.5-2.6-2.3-2.7-2.5-2.7-14.1v-10.3h3 3v9.5 9.5l.8 1.1c.9 1.3 2.3 2 4.2 2 1.6 0 2.3-.3 3.7-1.6l1-.9v-9.8-9.8h3 3v10.2c0 6.8-.1 10.5-.3 11.2-.6 1.9-2.3 3.6-4.7 4.7-2 .9-2.6 1.1-5 1.2-1.8 0-3.4-.1-4.4-.4zm36.5.3c-.1-.1-.1-6.2 0-13.7l.1-13.5h8.5 8.5v2.4 2.4h-4.9c-6 0-5.9-.1-5.9 3.2 0 1.3.1 2.5.3 2.8.2.4 1.3.5 5.4.5l5.1.1-.1 2.5-.1 2.5-4.9.1c-3.2 0-5 .2-5.3.4-.5.5-.6 4.8-.1 5.3.3.3 1.9.4 5.4.4h5v2.4 2.4h-8.5c-4.5-.1-8.4-.1-8.5-.2zm19.8-13.5v-13.7h7.2c6.2 0 7.5.1 9.5.6 3.6.9 5.9 2.7 7.3 5.7 1.5 3.2.3 7.3-2.7 9.6-.9.7-1.7 1.2-1.9 1.2-.4 0-1.3 1-1.3 1.4 0 .2 1.3 2.1 3 4.3 1.6 2.2 3 4.1 3 4.2s-1.5.2-3.4.2h-3.4l-3.8-5c-2.1-2.7-4.1-5.5-4.6-6.2-.9-1.4-1.7-1.9-2.5-1.6-.4.2-.5 1.1-.5 6.5v6.3h-3-3v-13.5zm15.5-1.2c1.4-.7 2.5-2 2.5-3.2s-1.1-2.5-2.5-3.2c-1.3-.6-2-.7-4.8-.7-4.6 0-4.6.1-4.6 3.8 0 4 0 4 4.5 4 2.9 0 3.6-.1 4.9-.7zm-341.1 14.2c-.1-.2-.1-6.3-.1-13.6l.1-13.2 9.1-.1 9.1-.1-.1 2.3-.1 2.3-4.8-.1c-4.7-.1-6.3.1-6.8 1-.1.2-.2 1.4-.2 2.7 0 3.3-.2 3.2 6.3 3.2h5.4l-.1 2.4-.1 2.3-5.4.2c-3 .1-5.6.3-5.8.4-.3.1-.4 1.6-.4 5.4v5.2h-3c-2.1 0-3-.1-3.1-.3zm10.3.1c0-.1.3-.5.6-.8.5-.5 4-4.4 7.1-8 .3-.3.9-1 1.4-1.5s2.1-2.2 3.4-3.8 3.2-3.6 4-4.5 2.4-2.7 3.5-3.9c4.1-4.7 3.8-4.5 6.6-4.5h2.4v13.7 13.7l-2.8-.1-2.8-.1-.1-1.9c-.1-1.1-.2-2-.5-2.2-.2-.1-2.9-.2-6.1-.2h-5.7l-2.2 2.2-2 2.1h-3.4c-1.8 0-3.4-.1-3.4-.2zm23.1-9.1c.4-.4.6-6.2.3-6.8-.5-.9-1.5-.3-3.8 2.1-4.3 4.6-4.3 5.1.3 5.1 1.9-.1 3-.2 3.2-.4zm9 9.2c-.1-.1-.2-6.3-.2-13.7v-13.5l3.7.1 3.7.1 1.1 2c.6 1.1 1.4 2.5 1.7 3.1s1.1 2 1.8 3.2c.6 1.1 1.4 2.5 1.8 3.1s1 1.8 1.5 2.7c2.1 4.1 2.9 4.7 4.1 3 .3-.5.6-1 .6-1.1s.9-1.8 2.1-3.7 2.6-4.5 3.3-5.8c.7-1.2 1.7-3.2 2.4-4.3l1.2-2.1 3.4-.1 3.4-.1v13.7 13.7h-2.7-3.2v-6.3c0-5.7-.1-6.3-.5-6.6-.3-.2-.8-.2-1-.1-.4.1-5.3 8.1-5.3 8.7 0 .1-.6 1.1-1.3 2.2l-1.3 2.1h-2.8-2.8l-1.3-2.3c-.7-1.3-1.6-3-2.1-3.8-3.3-6.1-3.3-6.2-4.1-6.2-.4 0-.8.2-.9.3-.1.2-.2 2.9-.2 6.1v5.7l-2.9.1c-1.7-.1-3.1-.1-3.2-.2zm37.8-13.5v-13.7l2.9.1 2.9.1v13.5 13.5l-2.9.1-2.9.1zm8.6 13.3c-.1-.2-.1-6.3-.1-13.6l.1-13.2h3 3l.2 10.7c.1 8.3.2 10.8.6 11.2.3.4 1.1.5 4.3.6l3.9.1v2.2 2.2l-7.4.1c-5.8 0-7.5 0-7.6-.3zm19.2 0c-.1-.2-.2-2.6-.2-5.3l-.1-4.9-1.4-2.2c-.8-1.2-2.6-4.1-4.1-6.3-2.7-4.2-4.8-7.5-4.8-7.9 0-.1 1.4-.2 3.2-.1l3.2.1 1.2 1.8c.7 1 2.1 3.1 3.1 4.7 1.9 2.9 2.6 3.6 3.4 3.3.2-.1 1.4-1.6 2.6-3.4s2.8-4 3.4-4.9l1.1-1.6h3.1c1.9 0 3.1.1 3.1.3s-2.4 3.9-5.2 8.2l-5.2 7.9-.1 5.3-.1 5.3-3.1.1c-2.2-.1-3-.1-3.1-.4zm66.1-.1c-4.2-1.1-8.5-4.3-10.2-7.6-3.4-6.6-.6-13.9 6.9-17.6 3.8-1.9 9.4-2.5 14-1.4 6.1 1.5 9.7 4.3 11.8 9.2.9 2 1 5.6.2 7.8-1.6 4.6-6.5 8.6-11.9 9.7-2.1.5-8.7.4-10.8-.1zm9.1-4.5c4.9-1.5 8.1-5.1 8.1-9 0-3-3.1-6.6-6.6-8-1.6-.6-2.5-.7-4.9-.7-2.9 0-3.1 0-5.3 1.1-3.4 1.7-5.8 4.8-5.9 7.6-.1 3.8 3.4 7.7 8.1 9 1.7.5 4.8.5 6.5 0zm54.5-8.6v-13.5h6.8c7.9 0 9.2.2 11.7 2.2 2.6 2 3 3 3 6.3 0 2.6-.1 2.9-1 4.2-1 1.5-3.1 3-5.1 3.8-.7.3-2.7.5-4.7.6-5 .2-4.8 0-4.8 5.5v4.5h-3-3zm13.1-1.7c3.2-1.4 3.4-4.8.4-6.4-1-.5-1.7-.6-3.9-.5-3.4.1-3.5.3-3.5 3.9 0 2.4.1 2.7.7 3.1.9.7 4.7.6 6.3-.1zm40.7 4.5c0-12.4.3-11.5-3.1-11.5h-2v-2.4-2.4h8.4 8.4v2.4 2.4h-2.2c-3.7 0-3.5-.8-3.4 11.7l.1 10.5h-3.1-3.1zm-204.8-24.2c-5.3-.7-9-2-12.8-4.5-4.8-3.1-8.6-8-9.8-12.6-.2-.7-.5-2-.8-3-.8-3-.6-5.3 1.1-10.4 2.1-6.6 8.6-12.6 16.5-15.1 5.2-1.7-.6-1.6 95.1-1.6 78.5 0 88.4.1 90.6.5 11.7 2.2 20 9.6 21.7 19.5.5 2.9.5 4.7.1 7.4-1.4 8.7-7.5 15.3-16.9 18.6-2.3.8-4.2 1.2-7.3 1.6-4.1.2-174 .1-177.5-.4zm181.5-5.3c7.3-2.3 12.1-6.5 14.2-12.6 3.5-10.3-3-20.7-14.7-23.8-2-.5-5-.6-91.6-.6h-89.7l-2.3.7c-3.2 1-4.8 1.7-7.4 3.4-9.1 6.3-10.6 18.7-3.1 26.7 3.2 3.4 6.9 5.4 12 6.5 2.5.5 5.3.6 91.3.5l88.6-.1zm-91.1-6.3c-6.2-1-10-6-8.1-10.4 2.1-5 9.8-7.3 16-4.9 2.9 1.1 5.5 3.7 5.8 5.9l.2 1.1-7.3.1-7.3.1-.1 2.2c-.1 3.3 1.1 5.1 3.6 5.1 1.9 0 3.2-1.3 3.8-3.7l.2-.8h3.3c2.1 0 3.3.1 3.3.3s-.7 1-1.6 1.9c-1.7 1.7-3.8 2.7-6.8 3.2-2.1.3-2.7.3-5-.1zm6.3-10.2c.8-.8-.1-3.5-1.6-4.4-2.2-1.4-5-.1-5.6 2.5-.5 2.1-.2 2.3 3.5 2.3 2.2-.1 3.5-.2 3.7-.4zm68.2 9.6c-3.8-1.2-6.5-4.3-6.5-7.5 0-4.1 3.4-7.2 8.9-8.2 5-.8 10.3 1.2 12.4 4.6 2.2 3.8.5 8.1-4.3 10.5-1.8.9-2.3 1-5.3 1.1-2.6.1-3.7 0-5.2-.5zm6.4-.9c1.6-1 1.9-2.1 1.9-6.5 0-5.1-.6-6.5-2.9-7.3-1.3-.4-2.9.3-3.9 1.8-.6.9-.7 1.4-.7 5.3 0 4.8.2 5.7 1.9 6.7 1.3.8 2.5.8 3.7 0zm-32.3.7c-3-1.2-4.4-2.5-5.2-4.9-.9-2.7-.2-5.4 2-7.7 2.3-2.4 6.5-3.2 10-1.9.9.3 1.8.5 2 .4s.3-1.8.3-4.2v-4h3.5 3.5l-.1 11.2-.1 11.2-3.1.1c-2.2.1-3.3 0-3.9-.3-.7-.4-1-.4-2.4.1-2 .7-4.7.7-6.5 0zm6.8-1.4c.6-.2 1.3-.9 1.7-1.4.6-.9.6-1.4.5-4.8l-.1-3.8-1-1c-.8-.8-1.2-1-2.5-1-1.4 0-1.6.1-2.5 1.1l-1 1.1v3.7c0 4.2.4 5.3 2.2 6.1 1.2.5 1.4.5 2.7 0zm-147 1.4c-.2-.2-.3-4.4-.2-11.2l.1-11 3.5-.1c1.9-.1 3.6 0 3.9.1.4.2 9.6 13.3 10.3 14.5.4.7 1.5 1.4 1.7 1.2.1-.1.1-3.7.1-8v-7.8h3.6 3.6l-.1 11.2-.1 11.2-3.4.1c-1.9 0-3.6 0-3.8-.2-.3-.2-10-13.9-10.8-15.2-.2-.3-.6-.5-.9-.6-.5-.1-.6.3-.6 7.9v7.9l-3.3.2c-1.9 0-3.4-.1-3.6-.2zm32.2.1c-.1-.1-.2-3.4-.2-7.4v-7.1h3.6 3.6l-.1 7.3-.1 7.3-3.3.1c-1.8-.1-3.4-.1-3.5-.2zm12.3 0c-.1-.1-.2-3.4-.2-7.4v-7.1h3.4c3.2 0 3.4 0 3.4.6 0 .8.7.8 2.9-.3 1.7-.8 2.2-.9 4.3-.9 2.9 0 5 .9 6.7 2.8 1.3 1.4 1.4 1.9 1.5 7.7.1 5.4.5 4.9-4 4.8l-2.8-.1-.2-5.5-.1-5.5-1-.9c-1.8-1.5-4.5-1.4-6 .2-.7.8-.7 1-.9 6.2l-.1 5.5-3.3.1c-1.9-.1-3.5-.1-3.6-.2zm27.5-.2c-.1-.2-.2-3.7-.2-7.7l-.1-7.4-2.1-.1c-1.9-.1-2.1-.2-2.1-.8 0-.5.2-.6 2.1-.8l2.1-.1.1-1.5.1-1.5h3.1c1.7 0 3.3 0 3.5.1s.4.7.4 1.6v1.5l2 .1c1.8.1 2 .2 2 .7s-.2.6-2 .7l-2 .1v7.6c0 6.7-.1 7.6-.5 7.8-.8.2-6.3.1-6.4-.3zm37.2.1c-.2-.1-.3-2.9-.3-7.3v-7l3.4-.1c3.1-.1 3.4 0 3.5.5.3.8.7.8 2.8-.3 1.6-.8 2.1-1 4.2-.9 2.8 0 4.7.7 6.4 2.4 1.6 1.6 2 3.2 2 8.3 0 3.6-.1 4.3-.5 4.4-.3.1-1.7.2-3.1.2-1.5 0-2.9-.1-3.1-.2-.4-.2-.5-.9-.5-5.4 0-4.8 0-5.2-.6-6-1.3-1.6-3.3-2.1-5.2-1.2-2 1-2.1 1.1-2.2 7.1l-.1 5.4-3.1.1c-1.9.2-3.4.1-3.6 0zm-77-18.5c-.1-.1-.2-1-.2-2v-1.8h3.6 3.6l-.1 1.9-.1 1.9-3.3.1c-1.8 0-3.4 0-3.5-.1zm150-1.3c0-.2.1-.4.3-.5s.3 0 .3.3-.1.5-.3.5c-.1-.1-.3-.2-.3-.3z" fill="#eb1b23"/><g fill="#9e9a9a"><path d="m66.4 104.5c-.3-.3-.2-1.8.2-2.1.2-.2 2.8-.4 6.2-.4 5.4-.1 6-.2 7.3-.8 1.5-.7 2.2-1.5 2.5-2.9.4-1.6.2-1.7-9-1.7-4.7 0-8.7-.1-9-.2-.7-.3-.7-2.4 0-2.6.7-.3 20.3-.2 20.8.1.3.2.4 1 .4 3-.1 4.2-.9 5.4-4.7 7-1.6.7-1.9.7-8.1.7-3.5.1-6.5 0-6.6-.1z"/><path d="m87.1 104.5c-.3-.3-.2-1.9.2-2.1.2-.1 1.8-.3 3.5-.4 2.8-.1 3.2-.2 3.3-.8.2-1.2.6-1.3 3.7-1.3 2.7 0 3.7-.3 3.2-.8-.1-.1-3.1-.1-6.6-.1-7 0-7.3 0-7.1-1.7l.1-.8 8.6-.1c6.7-.1 8.6 0 8.7.3.1.2 0 1.2-.1 2.3-.2 2.1-.5 2.5-2.4 3-.6.2-1.9.3-3 .3-1.8 0-2 .1-3.2 1.2l-1.3 1.2h-3.7c-2 0-3.8-.1-3.9-.2z"/><path d="m121 104.3c-1.1-.1-4.5-.4-7.5-.6-6.8-.4-7.2-.5-7.3-1.7-.2-1.5-.2-1.5 15.9-.2 2.8.2 5.2.5 5.3.6.3.2.4 1.1.1 1.8-.2.5-2.8.6-6.5.1z"/><path d="m132.3 104.2c-.1-.2-.1-.8-.1-1.3l.1-.9 5.6-.2c5-.1 5.7-.2 6.8-.8 1.8-1 2.3-1.8 2.4-4.7.1-2.4.2-2.5.9-2.7.4-.1 1.1 0 1.5.2.7.3.7.4.7 2.8 0 1.4-.2 2.9-.3 3.4-.3 1.2-2.3 3-4.3 3.9-1.5.7-2 .7-7.3.7-4.8.1-5.9 0-6-.4z"/><path d="m180.7 104.2c-.3-.8-.2-1.6.2-1.8.2-.1 4.3-.3 9.1-.4l8.7-.2v-2.6-2.6l-8.8-.2c-9.3-.2-9.3-.2-9.4-1.5 0-1.1.5-1.2 11.1-1.1l10.3.1v5.2 5.2l-10.5.1c-9.4.3-10.6.2-10.7-.2z"/><path d="m203.9 103.5c0-.8.2-1.2.5-1.3s3.3-.2 6.8-.2 6.9-.1 7.5-.3c1.8-.5 3.1-1.8 3.5-3.6.2-.9.4-2.1.4-2.8.1-1.2.1-1.2 1.3-1.2h1.2l.1 2.7c0 1.5 0 3-.1 3.4-.3 1.2-2.1 2.9-4 3.7l-1.9.8h-7.7-7.7v-1.2z"/><path d="m228.5 103.9c-.6-.4-1.2-1.1-1.4-1.6-.1-.5-.2-2.5-.1-4.6l.2-3.8h1.2c1.2 0 1.2 0 1.4 1.2l.1 1.2 5.7.2c4 .1 5.9.3 6.4.5.9.5 1.2.2.6-.7-.8-1.4.7-2.6 2.9-2.4 1.8.2 2.6.9 2.3 2.4-.1.6 0 1.2.1 1.3.5.3.3 1.6-.2 1.8-.3.1-4.3.2-9 .2-7.3 0-8.5.1-8.9.5-.3.4-.3.6.3 1.2l.7.7h8.3c9.1 0 9.1 0 8.9 1.7l-.1.8-9.3.1-9.3.1z"/><path d="m245.9 96.6c1.3-.7 0-2.2-1.4-1.5-.8.4-.9 1.1-.2 1.5.7.3.9.3 1.6 0z"/><path d="m250 104.5c-.2-.2-.3-2.1-.1-2.3 0 0 2.5-.1 5.5-.2l5.4-.2.1-.9c.1-.5-.1-1-.2-1.2-.2-.2-2.1-.4-4.7-.5l-4.4-.2-.1-1c-.1-.6.1-1.1.3-1.3.6-.4 11.3-.3 11.5.1.1.2.2 1.1.2 2.1-.1 2.1.3 3 1.4 3 1.8 0 2.2.3 2.1 1.5l-.1 1.1-8.3.1c-4.7 0-8.5 0-8.6-.1z"/><path d="m289 104.5c-.5-.5-.2-1.6.5-2.1.6-.4 1.3-.4 4.9-.3 4.2.2 7 0 7.9-.5.9-.6-.2-.7-3.8-.7-4.5.1-5.5-.1-5.5-1.4 0-.5.2-1 .4-1.2s2.5-.4 6.1-.4c5.1-.1 5.7-.1 5.8-.6s-.4-.5-6.2-.5h-6.3l-.7 1.1c-.8 1.2-2.7 2.3-3.8 2.2-.7-.1-.8-.2-.9-1.3-.1-1 0-1.3.5-1.4 1.1-.3 2.1-1.4 2.1-2.1 0-.4.2-.8.4-1 .5-.5 17.7-.5 18.2 0 .2.2.4 1.3.4 2.9 0 3.6-.7 4.8-3.8 6.5l-1.8 1h-7c-4 0-7.3-.1-7.4-.2z"/><path d="m121.2 100.7c-9.1-.6-13.8-1-14.5-1.2-.5-.2-.7-.5-.7-1 0-1.4.6-1.5 4.6-1.1 2 .2 4.8.4 6.1.5 5.1.3 10.2.8 10.4 1s.3 1.1.3 1.8c0 .4-.4.4-6.2 0z"/><path d="m265.6 100.7c-.3-.2-.5-.7-.5-1.3 0-.8.1-1.1.7-1.2.4-.1 5-.1 10.3-.1l9.6.1.1 1.2c.1.7-.1 1.3-.3 1.4-.6.4-19.2.3-19.9-.1z"/><path d="m129.1 100.3c-.1-.1-.2-1.6-.2-3.3 0-3.4 0-3.4 1.9-3.4 1.5 0 1.7.5 1.6 3.8l-.1 3-1.5.1c-.8 0-1.6-.1-1.7-.2z"/><path d="m151.9 100.3c-.3-.3-.2-1.8.2-2.1.3-.3 2.8-.4 9.7-.4 5.2 0 9.6.1 9.8.2.3.1.5.6.5 1.4v1.2h-10c-5.5-.1-10.1-.2-10.2-.3z"/><path d="m125 97.6c-.7-.1-3.2-.2-5.4-.4s-5.1-.4-6.4-.5c-2.7-.2-5.4-.4-6.4-.6-.5-.1-.7-.3-.7-1.2 0-.6.1-1.1.3-1.2s3 0 6.2.3 7.9.7 10.3.9l4.3.4v1.2c0 1.2 0 1.2-2.2 1.1z"/><path d="m204 96.1c-.1-.2-.1-.8-.1-1.3l.1-.8h6 6v1.2 1.2l-5.9.1c-4.9.1-5.9 0-6.1-.4z"/></g></svg>