<svg height="171.83997" viewBox="0 0 600.27198 171.83996" width="600.27197" xmlns="http://www.w3.org/2000/svg"><path d="m69.818974 18.032732q6.787826 0 15.566748 3.34866.271513-2.172104 1.629078-2.172104h21.72104q1.53858 0 2.26261 10.045983h.54303q2.80563-10.045983 3.89169-10.045983h105.34706q9.86497 0 16.6528 7.783374 7.51186-7.783374 19.00591-7.783374h60.72842l1.08605.543026-3.34866 5.520765v.633531h78.55777q5.06825 6.697322 7.24035 12.218087.81454-.0905 7.24035-12.218087h52.31151q12.85162 9.955478 13.39465 9.955478v-8.869426q.181-1.086052 1.17655-1.086052h97.47319q1.08605.181009 1.08605 1.086052v45.704696q0 1.086052-1.08605 1.086052h-89.14679q-2.44362 0-14.48069-10.045983h-.54303v8.959931q0 1.086052-1.17656 1.086052h-72.40347q-2.80564-1.810087-5.52077-8.3264-7.42136 8.3264-27.87534 8.3264h-65.16313q-5.06824 2.624626-5.06824 6.697322h-23.89315q-1.17656 0-1.17656-1.086052l.54303-2.805635q-6.33531 4.434713-12.76111 4.434713h-2.26261q-9.05044 0-17.28633-7.783374-2.44362 3.982191-11.67507 6.697322-47.51478.543026-77.38121.543026h-50.772942q-1.538574 0-2.172105-10.589009h-1.176556q-3.982191 10.589009-5.520765 10.589009h-22.807096q-1.267061 0-2.262609.543026-18.553391 0-27.332313-18.915409-1.086052-3.891687-1.086052-6.697322v-5.068243q0-21.721044 28.418365-31.133496 4.434713-1.176556 9.502957-1.176556zm-30.137948 34.572661q0 15.385739 16.743304 19.548939h5.520765q5.158748 0 10.045983-2.805635 0 .543026.543026.543026l-.543026 1.086052v1.176557h8.416904q.905044 0 6.606818-13.394644h10.045983q1.26706 0 3.348657 13.394644h14.4807q1.44807 0 8.3264-23.983652h1.17656q3.71067 22.535582 5.52076 23.983652h4.52522q1.44807-.543026 11.67506-26.246261h1.08605q1.08605 18.281878 1.08605 25.61273l1.17656.633531h7.78337q0-10.679513-1.71958-45.16167l-2.71513.543026h-1.17656l-3.34866-.543026q-4.61572 0-6.06379 5.520765l-7.24035 17.829357h-1.17655l-4.43472-23.350122-2.80563.543026h-4.97774l-1.08605-.543026-11.13204 35.115687h-1.17655l-5.52077-35.115687-1.17655.543026h-7.240352l-2.715131-.543026q-14.752208 32.400557-16.200278 37.287792h-1.086052q2.172104-14.118679 2.172104-14.480696h-16.109774q-1.086052 0-2.262609 8.416904h6.154296q1.086052.181009 1.086052 1.086052-.724034 3.891687-2.172104 3.891687h-5.61127q-6.335304 0-8.3264-9.502956v-3.891687q3.891687-14.480696 22.807096-14.480696l7.240348 1.176557v-.633531q0-1.991096 1.176556-7.783374-6.425808-2.172104-11.765565-2.172104-28.961391 4.344209-28.961391 26.698783zm125.891544-25.612731-7.24034 44.528139 1.17655.633531h24.43618l1.71958-9.502957h-15.02372l-1.17656-.543026q.72404-7.783374 2.26261-7.783374h12.21809q1.35756 0 2.26261-9.502956h-12.85162q-1.08605 0-1.08605-1.086053 0-1.448069 1.08605-6.697321h16.20028q1.08605-7.602366 1.08605-10.045983h-.54303q-2.98664.543026-4.97774.543026h-15.02372q-1.26706 0-2.26261-.543026-1.08605.543026-1.71958.543026 0-.543026-.54303-.543026zm69.14533 26.698783q0 13.304139 12.76111 18.462887 2.1721.543026 4.43471.543026h1.71959q11.13203 0 17.82935-16.200278 1.08605-2.172105 1.08605-6.154296v-4.434713q-2.62462-18.372383-16.7433-18.372383 0-.543026-.54303-.543026-13.84716 0-20.54448 19.458435zm33.3961-26.698783q0 1.357565 10.58901 23.983652-3.34866 19.367931-3.34866 21.178018h7.78337q1.9911 0 3.34866-15.657252 0-2.986644 16.74331-28.418366v-1.086052l-1.17656.543026q-.54302 0-.54302-.543026l-1.08606.543026h-6.15429l-1.08605-.543026q-8.1454 13.93767-8.95994 13.93767h-1.08605q-.27151-2.262609-4.97774-13.93767l-1.17655.543026h-6.06379zm-62.99103.543026q-5.52076 35.3872-7.24034 43.985113l1.17655.633531h3.34866q1.62908 0 1.62908-.633531l2.80564.633531h6.69732q14.48069 0 18.37238-9.502957 1.08605-3.439165 1.08605-4.434713 0-4.344209-4.43471-8.95993 4.97774-6.425809 4.97774-11.132035-3.16765-10.589009-11.67506-10.589009zm117.56515 6.154296q-.0905.724035-18.37238 31.133496v.63353h21.72104v-7.240348h-8.3264v-.63353q7.60237-15.023722 8.86943-15.023722 12.67061 22.716591 13.39464 22.8976h21.72105q24.52668 0 24.52668-15.657252l-.54303-3.348661h.54303l12.21808 19.005913h5.06825q15.38574-24.9792 18.37238-31.767026l-1.17656.543026h-7.78337l-11.67506 19.458435-12.21809-19.458435q-.63353 0-.63353-.543026l-1.08605.543026h-6.69732l-1.08606-.543026v1.086052q1.08606 1.810087 1.08606 2.805635-6.1543-3.348661-9.41246-3.348661h-24.52667v25.069704h-1.17656l-14.4807-25.069704h-7.24035zm111.41086.543026h-6.1543q-.63353.181009-18.91541 31.224h22.26407v-7.240348h-8.3264q0-2.624626 8.3264-15.657252h.63353l12.21809 22.8976h15.56675v-17.829357q.181-1.176556 1.17655-1.176556 1.71959 2.443617 23.35012 19.005913h5.61127v-31.224h-8.4169v17.829356h-.54303q-22.35457-17.829356-24.52667-17.829356h-4.97774v24.526678h-1.08606q-.72403-2.443617-15.11422-25.069704zm97.47318-.543026v31.767026h32.94358l1.08605-.63353q0-.543026-.54302-.543026l.54302-2.715131q0-.452522-.54302-3.348661h-23.44063q-1.08605 0-1.08605-1.176556v-3.348661q.18101-1.086052 1.08605-1.086052h12.30859l1.08605-.543027-.54302-1.086052v-5.611269h-12.85162q-1.08605 0-1.08605-1.086052v-2.262609q.18101-1.086052 1.08605-1.086052h23.44063v-6.697322h-32.31005zm-39.00738 7.783374v15.023722q0 8.95993 8.95994 8.95993h16.10977q10.58901 0 10.58901-7.240348v-5.068243h-8.86943v3.348661q0 1.086052-1.08605 1.086052h-15.65725q-1.08605 0-1.08605-1.086052v-14.480696q.181-1.086052 1.08605-1.086052h15.65725q1.08605.181008 1.08605 1.086052v3.348661h8.86943v-4.434713q-.54303-6.697322-5.52077-6.697322h-24.52668q-4.88723 0-5.61127 7.240348zm-237.84542-5.61127h1.08605q7.87388 1.44807 7.87388 11.222539v.543026q0 13.394644-12.30859 16.652801-5.79228 0-7.78338-10.589009v-1.086052q2.71513-16.743305 11.13204-16.743305zm-40.63646 1.176557h6.69733q2.71513 1.629078 2.71513 3.891687-1.44807 4.434713-5.52077 4.434713h-5.06824q-1.08605 0-1.08605-1.629079.54302-6.697321 2.2626-6.697321zm142.63486 3.891687h9.95548q10.04598 0 10.04598 7.783374v1.086052q0 8.416904-13.93767 8.416904h-6.06379q-1.17656 0-1.17656-1.176556v-15.023722q.18101-1.086052 1.17656-1.086052zm-261.829082 1.086052 1.629078 7.240348-1.086052.543026h-3.348661l-1.176556-.543026q3.167652-7.240348 3.982191-7.240348zm116.388592 12.308591h7.24035q3.07715 0 4.43471 2.715131v1.719582q0 4.434713-4.97774 4.434713h-8.95993v-.543026q.45252-8.3264 2.26261-8.3264zm75.75214 13.304139v1.719583q0 .724035 2.80563 2.805635h2.80564q.72403 0 2.71513-2.805635v-1.719583q0-3.891687-3.89169-3.891687h-.54302q-3.89169 0-3.89169 3.891687zm2.80563-3.34866h2.80564q.81454 0 2.1721 2.262608v2.805635q-.90504 2.172104-3.89168 2.172104-2.17211 0-3.34866-2.172104v-2.805635q0-.905043 2.2626-2.262608zm-.54302 1.176556v4.434713h1.08605q0-1.719583 1.08605-1.719583.63353 1.086053.63353 1.719583h.54303l.54303-3.891687-1.08606-.543026zm2.1721.543026h1.17656v.543026q0 1.086052-1.17656 1.086052-1.08605 0-1.08605-1.086052z" fill="#00f"/><g fill="#f00" stroke-width="3.947145"><path d="m187.37265 120.83693v-23.127803q0-1.850224-.30837-3.083707-.23128-1.233483-1.23348-2.00441-.92511-.848019-2.77534-1.233483-1.85022-.385463-5.08811-.539648l.15418-2.775337q1.23348 0 2.92952.07709 1.77313 0 3.70045 0 2.00441 0 4.08591.07709 2.08151 0 3.93173 0 1.46476 0 3.23789 0 1.77313-.07709 3.46917-.07709 1.77313 0 3.31499 0 1.54185-.07709 2.62115-.07709l.15418 2.621151q-3.00661.231278-4.85683.770927-1.77314.462556-2.77534 1.541854-1.00221 1.002204-1.38767 2.852429-.30837 1.850224-.30837 4.702657v51.88337q0 1.85022.30837 3.0837.30837 1.23349 1.23348 2.08151 1.00221.77092 2.92953 1.15639 1.92731.38546 5.16521.53965l-.15419 2.77533q-1.23348 0-3.00661 0-1.77314-.0771-3.77755-.0771-2.00441 0-4.08591 0-2.0815-.0771-3.93172-.0771-1.54186 0-3.31499.0771-1.69604 0-3.39208 0-1.69604 0-3.23789.0771-1.46476 0-2.54406 0l-.23128-2.62115q3.00662-.23128 4.77975-.69383 1.77313-.53965 2.77534-1.54186 1.0022-1.07929 1.31057-2.85243.30837-1.85022.30837-4.77974v-24.2071h-41.24458v27.05953q0 1.85022.23128 3.0837.30837 1.23349 1.23348 2.08151 1.00221.77092 2.85243 1.15639 1.85022.38546 5.08812.53965l-.15419 2.77533q-1.23348 0-3.00661 0-1.69604-.0771-3.70045-.0771-1.92732-.0771-4.00882-.0771-2.0815-.0771-3.93173-.0771-1.46476 0-3.23789.0771-1.77313 0-3.54626 0-1.69604 0-3.2379.0771-1.54185 0-2.62115 0l-.15418-2.62115q3.00661-.23128 4.77974-.69384 1.85023-.53964 2.85243-1.54185 1.00221-1.0793 1.31058-2.85243.38546-1.85022.38546-4.77974v-51.806273q0-1.850224-.30837-3.083707-.30837-1.233483-1.31057-2.00441-.92512-.848019-2.85243-1.233483-1.92732-.385463-5.16521-.539648l.15418-2.775337h3.39208q1.92732 0 3.85463.07709 2.00441 0 3.85464 0h6.78415q1.77314 0 3.46917 0 1.77314-.07709 3.31499-.07709h2.62115l.23128 2.621151q-3.00662.231278-4.77975.770927-1.77313.462556-2.77533 1.541854-1.00221 1.002204-1.31058 2.852429-.30837 1.850224-.30837 4.702657v20.27537z"/><path d="m258.22082 134.71361h-25.67186l-5.93614 15.18726q-1.54185 4.39428-1.54185 5.55067 0 2.00441 1.85022 2.77534 1.92732.77093 6.78416 1.0022l-.23128 2.77534q-2.85243 0-6.39869-.0771-3.54627-.0771-7.01544-.0771-2.85242 0-5.93613.0771-3.00662.0771-5.85905.0771l-.15418-2.62115q3.00661-.23128 4.93393-.69384 1.92732-.53964 3.31499-1.85022 1.46476-1.38767 2.69824-3.70045 1.31058-2.38987 3.00661-6.3216l22.1256-52.19174q.92511-2.312781 1.54186-4.008819.69383-1.773132 1.46476-3.777542l4.85684-.616741q.84802 3.700448 1.77313 6.784156 1.0022 3.083707 1.85022 5.627765l17.34585 50.264421q1.15639 3.39208 2.08151 5.3194.92511 1.92732 2.15859 3.00661 1.23348 1.00221 3.08371 1.38767 1.92732.38547 4.93393.61674l-.23128 2.77534q-3.23789 0-7.16962-.0771-3.85463-.0771-7.78636-.0771-3.23789 0-6.55288.0771-3.31498.0771-6.55287.0771l-.23128-2.62115q4.31719-.30837 6.16741-1.00221 1.85023-.77092 1.85023-2.77533 0-.84802-.30837-1.92732-.30837-1.15639-.77093-2.54406zm-23.89873-4.47137h22.43397l-10.33042-30.528704z"/><path d="m300.85307 123.68936q0 7.4009 1.85023 13.95377 1.85022 6.47579 5.55067 11.33263 3.77754 4.77974 9.40531 7.63217 5.62776 2.77534 13.25994 2.77534 4.163 0 7.94054-1.15639 3.85464-1.15639 6.78416-3.77754 2.77534-2.46697 4.77975-6.01323 2.0815-3.62336 4.08591-8.4802l3.0837.77093q-1.31057 5.08812-2.0815 9.55949-.77092 4.47138-1.31057 9.55949-6.09032 1.77314-12.10355 2.77534-5.93614 1.00221-11.94937 1.00221-8.71147 0-16.11237-2.69825-7.3238-2.69824-12.72029-7.63217-5.31939-4.93393-8.32601-11.87228-3.00661-7.01543-3.00661-15.57272 0-9.86786 3.62335-17.19166 3.62336-7.4009 9.79077-12.334831 6.24451-4.933932 14.41633-7.323805 8.17183-2.466965 17.26876-2.466965 4.70266 0 10.02205.693834 5.39649.693834 10.02205 1.927317-.46256 4.933931-.61674 9.405306-.0771 4.394284-.0771 9.328214l-3.23789.30837q-.30837-4.54847-1.85022-7.86345-1.46476-3.39208-4.00882-5.550675-2.46697-2.235688-5.78195-3.237892-3.31499-1.079298-7.24671-1.079298-7.70927 0-13.56831 2.466966-5.85905 2.389873-9.86787 6.784155-3.93172 4.317194-6.01323 10.484604-2.00441 6.09032-2.00441 13.49122z"/><path d="m395.83125 90.693693q-3.0837.231278-5.01102.770927-1.85022.462556-2.92952 1.541854-1.0793 1.002204-1.46476 2.852429-.38547 1.773131-.38547 4.625557v21.97142q2.23569-.38547 4.00882-1.31058 1.85023-.92511 4.08592-2.92952 2.38987-2.23569 5.08811-4.93393 2.69825-2.69825 5.3194-5.47358 2.69824-2.85243 5.16521-5.62777 2.46696-2.775334 4.39428-5.165207 1.0793-1.387668 1.54185-2.466966.53965-1.079297 0-1.850224-.53965-.84802-2.23568-1.310576-1.61895-.462556-4.77975-.616741l.15418-2.698244q1.0793 0 2.77534.07709 1.69604 0 3.54626 0 1.92732 0 3.85464.07709 2.00441 0 3.70045 0 1.46476 0 3.39207 0 2.00441-.07709 3.93173-.07709 2.00441 0 3.70045 0 1.69604-.07709 2.77534-.07709l.23127 2.621151q-2.77533.231278-5.08811.770927-2.23569.539649-4.39429 1.541854-2.0815 1.002204-4.163 2.544058-2.0815 1.464761-4.39428 3.623356-1.69604 1.541852-4.16301 3.931722-2.38987 2.38988-5.2423 5.3194-2.77534 2.85243-5.85904 6.01323-3.08371 3.0837-6.01323 6.09032 3.23789 4.00882 6.86125 8.48019 3.70045 4.47138 7.24671 8.71148 3.62335 4.163 6.70706 7.78636 3.1608 3.54626 5.2423 5.70485 2.31278 2.38988 3.85464 3.85464 1.61894 1.46476 3.0837 2.38987 1.46477.84802 3.1608 1.23348 1.69604.38547 4.31719.61675l-.15418 2.77533q-2.92952 0-6.47579-.0771-3.46917-.0771-6.93834-.0771-1.07929 0-2.31278.0771-1.15639 0-2.23569.0771-.61674-1.15639-2.15859-3.23789-1.54185-2.0815-3.70045-4.77975-2.15859-2.69824-4.77974-5.78195-2.54406-3.1608-5.3194-6.39869-2.69824-3.31498-5.47358-6.47578-2.69824-3.2379-5.08812-6.09033-1.54185-1.77313-2.85243-2.46696-1.23348-.77093-2.54405-.77093-.84802 0-1.77314.23128v26.13442q0 1.85022.30838 3.0837.30837 1.23349 1.31057 2.08151 1.0793.77092 3.00662 1.15639 2.00441.38546 5.31939.53965l-.15419 2.77533q-1.23348 0-3.0837 0-1.77313-.0771-3.85464-.0771-2.0815 0-4.24009 0-2.08151-.0771-3.93173-.0771-1.54185 0-3.39208.0771-1.77313 0-3.62335 0-1.85023 0-3.46917.0771-1.61895 0-2.69825 0l-.23128-2.62115q3.2379-.23128 5.16521-.69383 1.92732-.53965 2.92953-1.54186 1.07929-1.07929 1.38766-2.85243.38547-1.85022.38547-4.77974v-51.883373q0-1.850224-.30837-3.083707-.30837-1.233483-1.38767-2.00441-1.00221-.848019-3.00662-1.233483-2.00441-.385463-5.31939-.539648l.15418-2.775337q1.23349 0 3.08371.07709 1.85023 0 3.93173 0 2.0815 0 4.2401.07709 2.15859 0 4.00881 0 1.46477 0 3.2379 0 1.85022-.07709 3.62335-.07709 1.85023 0 3.46917 0 1.61895-.07709 2.69825-.07709z"/><path d="m445.86442 140.57266q1.54185 4.00881 3.23789 7.40089 1.77313 3.39208 4.16301 5.93614 2.46696 2.46696 5.70485 3.93173 3.2379 1.38766 7.78636 1.38766 3.00662 0 5.55068-1.0022 2.54406-1.00221 4.47137-2.85243 1.92732-1.85022 3.00662-4.31719 1.07929-2.54406 1.07929-5.55067 0-3.77754-1.38766-6.47579-1.38767-2.69824-3.70045-4.62556-2.31278-2.00441-5.2423-3.46917-2.92953-1.46476-6.01323-2.85243-3.46917-1.54185-7.01544-3.39208-3.46917-1.85022-6.2445-4.39428-2.77534-2.54406-4.54847-5.85904-1.77313-3.31499-1.77313-7.86346 0-4.85683 1.92731-8.557282 2.00441-3.777542 5.3194-6.3216 3.39208-2.544058 7.78636-3.854634 4.47137-1.310575 9.4824-1.310575 4.85684 0 8.94275.770926 4.163.693835 8.86566 1.927317-.23128 2.466966-.38547 4.625561-.15418 2.081502-.23128 4.163005 0 2.004412-.0771 4.163002 0 2.0815 0 4.54847l-3.23789.30837q-.69383-8.171823-5.01102-12.180642-4.2401-4.085912-11.48681-4.085912-2.77534 0-5.08812.848019-2.31278.84802-4.00882 2.466966-1.69604 1.618946-2.69824 3.854634-.92511 2.235685-.92511 5.011025 0 3.70045 1.15639 6.24451 1.23348 2.46696 3.31498 4.31719 2.0815 1.85022 4.77975 3.23789 2.77533 1.31057 5.78195 2.62115 3.70045 1.61895 7.40089 3.54626 3.77755 1.92732 6.70707 4.54847 3.00661 2.62115 4.85684 6.09032 1.85022 3.46917 1.85022 8.17183 0 5.2423-2.15859 9.32821-2.1586 4.00882-5.70486 6.86125-3.54627 2.77533-8.17183 4.2401-4.62556 1.46476-9.4824 1.46476-4.24009 0-8.78856-.84802-4.54847-.84802-9.63659-2.31278-.53964-5.08812-1.31057-9.5595-.77093-4.47137-2.0815-9.55949z"/></g></svg>