<svg enable-background="new 0 0 566.929 96.834" height="96.837631" viewBox="0 0 566.92937 96.837632" width="566.92938" xmlns="http://www.w3.org/2000/svg"><text x="304.35156" y="-188.11897"><tspan x="304.35156" y="-152.14851"/></text><path d="m36.01882 6.0493322q5.522563.299674 5.736616 1.9264755-.642159 4.0670043-1.155886 4.0670043-2.183339-.72778-3.596087-.72778h-.984643q-10.017673 1.369938-10.017673 8.390871v.214053q0 3.981383 4.281057 5.008836h1.926475q1.45556 0 1.45556-1.883665l-.513727-.256863h-2.354581q-.513727 0-.513727-.470916 0-3.167982.984643-4.323868l1.198696.256864h5.736616l1.198695-.256864.470917.72778-.984643 5.522563h.513726q0-.642158 5.479753-13.185654 1.883665-4.2810572 2.140528-4.2810572h5.2657q1.027454 0 3.339224 16.9529842h.513727q1.883665-6.892501 5.479753-16.9529842h4.323867q.856211 0 1.883665 8.3480602.599348 2.868308.984643 2.868308 4.195435-10.2317251 5.008836-11.2163682h5.2657q.470916.085621.470916.4709163v1.6696121l.214053 1.4555588q0 .214053-.214053.214053.72778 11.30199.72778 15.326183v2.611445q.556537 0 1.883665-10.745453 1.498369-9.2898925 2.183339-11.0023152h12.415064q.470916.085621.470916.4709163-.513727 4.7947839-1.412749 4.7947839h-7.406228q-.513726 2.26896-.513726 3.339224l.513726.256863h5.950669l.470916.214053q-.385295 4.666352-1.198695 5.008836h-6.678449v.256864q0 .727779-.470916 3.125171l.470916.214053h7.406228q0 .256863.256864.72778-.813401 4.53792-1.45556 4.53792h-11.687284q-.556538 0-.984643-.214053-.428106.214053-.941833.214053h-3.596088q-.342484 0-.727779-.72778v-2.611445q0-5.265699-.470916-8.390871.256863-.428105.256863-.684969l-.470916-.256863q-4.709163 11.772906-5.736616 12.671928h-2.654255q-.556538-.08562-2.868308-11.473232h-.214053q-.72778 2.739876-3.596088 11.473232h-7.663091q-.72778-.385296-1.926476-6.678449h-4.53792q-.299674 0-3.339224 6.464396l-.470916.214053h-4.067004q-.470916 0-.470916-1.198696-2.097718 1.455559-5.736616 1.455559-7.149365 0-10.060483-7.192175-.214053-1.284317-.214053-2.140529v-2.397391q0-5.2657 6.207532-9.5467567 4.580731-2.6542551 8.818977-2.6542551zm76.28843.7277796q4.10981 0 6.20753 5.0088362v1.669612q0 1.412749-2.39739 4.53792 2.18334 2.311771 2.18334 4.580731 0 4.53792-5.99348 6.935312-.94183.214053-1.92648.214053h-9.54675q-.47092 0-.47092-.72778 2.39739-16.139584 3.81014-22.2186842zm16.26801 0h.72778q6.16473 0 8.34807 6.9353122.47091.8134.72777 3.81014 0 8.776166-8.60492 12.457875-.51373 0-2.65425.214053-5.00884 0-7.87715-6.678449l-.72778-3.81014q.64216-9.8892409 8.13401-12.4578749.89902-.4709163 1.92647-.4709163zm7.40623 0h4.79479q.29967 0 2.8683 6.9353122 4.19544-6.5500171 4.75198-6.9353122h4.79478q.47092.085621.47092.4709163v.2568634q-8.34806 12.5006855-8.34806 13.8706235-.98465 8.348061-1.66962 8.348061h-4.067q-.47092 0-.47092-.470917.68497-5.222889 1.66962-10.274536l-5.2657-11.7300949q.0856-.4709163.47091-.4709163zm-12.20101 11.2163682v2.868308q0 2.868308 2.86831 4.323868h.94183q4.36668 0 5.77943-8.134008-.72778-5.479753-4.32387-5.479753-3.21079 0-5.2657 6.421585zm-15.54023-5.950668q-.47092 2.525823-.47092 3.339224v.470916h2.39739q2.86831-.214053 2.86831-2.397392-.21405-.813401-1.45556-1.412748zm-60.962251 5.479752v.256863q.08562.470917.470916.470917h.470916l1.198696-.256864q-.470916-.856211-.470916-1.883665v-.984643h-.256864q-.256863 0-1.412748 2.397392zm59.549501 3.339224q-.51373 2.611445-.51373 3.852951l.51373.214053h3.08236q2.73987 0 3.12517-2.354581-.72778-1.712423-2.14053-1.712423zm40.15631 6.721259h4.79478q.47092 0 .47092 1.412749l1.41275-1.412749h.72778q.47091 0 .47091.72778-.55653 3.553277-1.19869 3.553277h-.21406q-.59934-.470916-.72778-.470916l-.72778.470916h-.21405q-.51372 0-.51372-.684969h-.47092q0 .684969-.47092.684969h-.25686q-.47092 0-.47092-.470916.47092-2.012097.47092-2.611445l-.47092-.256863q-.64216 0-1.41275 3.125171l-.47091.214053h-.25687q-.47091 0-.47091-.470916v-.214053q0-.214053.47091-1.926476v-.470916q-.94183 0-.94183-.72778.0428-.470916.47092-.470916zm-100.904507 3.810141q11.601663.727779 14.34154 5.993479 1.669612 1.712423 1.669612 5.2657 0 5.30851-3.810141 7.406228-1.712422.941832-3.596087.941832-4.966026 0-6.935312-5.008836 0-.941833-.72778-.941833h-1.412748q-4.580731 0-12.671928 9.80362-5.736616 9.161462-5.736616 15.754289 0 5.137268 4.53792 8.604924 3.03955 1.669612 8.348061 1.669612h.727779q.72778 0 .72778.256863l1.198696-.256863h.470916q10.488589-.470916 11.473232-.470916h.256863l1.669612.256863v-.470916q-1.669612-3.424846-1.669612-5.051647v-4.53792q0-6.635638 6.678449-17.209848 10.788262-11.730095 21.747768-11.730095 9.418324 0 17.937623 8.390871l4.06701 5.479752v-.214053q0-2.782686-3.81014-14.127487v-.727779q.98464-7.620281 7.62028-7.620281 3.85295 0 7.66309 6.678448 2.65425 4.152625 2.65425 33.477864.3853 3.81014.94184 3.81014h.25686q8.30525-2.868308 11.68729-2.868308h2.14052l.72778-.470916q-.21405-.470916-.21405-.72778 0-1.49837-.25686-3.553277 0-11.473232 10.74545-20.805935 8.30525-5.2657 16.52488-5.2657 11.08793 0 19.60724 8.134008 1.88366 2.26896 1.88366 2.868308h.51373v-.470917q-1.45556-5.907858-1.45556-6.464395 0-8.604924 12.92879-12.671928 2.39739-.72778 5.47975-.72778h2.3974q11.13074 0 21.74776 8.604924 2.14053 2.911119 2.14053 5.736616v.256864q0 11.002315-15.54023 19.136323l-.21406.470916q17.03861 13.314086 19.60724 16.482068.47092.899022.47092 1.926476v.72778q0 4.794783-5.73662 7.877144l-3.12517.470916q-2.18334 0-16.48207-12.415064l-6.20753-5.051647h-.25686v5.051647q0 7.962765-2.86831 10.017672-2.73988 1.198696-3.33922 1.198696h-1.1987q-4.19544 0-7.40623-5.008836-.72778-2.483013-.72778-4.53792 0-.599348 1.66961-7.192175l.25687-2.868308-.47092-.214053h-.25686q-1.96929 5.950669-11.21637 12.415064-9.63238 5.2657-18.66541 5.2657-7.44904 0-13.87062-5.522563h-.47092q-1.28431 1.669612-7.87714 2.868308-5.60819 0-13.87063 4.067004-2.73987.727779-4.32386.727779h-1.92648q-3.55327 0-5.00883-4.281056-1.66962-12.586307-1.66962-15.06932 0-.470916-.47091-.470916-2.61145 7.962765-10.060486 12.88598-8.091197 5.2657-17.680764 5.2657-8.390871 0-16.482068-5.736616 0 5.137268-6.464396 7.406228-2.397391 0-15.069319.470916-18.365733 0-24.402023-13.142844-2.140528-4.751972-2.140528-9.332703v-4.53792q0-8.818977 9.803619-22.004631 10.831074-14.34154 22.475548-14.34154zm153.518697 16.995795-.51373.684969q.51373 4.366678.51373 7.449038v.214053q.0428.470916.47091.470916h.47092q12.20101-2.953929 12.20101-6.421585-1.49837-2.183338-12.92879-2.183338 0-.214053-.21405-.214053zm-129.630401 19.136323v2.611445q0 5.265699 7.192175 8.604923 2.483013.72778 4.53792.72778 7.277797 0 10.745453-7.663091.513726-1.070264.513726-3.125172v-.214053q-.299673-9.717998-6.250342-12.928791h-3.810141q-5.094457 0-10.745452 6.464396-2.183339 3.382035-2.183339 5.522563zm78.428961-.984643v1.198696q0 7.962765 9.3327 10.531399h2.65426q7.57747 0 12.41506-7.877144 1.1987-3.296414 1.1987-5.2657 0-5.865047-7.87715-8.390871-2.65425-.214053-4.79478-.214053-.25686 0-.25686-.256863-4.8376 0-9.80362 4.323867-2.86831 3.510467-2.86831 5.950669z" fill="#00f" transform="scale(1.0452663 .95669401)"/><g fill="#008000" stroke-width="2.015714" transform="scale(.92461871 1.0815269)"><path d="m298.32602 49.891396c0 6.127772-.0806 19.673373-.40314 23.462916-1.53194.322514-6.53092 1.048172-8.38537 1.1288l-.48378 1.6932c2.41886-.161257 9.99795-.322514 14.19063-.322514 3.46703 0 11.44926.161257 13.14246.322514l-.40314-1.6932c-1.61257-.08063-5.644-.645029-7.82097-1.1288-.32252-2.983257-.64503-13.303715-.64503-21.52783v-2.822001c1.1288-.241885 29.67132-1.773828 33.46086-1.854457v4.676458c0 8.546629 0 18.786458-.48377 21.52783-1.45132.322514-6.7728 1.048172-7.98223 1.1288l-.40314 1.6932c2.74137-.161257 10.32045-.322514 13.78748-.322514 3.78955 0 12.01366.161257 13.5456.322514l-.40314-1.6932c-1.61257-.08063-6.53091-.806286-8.14349-1.1288-.5644-2.741372-.72565-16.045087-.72565-25.398002v-5.644001c0-2.176971.16125-18.786458.5644-20.39903 2.33823-.322514 6.61154-.967543 8.22411-1.1288l.48377-1.6932c-1.45131.161257-8.22411.322514-13.46497.322514-4.99897 0-12.49743-.161257-13.86811-.322514l.40314 1.6932c2.33823.161257 6.61154.806286 7.98223 1.1288.48377 2.015715.48377 12.336173.48377 18.625202v3.708914c-3.22514.5644-31.44515.241886-33.46086.241886v-3.9508c0-6.934058.32251-16.44823.64503-18.625202 1.29006-.322514 5.56337-.967543 7.82097-1.1288l.40314-1.6932c-1.29005.161257-8.14348.322514-13.14246.322514-5.16022 0-12.81994-.161257-14.19063-.322514l.40315 1.6932c2.01571.161257 7.01468.806286 8.466 1.1288.32251 2.660743.40314 17.818916.40314 20.39903z" fill="#f00" stroke-width="2.015714"/><path d="m397.31776 76.176312c2.17697-.161257 11.288-.322514 13.62623-.322514 4.27331 0 12.4168.161257 13.38434.322514l-.24189-1.6932c-2.41885-.322514-4.75708-.645029-7.09531-1.1288-3.70892-7.095315-8.70789-20.640916-10.96549-26.849317-3.06388-8.466-7.49846-21.124687-8.466-24.672344 1.85446-.483772 4.03143-.806286 6.12777-1.048172l.24189-1.6932c-2.33823.161257-10.40109.322514-13.78749.322514-1.37068 0-8.06286-.161257-10.48171-.322514l.0806 1.6932c1.93508.241886 4.59582.5644 6.36965 1.048172-1.1288 3.063885-17.17388 46.442061-20.07651 51.521661-2.17697.483771-4.59583.886914-6.93406 1.1288l-.24189 1.6932c1.85446-.161257 7.25658-.322514 9.35292-.322514 2.33823 0 9.67543.161257 12.17491.322514l-.32251-1.6932c-2.2576-.241886-4.91834-.5644-6.93406-1.1288.80629-6.208401 5.16023-21.447202 5.644-22.576002 2.98326-.483771 15.8032-1.048171 18.6252-1.048171 1.29006 2.338228 7.01469 19.431487 8.46601 23.624173-2.49949.5644-5.32149.886914-8.14349 1.1288zm-.48378-28.865031-16.932-.322514c.80629-2.660743 6.04715-16.609487 8.54663-23.785431h.16126c1.37069 4.434572 6.45029 18.786459 8.22411 24.107945z" fill="#008000"/><path d="m480.59826 37.555223c.0806-7.659715.5644-16.045087 1.77382-24.91423l-1.85445.403143c-.24189.967542-1.20943 6.127771-1.6932 7.175943-2.2576-.645029-9.75606-2.096343-16.85138-2.096343-8.14348 0-15.64194 1.048171-24.02731 6.692172-7.09532 4.757086-12.73932 12.981201-12.73932 24.107945 0 10.320458 6.2084 19.512116 16.69012 24.672345 6.53091 3.225143 15.31943 3.547657 18.30269 3.547657 12.65868 0 20.80217-3.305772 22.65663-4.837715l1.1288-3.467028c-5.72463 3.3864-12.98121 4.353943-19.10898 4.353943-17.01263 0-29.99383-13.303716-29.99383-29.026288 0-12.578059 9.27229-23.221031 23.94669-23.221031 10.40109 0 17.89954 5.805258 19.43149 9.352915.24188 1.370686.48377 5.160229.48377 6.692172z" fill="#ff0"/><path d="m499.11008 47.472538c0 11.529887-.16126 22.334117-.40314 25.881774-1.93509.483771-6.61155.967543-8.54663 1.1288l-.32252 1.6932c2.33823-.161257 9.99795-.322514 13.78749-.322514 4.35394 0 12.90057.161257 14.43251.322514l-.16125-1.6932c-1.20943-.161257-7.09532-.645029-9.19166-1.531943-.32251-2.983257-.40314-14.271258-.40314-21.285945v-1.935085c1.04817-.967543 3.54765-3.063886 5.0796-4.192686 2.2576 2.418857 29.42943 30.235716 35.71846 32.654574l2.74137-.886915c-4.19269-3.870171-27.41372-33.057717-30.55823-38.056689 3.3864-3.063886 18.38331-15.641944 21.85034-17.496401 2.09635-.5644 4.11206-.806286 5.32149-.967543l.48377-1.6932c-2.74137.161257-6.45029.322514-8.78851.322514-3.14452 0-8.86915-.161257-12.25555-.322514l.32252 1.6932c1.77382.241886 4.11205.645029 5.96651 1.1288-2.33823 3.9508-20.64092 19.592745-25.88177 24.188574v-2.499486c0-6.611544.0806-19.108973.40314-21.689088 1.85446-.322514 7.25657-.967543 8.22411-1.1288l.32252-1.6932c-1.53194.161257-10.23983.322514-13.22309.322514-3.30577 0-12.57806-.161257-14.19063-.322514l.24189 1.6932c1.93508.161257 6.69217.806286 8.62726 1.1288.24188 2.176972.40314 13.384344.40314 20.96343z" fill="#00f"/><path d="m557.46754 83.513513c.5644-2.983258 1.37068-6.853429 1.77382-8.385372 2.2576 1.209428 7.25658 2.015714 11.12675 2.015714 10.96548 0 19.83463-6.369658 19.83463-17.57703 0-10.159201-6.7728-14.674401-13.46497-18.867087-6.12778-3.870172-11.61052-6.692172-11.61052-11.93303 0-3.628286 2.90263-8.062858 9.83669-8.062858 5.644 0 9.83668 4.353944 10.7236 7.256572.16126 1.451315.32251 3.386401.32251 6.127772l1.85446.806286c0-6.611543.80629-14.110001 1.93509-22.09223l-1.85446.241886c-.48377 2.176971-.88692 4.595828-1.45132 6.530914-1.93508-.483771-6.12777-1.451314-10.88485-1.451314-11.93303 0-16.60949 7.901601-16.60949 14.19063 0 9.111029 6.28903 13.626229 14.19063 18.786458 5.24086 3.386401 10.32046 6.611544 10.32046 13.142459 0 5.966514-5.0796 10.159201-11.44926 10.159201-5.56337 0-10.32046-3.628287-12.49743-8.788516-.24189-1.451314-.64503-6.047143-.5644-7.095314l-1.85446-.483772c.24189 1.935086-.24188 10.642972-.24188 12.739315 0 3.144515-1.1288 12.094287-1.29006 13.223087z" fill="#c83737"/></g></svg>