<svg height="171.83997" viewBox="0 0 600.27198 171.83996" width="600.27197" xmlns="http://www.w3.org/2000/svg"><g fill="#f00" stroke-width="3.947145"><path d="m187.37265 120.83693v-23.127803q0-1.850224-.30837-3.083707-.23128-1.233483-1.23348-2.00441-.92511-.848019-2.77534-1.233483-1.85022-.385463-5.08811-.539648l.15418-2.775337q1.23348 0 2.92952.07709 1.77313 0 3.70045 0 2.00441 0 4.08591.07709 2.08151 0 3.93173 0 1.46476 0 3.23789 0 1.77313-.07709 3.46917-.07709 1.77313 0 3.31499 0 1.54185-.07709 2.62115-.07709l.15418 2.621151q-3.00661.231278-4.85683.770927-1.77314.462556-2.77534 1.541854-1.00221 1.002204-1.38767 2.852429-.30837 1.850224-.30837 4.702657v51.88337q0 1.85022.30837 3.0837.30837 1.23349 1.23348 2.08151 1.00221.77092 2.92953 1.15639 1.92731.38546 5.16521.53965l-.15419 2.77533q-1.23348 0-3.00661 0-1.77314-.0771-3.77755-.0771-2.00441 0-4.08591 0-2.0815-.0771-3.93172-.0771-1.54186 0-3.31499.0771-1.69604 0-3.39208 0-1.69604 0-3.23789.0771-1.46476 0-2.54406 0l-.23128-2.62115q3.00662-.23128 4.77975-.69383 1.77313-.53965 2.77534-1.54186 1.0022-1.07929 1.31057-2.85243.30837-1.85022.30837-4.77974v-24.2071h-41.24458v27.05953q0 1.85022.23128 3.0837.30837 1.23349 1.23348 2.08151 1.00221.77092 2.85243 1.15639 1.85022.38546 5.08812.53965l-.15419 2.77533q-1.23348 0-3.00661 0-1.69604-.0771-3.70045-.0771-1.92732-.0771-4.00882-.0771-2.0815-.0771-3.93173-.0771-1.46476 0-3.23789.0771-1.77313 0-3.54626 0-1.69604 0-3.2379.0771-1.54185 0-2.62115 0l-.15418-2.62115q3.00661-.23128 4.77974-.69384 1.85023-.53964 2.85243-1.54185 1.00221-1.0793 1.31058-2.85243.38546-1.85022.38546-4.77974v-51.806273q0-1.850224-.30837-3.083707-.30837-1.233483-1.31057-2.00441-.92512-.848019-2.85243-1.233483-1.92732-.385463-5.16521-.539648l.15418-2.775337h3.39208q1.92732 0 3.85463.07709 2.00441 0 3.85464 0h6.78415q1.77314 0 3.46917 0 1.77314-.07709 3.31499-.07709h2.62115l.23128 2.621151q-3.00662.231278-4.77975.770927-1.77313.462556-2.77533 1.541854-1.00221 1.002204-1.31058 2.852429-.30837 1.850224-.30837 4.702657v20.27537z"/><path d="m258.22082 134.71361h-25.67186l-5.93614 15.18726q-1.54185 4.39428-1.54185 5.55067 0 2.00441 1.85022 2.77534 1.92732.77093 6.78416 1.0022l-.23128 2.77534q-2.85243 0-6.39869-.0771-3.54627-.0771-7.01544-.0771-2.85242 0-5.93613.0771-3.00662.0771-5.85905.0771l-.15418-2.62115q3.00661-.23128 4.93393-.69384 1.92732-.53964 3.31499-1.85022 1.46476-1.38767 2.69824-3.70045 1.31058-2.38987 3.00661-6.3216l22.1256-52.19174q.92511-2.312781 1.54186-4.008819.69383-1.773132 1.46476-3.777542l4.85684-.616741q.84802 3.700448 1.77313 6.784156 1.0022 3.083707 1.85022 5.627765l17.34585 50.264421q1.15639 3.39208 2.08151 5.3194.92511 1.92732 2.15859 3.00661 1.23348 1.00221 3.08371 1.38767 1.92732.38547 4.93393.61674l-.23128 2.77534q-3.23789 0-7.16962-.0771-3.85463-.0771-7.78636-.0771-3.23789 0-6.55288.0771-3.31498.0771-6.55287.0771l-.23128-2.62115q4.31719-.30837 6.16741-1.00221 1.85023-.77092 1.85023-2.77533 0-.84802-.30837-1.92732-.30837-1.15639-.77093-2.54406zm-23.89873-4.47137h22.43397l-10.33042-30.528704z"/><path d="m300.85307 123.68936q0 7.4009 1.85023 13.95377 1.85022 6.47579 5.55067 11.33263 3.77754 4.77974 9.40531 7.63217 5.62776 2.77534 13.25994 2.77534 4.163 0 7.94054-1.15639 3.85464-1.15639 6.78416-3.77754 2.77534-2.46697 4.77975-6.01323 2.0815-3.62336 4.08591-8.4802l3.0837.77093q-1.31057 5.08812-2.0815 9.55949-.77092 4.47138-1.31057 9.55949-6.09032 1.77314-12.10355 2.77534-5.93614 1.00221-11.94937 1.00221-8.71147 0-16.11237-2.69825-7.3238-2.69824-12.72029-7.63217-5.31939-4.93393-8.32601-11.87228-3.00661-7.01543-3.00661-15.57272 0-9.86786 3.62335-17.19166 3.62336-7.4009 9.79077-12.334831 6.24451-4.933932 14.41633-7.323805 8.17183-2.466965 17.26876-2.466965 4.70266 0 10.02205.693834 5.39649.693834 10.02205 1.927317-.46256 4.933931-.61674 9.405306-.0771 4.394284-.0771 9.328214l-3.23789.30837q-.30837-4.54847-1.85022-7.86345-1.46476-3.39208-4.00882-5.550675-2.46697-2.235688-5.78195-3.237892-3.31499-1.079298-7.24671-1.079298-7.70927 0-13.56831 2.466966-5.85905 2.389873-9.86787 6.784155-3.93172 4.317194-6.01323 10.484604-2.00441 6.09032-2.00441 13.49122z"/><path d="m395.83125 90.693693q-3.0837.231278-5.01102.770927-1.85022.462556-2.92952 1.541854-1.0793 1.002204-1.46476 2.852429-.38547 1.773131-.38547 4.625557v21.97142q2.23569-.38547 4.00882-1.31058 1.85023-.92511 4.08592-2.92952 2.38987-2.23569 5.08811-4.93393 2.69825-2.69825 5.3194-5.47358 2.69824-2.85243 5.16521-5.62777 2.46696-2.775334 4.39428-5.165207 1.0793-1.387668 1.54185-2.466966.53965-1.079297 0-1.850224-.53965-.84802-2.23568-1.310576-1.61895-.462556-4.77975-.616741l.15418-2.698244q1.0793 0 2.77534.07709 1.69604 0 3.54626 0 1.92732 0 3.85464.07709 2.00441 0 3.70045 0 1.46476 0 3.39207 0 2.00441-.07709 3.93173-.07709 2.00441 0 3.70045 0 1.69604-.07709 2.77534-.07709l.23127 2.621151q-2.77533.231278-5.08811.770927-2.23569.539649-4.39429 1.541854-2.0815 1.002204-4.163 2.544058-2.0815 1.464761-4.39428 3.623356-1.69604 1.541852-4.16301 3.931722-2.38987 2.38988-5.2423 5.3194-2.77534 2.85243-5.85904 6.01323-3.08371 3.0837-6.01323 6.09032 3.23789 4.00882 6.86125 8.48019 3.70045 4.47138 7.24671 8.71148 3.62335 4.163 6.70706 7.78636 3.1608 3.54626 5.2423 5.70485 2.31278 2.38988 3.85464 3.85464 1.61894 1.46476 3.0837 2.38987 1.46477.84802 3.1608 1.23348 1.69604.38547 4.31719.61675l-.15418 2.77533q-2.92952 0-6.47579-.0771-3.46917-.0771-6.93834-.0771-1.07929 0-2.31278.0771-1.15639 0-2.23569.0771-.61674-1.15639-2.15859-3.23789-1.54185-2.0815-3.70045-4.77975-2.15859-2.69824-4.77974-5.78195-2.54406-3.1608-5.3194-6.39869-2.69824-3.31498-5.47358-6.47578-2.69824-3.2379-5.08812-6.09033-1.54185-1.77313-2.85243-2.46696-1.23348-.77093-2.54405-.77093-.84802 0-1.77314.23128v26.13442q0 1.85022.30838 3.0837.30837 1.23349 1.31057 2.08151 1.0793.77092 3.00662 1.15639 2.00441.38546 5.31939.53965l-.15419 2.77533q-1.23348 0-3.0837 0-1.77313-.0771-3.85464-.0771-2.0815 0-4.24009 0-2.08151-.0771-3.93173-.0771-1.54185 0-3.39208.0771-1.77313 0-3.62335 0-1.85023 0-3.46917.0771-1.61895 0-2.69825 0l-.23128-2.62115q3.2379-.23128 5.16521-.69383 1.92732-.53965 2.92953-1.54186 1.07929-1.07929 1.38766-2.85243.38547-1.85022.38547-4.77974v-51.883373q0-1.850224-.30837-3.083707-.30837-1.233483-1.38767-2.00441-1.00221-.848019-3.00662-1.233483-2.00441-.385463-5.31939-.539648l.15418-2.775337q1.23349 0 3.08371.07709 1.85023 0 3.93173 0 2.0815 0 4.2401.07709 2.15859 0 4.00881 0 1.46477 0 3.2379 0 1.85022-.07709 3.62335-.07709 1.85023 0 3.46917 0 1.61895-.07709 2.69825-.07709z"/><path d="m445.86442 140.57266q1.54185 4.00881 3.23789 7.40089 1.77313 3.39208 4.16301 5.93614 2.46696 2.46696 5.70485 3.93173 3.2379 1.38766 7.78636 1.38766 3.00662 0 5.55068-1.0022 2.54406-1.00221 4.47137-2.85243 1.92732-1.85022 3.00662-4.31719 1.07929-2.54406 1.07929-5.55067 0-3.77754-1.38766-6.47579-1.38767-2.69824-3.70045-4.62556-2.31278-2.00441-5.2423-3.46917-2.92953-1.46476-6.01323-2.85243-3.46917-1.54185-7.01544-3.39208-3.46917-1.85022-6.2445-4.39428-2.77534-2.54406-4.54847-5.85904-1.77313-3.31499-1.77313-7.86346 0-4.85683 1.92731-8.557282 2.00441-3.777542 5.3194-6.3216 3.39208-2.544058 7.78636-3.854634 4.47137-1.310575 9.4824-1.310575 4.85684 0 8.94275.770926 4.163.693835 8.86566 1.927317-.23128 2.466966-.38547 4.625561-.15418 2.081502-.23128 4.163005 0 2.004412-.0771 4.163002 0 2.0815 0 4.54847l-3.23789.30837q-.69383-8.171823-5.01102-12.180642-4.2401-4.085912-11.48681-4.085912-2.77534 0-5.08812.848019-2.31278.84802-4.00882 2.466966-1.69604 1.618946-2.69824 3.854634-.92511 2.235685-.92511 5.011025 0 3.70045 1.15639 6.24451 1.23348 2.46696 3.31498 4.31719 2.0815 1.85022 4.77975 3.23789 2.77533 1.31057 5.78195 2.62115 3.70045 1.61895 7.40089 3.54626 3.77755 1.92732 6.70707 4.54847 3.00661 2.62115 4.85684 6.09032 1.85022 3.46917 1.85022 8.17183 0 5.2423-2.15859 9.32821-2.1586 4.00882-5.70486 6.86125-3.54627 2.77533-8.17183 4.2401-4.62556 1.46476-9.4824 1.46476-4.24009 0-8.78856-.84802-4.54847-.84802-9.63659-2.31278-.53964-5.08812-1.31057-9.5595-.77093-4.47137-2.0815-9.55949z"/></g><path d="m152.62194 10.643699h2.9491q7.43977 0 14.47739 3.016124-1.54157 12.734746-2.9491 12.734746-5.69712-2.077775-11.52829-2.077775-21.64907 0-29.75909 18.699969-.87133 3.753398-.87133 5.965223 0 10.589946 10.65698 14.879544l5.49604.871325q6.83655 0 6.83655-4.691748 0-1.273475.40215-2.949099h-9.31647l-.87133-.469175q1.6086-11.863421 2.54695-11.863421h22.98957q.87133.06703.87133.8043l-3.01613 20.040468v.402149h.46918q17.02434-39.61176 23.79386-53.61998h15.34872q1.47455 0 4.2896 21.716092.40215.40215 5.0939 29.356939h.40215q3.01612-10.656971 16.62219-51.073031h12.3326q1.27347 0 6.83655 34.450837 1.27347-1.675624 15.28169-34.450837h14.94657q.93835 0 1.27347 2.077774 0 7.439772 2.54695 62.199178l-.87132.40215h-11.93045q-.8043 0-.8043-.8043-1.27347-33.512488-1.74265-37.936137h-.40215q-15.54979 37.399937-17.02434 38.740437h-7.70787q-1.40753 0-7.64085-34.920013h-.87132q-4.22258 14.81252-11.05913 34.920013h-21.71609q-1.00537 0-4.22257-19.571293h-14.4774q-.73727.134049-8.11002 17.493518-1.27347 2.077775-1.67562 2.077775h-12.39962q-.8043 0-.8043-.8043 1.27347-2.144799 1.27347-3.418274-7.84192 4.691748-16.62219 4.691748h-1.27348q-20.57666 0-28.55264-20.442617-.40215-4.289599-.40215-6.434398v-2.949099q0-25.469491 31.09959-35.791337 5.96523-1.273475 9.78565-1.273475zm140.0822 1.74265h34.92001q.8043.13405.8043.804299-1.54157 13.203921-2.9491 13.203921h-22.11824l-1.74265 11.126146h19.16914q.87133.06702.87133.804299-1.6086 13.203921-2.54695 13.203921h-19.63832q0 1.206449-1.67562 11.059121l.87132.469175h21.24692l.87132.402149q-1.94372 13.606071-2.94909 13.606071h-35.38919q-.8043 0-.8043-.8043 9.78564-61.998103 10.18779-63.472652zm127.28043 0h.87132q16.42112 0 23.39172 19.571293 1.27347 3.083149 1.74265 10.656971 0 22.118242-20.44262 33.646538-4.89282 1.675624-8.51217 1.675624h-3.01612q-14.2093 0-21.7161-18.766993-1.67562-4.289599-1.67562-10.187796v-2.1448q0-22.788492 22.58742-33.646538 4.82579-.804299 6.76952-.804299zm19.16914 0h13.60607q1.27348 0 8.51217 20.442617h.87133q10.92507-18.632943 12.80177-20.442617h14.87954v.804299q-21.98419 34.048688-23.39171 37.936137-3.88745 25.938666-4.69175 25.938666h-11.93045l-.87132-.40215 4.69175-30.228265-15.34872-33.646537zm-65.14827.40215q6.76952 0 13.20392 8.914321 2.14479 3.887449 2.14479 7.707873 0 6.568447-6.83654 14.00822v.469174q5.96522 6.635473 5.96522 12.332596v1.273475q0 11.796395-16.15302 18.766993-2.34587.40215-3.82042.40215h-29.42397l-.8043-.40215q9.78565-61.931078 10.58995-63.472652zm30.22826 38.338286q2.07777 14.00822 10.65697 14.00822h1.27347q9.71863 0 15.34872-17.426494.8043-5.361998.8043-6.367373-1.6086-16.220044-11.46127-16.220044h-.40215q-11.52829 0-16.22004 20.442618zm-44.30351-24.732216q-1.67562 10.455896-1.67562 11.930445h6.83654q9.31647 0 9.31647-5.965222v-1.273475q0-4.691748-7.23869-4.691748zm-169.84129 7.238697-4.69175 11.126146h.40215q.46918 0 .46918.40215l2.9491-.40215h2.1448l.87132.40215.40215-.871325q-1.6086-10.656971-2.54695-10.656971zm163.94309 30.697439h8.51217q11.86342 0 11.86342-7.238697-.87132-5.563073-8.04299-5.563073h-9.78565q-1.00537 0-2.54695 12.80177zm117.49479 3.820424h1.27347q4.22257.804299 4.22257 4.222573v1.273475q0 3.418274-4.62472 4.289598-5.16092-.5362-5.16092-4.691748.46917-5.093898 4.2896-5.093898zm-3.01613 4.691748v.40215q0 3.418274 3.41828 3.418274h1.74264q1.80968-1.005375 2.54695-3.418274-.73727-4.222574-4.28959-4.222574-2.74803 0-3.41828 3.820424zm1.74265-2.546949h3.41827q.8043.13405.8043.8043v1.273474q0 .871325-1.27347.871325l1.27347 2.144799v.40215h-.40215q-.2681 0-2.54694-2.546949 0 2.546949-.87133 2.546949l-.40215-.8043zm1.27348.8043v1.273474h1.67562v-1.273474z" fill="#000080"/></svg>