<svg height="171.83997" viewBox="0 0 600.27198 171.83996" width="600.27197" xmlns="http://www.w3.org/2000/svg"><g fill="#f00" stroke-width="3.947145"><path d="m187.37265 120.83693v-23.127803q0-1.850224-.30837-3.083707-.23128-1.233483-1.23348-2.00441-.92511-.848019-2.77534-1.233483-1.85022-.385463-5.08811-.539648l.15418-2.775337q1.23348 0 2.92952.07709 1.77313 0 3.70045 0 2.00441 0 4.08591.07709 2.08151 0 3.93173 0 1.46476 0 3.23789 0 1.77313-.07709 3.46917-.07709 1.77313 0 3.31499 0 1.54185-.07709 2.62115-.07709l.15418 2.621151q-3.00661.231278-4.85683.770927-1.77314.462556-2.77534 1.541854-1.00221 1.002204-1.38767 2.852429-.30837 1.850224-.30837 4.702657v51.88337q0 1.85022.30837 3.0837.30837 1.23349 1.23348 2.08151 1.00221.77092 2.92953 1.15639 1.92731.38546 5.16521.53965l-.15419 2.77533q-1.23348 0-3.00661 0-1.77314-.0771-3.77755-.0771-2.00441 0-4.08591 0-2.0815-.0771-3.93172-.0771-1.54186 0-3.31499.0771-1.69604 0-3.39208 0-1.69604 0-3.23789.0771-1.46476 0-2.54406 0l-.23128-2.62115q3.00662-.23128 4.77975-.69383 1.77313-.53965 2.77534-1.54186 1.0022-1.07929 1.31057-2.85243.30837-1.85022.30837-4.77974v-24.2071h-41.24458v27.05953q0 1.85022.23128 3.0837.30837 1.23349 1.23348 2.08151 1.00221.77092 2.85243 1.15639 1.85022.38546 5.08812.53965l-.15419 2.77533q-1.23348 0-3.00661 0-1.69604-.0771-3.70045-.0771-1.92732-.0771-4.00882-.0771-2.0815-.0771-3.93173-.0771-1.46476 0-3.23789.0771-1.77313 0-3.54626 0-1.69604 0-3.2379.0771-1.54185 0-2.62115 0l-.15418-2.62115q3.00661-.23128 4.77974-.69384 1.85023-.53964 2.85243-1.54185 1.00221-1.0793 1.31058-2.85243.38546-1.85022.38546-4.77974v-51.806273q0-1.850224-.30837-3.083707-.30837-1.233483-1.31057-2.00441-.92512-.848019-2.85243-1.233483-1.92732-.385463-5.16521-.539648l.15418-2.775337h3.39208q1.92732 0 3.85463.07709 2.00441 0 3.85464 0h6.78415q1.77314 0 3.46917 0 1.77314-.07709 3.31499-.07709h2.62115l.23128 2.621151q-3.00662.231278-4.77975.770927-1.77313.462556-2.77533 1.541854-1.00221 1.002204-1.31058 2.852429-.30837 1.850224-.30837 4.702657v20.27537z"/><path d="m258.22082 134.71361h-25.67186l-5.93614 15.18726q-1.54185 4.39428-1.54185 5.55067 0 2.00441 1.85022 2.77534 1.92732.77093 6.78416 1.0022l-.23128 2.77534q-2.85243 0-6.39869-.0771-3.54627-.0771-7.01544-.0771-2.85242 0-5.93613.0771-3.00662.0771-5.85905.0771l-.15418-2.62115q3.00661-.23128 4.93393-.69384 1.92732-.53964 3.31499-1.85022 1.46476-1.38767 2.69824-3.70045 1.31058-2.38987 3.00661-6.3216l22.1256-52.19174q.92511-2.312781 1.54186-4.008819.69383-1.773132 1.46476-3.777542l4.85684-.616741q.84802 3.700448 1.77313 6.784156 1.0022 3.083707 1.85022 5.627765l17.34585 50.264421q1.15639 3.39208 2.08151 5.3194.92511 1.92732 2.15859 3.00661 1.23348 1.00221 3.08371 1.38767 1.92732.38547 4.93393.61674l-.23128 2.77534q-3.23789 0-7.16962-.0771-3.85463-.0771-7.78636-.0771-3.23789 0-6.55288.0771-3.31498.0771-6.55287.0771l-.23128-2.62115q4.31719-.30837 6.16741-1.00221 1.85023-.77092 1.85023-2.77533 0-.84802-.30837-1.92732-.30837-1.15639-.77093-2.54406zm-23.89873-4.47137h22.43397l-10.33042-30.528704z"/><path d="m300.85307 123.68936q0 7.4009 1.85023 13.95377 1.85022 6.47579 5.55067 11.33263 3.77754 4.77974 9.40531 7.63217 5.62776 2.77534 13.25994 2.77534 4.163 0 7.94054-1.15639 3.85464-1.15639 6.78416-3.77754 2.77534-2.46697 4.77975-6.01323 2.0815-3.62336 4.08591-8.4802l3.0837.77093q-1.31057 5.08812-2.0815 9.55949-.77092 4.47138-1.31057 9.55949-6.09032 1.77314-12.10355 2.77534-5.93614 1.00221-11.94937 1.00221-8.71147 0-16.11237-2.69825-7.3238-2.69824-12.72029-7.63217-5.31939-4.93393-8.32601-11.87228-3.00661-7.01543-3.00661-15.57272 0-9.86786 3.62335-17.19166 3.62336-7.4009 9.79077-12.334831 6.24451-4.933932 14.41633-7.323805 8.17183-2.466965 17.26876-2.466965 4.70266 0 10.02205.693834 5.39649.693834 10.02205 1.927317-.46256 4.933931-.61674 9.405306-.0771 4.394284-.0771 9.328214l-3.23789.30837q-.30837-4.54847-1.85022-7.86345-1.46476-3.39208-4.00882-5.550675-2.46697-2.235688-5.78195-3.237892-3.31499-1.079298-7.24671-1.079298-7.70927 0-13.56831 2.466966-5.85905 2.389873-9.86787 6.784155-3.93172 4.317194-6.01323 10.484604-2.00441 6.09032-2.00441 13.49122z"/><path d="m395.83125 90.693693q-3.0837.231278-5.01102.770927-1.85022.462556-2.92952 1.541854-1.0793 1.002204-1.46476 2.852429-.38547 1.773131-.38547 4.625557v21.97142q2.23569-.38547 4.00882-1.31058 1.85023-.92511 4.08592-2.92952 2.38987-2.23569 5.08811-4.93393 2.69825-2.69825 5.3194-5.47358 2.69824-2.85243 5.16521-5.62777 2.46696-2.775334 4.39428-5.165207 1.0793-1.387668 1.54185-2.466966.53965-1.079297 0-1.850224-.53965-.84802-2.23568-1.310576-1.61895-.462556-4.77975-.616741l.15418-2.698244q1.0793 0 2.77534.07709 1.69604 0 3.54626 0 1.92732 0 3.85464.07709 2.00441 0 3.70045 0 1.46476 0 3.39207 0 2.00441-.07709 3.93173-.07709 2.00441 0 3.70045 0 1.69604-.07709 2.77534-.07709l.23127 2.621151q-2.77533.231278-5.08811.770927-2.23569.539649-4.39429 1.541854-2.0815 1.002204-4.163 2.544058-2.0815 1.464761-4.39428 3.623356-1.69604 1.541852-4.16301 3.931722-2.38987 2.38988-5.2423 5.3194-2.77534 2.85243-5.85904 6.01323-3.08371 3.0837-6.01323 6.09032 3.23789 4.00882 6.86125 8.48019 3.70045 4.47138 7.24671 8.71148 3.62335 4.163 6.70706 7.78636 3.1608 3.54626 5.2423 5.70485 2.31278 2.38988 3.85464 3.85464 1.61894 1.46476 3.0837 2.38987 1.46477.84802 3.1608 1.23348 1.69604.38547 4.31719.61675l-.15418 2.77533q-2.92952 0-6.47579-.0771-3.46917-.0771-6.93834-.0771-1.07929 0-2.31278.0771-1.15639 0-2.23569.0771-.61674-1.15639-2.15859-3.23789-1.54185-2.0815-3.70045-4.77975-2.15859-2.69824-4.77974-5.78195-2.54406-3.1608-5.3194-6.39869-2.69824-3.31498-5.47358-6.47578-2.69824-3.2379-5.08812-6.09033-1.54185-1.77313-2.85243-2.46696-1.23348-.77093-2.54405-.77093-.84802 0-1.77314.23128v26.13442q0 1.85022.30838 3.0837.30837 1.23349 1.31057 2.08151 1.0793.77092 3.00662 1.15639 2.00441.38546 5.31939.53965l-.15419 2.77533q-1.23348 0-3.0837 0-1.77313-.0771-3.85464-.0771-2.0815 0-4.24009 0-2.08151-.0771-3.93173-.0771-1.54185 0-3.39208.0771-1.77313 0-3.62335 0-1.85023 0-3.46917.0771-1.61895 0-2.69825 0l-.23128-2.62115q3.2379-.23128 5.16521-.69383 1.92732-.53965 2.92953-1.54186 1.07929-1.07929 1.38766-2.85243.38547-1.85022.38547-4.77974v-51.883373q0-1.850224-.30837-3.083707-.30837-1.233483-1.38767-2.00441-1.00221-.848019-3.00662-1.233483-2.00441-.385463-5.31939-.539648l.15418-2.775337q1.23349 0 3.08371.07709 1.85023 0 3.93173 0 2.0815 0 4.2401.07709 2.15859 0 4.00881 0 1.46477 0 3.2379 0 1.85022-.07709 3.62335-.07709 1.85023 0 3.46917 0 1.61895-.07709 2.69825-.07709z"/><path d="m445.86442 140.57266q1.54185 4.00881 3.23789 7.40089 1.77313 3.39208 4.16301 5.93614 2.46696 2.46696 5.70485 3.93173 3.2379 1.38766 7.78636 1.38766 3.00662 0 5.55068-1.0022 2.54406-1.00221 4.47137-2.85243 1.92732-1.85022 3.00662-4.31719 1.07929-2.54406 1.07929-5.55067 0-3.77754-1.38766-6.47579-1.38767-2.69824-3.70045-4.62556-2.31278-2.00441-5.2423-3.46917-2.92953-1.46476-6.01323-2.85243-3.46917-1.54185-7.01544-3.39208-3.46917-1.85022-6.2445-4.39428-2.77534-2.54406-4.54847-5.85904-1.77313-3.31499-1.77313-7.86346 0-4.85683 1.92731-8.557282 2.00441-3.777542 5.3194-6.3216 3.39208-2.544058 7.78636-3.854634 4.47137-1.310575 9.4824-1.310575 4.85684 0 8.94275.770926 4.163.693835 8.86566 1.927317-.23128 2.466966-.38547 4.625561-.15418 2.081502-.23128 4.163005 0 2.004412-.0771 4.163002 0 2.0815 0 4.54847l-3.23789.30837q-.69383-8.171823-5.01102-12.180642-4.2401-4.085912-11.48681-4.085912-2.77534 0-5.08812.848019-2.31278.84802-4.00882 2.466966-1.69604 1.618946-2.69824 3.854634-.92511 2.235685-.92511 5.011025 0 3.70045 1.15639 6.24451 1.23348 2.46696 3.31498 4.31719 2.0815 1.85022 4.77975 3.23789 2.77533 1.31057 5.78195 2.62115 3.70045 1.61895 7.40089 3.54626 3.77755 1.92732 6.70707 4.54847 3.00661 2.62115 4.85684 6.09032 1.85022 3.46917 1.85022 8.17183 0 5.2423-2.15859 9.32821-2.1586 4.00882-5.70486 6.86125-3.54627 2.77533-8.17183 4.2401-4.62556 1.46476-9.4824 1.46476-4.24009 0-8.78856-.84802-4.54847-.84802-9.63659-2.31278-.53964-5.08812-1.31057-9.5595-.77093-4.47137-2.0815-9.55949z"/></g><path d="m272.78922 5.4382562h.58258v.6311306q-10.48648 19.6621462-11.84583 20.0019852h-103.89381q-14.03052 9.661153-16.26375 11.894385v21.895377l-.63113 1.262261q2.52452 1.31081 16.89488 11.263254h286.58184q16.36085-10.437929 16.89488-11.894384v-23.157639q-17.18617-11.263254-19.37085-11.263254h-102.00042q-2.67017-3.010007-11.26325-19.3708546v-.6311306h1.21371q8.39889 16.9919782 10.68067 18.7882732h103.21413q18.44844 11.894384 18.78828 13.108097v23.157638q-.14565.776776-18.15715 12.525516h-286.58184q-15.87536-10.243736-17.52601-12.525516v-23.788769q0-.534033 17.52601-12.476966h104.47639q6.5055-13.884874 10.68067-19.4194038zm2.47597 3.7382351h50.68465q1.26226.3883881 11.89438 20.0505337h68.84179q1.4079 0 2.47597-.63113 1.11662.63113 2.52452.63113 1.40791 0 2.52452-.63113 1.06807.63113 2.47598.63113.48548 0 3.73823-.63113.63113 0 .63113.63113l3.15566-.63113h16.26375q3.93243 0 17.52601 11.263254v19.419403q-.0485 1.019519-15.05004 10.632123h-284.05732q-15.05004-10.243735-15.05004-10.632123v-19.419403q1.31081-2.087586 14.41891-10.632124 40.6351-.63113 63.21016-.63113h.63113q2.23323 0 5.63162.63113.58259 0 .58259-.63113l3.15565.63113h31.89637q11.3118-20.0505337 11.89438-20.0505337zm11.26326 5.0490447h-5.0005q-4.36936 0-4.36936 5.000497 1.06806 3.107104 3.1071 3.107104v1.262261h-3.1071v1.262262q0 .63113.63113.63113l-.63113 1.213713v1.262261h6.26275q4.36937 0 4.36937-3.738235h1.26226q0 3.738235 4.36937 3.738235h6.26275v-1.262261q0-.631131-.63113-.631131l.63113-1.213712v-1.262262q-1.55355 0-1.89339-2.524522.63113-1.213713.63113-1.844843-.63113 0-.63113-.631131l-1.26226.631131h-1.84484v-1.262262h5.00049v-1.262261h-7.52502v1.262261h-1.26226v-.63113q0-.922422 1.8934-1.893392h6.89388v-.631131l-.63113-1.213712-2.52452.63113-3.1071-.63113q-2.23324.291291-5.0005 3.738235l-.63113-1.262261-1.26226.63113h-5.63163v-1.262261h7.52502v-.631131l-.63113-1.213712zm14.4189 1.844844v10.000992q.58259 1.893392 3.73824 1.893392h7.52502q.58258 0 .58258-.631131l1.26226.631131h1.89339q0-2.475974 1.26226-2.475974h.63114l-.63114 1.213713v1.262261h7.47648v-.631131q-3.25275-13.739227-6.84534-13.739227h-.63114q-2.67016 0-5.00049 11.894384h-1.26226v-6.262757h-3.78679q-1.21371 0-1.21371-1.262262h5.0005v-1.262261h-7.52502v-1.262261h7.52502v-1.844843l-1.26226.63113-4.36937-.63113q-4.36937.825324-4.36937 2.475974zm1.84485.63113h.63113v1.262261h-.63113zm-20.63312 1.262261h6.89389v5.000497h-1.26226q0-2.718717-2.52452-3.738235h-3.10711zm22.52651.631131h1.26226q0 1.844843.63113 1.844843-.63113 1.116616-.63113 2.524523h-1.26226zm-25.05103.631131q1.26226.194194 1.26226 1.213712h-1.26226zm11.26325 1.213712h1.26226v1.262261h-1.26226zm-5.63162 1.893392h1.26226v1.893392h-1.26226zm31.94491 0h1.21372v.631131h-1.21372zm-25.68216 1.893392q1.26227.194194 1.26227 1.262261h-1.26227zm-135.79017 17.526011v21.264247q.19419 1.262261 1.26226 1.262261h28.15813q9.03002-6.262757 10.00099-6.262757v-11.263254l.63114-1.262261q-.63114 0-.63114-.631131l-1.26226.631131h-11.26325q-6.6026 4.369365-7.47647 4.369365v.631131h9.36986q1.26226.194194 1.26226 1.262261v5.631627q0 1.262261-1.26226 1.262261h-17.52601q-1.26226 0-1.26226-1.262261v-16.26375q.19419-1.262261 1.26226-1.262261h19.4194q2.86437 0 10.001-5.631627-1.26227 0-1.26227.63113l-6.26275-.63113h-20.63312q-3.39839 0-12.52551 7.525018zm80.10503-6.893888h-21.89537q-2.96146 0-11.26326 6.893888v22.526508h26.26475q2.86436 0 10.04954-5.631627h-25.05103q-1.26226 0-1.26226-1.262261v-4.369366q.19419-1.262261 1.26226-1.262261h8.73873q2.91291 0 8.78728-5.000496h-17.52601q-1.26226 0-1.26226-1.262261v-4.369366q.19419-1.262261 1.26226-1.262261h15.00149q2.86436 0 10.04954-5.631627zm12.52552-.63113v30.051526h8.73873q1.26226 0 1.26226-1.262261v-19.419403l.63113-1.213713q19.41941 10.486478 19.41941 11.263254v10.632123h8.73873q1.26226 0 1.26226-1.262261v-27.527004q0-1.262261-1.26226-1.262261h-8.73873v9.369862q0 1.262261-1.26226 1.262261-14.27327-8.738731-20.68167-10.632123zm45.05302 7.525018v21.264247q.19419 1.262261 1.26226 1.262261h26.89587q7.37937-5.000496 8.73873-5.000496v-.631131h-25.63361q-1.26226 0-1.26226-1.262261v-3.738235q.19419-1.262261 1.26226-1.262261h7.52502q1.84484 0 10.63212-5.000497v-.63113h-18.15714q-1.26226 0-1.26226-1.262261v-4.369366q.19419-1.262261 1.26226-1.262261h15.00149q3.25275 0 10.00099-5.631627h-23.74022q-3.44694 0-12.52551 7.525018zm41.31478-1.262261v10.632124q.19419 1.262261 1.21371 1.262261 21.50699-.631131 27.527-.631131l.63113 1.262261v4.369366q0 1.262261-1.21371 1.262261h-18.78827q-7.37937 5.000497-8.78728 5.000497v.63113h29.42039q9.17567-5.146141 10.001-6.893888v-10.632123h-28.15814q-1.21371 0-1.21371-1.262261v-3.738236q.19419-1.262261 1.21371-1.262261h17.52601q1.65065 0 10.04955-5.000496v-.631131h-28.15814q-1.21371 0-11.26325 5.631627zm47.52899-5.631627v29.420396h10.00099v-29.420396zm18.15714 5.631627v11.263254h28.15813q1.26226.194194 1.26226 1.262261v4.369366q0 1.262261-1.26226 1.262261h-18.78827q-7.57357 5.000497-8.73873 5.000497v.63113h27.527q3.44695 0 11.89439-6.893888v-10.632123h-28.78927q-1.26226 0-1.26226-1.262261v-3.738236q.1942-1.262261 1.26226-1.262261h19.41941q7.71921-5.000496 8.73873-5.000496v-.631131h-28.15814q-1.21371 0-11.26325 5.631627zm42.52849-5.631627v.631131h1.26226v-.631131zm2.52452 0v1.262262h.63113v-1.262262zm1.8934 0v1.262262h1.21371v-1.262262zm-142.68407 6.893888v3.107105h5.0005v-.631131q-2.52453 0-2.52453-2.475974zm-13.15665 3.107105v8.78728h.63113v-8.78728zm13.15665 8.78728v3.107105h.63113q2.47597-2.524523 4.36937-2.524523v-.582582z" fill="#000080"/></svg>