<svg height="171.83997" viewBox="0 0 600.27198 171.83996" width="600.27197" xmlns="http://www.w3.org/2000/svg"><g fill="#f00" stroke-width="3.947145"><path d="m187.37265 120.83693v-23.127803q0-1.850224-.30837-3.083707-.23128-1.233483-1.23348-2.00441-.92511-.848019-2.77534-1.233483-1.85022-.385463-5.08811-.539648l.15418-2.775337q1.23348 0 2.92952.07709 1.77313 0 3.70045 0 2.00441 0 4.08591.07709 2.08151 0 3.93173 0 1.46476 0 3.23789 0 1.77313-.07709 3.46917-.07709 1.77313 0 3.31499 0 1.54185-.07709 2.62115-.07709l.15418 2.621151q-3.00661.231278-4.85683.770927-1.77314.462556-2.77534 1.541854-1.00221 1.002204-1.38767 2.852429-.30837 1.850224-.30837 4.702657v51.88337q0 1.85022.30837 3.0837.30837 1.23349 1.23348 2.08151 1.00221.77092 2.92953 1.15639 1.92731.38546 5.16521.53965l-.15419 2.77533q-1.23348 0-3.00661 0-1.77314-.0771-3.77755-.0771-2.00441 0-4.08591 0-2.0815-.0771-3.93172-.0771-1.54186 0-3.31499.0771-1.69604 0-3.39208 0-1.69604 0-3.23789.0771-1.46476 0-2.54406 0l-.23128-2.62115q3.00662-.23128 4.77975-.69383 1.77313-.53965 2.77534-1.54186 1.0022-1.07929 1.31057-2.85243.30837-1.85022.30837-4.77974v-24.2071h-41.24458v27.05953q0 1.85022.23128 3.0837.30837 1.23349 1.23348 2.08151 1.00221.77092 2.85243 1.15639 1.85022.38546 5.08812.53965l-.15419 2.77533q-1.23348 0-3.00661 0-1.69604-.0771-3.70045-.0771-1.92732-.0771-4.00882-.0771-2.0815-.0771-3.93173-.0771-1.46476 0-3.23789.0771-1.77313 0-3.54626 0-1.69604 0-3.2379.0771-1.54185 0-2.62115 0l-.15418-2.62115q3.00661-.23128 4.77974-.69384 1.85023-.53964 2.85243-1.54185 1.00221-1.0793 1.31058-2.85243.38546-1.85022.38546-4.77974v-51.806273q0-1.850224-.30837-3.083707-.30837-1.233483-1.31057-2.00441-.92512-.848019-2.85243-1.233483-1.92732-.385463-5.16521-.539648l.15418-2.775337h3.39208q1.92732 0 3.85463.07709 2.00441 0 3.85464 0h6.78415q1.77314 0 3.46917 0 1.77314-.07709 3.31499-.07709h2.62115l.23128 2.621151q-3.00662.231278-4.77975.770927-1.77313.462556-2.77533 1.541854-1.00221 1.002204-1.31058 2.852429-.30837 1.850224-.30837 4.702657v20.27537z"/><path d="m258.22082 134.71361h-25.67186l-5.93614 15.18726q-1.54185 4.39428-1.54185 5.55067 0 2.00441 1.85022 2.77534 1.92732.77093 6.78416 1.0022l-.23128 2.77534q-2.85243 0-6.39869-.0771-3.54627-.0771-7.01544-.0771-2.85242 0-5.93613.0771-3.00662.0771-5.85905.0771l-.15418-2.62115q3.00661-.23128 4.93393-.69384 1.92732-.53964 3.31499-1.85022 1.46476-1.38767 2.69824-3.70045 1.31058-2.38987 3.00661-6.3216l22.1256-52.19174q.92511-2.312781 1.54186-4.008819.69383-1.773132 1.46476-3.777542l4.85684-.616741q.84802 3.700448 1.77313 6.784156 1.0022 3.083707 1.85022 5.627765l17.34585 50.264421q1.15639 3.39208 2.08151 5.3194.92511 1.92732 2.15859 3.00661 1.23348 1.00221 3.08371 1.38767 1.92732.38547 4.93393.61674l-.23128 2.77534q-3.23789 0-7.16962-.0771-3.85463-.0771-7.78636-.0771-3.23789 0-6.55288.0771-3.31498.0771-6.55287.0771l-.23128-2.62115q4.31719-.30837 6.16741-1.00221 1.85023-.77092 1.85023-2.77533 0-.84802-.30837-1.92732-.30837-1.15639-.77093-2.54406zm-23.89873-4.47137h22.43397l-10.33042-30.528704z"/><path d="m300.85307 123.68936q0 7.4009 1.85023 13.95377 1.85022 6.47579 5.55067 11.33263 3.77754 4.77974 9.40531 7.63217 5.62776 2.77534 13.25994 2.77534 4.163 0 7.94054-1.15639 3.85464-1.15639 6.78416-3.77754 2.77534-2.46697 4.77975-6.01323 2.0815-3.62336 4.08591-8.4802l3.0837.77093q-1.31057 5.08812-2.0815 9.55949-.77092 4.47138-1.31057 9.55949-6.09032 1.77314-12.10355 2.77534-5.93614 1.00221-11.94937 1.00221-8.71147 0-16.11237-2.69825-7.3238-2.69824-12.72029-7.63217-5.31939-4.93393-8.32601-11.87228-3.00661-7.01543-3.00661-15.57272 0-9.86786 3.62335-17.19166 3.62336-7.4009 9.79077-12.334831 6.24451-4.933932 14.41633-7.323805 8.17183-2.466965 17.26876-2.466965 4.70266 0 10.02205.693834 5.39649.693834 10.02205 1.927317-.46256 4.933931-.61674 9.405306-.0771 4.394284-.0771 9.328214l-3.23789.30837q-.30837-4.54847-1.85022-7.86345-1.46476-3.39208-4.00882-5.550675-2.46697-2.235688-5.78195-3.237892-3.31499-1.079298-7.24671-1.079298-7.70927 0-13.56831 2.466966-5.85905 2.389873-9.86787 6.784155-3.93172 4.317194-6.01323 10.484604-2.00441 6.09032-2.00441 13.49122z"/><path d="m395.83125 90.693693q-3.0837.231278-5.01102.770927-1.85022.462556-2.92952 1.541854-1.0793 1.002204-1.46476 2.852429-.38547 1.773131-.38547 4.625557v21.97142q2.23569-.38547 4.00882-1.31058 1.85023-.92511 4.08592-2.92952 2.38987-2.23569 5.08811-4.93393 2.69825-2.69825 5.3194-5.47358 2.69824-2.85243 5.16521-5.62777 2.46696-2.775334 4.39428-5.165207 1.0793-1.387668 1.54185-2.466966.53965-1.079297 0-1.850224-.53965-.84802-2.23568-1.310576-1.61895-.462556-4.77975-.616741l.15418-2.698244q1.0793 0 2.77534.07709 1.69604 0 3.54626 0 1.92732 0 3.85464.07709 2.00441 0 3.70045 0 1.46476 0 3.39207 0 2.00441-.07709 3.93173-.07709 2.00441 0 3.70045 0 1.69604-.07709 2.77534-.07709l.23127 2.621151q-2.77533.231278-5.08811.770927-2.23569.539649-4.39429 1.541854-2.0815 1.002204-4.163 2.544058-2.0815 1.464761-4.39428 3.623356-1.69604 1.541852-4.16301 3.931722-2.38987 2.38988-5.2423 5.3194-2.77534 2.85243-5.85904 6.01323-3.08371 3.0837-6.01323 6.09032 3.23789 4.00882 6.86125 8.48019 3.70045 4.47138 7.24671 8.71148 3.62335 4.163 6.70706 7.78636 3.1608 3.54626 5.2423 5.70485 2.31278 2.38988 3.85464 3.85464 1.61894 1.46476 3.0837 2.38987 1.46477.84802 3.1608 1.23348 1.69604.38547 4.31719.61675l-.15418 2.77533q-2.92952 0-6.47579-.0771-3.46917-.0771-6.93834-.0771-1.07929 0-2.31278.0771-1.15639 0-2.23569.0771-.61674-1.15639-2.15859-3.23789-1.54185-2.0815-3.70045-4.77975-2.15859-2.69824-4.77974-5.78195-2.54406-3.1608-5.3194-6.39869-2.69824-3.31498-5.47358-6.47578-2.69824-3.2379-5.08812-6.09033-1.54185-1.77313-2.85243-2.46696-1.23348-.77093-2.54405-.77093-.84802 0-1.77314.23128v26.13442q0 1.85022.30838 3.0837.30837 1.23349 1.31057 2.08151 1.0793.77092 3.00662 1.15639 2.00441.38546 5.31939.53965l-.15419 2.77533q-1.23348 0-3.0837 0-1.77313-.0771-3.85464-.0771-2.0815 0-4.24009 0-2.08151-.0771-3.93173-.0771-1.54185 0-3.39208.0771-1.77313 0-3.62335 0-1.85023 0-3.46917.0771-1.61895 0-2.69825 0l-.23128-2.62115q3.2379-.23128 5.16521-.69383 1.92732-.53965 2.92953-1.54186 1.07929-1.07929 1.38766-2.85243.38547-1.85022.38547-4.77974v-51.883373q0-1.850224-.30837-3.083707-.30837-1.233483-1.38767-2.00441-1.00221-.848019-3.00662-1.233483-2.00441-.385463-5.31939-.539648l.15418-2.775337q1.23349 0 3.08371.07709 1.85023 0 3.93173 0 2.0815 0 4.2401.07709 2.15859 0 4.00881 0 1.46477 0 3.2379 0 1.85022-.07709 3.62335-.07709 1.85023 0 3.46917 0 1.61895-.07709 2.69825-.07709z"/><path d="m445.86442 140.57266q1.54185 4.00881 3.23789 7.40089 1.77313 3.39208 4.16301 5.93614 2.46696 2.46696 5.70485 3.93173 3.2379 1.38766 7.78636 1.38766 3.00662 0 5.55068-1.0022 2.54406-1.00221 4.47137-2.85243 1.92732-1.85022 3.00662-4.31719 1.07929-2.54406 1.07929-5.55067 0-3.77754-1.38766-6.47579-1.38767-2.69824-3.70045-4.62556-2.31278-2.00441-5.2423-3.46917-2.92953-1.46476-6.01323-2.85243-3.46917-1.54185-7.01544-3.39208-3.46917-1.85022-6.2445-4.39428-2.77534-2.54406-4.54847-5.85904-1.77313-3.31499-1.77313-7.86346 0-4.85683 1.92731-8.557282 2.00441-3.777542 5.3194-6.3216 3.39208-2.544058 7.78636-3.854634 4.47137-1.310575 9.4824-1.310575 4.85684 0 8.94275.770926 4.163.693835 8.86566 1.927317-.23128 2.466966-.38547 4.625561-.15418 2.081502-.23128 4.163005 0 2.004412-.0771 4.163002 0 2.0815 0 4.54847l-3.23789.30837q-.69383-8.171823-5.01102-12.180642-4.2401-4.085912-11.48681-4.085912-2.77534 0-5.08812.848019-2.31278.84802-4.00882 2.466966-1.69604 1.618946-2.69824 3.854634-.92511 2.235685-.92511 5.011025 0 3.70045 1.15639 6.24451 1.23348 2.46696 3.31498 4.31719 2.0815 1.85022 4.77975 3.23789 2.77533 1.31057 5.78195 2.62115 3.70045 1.61895 7.40089 3.54626 3.77755 1.92732 6.70707 4.54847 3.00661 2.62115 4.85684 6.09032 1.85022 3.46917 1.85022 8.17183 0 5.2423-2.15859 9.32821-2.1586 4.00882-5.70486 6.86125-3.54627 2.77533-8.17183 4.2401-4.62556 1.46476-9.4824 1.46476-4.24009 0-8.78856-.84802-4.54847-.84802-9.63659-2.31278-.53964-5.08812-1.31057-9.5595-.77093-4.47137-2.0815-9.55949z"/></g><path d="m363.81574 4.9517609h3.14252q7.1421 0 10.34176 16.1125741 3.14252 7.427783 7.1421 21.140612h14.39847l.85705.399958q-1.14273 8.113424-2.22833 8.113424h-15.71262q0 2.514019-.91419 5.370858l.91419.457094h15.25552v.457095q-.74278 8.056287-1.77124 8.056287h-15.71262q-.91418 3.942438-.91418 6.285047h15.25552l.91419.457094q-1.37129 8.513382-2.22834 8.513382h-25.14018v-.457095q4.45666-30.053951 5.37085-30.053951 6.28505-5.485132 6.28505-5.827952h-14.79843q-.91419 0-.91419-.914189v-3.599618q.17141-.857051.91419-.857051h13.42715v-.457095q-8.97048-26.168649-9.82753-27.825616l-1.37128-.9141886h-.4571q-3.71389 0-5.37086 9.4275706-1.77124 3.485344-8.05628 23.368946h1.31414q9.88467-31.425234 11.25595-31.425234h1.31415q.74277.285684 9.42757 25.997239l-.91419.457095h-10.74172q-.91419 0-.91419-3.599618h-.45709q-2.68543 8.056287-2.68543 9.42757l4.9709 6.742141v.914189h-17.54099q-.85706 0-3.99958 20.626381h8.51338q.91419-4.285259.91419-6.285047h-6.74214v-.914189q1.54269-.914188 9.42757-7.599193h8.51338l.91419.457095q-3.82816 23.31181-4.9709 23.31181h-27.36852q-.91419 0-.91419-.914189 4.51381-28.225574 5.88509-30.053951.97132 0 6.685-5.370858h-15.71261q-6.68501 0-9.82753-8.513382v-20.683517q2.22833-9.3704338 9.42757-9.3704338h18.798v5.3708578h-17.94095q-4.91376.742779-4.91376 4.913764v17.940952q0 4.970901 5.82795 4.970901h11.6559v-14.798429h-9.88466v-4.513806q.17141-.914189.91419-.914189h14.34133v21.083475q.91419 0 8.57052-24.683092 3.2568-9.8275281 8.05629-9.8275281zm-97.36109.4570943h17.94095q.91419.1142736.91419.8570518v3.5996178q0 .9141882-.91419.9141882h-16.6268q-6.28505 0-7.1421 7.599193 0 6.113637 8.05628 6.742141 9.88467 0 9.88467 6.742142-1.54269 5.370858-5.37086 5.370858h-17.0839q-.85705 0-.85705-.914189v-3.542481q.11427-.914188.85705-.914188h16.16971q.91419 0 .91419-.914189l-.91419-.457094h-5.82795q-8.51338 0-11.19881-11.655905v-.457095q1.82838-12.9700508 11.19881-12.9700508zm30.96814 0h18.39804q.85706.1142736.85706.8570518v3.5996178q0 .9141882-.85706.9141882h-17.94095q-4.22812 0-4.9709 6.285047v15.255523q.62851 6.285047 5.37086 6.285047h17.54099q.85706.114273.85706.857051v2.742566q2.05692 0 2.74256.399958-1.37128 8.113424-2.28547 8.113424h-15.71262q0 2.514019-.85705 5.370858l.85705.457094h14.39847q.85706.114274.85706.914189-.74278 7.599193-1.77124 7.599193h-15.71262q-.91419 3.942438-.91419 6.285047h15.25552l.91419.457094q-1.31414 8.513382-2.22833 8.513382h-24.6831l-.91418-.457095q4.9709-28.454121 5.82795-30.053951 6.28504-5.485132 6.28504-5.827952-10.11321 0-11.19881-11.655905v-15.255523q1.42842-11.6559048 9.88467-11.6559048zm3.59962 6.2850468h13.42714q.4571 0 .4571.399958l.91418-.399958q.85706.114274.85706.857052v4.056712q0 .914188-.85706.914188h-15.25552q-.91419.114274-.91419.857052h12.5701q.91419.171411.91419.914189v4.513806h-18.85514v-7.656329q0-4.45667 6.74214-4.45667zm30.05395 0h16.11257v5.827952h-16.11257v13.427146q.11427.914189.85705.914189h2.74257q.85705 0 .85705-.914189-3.59962-.457094-3.59962-1.314146v-3.599618q.17141-.914189.91419-.914189h7.19923q.85706.171411.85706.914189v10.284622q0 .914189-.85706.914189h-10.79885q-3.59962 0-3.59962-3.599618v-17.940952q0-3.999575 5.428-3.999575zm-64.16462.399958h17.48386q.91419.17141.91419.914188v3.599618q0 .914188-.91419.914188h-17.02676v.857052h3.99957q13.94138 1.485557 13.94138 13.484283 0 5.256584-5.82795 10.341758h6.28504q.85706.114274.85706.857052-5.37086 33.367885-6.74215 37.253187h-9.82752v-.457095l4.45667-29.139762h-6.74214q-4.3424 29.596857-5.82796 29.596857h-8.51338q-.91419 0-.91419-.914189l4.9709-28.682668h-6.28504q-1.19988 0-5.37086 29.139762l-.91419.457095h-8.97048l-.91418-.457095q4.05671-24.683093 5.37085-30.053951l9.42757-7.599193h5.428v-2.742566q.11427-.857051.85705-.857051h16.16971q7.59919-1.25701 7.59919-7.65633 0-6.170773-8.05628-6.742141-9.88467 0-9.88467-5.827953v-.857052q1.25701-5.427994 4.9709-5.427994zm28.22558 13.027187h17.0839q.91419.171411.91419.914189v3.599618q0 .857052-.91419.857052h-12.5701v.457094q.11428.914189.91419.914189h15.25552q.85706.114273.85706.914188v3.542481q0 .914189-.85706.914189h-17.54099q-3.99957-.571368-3.99957-4.056712v-7.142099q.11427-.914189.85705-.914189zm68.67842 6.285047h3.59962v-.457094q-1.37129-4.113849-1.37129-4.913764-.74278 0-2.22833 5.370858zm-182.15209 10.798853h11.19881q.39996 0 6.28505 8.056288l-.91419.457094h-17.48385q-3.14253 19.197961-3.59962 20.626381h8.51338l1.37128-6.285047h-6.74214v-.457094q0-.628505 8.97048-8.056288h8.51338l.91419.457095q-3.59962 22.397621-4.45667 23.31181h-27.82562l-.91419-.457095q4.62808-28.339847 5.82796-30.053951 8.51338-7.599193 10.34175-7.599193zm33.65357 0h19.2551q.91419 0 .91419 1.314146-5.82795 35.76763-6.74214 36.796093h-28.22558v-.457095q1.42842-17.026763 5.37086-17.026763 0-.628505 7.1421-6.285047h8.97048q1.02846 0 1.82837-5.827952h-17.0839v-.457094q.11428-.685642 8.57052-8.056288zm198.3218 0h19.2551l.91418.399958-6.74214 37.710281h-27.82561q-.85706 0-.85706-.914189 1.88552-17.026763 5.82796-17.026763l6.74214-5.827953h9.82753l.91418-5.827952h-17.02676v-.457094q7.71347-7.713467 8.97048-8.056288zm34.05352 0h18.85514q.91419 0 .91419 1.314146-1.54269 13.941377-3.14252 13.941377-2.1712 1.257009-4.45667 3.542481v.457094q3.42821 4.970901 3.99958 4.970901-2.22834 13.88424-3.14253 13.88424h-8.51338l-.91419-.457095 2.68543-14.798428h-7.59919q-.91419 0-3.14253 14.798428l-.91418.457095h-8.05629q-.91419 0-.91419-.914189 4.51381-30.96814 6.74214-30.96814 2.45688-1.656967 7.59919-6.22791zm-279.05607 35.424809h23.7689q.45709-1.59983 3.14252-18.85514h-4.91376q-4.05671 3.313934-4.05671 3.599618 3.14252 0 3.59962.457094-1.94265 11.198811-3.14253 11.198811h-11.6559q-.91419 0-.91419-.914189 3.71389-25.08305 4.51381-25.08305h15.25552q-1.88552-3.142524-2.74257-3.142524h-8.97047q-2.79971 0-9.82753 8.056288zm44.39528-29.596856h13.48428v.399957q0 2.228335-1.37128 10.341759h-10.74172q-9.88466 7.427783-9.88466 10.798853 0 .971326-1.31415 8.056287h15.25553q.85705 0 1.31414-3.599617h-9.88466l-.85705-.457095q1.77124-11.19881 2.68543-11.19881h11.6559q.91419.114273.91419.914188-2.28547 12.28441-2.28547 14.341334h4.9709l5.82795-32.73938h-16.62681q-.6285 0-3.14252 3.142524zm25.14019 29.596856h4.5138q1.19988 0 5.37086-29.196899l.91419-.399957h10.74172l.91419.399957q-4.05672 21.940527-4.9709 29.196899h4.9709q4.74235-29.596856 5.82795-29.596856h10.34176q.85705.114273.85705.857052-1.77124 11.941589-4.91376 28.739804h5.37085q5.37086-30.682455 5.37086-32.73938h-31.82519q-2.68543 0-9.42757 7.599193zm51.59452 0h21.08347v-1.371282l.4571-2.228335h-15.25552q-.91419 0-.91419-.914189 1.37128-10.741716 2.74256-10.741716h15.65548v-2.228335l.4571-.914189-.85705-.457094h-15.25553v-.457094q.91419-10.284622 2.22834-10.284622h15.71261l.4571-3.142524h-14.39847q-8.51338 6.22791-8.51338 11.198811 0 2.342608-3.59962 21.540569zm45.30947 0h23.82604l3.14253-18.398046-.91419-.457094h-4.05671q-3.99958 2.913976-3.99958 3.599618h3.08539v.457094q-1.31415 11.198811-2.68543 11.198811h-12.57009v-.457095q3.25679-25.540144 4.5138-25.540144h15.25552q-2.11406-3.142524-2.68542-3.142524h-10.34176q-8.51339 6.170774-8.51339 8.970476-4.05671 21.312023-4.05671 23.768904zm35.02485 0h21.08348q0-1.142735.45709-3.599617h-15.25552q-.91419 0-.91419-.914189 1.37129-10.741716 2.68543-10.741716h15.71262v-2.228335l.45709-.914189-.91419-.457094h-15.25552q.91419-10.741716 2.28547-10.741716h15.65548l.4571-3.142524h-14.34134q-8.51338 6.22791-8.51338 11.198811 0 2.399745-3.59962 21.540569zm40.85281-29.596856h12.97005l.91419.399957q-1.37128 10.341759-2.68543 10.341759h-8.51338q-2.39975 0-10.79886 8.513382l-1.31414 10.341758h15.65548q.45709-3.19966.45709-3.599617h-9.42757q-.85705 0-.85705-.914189 1.0856-10.741716 2.68543-10.741716h11.19881q.91419.114273.91419.914188l-2.22834 14.341334h4.45667q1.25701 0 4.51381-23.768904.45709 0 1.77124-8.970476h-16.16971q-3.54248 2.456882-3.54248 3.142524zm25.54014 29.596856h4.51381q2.22833-15.255522 3.14252-15.255522h12.5701v.457094q0 2.971113-2.28548 14.798428h4.97091l1.31414-10.341758q-3.59962-4.856627-3.59962-6.285047v-.857052q6.28505-5.199448 6.28505-7.199235l1.37128-8.056288h-16.16971q-8.05628 6.342184-8.05628 8.056288-4.05672 22.226211-4.05672 24.683092zm10.34176-29.596856h11.65591q.91419.114273.91419.857052-1.25701 9.884664-2.68543 9.884664h-11.71305l-.85705-.457094q1.65697-10.284622 2.68543-10.284622zm1.31415 2.685429-.85705 5.827952h8.05628q.91419-4.056712.91419-5.827952zm-235.11789 14.341334q0 1.42842-.85705 6.285047h8.05629q.91419-4.856627.91419-6.285047zm197.00765 6.285047h7.59919q.91419 0 1.82838-6.285047h-7.65633q-.74278 0-1.77124 6.285047z" fill="#00f"/></svg>