<svg height="61.898365" viewBox="0 0 230.92465 61.898364" width="230.92465" xmlns="http://www.w3.org/2000/svg" xmlns:xlink="http://www.w3.org/1999/xlink"><filter id="a" color-interpolation-filters="sRGB"><feConvolveMatrix divisor="1" in="SourceGraphic" kernelMatrix="0 -0.15 0 -0.15 1.6 -0.15 0 -0.15 0" order="3 3" targetX="1" targetY="1"/></filter><filter id="b" color-interpolation-filters="sRGB"><feConvolveMatrix divisor="1" in="SourceGraphic" kernelMatrix="0 -0.15 0 -0.15 1.6 -0.15 0 -0.15 0" order="3 3" targetX="1" targetY="1"/></filter><g transform="matrix(.68841389 0 0 1 37.844452 -22.954888)"><path d="m239.641 58.967c.097-.8-.251-1.644.235-2.406v2.4c-.076.108-.154.11-.235.006z" fill="#f1e87a"/><path d="m239.876 49.601c-.47-.766-.155-1.605-.225-2.409.079-.101.154-.098.225.009z" fill="#f5ed99"/><path d="m239.876 47.201a3.384 3.384 0 0 1 -.225-.009c.081-.556-.257-1.169.225-1.671z" fill="#f7f2ba"/><path d="m239.671 61.856-.016-1.446c.07-.116.144-.119.222-.009v1.44c-.062.103-.131.108-.206.015z" fill="#f7f2b8"/><path d="m239.671 61.856a7.13 7.13 0 0 0 .206-.015v1.44a4.68 4.68 0 0 1 -.205.008z" fill="#fbf9e1"/><path d="m239.876 60.401a4.118 4.118 0 0 0 -.222.009l-.013-1.443c.078-.004.157-.006.235-.005z" fill="#f5ee9c"/><g filter="url(#a)"><path d="m15.272008 79.298049-6.0586668-4.608q-2.0480001 2.218666-5.3760002 3.669333-3.24266676 1.450667-7.7653336 1.450667-9.6426674 0-14.8480004-6.570667-5.12-6.570667-5.12-18.176 0-13.141334 6.4-19.370668 6.485334-6.314667 18.17600058-6.314667 4.26666682 0 8.36266692.853334 4.1813335.768 7.3386665 2.048.256 3.072 0 6.314667-.170666 3.242666-.597333 6.485333h-7.1680002l-1.7066667-7.082667q-.256-.938666-.5973334-1.450666-.3413333-.512-.9386667-.938667-.8533333-.597333-2.1333333-1.024-1.1946667-.512-2.90133347-.512-5.29066683 0-7.93600023 5.034667-2.645333 5.034667-2.645333 16.213334 0 8.874666 2.0479996 13.653333 2.1333334 4.778667 7.93600028 4.778667 1.96266672 0 3.58400012-.512 1.7066667-.512 2.9866667-1.365333v-12.714667l-5.88800013-.682667v-4.778667h20.22400043v4.778667l-3.157333.512v19.029334z"/><path d="m41.305341 74.348715v4.437334h-18.176001v-4.437334l4.608-.938666q.597334-.08533.938667-.341334.426667-.256.768-.853333l11.605334-16.469334-11.946667-18.517334q-.341334-.512-.768-.768-.341334-.341333-.938667-.512l-3.498667-.938666v-4.693334h22.784001v4.693334l-4.778667 1.109333 7.338667 12.117334 8.021333-12.117334-5.290666-1.109333v-4.693334h17.152v4.693334l-4.181333.938666q-.597334.08533-1.024.426667-.426667.256-.768.768l-10.837334 15.189334 12.970667 19.882667q.341333.512.768.853333.426667.256 1.024.341334l3.498667.938666v4.437334h-23.040001v-4.437334l4.778667-1.024-8.106667-13.312-8.704 13.312z"/><path d="m124.84268 71.276715h-6.57067v7.509334h-10.24v-7.509334h-18.602665l-2.218666-4.778666q4.522666-7.082667 8.533333-14.677334 4.096-7.68 7.850668-15.957334h9.728l1.536 1.962667q-5.46133 10.666667-9.64267 17.493334-4.096 6.741333-9.130665 10.666667l12.032005-.597334 1.10933-9.472 9.04533-.512v9.472l6.57067-.341333z"/><path d="m147.36135 79.724716q-4.864 0-8.27734-1.621334-3.41333-1.706667-5.46133-4.608-2.048-2.901333-2.98667-6.912-.93866-4.010667-.93866-8.789334 0-11.776 5.29066-17.237334 5.376-5.546666 13.568-5.546666 4.864 0 8.192 1.621333 3.41334 1.621333 5.46134 4.522667 2.048 2.816 2.98666 6.826667.93867 4.010666.93867 8.789333 0 11.861334-5.29067 17.408001-5.29066 5.546667-13.48266 5.546667zm.42666-39.936002q-2.90133 0-4.352 3.584001-1.36533 3.584-1.36533 12.458667 0 10.325333 1.36533 14.762667 1.45067 4.352 4.608 4.352 2.90134 0 4.352-3.669334 1.45067-3.669333 1.45067-12.544 0-10.325334-1.45067-14.592-1.36533-4.352001-4.608-4.352001z"/><path d="m190.69467 79.724716q-4.864 0-8.27733-1.621334-3.41333-1.706667-5.46133-4.608-2.048-2.901333-2.98667-6.912-.93867-4.010667-.93867-8.789334 0-11.776 5.29067-17.237334 5.376-5.546666 13.568-5.546666 4.864 0 8.192 1.621333 3.41333 1.621333 5.46133 4.522667 2.048 2.816 2.98667 6.826667.93867 4.010666.93867 8.789333 0 11.861334-5.29067 17.408001-5.29067 5.546667-13.48267 5.546667zm.42667-39.936002q-2.90133 0-4.352 3.584001-1.36533 3.584-1.36533 12.458667 0 10.325333 1.36533 14.762667 1.45067 4.352 4.608 4.352 2.90133 0 4.352-3.669334 1.45067-3.669333 1.45067-12.544 0-10.325334-1.45067-14.592-1.36533-4.352001-4.608-4.352001z"/><path d="m234.02802 79.724716q-4.864 0-8.27734-1.621334-3.41333-1.706667-5.46133-4.608-2.048-2.901333-2.98667-6.912-.93866-4.010667-.93866-8.789334 0-11.776 5.29066-17.237334 5.376-5.546666 13.568-5.546666 4.864 0 8.192 1.621333 3.41334 1.621333 5.46134 4.522667 2.048 2.816 2.98666 6.826667.93867 4.010666.93867 8.789333 0 11.861334-5.29067 17.408001-5.29066 5.546667-13.48266 5.546667zm.42666-39.936002q-2.90133 0-4.352 3.584001-1.36533 3.584-1.36533 12.458667 0 10.325333 1.36533 14.762667 1.45067 4.352 4.608 4.352 2.90134 0 4.352-3.669334 1.45067-3.669333 1.45067-12.544 0-10.325334-1.45067-14.592-1.36533-4.352001-4.608-4.352001z"/></g><g fill="#ff0" filter="url(#b)"><path d="m11.864337 77.91809-6.0586668-4.608q-2.0480001 2.218666-5.37600017 3.669333-3.24266673 1.450667-7.76533353 1.450667-9.6426665 0-14.8480005-6.570667-5.12-6.570667-5.12-18.176001 0-13.141333 6.4-19.370667 6.485334-6.314667 18.1760006-6.314667 4.2666668 0 8.3626669.853334 4.1813335.768 7.3386665 2.048.256 3.072 0 6.314667-.170666 3.242666-.597333 6.485333h-7.1680002l-1.7066667-7.082667q-.256-.938666-.5973333-1.450666-.3413334-.512-.9386667-.938667-.8533334-.597334-2.13333342-1.024-1.19466668-.512-2.90133338-.512-5.2906669 0-7.9360003 5.034667-2.645333 5.034666-2.645333 16.213333 0 8.874667 2.048 13.653334 2.1333331 4.778667 7.9359999 4.778667 1.9626667 0 3.58400011-.512 1.70666669-.512 2.98666679-1.365333v-12.714667l-5.8880002-.682667v-4.778667h20.2240004v4.778667l-3.157333.512v19.029334z"/><path d="m37.89767 72.968756v4.437334h-18.176001v-4.437334l4.608-.938666q.597334-.08533.938667-.341334.426667-.256.768-.853333l11.605334-16.469334-11.946667-18.517334q-.341334-.512-.768-.768-.341334-.341333-.938667-.512l-3.498667-.938667v-4.693333h22.784001v4.693333l-4.778667 1.109334 7.338667 12.117334 8.021333-12.117334-5.290666-1.109334v-4.693333h17.152v4.693333l-4.181333.938667q-.597334.08533-1.024.426667-.426667.256-.768.768l-10.837334 15.189334 12.970667 19.882667q.341333.512.768.853333.426667.256 1.024.341334l3.498667.938666v4.437334h-23.040001v-4.437334l4.778667-1.024-8.106667-13.312-8.704 13.312z"/><g stroke-width="1.052572"><path d="m121.43501 68.985145h-6.57067v8.319655h-10.24v-8.319655h-18.602666l-2.218666-5.294326q4.522666-7.846945 8.533333-16.261141 4.096-8.508739 7.850669-17.679266h9.728l1.536 2.174455q-5.46134 11.817691-9.64267 19.381012-4.095999 7.468782-9.130666 11.817691l12.031996-.66179 1.10934-10.494109 9.04533-.567249v10.494109l6.57067-.378166z"/><path d="m143.95367 78.344756q-4.864 0-8.27733-1.796289-3.41333-1.89083-5.46133-5.105242-2.048-3.214411-2.98667-7.657863-.93867-4.443452-.93867-9.737778 0-13.04673 5.29067-19.097389 5.376-6.145199 13.568-6.145199 4.864 0 8.192 1.79629 3.41334 1.796288 5.46134 5.010701 2.048 3.11987 2.98666 7.563322.93867 4.443451.93867 9.737777 0 13.141272-5.29067 19.286472-5.29066 6.145198-13.48267 6.145198zm.42667-44.245434q-2.90133 0-4.352 3.970744-1.36533 3.970745-1.36533 13.803062 0 11.439526 1.36533 16.355686 1.45067 4.821617 4.608 4.821617 2.90133 0 4.352-4.065286 1.45067-4.065285 1.45067-13.897604 0-11.439525-1.45067-16.166602-1.36533-4.821617-4.608-4.821617z"/><path d="m187.287 78.344756q-4.864 0-8.27733-1.796289-3.41333-1.89083-5.46133-5.105242-2.048-3.214411-2.98667-7.657863-.93867-4.443452-.93867-9.737778 0-13.04673 5.29067-19.097389 5.376-6.145199 13.568-6.145199 4.864 0 8.192 1.79629 3.41333 1.796288 5.46133 5.010701 2.048 3.11987 2.98667 7.563322.93867 4.443451.93867 9.737777 0 13.141272-5.29067 19.286472-5.29067 6.145198-13.48267 6.145198zm.42667-44.245434q-2.90133 0-4.352 3.970744-1.36533 3.970745-1.36533 13.803062 0 11.439526 1.36533 16.355686 1.45067 4.821617 4.608 4.821617 2.90133 0 4.352-4.065286 1.45067-4.065285 1.45067-13.897604 0-11.439525-1.45067-16.166602-1.36533-4.821617-4.608-4.821617z"/><path d="m230.62035 78.344756q-4.864 0-8.27734-1.796289-3.41333-1.89083-5.46133-5.105242-2.048-3.214411-2.98667-7.657863-.93866-4.443452-.93866-9.737778 0-13.04673 5.29066-19.097389 5.376-6.145199 13.568-6.145199 4.864 0 8.192 1.79629 3.41334 1.796288 5.46134 5.010701 2.048 3.11987 2.98666 7.563322.93867 4.443451.93867 9.737777 0 13.141272-5.29067 19.286472-5.29066 6.145198-13.48266 6.145198zm.42666-44.245434q-2.90133 0-4.352 3.970744-1.36533 3.970745-1.36533 13.803062 0 11.439526 1.36533 16.355686 1.45067 4.821617 4.608 4.821617 2.90134 0 4.352-4.065286 1.45067-4.065285 1.45067-13.897604 0-11.439525-1.45067-16.166602-1.36533-4.821617-4.608-4.821617z"/></g></g></g></svg>