<svg height="506.53043" width="4663.2041" xmlns="http://www.w3.org/2000/svg"><g transform="translate(6.884963 -254.30245)"><path d="m-3.460324 632.54132h754.98938v128.20538h-754.98938z"/><path d="m-3.460324 266.07413h754.98938v357.71109h-754.98938z"/><path d="m221.23314 300.21706v277.25659h-186.417554z" fill="#f00"/><path d="m418.69345 305.74643h90.049149v274.09698h-90.049149z" fill="#0a0"/><path d="m528.12927 305.87607c-.96283-.0284-2.03565-.0527-3.24331-.0723l-.55302 93.9021c.0725.002.14658-.002.21899 0v-.29199c1.53191-.20301 3.07464-.30501 4.64742-.34065l18.90605-92.024c-7.3772-.89617-14.32493-.99417-19.97613-1.17314zm34.67271 2.60872-26.54632 91.00206c2.36444.32536 4.68198.84291 6.91031 1.53291l43.60313-86.52494c-7.70126-2.70411-15.70245-4.73842-23.96712-6.01003zm38.54205 12.11739-52.14369 82.77779c1.74264.84326 3.43178 1.81168 5.03674 2.87119l66.98627-73.70192c-6.24807-4.53211-12.89476-8.52489-19.87932-11.94706zm32.41036 22.23954-74.94287 66.88893c1.79115 1.55446 3.46825 3.2613 4.98807 5.08541l88.17954-51.34072c-5.36824-7.48426-11.48818-14.39879-18.22474-20.63362zm25.06206 31.16942-91.75635 45.23336c1.05226 1.64269 1.99178 3.351 2.82252 5.13407l100.7349-24.23476c-3.02743-9.18461-6.99684-17.93293-11.80107-26.13267zm15.57254 40.05063-102.65713 15.0129c1.05259 3.1696 1.7605 6.50684 2.06823 9.95183h103.60608c-.24378-8.5413-1.27796-16.8878-3.01718-24.96473zm-100.5889 33.18898c-2.12702 22.27537-20.80164 39.68565-43.50579 39.68565-1.95331 0-3.8569-.13945-5.74237-.38932v-1.89789c-.0724.002-.1465-.002-.21899 0v94.81341c7.77461-.0558 11.78634-.38053 17.83543-.38053 73.31463 0 133.00698-58.63482 135.2378-131.83132z" fill="#0a0"/><path d="m377.23314 300.21706v277.25658h-186.41755z" fill="#f00"/><path d="m814.27339 612.8874 188.96121-313.88971c8.998-17.93624 17.9962-26.90451 26.9946-26.90486h134.9723v41.70252l8.9982-14.79766c8.9978-17.93624 17.9959-26.90451 26.9945-26.90486h161.9667v340.79457h-107.9779v-269.04834l-161.9667 269.04834h-107.97801l161.96691-269.04834h-53.9889c-5.9991.00026-11.9979 2.98969-17.9964 8.96827l-152.96872 260.08007zm692.85801-134.52413v62.77791h251.9484v71.74622h-359.9261v-224.20693c0-5.97865 1.4996-11.95751 4.499-17.93657l49.4899-89.68278c2.9993-5.97852 8.998-8.96794 17.9963-8.96829h287.9409v71.74623h-215.9557c-5.999.00026-10.4981 2.98969-13.4973 8.96827l-22.4954 53.80965h251.9484l-35.9926 71.74629zm395.9189 62.77791h179.963v-62.77791h-71.9852l35.9927-71.74629h143.9705v188.33386c-.0004 11.95772-5.9991 17.93656-17.9964 17.93656h-359.9261c-11.9976 0-17.9963-5.97884-17.9963-17.93656v-206.27037c0-5.97865 1.4997-11.95751 4.499-17.93657l49.4897-89.68278c2.9995-5.97852 8.9983-8.96794 17.9965-8.96829h305.9372v71.74623h-233.952c-5.9987.00026-10.4979 2.98969-13.4971 8.96827l-22.4955 53.80965zm773.8418 71.74622h-125.9744l-49.4899-71.74622h-130.4736l-35.9919-65.02v136.76622h-107.9784v-340.79457h206.9573c8.9984.00035 17.9968 8.96862 26.995 26.90486zm-225.4044-143.49242-80.5335-116.58765c-5.9985-5.97858-11.9976-8.96801-17.9961-8.96827h-17.9958v125.55592z" fill="#fff" stroke="#000" stroke-width="30.677"/><path d="m2892.2146 545.26153h130.6147c6.2197.00011 10.884-2.80809 13.9945-8.42459l39.6506-85.18222 2.3325-9.36071-2.3325-9.36069-39.6506-84.24611c-3.1105-6.24024-7.7748-9.36043-13.9945-9.3607h-130.6147zm-111.9552-280.82055h312.542c9.3293.00031 17.1035 6.24083 23.3238 18.72138l72.3045 149.77096 2.3325 9.36069-2.3325 9.36071-72.3045 149.771c-6.2203 12.48089-13.9945 18.72133-23.3238 18.72133h-312.542zm447.8211 0h298.5474c9.3295.00031 17.1036 6.24083 23.3238 18.72138l48.9801 102.96751 2.3325 9.3607-2.3325 9.3607-72.3039 84.24619 74.6364 131.04959h-111.9551l-107.2902-177.85304h55.9775c6.2196.00021 10.8847-1.55992 13.9944-4.68038l37.3183-42.12306-18.6588-46.80336c-3.1106-6.24024-7.7749-9.36043-13.9944-9.3607h-116.6204v280.82054h-111.9551zm522.458 355.70607h-111.9552v-355.70607h111.9552zm149.2735-238.69749 111.9553 163.81197 111.9551-163.81197v-117.00858h111.9553v131.04959c-.0006 12.48118-1.5553 21.84179-4.6651 28.08204l-125.9496 196.57444h-186.5917l-125.9496-196.57444c-3.1097-6.24025-4.6651-15.60086-4.6651-28.08204v-131.04959h111.9554zm485.1391 98.28719v65.52478h261.2295v74.88552h-373.1846v-234.01718c0-6.24018 1.555-12.48069 4.6651-18.72139l51.3126-93.60681c3.1097-6.24011 9.3292-9.36038 18.6593-9.36069h298.5476v74.88553h-223.9106c-6.2201.00027-10.8852 3.12046-13.9944 9.3607l-23.3245 56.16406h261.2295l-37.3189 74.88548z" fill="#fff" stroke="#000" stroke-width="30.677"/><g fill="#f00" transform="scale(1.0889841 .91828705)"><path d="m770.33374 792.16775c-.16504 4.81577.94222 10.08919 3.32179 15.82027 2.37955 5.73111 7.02162 10.69365 13.92621 14.88763 6.90455 4.19398 17.06183 6.39315 30.47187 6.59753 3.6259.17079 8.8782-.49894 15.75694-2.0092 6.87859-1.51025 13.21322-4.88578 19.00389-10.12658 5.7905-5.24079 8.86666-13.3716 9.22849-24.39246-.26563-9.78939-3.23193-16.82949-8.8989-21.12031-5.66714-4.29072-12.4417-7.25054-20.32369-8.87947l-27.20188-6.68389c-2.5324-.41768-5.0842-1.40861-7.65539-2.97279-2.57125-1.56403-3.95725-4.45908-4.15799-8.68516.2558-4.97721 2.38661-8.46812 6.39244-10.47273 4.00576-2.00443 8.35158-2.96944 13.03747-2.89505 9.82176.38869 16.09762 2.56484 18.82759 6.52845 2.72983 3.96378 4.07049 7.38345 4.02199 10.25899h22.38326c.0469-4.75137-1.20427-9.89429-3.75358-15.42879-2.54948-5.53431-6.99005-10.30879-13.32172-14.32344-6.33182-4.01445-15.14772-6.11767-26.44771-6.30969-11.93144.19394-21.00448 2.24151-27.21915 6.14273-6.21471 3.90144-10.41733 8.49361-12.60786 13.77653-2.19055 5.28311-3.2153 10.09405-3.07424 14.43283.34973 11.84907 4.00255 19.86067 10.95847 24.0348 6.95588 4.17425 15.11644 7.09521 24.4817 8.7629l11.96882 2.7979c6.01026 1.25651 10.85478 2.82386 14.53358 4.70204 3.67865 1.87826 5.56983 4.92228 5.67353 9.13206-.28181 5.77071-2.78826 9.65669-7.51937 11.65795-4.73125 2.0013-9.99675 2.93393-15.79652 2.79791-9.8834-.36268-16.34708-2.59064-19.39106-6.68389-3.04405-4.09321-4.45596-7.87556-4.23572-11.34707z"/><path d="m961.98689 714.91441h-82.07195v111.60543h84.71442v-19.7408h-61.86485v-28.91171h54.40376v-19.74079h-54.40376v-23.47134h59.22238z"/><path d="m1036.1279 785.17298h25.9584c-2.9146 10.88402-7.3835 17.79458-13.4067 20.73171-6.0233 2.93718-10.5699 4.21307-13.6398 3.8277-8.2901.30442-15.6864-2.28623-22.1889-7.77197-6.5026-5.48568-9.9352-15.69285-10.2979-30.62154.2947-14.18377 3.5524-24.44275 9.7733-30.77698 6.2207-6.33407 13.6365-9.44285 22.2472-9.32636 8.2253.49232 14.3522 3.00525 18.3807 7.5388 4.0284 4.53373 6.0362 8.13474 6.0233 10.80304h23.3159c-.3628-5.30885-2.2453-10.83941-5.6476-16.59171-3.4025-5.75212-8.6356-10.64941-15.6994-14.6919-7.0639-4.04227-16.2694-6.15317-27.6164-6.33271h-.3109c-12.463.16803-22.7009 3.02734-30.7136 8.57795-8.01284 5.55082-13.94448 12.78546-17.79494 21.70393-3.8505 8.91865-5.76374 18.51366-5.73974 28.78506.45659 19.57244 5.64437 34.20963 15.56336 43.91161 9.91892 9.702 21.82942 14.54652 35.73162 14.53357 9.9901-.27849 17.6002-2.24739 22.8301-5.90669 5.2298-3.6593 9.2259-7.33802 11.9883-11.03619l2.3316 13.98954h15.5439v-60.15502h-46.6318z"/><path d="m1128.203 803.51482h41.1914l7.1502 23.00502h25.3366l-39.3261-111.60543h-26.891l-39.7925 111.60543h24.5594zm20.518-63.41924h.3108l13.8341 44.14476h-28.4453z"/><path d="m1326.0792 776.46838v50.05146h23.3159v-111.60543h-23.3159v42.27949h-43.523v-42.27949h-23.3159v111.60543h23.3159v-50.05146z"/><path d="m1393.7988 714.91441h-23.3159v111.60543h23.3159z"/><path d="m1467.8419 785.17298h25.9583c-2.9145 10.88402-7.3834 17.79458-13.4066 20.73171-6.0233 2.93718-10.5699 4.21307-13.6398 3.8277-8.2901.30442-15.6865-2.28623-22.189-7.77197-6.5025-5.48568-9.9352-15.69285-10.2978-30.62154.2947-14.18377 3.5524-24.44275 9.7732-30.77698 6.2208-6.33407 13.6365-9.44285 22.2473-9.32636 8.2252.49232 14.3521 3.00525 18.3807 7.5388 4.0284 4.53373 6.0361 8.13474 6.0233 10.80304h23.3159c-.3628-5.30885-2.2454-10.83941-5.6477-16.59171-3.4025-5.75212-8.6356-10.64941-15.6993-14.6919-7.064-4.04227-16.2694-6.15317-27.6164-6.33271h-.3109c-12.463.16803-22.7009 3.02734-30.7137 8.57795-8.0128 5.55082-13.9444 12.78546-17.7949 21.70393-3.8505 8.91865-5.7637 18.51366-5.7397 28.78506.4566 19.57244 5.6444 34.20963 15.5633 43.91161 9.919 9.702 21.8295 14.54652 35.7317 14.53357 9.9901-.27849 17.6001-2.24739 22.8301-5.90669 5.2298-3.6593 9.2259-7.33802 11.9883-11.03619l2.3315 13.98954h15.544v-60.15502h-46.6318z"/><path d="m1602.3519 776.46838v50.05146h23.3159v-111.60543h-23.3159v42.27949h-43.523v-42.27949h-23.3159v111.60543h23.3159v-50.05146z"/><path d="m1741.7829 796.20917 11.1917 10.56987c-2.118 1.07514-4.2553 1.83939-6.4119 2.29273-2.1568.45338-4.2164.67359-6.1787.66062-6.7714.32708-13.397-2.27005-19.8768-7.7914-6.4799-5.5213-9.9579-15.92925-10.4339-31.22387.476-15.29451 3.954-25.70246 10.4339-31.22387 6.4798-5.52124 13.1054-8.11837 19.8768-7.79139 6.7712-.32698 13.3968 2.27015 19.8768 7.79139 6.4798 5.52142 9.9577 15.92937 10.4338 31.22387-.02 5.19432-.4858 9.76682-1.3989 13.71752-.9133 3.95079-2.1568 7.3575-3.7305 10.22014l-11.8134-11.03619zm52.694 25.80293-12.1243-11.50251c3.4778-4.3199 6.2758-9.74732 8.3937-16.28227 2.1178-6.53489 3.2058-14.37162 3.2642-23.5102-.3887-17.21627-3.9292-30.05439-10.6216-38.51441-6.6927-8.45982-14.2056-14.00958-22.5387-16.64927-8.3334-2.63948-15.1554-3.83694-20.4662-3.59238-5.3109-.24455-12.133.9529-20.4662 3.59238-8.3333 2.63969-15.8462 8.18945-22.5387 16.64927-6.6925 8.46002-10.2331 21.29814-10.6217 38.51441.3886 17.21638 3.9292 30.05451 10.6217 38.51441 6.6925 8.45994 14.2054 14.0097 22.5387 16.64928 8.3332 2.63958 15.1553 3.83704 20.4662 3.59237 3.3872.0777 7.6488-.3886 12.7849-1.39895 5.1359-1.01036 10.4078-3.03107 15.8159-6.06213l13.2124 12.59058z"/><path d="m1901.9404 714.91441h-23.7822v73.52279c.061 6.80374-1.6937 12.04334-5.2655 15.7188-3.572 3.67551-9.3297 5.53431-17.2732 5.57639-5.5894.0389-10.2656-1.74867-14.0284-5.36266-3.763-3.61394-5.7189-9.28747-5.8679-17.0206v-72.43472h-23.7822v73.98911c.1198 5.59585.8517 10.64762 2.1956 15.15533 1.3439 4.50776 3.5136 8.47146 6.509 11.89111 5.1878 5.39181 11.0556 9.0252 17.6035 10.90018 6.5479 1.87499 12.4934 2.74933 17.8367 2.62304 14.2194.0874 25.3786-3.23508 33.4777-9.96755 8.099-6.73245 12.2246-17.39946 12.3769-32.00106z"/><path d="m1948.5202 803.51482h41.1915l7.1502 23.00502h25.3366l-39.3262-111.60543h-26.891l-39.7924 111.60543h24.5594zm20.518-63.41924h.3109l13.8341 44.14476h-28.4454z"/><path d="m2060.5399 714.91441h-23.3159v111.60543h78.8078v-20.20711h-55.4919z"/><path d="m2153.7004 714.91441h-23.3159v111.60543h23.3159z"/><path d="m2222.7694 734.6552h33.7303v-19.74079h-90.7766v19.74079h33.7304v91.86464h23.3159z"/><path d="m2322.7691 784.70666 37.3054-69.79225h-26.4247l-22.0724 48.49707-23.1604-48.49707h-27.5128l38.549 69.48137v42.12406h23.3159z"/><path d="m2511.8338 751.44265c-.3676-5.67442-2.2405-11.52737-5.6188-17.55889-3.3786-6.03133-8.5445-11.14739-15.4979-15.34819-6.9536-4.20059-15.9768-6.39209-27.0695-6.57451-14.7182.0163-26.8619 4.95798-36.4311 14.82503-9.5692 9.86724-14.5239 24.56272-14.8639 44.08647.2688 19.30689 5.055 33.89227 14.3587 43.75617 9.3037 9.86392 21.5122 14.81207 36.6254 14.84445 13.9701-.20077 24.9674-4.03494 32.992-11.50251 8.0245-7.46755 13.1928-17.36384 15.5051-29.6889h-23.3159c-1.4476 6.85879-4.3038 12.066-8.5686 15.62164-4.2649 3.5557-9.647 5.34325-16.1463 5.36266-9.7894-.33353-16.8684-4.17417-21.2369-11.52194-4.3685-7.34771-6.5122-16.20127-6.4312-26.56069.4533-15.43052 3.6657-25.87733 9.6372-31.34045 5.9714-5.46296 11.9817-8.02122 18.0309-7.67482 9.3458.38546 15.6411 2.76238 18.8859 7.13078 3.2447 4.36858 5.1877 8.41647 5.829 12.1437z"/><path d="m2524.6832 770.71712c.3886 17.21638 3.9292 30.05451 10.6217 38.51441 6.6925 8.45994 14.2054 14.0097 22.5387 16.64928 8.3332 2.63958 15.1553 3.83704 20.4662 3.59237 5.3107.24467 12.1328-.95278 20.4661-3.59237 8.3332-2.63959 15.8461-8.18935 22.5387-16.64928 6.6925-8.4599 10.233-21.29803 10.6217-38.51441-.3887-17.21627-3.9292-30.05439-10.6217-38.51441-6.6926-8.45982-14.2055-14.00958-22.5387-16.64927-8.3333-2.63948-15.1554-3.83694-20.4661-3.59238-5.3109-.24455-12.133.9529-20.4662 3.59238-8.3333 2.63969-15.8462 8.18945-22.5387 16.64927-6.6926 8.46002-10.2331 21.29814-10.6217 38.51441zm23.3159 0c.476-15.29451 3.954-25.70246 10.4339-31.22387 6.4798-5.52124 13.1054-8.11837 19.8768-7.79139 6.7712-.32698 13.3968 2.27015 19.8768 7.79139 6.4798 5.52142 9.9577 15.92937 10.4338 31.22387-.4761 15.29462-3.954 25.70257-10.4338 31.22387-6.48 5.52136-13.1056 8.11849-19.8768 7.7914-6.7714.32708-13.397-2.27005-19.8768-7.7914-6.48-5.5213-9.9579-15.92925-10.4339-31.22387z"/><path d="m2757.5864 714.91441h-33.7304l-19.8962 87.97865h-.3109l-20.2071-87.97865h-34.0412v111.60543h21.7615v-93.26359h.3109l20.3625 93.26359h22.8496l20.8289-93.26359h.3109v93.26359h21.7615z"/><path d="m2803.1366 786.26105h26.7356c9.8837-.25231 17.4043-2.58006 22.5617-6.98326 5.1572-4.4031 8.6479-9.36756 10.472-14.89338 1.8239-5.52571 2.6779-10.09869 2.5619-13.71896-.094-11.0782-3.1704-19.77632-9.2292-26.09437-6.059-6.31786-14.5369-9.53674-25.4338-9.65667h-50.9841v111.60543h23.3159zm0-19.27447v-32.7977h18.4973c7.1793-.0388 12.4059 1.16589 15.6799 3.61397 3.2739 2.44825 4.8866 6.37309 4.8381 11.77453.3626 2.9016-.3628 6.42489-2.1762 10.56987-1.8135 4.14511-6.8912 6.42488-15.233 6.83933z"/><path d="m2973.0283 714.91441h-23.7822v73.52279c.061 6.80374-1.6938 12.04334-5.2655 15.7188-3.572 3.67551-9.3297 5.53431-17.2732 5.57639-5.5894.0389-10.2656-1.74867-14.0284-5.36266-3.763-3.61394-5.7189-9.28747-5.8679-17.0206v-72.43472h-23.7822v73.98911c.1198 5.59585.8517 10.64762 2.1956 15.15533 1.3439 4.50776 3.5136 8.47146 6.509 11.89111 5.1878 5.39181 11.0556 9.0252 17.6035 10.90018 6.5479 1.87499 12.4934 2.74933 17.8367 2.62304 14.2194.0874 25.3786-3.23508 33.4777-9.96755 8.099-6.73245 12.2246-17.39946 12.3769-32.00106z"/><path d="m3043.3902 734.6552h33.7304v-19.74079h-90.7766v19.74079h33.7303v91.86464h23.3159z"/><path d="m3173.0788 714.91441h-82.0719v111.60543h84.7144v-19.7408h-61.8649v-28.91171h54.4038v-19.74079h-54.4038v-23.47134h59.2224z"/><path d="m3194.8369 826.51984h22.8496v-43.67845h24.0931c8.3062-.0712 13.494 1.54796 15.5634 4.85748 2.0692 3.30959 2.9435 8.73701 2.623 16.28227.01 5.64116.2266 10.1748.6606 13.60093.4339 3.42615 1.0427 6.4054 1.8264 8.93777h25.803v-2.95335c-2.3835-.72214-3.8343-2.61979-4.3523-5.69297-.5183-3.07315-.7255-8.58476-.6218-16.53485-.016-10.03876-1.2274-16.85217-3.6334-20.44027-2.4061-3.58801-5.91-6.20457-10.5116-7.84969 5.5472-1.97208 9.8023-5.33345 12.7655-10.08412 2.9629-4.75055 4.4591-10.24921 4.4883-16.496.116-3.42342-.7207-7.57806-2.5101-12.46393-1.7895-4.88569-5.2284-9.23607-10.3165-13.05115-5.0883-3.81487-12.5226-5.8279-22.3027-6.0391h-56.4245zm22.8496-62.48661v-29.84435h29.0672c6.6644.23973 11.0944 1.93661 13.29 5.09064 2.1955 3.15421 3.2059 6.32776 3.0311 9.52066.01 5.46311-1.4832 9.38147-4.4689 11.75509-2.9858 2.37376-7.5065 3.53307-13.5621 3.47796z"/><path d="m3390.6923 799.4734h-.3108l-23.9377-84.55899h-25.0257l37.6163 111.60543h22.2278l37.9272-111.60543h-24.2485z"/><path d="m3475.5588 714.91441h-23.3159v111.60543h23.3159z"/><path d="m3497.2188 826.51984h48.3416c12.1693-.27826 21.63-3.55592 28.3821-9.83298 6.7519-6.27705 11.4573-13.88397 14.1162-22.8208 2.6586-8.93676 3.9329-17.53388 3.8226-25.79141.1362-7.31133-.9999-15.03724-3.4081-23.17772-2.4085-8.14033-6.9066-15.10631-13.4945-20.89796-6.588-5.79145-16.0832-8.81963-28.4857-9.08456h-49.2742zm22.8496-92.33096h22.3832c3.4484-.17069 7.1387.46449 11.0708 1.90557 3.9319 1.44126 7.3113 4.71316 10.1381 9.81571 2.8266 5.10271 4.3061 13.06081 4.4386 23.87433.1295 9.58547-1.7229 18.12167-5.5569 25.60862-3.8343 7.48702-10.4275 11.43777-19.7797 11.85225h-22.6941z"/><path d="m3691.6213 714.91441h-82.072v111.60543h84.7145v-19.7408h-61.8649v-28.91171h54.4038v-19.74079h-54.4038v-23.47134h59.2224z"/><path d="m3708.4054 770.71712c.3886 17.21638 3.9291 30.05451 10.6217 38.51441 6.6925 8.45994 14.2053 14.0097 22.5387 16.64928 8.3332 2.63958 15.1552 3.83704 20.4661 3.59237 5.3108.24467 12.1329-.95278 20.4662-3.59237 8.3332-2.63959 15.8461-8.18935 22.5387-16.64928 6.6924-8.4599 10.233-21.29803 10.6217-38.51441-.3887-17.21627-3.9293-30.05439-10.6217-38.51441-6.6926-8.45982-14.2055-14.00958-22.5387-16.64927-8.3333-2.63948-15.1554-3.83694-20.4662-3.59238-5.3109-.24455-12.1329.9529-20.4661 3.59238-8.3334 2.63969-15.8462 8.18945-22.5387 16.64927-6.6926 8.46002-10.2331 21.29814-10.6217 38.51441zm23.3159 0c.476-15.29451 3.9539-25.70246 10.4338-31.22387 6.4799-5.52124 13.1055-8.11837 19.8768-7.79139 6.7713-.32698 13.3969 2.27015 19.8768 7.79139 6.4798 5.52142 9.9578 15.92937 10.4339 31.22387-.4761 15.29462-3.9541 25.70257-10.4339 31.22387-6.4799 5.52136-13.1055 8.11849-19.8768 7.7914-6.7713.32708-13.3969-2.27005-19.8768-7.7914-6.4799-5.5213-9.9578-15.92925-10.4338-31.22387z"/><path d="m3886.5938 785.17298h25.9583c-2.9145 10.88402-7.3834 17.79458-13.4066 20.73171-6.0233 2.93718-10.5699 4.21307-13.6398 3.8277-8.2902.30442-15.6865-2.28623-22.189-7.77197-6.5025-5.48568-9.9352-15.69285-10.2978-30.62154.2946-14.18377 3.5524-24.44275 9.7732-30.77698 6.2208-6.33407 13.6365-9.44285 22.2473-9.32636 8.2252.49232 14.3521 3.00525 18.3807 7.5388 4.0284 4.53373 6.0361 8.13474 6.0233 10.80304h23.3159c-.3629-5.30885-2.2454-10.83941-5.6477-16.59171-3.4025-5.75212-8.6356-10.64941-15.6994-14.6919-7.0639-4.04227-16.2693-6.15317-27.6163-6.33271h-.3109c-12.463.16803-22.7009 3.02734-30.7137 8.57795-8.0128 5.55082-13.9444 12.78546-17.7949 21.70393-3.8505 8.91865-5.7637 18.51366-5.7397 28.78506.4566 19.57244 5.6443 34.20963 15.5633 43.91161 9.919 9.702 21.8295 14.54652 35.7316 14.53357 9.9902-.27849 17.6002-2.24739 22.8302-5.90669 5.2298-3.6593 9.2259-7.33802 11.9882-11.03619l2.3316 13.98954h15.544v-60.15502h-46.6318z"/><path d="m3978.6688 803.51482h41.1914l7.1502 23.00502h25.3366l-39.3261-111.60543h-26.891l-39.7925 111.60543h24.5594zm20.518-63.41924h.3109l13.8341 44.14476h-28.4454z"/><path d="m4174.4703 714.91441h-33.7304l-19.8962 87.97865h-.3109l-20.2071-87.97865h-34.0412v111.60543h21.7615v-93.26359h.3109l20.3625 93.26359h22.8496l20.8289-93.26359h.3109v93.26359h21.7615z"/><path d="m4278.7766 714.91441h-82.072v111.60543h84.7144v-19.7408h-61.8648v-28.91171h54.4038v-19.74079h-54.4038v-23.47134h59.2224z"/></g><g fill="#fff"><path d="m14.635195 724.89809 35.257213-58.56692c1.67888-3.34665 3.357798-5.02 5.036764-5.02005h25.183723v7.78104l1.678918-2.76099c1.678851-3.34665 3.357764-5.02 5.036759-5.02005h30.220448v63.58697h-20.146987v-50.20023l-30.220454 50.20023h-20.147007l30.220497-50.20023h-10.07349c-1.119336.00006-2.238624.55784-3.357845 1.67334l-28.54157 48.52689h-20.146969zm129.276465-25.10015v11.7134h47.00963v13.38675h-67.15658v-41.83354c0-1.11551.27981-2.23107.83944-3.34664l9.23405-16.73345c.55962-1.11545 1.67888-1.67329 3.35783-1.67334h53.72526v13.38674h-40.29395c-1.11932.00006-1.95878.55784-2.51839 1.67334l-4.19729 10.04005h47.00963l-6.71566 13.38669zm73.87227 11.7134h33.57828v-11.7134h-13.43132l6.71568-13.38669h26.86264v35.14014c-.00008 2.23113-1.11934 3.3467-3.35785 3.3467h-67.15658c-2.23855 0-3.3578-1.11557-3.3578-3.3467v-38.48684c0-1.11551.27981-2.23107.83944-3.34664l9.23398-16.73345c.55967-1.11545 1.67894-1.67329 3.35787-1.67334h57.08309v13.38674h-43.65178c-1.11926.00006-1.95875.55784-2.51835 1.67334l-4.1973 10.04005zm144.38678 13.38675h-23.50486l-9.23404-13.38675h-24.34434l-6.71552-12.13169v25.51844h-20.14708v-63.58697h38.61499c1.67896.00005 3.35793 1.6734 5.03684 5.02005zm-42.05694-26.77344-15.0263-21.75345c-1.11923-1.1155-2.23856-1.67328-3.35778-1.67334h-3.35774v23.42679z"/><path d="m398.34651 712.28015h24.37066c1.1605 0 2.03078-.52395 2.61116-1.57193l7.39818-15.89361.43521-1.74661-.43521-1.74655-7.39818-15.719c-.58038-1.16433-1.45066-1.7465-2.61116-1.74655h-24.37066zm-20.88908-52.39676h58.31544c1.7407.00006 3.19124 1.1645 4.35186 3.49315l13.49088 27.94491.43522 1.74655-.43522 1.74661-13.49088 27.9449c-1.16062 2.32872-2.61116 3.4931-4.35186 3.4931h-58.31544zm83.5564 0h55.70428c1.74074.00006 3.19126 1.1645 4.35185 3.49315l9.13892 19.2121.43522 1.74656-.43522 1.74661-13.49077 15.719 13.92599 24.4518h-20.88908l-20.01867-33.18461h10.44453c1.16048.00006 2.03091-.29102 2.61113-.87325l6.96301-7.85955-3.48144-8.73275c-.58039-1.16433-1.45068-1.7465-2.61113-1.74655h-21.75954v52.39671h-20.88908zm97.48251 66.36922h-20.8891v-66.36922h20.8891zm27.85211-44.53721 20.88911 30.56475 20.88904-30.56475v-21.83201h20.88912v24.45181c-.00012 2.32883-.29019 4.07537-.87047 5.2397l-23.50023 36.67771h-34.81504l-23.50023-36.67771c-.58022-1.16433-.87047-2.91087-.87047-5.2397v-24.45181h20.88917zm90.51932 18.33886v12.22589h48.74133v13.97246h-69.63038v-43.66397c0-1.16432.29013-2.32871.8704-3.4931l9.57418-17.46554c.58021-1.16433 1.74065-1.74655 3.48153-1.74661h55.70427v13.97251h-41.77816c-1.1606.00005-2.03102.58222-2.61117 1.74655l-4.352 10.47936h48.74133l-6.96311 13.97245z"/><g><path d="m676.15653 573.33392h-7.35286v-28.96571h-10.63442v-6.2236h28.6217v6.2236h-10.63442z"/><path d="m724.93876 573.33392h-6.86227v-29.40694h-.0987l-6.56612 29.40694h-7.20479l-6.42103-29.40694h-.0972v29.40694h-6.86227v-35.18931h10.73314l6.37167 27.73924h.0987l6.27296-27.73924h10.63592z"/></g></g></g></svg>