<svg height="180mm" viewBox="0 0 440 180" width="440mm" xmlns="http://www.w3.org/2000/svg"><g fill="#00f" transform="matrix(1.1560505 0 0 1.1852466 -10.077123 -135.269052)"><path d="m33.587572 181.94796 38.890873-153.088616h36.062445l18.73833 66.82159 19.44544-66.82159h33.94112l31.81981 112.783536 77.6353-.14645c8.14964-.0794 8.64953-16.93207-.60356-16.92767l-45.21194-.60355c-19.41491.18783-39.88781-20.81635-38.89087-48.790372.20715-25.659104 22.58172-45.865348 51.20458-45.858388l115.31907-.103553 29.34493 39.951533 28.63782-40.305086 47.72971.353553-52.3259 73.539103 56.56854 79.73886-47.47971-.14645-32.92335-45.75484-31.31981 45.75484-48.43681-.0429 55.15432-78.84241-24.04163-35.001787-100.24495.146447c-10.94025.100271-10.5391 17.311276.0858 16.98833l42.23707.646446c17.85089.115598 42.99112 18.665604 42.36574 47.626154.27297 33.66878-30.05167 49.04998-44.65128 48.22971l-110.55866.14646-18.38478-68.88226-18.38478 68.73581h-34.89823l-19.195435-68.38225-16.86701 68.4858z" transform="matrix(.69263838 0 0 .88042971 -12.011993 96.78543043237)"/><path d="m354.5933 164.67003c-2.64193-.002-5.27838.18004-7.25324.5491-13.31667 2.48864-22.10258 10.28445-24.19348 21.46666-.26166 1.39953-.41644 3.65433-.43593 6.34077l-.0306 4.16874 12.08374.002 12.08372.002.15399-2.88042c.19512-3.65757.52469-5.11328 1.55605-6.87061 1.32377-2.25554 3.06533-3.15057 6.15524-3.16301 3.28637-.0133 5.48193 1.36343 6.44109 4.03901 1.00248 2.7965.53719 7.3187-1.09993 10.68741-.96707 1.98987-2.2411 3.45032-4.15289 4.76024-.9659.66185-3.45366 2.54617-5.52893 4.18736-2.0753 1.64119-5.51128 4.31085-7.63525 5.93231-6.53862 4.99156-9.03047 7.75391-12.92445 14.32952-4.05521 6.84794-6.0277 12.99863-6.75883 21.07361-.28015 3.09441-.32928 8.0607-.0818 8.2938.0919.0866 14.24674.13043 31.45517.0977l31.28818-.059.0644-11.32323.065-11.32322-16.82915-.0604-16.82915-.0604 1.1662-1.5253c2.63235-3.44432 7.11406-7.073 14.92228-12.08169 11.67307-7.48791 15.83627-11.929 18.048-19.25225 3.49473-11.57122 1.49843-20.99565-5.94346-28.05789-4.52684-4.2959-10.8833-7.28868-18.49952-8.71061-1.99717-.37286-4.64446-.56071-7.28637-.56324z" stroke="#fff" stroke-width=".241822"/></g></svg>