<?xml version="1.0" encoding="UTF-8" standalone="no"?>
<!DOCTYPE svg PUBLIC "-//W3C//DTD SVG 1.1//EN" "http://www.w3.org/Graphics/SVG/1.1/DTD/svg11.dtd">
<svg width="100%" height="100%" viewBox="0 0 601 172" version="1.1" xmlns="http://www.w3.org/2000/svg" xmlns:xlink="http://www.w3.org/1999/xlink" xml:space="preserve" xmlns:serif="http://www.serif.com/" style="fill-rule:evenodd;clip-rule:evenodd;stroke-linejoin:round;stroke-miterlimit:2;">
    <g transform="matrix(0.317912,0,0,-0.317912,-9.82604,184.165)">
        <g id="g99">
            <g id="g10">
                <g id="g12">
                    <g id="g14">
                        <g id="g20" transform="matrix(1,0,0,1,30.908,309.03)">
                            <path id="path22" d="M0,0C0,149.251 121.013,270.264 270.262,270.264C419.512,270.264 540.526,149.251 540.526,0C540.526,-149.25 419.512,-270.262 270.262,-270.262C121.013,-270.262 0,-149.25 0,0" style="fill-rule:nonzero;"/>
                        </g>
                        <g id="g24" transform="matrix(1,0,0,1,405.683,391.905)">
                            <path id="path26" d="M0,0C-4.763,1.051 -9.038,5.4 -9.038,5.4L-7.237,10.8L-1.8,14.4C-1.8,14.4 3.6,13.951 5.4,12.6C7.2,11.25 9,5.4 9,5.4L4.95,1.8C4.95,1.8 4.05,-0.899 0,0M30.601,30.637L37.837,41.439L46.839,41.439C46.839,41.439 54.488,30.189 54.488,28.387C54.488,26.587 48.638,18.001 48.638,18.001L36.9,18.45L30.601,30.637ZM30.601,-59.438C36.713,-63.338 43.2,-63.263 49.501,-63.188C60.039,-63.074 70.162,-59.774 77.437,-51.337C83.325,-42.788 83.477,-37.461 86.925,-27.788C88.95,-22.125 91.425,-18.9 91.425,-18.9C91.425,-18.9 93.45,-26.55 93.226,-35.586C93.075,-41.625 91.988,-47.999 88.275,-54.038C81.075,-65.775 74.288,-70.274 69.339,-71.175C64.388,-72.074 50.439,-73.874 41.437,-69.825C34.388,-66.638 30.601,-59.438 30.601,-59.438M-9.038,95.475L-52.274,32.438L-21.638,-34.237L32.4,-102.713L73.837,-117.112L126.112,-54.038L118.912,0L64.838,75.676L-9.038,95.475Z" style="fill:rgb(247,178,16);fill-rule:nonzero;"/>
                        </g>
                        <g id="g28" transform="matrix(1,0,0,1,84.9827,291.03)">
                            <path id="path30" d="M0,0L5.4,144.114L23.401,165.751L93.675,113.475L111.676,220.238L115.276,189.15L124.312,205.388L126.112,190.95L138.713,207.188L140.813,17.699L39.637,95.476C39.637,95.476 0,0.9 0,0" style="fill:rgb(247,178,16);fill-rule:nonzero;"/>
                        </g>
                        <g id="g32" transform="matrix(1,0,0,1,241.696,507.217)">
                            <path id="path34" d="M0,0L121.95,34.237C121.95,34.237 97.313,19.801 99.113,19.801C100.912,19.801 115.313,18.001 115.313,18.001L86.512,0L118.912,1.8L32.437,-48.636L32.437,-52.238L126.15,-46.836L32.437,-113.513L32.437,-133.311L103.014,-124.612C103.014,-124.612 79.726,-137.849 81.111,-136.95C82.464,-136.013 98.212,-136.312 98.212,-136.312L88.313,-142.35L105.412,-142.35L1.838,-216.187L0,0Z" style="fill:rgb(247,178,16);fill-rule:nonzero;"/>
                        </g>
                        <g id="g36" transform="matrix(1,0,0,1,232.696,235.155)">
                            <path id="path38" d="M0,0L-29.774,65.176C-29.774,65.176 -46.274,80.064 -75.562,79.013C-82.013,78.788 -135.3,78.375 -138.713,-3.6C-141.751,-76.912 -92.887,-111.563 -92.887,-111.563C-92.887,-111.563 -69.225,-129.037 -51.712,-139.65C-34.2,-150.299 -1.8,-165.75 -1.8,-165.75L-27.001,-5.398L-81.075,-21.6L-70.237,-23.4L-88.275,-37.838L-72.076,-39.637L-82.875,-50.438L-54.038,-52.237L-43.238,-93.674C-43.238,-93.674 -65.213,-86.774 -83.701,-68.4C-98.849,-53.325 -111.037,-28.761 -111.712,-8.999C-112.35,10.762 -103.088,35.701 -75.675,36.038C-48.224,36.375 0,0 0,0" style="fill:rgb(16,130,206);fill-rule:nonzero;"/>
                        </g>
                        <g id="g40" transform="matrix(1,0,0,1,218.296,190.118)">
                            <path id="path42" d="M0,0L102.675,140.549L167.549,88.274C167.549,88.274 159.448,90.339 158.55,90.074C157.649,89.85 172.949,68.475 172.949,68.475L153.149,75.676L163.949,61.276L97.274,84.675L91.875,79.275L135.112,7.199L46.837,10.799L95.476,-82.875L77.474,-79.274L85.95,-100.463L70.725,-87.225L82.874,-109.912L0,0Z" style="fill:rgb(16,130,206);fill-rule:nonzero;"/>
                        </g>
                        <g id="g44" transform="matrix(1,0,0,1,371.446,148.68)">
                            <path id="path46" d="M0,0L5.4,9L21.6,16.199L34.237,0L45.037,0L59.438,5.4L70.237,-18L43.237,-30.637L30.601,-30.637L25.199,-19.838L7.2,-19.838L0,0ZM93.675,48.637C93.675,48.637 100.237,51.563 100.875,50.438C101.512,49.351 109.875,48.637 109.875,48.637L109.875,39.637L102.675,34.237L93.675,39.637L93.675,48.637ZM55.839,57.639L48.637,68.475L55.839,82.875L73.875,84.676L79.276,73.875L73.875,59.438L55.839,57.639ZM-25.238,23.437L-27.037,-41.438L1.801,-64.875L52.574,-54.188L136.912,19.799L142.312,111.713L45.037,111.713L-25.238,23.437Z" style="fill:rgb(16,130,206);fill-rule:nonzero;"/>
                        </g>
                        <g>
                            <g id="g48" transform="matrix(1,0,0,1,1681.46,146.52)">
                                <path id="path50" d="M0,0L-149.62,0C-154.932,0 -160.051,0.197 -165.169,0.984C-170.091,1.575 -174.619,2.559 -178.753,3.74C-184.659,5.118 -188.99,8.071 -191.746,10.431C-194.108,12.599 -195.29,14.962 -195.29,17.324L-195.29,43.31C-194.699,45.476 -193.124,48.232 -190.565,50.2C-188.008,52.169 -184.462,53.941 -180.328,55.122C-175.997,56.303 -171.272,57.288 -165.957,57.878C-160.445,58.469 -154.735,58.862 -148.436,58.862L0,58.862L0,50.988L-148.436,50.988C-154.735,50.988 -160.248,50.791 -165.169,50.2C-169.897,49.61 -174.619,48.626 -178.95,47.447C-184.856,45.673 -186.037,43.507 -187.218,40.554L-187.415,34.454L-0.197,34.454L0,26.38L-187.218,26.38L-187.218,17.915C-187.218,15.749 -185.643,13.584 -177.771,11.418C-173.831,10.431 -169.5,9.646 -164.579,9.053C-159.66,8.268 -154.735,8.071 -149.814,8.071L0,8.071L0,0Z" style="fill:rgb(244,244,244);fill-rule:nonzero;"/>
                            </g>
                            <g id="g52" transform="matrix(1,0,0,1,1372.38,146.52)">
                                <path id="path54" d="M0,0L-0.394,0L0,0Z" style="fill:rgb(244,244,244);fill-rule:nonzero;"/>
                            </g>
                            <g id="g56" transform="matrix(1,0,0,1,1462.55,197.114)">
                                <path id="path58" d="M0,0L-94.298,0L-94.298,-50.594L-102.569,-50.594L-102.569,0L-196.67,0L-196.67,8.268L0,8.268L0,0Z" style="fill:rgb(244,244,244);fill-rule:nonzero;"/>
                            </g>
                            <g id="g60" transform="matrix(1,0,0,1,992.238,170.93)">
                                <path id="path62" d="M17.521,0L-54.531,0L-54.531,-24.411L-62.8,-24.411L-62.8,0L-133.277,0C-143.908,0 -157.095,1.381 -157.095,17.13L-157.095,34.454L-148.436,34.454L-148.436,17.915C-148.436,7.481 -138.396,8.468 -131.899,8.468L16.34,8.468C23.033,8.468 33.073,7.481 33.073,17.915L33.073,34.454L41.341,34.454L41.341,17.13C41.342,1.381 28.152,0 17.521,0Z" style="fill:rgb(244,244,244);fill-rule:nonzero;"/>
                            </g>
                            <g id="g64" transform="matrix(1,0,0,1,813.879,196.919)">
                                <path id="path66" d="M0,0L-157.492,0C-165.366,0 -172.453,-1.381 -177.572,-3.546C-181.509,-5.121 -183.871,-6.893 -183.871,-8.468C-183.871,-10.043 -181.509,-11.812 -177.572,-13.387C-172.453,-15.358 -165.366,-16.736 -157.492,-16.736L-34.648,-16.736C-28.742,-16.736 -23.033,-17.324 -18.308,-18.505C-15.749,-19.096 -13.584,-19.883 -11.418,-20.674C-9.253,-21.655 -7.284,-22.642 -5.709,-23.626C-1.969,-26.38 0.197,-29.729 0.197,-33.467L0.197,-33.667C0.197,-38.982 -4.331,-43.507 -11.418,-46.46C-17.521,-48.822 -25.789,-50.4 -34.648,-50.4L-189.974,-50.4L-189.974,-41.932L-34.648,-41.932C-26.774,-41.932 -19.686,-40.554 -14.568,-38.588C-10.828,-36.816 -8.268,-35.042 -8.268,-33.667L-8.268,-33.467C-8.268,-32.682 -9.253,-31.698 -10.631,-30.711C-11.812,-29.923 -13.19,-29.336 -14.568,-28.545C-16.34,-27.957 -18.112,-27.367 -20.277,-26.776C-24.411,-25.792 -29.333,-25.201 -34.648,-25.201L-157.492,-25.201C-166.351,-25.201 -174.619,-23.823 -180.722,-21.261C-187.809,-18.311 -192.337,-13.783 -192.337,-8.468C-192.337,-2.953 -187.809,1.572 -180.722,4.525C-174.619,6.89 -166.351,8.465 -157.492,8.465L0,8.465L0,0Z" style="fill:rgb(244,244,244);fill-rule:nonzero;"/>
                            </g>
                            <g id="g68" transform="matrix(1,0,0,1,1245.99,196.919)">
                                <path id="path70" d="M0,0L-157.292,0C-165.167,0 -172.254,-1.381 -177.372,-3.546C-181.309,-5.121 -183.672,-6.893 -183.672,-8.468C-183.672,-10.043 -181.309,-11.812 -177.372,-13.387C-172.254,-15.358 -165.167,-16.736 -157.292,-16.736L-34.451,-16.736C-28.543,-16.736 -22.833,-17.324 -18.306,-18.505C-15.749,-19.096 -13.581,-19.883 -11.418,-20.674C-9.25,-21.655 -7.284,-22.642 -5.706,-23.626L-5.903,-23.626C-1.966,-26.38 0.197,-29.729 0.197,-33.467L0.197,-33.667C0.197,-38.982 -4.331,-43.507 -11.418,-46.46C-17.518,-48.822 -25.59,-50.4 -34.451,-50.4L-189.775,-50.4L-189.775,-41.932L-34.451,-41.932C-26.574,-41.932 -19.684,-40.554 -14.762,-38.588C-10.828,-36.816 -8.266,-35.042 -8.266,-33.667L-8.266,-33.467C-8.266,-32.682 -9.25,-31.698 -10.628,-30.711C-11.809,-29.923 -13.187,-29.336 -14.565,-28.545C-16.337,-27.957 -18.109,-27.367 -20.077,-26.776C-24.212,-25.792 -29.133,-25.201 -34.451,-25.201L-157.292,-25.201C-166.151,-25.201 -174.419,-23.823 -180.522,-21.261C-187.609,-18.311 -192.137,-13.783 -192.137,-8.468C-192.137,-2.953 -187.806,1.572 -180.522,4.525C-174.419,6.89 -166.151,8.465 -157.292,8.465L0,8.465L0,0Z" style="fill:rgb(244,244,244);fill-rule:nonzero;"/>
                            </g>
                            <g id="g72" transform="matrix(1,0,0,1,1902.34,205.383)">
                                <path id="path74" d="M0,0C2.166,0 4.331,-1.575 4.331,-4.134L4.331,-58.862L-3.74,-58.862L-3.74,-11.418L-93.117,-56.5L-94.298,-56.897C-99.22,-58.862 -100.598,-58.471 -104.144,-56.897L-105.323,-56.303L-193.914,-11.224L-193.914,-58.863L-202.379,-58.863L-202.379,-3.937C-202.379,-1.378 -200.214,0 -198.245,0C-197.061,0 -196.474,-0.197 -195.486,-0.787L-103.357,-48.235C-99.813,-49.809 -99.22,-50.594 -94.889,-48.431L-13.39,-6.893L-1.772,-0.593C-1.181,-0.197 -0.396,0 0,0" style="fill:rgb(244,244,244);fill-rule:nonzero;"/>
                            </g>
                            <g id="g76" transform="matrix(1,0,0,1,1496.21,471.543)">
                                <path id="path78" d="M0,0L0,-70.281L-5.512,-70.281C-12.009,-50.988 -21.852,-36.42 -35.039,-26.579C-48.035,-16.537 -55.91,-11.418 -71.462,-11.418C-86.227,-11.418 -98.629,-15.749 -108.472,-24.017C-118.515,-32.485 -125.403,-44.098 -129.537,-59.059C-133.671,-74.021 -135.637,-89.376 -135.637,-105.126C-135.637,-124.221 -133.471,-140.955 -128.946,-155.329C-124.418,-169.894 -117.134,-177.569 -107.094,-184.268C-97.054,-190.959 -88.983,-194.305 -75.202,-194.305C-70.281,-194.305 -65.359,-193.912 -60.438,-192.93C-55.316,-191.746 -51.382,-190.368 -46.069,-188.399L-46.069,-137.608C-46.069,-129.734 -46.657,-124.615 -47.641,-122.253C-48.823,-120.087 -50.988,-117.922 -54.335,-116.15C-57.684,-114.181 -61.816,-113.197 -66.737,-113.197L-71.856,-113.197L-71.856,-107.882L25.002,-107.882L25.002,-113.197C17.718,-113.788 12.599,-114.775 9.644,-116.347C6.691,-117.728 4.525,-120.284 2.953,-123.828C2.165,-125.796 1.769,-130.324 1.575,-137.608L1.181,-186.824C-11.421,-192.337 -23.033,-197.061 -36.814,-200.014C-50.594,-202.77 -64.968,-205.13 -79.73,-205.13C-98.629,-205.13 -110.638,-203.755 -123.04,-198.636C-135.637,-193.518 -146.467,-188.793 -156.116,-180.522C-165.566,-172.06 -173.044,-162.613 -178.556,-152.176C-185.25,-138.593 -188.793,-123.631 -188.793,-106.698C-188.793,-76.777 -178.162,-51.578 -157.098,-30.91C-136.23,-10.237 -109.654,0 -77.762,0C-63.194,0 -50.201,-3.74 -36.617,-8.859C-26.97,-12.599 -21.261,-14.371 -19.49,-14.371C-16.734,-14.371 -14.371,-13.387 -12.009,-11.418C-9.646,-9.449 -7.481,-5.709 -5.512,0L0,0Z" style="fill:rgb(244,244,244);fill-rule:nonzero;"/>
                            </g>
                            <g id="g80" transform="matrix(1,0,0,1,1139.1,458.748)">
                                <path id="path82" d="M0,0L-0.394,0L-0.394,11.022C32.089,11.809 58.863,2.559 79.336,-16.342C100.204,-35.829 110.635,-60.046 110.635,-89.18C110.635,-114.181 102.766,-136.033 87.211,-155.129C66.54,-180.134 37.404,-192.73 -0.394,-192.73L-0.394,-177.572C10.04,-177.572 19.096,-174.816 25.986,-170.094C34.845,-164.188 40.554,-154.539 45.476,-141.349C50.397,-128.356 53.744,-111.622 53.744,-90.558C53.744,-65.359 51.185,-46.657 46.066,-34.254C41.145,-21.655 34.648,-12.993 26.97,-7.68C19.096,-2.562 10.04,0 0,0M-0.394,0C-19.096,-0.197 -33.073,-9.059 -42.72,-26.776C-50.791,-41.147 -54.728,-62.209 -54.728,-89.376C-54.728,-121.859 -49.019,-146.27 -36.814,-161.626C-28.152,-172.453 -15.749,-177.572 -0.394,-177.572L-0.394,-192.73L-0.591,-192.73C-38.389,-192.73 -67.721,-180.724 -88.392,-156.707C-104.732,-137.805 -113,-115.363 -113,-89.376C-113,-60.241 -102.37,-35.829 -81.108,-16.539C-59.847,2.953 -33.664,12.206 -2.559,11.022L-0.394,11.022L-0.394,0Z" style="fill:rgb(244,244,244);fill-rule:nonzero;"/>
                            </g>
                            <g id="g84" transform="matrix(1,0,0,1,921.367,455.4)">
                                <path id="path86" d="M0,0L0,-78.549L4.331,-78.549C17.915,-78.549 23.23,-74.612 29.333,-66.54C35.436,-58.666 39.373,-47.048 40.948,-31.498L47.051,-31.498L47.051,-135.837L40.948,-135.837C39.767,-124.418 37.011,-115.163 33.073,-107.882C28.939,-100.598 24.214,-95.676 18.899,-93.314C13.584,-90.752 10.237,-89.573 0,-89.573L0,-148.042C0,-159.067 0.591,-165.76 1.575,-168.122C2.559,-170.682 4.331,-172.65 7.087,-174.225C9.843,-175.8 14.174,-176.587 20.474,-176.587L33.27,-176.587C53.153,-176.587 58.862,-172.256 70.871,-163.594C82.88,-155.129 91.148,-145.286 96.464,-127.568L102.37,-127.568L93.117,-187.609L-81.896,-187.609L-81.896,-182.1L-74.612,-182.1C-68.509,-182.1 -63.39,-181.115 -59.65,-179.147C-56.894,-177.769 -54.728,-175.406 -53.35,-172.06C-52.169,-169.697 -51.578,-163.594 -51.578,-153.554L-51.578,-22.44C-51.578,-13.584 -51.775,-8.069 -52.366,-5.906C-53.35,-2.559 -55.319,0.197 -58.272,1.971C-62.209,4.727 -67.721,6.103 -74.612,6.103L-81.896,6.103L-81.896,11.615L97.645,11.615L97.645,-47.245L91.739,-47.245C88.589,-32.874 84.455,-22.637 78.746,-16.343C73.234,-10.04 65.556,-5.512 55.319,-2.559C49.413,-0.787 38.389,0 22.049,0L0,0Z" style="fill:rgb(244,244,244);fill-rule:nonzero;"/>
                            </g>
                            <g id="g88" transform="matrix(1,0,0,1,688.673,467.015)">
                                <path id="path90" d="M0,0L110.441,-123.631L110.441,-37.992C110.441,-25.986 108.669,-17.915 104.732,-13.778C99.417,-8.071 93.117,-5.313 80.518,-5.512L80.518,0L147.255,0L147.255,-5.512C137.805,-6.497 136.23,-8.071 133.08,-9.644C129.734,-11.418 127.174,-14.174 125.403,-18.112C123.631,-21.852 122.647,-28.543 122.647,-37.992L122.647,-203.752L117.134,-203.752L-34.451,-37.992L-34.451,-164.576C-34.451,-175.994 -31.498,-183.675 -25.592,-187.806C-19.686,-191.746 -12.993,-193.715 -5.315,-193.715L0,-193.715L0,-199.224L-79.533,-199.224L-79.533,-193.715C-67.131,-193.715 -58.666,-191.352 -53.744,-187.021C-49.019,-182.69 -46.46,-175.209 -46.46,-164.576L-46.46,-24.015L-51.382,-18.702C-56.106,-13.384 -60.241,-10.04 -63.784,-8.266C-67.525,-6.691 -64.178,-5.709 -70.871,-5.512L-70.871,0L0,0Z" style="fill:rgb(244,244,244);fill-rule:nonzero;"/>
                            </g>
                            <g id="g92" transform="matrix(1,0,0,1,1808.24,458.748)">
                                <path id="path94" d="M0,0L-0.394,0L-0.394,11.022C32.089,11.809 58.86,2.559 79.334,-16.342C100.398,-35.829 110.832,-60.046 110.832,-89.18C110.832,-114.181 102.96,-136.033 87.405,-155.129C66.537,-180.134 37.401,-192.73 -0.394,-192.73L-0.394,-177.572C10.037,-177.572 19.096,-174.816 25.983,-170.094C34.845,-164.188 40.554,-154.539 45.473,-141.349C50.395,-128.356 53.744,-111.622 53.744,-90.558C53.744,-65.359 51.182,-46.657 46.064,-34.254C41.142,-21.655 34.645,-12.993 26.97,-7.68C19.096,-2.562 10.037,0 0,0M-0.394,0C-19.099,-0.197 -33.073,-9.059 -42.72,-26.776C-50.794,-41.147 -54.728,-62.209 -54.728,-89.376C-54.728,-121.859 -49.019,-146.27 -36.816,-161.626C-28.154,-172.453 -15.752,-177.572 -0.394,-177.572L-0.394,-192.73L-0.593,-192.73C-38.391,-192.73 -67.724,-180.724 -88.395,-156.707C-104.732,-137.805 -113.003,-115.363 -113.003,-89.376C-113.003,-60.241 -102.372,-35.829 -81.111,-16.539C-59.85,2.953 -33.667,12.206 -2.559,11.022L-0.394,11.022L-0.394,0Z" style="fill:rgb(244,244,244);fill-rule:nonzero;"/>
                            </g>
                            <g id="g96" transform="matrix(1,0,0,1,1590.51,455.4)">
                                <path id="path98" d="M0,0L0,-78.549L4.334,-78.549C17.917,-78.549 23.233,-74.612 29.336,-66.54C35.436,-58.666 39.373,-47.048 40.951,-31.498L47.053,-31.498L47.053,-135.837L40.951,-135.837C39.767,-124.418 37.013,-115.163 33.076,-107.882C28.942,-100.598 24.217,-95.676 18.902,-93.314C13.586,-90.752 10.237,-89.573 -0,-89.573L-0,-148.042C-0,-159.067 0.593,-165.76 1.578,-168.122C2.562,-170.682 4.334,-172.65 7.09,-174.225C9.846,-175.8 14.177,-176.587 20.477,-176.587L33.27,-176.587C53.156,-176.587 58.865,-172.256 70.871,-163.594C82.883,-155.129 91.148,-145.286 96.466,-127.568L102.372,-127.568L93.12,-187.609L-81.893,-187.609L-81.893,-182.1L-74.609,-182.1C-68.509,-182.1 -63.388,-181.115 -59.647,-179.147C-56.894,-177.769 -54.728,-175.406 -53.348,-172.06C-52.169,-169.697 -51.576,-163.594 -51.576,-153.554L-51.576,-22.44C-51.576,-13.584 -51.773,-8.069 -52.363,-5.906C-53.348,-2.559 -55.316,0.197 -58.269,1.971C-62.209,4.727 -67.719,6.103 -74.609,6.103L-81.893,6.103L-81.893,11.615L97.648,11.615L97.648,-47.245L91.742,-47.245C88.589,-32.874 84.458,-22.637 78.749,-16.343C73.236,-10.04 65.559,-5.512 55.322,-2.559C49.413,-0.787 38.389,0 22.052,0L0,0Z" style="fill:rgb(244,244,244);fill-rule:nonzero;"/>
                            </g>
                            <g id="g100" transform="matrix(1,0,0,1,1277.3,388.072)">
                                <path id="path102" d="M0,0L1.184,0C12.402,0 21.461,-8.856 21.461,-19.49C21.461,-30.12 12.402,-38.782 1.184,-38.782L0,-38.782C-11.219,-38.782 -20.274,-30.12 -20.274,-19.49C-20.274,-8.856 -11.219,0 0,0" style="fill:rgb(244,244,244);fill-rule:nonzero;"/>
                            </g>
                        </g>
                    </g>
                </g>
            </g>
        </g>
    </g>
</svg>
