<svg clip-rule="evenodd" fill-rule="evenodd" viewBox="0 0 329 140" xmlns="http://www.w3.org/2000/svg"><g fill-rule="nonzero"><g fill="#fff" transform="matrix(.49372912508 0 0 .49372912508 47.8320326108 -59.6750464479)"><path d="m53.668 317.394h-30.779v30.138h9.557v-20.162c0-1.277 1.057-2.337 2.333-2.337h16.551c1.27 0 2.338 1.06 2.338 2.337v20.162h9.545v-20.162s1.277-9.976-9.545-9.976"/><path d="m319.575 317.394h-30.781v30.138h9.761v-20.162c0-1.277 1.068-2.337 2.128-2.337h16.558c1.267 0 2.334 1.06 2.334 2.337v20.162h9.542v-20.162s1.273-9.976-9.542-9.976"/><path d="m464.518 317.394h-30.775v30.138h9.557v-20.162c0-1.277 1.052-2.337 2.334-2.337h16.55c1.267 0 2.334 1.06 2.334 2.337v20.162h9.549v-20.162s1.267-9.976-9.549-9.976"/><path d="m67.461 325.033h10.609c1.061 0 2.338 1.06 2.338 2.337v20.162h10.179v-20.162c0-1.277 1.067-2.337 2.337-2.337h10.609v-7.639h-36.072z"/><path d="m478.095 317.394v7.639h10.616c1.266 0 2.334 1.06 2.334 2.337v20.162h10.616v-20.162c0-1.277.84-2.337 2.113-2.337h10.616v-7.639z"/><path d="m188.638 325.033h10.61c1.27 0 2.337 1.06 2.337 2.337v20.162h10.602v-20.162c0-1.277 1.068-2.337 2.345-2.337h10.602v-7.639h-36.496z"/><path d="m272.249 317.394h10.184v30.137h-10.184z"/><path d="m255.905 332.255h-17.181v-5.308c0-.854 1.271-1.914 1.904-1.914h12.943c1.481 0 2.334 1.06 2.334 1.914zm-.213-14.861h-16.764c-10.823 0-9.969 9.976-9.969 9.976v20.162h9.765v-7.635h17.181v7.635h9.756v-20.162s1.273-9.976-9.969-9.976"/><path d="m175.054 329.921c0 1.48-.632 2.334-1.91 2.334h-14.007c-.633 0-1.48-.854-1.48-2.334v-2.974c0-1.277.847-2.337 2.117-2.337h13.37c1.278 0 1.91.63 1.91 2.337zm-.209-12.527h-27.164v30.138h9.976v-5.735c0-1.273.847-1.9 2.117-1.9h13.37c.634 0 1.91 1.06 1.91 1.9v5.735h9.546v-4.662s.854-4.26-3.604-7.228c2.971-2.12 4.035-5.295 4.248-7.215.21-.847.21-1.48.21-1.48s0-9.553-10.609-9.553"/><path d="m-17.22 337.556s-1.058 9.976 9.979 9.976h23.769v-7.635h-22.075c-1.484 0-2.761-1.287-2.761-2.548 0-1.486 1.067-2.34 2.761-2.34h20.805v-5.302h-21.229c-1.27 0-2.337-1.06-2.337-2.337s1.067-2.337 2.337-2.337h22.499v-7.639h-33.748z"/><path d="m107.995 337.556s-1.491 9.976 9.552 9.976h23.769v-7.635h-22.075c-1.491 0-2.761-1.287-2.761-2.548 0-1.486 1.27-2.34 2.761-2.34h20.798v-5.302h-20.798c-1.491 0-2.761-1.06-2.761-2.337s1.27-2.337 2.761-2.337h22.075v-7.639h-33.321z"/><path d="m394.06 337.556s-1.067 9.976 9.763 9.976h23.979v-7.635h-22.286c-1.273 0-2.546-1.287-2.546-2.548 0-1.486.853-2.34 2.339-2.34h20.792v-5.302h-20.792c-1.486 0-2.339-1.06-2.339-2.337s.853-2.337 2.339-2.337h22.493v-7.639h-33.742z"/><path d="m378.216 317.434h-42.664v30.132h8.916v-20.156c0-1.27 1.06-2.334 2.334-2.334h7.209c1.279 0 2.346 1.064 2.346 2.334v20.156h9.97v-20.156c0-1.27.853-2.334 2.334-2.334h7.642c.846 0 1.913 1.064 1.913 2.334l.414 20.156h9.549v-20.156s1.273-9.976-9.963-9.976"/><path d="m242.539 367.05h10.819c.84 0 1.907 1.067 1.907 2.334v20.158h10.617l.42-20.158c0-1.267.632-2.334 1.913-2.334h10.616v-7.635h-36.292z"/><path d="m365.2 359.415h-42.651v30.127h8.909v-20.158c0-1.267 1.06-2.334 2.334-2.334h7.215c1.267 0 2.327 1.067 2.327 2.334v20.158h9.975v-20.158c0-1.267.848-2.334 2.341-2.334h7.636c.853 0 1.914 1.067 1.914 2.334l.426 20.158h9.55v-20.158s1.266-9.969-9.976-9.969"/><path d="m198.824 359.415h-9.129v11.249c0 1.261-1.27 2.327-2.327 2.327h-13.59c-1.27 0-2.334-1.066-2.334-2.327v-11.249h-9.546v11.036s-1.06 10.176 9.976 10.176h3.18v8.915h10.614v-8.915h3.604c11.036 0 9.552-9.963 9.552-9.963z"/><path d="m282.858 379.573s-1.486 9.969 9.55 9.969h23.766v-7.641h-22.066c-1.487 0-2.767-1.061-2.767-2.548 0-1.48 1.28-2.113 2.767-2.113h20.792v-5.315h-20.792c-1.487 0-2.767-1.261-2.767-2.541 0-1.267 1.28-2.334 2.767-2.334h22.066v-7.635h-33.316z"/><path d="m229.382 371.711h-14.224c-1.693 0-2.75-.627-2.75-2.107 0-1.286 1.057-2.554 2.327-2.554h24.193v-7.635h-26.52c-4.885 0-9.123 4.028-9.123 8.702 0 6.576 4.238 9.123 9.97 9.123h14.216c1.488 0 2.974.633 2.974 2.113 0 1.274-1.063 2.548-2.34 2.548h-24.82v7.641h27.16c4.455 0 9.126-3.607 9.126-8.702 0-6.147-4.885-9.129-10.189-9.129"/><path d="m148.528 371.711h-13.793c-1.701 0-2.971-.627-2.971-2.107 0-1.286 1.27-2.554 2.547-2.554h24.193v-7.635h-26.53c-5.305 0-9.552 4.028-9.552 8.702 0 6.576 4.671 9.123 10.399 9.123h13.793c1.701 0 2.971.633 2.971 2.113 0 1.274-1.27 2.548-2.547 2.548h-24.616v7.641h27.163c4.882 0 9.343-3.607 9.343-8.702 0-6.147-4.672-9.129-10.4-9.129"/></g><g transform="matrix(.48639890053 0 0 .48639890053 22.4336898212 -67.1752054695)"><path d="m99.811 309.491c-43.096-.014-71.892-29.234-71.892-64.662s28.862-64.982 71.827-64.892h406.012c4.132-.008 8.133.257 11.992.776 36.257 4.873 59.835 32.096 59.835 64.116 0 35.428-28.797 64.648-71.893 64.662zm.132-113.617c-34.118.063-55.06 21.88-55.06 48.872 0 26.984 20.811 48.983 55.06 48.864h405.618c34.249.112 55.067-21.88 55.067-48.864 0-26.985-20.942-48.802-55.06-48.865z" fill="#e4000f" stroke="#e4000f" stroke-width="22.75"/><path d="m88.104 187.893-35.334 13.711-11.602 25.842-5.273 27.423 6.855 22.677 20.568 19.512 27.423 9.493 410.82.527 39.553-11.602 16.876-23.731 11.602-10.548-.528-25.841-11.602-23.732-24.259-17.403-27.423-8.438z" fill="#e4000f"/><g fill="#fff"><path d="m99.811 309.491c-43.096-.014-71.892-29.234-71.892-64.662s28.862-64.982 71.827-64.892h406.012c6.445-.013 12.573.64 18.334 1.881 32.641 7.028 53.493 32.898 53.493 63.011 0 35.428-28.797 64.648-71.893 64.662zm.132-113.617c-34.118.063-55.06 21.88-55.06 48.872 0 26.984 20.811 48.983 55.06 48.864h405.618c34.249.112 55.067-21.88 55.067-48.864 0-26.985-20.942-48.802-55.06-48.865z"/><g transform="translate(0 93.75)"><g transform="matrix(.0261585 0 0 .0261585 19.2204 82.9732)"><path d="m2883.68 3862.77h-766.48l.28-2475.49h771.31l1066.96 1726.3-.57-1726.3h765.35v2475.49h-764.21l-1072.64-1726.3z"/><path d="m9626.74 3862.77h-745.51l.28-1642.96h-404.79v-244.34l405.08-.29-.57-333.35h744.94v333.07h403.13v244.91h-403.13z"/><path d="m5890.96 3862.77h-744.38v-1646.36l744.38.28z"/><path d="m5890.96 1892.69h-746.08v-505.98h746.08z"/></g><path d="m502.916 162.143s-.009 6.51-.009 9.121c0 6.866-4.056 9.698-7.956 9.698-3.908 0-7.979-2.832-7.979-9.698 0-2.611.009-9.284.009-9.284s.014-6.37.014-8.98c0-6.836 4.078-9.647 7.956-9.647 3.886 0 7.957 2.811 7.957 9.647 0 2.61-.009 7.438.014 9.165zm-7.823-24.128c-15.72 0-28.459 10.826-28.459 24.18s12.746 24.18 28.459 24.18c15.72 0 28.459-10.826 28.459-24.18s-12.739-24.18-28.459-24.18z"/><path d="m441.074 119.262h19.22v64.755h-19.249s-.009-2.091-.009-2.491c-7.452 4.679-15.86 4.671-22.408 1.616-1.757-.815-13.317-6.362-13.317-21.347 0-11.368 10.722-23.78 24.759-22.549 4.619.407 7.904 2.091 11.018 3.841-.014-9.966-.014-23.825-.014-23.825zm.141 43.007v-7.697c0-6.658-4.597-8.356-7.622-8.356-3.1 0-7.638 1.698-7.638 8.356 0 2.21.009 7.675.009 7.675s-.009 5.368-.009 7.66c0 6.651 4.538 8.393 7.63 8.393 3.033 0 7.638-1.742 7.638-8.393 0-2.766-.009-7.638-.009-7.638z"/><path d="m218.906 138.964c7.282-.208 22.053 4.56 21.949 21.607-.015 3.025-.008 23.432-.008 23.432h-19.345v-28.281c0-3.752-3.589-7.927-8.898-7.927-5.302 0-9.247 4.175-9.247 7.927 0 1.839.022 28.281.022 28.281h-19.331l-.007-43.059 19.346-.015s-.022 3.463 0 4.53c3.722-3.551 9.083-6.31 15.519-6.495z"/><path d="m377.157 138.964c7.282-.208 22.052 4.56 21.949 21.607-.015 3.025-.009 23.432-.009 23.432h-19.346v-28.281c0-3.752-3.588-7.927-8.898-7.927-5.301 0-9.246 4.175-9.246 7.927 0 1.839.023 28.281.023 28.281h-19.331l.014-43.059 19.323-.015s-.022 3.463 0 4.53c3.723-3.551 9.091-6.31 15.52-6.495z"/><path d="m299.708 155.966c-.03-3.774.051-6.295 1.29-8.445 1.52-2.655 4.315-3.915 6.851-3.93h-.008c2.536.015 5.331 1.275 6.851 3.93 1.239 2.157 1.29 4.679 1.261 8.453zm16.179 12.984s.014.193.014 2.61c0 7.875-5.183 9.625-8.06 9.625s-8.149-1.75-8.149-9.625c0-2.358.014-8.89.014-8.89s36.682.014 36.682-.008c0-13.354-12.894-24.417-28.733-24.417-15.838 0-28.674 10.826-28.674 24.18s12.836 24.173 28.674 24.173c13.139 0 24.24-7.497 27.628-17.663z"/><path d="m526.584 124.082c3.152 0 4.716 1.068 4.716 3.181 0 1.453-.904 2.551-2.41 2.929l2.47 4.931h-2.989l-2.113-4.523h-1.312v4.523h-2.692v-11.041zm-.244-4.316c-5.502 0-9.966 4.464-9.966 9.966s4.464 9.966 9.966 9.966 9.965-4.464 9.965-9.966-4.463-9.966-9.965-9.966zm8.06 9.974c0 4.449-3.611 8.06-8.06 8.06s-8.06-3.611-8.06-8.06 3.611-8.061 8.06-8.061 8.06 3.604 8.06 8.061zm-9.454-.757h1.312c1.535 0 2.277-.467 2.277-1.564 0-1.15-.794-1.646-2.41-1.646h-1.179z"/></g></g></g></g></svg>