<?xml version="1.0" encoding="UTF-8" standalone="no"?>
<!DOCTYPE svg PUBLIC "-//W3C//DTD SVG 1.1//EN" "http://www.w3.org/Graphics/SVG/1.1/DTD/svg11.dtd">
<svg width="100%" height="100%" viewBox="0 0 329 140" version="1.1" xmlns="http://www.w3.org/2000/svg" xmlns:xlink="http://www.w3.org/1999/xlink" xml:space="preserve" xmlns:serif="http://www.serif.com/" style="fill-rule:evenodd;clip-rule:evenodd;">
    <g transform="matrix(0.847131,0,0,0.847131,10.112,-2.80638)">
        <g id="Layer-1" serif:id="Layer 1">
            <g id="g1252">
                <g id="g1201" transform="matrix(0.582825,0,0,0.582825,44.5268,-67.1309)">
                    <path id="path867" d="M53.668,317.394L22.889,317.394L22.889,347.532L32.446,347.532L32.446,327.37C32.446,326.093 33.503,325.033 34.779,325.033L51.33,325.033C52.6,325.033 53.668,326.093 53.668,327.37L53.668,347.532L63.213,347.532L63.213,327.37C63.213,327.37 64.49,317.394 53.668,317.394" style="fill:white;fill-rule:nonzero;"/>
                    <path id="path869" d="M319.575,317.394L288.794,317.394L288.794,347.532L298.555,347.532L298.555,327.37C298.555,326.093 299.623,325.033 300.683,325.033L317.241,325.033C318.508,325.033 319.575,326.093 319.575,327.37L319.575,347.532L329.117,347.532L329.117,327.37C329.117,327.37 330.39,317.394 319.575,317.394" style="fill:white;fill-rule:nonzero;"/>
                    <path id="path871" d="M464.518,317.394L433.743,317.394L433.743,347.532L443.3,347.532L443.3,327.37C443.3,326.093 444.352,325.033 445.634,325.033L462.184,325.033C463.451,325.033 464.518,326.093 464.518,327.37L464.518,347.532L474.067,347.532L474.067,327.37C474.067,327.37 475.334,317.394 464.518,317.394" style="fill:white;fill-rule:nonzero;"/>
                    <path id="path873" d="M67.461,325.033L78.07,325.033C79.131,325.033 80.408,326.093 80.408,327.37L80.408,347.532L90.587,347.532L90.587,327.37C90.587,326.093 91.654,325.033 92.924,325.033L103.533,325.033L103.533,317.394L67.461,317.394L67.461,325.033" style="fill:white;fill-rule:nonzero;"/>
                    <path id="path875" d="M478.095,317.394L478.095,325.033L488.711,325.033C489.977,325.033 491.045,326.093 491.045,327.37L491.045,347.532L501.661,347.532L501.661,327.37C501.661,326.093 502.501,325.033 503.774,325.033L514.39,325.033L514.39,317.394L478.095,317.394" style="fill:white;fill-rule:nonzero;"/>
                    <path id="path877" d="M188.638,325.033L199.248,325.033C200.518,325.033 201.585,326.093 201.585,327.37L201.585,347.532L212.187,347.532L212.187,327.37C212.187,326.093 213.255,325.033 214.532,325.033L225.134,325.033L225.134,317.394L188.638,317.394L188.638,325.033" style="fill:white;fill-rule:nonzero;"/>
                    <rect id="path879" x="272.249" y="317.394" width="10.184" height="30.137" style="fill:white;fill-rule:nonzero;"/>
                    <path id="path881" d="M255.905,332.255L238.724,332.255L238.724,326.947C238.724,326.093 239.995,325.033 240.628,325.033L253.571,325.033C255.052,325.033 255.905,326.093 255.905,326.947L255.905,332.255M255.692,317.394L238.928,317.394C228.105,317.394 228.959,327.37 228.959,327.37L228.959,347.532L238.724,347.532L238.724,339.897L255.905,339.897L255.905,347.532L265.661,347.532L265.661,327.37C265.661,327.37 266.934,317.394 255.692,317.394" style="fill:white;fill-rule:nonzero;"/>
                    <path id="path883" d="M175.054,329.921C175.054,331.401 174.422,332.255 173.144,332.255L159.137,332.255C158.504,332.255 157.657,331.401 157.657,329.921L157.657,326.947C157.657,325.67 158.504,324.61 159.774,324.61L173.144,324.61C174.422,324.61 175.054,325.24 175.054,326.947L175.054,329.921M174.845,317.394L147.681,317.394L147.681,347.532L157.657,347.532L157.657,341.797C157.657,340.524 158.504,339.897 159.774,339.897L173.144,339.897C173.778,339.897 175.054,340.957 175.054,341.797L175.054,347.532L184.6,347.532L184.6,342.87C184.6,342.87 185.454,338.61 180.996,335.642C183.967,333.522 185.031,330.347 185.244,328.427C185.454,327.58 185.454,326.947 185.454,326.947C185.454,326.947 185.454,317.394 174.845,317.394" style="fill:white;fill-rule:nonzero;"/>
                    <path id="path885" d="M-17.22,337.556C-17.22,337.556 -18.278,347.532 -7.241,347.532L16.528,347.532L16.528,339.897L-5.547,339.897C-7.031,339.897 -8.308,338.61 -8.308,337.349C-8.308,335.863 -7.241,335.009 -5.547,335.009L15.258,335.009L15.258,329.707L-5.971,329.707C-7.241,329.707 -8.308,328.647 -8.308,327.37C-8.308,326.093 -7.241,325.033 -5.971,325.033L16.528,325.033L16.528,317.394L-17.22,317.394L-17.22,337.556" style="fill:white;fill-rule:nonzero;"/>
                    <path id="path887" d="M107.995,337.556C107.995,337.556 106.504,347.532 117.547,347.532L141.316,347.532L141.316,339.897L119.241,339.897C117.75,339.897 116.48,338.61 116.48,337.349C116.48,335.863 117.75,335.009 119.241,335.009L140.039,335.009L140.039,329.707L119.241,329.707C117.75,329.707 116.48,328.647 116.48,327.37C116.48,326.093 117.75,325.033 119.241,325.033L141.316,325.033L141.316,317.394L107.995,317.394L107.995,337.556" style="fill:white;fill-rule:nonzero;"/>
                    <path id="path889" d="M394.06,337.556C394.06,337.556 392.993,347.532 403.823,347.532L427.802,347.532L427.802,339.897L405.516,339.897C404.243,339.897 402.97,338.61 402.97,337.349C402.97,335.863 403.823,335.009 405.309,335.009L426.101,335.009L426.101,329.707L405.309,329.707C403.823,329.707 402.97,328.647 402.97,327.37C402.97,326.093 403.823,325.033 405.309,325.033L427.802,325.033L427.802,317.394L394.06,317.394L394.06,337.556" style="fill:white;fill-rule:nonzero;"/>
                    <path id="path891" d="M378.216,317.434L335.552,317.434L335.552,347.566L344.468,347.566L344.468,327.41C344.468,326.14 345.528,325.076 346.802,325.076L354.011,325.076C355.29,325.076 356.357,326.14 356.357,327.41L356.357,347.566L366.327,347.566L366.327,327.41C366.327,326.14 367.18,325.076 368.661,325.076L376.303,325.076C377.149,325.076 378.216,326.14 378.216,327.41L378.63,347.566L388.179,347.566L388.179,327.41C388.179,327.41 389.452,317.434 378.216,317.434" style="fill:white;fill-rule:nonzero;"/>
                    <path id="path893" d="M242.539,367.05L253.358,367.05C254.198,367.05 255.265,368.117 255.265,369.384L255.265,389.542L265.882,389.542L266.302,369.384C266.302,368.117 266.934,367.05 268.215,367.05L278.831,367.05L278.831,359.415L242.539,359.415L242.539,367.05" style="fill:white;fill-rule:nonzero;"/>
                    <path id="path895" d="M365.2,359.415L322.549,359.415L322.549,389.542L331.458,389.542L331.458,369.384C331.458,368.117 332.518,367.05 333.792,367.05L341.007,367.05C342.274,367.05 343.334,368.117 343.334,369.384L343.334,389.542L353.309,389.542L353.309,369.384C353.309,368.117 354.157,367.05 355.65,367.05L363.286,367.05C364.139,367.05 365.2,368.117 365.2,369.384L365.626,389.542L375.176,389.542L375.176,369.384C375.176,369.384 376.442,359.415 365.2,359.415" style="fill:white;fill-rule:nonzero;"/>
                    <path id="path897" d="M198.824,359.415L189.695,359.415L189.695,370.664C189.695,371.925 188.425,372.991 187.368,372.991L173.778,372.991C172.508,372.991 171.444,371.925 171.444,370.664L171.444,359.415L161.898,359.415L161.898,370.451C161.898,370.451 160.838,380.627 171.874,380.627L175.054,380.627L175.054,389.542L185.668,389.542L185.668,380.627L189.272,380.627C200.308,380.627 198.824,370.664 198.824,370.664L198.824,359.415" style="fill:white;fill-rule:nonzero;"/>
                    <path id="path899" d="M282.858,379.573C282.858,379.573 281.372,389.542 292.408,389.542L316.174,389.542L316.174,381.901L294.108,381.901C292.621,381.901 291.341,380.84 291.341,379.353C291.341,377.873 292.621,377.24 294.108,377.24L314.9,377.24L314.9,371.925L294.108,371.925C292.621,371.925 291.341,370.664 291.341,369.384C291.341,368.117 292.621,367.05 294.108,367.05L316.174,367.05L316.174,359.415L282.858,359.415L282.858,379.573" style="fill:white;fill-rule:nonzero;"/>
                    <path id="path901" d="M229.382,371.711L215.158,371.711C213.465,371.711 212.408,371.084 212.408,369.604C212.408,368.318 213.465,367.05 214.735,367.05L238.928,367.05L238.928,359.415L212.408,359.415C207.523,359.415 203.285,363.443 203.285,368.117C203.285,374.693 207.523,377.24 213.255,377.24L227.471,377.24C228.959,377.24 230.445,377.873 230.445,379.353C230.445,380.627 229.382,381.901 228.105,381.901L203.285,381.901L203.285,389.542L230.445,389.542C234.9,389.542 239.571,385.935 239.571,380.84C239.571,374.693 234.686,371.711 229.382,371.711" style="fill:white;fill-rule:nonzero;"/>
                    <path id="path903" d="M148.528,371.711L134.735,371.711C133.034,371.711 131.764,371.084 131.764,369.604C131.764,368.318 133.034,367.05 134.311,367.05L158.504,367.05L158.504,359.415L131.974,359.415C126.669,359.415 122.422,363.443 122.422,368.117C122.422,374.693 127.093,377.24 132.821,377.24L146.614,377.24C148.315,377.24 149.585,377.873 149.585,379.353C149.585,380.627 148.315,381.901 147.038,381.901L122.422,381.901L122.422,389.542L149.585,389.542C154.467,389.542 158.928,385.935 158.928,380.84C158.928,374.693 154.256,371.711 148.528,371.711" style="fill:white;fill-rule:nonzero;"/>
                </g>
                <g id="g1153" transform="matrix(0.574172,0,0,0.574172,14.5452,-75.9845)">
                    <path id="path1065-8" d="M99.811,309.491C56.715,309.477 27.919,280.257 27.919,244.829C27.919,209.401 56.781,179.847 99.746,179.937L505.758,179.937C509.89,179.929 513.891,180.194 517.75,180.713C554.007,185.586 577.585,212.809 577.585,244.829C577.585,280.257 548.788,309.477 505.692,309.491L99.811,309.491ZM99.943,195.874C65.825,195.937 44.883,217.754 44.883,244.746C44.883,271.73 65.694,293.729 99.943,293.61L505.561,293.61C539.81,293.722 560.628,271.73 560.628,244.746C560.628,217.761 539.686,195.944 505.568,195.881L99.943,195.874Z" style="fill:rgb(228,0,15);fill-rule:nonzero;stroke:rgb(228,0,15);stroke-width:22.75px;"/>
                    <path id="path1089" d="M88.104,187.893L52.77,201.604L41.168,227.446L35.895,254.869L42.75,277.546L63.318,297.058L90.741,306.551L501.561,307.078L541.114,295.476L557.99,271.745L569.592,261.197L569.064,235.356L557.462,211.624L533.203,194.221L505.78,185.783L88.104,187.893Z" style="fill:rgb(228,0,15);fill-rule:nonzero;"/>
                    <path id="path1065" d="M99.811,309.491C56.715,309.477 27.919,280.257 27.919,244.829C27.919,209.401 56.781,179.847 99.746,179.937L505.758,179.937C512.203,179.924 518.331,180.577 524.092,181.818C556.733,188.846 577.585,214.716 577.585,244.829C577.585,280.257 548.788,309.477 505.692,309.491L99.811,309.491ZM99.943,195.874C65.825,195.937 44.883,217.754 44.883,244.746C44.883,271.73 65.694,293.729 99.943,293.61L505.561,293.61C539.81,293.722 560.628,271.73 560.628,244.746C560.628,217.761 539.686,195.944 505.568,195.881L99.943,195.874Z" style="fill:white;fill-rule:nonzero;"/>
                    <g id="g1122" transform="matrix(1,0,0,1,0,93.75)">
                        <g id="polygon1045" transform="matrix(0.0261585,0,0,0.0261585,19.2204,82.9732)">
                            <path d="M2883.68,3862.77L2117.2,3862.77L2117.48,1387.28L2888.79,1387.28L3955.75,3113.58L3955.18,1387.28L4720.53,1387.28L4720.53,3862.77L3956.32,3862.77L2883.68,2136.47L2883.68,3862.77Z" style="fill:white;fill-rule:nonzero;"/>
                        </g>
                        <g id="polygon1047" transform="matrix(0.0261585,0,0,0.0261585,19.2204,82.9732)">
                            <path d="M9626.74,3862.77L8881.23,3862.77L8881.51,2219.81L8476.72,2219.81L8476.72,1975.47L8881.8,1975.18L8881.23,1641.83L9626.17,1641.83L9626.17,1974.9L10029.3,1974.9L10029.3,2219.81L9626.17,2219.81L9626.74,3862.77Z" style="fill:white;fill-rule:nonzero;"/>
                        </g>
                        <g id="polygon1049" transform="matrix(0.0261585,0,0,0.0261585,19.2204,82.9732)">
                            <path d="M5890.96,3862.77L5146.58,3862.77L5146.58,2216.41L5890.96,2216.69L5890.96,3862.77Z" style="fill:white;fill-rule:nonzero;"/>
                        </g>
                        <g id="polygon1051" transform="matrix(0.0261585,0,0,0.0261585,19.2204,82.9732)">
                            <path d="M5890.96,1892.69L5144.88,1892.69L5144.88,1386.71L5890.96,1386.71L5890.96,1892.69Z" style="fill:white;fill-rule:nonzero;"/>
                        </g>
                        <path id="path1053" d="M502.916,162.143C502.916,162.143 502.907,168.653 502.907,171.264C502.907,178.13 498.851,180.962 494.951,180.962C491.043,180.962 486.972,178.13 486.972,171.264C486.972,168.653 486.981,161.98 486.981,161.98C486.981,161.98 486.995,155.61 486.995,153C486.995,146.164 491.073,143.353 494.951,143.353C498.837,143.353 502.908,146.164 502.908,153C502.908,155.61 502.899,160.438 502.922,162.165L502.916,162.143ZM495.093,138.015C479.373,138.015 466.634,148.841 466.634,162.195C466.634,175.549 479.38,186.375 495.093,186.375C510.813,186.375 523.552,175.549 523.552,162.195C523.552,148.841 510.813,138.015 495.093,138.015Z" style="fill:white;fill-rule:nonzero;"/>
                        <path id="path1055" d="M441.074,119.262L460.294,119.262L460.294,184.017L441.045,184.017C441.045,184.017 441.036,181.926 441.036,181.526C433.584,186.205 425.176,186.197 418.628,183.142C416.871,182.327 405.311,176.78 405.311,161.795C405.311,150.427 416.033,138.015 430.07,139.246C434.689,139.653 437.974,141.337 441.088,143.087C441.074,133.121 441.074,119.262 441.074,119.262ZM441.215,162.269L441.215,154.572C441.215,147.914 436.618,146.216 433.593,146.216C430.493,146.216 425.955,147.914 425.955,154.572C425.955,156.782 425.964,162.247 425.964,162.247C425.964,162.247 425.955,167.615 425.955,169.907C425.955,176.558 430.493,178.3 433.585,178.3C436.618,178.3 441.223,176.558 441.223,169.907C441.223,167.141 441.214,162.269 441.214,162.269L441.215,162.269Z" style="fill:white;fill-rule:nonzero;"/>
                        <path id="path1057" d="M218.906,138.964C226.188,138.756 240.959,143.524 240.855,160.571C240.84,163.596 240.847,184.003 240.847,184.003L221.502,184.003L221.502,155.722C221.502,151.97 217.913,147.795 212.604,147.795C207.302,147.795 203.357,151.97 203.357,155.722C203.357,157.561 203.379,184.003 203.379,184.003L184.048,184.003L184.041,140.944L203.387,140.929C203.387,140.929 203.365,144.392 203.387,145.459C207.109,141.908 212.47,139.149 218.906,138.964L218.906,138.964Z" style="fill:white;fill-rule:nonzero;"/>
                        <path id="path1059" d="M377.157,138.964C384.439,138.756 399.209,143.524 399.106,160.571C399.091,163.596 399.097,184.003 399.097,184.003L379.751,184.003L379.751,155.722C379.751,151.97 376.163,147.795 370.853,147.795C365.552,147.795 361.607,151.97 361.607,155.722C361.607,157.561 361.63,184.003 361.63,184.003L342.299,184.003L342.313,140.944L361.636,140.929C361.636,140.929 361.614,144.392 361.636,145.459C365.359,141.908 370.727,139.149 377.156,138.964L377.157,138.964Z" style="fill:white;fill-rule:nonzero;"/>
                        <path id="path1061" d="M299.708,155.966C299.678,152.192 299.759,149.671 300.998,147.521C302.518,144.866 305.313,143.606 307.849,143.591L307.841,143.591C310.377,143.606 313.172,144.866 314.692,147.521C315.931,149.678 315.982,152.2 315.953,155.974L299.708,155.966ZM315.887,168.95C315.887,168.95 315.901,169.143 315.901,171.56C315.901,179.435 310.718,181.185 307.841,181.185C304.964,181.185 299.692,179.435 299.692,171.56C299.692,169.202 299.706,162.67 299.706,162.67C299.706,162.67 336.388,162.684 336.388,162.662C336.388,149.308 323.494,138.245 307.655,138.245C291.817,138.245 278.981,149.071 278.981,162.425C278.981,175.779 291.817,186.598 307.655,186.598C320.794,186.598 331.895,179.101 335.283,168.935L315.887,168.95Z" style="fill:white;fill-rule:nonzero;"/>
                        <path id="path1063" d="M526.584,124.082C529.736,124.082 531.3,125.15 531.3,127.263C531.3,128.716 530.396,129.814 528.89,130.192L531.36,135.123L528.371,135.123L526.258,130.6L524.946,130.6L524.946,135.123L522.254,135.123L522.254,124.082L526.584,124.082ZM526.34,119.766C520.838,119.766 516.374,124.23 516.374,129.732C516.374,135.234 520.838,139.698 526.34,139.698C531.842,139.698 536.305,135.234 536.305,129.732C536.305,124.23 531.842,119.766 526.34,119.766ZM534.4,129.74C534.4,134.189 530.789,137.8 526.34,137.8C521.891,137.8 518.28,134.189 518.28,129.74C518.28,125.291 521.891,121.679 526.34,121.679C530.789,121.679 534.4,125.283 534.4,129.74ZM524.946,128.983L526.258,128.983C527.793,128.983 528.535,128.516 528.535,127.419C528.535,126.269 527.741,125.773 526.125,125.773L524.946,125.773L524.946,128.983Z" style="fill:white;fill-rule:nonzero;"/>
                    </g>
                </g>
            </g>
        </g>
    </g>
</svg>
