<svg height="171.83997" viewBox="0 0 600.27198 171.83996" width="600.27197" xmlns="http://www.w3.org/2000/svg"><g fill="#f00"><g stroke-width="3.947145" transform="matrix(.88800642 0 0 .88800642 14.293274 20.32476784)"><path d="m187.37265 120.83693v-23.127803q0-1.850224-.30837-3.083707-.23128-1.233483-1.23348-2.00441-.92511-.848019-2.77534-1.233483-1.85022-.385463-5.08811-.539648l.15418-2.775337q1.23348 0 2.92952.07709 1.77313 0 3.70045 0 2.00441 0 4.08591.07709 2.08151 0 3.93173 0 1.46476 0 3.23789 0 1.77313-.07709 3.46917-.07709 1.77313 0 3.31499 0 1.54185-.07709 2.62115-.07709l.15418 2.621151q-3.00661.231278-4.85683.770927-1.77314.462556-2.77534 1.541854-1.00221 1.002204-1.38767 2.852429-.30837 1.850224-.30837 4.702657v51.88337q0 1.85022.30837 3.0837.30837 1.23349 1.23348 2.08151 1.00221.77092 2.92953 1.15639 1.92731.38546 5.16521.53965l-.15419 2.77533q-1.23348 0-3.00661 0-1.77314-.0771-3.77755-.0771-2.00441 0-4.08591 0-2.0815-.0771-3.93172-.0771-1.54186 0-3.31499.0771-1.69604 0-3.39208 0-1.69604 0-3.23789.0771-1.46476 0-2.54406 0l-.23128-2.62115q3.00662-.23128 4.77975-.69383 1.77313-.53965 2.77534-1.54186 1.0022-1.07929 1.31057-2.85243.30837-1.85022.30837-4.77974v-24.2071h-41.24458v27.05953q0 1.85022.23128 3.0837.30837 1.23349 1.23348 2.08151 1.00221.77092 2.85243 1.15639 1.85022.38546 5.08812.53965l-.15419 2.77533q-1.23348 0-3.00661 0-1.69604-.0771-3.70045-.0771-1.92732-.0771-4.00882-.0771-2.0815-.0771-3.93173-.0771-1.46476 0-3.23789.0771-1.77313 0-3.54626 0-1.69604 0-3.2379.0771-1.54185 0-2.62115 0l-.15418-2.62115q3.00661-.23128 4.77974-.69384 1.85023-.53964 2.85243-1.54185 1.00221-1.0793 1.31058-2.85243.38546-1.85022.38546-4.77974v-51.806273q0-1.850224-.30837-3.083707-.30837-1.233483-1.31057-2.00441-.92512-.848019-2.85243-1.233483-1.92732-.385463-5.16521-.539648l.15418-2.775337h3.39208q1.92732 0 3.85463.07709 2.00441 0 3.85464 0h6.78415q1.77314 0 3.46917 0 1.77314-.07709 3.31499-.07709h2.62115l.23128 2.621151q-3.00662.231278-4.77975.770927-1.77313.462556-2.77533 1.541854-1.00221 1.002204-1.31058 2.852429-.30837 1.850224-.30837 4.702657v20.27537z"/><path d="m258.22082 134.71361h-25.67186l-5.93614 15.18726q-1.54185 4.39428-1.54185 5.55067 0 2.00441 1.85022 2.77534 1.92732.77093 6.78416 1.0022l-.23128 2.77534q-2.85243 0-6.39869-.0771-3.54627-.0771-7.01544-.0771-2.85242 0-5.93613.0771-3.00662.0771-5.85905.0771l-.15418-2.62115q3.00661-.23128 4.93393-.69384 1.92732-.53964 3.31499-1.85022 1.46476-1.38767 2.69824-3.70045 1.31058-2.38987 3.00661-6.3216l22.1256-52.19174q.92511-2.312781 1.54186-4.008819.69383-1.773132 1.46476-3.777542l4.85684-.616741q.84802 3.700448 1.77313 6.784156 1.0022 3.083707 1.85022 5.627765l17.34585 50.264421q1.15639 3.39208 2.08151 5.3194.92511 1.92732 2.15859 3.00661 1.23348 1.00221 3.08371 1.38767 1.92732.38547 4.93393.61674l-.23128 2.77534q-3.23789 0-7.16962-.0771-3.85463-.0771-7.78636-.0771-3.23789 0-6.55288.0771-3.31498.0771-6.55287.0771l-.23128-2.62115q4.31719-.30837 6.16741-1.00221 1.85023-.77092 1.85023-2.77533 0-.84802-.30837-1.92732-.30837-1.15639-.77093-2.54406zm-23.89873-4.47137h22.43397l-10.33042-30.528704z"/><path d="m300.85307 123.68936q0 7.4009 1.85023 13.95377 1.85022 6.47579 5.55067 11.33263 3.77754 4.77974 9.40531 7.63217 5.62776 2.77534 13.25994 2.77534 4.163 0 7.94054-1.15639 3.85464-1.15639 6.78416-3.77754 2.77534-2.46697 4.77975-6.01323 2.0815-3.62336 4.08591-8.4802l3.0837.77093q-1.31057 5.08812-2.0815 9.55949-.77092 4.47138-1.31057 9.55949-6.09032 1.77314-12.10355 2.77534-5.93614 1.00221-11.94937 1.00221-8.71147 0-16.11237-2.69825-7.3238-2.69824-12.72029-7.63217-5.31939-4.93393-8.32601-11.87228-3.00661-7.01543-3.00661-15.57272 0-9.86786 3.62335-17.19166 3.62336-7.4009 9.79077-12.334831 6.24451-4.933932 14.41633-7.323805 8.17183-2.466965 17.26876-2.466965 4.70266 0 10.02205.693834 5.39649.693834 10.02205 1.927317-.46256 4.933931-.61674 9.405306-.0771 4.394284-.0771 9.328214l-3.23789.30837q-.30837-4.54847-1.85022-7.86345-1.46476-3.39208-4.00882-5.550675-2.46697-2.235688-5.78195-3.237892-3.31499-1.079298-7.24671-1.079298-7.70927 0-13.56831 2.466966-5.85905 2.389873-9.86787 6.784155-3.93172 4.317194-6.01323 10.484604-2.00441 6.09032-2.00441 13.49122z"/><path d="m395.83125 90.693693q-3.0837.231278-5.01102.770927-1.85022.462556-2.92952 1.541854-1.0793 1.002204-1.46476 2.852429-.38547 1.773131-.38547 4.625557v21.97142q2.23569-.38547 4.00882-1.31058 1.85023-.92511 4.08592-2.92952 2.38987-2.23569 5.08811-4.93393 2.69825-2.69825 5.3194-5.47358 2.69824-2.85243 5.16521-5.62777 2.46696-2.775334 4.39428-5.165207 1.0793-1.387668 1.54185-2.466966.53965-1.079297 0-1.850224-.53965-.84802-2.23568-1.310576-1.61895-.462556-4.77975-.616741l.15418-2.698244q1.0793 0 2.77534.07709 1.69604 0 3.54626 0 1.92732 0 3.85464.07709 2.00441 0 3.70045 0 1.46476 0 3.39207 0 2.00441-.07709 3.93173-.07709 2.00441 0 3.70045 0 1.69604-.07709 2.77534-.07709l.23127 2.621151q-2.77533.231278-5.08811.770927-2.23569.539649-4.39429 1.541854-2.0815 1.002204-4.163 2.544058-2.0815 1.464761-4.39428 3.623356-1.69604 1.541852-4.16301 3.931722-2.38987 2.38988-5.2423 5.3194-2.77534 2.85243-5.85904 6.01323-3.08371 3.0837-6.01323 6.09032 3.23789 4.00882 6.86125 8.48019 3.70045 4.47138 7.24671 8.71148 3.62335 4.163 6.70706 7.78636 3.1608 3.54626 5.2423 5.70485 2.31278 2.38988 3.85464 3.85464 1.61894 1.46476 3.0837 2.38987 1.46477.84802 3.1608 1.23348 1.69604.38547 4.31719.61675l-.15418 2.77533q-2.92952 0-6.47579-.0771-3.46917-.0771-6.93834-.0771-1.07929 0-2.31278.0771-1.15639 0-2.23569.0771-.61674-1.15639-2.15859-3.23789-1.54185-2.0815-3.70045-4.77975-2.15859-2.69824-4.77974-5.78195-2.54406-3.1608-5.3194-6.39869-2.69824-3.31498-5.47358-6.47578-2.69824-3.2379-5.08812-6.09033-1.54185-1.77313-2.85243-2.46696-1.23348-.77093-2.54405-.77093-.84802 0-1.77314.23128v26.13442q0 1.85022.30838 3.0837.30837 1.23349 1.31057 2.08151 1.0793.77092 3.00662 1.15639 2.00441.38546 5.31939.53965l-.15419 2.77533q-1.23348 0-3.0837 0-1.77313-.0771-3.85464-.0771-2.0815 0-4.24009 0-2.08151-.0771-3.93173-.0771-1.54185 0-3.39208.0771-1.77313 0-3.62335 0-1.85023 0-3.46917.0771-1.61895 0-2.69825 0l-.23128-2.62115q3.2379-.23128 5.16521-.69383 1.92732-.53965 2.92953-1.54186 1.07929-1.07929 1.38766-2.85243.38547-1.85022.38547-4.77974v-51.883373q0-1.850224-.30837-3.083707-.30837-1.233483-1.38767-2.00441-1.00221-.848019-3.00662-1.233483-2.00441-.385463-5.31939-.539648l.15418-2.775337q1.23349 0 3.08371.07709 1.85023 0 3.93173 0 2.0815 0 4.2401.07709 2.15859 0 4.00881 0 1.46477 0 3.2379 0 1.85022-.07709 3.62335-.07709 1.85023 0 3.46917 0 1.61895-.07709 2.69825-.07709z"/><path d="m445.86442 140.57266q1.54185 4.00881 3.23789 7.40089 1.77313 3.39208 4.16301 5.93614 2.46696 2.46696 5.70485 3.93173 3.2379 1.38766 7.78636 1.38766 3.00662 0 5.55068-1.0022 2.54406-1.00221 4.47137-2.85243 1.92732-1.85022 3.00662-4.31719 1.07929-2.54406 1.07929-5.55067 0-3.77754-1.38766-6.47579-1.38767-2.69824-3.70045-4.62556-2.31278-2.00441-5.2423-3.46917-2.92953-1.46476-6.01323-2.85243-3.46917-1.54185-7.01544-3.39208-3.46917-1.85022-6.2445-4.39428-2.77534-2.54406-4.54847-5.85904-1.77313-3.31499-1.77313-7.86346 0-4.85683 1.92731-8.557282 2.00441-3.777542 5.3194-6.3216 3.39208-2.544058 7.78636-3.854634 4.47137-1.310575 9.4824-1.310575 4.85684 0 8.94275.770926 4.163.693835 8.86566 1.927317-.23128 2.466966-.38547 4.625561-.15418 2.081502-.23128 4.163005 0 2.004412-.0771 4.163002 0 2.0815 0 4.54847l-3.23789.30837q-.69383-8.171823-5.01102-12.180642-4.2401-4.085912-11.48681-4.085912-2.77534 0-5.08812.848019-2.31278.84802-4.00882 2.466966-1.69604 1.618946-2.69824 3.854634-.92511 2.235685-.92511 5.011025 0 3.70045 1.15639 6.24451 1.23348 2.46696 3.31498 4.31719 2.0815 1.85022 4.77975 3.23789 2.77533 1.31057 5.78195 2.62115 3.70045 1.61895 7.40089 3.54626 3.77755 1.92732 6.70707 4.54847 3.00661 2.62115 4.85684 6.09032 1.85022 3.46917 1.85022 8.17183 0 5.2423-2.15859 9.32821-2.1586 4.00882-5.70486 6.86125-3.54627 2.77533-8.17183 4.2401-4.62556 1.46476-9.4824 1.46476-4.24009 0-8.78856-.84802-4.54847-.84802-9.63659-2.31278-.53964-5.08812-1.31057-9.5595-.77093-4.47137-2.0815-9.55949z"/></g><path d="m233.99833-14.183242h160.7503q12.02225 0 20.75539 10.9636848 4.68792 7.2209098 4.68792 14.4796252v.90734q0 13.458868-12.24908 21.92737-6.46479 3.931804-13.83692 3.931804h-159.46491q-14.40402 0-22.98594-13.458868-3.13788-6.162348-3.13788-12.400306v-.90734q0-12.02224749 10.96369-20.7553897 7.22091-4.6879203 14.51743-4.6879203zm-19.31877 26.237232q0 7.598968 5.59526 13.685704 5.63306 6.162347 16.18089 6.162347h155.83555q11.30393 0 16.937-7.069687 4.83914-5.59526 4.83914-13.194228 0-9.7538988-8.88436-16.294304-5.02817-3.4025229-11.34175-3.4025229h-158.93562q-12.55153 0-18.67607 12.1356652-1.55004 4.0452217-1.55004 7.9770257zm186.45826-12.28688815q2.83543 0 3.66716 3.93180435 0 2.4573776-2.98666 3.6671636l-.90734.1134174q-2.94885 0-3.66716-3.780581.49147-3.93180435 3.894-3.93180435zm-171.60058.15122325h7.44775q.98295.98295107 10.69904 16.7101679h.15122v-16.44552723q.0378-.26464067.22684-.26464067h6.80505q.26464.03780581.26464.26464067v23.59082623q0 .26464-.26464.26464h-6.91847q-1.92809-2.684212-11.22832-17.3528668h-.11342v17.0882268q0 .26464-.26464.26464h-6.80505q-.26464 0-.26464-.26464v-23.59082623q.0378-.26464067.26464-.26464067zm30.28246 0h6.80504q.22684.03780581.22684.26464067v3.78058103q0 .2646407-.22684.2646407h-6.80504q-.26464 0-.26464-.2646407v-3.78058103q.0378-.26464067.26464-.26464067zm108.95634 0h6.80505q.26464.03780581.26464.26464067v23.59082623q0 .26464-.26464.26464h-6.80505q-.11341 0-.37806-.491475-2.26834 1.020757-4.95256 1.020757-5.55745 0-8.09044-7.183104l-.26464-1.814679q0-5.7464835 6.5404-8.2038612l1.81468-.2646407q2.34396 0 4.95256 1.5500382h.15123v-8.46850153q.0378-.26464067.22683-.26464067zm29.11048 4.0452217q.60489 2.8732416 2.87324 2.8732416h.37806q3.02446-.6805046 3.02446-3.0244648v-.2646407q-.6427-3.10007646-2.87324-3.10007646h-.79392q-2.07932 0-2.6086 3.10007646zm1.9659-2.2305428h1.05856q1.43662 0 1.43662 1.3232034 0 .6805046-.6805 1.0207569.41586.6805045.41586 1.0585627l-.26464.1134174q-.11342 0-.90734-1.0207569h-.6805v.6426988q0 .2646407-.26464.2646407h-.11342q-.26464 0-.26464-.2646407v-2.8732416q.0378-.2646407.26464-.2646407zm-102.98303.3780581h6.91846q.26464.075612.26464.2646407v3.1378823h3.51595q.26464.037806.26464.2646406v1.7012615q0 .2646407-.26464.2646407h-3.51595v16.0296641q0 .26464-.26464.26464h-6.91846q-.22683 0-.22683-.26464v-16.0296641h-3.55375q-.26464 0-.26464-.2646407v-1.7012615q.0378-.2646406.26464-.2646406h3.55375v-3.1378823q.0378-.2646407.22683-.2646407zm103.36109.2646407v1.1719801h1.05856q.18903 0 .37806-.3780581v-.3780581q0-.1890291-.37806-.4158639zm-116.40409 4.7257263h.52928q4.65011 0 7.71238 4.6879209.26464.907339.26464 1.550038v10.434404q0 .26464-.26464.26464h-7.06968q-.26464 0-.26464-.26464v-11.077103q0-1.474427-2.87325-2.230543h-.22683q-3.55375.831728-3.55375 2.495184v10.812462q0 .26464-.26464.26464h-6.65382q-.26464 0-.26464-.26464v-15.7650234q.0756-.2646407.26464-.2646407h6.65382q.26464.037806.26464.2646407v1.2853975q3.78058-2.192737 5.74649-2.192737zm34.06303 0q6.23796 0 9.67829 4.9525609 1.17198 1.890291 1.17198 3.893999l-.26464.151223h-13.19423v4.309862q0 2.457378 2.49518 2.457378h.52929q2.6086 0 2.6086-2.192737v-1.965902q.0378-.264641.22683-.264641h7.06969q0 2.53299-4.95256 5.59526-2.87324 1.058563-5.21721 1.058563h-.15122q-7.71238-.340252-10.32098-6.76724-.22684-1.247592-.22684-1.965902v-.793922q0-4.574503 6.12454-7.5611624 1.43662-.6426988 4.42328-.9073395zm71.5286 0q6.69162 0 10.16976 5.9733179.52928 1.852485.52928 3.024465 0 6.275765-8.09044 8.733142-1.32321.264641-2.34396.264641h-.41587q-6.65382 0-9.7917-5.59526-.75612-1.663456-.75612-3.289106 0-6.4647932 7.8258-8.7331418 1.13418-.2646407 2.87325-.3780581zm-129.59832.6426988h6.80504q.22684.037806.22684.2646407v15.7650234q0 .26464-.22684.26464h-6.80504q-.26464 0-.26464-.26464v-15.7650234q.0378-.2646407.26464-.2646407zm84.04231 0h2.49519q2.11712 0 5.48184 3.2513001 1.02076 1.323203 1.02076 1.965902v11.341743q0 .264641-.26464.264641h-6.91847q-.22683 0-.22683-.264641v-11.341743q-1.39882-1.965902-3.02447-1.965902-3.66716.831727-3.66716 2.495183v10.812462q0 .264641-.22684.264641h-6.80504q-.26464 0-.26464-.264641v-15.7650231q.0378-.2646407.26464-.2646407h6.80504q.22684.037806.22684.2646407v1.2853976h.15122q3.47814-2.0793196 4.95256-2.0793196zm-28.58119 5.5952601h5.63307v-1.436621q0-3.1000764-3.13789-3.1000764-1.77687 0-2.49518 2.1927374zm71.26395-1.928096v9.375841q0 1.852484 2.23055 2.079319h1.17198q2.19273 0 2.19273-2.608601v-8.090443q0-3.3647174-2.6086-3.3647174-2.98666 0-2.98666 2.6086014zm-23.62863 1.928096v5.746483q0 2.608601 2.87324 2.608601 2.75983 0 2.75983-2.07932v-6.76724q-.30245-3.0244645-2.64641-3.0244645-2.98666 0-2.98666 3.5159405zm-174.47381 31.341017h15.53818q.26464.03781.26464.26464v2.98666q0 .26464-.26464.26464h-10.85026q-.90734.491476-.90734 1.17198 0 1.058563 1.43662 1.323204h9.52706q.26464.03781.26464.226835v2.381766q0 .26464-.26464.26464h-9.26242q-1.36101 0-1.70126 1.285398.34025 1.436621 1.43662 1.436621h10.32098q.26464.0378.26464.26464v2.608601q0 .264641-.26464.264641h-11.49296q-4.30986-.415864-4.30986-3.2513v-11.228326q.0378-.26464.26464-.26464zm58.97706 0h15.38697q.26464.03781.26464.26464v2.98666q0 .26464-.26464.26464h-10.43441q-.71831 0-1.17198.793922v.529282q0 1.17198 1.58785 1.17198h9.37584q.26464.03781.26464.226835v2.381766q0 .26464-.26464.26464h-9.52707q-1.43662.226835-1.43662 1.285398v.113417q0 1.209786 1.58785 1.323204h10.01854q.26464.0378.26464.26464v2.608601q0 .264641-.26464.264641h-11.60639q-4.04522-.529281-4.04522-3.024465v-11.455161q.0378-.26464.26464-.26464zm136.36556 0h15.42477q.26464.03781.26464.26464v2.98666q0 .26464-.26464.26464h-10.4344q-.71831 0-1.20979.793922v.529282q0 1.17198 1.58784 1.17198h9.37585q.26464.03781.26464.226835v2.381766q0 .26464-.26464.26464h-9.37585q-1.58784.113418-1.58784 1.285398v.113417q0 1.209786 1.58784 1.323204h10.05635q.26464.0378.26464.26464v2.608601q0 .264641-.26464.264641h-11.49297q-4.19644-.45367-4.19644-3.024465v-11.455161q.0756-.26464.26464-.26464zm-176.17508.113417h14.74427q3.17569 0 4.30986 3.515941v10.850267q0 .264641-.26464.264641h-4.04522q-.26464 0-.26464-.264641v-9.527064q-.18903-1.436621-1.39882-1.436621h-7.33432q-.98296 0-1.17198 1.323204v9.640481q0 .264641-.26465.264641h-4.30986q-.26464 0-.26464-.264641v-14.101567q.0756-.264641.26464-.264641zm21.28467 0h16.06747q.22684.03781.22684.264641v2.873242q0 .26464-.22684.26464h-5.36842q-.18903 0-.37806.378058v10.585627q0 .264641-.26464.264641h-4.04522q-.26464 0-.26464-.264641v-9.905122q0-.982951-.37806-1.058563h-5.36843q-.26464 0-.26464-.26464v-2.873242q.0378-.264641.26464-.264641zm37.7302 0h14.06376q2.26835 0 3.66717 4.045222v.680505q0 1.512232-1.2854 3.893998v.151223q.49148 1.550039.49148 1.928097v3.667163q0 .264641-.26465.264641h-3.51594q-.26464 0-.26464-.264641v-2.230543q0-1.550038-1.55003-1.550038h-5.48185q-1.43662 0-1.43662 1.701262v2.079319q0 .264641-.26464.264641h-4.15864q-.26464 0-.26464-.264641v-14.101567q.0378-.264641.26464-.264641zm19.81025 0h16.06747q.26464.03781.26464.264641v2.873242q0 .26464-.26464.26464h-5.36843q-.37806.113418-.37806.793922v10.169763q0 .264641-.26464.264641h-4.04522q-.26464 0-.26464-.264641v-10.169763q0-.680504-.37806-.793922h-5.36842q-.26464 0-.26464-.26464v-2.873242q.0378-.264641.26464-.264641zm21.66273 0h10.96368q2.23054 0 3.66717 3.931805v10.434403q0 .264641-.26465.264641h-4.15863q-.26465 0-.26465-.264641v-3.51594q0-.264641-.26464-.264641h-8.24166v3.780581q0 .264641-.26464.264641h-4.30987q-.22683 0-.22683-.264641v-10.169763q0-1.852485 2.6086-3.931804.41586-.264641.75612-.264641zm18.14679 0h4.04522q.26464.03781.26464.264641v14.101567q0 .264641-.26464.264641h-4.04522q-.26465 0-.26465-.264641v-14.101567q.0378-.264641.26465-.264641zm7.1831 0h14.47963q3.51594 0 4.5745 3.667164v10.699044q0 .264641-.26464.264641h-4.04522q-.26464 0-.26464-.264641v-8.884365q0-2.07932-1.43663-2.07932h-7.29652q-1.17198.151223-1.17198 1.17198v9.791705q0 .264641-.26464.264641h-4.30986q-.26464 0-.26464-.264641v-14.101567q.0378-.264641.26464-.264641zm22.45665 0h19.96147q3.10008 0 4.30986 3.402523v10.963685q0 .264641-.26464.264641h-4.04522q-.26464 0-.26464-.264641v-9.640481q0-.756117-.90734-1.323204h-3.40252q-.71831 0-.90734 2.07932v8.884365q0 .264641-.26464.264641h-4.19645q-.22683 0-.22683-.264641v-9.527064q-.26464-1.436621-1.32321-1.436621h-2.72202q-1.02075 0-1.20978 1.323204v9.640481q0 .264641-.22684.264641h-4.30986q-.26464 0-.26464-.264641v-14.101567q.0378-.264641.26464-.264641zm46.46334 0h14.59305q3.10007 0 4.30986 3.402523v10.963685q0 .264641-.26464.264641h-4.04522q-.26465 0-.26465-.264641v-9.640481q-.26464-1.323204-1.28539-1.323204h-7.71239q-.90734.529282-.90734 1.550038v9.413647q0 .264641-.26464.264641h-4.15864q-.26464 0-.26464-.264641v-14.101567q.0378-.264641.26464-.264641zm21.77615 0h16.06747q.22683.03781.22683.264641v2.873242q0 .26464-.22683.26464h-5.36843q-.37805.07561-.37805 1.058563v9.905122q0 .264641-.26465.264641h-4.04522q-.26464 0-.26464-.264641v-10.585627q0-.189029-.37806-.378058h-5.36842q-.26464 0-.26464-.26464v-2.873242q.0378-.264641.26464-.264641zm-153.07573 5.103785v.642698q0 1.587844 1.2854 1.587844h5.74648q1.43662 0 1.43662-1.209785v-1.398815q-.15122-1.323204-1.17198-1.323204h-6.38918q-.90734.567087-.90734 1.701262zm38.48632-.264641v2.495183h8.5063v-1.587844q0-2.34396-1.3232-2.34396h-6.01112q-1.17198 0-1.17198 1.436621zm21.28467 14.857684h15.38696q.26464.07561.26464.26464v3.024465q0 .264641-.26464.264641h-10.16976q-1.43662 0-1.43662 1.17198v.113417q0 1.020757 1.3232 1.17198h9.64048q.26465.03781.26465.264641v2.495184q0 .26464-.26465.26464h-10.05634q-.60489.264641-.90734.90734v.378058q.26464 1.323203 1.3232 1.323203h10.28318q.26464.03781.26464.264641v2.608601q0 .26464-.26464.26464h-11.7198q-3.13788 0-3.9318-2.873241v-11.64419q.0378-.26464.26464-.26464zm-18.52485.151223h16.02967q.26464.03781.26464.26464v2.873242q0 .264641-.26464.264641h-4.95257q-.79392 0-.79392.756116v10.207569q0 .26464-.22683.26464h-4.04522q-.26465 0-.26465-.26464v-9.942928q0-1.020757-.79392-1.020757h-4.95256q-.26464 0-.26464-.264641v-2.873242q.0378-.26464.26464-.26464zm37.69239 0h19.20536q3.47813 0 4.68792 2.608601.37806.869533.37806 1.814679v9.942928q0 .26464-.26465.26464h-4.04522q-.22683 0-.22683-.26464v-8.770948q0-2.192737-1.43662-2.192737h-2.6086q-1.02076 0-1.20979 1.285397v9.678288q0 .26464-.22683.26464h-4.30987q-.26464 0-.26464-.26464v-9.413647q-.15122-1.550038-1.3232-1.550038h-2.6086q-1.2854 0-1.2854 2.079319v8.884366q0 .26464-.26464.26464h-4.19645q-.26464 0-.26464-.26464v-14.101568q.0756-.26464.26464-.26464zm-91.22542.113417h12.55153q.26464.03781.26464.264641v2.873242q0 .26464-.26464.26464h-12.02224q-.90734.415864-.90734 1.323204 0 .831727 1.17198 1.020756h7.29652q3.10007 0 4.72572 3.137883v2.608601q0 1.17198-3.02446 3.024464l-1.2854.113418h-12.66495q-.26464 0-.26464-.264641v-2.873241q.0378-.264641.26464-.264641h11.75761q1.43662-.264641 1.43662-1.436621-.45367-1.17198-1.43662-1.17198h-7.8258q-2.11713 0-4.04522-2.873242-.15123-.189029-.15123-.642698v-1.550039q0-1.852484 3.40253-3.402523.49147-.151223 1.02075-.151223zm14.51744 0h4.04522q.26464.03781.26464.264641v4.839144q.22683 1.43662 1.43662 1.43662h5.8599q.71831 0 1.2854-.907339v-5.368425q.0378-.264641.26464-.264641h4.19644q.26464.03781.26464.264641v5.746483q0 2.759824-3.13788 3.780581-.18903.151223-.90734.151223h-2.49518v4.42328q0 .264641-.26464.264641h-4.30987q-.26464 0-.26464-.264641v-4.42328h-2.34396q-3.10007 0-4.15864-3.289105v-6.389182q.0378-.264641.26465-.264641zm23.59082 0h12.92959q.26464.03781.26464.264641v2.873242q0 .26464-.26464.26464h-11.75761q-1.2854.189029-1.2854 1.323204.34026 1.020756 1.2854 1.020756h7.1831q3.40253 0 4.83915 3.402523v1.814679q0 2.117126-3.51594 3.553746-.18903.113418-.90734.113418h-12.66495q-.26464 0-.26464-.264641v-2.873241q.0378-.264641.26464-.264641h11.75761q1.43662-.189029 1.43662-1.436621 0-.982951-1.58784-1.17198h-7.71239q-1.77687 0-3.894-2.608601-.26464-.415864-.26464-.793922v-1.814679q0-1.512232 3.13788-3.137882.45367-.264641 1.02076-.264641z" transform="matrix(.88800642 0 0 .88800642 14.293274 18.548755)"/></g></svg>