<svg viewBox="0 0 16364.9 10119.9" xmlns="http://www.w3.org/2000/svg"><path d="m12100.2 312.5c179.8 23.8 130.7-169.6 219.9-231.7h65.7c38.1 4.9 90.2-19.5 98.6 47.3-2.7 65.2.9 131.4-9.3 195.4-22.8 143.8 34.7 202.9 177.2 183.4 0 0-1.9-4.6-1.9-4.6 15.7 66.9-46.8 174.5 93 176.6 139.4 2.1 87.7-101 95.6-171.4 26.8-358.9 26.8-358.9 375-363.7-2.1 299.3-5.3 598.6-6.2 897.9-1.1 373.3-.3 373.3-364.8 387.2 0 0 .1 2.1.1 2.1 1.2-65.1-4.7-131.2 4.9-195 23.1-152.4-31.2-225.5-190.4-205-20.6-62.2 31.3-171.9-100.6-161.9-128.6 9.7-71.2 112.2-78.7 176.9-8.7 75.4-7.4 152.9-.8 228.7 9.7 111.3-28.5 158.7-146.4 151.8-124.7-7.3-250.4 2.8-375.7 5.3-12.6.5-25.2.9-37.8 1.4 0 0 3.9-.4 3.9-.4 1.6-264.7 2.2-529.5 5.7-794.2.6-44.5-20.4-120.4 44.3-120.9 164.2-.9 113.7-120.2 128.7-205.2z" fill="#0462a9"/><path d="m10546 80.8c-7 39.7 21.6 48.8 48.2 45 106.6-15 124.9 36.2 124 131.8-2.3 245.7 2.4 245.8-238.2 245.8-125.9 0-252.2 6.6-377.4-2-107.8-7.5-139.7 31.4-109.9 130.9-1 15.3-2.1 30.6-3.1 46-16.4.3-33.1-1.4-49.1 1.4-173.9 30.2-143.2-91.9-149-193.7-6.4-112.3 4.5-189.3 152.8-175.5 146.2 13.6 294.7 4 442.2 2.5 62.3-.6 137.9 19.2 136.3-88.4-1.6-107-77.8-84.1-139.1-86-261.7-8.3-524 15.3-785.4-13.8-1.6-14.6-3.2-29.2-4.9-43.8 317.5-.2 635.1-.2 952.6-.2z" fill="#0a0c0e"/><path d="m361.2 9709.7c-150.7-11.7-250.2-116.3-361.2-199.9 0-65.7 0-131.4 0-197.1 62.9-11.6 89.7-93.2 163.2-84.4-129.2 244.8-129.6 245.5 132 398.8 34.7 20.3 62.8 39.9 66 82.6z" fill="#451c1c"/><path d="m12770.9 499.5c47-135.6-47.6-296.6 74.9-418.7h361.4c.2 11.7.3 23.3.4 35 10.3 7.4 12.4 16.7 6.4 27.9-348.2 4.8-348.2 4.8-375 363.8-22.6-2.6-45.4-5.3-68.1-8z" fill="#2e4250"/><path d="m4993.8 80.8c2.9 10.4 3.8 21.1 2.8 31.8-22.9 7.3-45.8 14.5-68.7 21.8-207.2-.4-414.4-.8-621.6-1.1-11.8-17.5-23.5-35-35.3-52.5z" fill="#0a0c0e"/><path d="m6965 80.8h689.9c-11.5 17.5-23.1 35-34.6 52.6-206.7.3-413.4.6-620.1.8-11.7-17.8-23.5-35.6-35.2-53.4z" fill="#0a0c0e"/><path d="m7620.3 133.4c11.5-17.5 23.1-35 34.6-52.5h32.9c81.7 53.7 238 50.3 168.4 219.9 0 0-2.4 12.2-2.4 12.2-165.2 53.6-196.8-66.3-233.5-179.6z" fill="#2e4250"/><path d="m6965 80.8c11.7 17.8 23.5 35.6 35.3 53.5-33 15.5-66.1 30.9-99.1 46.3 0 0-.1-.4-.1-.4 10.4-33.1 20.7-66.2 31.1-99.3 10.9-.1 21.8-.1 32.8-.1z" fill="#2e4250"/><path d="m4271 80.8c11.8 17.5 23.5 35 35.3 52.6-22.5 4.2-45.1 8.4-67.7 12.6-.1-21.7-.3-43.4-.4-65.1 10.9-.1 21.8-.1 32.8-.1z" fill="#2e4250"/><path d="m361.2 9709.7c-3.2-42.7-31.3-62.3-66-82.6-261.6-153.3-261.2-154-132-398.8 30.3-26.9 60.6-53.9 91-80.8 165.2-30.1 277.6-132.9 366.9-267.2 0 0-1.7 2.1-1.7 2.1 25.3 2.7 38.1-7.3 34.9-33.9 0 0-1.5 1.5-1.5 1.5 26 3.1 37.5-8.3 34.3-34.3 0 0-1.6 2.2-1.6 2.2 33.8-1.8 38.4-23.4 34.5-50.8 0 0-1.6 2.9-1.6 2.9 93.2-35.6 63.3-117.3 63.7-182.9 3.1-506.3-18.3-1012.1 77.2-1516 31-163.5-24-343.5-41.5-515.8-4.6-45.9-42.8-58.9-81.1-68.4-4.3-9.8-8.6-19.7-12.9-29.6 29.4-34.1 13.3-64.2-16.6-80.9-61.2-34.3-124.5-65.9-189.6-92-206.8-82.7-298.8-352.7-55-492.7 98.9-56.8 193.9-120.3 290-181.8 49.9-31.9 132.6-58.9 141.5-100.6 42-197.1 102.3-394.9 62.5-601.2 0-17.9 0-35.8 0-53.7 99.7-203.5 103.2-423.3 106-642.6.2-13.4-30.6-27.3-47-40.9 0 0 1 2.4 1 2.4 59.8-114.6-16.7-249.2 20-345.3 72.2-189.4 117.4-398.5 271-552.2 115.9-115.9 224.8-239.2 333-362.4 35.4-40.3 68.3-88.9 39.6-149.1-28.8-60.4-85-61.7-140.6-62.1-194.9-1.3-376.7 59.1-558.8 118.5-186.6 60.8-372.8 123.4-572.1 126.2-166.7 2.4-191.3-46.4-163.1-210 26-151.1 176.9-212.2 215.3-338.3 42.9-141.2 141.9-183 260.6-216.5 279-78.8 558.7-155.4 836.3-239 50.1-15.1 129.6 2.3 140.5-84.3 128.1-11.2 244-89.7 377.9-69 86.9-40.1 179.5-9 269.4-21.1 377.1-51 761.6-69.1 1134.9-26.6 294.8 33.5 589.4 58.4 884.9 80.4 10.7 2.7 21.5 5.4 32.2 8.1 45.8 108.3 121.2 159.8 245 165 159.5 6.8 305.1 63 405.2 199.9 23.2 31.7 46.3 60.4 91.3 52.7 28.2 43.9 62 85.7 53.2 143.2 25 179.1 106.9 349.6 88.7 534.9-41.4 419.5-232.7 756-573.1 1005-282.2 206.4-571.4 403.5-848.9 616-139.1 106.5-295.3 194.1-408.5 333 0 0 1-.8 1-.8-80.7-8.7-139.5 16.9-160.7 101.9-74 42.3-148 84.5-222 126.8-21.5.9-47.3-5.8-63.8 3.7-296.7 169.8-604.1 321.9-877.6 530-46.3 35.2-82.1 78-89.9 138.6-.3 16.7-.6 33.4-.9 50.1-36.5 104.5 49.7 150.2 109.8 186.9 198.4 121.1 413.4 205.5 645.9 238.3 70.9-1.7 132 24.3 187.6 66.1 231.4 146.8 500.3 207.2 746.7 320.2 90.3 41.4 169.6 124.7 283.6 106.9 0 0-1.7-1-1.7-1 63 108.9 213.9 86.1 288.6 186.5-57.1 37.7-125.7.8-174 44 0 0-2.4 0-2.6-.1-87.7 25.4-50.9 98.8-51.2 150.2-3.2 457-1.2 914.1-2.6 1371.2-.2 63.7 17.3 131.6-28.9 188.9-343.6 150-690.9 290.6-1048.7 403.9-31.7 10.1-62.4 20.4-75.8 55.1-402.2 139.6-814.2 242.9-1229.8 332.8-173.4-29.8-298.9 17.4-345.2 205.2-11.5 46.7-35.3 92.9-63 132.5-65.7 93.8-164 123.7-273.1 115.8-103.8-7.6-171.1-75.7-203.9-165.3-69-188.6-188.2-212.2-339.1-58.8 0 0 3.8-1.5 3.8-1.5-9.8-1-19.6-.7-29.4.8-15.6.1-31.2.2-46.7.3-9.4-1.5-18.9-2-28.4-1.3zm1342.2-2820.7-2.3 8.1c-27.6 25.2-32 57-25.9 91.8l-1.2 10.9c-32.3 34.8-36.9 76.2-29.1 120.6-1.2 14.8-2.3 29.6-3.5 44.4-38.1 54.8-38 115.3-26.5 177.5-9.5 75.1-19.1 150.2-28.6 225.3-2.8 111.1-5.5 222.2-8.3 333.3-48.6 234.7-40.5 476.8-96.1 711.1-20 84.2 22.3 121.3 113.6 94.4 134.7-39.7 269.9-80.6 407.6-106.9 94.9-18.1 198 2 277.7-73 261.5-114.9 523.1-229.8 784.5-345 30.2-13.3 58.4-29.7 57.2-69.6 144-71 288-141.9 431.9-212.9 138.4-27.5 242.7-109.7 270.4-242.9 28.6-137.5-100.5-193.1-193.8-253.2-280.6-180.7-584.8-312.7-897.8-427-250.4-91.3-516.6-138.6-753.6-265.7-127.1-68.2-206.2-40-248 96.9-24.1 22.3-32 50.1-28.2 81.9zm1086.2-2308.5c12-10.1 24-20.2 35.9-30.3 43.9-28.2 87.9-56.5 131.8-84.7 31.2-7.6 67.2-7.7 92.7-24.1 234.1-149.8 468.9-298.7 697.4-456.7 63.3-43.7 128-103.1 125.6-196.7l-1.1 2.4c32.1.5 36.6-21.7 38-46.4 22.9-36.2 45.7-72.4 68.6-108.7 228.9-87.3 316.1-407.4 144.1-590.7-215.7-229.8-502.6-299.4-809.5-299.4-67.1-36.5-152.5-13.6-214.8-65.9-213.2-119.9-425.6-55.1-635.7 7.7-58.8 17.6-94.2 74.2-117.6 130.5-35.6 85.3-74.7 170.6-97.4 259.6-95.6 374.8-82.9 766.6-178.6 1142.4-47.8 187.5-78.2 379.8-107.9 571.2-13.2 85.3-39.7 209 96.7 205.8 87.2-2 195.9-23.8 254.2-119.1 16.7-17.5 28.4-43.8 60.4-34.8 163.8-49.6 312-123.8 418.5-264.2z" fill="#fa0000"/><path d="m15671.8 6866.5s-1.1-2.9-1.1-2.9c64.4 298.2 112.8 597.5 105.7 905-2.1 89.6 52.5 161.3 162.6 117 70.1-28.2 99.7 3.4 124.7 61 37 85.2 73.2 171.1 117.1 252.7 62.3 115.8 18.4 167.6-97.6 194.3-224.2 51.6-451.2 83.8-680.2 96.1-104.7 5.6-183.7 37-260 111.3-290.6 282.7-607.3 533.5-951.6 748.8-38.3 24-98.9 30.7-96.5 97 0 0 1.5-1.5 1.5-1.5-212.6 36.3-385.2 168.6-581.8 244.9-293.3 113.7-573.6 169.2-852.6-28.8-24-17-62.1-14.2-93.7-20.5-61-44-120.7-88.2-155.1-159.3-80.3-166.3-27.6-257.9 151.6-258.5 196-.6 392.1-4 587.9 1.5 93.3 2.6 124.3-31 121.2-122.7-5.2-152.2-.1-304.8.7-457.1 275.1-88.7 525.1-233.7 783.7-358.1 126.8-61 236.3-91 359.9-14.4 4.5 6.7 7.3 14.1 8.2 22.1-2.8 13.2-5.7 26.3-8.5 39.5-64.1 149-192.5 222.9-329.6 290.8-40.7 20.2-125.2 42.5-78.6 111.8 39.1 58 101.3 12.2 143.1-19.1 138.3-103.6 286.9-197.6 372.3-356.8 90.3-73.9-14.3-190.4 58.7-268.1 0 0-1.9 1.7-1.9 1.7 24 1 35.6-10.4 34.5-34.5 0 0-1.7 1.6-1.6 1.6 24.1 1.1 35.6-10.4 34.5-34.5 0 0-1.6 1.6-1.6 1.6 24.1 1.1 35.6-10.4 34.5-34.5 0 0-1.7 1.7-1.7 1.7 24.3.9 35.6-10.6 33.9-34.9 0 0-2.1 2.1-2 2.1 126.9-62.8 152.7-161.4 102-287.2 5.7-32 20.1-68.5-35.4-69.2 0 0 1.1 1.2 1.1 1.2-5-200.2-401.5-755.3-589.3-824.9 0 0 2.8 1.6 2.8 1.6-93.8-244.7-283.9-397.5-501.2-524.3 0 0 6.2 4.5 6.1 4.5-9.3-56.5-30.7-96.4-98.9-73 0 0 3 .8 3 .8-.3-24.7-12.8-35.1-37.1-31.5 0 0 1.3 1.3 1.3 1.3 2.5-26.2-10-36.5-35.2-33.4 0 0 1.5 1.5 1.5 1.5 2.7-26.3-9.5-37-35.1-33.5 0 0 1.5 2 1.5 2 7.4-30.2-6.2-52.5-26.5-72.7-225.5-223.8-340.4-531.5-578.2-749.5-98.7-90.4-120.4-239.5-151.4-374.6-129.8-565.3 80.1-1049.6 378.2-1498.2 320.5-482.3 790.6-805.4 1279.4-1102 131.7-79.9 273.5-152.8 371.6-280.1 36.3-14.8 66.4-49.1 111.7-35.5 10.7-11.4 21.3-22.8 32-34.1 0 0-1.6 2.8-1.6 2.8 134.6 4 254.4-46.2 371.2-104.4 166.1-82.6 332-167.4 511.7-214.8 309.2-81.7 482.8 57.8 499 376.5 8 159.1-46.9 311.4-32.2 469.4 0 0 .9-1.4.9-1.4-72.6 12.8-24 96.8-72.7 123.6 0 0-1.9 1.7-1.9 1.7-49.1 9.7-90.8 31.8-130.7 63.3-325.5 256.9-652.7 511.6-1001.4 737-21.9 14.2-47.9 28-43.4 61.9 0 0 1.4-1 1.4-1-123 18.3-232.6 63.2-316.2 159.6-63 13.4-126.1 16.8-189.1.7-101.1-217.9-87.6-280.4 101.6-447.1 69.2-61 142.3-117.5 212.6-177.3 32.5-27.6 39.8-64 23.8-103.1-9.9-24.2-32.7-29.2-53.8-19.2-262.9 125.5-483.3 300-633.7 554.4 0 0 .7-.7.7-.7-76.2 2.9-102.1 49.7-103.2 118.1-21.3 27.5-42.6 54.9-63.9 82.4-10.9 10.2-21.7 20.4-32.6 30.7 0 0 7.6-.5 7.6-.5-96 40.3-117.9 134.9-150.7 216.9-142.1 355.7 124.5 1080.8 483.4 1325 91.8 35 114.3 127.3 163.4 197.5 95.6 200.6 269 339.2 407 505.8 252.4 304.7 511.5 603.8 767.8 905.3 0 0-1.3-1.6-1.3-1.6-6.9 28 2.2 46.6 31.8 53z" fill="#fa0000"/><path d="m7149 3632.7c34.7-3.2 69.5-6.3 104.2-9.5 94.7 58.9 198.3 38.9 300.2 33.4 42.3 4.4 84.5 8.8 126.8 13.1 21.3 22.2 42.6 44.5 63.9 66.7 33.3 81.6 53.9 164 44.6 254.6-22 214.4-77.4 254.2-278.9 194.9-35.4-10.4-74.9-15.2-111.5-11.9-255.6 23.5-512.4 39.9-765.9 78-240.8 36.2-492.7 100-571 366.4-68.6 233.4-120.7 478.9-81.4 729.2-1.7 37.9-3.3 75.8-5 113.8-74.2 57.4-65.5 140.3-38.3 207.2 28.4 69.7 106.5 28.6 162.4 30.4 81.5 2.6 165.3-16.3 244.6-3.8 313.9 49.7 593.6-120.6 897.3-133.6 23.9-1 46.1-40.9 69.2-62.7 0 0-1.8.1-1.8.1 117.4 71.1 203.8-29.6 296.2-64.4 74.9-28.2 193.8-8.8 213.6-132.6 0 0-1.4 1.5-1.4 1.5 107.1-22 157.9 55.5 230.2 167.3-10.9-135.8 187.8-272.3-77.8-299.7-41.3-4.3-44.1-54.5-39.3-94.9 21.4-179.4 4-367.3 117.9-525.9 38.9-22 77.8-44 116.7-66 122.2 13.4 194.9-36 220.3-160.5 10.6-51.7 41.8-99.3 63.4-148.8 136.6-312.5 246.7-633 291.4-973 39.3-182.2 101.6-355.6 197.6-516.1 33.6-17 38.5-44.9 29.7-78 0 0-1.1.9-1.1.9 111.8-22.8 152.5-102.8 128.5-200.7-47.5-193.8-41.7-212.8 153.1-275.2 35.3-11.3 85.8-23.1 98.5-49.5 89.2-185.9 272.7-273.2 411.7-406.5 104-57.9 208.9-133.5 301.3 16.7-.8 30.3-1.5 60.6-2.3 90.9-4.5 20.3-9.1 40.7-13.6 61-10.9 22.1-21.9 44.3-32.8 66.4-11 21.9-22 43.7-33.1 65.6-83.2 192.3-82.8 194.5 47.3 234.4 0 0-1.6-1-1.6-1 .3 50.3 27.6 52.7 65.2 36.9l-1-.8c10.5 90.7 100.3 85.1 153 123.6 51.7 37.8 128.8 49.4 144.7 123.1 50.5 233.1 119.3 463.8 75 708.5-22.2 123.1-43.9 252 52.8 360.4 1 39.2 2 78.4 3 117.2-10.1 63.4-32 128-27.6 190.9 7.7 110-78.1 239.3 46.1 327.3 109.4 77.5 90.7 162 7.3 225.3-84.6 64.2-105.9 125.9-71.3 221.4 20.6 57.1 3.8 117.6-3 177.3-28.9 253-54 506.4-80.5 759.6-1.6 104.8-3.3 209.7-4.9 314.5-77.4 23.7-58.7 96.6-74.6 150.3-27.7 94-39.2 194.5-105.9 272.1-40.6 47.3-94.5 82.9-158.6 60.2-64-22.7-59-86.2-56.4-140.3 3.2-65 15.8-129.7 18.4-194.7 15.1-373.8-13.8-748.9 40.2-1121.9 13.9-95.9 7.4-210.1-54-281.2-50.8-58.8-124 36.7-192.6 44.3-75.7 8.4-150.9 21.9-226.5 31.2-42.3 5.2-92.1-5.2-96.7 59.7-43.5 23.7-86.7 48.7-139.4 37.8-211.6 28.9-411 89.7-581.6 225-58.1 22.5-142.2 8.5-147.3 105.1-43.1 9.8-56.6 42.7-71.2 80.4-125.3 324.8-259.1 646.5-325.4 991-20.7 107.8-69.4 206.6-124.1 301.3-49.7 86.2-133.5 91.8-215.6 71.2-81.3-20.4-84.2-96.3-75.8-161.2 14-107.8 37.6-214.5 59.6-321.2 28-136.3 90.4-265.4 99.4-437.4-176.2 104.1-369.8 114-495.2 263.6 0 0 1.2-1 1.2-1-160.2 45.2-322.7 83.6-479.4 138.6-77.6 27.2-175.7 28.7-221.4 119.5-45.6 13.3-83.1 55.8-137.2 37.7-257.2 12.7-514.5 24.8-771.7 38.5-116.3 6.2-192.7-34.9-192.6-162 0-36.3 4.4-68.6-41.2-69.4-140.9-2.4-132.5-101.4-130.2-196.8 10.6-441.4 39-882.7 112-1317.2 56.5-336.5 14.8-683.7 129.1-1013 44.5-128.2 65.1-265.1 91-399.1 46.5-241.3 122.2-462.3 274.7-667.1 138.9-186.7 327.5-302 498.3-442.2 177.1-145.4 366.8-282.8 620.4-251.8 33.2 4.1 67-4.7 66.2-51.3 12.8-1.1 25.5-2.2 38.3-3.2 37.2 51.1 85.7 22.7 132.3 21.7 241.9-5.1 501.6-55.7 638.3 231.6 3.1 6.5 19.7 6.6 30 9.6 0 0-1.3-3.5-1.4-3.5-30 119.7-53 241.8-92.1 358.5-33.4 99.9-115 140.7-208.3 81.1-260.5-166.6-534.2-112.4-811.2-68.3-247.8 39.5-447.6 132.3-509 402.7-18.1 79.5-26.4 161.4-46.9 240.2-74.3 285.6-152.8 570.1-227.8 855.6-16.4 62.3-39.8 132.2 19 183.4 49.8 43.3 94.6 2.6 127.9-32.3 186-195 431.3-244.4 681.3-284.5 39.4-6.3 94.3 12.7 101.1-54.7zm1788 590.6 2.3-1.9c-42.5 6.5-47.4 32.1-34 67 0 0 .8-1.4.8-1.4-58.6 9.1-65.3 51.9-55.3 96.7 8.9 39.6 47.3 41.3 79.8 38.6 306.2-25.6 612.3-52 911.3-128.2l5.2-1.5c75.1 1.1 139-2.5 148.7-105.5 26.7-283.3 7.5-565.3-15.4-847.2-10.7-131.4-159.2-333-257.4-365l-1.3-1.4c21.1-17.9 17.7-37.3-.1-53.7-102.2-93.7-221.5-74.7-285.4 77.2-130 308.8-302.9 600.7-386.4 927.6-20.3 79.4-43 154.7-78.3 227.5 2.9 10.9 1.7 21.5-3.4 31.5-10.3 13.2-20.7 26.5-31.1 39.7z" fill="#fa0000"/><path d="m11860.2 6144.7c-49.9 76.7-143.3 89.3-213.2 136.4-64.1 43.2-165.1 23-154-88.8 15.6-158.4-51.3-308.5-30-464.7-28.2-105.3-1.6-211.4.9-317 7.3-314.3-7.4-628.8 36.4-942.6 40.8-292.3 62-587.2 62.4-882.9-.2-65.9-.3-131.9-.4-197.2 101.5-148.5 74.6-326 105-490.3 27-145.7 41.4-294.8 47.8-442.9 4.7-109.4-62.5-161.7-171.2-134.6-158.9 39.5-323.7 69.2-471.5 135.4-107.2 48-219.3 45.2-325.5 81.7-96.8 33.3-116.1-28.7-93.8-108.4 22-78.5 54.6-152.7 60.4-237 18.3-265.9 87.1-331.9 342.1-407.4 136-40.3 281.4 4.3 410.4-63.9 0 0-2.8 1.1-2.8 1.1 347.9-41.2 695.8-56.4 1042.9 6.1 116.5 21 272.4-5.4 339.5 78.9 92.3 115.9 43.6 288 27 430.1-12.3 105.4-148.8 43.2-221.3 80.5-33.3-.9-66.7-1.9-100-2.8-125-144.9-279.7-81.3-423.1-51.2-80 16.8-36.7 83.1-5.5 113.2 179.6 173.2 183.8 381.2 140.5 606.8-98.6 512.7-193.4 1026.1-284.9 1540.1-43.8 245.9-87.4 492.6-111.7 740.9-28.6 292.4-42.1 586.8-6.4 880.5z" fill="#fa0000"/><path d="m4120.8 6978h2.5c114.9-2 233.2 39.9 343-26.8 76.5 1.7 153 4.9 229.5 4.9 2753.2.3 5506.4.2 8259.5.2 223 0 223.1.2 223.1 224.4 0 585.7-3 1171.4 2.1 1757 1.1 128.2-24.7 182.2-170.5 182-2933.8-4.2-5867.6-3-8801.4-4.5-43.2 0-100.2 29.3-129.5-33.6 10.6-10.3 21.3-20.6 31.9-30.8 2951.1.6 5902.1.7 8853.1 4 114.4.1 150.6-33.9 149.6-148.9-4.9-574.8-7-1149.8 1.1-1724.6 2-143.1-48.3-169.3-178.7-169.2-2940.1 4-5880.2 3.9-8820.3 4.5 1.6-12.8 3.3-25.7 5-38.6z" fill="#2e4250"/><path d="m4238.6 145.9c22.6-4.2 45.2-8.3 67.7-12.6 207.2.3 414.3.7 621.5 1.1 17.3 11.6 49.8 23.1 49.8 34.6-.1 160.4 100.4 160.8 215.8 140.2 0 0-2.7-.6-2.7-.6-2 245.5-3.9 491-6 736.4-.8 94.4 28.8 207-134.3 193.2-49.6-4.2-56.3 45.5-52.9 84.5 8.4 96.8-50.4 102.4-123.8 102.2-267.4-.9-534.7 1.5-802.1 2.6 0 0 .8 2.5.8 2.5-.7-89.9 51.8-206.9-115.9-207-50.5 0-49.6-49.6-49.7-87.6-.5-179.6-.4-359.2.1-538.8.1-39.4 3.8-82.6 55-84.2 166.8-5.2 111.5-102.3 81.5-190 88.9-32.4 227-10.5 195.2-176.5zm504 1048.7c58.3 23.1 88.8 14 86.3-59.5-7-210.2-9.2-420.6-13.2-630.9 32.2-147.2-18.2-193.4-175.5-197.6-174.2-4.6-215.3 53.8-202.6 213.5 13.3 167.9 2.9 337.7 3 506.7.2 215.7.2 215.7 214.6 199.4 29.1-10.6 58.3-21.1 87.4-31.6z" fill="#0462a9"/><path d="m9598.1 124.6c261.4 29.2 523.7 5.6 785.4 13.8 61.3 1.9 137.5-21 139.1 86 1.6 107.6-74 87.8-136.3 88.4-147.5 1.5-295.9 11.1-442.2-2.5-148.2-13.8-159.2 63.2-152.8 175.5 5.8 101.7-25 223.9 149 193.7 16-2.8 32.7-1 49.1-1.4 121.4 47.6 246.1 19.5 369.7 16.3 0 0-6.6 1.1-6.6 1.2 17.5 145.5-50.4 191-188.7 173.6-85.4-10.7-173.4-2.5-260.2-1.5-37 .4-93.8-7.9-98.8 33.9-11.6 96-26.7 200.2-.6 289.5 24.5 84.2 120.5 34.4 186.5 35.1 180.6 1.1 361.1 2.2 541.7 3.4 0 0-3.2-1.1-3.2-1.1 33.3 145.9-11.4 206.2-173.4 199.3-289.2-12.4-579.3-5.9-868.9-1.9-79.1 1.1-164.4-27.6-237.3 30-11.6-.2-16.5-6.2-14.6-18.3-1.7-311.1-3.4-622.2-5.1-933.2 0 0-.8 1.5-.8 1.5 162.9 32.8 232.3-30 200.6-196.2 0 0-2.8 1.9-2.8 1.9 45.8-36.3 100.7-37.9 155.2-41 5.5-48.6 10.8-97.3 16-146z" fill="#0462a9"/><path d="m7856.2 300.7c162.2-11.5 215.7 65.6 191.6 220.9-11.6 74.6-4.9 152.6-1.2 228.8 3.7 76-8.4 130.7-103.9 119.8-48.6-5.5-92.3 8.3-84.6 68.5 12.7 99.5-37.8 123-123.3 116.4-29-2.2-59.9 12.4-56.6 44.6 18.1 175.2-107.4 144-202.1 134-136.5-14.4-191.7 35.1-167.9 170 28.4 160.9-28.1 232.1-199.2 205.2-79.9-12.5-163.4-2.9-245.2-2-61.8.7-116.2 6.6-121.7-86.3-6.9-115.1-144.5-4.7-177-89.4 0 0 8-2.3 8-2.3 114.6-1.6 230.8-16 343.4-1.8 178.1 22.5 235.7-50.5 207.8-216.2-23.6-139.8 39.8-187.9 173.2-167.7 98.3 14.9 206.8 43.3 195.9-123.2-2.5-37.9 35.2-53.8 70.5-51.6 80.8 5 104.3-37.7 102.5-110.1-1.3-53.9 33.2-81.6 83.7-78.1 109.5 7.6 106.7-63.4 104.8-138.4-2-76.4-1-152.8-1.3-229.2z" fill="#0a0c0e"/><path d="m7277.7 1694.8c.9 46.6-33 55.3-66.2 51.3-253.7-31-443.3 106.4-620.4 251.8-170.8 140.2-359.4 255.5-498.3 442.2-152.4 204.8-228.2 425.8-274.7 667.1-25.8 134-46.5 271-91 399.1-114.3 329.3-72.7 676.5-129.1 1013-72.9 434.5-101.3 875.8-112 1317.2-2.3 95.3-10.8 194.3 130.2 196.8 45.6.8 41.2 33.1 41.2 69.4-.1 127.1 76.3 168.2 192.6 162 257.2-13.7 514.6-25.8 771.7-38.5-28.8 87.6-121.6 97.5-175.3 88.3-207.5-35.3-407.8 62-613 19.1-32-6.7-66.1-4.9-97.2-14.1-71.4-21.1-320-376.1-316-456.2 24.4-477.2 64.6-952.5 120.9-1427.7 62.1-525.1 139.8-1044.6 265.7-1558.4 80.9-330.3 272.2-572.7 536-770 104.9-78.5 210.4-156 314.6-235.3 139-105.8 277.5-213.6 469.6-152.8 56.3 17.7 94.4-56.3 150.7-24.3z" fill="#451c1c"/><path d="m14772.6 2021.4c-98.1 127.2-239.8 200.1-371.6 280.1-488.8 296.5-959 619.7-1279.4 1102-298.1 448.6-508 932.9-378.2 1498.2 31 135.1 52.7 284.2 151.4 374.6 237.9 217.9 352.7 525.7 578.2 749.5 20.3 20.2 33.9 42.5 26.5 72.7-149.1-40.9-217.1-168.7-281.9-286.8-82.5-150.4-177-286-304.3-401.6-120.5-109.5-180.8-254.9-214.7-411.6-92.9-428.8-44.1-827.1 143.3-1237.5 275.2-602.5 751.9-992.2 1266.5-1353.9 172.4-121.2 358.5-224.2 530.2-348.5 37.6-27.2 78.6-64.4 134-37.2z" fill="#451c1c"/><path d="m4071.5 1427.7c267.4-1.1 534.7-3.5 802.1-2.6 73.4.2 132.2-5.4 123.8-102.2-3.4-38.9 3.3-88.7 52.9-84.5 163.1 13.8 133.5-98.9 134.3-193.2 2.1-245.5 4-491 6-736.4 142.9-23.1 184.8 34.1 177.8 178.9-13.2 272.7-5.3 546.5-2.8 819.7.7 74.4-4.5 131.3-102.3 118-39.3-5.3-84.4.8-76.2 56.6 21.5 146.4-78.6 124.9-165.3 124.8-185.9-.3-371.8 3.9-557.5-1.9-83.9-2.6-197.5 54.1-216.6-111.4-8.3-72.4-138.7 20.9-176.2-65.8z" fill="#0a0c0e"/><path d="m13214.1 143.7c6-11.2 3.8-20.5-6.4-27.9 154.1-10.4 194.8 57.9 189.3 211.5-13.6 376.8-3.2 754.5-5.9 1131.8-.4 48.8 32.5 129.9-40.6 139.6-105.1 14-296.4 42.3-305.1-16.4-22.3-149.4-156-82.5-202.2-153.4 364.6-13.9 363.8-13.9 364.8-387.2.8-299.4 3.9-598.7 6.1-898z" fill="#0a0c0e"/><path d="m1698.5 1858.5c-10.9 86.6-90.4 69.2-140.5 84.3-277.6 83.6-557.3 160.2-836.3 239-118.7 33.5-217.7 75.3-260.6 216.5-38.3 126-189.2 187.2-215.3 338.3-28.2 163.6-3.6 212.4 163.1 210 199.4-2.8 385.5-65.4 572.1-126.2 182-59.4 363.9-119.8 558.8-118.5 55.6.4 111.8 1.7 140.6 62.1 28.7 60.2-4.2 108.8-39.6 149.1-108.3 123.2-217.1 246.5-333 362.4-153.7 153.7-198.8 362.9-271 552.2-36.7 96.2 39.8 230.7-20 345.3-87.3-340.2 9.3-640.3 214.5-908.4 99.2-129.6 222.7-240.4 332.6-362.1 24-26.6 58.1-58.5 38.3-100.6-21.2-45-66.5-21.1-101-23.6-190.5-13.5-363.4 60.7-540.5 112.8-193.9 57-385.8 121.9-591.5 122.8-119.8.5-179.9-46.3-178.7-176.3 1.4-152.9 17.9-291.3 155.5-389.3 32.8-23.3 61.6-67.7 69.8-107.1 22.2-105.4 92.3-163.4 184-190.7 349.1-103.7 700-201.4 1050.6-300.1 14.3-3.8 32.1 5.2 48.1 8.1z" fill="#451c1c"/><path d="m7149 3632.7c-6.8 67.4-61.7 48.3-100.8 54.6-250 40.1-495.4 89.5-681.3 284.5-33.3 34.9-78.1 75.6-127.9 32.3-58.8-51.2-35.4-121-19-183.4 75-285.4 153.4-570 227.8-855.6 20.5-78.8 28.8-160.7 46.9-240.2 61.4-270.4 261.2-363.2 509-402.7 276.9-44.1 550.7-98.3 811.2 68.3 93.3 59.6 174.9 18.8 208.3-81.1 39.1-116.7 62.1-238.8 92.1-358.5 37 114.3 11.4 228.2-15.2 337.5-46.1 189.7-169.3 240.5-348.6 150.4-271.9-136.6-536.2-58.2-818.2-19.4-428.5 59-361.3 399.3-446.6 652.8-78 232-123.8 474.7-189.4 711.1-10.2 36.9-39.1 75.7-6.5 102.5 32.2 26.4 68.8-1.3 101.1-25.5 224.3-167.9 474.7-251.8 757.1-227.6z" fill="#451c1c"/><path d="m14095.1 9446.7c-2.4-66.3 58.2-73.1 96.5-97 344.4-215.3 661-466.1 951.6-748.8 76.3-74.2 155.2-105.7 260-111.3 229-12.2 456-44.5 680.2-96.1 116-26.7 159.9-78.5 97.6-194.3-43.9-81.6-80.1-167.6-117.1-252.7-25-57.6-54.6-89.2-124.7-61-110.1 44.3-164.7-27.4-162.6-117 7.1-307.5-41.3-606.8-105.7-905 143.3 141 115.2 336.1 154.2 508.4 23.7 104.7 11.3 217.6 14.1 326.9 2 77.7 2.1 151.9 117.6 101.5 75.5-33 117.9 5.9 147.4 76.3 50.5 120.8 101.4 242 162.6 357.5 57 107.6 20.4 162.7-83.6 195.2-251.3 78.5-511.5 107.4-771.8 127.6-93.3 7.2-163.6 30.9-231.1 96.4-283.1 274.5-587.9 522.9-923.1 732.1-49.3 30.8-93.3 80.3-162.1 61.3z" fill="#451c1c"/><path d="m11860.2 6144.7c-35.7-293.7-22.3-588.2 6.3-880.5 24.3-248.3 67.9-495 111.7-740.9 91.5-514 186.3-1027.4 284.9-1540.1 43.4-225.6 39.2-433.6-140.5-606.8-31.2-30.1-74.5-96.5 5.5-113.2 143.5-30.1 298.2-93.7 423.1 51.2-113.8 39.6-232.1-66.3-361.1 24.8 218.6 248.8 159.5 532.3 103.2 826.8-118.7 620.6-261.3 1237.5-322 1868.2-12.9 134.1-31.7 267.7-47.7 401.6-58.4 89.7-25.9 186.8-23 281.4.1 65.6.2 131.2.3 196.8-7.2 29.2-7.8 56.6 22 75-29.7 48.4 2.9 121.9-62.7 155.7z" fill="#451c1c"/><path d="m9249.7 1455.9c72.8-57.6 158.2-28.9 237.3-30 289.6-4.1 579.7-10.5 868.9 1.9 162 6.9 206.8-53.4 173.4-199.3 58.8 20.9 156.8-31.9 175.3 36.5 26.1 96.4 14.5 205.1 6.3 307.6-4.1 50.9-60.8 32.7-95.5 33.2-135.9 2-271.9 2.2-407.9.5-60.6-.7-112 2.3-92.9 85.4-18.6.6-37.1 1.2-55.7 1.8-92.4-150.2-197.4-74.6-301.3-16.7-.1-51.3-7.2-95.6-77.1-76.9-73.9-.8-147.7-1.6-221.6-2.4-9.4-12.2-18.9-24.3-28.4-36.5 4.4-145.8-119.2-72.1-180.8-105.1z" fill="#0a0c0e"/><path d="m11466 1720.6c-128.9 68.2-274.3 23.6-410.4 63.9-255 75.5-323.8 141.5-342.1 407.4-5.8 84.3-38.4 158.4-60.4 237-22.3 79.7-3.1 141.7 93.8 108.4 106.2-36.5 218.2-33.7 325.5-81.7 147.8-66.2 312.5-95.9 471.5-135.4 108.7-27 175.9 25.2 171.2 134.6-6.4 148.2-20.8 297.2-47.8 442.9-30.4 164.3-3.5 341.8-105 490.3-10.2-146.5-14.3-292 23.9-435.4 39.5-148.6 55.7-299.9 60.1-453.7 3.3-113.9-42.3-126.3-139.9-98-234.2 67.9-470.7 127.4-706.2 190.8-67.8 18.2-139.6 55.4-196.3-16.4-50.6-64.1-30.2-135.6-1.3-202.2 31-71.6 41.3-146 46.5-223 23.4-350.8 252.1-420.1 509.2-439.5 97.8-7.5 205.3-3 307.7 10z" fill="#451c1c"/><path d="m3450.7 4879.9c113.2-138.9 269.4-226.5 408.5-333 277.5-212.5 566.7-409.6 848.9-616 340.4-249 531.7-585.5 573.1-1005 18.3-185.2-63.7-355.8-88.7-534.9 151 128.8 151.5 311.9 149.6 481.7-4.9 434.9-194.5 791.7-529.3 1061.1-383.2 308.2-804.9 565.5-1187.2 876-48.1 39-99.1 91.1-174.9 70.1z" fill="#451c1c"/><path d="m7458.6 5931.2c125.3-149.6 318.9-159.5 495.2-263.6-9 172-71.3 301.1-99.4 437.4-21.9 106.7-45.6 213.4-59.6 321.2-8.4 64.9-5.5 140.8 75.8 161.2 82.1 20.6 165.9 15 215.6-71.2 54.7-94.7 103.3-193.6 124.1-301.3 66.3-344.5 200.1-666.2 325.4-991 14.5-37.7 28.1-70.6 71.2-80.4-95.4 394-284.5 758.7-358.6 1160-16.4 88.7-63.6 175-110.8 254-64.8 108.6-175 130.1-288 99.5-110.3-29.9-124.2-127.3-121.6-224.8 3.4-126.7 35.8-248.5 68.8-369.9 22.4-82.7 45.4-165.2 71.8-261.2-160 10.4-265.1 135.2-409.9 130.1z" fill="#451c1c"/><path d="m5980.1 5347.7c-39.3-250.3 12.8-495.8 81.4-729.2 78.3-266.4 330.1-330.2 571-366.4 253.5-38.1 510.3-54.5 765.9-78 36.6-3.4 76.1 1.5 111.5 11.9 201.4 59.3 256.9 19.5 278.9-194.9 9.3-90.6-11.3-173-44.6-254.6 6.1-5.7 12.2-11.4 18.4-17 8.1 4.4 16.7 6.6 25.9 6.5 110.1 140.2 46.5 295.3 21.6 438.5-18.4 105.7-116.9 167.1-227.9 116.3-107-49-210.4-39.6-318.9-28.2-216.4 22.8-433.8 36.7-649.4 65.3-220.1 29.2-432.9 114.8-503.6 333.9-48.7 150.9-78.6 322.6-68.2 491.6 4.5 73.3 20.2 155.1-62 204.3z" fill="#451c1c"/><path d="m9990.8 1226.3c-66-.7-162 49-186.5-35.1-26-89.3-11-193.5.6-289.5 5-41.8 61.8-33.5 98.8-33.9 86.8-1 174.7-9.2 260.2 1.5 138.4 17.4 206.2-28 188.7-173.6 83.6-15.6 174.3-60.6 180.8 92.3 11.1 259.7 13.3 264.2-155.6 265.2-92.9.5-186.3 5.9-278.7-1.3-114-9-133 43.6-104.8 137.5-1.3 12.2-2.4 24.5-3.5 36.9z" fill="#0a0c0e"/><path d="m9475.1 4775.6c4.6-64.9 54.4-54.5 96.7-59.7 75.7-9.3 150.8-22.8 226.5-31.2 68.6-7.6 141.8-103.1 192.6-44.3 61.4 71.1 67.8 185.3 54 281.2-54 373-25.1 748.1-40.2 1121.9-2.6 65-15.2 129.6-18.4 194.7-2.7 54.2-7.6 117.7 56.4 140.3 64.1 22.7 118-13 158.6-60.2 66.7-77.6 78.2-178.1 105.9-272.1 15.8-53.6-2.8-126.6 74.6-150.3-21.7 145.1-15.7 296.8-99.6 427.2-60.7 94.5-151 154.8-259.5 129.6-111.8-26-106.3-134.2-106.4-228-.3-387.8 51.9-774.4 28.4-1162.4-5.2-86 58.4-158.7 20.7-254.2-32.5-82.3-54.3-121.4-143.1-73.9-109.5 58.4-227.4 62.1-347.2 41.4z" fill="#451c1c"/><path d="m11955.5 1431.8c125.3-2.5 251-12.6 375.7-5.3 117.9 6.9 156.1-40.6 146.4-151.8-6.6-75.8-7.9-153.4.8-228.7 7.4-64.6-49.9-167.1 78.7-176.9 131.9-10 80 99.6 100.6 161.9 0 26.8.1 53.6.2 80.3-1.2 131.3-6.4 262.7-2.2 393.8 2.6 79.9-27.8 106.4-104.9 102.9-125.5-5.7-251.3-4.8-377-6.6-23.3-2.2-46.6-4.4-69.9-6.6 8.5-107.9-51.8-140.8-147.4-135.5.8-9.2.4-18.4-1-27.5z" fill="#0a0c0e"/><g fill="#451c1c"><path d="m736.8 6486.8c38.3 9.5 76.4 22.5 81.1 68.4 17.4 172.3 72.5 352.3 41.5 515.8-95.5 503.9-74.1 1009.7-77.2 1516-.4 65.7 29.5 147.3-63.7 182.9-7.2-515.8-41.4-1033.7 39.3-1545.4 39.6-251.5-21.8-491.9-21-737.7z"/><path d="m12103.9 1594.7c23.3 2.2 46.6 4.4 69.9 6.6 205.9 53.6 415.9 74.9 627.8 89.1 104.2 7 140.9 95.4 146.4 187.9 7 119.1 9.5 238.9 4.1 358-5.6 123.7-157.9 162.7-301.2 80.9 72.9-37.3 209.4 25 221.7-80.5 16.6-142.1 65.3-314.2-27-430.1-67.1-84.3-222.9-57.9-339.5-78.9-347.1-62.5-695-47.3-1042.9-6.1 55.3-72.5 132.7-69.4 213.7-69.9 144.2-.7 293.7 28.4 427-57z"/><path d="m956.8 4908c39.7 206.3-20.5 404.1-62.5 601.2-8.9 41.8-91.6 68.7-141.5 100.6-96.1 61.5-191.1 125.1-290 181.8-243.9 140-151.8 410 55 492.7 65.1 26 128.4 57.7 189.6 92 29.9 16.7 46 46.8 16.6 80.9-91.5-44.2-185.1-84.6-274.2-133.4-246-134.6-267.4-396.7-46.6-566.8 64.6-49.8 129.3-109.3 204.1-134.1 227.4-75.5 268.3-255 275.7-456.3 3.3-93.6 20.2-180.7 73.8-258.6z"/><path d="m4365.7 1822.1c-295.4-21.9-590.1-46.8-884.9-80.4-373.4-42.5-757.8-24.4-1134.9 26.6-90 12.2-182.5-18.9-269.4 21.1 95.6-117.6 239.5-71.9 359.3-97.4 266.1-56.6 539.7-4.2 810.1-24.1 194-14.2 381.5 35 569.7 80.1 75.5 18.1 161.1-8.1 242.3-11.2 111.2-4.1 228.1-25.9 307.8 85.3z"/><path d="m16264.3 2481.3c-14.7-158 40.3-310.3 32.2-469.4-16.1-318.7-189.7-458.2-499-376.5-179.6 47.4-345.6 132.2-511.7 214.8-116.8 58.1-236.6 108.3-371.2 104.4 325-151.7 633.6-350.2 996.4-400.3 237.5-32.7 386.3 85.7 429.8 325.2 37.5 205.6 44.1 413.4-76.5 601.8z"/><path d="m10386.6 5581.4c26.5-253.2 51.6-506.6 80.5-759.6 6.8-59.6 23.7-120.2 3-177.3-34.5-95.5-13.3-157.2 71.3-221.4 83.4-63.3 102-147.8-7.3-225.3-124.2-88-38.4-217.3-46.1-327.3-4.4-62.8 17.5-127.5 27.6-190.9 77.6 26 52.5 89.4 50.7 142.5-4.7 137.5-69.7 275.1 77.9 397.5 72.4 60 31.6 180.9-48.4 244.3-58.5 46.3-82.2 92.4-73.8 164.3 32.2 277.1-50.6 545.7-64.4 819.6-2.4 49.9-23.7 101.8-71 133.6z"/><path d="m14161.8 3434.5c150.3-254.4 370.7-428.9 633.7-554.4 21.1-10.1 43.9-5.1 53.8 19.2 16 39.1 8.7 75.5-23.8 103.1-70.3 59.7-143.4 116.3-212.6 177.3-189.3 166.7-202.7 229.2-101.6 447.1-116-28.4-162.5-104.3-142.8-218.8 4.1-23.8 34.4-48 6.8-69.6-28.3-22.1-58.5-7-86.3 12.7-41.5 29.1-59.3 94.8-127.2 83.4z"/><path d="m15641.3 6814.8c-256.3-301.4-515.4-600.6-767.8-905.3-138-166.6-311.4-305.2-407-505.8 81.3 36 137.9 101.8 194.4 166 277 315 554.4 629.8 827.3 948.5 72.8 85 153.9 171.2 153.1 296.6z"/><path d="m11562.7 3585.1c-.4 295.8-21.6 590.7-62.4 882.9-43.8 313.7-29.1 628.3-36.4 942.6-2.5 105.6-29.1 211.7-.9 317-90.2-142.6-67-300.1-61.3-455.2 56.4-190.6 23.1-384.8 23.7-577.7 11.1-335.6 36.2-670.1 79.9-1003.1 5.5-42.5 4.2-89.4 57.4-106.5z"/><path d="m12568.5 9640.6c31.6 6.4 69.7 3.5 93.7 20.5 279 198 559.3 142.5 852.6 28.8 196.7-76.2 369.2-208.5 581.8-244.9-5.4 70.9-71.5 76.2-115.3 100-253.7 138.3-519.6 251.8-802.3 310-238.2 49.2-444.4-36.2-610.5-214.4z"/><path d="m14303.1 5206.2c-358.9-244.2-625.6-969.3-483.4-1325 32.8-82 54.7-176.6 150.7-216.9-2.3 21.6 2.5 47.9-8 64.3-257.6 400.8-92.1 755.9 119.4 1104.9 45.1 74.4 98 144.5 152.4 212.5 38.6 48.2 68.4 97.1 68.9 160.2z"/><path d="m459.2 9709.5c150.9-153.3 270.1-129.8 339.1 58.8 32.8 89.5 100.2 157.7 203.9 165.3 109.1 7.9 207.4-22 273.1-115.8 27.8-39.6 51.5-85.8 63-132.5 46.2-187.8 171.8-235 345.2-205.2-6.7 22.4-19.1 41.1-44.2 40.9-162.8-1.5-220.7 110.2-264 240.3-41.5 124.5-129.6 197.5-256.7 227.8-157.7 37.5-304.9-7.7-353.4-157.5-51-157.9-131.8-165.5-258.2-119.5-13.8 5-31.7-1.5-47.8-2.6z"/><path d="m9680.5 1600c69.9-18.8 77 25.5 77.1 76.9-139 133.3-322.5 220.6-411.7 406.5-12.7 26.4-63.2 38.1-98.5 49.5-194.8 62.4-200.6 81.5-153.1 275.2 24 97.9-16.7 177.9-128.5 200.7 44.6-100.4 64.6-185.2 12.4-306.7-39.1-91 81.6-194.6 192.2-219.1 94-20.9 155.8-59.5 198.8-144.6 53.7-106.4 161.6-156.9 250.5-227.4 30.3-23.9 122.5-30.9 60.8-111z"/><path d="m15015.1 3467.4c-4.5-33.9 21.5-47.7 43.4-61.9 348.7-225.4 675.9-480.1 1001.4-737 39.8-31.5 81.6-53.5 130.7-63.3-88.6 149.7-239.3 231.7-370.8 332.5-211 161.8-428.7 314.8-645.7 468.6-46.2 32.8-89.3 84.9-159 61.1z"/><path d="m10512.6 3562.6c-96.6-108.4-75-237.2-52.8-360.4 44.2-244.7-24.5-475.4-75-708.5-16-73.7-93.1-85.3-144.7-123.1-52.7-38.6-142.6-32.9-153-123.6 257.2 42.9 360.1 148.2 404 390.9 55.6 307.7 16.8 616.5 21.5 924.7z"/><path d="m8739.7 3202.1c-44.7 340-154.7 660.5-291.4 973-21.6 49.5-52.8 97-63.4 148.8-25.4 124.5-98.1 173.9-220.3 160.5 189.3-121.8 226.5-336 301.9-521.5 81.8-201.2 133.8-414.7 194.8-624 15.6-53.6 32.1-102.6 78.4-136.8z"/><path d="m7310.2 5499c-23 21.8-45.3 61.7-69.2 62.7-303.7 13-583.4 183.3-897.3 133.6-79.3-12.5-163.1 6.4-244.6 3.8-55.9-1.8-134 39.3-162.4-30.4-27.2-66.9-35.9-149.8 38.3-207.2-13.5 145.4 59.3 160.9 192.5 175.2 394.7 42.6 758.2-127.8 1142.7-137.7z"/><path d="m2037.7 5780.1c7.8-60.6 43.6-103.4 89.9-138.6 273.5-208.1 580.9-360.3 877.6-530 16.6-9.5 42.3-2.8 63.8-3.7-16.9 68.7-81.4 84.4-131.5 113.3-306 176.6-614.9 348.4-899.8 559z"/><path d="m14418.4 8272c-123.6-76.5-233.1-46.6-359.9 14.4-258.6 124.4-508.6 269.4-783.7 358.1-23.1-55.7 24.6-64.9 56-80.1 275.5-132.9 550.3-267.5 828.4-394.8 113.5-51.9 224.3-61.6 259.2 102.4z"/><path d="m8047.9 4550.4c-113.9 158.6-96.5 346.6-117.9 525.9-4.8 40.4-2 90.7 39.3 94.9 265.6 27.4 66.9 163.9 77.8 299.7-72.3-111.9-123.1-189.3-230.2-167.3 16.1-44.4 58.2-60.8 53.2-135.6-11.1-164.3-19.6-339.6 48.1-499.6 23.2-54.6 41-129.1 129.7-118z"/><path d="m2913.4 9147.3c13.4-34.7 44.1-45 75.8-55.1 357.8-113.3 705-253.9 1048.7-403.9 10.3 23.8 20.6 47.7 30.8 71.5-241.1 93.4-479.6 194.7-724.4 277.1-139.7 47-270.8 139.6-430.9 110.4z"/><path d="m4010.3 6748.6c-114 17.8-193.3-65.5-283.6-106.9-246.4-113.1-515.2-173.4-746.7-320.2 37.6-.7 79.2-12.4 112.3-.5 271.4 97.8 541.4 200.2 800 328.8 44.8 22.2 110.3 28.8 118 98.8z"/></g><path d="m12100.2 312.5c-15 85 35.5 204.2-128.7 205.3-64.7.4-43.7 76.3-44.3 120.9-3.4 264.7-4.1 529.5-5.7 794.2-64.2-2-61.1-49.3-61.2-92.8-.4-249.6.5-499.2-1-748.8-.3-46.1 4.7-105.5 45.8-110.9 107.5-14.1 133.8-108.5 195.1-167.9z" fill="#2e4250"/><path d="m14190.9 6782.5c187.8 69.6 584.3 624.7 589.3 824.9-175.1-290.2-392.2-550.4-589.3-824.9z" fill="#451c1c"/><path d="m4068.7 8759.9c-10.3-23.9-20.5-47.7-30.8-71.5 46.2-57.2 28.7-125.2 28.9-188.9 1.3-457.1-.6-914.1 2.6-1371.2.4-51.4-36.5-124.8 51.2-150.2-1.5 12.9-3.2 25.8-4.9 38.7-1.6 678-3.2 1356.1-4.8 2034.1-10.6 10.3-21.3 20.6-31.9 30.8-25.2-106.6-8.7-214.5-10.3-321.8z" fill="#0a0c0e"/><path d="m4043.4 322.6c30 87.7 85.3 184.8-81.5 190-51.2 1.6-54.9 44.8-55 84.2-.5 179.6-.7 359.2-.1 538.8.1 38-.8 87.6 49.7 87.6 167.7 0 115.2 117.1 115.9 207-22.7-129-183.8-124.1-226.4-233.9 59.5-229.3 14.7-462.3 24.8-693.4 40.5-76.4 181.4-56.6 172.6-180.3z" fill="#2e4250"/><path d="m2792.4 6255.4c-232.5-32.8-447.5-117.2-645.9-238.3-60.1-36.7-146.3-82.4-109.8-186.9 155.2 191.9 383.2 248.8 600.5 327.1 57.3 20.7 133.3 18.8 155.2 98.1z" fill="#451c1c"/><path d="m5139.3 2247.8c-45 7.6-68.1-21.1-91.3-52.7-100.1-136.8-245.6-193.1-405.2-199.9-123.7-5.2-199.1-56.7-245-165 53-5.5 94.7 17.3 125 57.5 44.5 59.1 101.1 65 170.3 60.3 195.9-13.3 369.4 106.7 446.2 299.8z" fill="#451c1c"/><path d="m6565.2 1431.4c-51.4-4.6-56.3-40.6-56.3-81.4.4-260.7.5-521.3-.1-782-.1-35.9 7.4-64.1 46.9-73.3 5.4 4.8 10.8 9.6 16.1 14.4.4 306.7.9 613.4 1.3 920.1z" fill="#2e4250"/><path d="m8116.6 1954.5c-10.3-3.1-26.9-3.1-30-9.6-136.7-287.2-396.4-236.6-638.3-231.6-46.5 1-95.1 29.5-132.3-21.7 218.7-66.5 438.5-72.9 649.7 18.1 96.9 41.8 161.6 125.6 150.9 244.8z" fill="#451c1c"/><path d="m6758.9 6188.4c45.7-90.8 143.9-92.3 221.4-119.5 156.7-55 319.3-93.4 479.4-138.6-40 79.4-119.3 107.2-193.9 119-174.8 27.5-326.1 136.7-506.9 139.1z" fill="#451c1c"/><path d="m13692.5 6259.9c217.2 126.8 407.3 279.5 501.2 524.3-171.9-170.2-360.9-324-501.2-524.3z" fill="#451c1c"/><path d="m8754.1 5038.4c170.6-135.3 370-196.1 581.6-225-120.3 132.4-303.1 122-451 192.3-33.5 15.9-78.2 62.3-130.6 32.7z" fill="#451c1c"/><path d="m4466.2 6951.3c-109.8 66.6-228.1 24.7-343 26.8 48.3-43.2 116.9-6.3 174-44-74.7-100.3-225.6-77.5-288.6-186.5 183.3-1.2 319.6 103.3 457.6 203.7z" fill="#451c1c"/><path d="m1015.8 4170.7c16.4 13.6 47.2 27.5 47 40.9-2.8 219.3-6.4 439.1-106 642.6-33-157.2 27.6-307.7 39.4-461.6 5.5-72.8 15.2-147.6 19.6-221.9z" fill="#451c1c"/><path d="m5193.4 309.3c-115.4 20.6-215.9 20.2-215.8-140.2 0-11.5-32.5-23-49.8-34.6 23-7.3 45.9-14.6 68.8-21.9 139.8-8.7 228 34.2 196.8 196.7z" fill="#2e4250"/><path d="m7818.3 5302.1c-19.9 123.7-138.7 104.4-213.6 132.6-92.4 34.8-178.8 135.5-296.2 64.4 161.6-87.2 331.3-153.3 509.8-197z" fill="#451c1c"/><path d="m12657.9 1111.3c-.1-26.8-.2-53.6-.2-80.3 159.2-20.5 213.5 52.6 190.4 205-9.7 63.8-3.8 129.9-4.9 195-112.6-41.1-54.5-137-56-204.9-2.2-98.7-28.8-140.7-129.3-114.8z" fill="#2e4250"/><path d="m6555.8 494.6c115-104.8 230.1-209.6 345.2-314.4 0 0 .1.4.1.5 19.2 106.1-124.2 111.2-126.4 178.4-4.9 152.5-92 159.1-202.9 150-5.3-4.9-10.6-9.7-16-14.5z" fill="#2e4250"/><path d="m621.1 8880.2c-89.3 134.4-201.6 237.1-366.9 267.2 101.4-117.7 214.5-219.4 366.9-267.2z" fill="#451c1c"/><path d="m9230 504.5c1.7 311 3.4 622.1 5.1 933.2-30.9-17.9-44.2-45.7-44.2-80.4.2-269.7.3-539.4 1.1-809.1.1-23.8 13.8-39.2 38-43.7z" fill="#451c1c"/><path d="m14700.3 3626c83.6-96.3 193.2-141.3 316.2-159.6-71.7 120-185.3 157-316.2 159.6z" fill="#451c1c"/><path d="m10359.2 694.5c-123.6 3.3-248.3 31.3-369.7-16.3 1.1-15.3 2.1-30.6 3.1-45.9 86.5-.7 173-3.3 259.4-1.4 45.6 1 103.7-11.5 107.2 63.6z" fill="#2e4250"/><path d="m14418.2 8333.6c2.8-13.2 5.7-26.3 8.5-39.5 89 10.7 60-54.9 59.7-96.9-.4-68.4 11.2-120.1 97.8-105.1-73 77.7 31.7 194.2-58.7 268.1-38.8 2.9-78.7 10.7-107.3-26.6z" fill="#2e4250"/><path d="m3870.8 502.8c-10.1 231.1 34.7 464.1-24.8 693.4 7.5-231.1-41.4-464.3 24.8-693.4z" fill="#451c1c"/><path d="m7553.4 3656.7c-101.9 5.5-205.4 25.5-300.2-33.4 92.8-92.4 204.3 9.5 302.3-29.1-.7 20.8-1.4 41.6-2.1 62.5z" fill="#2e4250"/><path d="m9429.9 309.8c31.7 166.2-37.7 229-200.6 196.2 66.8-65.4 133.7-130.8 200.6-196.2z" fill="#2e4250"/><path d="m11425.4 4694.7c-.5 192.9 32.8 387.1-23.7 577.7-7.7-193.2-19.5-386.6 23.7-577.7z" fill="#2e4250"/><path d="m14814.5 7675.4c50.7 125.8 24.9 224.4-102 287.2 9.5-101.1 106.3-181.2 70.4-293.2 10.7 1.1 21.3 3.1 31.6 6z" fill="#2e4250"/><path d="m9990.8 1226.3c1.1-12.3 2.3-24.7 3.4-37 136.6-1 273.1-3.4 409.7-2.2 46 .4 101.6-19 128.6 42.6-180.6-1.2-361.1-2.3-541.7-3.4z" fill="#451c1c"/><path d="m3291 4981c21.2-85 80.1-110.7 160.7-101.9-22.9 82.2-108.3 66.1-160.7 101.9z" fill="#451c1c"/><path d="m10024.4 2211.9c-130.1-39.9-130.5-42.1-47.3-234.4 6.3 5.3 12.5 10.6 18.7 16 3.3 16.6 6.6 33.3 9.8 49.9-33.7 60.7-2.2 114 18.8 168.5z" fill="#451c1c"/><path d="m14059.3 3551.8c1.1-68.4 27-115.2 103.2-118.1-11.7 59.2-47.4 97.4-103.2 118.1z" fill="#451c1c"/><path d="m10058.9 1693.6c18.6-.6 37.1-1.2 55.7-1.8 28.3 32.4 20.1 64.7-.3 96.9-19.2-1.4-38.5-2.8-57.7-4.2.8-30.2 1.5-60.6 2.3-90.9z" fill="#2e4250"/><path d="m11900.8 5717.3c-2.9-94.7-35.4-191.8 23-281.4-7.7 93.8-15.4 187.6-23 281.4z" fill="#2e4250"/><path d="m9582.3 270.6c-54.5 3.2-109.5 4.7-155.2 41 39.9-58.2 99-44.2 155.2-41z" fill="#2e4250"/><path d="m7553.4 3656.7c.7-20.8 1.4-41.7 2.1-62.5 22.4-.6 44.7-1.2 67.1-1.8 13.5 20.2 32.1 27.5 55.7 21.5 0 0 12.6 5.8 12.5 5.8 2.1 11 4.1 21.9 6.2 32.9-5.6 5.7-11.3 11.5-16.9 17.2-42.2-4.4-84.5-8.8-126.7-13.1z" fill="#451c1c"/><path d="m13599.7 6191.3c68.2-23.4 89.6 16.6 98.9 73-32.9-24.3-65.9-48.6-98.9-73z" fill="#451c1c"/><path d="m16192.6 2603.5c48.7-26.8.1-110.8 72.7-123.6 11.8 62.4-21 98.6-72.7 123.6z" fill="#451c1c"/><path d="m10056.6 1784.6c19.2 1.4 38.5 2.8 57.7 4.2-7.3 23-14.5 46.1-21.8 69.1-10.9-1.2-21.5 0-31.8 3.7-6-5.3-11.9-10.6-17.8-16 4.6-20.4 9.2-40.7 13.7-61z" fill="#451c1c"/><path d="m7744.1 3736.5c-21.3-22.2-42.6-44.5-63.9-66.7 5.6-5.7 11.2-11.5 16.8-17.2 17.5 3.3 35 6.6 52.6 9.8 9.1 1.3 13.3 6.6 12.6 15.8.1 13.8.2 27.5.2 41.3-6.1 5.6-12.2 11.3-18.3 17z" fill="#451c1c"/><path d="m8967 2608c8.8 33.1 3.9 61-29.7 78 6.5-27.3-29.3-70.7 29.7-78z" fill="#451c1c"/><path d="m10088 2247.8c-37.6 15.8-64.9 13.4-65.2-36.9 48.2-34.5 54.3 5.5 65.2 36.9z" fill="#451c1c"/><path d="m9977.1 1977.6c11-21.9 22-43.7 33.1-65.6 6.3 5.3 12.6 10.7 18.8 16.2 2.7 16.4 5.5 32.8 8.2 49.1 0 0-7.5 11.5-7.5 11.5-11.3 1.6-22.6 3.2-33.9 4.7-6.2-5.4-12.4-10.7-18.7-15.9z" fill="#451c1c"/><path d="m10010.2 1912c10.9-22.1 21.9-44.3 32.8-66.4 5.9 5.3 11.8 10.7 17.7 15.9 3.1 16.7 6.4 33.5 9.6 50.3 0 0-7.1 11.8-7.1 11.8-11.4 1.5-22.9 3.1-34.3 4.6-6.1-5.5-12.4-10.9-18.7-16.2z" fill="#451c1c"/><path d="m14814.5 7675.4c-10.4-3-20.9-4.9-31.6-6-10.1-20.5-31.8-40.4-3.8-63.2 55.5.7 41.1 37.2 35.4 69.2z" fill="#451c1c"/><path d="m11923 5989.1c-29.7-18.4-29.1-45.8-22-75 7.4 25 14.7 50 22 75z" fill="#2e4250"/><path d="m7749.6 3662.4c-17.5-3.2-35.1-6.5-52.6-9.8-2-11-4.1-22-6.2-32.9 29.7.3 49.6 14.2 58.8 42.7z" fill="#2e4250"/><path d="m13565.6 6160.6c24.3-3.6 36.8 6.8 37.1 31.5-28.5 8.5-41.6-1.1-37.1-31.5z" fill="#451c1c"/><path d="m13531.8 6128.5c25.2-3.1 37.7 7.2 35.2 33.4-28.3 6.3-44.9.3-35.2-33.4z" fill="#451c1c"/><path d="m13498.1 6096.4c25.7-3.4 37.8 7.3 35.1 33.5-31.6 9.8-47.4 2.9-35.1-33.5z" fill="#451c1c"/><path d="m10070.3 1911.8c-3.2-16.8-6.4-33.6-9.6-50.3 10.4-3.6 21-4.8 31.8-3.6-7.4 17.9-14.8 35.9-22.2 53.9z" fill="#2e4250"/><path d="m10028.9 1928.2c11.4-1.5 22.9-3.1 34.3-4.6-8.7 17.9-17.4 35.8-26.1 53.7-2.7-16.4-5.4-32.7-8.2-49.1z" fill="#2e4250"/><path d="m14916.3 1951.8c-10.7 11.4-21.3 22.8-32 34.1 10.7-11.4 21.4-22.7 32-34.1z" fill="#451c1c"/><path d="m9995.8 1993.6c11.3-1.6 22.6-3.2 33.9-4.7-8 18.2-16 36.4-24 54.6-3.3-16.7-6.6-33.3-9.9-49.9z" fill="#2e4250"/><path d="m7678.3 3613.9c-23.7 6-42.2-1.3-55.7-21.5 18.6 7.2 37.1 14.3 55.7 21.5z" fill="#2e4250"/><path d="m13962.8 3664.9c10.9-10.2 21.7-20.5 32.6-30.7 3.6 25.6-9.8 33.1-32.6 30.7z" fill="#451c1c"/><path d="m9430.6 1561.2c9.5 12.2 18.9 24.3 28.4 36.5-28.1 2.2-33.7-12.9-28.4-36.5z" fill="#451c1c"/><path d="m11955.5 1431.8c1.4 9.1 1.8 18.2 1.1 27.4-22.6 5.7-37.1-.7-38.9-26 12.6-.4 25.2-.9 37.8-1.4z" fill="#451c1c"/><path d="m15671.8 6866.5c-29.6-6.4-38.7-25-31.8-53.2 36.6 2.2 38.2 25.3 31.8 53.2z" fill="#451c1c"/><path d="m14714.6 7960.5c1.8 24.3-9.6 35.8-33.9 34.9-10.7-33-1.5-46.6 33.9-34.9z" fill="#2e4250"/><path d="m14682.4 7993.7c1.1 24.1-10.4 35.6-34.5 34.5-10.9-33.9.6-45.3 34.5-34.5z" fill="#2e4250"/><path d="m720 8767c3.9 27.4-.7 49-34.5 50.8-12.2-33-1.7-50.6 34.5-50.8z" fill="#451c1c"/><path d="m687.1 8815.6c3.2 26-8.3 37.5-34.3 34.3-10-32.8 1.4-44.3 34.3-34.3z" fill="#451c1c"/><path d="m654.3 8848.4c3.2 26.6-9.7 36.6-34.9 33.9-12.1-35.8 3-43.4 34.9-33.9z" fill="#451c1c"/><path d="m14649.5 8026.6c1.1 24.1-10.4 35.6-34.5 34.5-10.9-34 .7-45.4 34.5-34.5z" fill="#2e4250"/><path d="m7762.4 3719.5c-.1-13.8-.2-27.5-.2-41.3 20.3 9.6 31.4 24.2 26.2 47.8-9.2 0-17.9-2.1-26-6.5z" fill="#2e4250"/><path d="m14616.7 8059.4c1 24-10.5 35.5-34.5 34.5-10.9-33.9.6-45.4 34.5-34.5z" fill="#2e4250"/><path d="m358.5 9707.9c9.5-.7 19-.3 28.4 1.3-10 10.9-19.9 21.5-28.4-1.3z" fill="#451c1c"/><path d="m433.6 9708.8c9.8-1.5 19.5-1.7 29.4-.8-9.2 21.2-19.3 12.2-29.4.8z" fill="#451c1c"/><path d="m12484.4 128.1c133.1-22.8 191.6 26.2 171.5 166.4-10 69.5-2.9 141.5-3.6 212.4-142.5 19.5-200-39.6-177.2-183.4 10.2-64 6.7-130.2 9.3-195.4z" fill="#0a0c0e"/><path d="m12770.9 499.5c22.7 2.7 45.5 5.4 68.2 8-7.9 70.4 43.8 173.5-95.6 171.4-139.9-2.1-77.4-109.7-93-176.6 40.1-1 80.2-1.9 120.4-2.8z" fill="#0a0c0e"/><path d="m6571.9 509.1c110.8 9.1 198 2.5 202.9-150 2.2-67.3 145.6-72.3 126.4-178.4 33-15.4 66.1-30.9 99.1-46.3 206.6-.3 413.3-.6 620-.9 36.7 113.3 68.3 233.2 233.5 179.5.3 76.4-.6 152.9 1.3 229.2 1.9 75 4.7 146.1-104.8 138.4-50.5-3.5-85 24.1-83.7 78.1 1.8 72.4-21.7 115.1-102.5 110.1-35.4-2.2-73 13.7-70.5 51.6 10.9 166.5-97.6 138.1-195.9 123.2-133.4-20.2-196.8 27.9-173.2 167.7 28 165.6-29.7 238.6-207.8 216.2-112.6-14.2-228.8.2-343.4 1.8-.5-306.9-1-613.6-1.4-920.2zm552.5 79.2h.6c0 65.2.2 130.3-.1 195.5-.2 49.5 14.5 84.1 72.9 84.8 53.2.6 103.2-4 101.2-72.8-2.7-91.7 44.5-110.6 127.8-127.4 118.1-23.8 50.8-133.6 60.2-204.3 6.8-51 30.5-121.4-54.7-148.7-203.7-65.2-307.8 9.3-307.9 224z" fill="#0462a9"/><path d="m3098.3 2679.3c-18.5 38.5-45.1 30.2-80.3 21.9-423.8-100.1-646.1 39-743.9 464.9-44.2 192.3-54.4 388.4-72.3 584.5-24.3 265.1-87.6 526.5-134.2 789.6-6.7 37.6-15.6 74.9-20.2 112.7-10.5 85.9-60.1 186.2-9.2 255.1 74.1 100.3 144-49 225.3-35.1 15.9 2.7 32.3 3.2 48.5 4.7-58.2 95.3-166.9 117.1-254.1 119.1-136.5 3.1-110-120.5-96.7-205.8 29.7-191.4 60.1-383.8 107.9-571.2 95.7-375.8 83-767.6 178.6-1142.4 22.7-89.1 61.9-174.3 97.4-259.6 23.5-56.3 58.9-112.9 117.6-130.5 210-63 422.4-127.8 635.6-7.9z" fill="#451c1c"/><path d="m3554.3 7899.1c16.3-40.6 44.9-68 79.7-96 181.8-146.4 176.4-206.8-25-337.6-271.3-176.2-565.5-304.4-867.4-418.1-270.2-101.8-559.6-148.9-816.5-287.3-75.8-40.9-108.5 11.5-146.8 57.5-10.2-.8-20 .8-29.3 4.9-5.9-5.1-11.7-10.3-17.6-15.4 41.9-136.8 121-165 248.1-96.8 237 127.1 503.2 174.4 753.6 265.7 313.1 114.2 617.3 246.2 897.8 427 93.3 60.1 222.4 115.7 193.8 253.2-27.7 133.2-132 215.4-270.4 242.9z" fill="#451c1c"/><path d="m3978.6 3635.3c7-68.9 67.7-104.6 99.4-158.5 118.6-201.7 78.2-380.6-124.3-494.8-150.7-85-314.7-135.8-483.1-175.2-53.9-12.6-121.6.3-157.5-61.5 306.9 0 593.9 69.7 809.5 299.4 172.1 183.2 84.9 503.3-144 590.6z" fill="#451c1c"/><path d="m2957.3 4465.4c4.3-14.6 3.8-36.1 13.6-42.8 302.1-209.6 625.7-388.4 902.1-634.6 2.4 93.6-62.3 153-125.6 196.7-228.5 157.9-463.4 306.9-697.4 456.7-25.6 16.3-61.5 16.4-92.7 24z" fill="#451c1c"/><path d="m1585.4 8000.1c-29.4 192.5 18.7 390.6-67.4 581.9-42.7 94.8 57.6 75.1 110.4 63.9 191.3-40.5 370.8-135.6 573.5-122.9 26.2 1.2 52.5 2.4 78.7 3.7-79.7 75-182.8 54.9-277.7 73-137.7 26.2-272.8 67.1-407.6 106.9-91.3 26.9-133.6-10.3-113.6-94.4 55.7-234.3 47.5-476.4 96.1-711.1 0 0 3.8 3.5 3.8 3.5 1.3 31.6 2.6 63.6 3.8 95.5z" fill="#0a0c0e"/><path d="m2280.6 8526.6c-26.2-1.2-52.5-2.4-78.7-3.7 293.7-166.4 592.1-322.1 920.4-410.9 1.2 39.8-27.1 56.3-57.2 69.6-261.4 115.2-523 230-784.5 345z" fill="#451c1c"/><path d="m1721.1 6983c-30.3 261.5-60.5 523-90.8 784.6-49.2-59.1 12.9-142.7-44.1-200 9.5-75.1 19.1-150.2 28.6-225.3 51.3-52.8 28.7-116.7 26.6-177.5 1.2-14.8 2.3-29.6 3.5-44.5 38.4-33.3 36-76.4 29.1-120.5 0 0 1.2-10.9 1.3-11 15.2-2.1 30.5-3.9 45.8-5.8z" fill="#2e4250"/><path d="m2372.4 4842.7c110.1-134.6 253.8-216 418.5-264.2-106.5 140.4-254.7 214.6-418.5 264.2z" fill="#451c1c"/><path d="m1586.2 7567.6c57 57.3-5.1 141 44.1 200-5 42.7-10.1 85.5-15.1 128.2-11.2 2.8-22.3 5.7-33.5 8.5 0 0-3.8-3.5-3.8-3.5 2.8-111 5.5-222.1 8.3-333.2z" fill="#0a0c0e"/><path d="m1641.3 7164.7c2.2 60.8 24.8 124.7-26.6 177.5-11.3-62.2-11.5-122.7 26.6-177.5z" fill="#451c1c"/><path d="m1673.9 6999.7c7 44.2 9.3 87.2-29.1 120.5-7.8-44.3-3.2-85.7 29.1-120.5z" fill="#451c1c"/><path d="m1721.1 6983c-15.3 1.9-30.6 3.7-45.9 5.7-6.1-34.6-1.7-66.4 25.9-91.5 7.9 24.7 15.7 49.3 23.6 73.9z" fill="#451c1c"/><path d="m1756.3 6872.2s-5.4 11.6-5.4 11.6c-15.8 1.7-31.7 3.5-47.5 5.2-3.9-31.8 4.1-59.5 27.9-81.8 5.8 5.1 11.7 10.2 17.5 15.3 2.5 16.5 5 33.1 7.5 49.7z" fill="#451c1c"/><path d="m1703.4 6889c15.8-1.7 31.7-3.5 47.5-5.2-8.8 29.1-17.6 58.1-26.3 87.3-7.8-24.5-15.7-49.1-23.5-73.8 0-.2 2.3-8.3 2.3-8.3z" fill="#2e4250"/><path d="m2789.6 4580.5c-1.2-25.7 13-33.2 35.9-30.3-12 10-24 20.2-35.9 30.3z" fill="#451c1c"/><path d="m3872 3790.4c-15.5-38.5 21.4-34.1 38-46.3-1.4 24.6-5.9 46.8-38 46.3z" fill="#451c1c"/><path d="m14418.2 8333.6c28.7 37.4 68.6 29.5 107.3 26.7-85.5 159.1-234 253.1-372.3 356.8-41.8 31.3-104 77.1-143.1 19.1-46.6-69.2 37.9-91.6 78.6-111.8 137-67.9 265.4-141.8 329.5-290.8z" fill="#0a0c0e"/><path d="m9721.8 2973.6c-158.5-96.7-219.9 6.5-272.1 131.4-135.1 323.2-270.4 646.4-407.1 968.9-13.8 32.5-22.8 74.7-71 78.4 35.3-72.8 58.1-148.1 78.3-227.5 83.5-326.9 256.4-618.7 386.4-927.6 63.9-151.8 183.2-170.9 285.4-77.2 17.9 16.2 21.2 35.7.1 53.6z" fill="#451c1c"/><path d="m9856.5 4253.4c24.4-5.2 59.9 2.8 60.4-36.1 6-409 114.1-833.6-179.4-1198.1-9.1-11.3-9.8-29.3-14.4-44.2 98.3 32 246.8 233.6 257.4 365 22.9 281.9 42.1 563.8 15.4 847.2-9.7 103-73.6 106.6-148.6 105.4 3.1-13.2 6.2-26.2 9.2-39.2z" fill="#451c1c"/><path d="m9692.7 4286.6c24.5-6.4 49-12.9 73.5-19.2 25.3 9 50.6 17.9 75.9 26.8-299.1 76.2-605.2 102.6-911.3 128.2-32.5 2.7-70.9 1-79.8-38.6-10.1-44.8-3.4-87.5 55.3-96.7-7.8 63.2 32.4 60.3 78.2 64 143.7 11.5 281.7-22.2 421.2-45.4 96 .9 194.8 41.1 287-19.1z" fill="#451c1c"/><path d="m9842.1 4294.1c-25.3-8.9-50.6-17.8-75.9-26.8 28-18.3 57.7-25.7 90.3-14-3 13-6 26.1-9.2 39.2-.1.1-5.2 1.6-5.2 1.6z" fill="#2e4250"/><path d="m8939.3 4221.3c1.9 29 13 62.8-34 67-13.4-34.9-8.5-60.4 34-67z" fill="#451c1c"/><path d="m8968.2 4183.6c6.2 26.3-5.7 38.3-31.2 39.6 10.4-13.1 20.8-26.4 31.2-39.6z" fill="#451c1c"/><path d="m4110.9 9050.8c1.6-678 3.2-1356 4.8-2034.1 2940.1-.7 5880.2-.6 8820.4-4.6 130.4-.2 180.8 26 178.7 169.2-8.1 574.8-6 1149.7-1.1 1724.6 1 115-35.2 149.1-149.6 148.9-2951.1-3.3-5902.1-3.4-8853.2-4zm555.6-430.5c-.4 23.3 11.2 34.2 34.3 33.7l-.9-1c.9 70.1 45.6 74.7 99 66.1l-.9-.6c46.9 96.5 142.7 82.4 224.8 99.3 258.9 7.7 491-51.7 662-264.2 89.8-14.1 105-95.8 122.6-158 67.8-240 56.5-484.8 9.9-726.9-13.8-71.8-34-153.9-130.5-168.9-164-263.4-605.4-341.3-926.9-163.5-115.1 20.2-190.5 77.6-191.5 204.6l.9-.9c-106.1 31.7-90 123.5-99.8 202.6.6 81.2 1.4 162.4 1.6 243.6.4 180.7-5.6 362.5 97 524.3-1.7 46.5 11.4 80.4 66.8 78l-1.2-1c-.3 22.9 10.9 34.4 33.9 34.1zm5881-1177.6 1.2-1.2c-22.9-.2-34.2 11.2-34 34.1l1.1-.8c-53.8-7.5-77.3 29.9-100.1 67.9-142.4 237.4-162.8 490.1-97.5 754.8 9.5 38.4 32.9 53.3 65.6 62.9 67.9 209.3 228.3 328.3 413.2 423.3 193.1 46.1 386.3 94.4 569.5-32.4l-1.2.6c68.7 9.7 134.3 12.6 161.5-71.5l.7 4.3c38 1.4 66.6-14.8 67-53.8 2.1-207.1 2.2-414.2 1.7-621.3-.1-55-35.3-75.5-85.7-75.7-169-.4-338-1.1-507.1-.2-29.3.2-59.5-7.5-69.2 43-42.5 220.7-21.8 249.1 206 253.2 43.5.8 87.1-1.6 130.6-2.5l-.8-.9c-9.4 90.5 11.9 189-69 260.5-166.1 44.8-304 3.1-417.6-128.4-158.5-183.5-139.2-385-59.5-588.8 66.2-169.3 210.2-216.4 378.5-211.9 108.7 2.9 217.4 5.4 326.2 8.1 115.8-46 97-154.5 97.3-241.4.3-86.5-91.1-66.2-147.6-88.7-73.2-29.3-136 19.4-204 9.1-143.4 23.5-297.3-32.9-432.2 56.5-25.3 8.3-60.1 2.6-63.8 43l1-.7c-53.5-8.1-98.2-3.1-98.4 67.1l.5-1.7c-22.5-.6-34.4 10.2-33.9 33.5zm-1048.8-165.2c-58.8 17.8-32 64.5-34.3 101.4-78.1 194.3-156.1 388.7-234.2 583-133.8 143.5-150.6 341.1-235.9 506.7-21.2 41.1-10.1 136.7-108.7 90.7-52.8-82.1-123.9-152.9-153.1-249.6-9.4-5.1-18.5-10.7-27.4-16.8l3 1c2.5-79.6-69.1-157.2-6.5-238.5l-4.2.8c123.4 11 127.8-108.3 162.9-171.2 124.6-223.6 10.2-512.4-199.5-542.2-63.2-59.1-144.8-59.9-223.3-70.5-92.4-88-398-87.7-523.9.5-26.8 2.8-53.6 5.5-80.3 8.3-132.4-37.5-79.5 72.4-80 114.8-4.9 409.9-3.2 819.9-2.6 1229.8.1 47.9-10.9 100.1 36.9 135.6 101.2 35.3 202 42.1 302.1-3.8 84 25.7 56.3-40.4 57.3-74.6 4.7-162 6-324.2 8.4-486.3 68.8-23.4 112.5 7.7 147.7 64.4 101.3 163.3 204 325.6 306.2 488.3 216.7 64.5 433.7 57.7 651.1 3.6 2.1-82.9 83.2-140.3 73.1-227.2 9.4-12.4 18.8-24.8 28.2-37.2 0 0-2.4-.5-2.4-.5 59.4.6 119-1.3 178.3 2.2 125.5 7.3 260.2-35 368.9 66 27.9 60.4 46.3 128 85.6 179.8 79.4 104.5 202.4 57.4 290.7 35.4 85.4-21.3 15.6-109.6-2.4-168.1 21.3-127.8-52.3-231.4-95.7-339.5-89.7-224-145.6-463.9-293.2-662.5-34.7-82.9-69.4-165.8-104.1-248.7 7.4-54.6 11.9-119.3-55.9-127.7-80.6-10-179.2-58.1-234.6 54.5zm-3453.4-29.2c-43.5 22.3-35.1 63.6-35.1 100.5-.4 430.9-.4 861.9-.1 1292.8 0 43.2-5.1 88.6 36.4 119.4 95.4 45.2 195.3 18.7 293.6 18.5 76.2-1.4 63.4-58.2 66.3-105.8 8.4-140.7-58.6-320.2 27.8-412.4 95.1-101.4 279.5-32.5 424.2-33.4 157.3-1 137-101.5 139.8-200.4 3-106.6 1.9-200.7-148.6-190.7-108.8 7.2-218.6-1.9-327.7 2.2-83.3 3.1-115.9-27.6-117.6-113.5-1.8-92.9 31.6-129.6 123.8-122.4 65.2 5 131.1.9 196.6.9 326.8 0 326.8 0 302.4-328.8-24.8-40.9-66-31.1-102.4-31-293.1.8-586.3 2.6-879.4 4.1zm6693 19.2c-229.2-52.4-461.5-15.6-692.3-21-93.1-2.2-193.8-36.6-281.9 27.9-38.8 25.3-33.4 65.5-33.4 103-.3 425.3-.3 850.6 0 1275.9 0 37.5-5 77.6 33.9 102.8 12.7 9.1 25.3 26.2 38.1 26.3 306.5 2.4 613 3.3 919.5 3.5 28.6 0 35.3-17.9 22.7-42.9-.1-79.2-.2-158.5-.3-237.7 61-85.9-13-76.1-58.1-77-141.4-2.7-282.9-4.4-424.2-.2-86 2.6-113.7-33.6-113.1-116.1.5-80.8 25.3-120.9 112.4-118 119.5 4.1 239.4-1.3 359 1.6 59.4 1.4 81.1-17.6 58.8-75.4-.1-70.8-.2-141.7-.2-212.5 49.3-99.7-34.3-71.6-75.4-74.2-169.8-10.5-342 20.7-509.5-30.1-.2-65.1-.4-130.2-.6-195.3 108.5-1.4 217-3.8 325.5-4 333.8-.4 333.8-.1 319.1-336.6z" fill="#0462a9"/><path d="m4655.2 1226.2c-214.4 16.4-214.4 16.4-214.6-199.4-.1-169 10.3-338.8-3-506.7-12.7-159.7 28.4-218.1 202.6-213.5 157.3 4.2 207.7 50.4 175.6 197.6-18.7 2.4-37.4 4.9-56.1 7.4-54.1-1.5-131.3-41.6-127.3 63.9 8.2 216.8-26.2 435.2 22.8 650.7z" fill="#0a0c0e"/><path d="m4742.6 1194.6c37.1-226.9 7.2-455.5 17-683.1 18.7-2.5 37.5-4.9 56.1-7.4 4 210.3 6.2 420.7 13.2 630.9 2.5 73.6-27.9 82.7-86.3 59.6z" fill="#2e4250"/><path d="m7124.4 588.3c0-16.3 0-32.6 0-48.9.1-214.7 104.2-289.2 307.9-224 85.2 27.3 61.6 97.7 54.7 148.7-9.5 70.7 57.9 180.5-60.2 204.3-83.3 16.8-130.4 35.7-127.8 127.4 2 68.7-48.1 73.4-101.2 72.8-58.4-.7-73.1-35.3-72.9-84.8.3-65.2.1-130.3.1-195.5-.3 0-.4 0-.6 0zm250.7 47.2c43.9 5.5 62.8-19.6 66.6-65.1 4.1-49.3-17.5-67.9-65.1-67.7-45 .1-69.9 13.2-69.6 64.3.2 46.1 13 73 68.1 68.5z" fill="#0a0c0e"/><path d="m1581.7 7904.3c11.2-2.8 22.3-5.7 33.5-8.5 6 39.3 24.4 82.2-29.8 104.3-1.2-31.9-2.5-63.9-3.7-95.8z" fill="#2e4250"/><path d="m1756.3 6872.2c-2.5-16.6-5-33.2-7.5-49.7 9.4-4.1 19.2-5.7 29.4-4.9-7.3 18.2-14.6 36.4-21.9 54.6z" fill="#2e4250"/><path d="m9692.7 4286.6c-92.2 60.3-191 20-287.2 18.9 92.7-52 192-4.3 287.2-18.9z" fill="#2e4250"/><path d="m8732.5 8309.9c29.1 96.6 100.2 167.5 153.1 249.6 29.1 40.3 64.8 147.2 110.8 43.3 91.8-207.1 191.5-414.4 233.8-640.8 78.1-194.3 156.1-388.7 234.2-583 33-26.5 42.9-60.8 34.3-101.4 0 0-1.7 2-1.7 2 99.2 14.8 219.8-55.1 290.5 73.2 34.7 82.9 69.4 165.8 104.1 248.7 100.1 345.5 228.6 679.9 388.8 1002 18 58.5 87.8 146.7 2.4 168.1-88.3 22.1-211.4 69.1-290.7-35.4-39.3-51.7-57.7-119.3-85.6-179.8-5.6-91.4-48.2-133.5-145.3-126.7-101.9 7.2-204.7 1.1-307.2 2-41.7.4-90.9-8.7-94.8 56.5 0 0 2.4.5 2.4.5-26.2-.4-31.2 15.4-28.2 37.2 10.2 86.8-70.9 144.3-73.1 227.2-217-1.2-434-2.4-651.1-3.6-102.2-162.7-205-325-306.2-488.3-35.2-56.7-78.8-87.9-147.7-64.4-90-13.5-59.2 56.5-60.3 94.9-4.7 155.2-4 310.7-5.4 466-100.1 45.9-200.9 39.1-302.1 3.7 2-437.6 3.7-875.2 6.4-1312.7.4-58.2-16.7-121.7 39.3-167.4 26.8-2.8 53.6-5.5 80.4-8.3 174.6-.2 349.2-.3 523.8-.5 78.5 10.6 160.1 11.4 223.4 70.5 142.7 100.1 204.2 235 178.4 409.2-17.1 115.9-81.6 208.8-141.8 304.2 0 0 4.2-.8 4.2-.7-121.4 24.6-214 58.5-60.1 177.1 23.8 18.3 27.3 59.1 66.5 61.3 0 0-3-1-3-1 7.40000000001 8.1 16.60000000001 13.7 27.50000000001 16.8zm929.5-414.1c-7.5-42.8 34.6-110.6-29.4-123-68.6-13.3-50.1 66.1-67.3 104.1-27.9 61.7-45.8 127.9-67.9 192.2-16.5 76.3 6.9 150 88.8 124.6 56.4-17.5 177.4 12.2 165.8-69.5-10.2-72.1-11.4-172.6-90-228.4zm-1569.5-147.8c26.2 73-68.2 215 124.4 209.2 202.7-6.1 312.1-81.4 307.5-233.5-4-132.1-95.6-182.1-284.4-196.5-191.9-14.5-139.1 114.2-147.5 220.8z" fill="#fbfbfb"/><path d="m4759.8 7336.1c321.5-177.8 762.9-99.9 926.9 163.6 193.3 351.7 172.9 702.9-2 1053.8-171 212.5-403.1 271.9-661.9 264.2-48.9-92-146.9-72.9-224.8-99.3 0 0 .9.6.9.6-19.3-42.5-54.2-61.8-99-66.1 0 0 .9 1 .9 1 1.6-24.4-11.2-34.3-34.3-33.7 0 0 1.2 1.2 1.2 1.2.2-22.8-10-35.3-33.9-34.1 0 0 1.2 1 1.2 1 .6-45.6-33.2-61.7-66.8-78-102.6-161.8-96.5-343.6-97-524.3-.2-81.2-1.1-162.4-1.6-243.6 69.8-49.6 77.8-129.6 99.8-202.6 0 0-.9.9-.9.9 63.7-68.2 127.5-136.4 191.3-204.6zm630.6 1058.1-.5.6c79.9-58.8 92.5-143.8 91.4-234.2 2.7-81.5 12.3-163.5 6.8-244.5-21.6-318.1-238.3-442.8-532.5-310-47.4-8.8-67.4 26-88.4 57.2-110 163.4-103.7 554.7 11.2 717.3 110.1 155.9 315.6 175.9 478.8 46.7l-.6.7c23.2.8 34.5-10.5 33.8-33.8z" fill="#fbfbfb"/><path d="m11428.8 7565.8c-108.7-2.7-217.4-5.2-326.2-8.1-168.4-4.4-312.3 42.6-378.5 211.9-79.7 203.8-98.9 405.3 59.5 588.8 113.6 131.6 251.4 173.2 417.6 128.4 185.3-43.9 107.3-157.5 69-260.5 0 0 .8.9.8.9-61.3-73-149.7-45.1-225.7-55.7-69.2-9.6-93-36.7-91-104.1 2-65.9 35.5-82.1 93.3-81.5 136.2 1.6 272.5 1.4 408.7 0 57.2-.6 95.2 14.2 92.4 81.1-8.5 205.8 22.3 412.9-21.3 617.5 0 0-.7-4.3-.7-4.3-64 .9-116.2 28.3-161.5 71.5 0 0 1.2-.6 1.2-.6-188 43.4-380.3 10.1-569.5 32.4-185-95-345.4-214-413.2-423.3-64.4-311.3-61.2-612.6 131.9-885.6 0 0-1.1.8-1.1.8 24.1 1.4 35.3-10.1 34-34.1 0 0-1.2 1.2-1.2 1.2 24 1.5 36.9-8.3 34.2-33.8 0 0-.5 1.7-.5 1.7 45.2-4.1 78.8-25.4 98.4-67.1 0 0-1 .7-1 .7 32.2 1.9 62.9 1.6 63.8-43 134.8-89.4 288.7-32.9 432.1-56.5 288.7 72.3 288.7 72.3 254.5 321.3z" fill="#fbfbfb"/><path d="m12679.1 7907.7c.1 70.8.2 141.7.2 212.5-155.2 37.9-313.4 20.6-469.3 15.1-162.9-5.8-116.1 103.5-119.3 185.6-3.2 83.2-27.1 173 120 168.7 177.4-5.1 357.2-26.8 533.8 15.6.1 79.2.2 158.5.2 237.7-315.8 3.1-631.5 6.1-947.3 9.1-10.7-490.8-15.3-981.6 2.4-1472.3 304-.7 608-1.5 912.1-2.2 53.9 260.8 45.7 271.8-204.1 271.9-108.2.1-216.5-1.3-324.6.8-39.3.8-93.8-13.8-89.8 57.8.2 65.1.4 130.2.6 195.2-8.2 103.7 70.6 70.9 122.3 76.1 154 15.6 311.5-29.6 462.8 28.4z" fill="#fbfbfb"/><path d="m6340 8779.6c-98.3.2-198.2 26.6-293.6-18.6.5-490.9.9-981.7 1.4-1472.4 314.2-2.5 628.4-4.9 942.7-7.4 10 268.5 10 268.5-259.5 268.5-49.1 0-98.2 0-147.3 0-264.1 0-260.8-.2-245.4 259.2 4.2 71 25.8 96.6 95.3 95.1 136.3-2.9 273 4.1 409.1-1.9 115.9-5.1 97 71.5 100.3 141.2 3.4 73.2-2.5 128.1-101.2 121.6-108.6-7.2-218.7 5.7-327.1-3.5-124.6-10.6-177.2 25.1-168.1 160.8 10.3 151.5-3.3 304.8-6.6 457.4z" fill="#fbfbfb"/><path d="m6340 8779.6c3.3-152.6 16.9-305.9 6.7-457.5-9.1-135.7 43.4-171.3 168.1-160.8 108.3 9.2 218.4-3.7 327.1 3.5 98.8 6.5 104.7-48.4 101.2-121.6-3.3-69.7 15.6-146.3-100.3-141.2-136.1 6-272.8-.9-409.1 1.9-69.6 1.5-91.1-24.1-95.3-95.1-15.5-259.4-18.7-259.2 245.4-259.2h147.3c269.5 0 269.5 0 259.5-268.5 12.2-1.9 24.4-3.9 36.6-5.8 24.4 328.8 24.4 328.8-302.4 328.8-65.6 0-131.4 4.1-196.6-.9-92.2-7.1-125.6 29.5-123.8 122.4 1.6 85.9 34.3 116.6 117.6 113.5 109.1-4.1 218.9 5 327.7-2.2 150.5-10 151.6 84.1 148.6 190.7-2.8 99 17.4 199.4-139.8 200.4-144.6.9-329.1-68-424.2 33.4-86.4 92.2-19.4 271.7-27.8 412.4-3.1 47.6 9.7 104.4-66.5 105.8z" fill="#2e4250"/><path d="m11527.6 8684.5c43.5-204.6 12.7-411.7 21.3-617.5 2.8-67-35.2-81.7-92.4-81.1-136.2 1.4-272.5 1.6-408.7 0-57.8-.7-91.3 15.6-93.3 81.5-2.1 67.5 21.7 94.5 91 104.1 76.1 10.6 164.4-17.2 225.7 55.7-43.5.9-87.1 3.3-130.6 2.5-227.8-4.2-248.5-32.5-206-253.2 9.7-50.5 39.9-42.8 69.2-43 169-.9 338-.2 507.1.2 50.4.1 85.5 20.7 85.7 75.7.5 207.1.4 414.2-1.7 621.3-.7 39-29.3 55.2-67.3 53.8z" fill="#2e4250"/><path d="m12744.6 8505.3c-176.7-42.4-356.5-20.8-533.9-15.6-147.1 4.2-123.2-85.5-120-168.7 3.2-82.1-43.6-191.4 119.3-185.6 155.8 5.5 314 22.8 469.3-15.1 22.3 57.9.6 76.8-58.8 75.4-119.6-2.8-239.4 2.5-359-1.6-87-3-111.9 37.1-112.4 118-.5 82.4 27.1 118.6 113.1 116.1 141.3-4.2 282.9-2.5 424.2.2 45.3.8 119.3-9 58.2 76.9z" fill="#2e4250"/><path d="m11800 7279.8c-17.7 490.7-13.1 981.5-2.4 1472.3-11 1.3-22 2.7-33 4-38.8-25.2-33.8-65.3-33.9-102.8-.3-425.3-.3-850.6 0-1275.9 0-37.5-5.3-77.6 33.4-103 12 1.9 23.9 3.6 35.9 5.4z" fill="#2e4250"/><path d="m10280.4 8603.4c-160.2-322.1-288.7-656.5-388.8-1002 147.6 198.5 203.5 438.4 293.2 662.4 43.3 108.2 116.9 211.8 95.6 339.6z" fill="#2e4250"/><path d="m10515.7 7474.7c-193.2 273-196.3 574.2-131.9 885.6-32.8-9.6-56.1-24.5-65.6-62.9-65.3-264.6-44.9-517.4 97.5-754.8 22.7-38.1 46.2-75.4 100-67.9z" fill="#2e4250"/><path d="m5684.7 8553.5c174.9-350.9 195.3-702.1 2-1053.8 96.4 15 116.6 97 130.4 168.9 46.6 242.2 57.9 486.9-9.9 726.9-17.5 62.3-32.7 143.9-122.5 158z" fill="#2e4250"/><path d="m8697.5 8056.3c60.2-95.3 124.7-188.3 141.8-304.2 25.8-174.1-35.7-309.1-178.4-409.2 209.7 29.8 324.1 318.6 199.5 542.1-35.1 63-39.5 182.3-162.9 171.3z" fill="#2e4250"/><path d="m12093.6 7608.2c-4.1-71.6 50.5-57 89.8-57.8 108.2-2.1 216.4-.8 324.6-.8 249.7-.1 258-11.1 204.1-271.9 7.4-6.7 16.2-10.1 26.2-10.1 14.7 336.5 14.7 336.2-319.2 336.7-108.5.1-217 2.5-325.5 3.9z" fill="#2e4250"/><path d="m7833.3 7281.2c-56.1 45.6-38.9 109.2-39.3 167.4-2.7 437.6-4.4 875.1-6.4 1312.7-47.8-35.4-36.8-87.7-36.9-135.5-.6-409.9-2.3-819.9 2.6-1229.8.5-42.4-52.4-152.4 80-114.8z" fill="#2e4250"/><path d="m6047.8 7288.5c-.5 490.8-.9 981.6-1.4 1472.4-41.5-30.8-36.4-76.1-36.4-119.3-.2-430.9-.3-861.9.1-1292.8 0-36.9-8.4-78.2 35.2-100.5.9 13.4 1.7 26.8 2.5 40.2z" fill="#2e4250"/><path d="m9230.2 7962c-42.3 226.4-142 433.7-233.8 640.8-46.1 103.9-81.7-3-110.8-43.3 98.6 45.9 87.5-49.7 108.7-90.8 85.3-165.7 102.1-363.3 235.9-506.7z" fill="#2e4250"/><path d="m8089.7 8757.5c1.3-155.3.7-310.8 5.4-466 1.2-38.4-29.7-108.4 60.3-94.9-2.4 162.1-3.7 324.3-8.4 486.3-1 34.2 26.7 100.3-57.3 74.6z" fill="#2e4250"/><path d="m9359.3 8488.1c3.9-65.2 53-56.2 94.8-56.5 102.4-.9 205.2 5.2 307.2-2 97.1-6.8 139.7 35.3 145.3 126.7-108.7-101-243.5-58.7-368.9-66-59.4-3.5-119-1.6-178.4-2.2z" fill="#2e4250"/><path d="m11428.8 7565.8c34.2-249 34.2-249-254.4-321 68.2 10.3 130.9-38.4 204.1-9.1 56.5 22.6 147.9 2.2 147.6 88.7-.3 86.9 18.5 195.4-97.3 241.4z" fill="#2e4250"/><path d="m11764.6 8756.2c11-1.3 22-2.7 33-4 315.7-3 631.5-6.1 947.2-9.1 12.7 25 5.9 42.9-22.7 42.9-306.5-.2-613-1.1-919.5-3.5-12.6-.2-25.3-17.2-38-26.3z" fill="#0a0c0e"/><path d="m8437.5 7272.4c-174.6.2-349.2.3-523.8.5 125.8-88.2 431.4-88.4 523.8-.5z" fill="#2e4250"/><path d="m12738.3 7267.5c-10 0-18.8 3.4-26.2 10.1-304 .7-608 1.5-912.1 2.2-12-1.8-23.9-3.5-35.9-5.3 88.1-64.5 188.8-30.1 281.9-28 230.8 5.5 463.1-31.4 692.3 21z" fill="#0a0c0e"/><path d="m6047.8 7288.5c-.8-13.4-1.6-26.8-2.5-40.2 293.1-1.5 586.2-3.4 879.4-4.1 36.4-.1 77.6-9.8 102.4 31-12.2 2-24.4 3.9-36.6 5.8-314.2 2.6-628.5 5-942.7 7.5z" fill="#0a0c0e"/><path d="m12679.1 7907.7c-151.3-58-308.8-12.8-462.6-28.2-51.7-5.2-130.5 27.6-122.3-76.1 167.5 50.8 339.7 19.6 509.5 30.1 41.1 2.6 124.7-25.5 75.4 74.2z" fill="#2e4250"/><path d="m10797 8783.5c189.2-22.3 381.5 11 569.5-32.4-183.2 126.8-376.4 78.5-569.5 32.4z" fill="#2e4250"/><path d="m8609.3 8749.4c217 1.2 434.1 2.4 651.1 3.6-217.3 54-434.4 60.9-651.1-3.6z" fill="#0a0c0e"/><path d="m8708.1 8294c-39.2-2.2-42.8-43-66.5-61.3-153.9-118.6-61.3-152.5 60.1-177.1-62.6 81.2 8.9 158.8 6.4 238.4z" fill="#2e4250"/><path d="m9787.5 7352.7c-70.6-128.3-191.2-58.4-290.5-73.2 55.4-112.7 154-64.5 234.6-54.5 67.7 8.4 63.3 73.1 55.9 127.7z" fill="#2e4250"/><path d="m4759.8 7336.1c-63.8 68.2-127.7 136.4-191.5 204.6 1-127 76.4-184.4 191.5-204.6z" fill="#2e4250"/><path d="m4797.9 8718.4c77.9 26.4 176 7.3 224.8 99.3-82-16.9-177.8-2.8-224.8-99.3z" fill="#2e4250"/><path d="m11270.3 8226.3c38.3 103.1 116.3 216.7-69 260.5 80.8-71.5 59.6-170 69-260.5z" fill="#2e4250"/><path d="m4569.3 7539.9c-22 73.1-30 153.1-99.8 202.6 9.7-79.1-6.4-171 99.8-202.6z" fill="#2e4250"/><path d="m11365.3 8751.7c45.3-43.2 97.5-70.6 161.5-71.5-27.1 84.1-92.8 81.3-161.5 71.5z" fill="#2e4250"/><path d="m10679.6 7343.6c-19.6 41.7-53.2 62.9-98.4 67.1.2-70.2 44.9-75.2 98.4-67.1z" fill="#2e4250"/><path d="m4699.9 8652.9c44.9 4.3 79.7 23.6 99 66.1-53.5 8.6-98.1 4-99-66.1z" fill="#2e4250"/><path d="m4568.1 8510.4c33.6 16.3 67.4 32.4 66.8 78-55.4 2.4-68.5-31.5-66.8-78z" fill="#2e4250"/><path d="m9498.7 7277.5c8.6 40.6-1.4 74.9-34.3 101.4 2.2-36.9-24.5-83.6 34.3-101.4z" fill="#2e4250"/><path d="m10742.3 7301.2c-.9 44.6-31.6 44.9-63.8 43 3.8-40.4 38.5-34.7 63.8-43z" fill="#2e4250"/><path d="m10548.6 7441.5c1.3 24-10 35.4-34 34.1-.2-22.9 11.2-34.3 34-34.1z" fill="#2e4250"/><path d="m10581.7 7408.9c2.6 25.5-10.2 35.2-34.2 33.8-.5-23.3 11.4-34.1 34.2-33.8z" fill="#2e4250"/><path d="m9333.5 8525.8c-3-21.8 2-37.6 28.2-37.2-9.4 12.4-18.8 24.8-28.2 37.2z" fill="#2e4250"/><path d="m4633.7 8587.4c23.9-1.2 34.1 11.2 33.9 34.1-22.9.3-34.2-11.2-33.9-34.1z" fill="#2e4250"/><path d="m4666.5 8620.3c23.1-.7 35.8 9.2 34.3 33.7-23 .5-34.7-10.4-34.3-33.7z" fill="#2e4250"/><path d="m8732.5 8309.9c-10.9-3.1-20-8.7-27.4-16.8 8.9 6 18 11.6 27.4 16.8z" fill="#2e4250"/><path d="m8092.5 7748c8.4-106.6-44.4-235.3 147.5-220.7 188.9 14.3 280.5 64.3 284.4 196.5 4.6 152.1-104.8 227.4-307.5 233.5-192.6 5.7-98.1-136.3-124.4-209.3zm57.9 1.2c9.8 50.1-43.2 160.5 99.3 150.1 107.3-7.8 218-30.7 220.6-163.9 2.5-127-104.8-147-205.1-160.4-129.8-17.3-121.3 70.3-114.8 174.2z" fill="#2e4250"/><path d="m9662 7895.8c78.6 55.8 79.8 156.3 90 228.4 11.6 81.7-109.4 52-165.8 69.5-81.9 25.4-105.3-48.3-88.8-124.6 111.3-4.2 57.5-165.2 164.6-173.3z" fill="#0462a9"/><path d="m9662 7895.8c-107.1 8.1-53.3 169.1-164.6 173.2 22.1-64.2 40-130.5 67.9-192.1 17.2-38-1.3-117.4 67.3-104.1 64 12.5 21.9 80.3 29.4 123z" fill="#2e4250"/><path d="m4955.6 7606.1c294.1-132.8 510.9-8.1 532.5 310 5.5 81-4.1 163-6.8 244.5-73.8 61.2-87 145.9-91.4 234.1 0 0 .5-.6.5-.6-24.1-1.6-35.5 9.7-33.9 33.9 0 0 .6-.7.6-.7-21.4.6-43.7-2.6-63.9 2.5-276.5 69.3-421.5-41.1-436.3-326-9.1-175.3 4.1-343.9 98.7-497.7z" fill="#0462a9"/><path d="m4955.6 7606.1c-94.6 153.7-107.8 322.3-98.6 497.8 14.8 284.9 159.8 395.3 436.3 326 20.3-5.1 42.6-1.9 63.9-2.5-163.2 129.2-368.8 109.1-478.8-46.7-114.8-162.6-121.2-553.9-11.2-717.3 21-31.2 41-66 88.4-57.3z" fill="#2e4250"/><path d="m5389.9 8394.8c4.4-88.2 17.6-173 91.4-234.1 1.1 90.4-11.5 175.4-91.4 234.1z" fill="#2e4250"/><path d="m5356.6 8428.1c-1.6-24.2 9.7-35.4 33.9-33.9.6 23.3-10.7 34.6-33.9 33.9z" fill="#2e4250"/><path d="m8150.4 7749.2c-6.6-103.9-15-191.5 114.8-174.2 100.3 13.4 207.6 33.4 205.1 160.4-2.6 133.2-113.3 156.1-220.6 163.9-142.4 10.4-89.4-100-99.3-150.1z" fill="#0462a9"/></svg>