<svg enable-background="new 0 0 566.924 121.752" height="121.752" viewBox="0 0 566.924 121.752" width="566.924" xmlns="http://www.w3.org/2000/svg" xmlns:xlink="http://www.w3.org/1999/xlink"><linearGradient id="a"><stop offset="0" stop-color="#b2b2b4"/><stop offset=".3516" stop-color="#b2b2b4"/><stop offset=".3571" stop-color="#9ba29a"/><stop offset=".6758" stop-color="#9ba29a"/><stop offset=".6813" stop-color="#717274"/><stop offset="1" stop-color="#717274"/></linearGradient><linearGradient id="b" gradientUnits="userSpaceOnUse" x1="146.8289" x2="146.8289" xlink:href="#a" y1="2.5586" y2="118.2725"/><linearGradient id="c" gradientUnits="userSpaceOnUse" x1="427.1633" x2="427.1633" xlink:href="#a" y1="2.5586" y2="118.2725"/><linearGradient id="d" gradientUnits="userSpaceOnUse" x1="268.6296" x2="268.6296" xlink:href="#a" y1="2.5586" y2="118.2725"/><linearGradient id="e" gradientUnits="userSpaceOnUse" x1="347.8967" x2="347.8967" xlink:href="#a" y1="2.5591" y2="118.2728"/><path d="m146.829 3.073c-38.667 0-61.867 30.933-61.867 58s19.333 58 61.867 58c34.8 0 61.867-30.933 61.867-58s-23.2-58-61.867-58zm0 96.666c-19.333 0-30.933-11.599-30.933-38.666s11.6-38.667 30.933-38.667 30.934 11.601 30.934 38.667c-.001 27.068-11.601 38.666-30.934 38.666z" fill="url(#b)"/><path d="m444.564 119.073c-42.534 0-69.601-23.2-69.601-58s23.2-58 61.866-58c19.334 0 34.801 11.599 42.534 23.2-3.866 7.733-19.333 19.334-19.333 19.334-3.867 0-7.734-3.868-7.734-3.868 0-7.733 3.867-19.333-15.467-19.333-19.332 0-30.934 7.733-30.934 38.667 0 23.2 19.334 38.666 38.668 38.666h11.6c3.867-3.866 7.733-7.733 7.733-11.599h7.733v30.933c.001 0-11.598 0-27.065 0z" fill="url(#c)"/><path d="m313.096 107.473c-3.866-3.866-23.2-38.666-27.066-42.533 11.601 0 27.066-11.6 27.066-30.933 0-19.334-15.466-30.933-30.933-30.933s-46.401 0-65.734 0v7.733c7.733 0 7.733 11.599 7.733 11.599s0 77.333 0 81.201c0 3.866-3.867 7.733-7.733 7.733v7.733h41.083s0-2.416 0-7.733c-5.317 0-6.283-3.867-6.283-7.733 0-3.867 0-27.066 0-34.8 3.866 0 7.733 0 11.6 3.866 3.867 3.867 11.6 27.066 15.466 34.8 3.868 7.733 7.734 11.601 11.6 11.601h23.2s7.733-7.733 7.733-7.733-3.866-.001-7.732-3.868zm-46.4-54.133c-7.733 0-15.466 0-15.466 0 0-15.466 0-30.934 0-30.934s7.733 0 15.466 0 15.467 3.867 15.467 15.468c0 11.599-7.734 15.466-15.467 15.466z" fill="url(#d)"/><path d="m363.363 103.606c0 3.867 3.867 7.733 7.734 7.733v7.733h-46.4v-7.733c3.867 0 7.733-3.866 7.733-7.733v-85.066c0-3.867-3.866-7.733-7.733-7.733v-7.734h46.4v7.733c-3.867 0-7.734 3.866-7.734 7.733z" fill="url(#e)"/></svg>