<?xml version="1.0" encoding="UTF-8" standalone="no"?>
<!DOCTYPE svg PUBLIC "-//W3C//DTD SVG 1.1//EN" "http://www.w3.org/Graphics/SVG/1.1/DTD/svg11.dtd">
<svg width="100%" height="100%" viewBox="0 0 567 275" version="1.1" xmlns="http://www.w3.org/2000/svg" xmlns:xlink="http://www.w3.org/1999/xlink" xml:space="preserve" xmlns:serif="http://www.serif.com/" style="fill-rule:evenodd;clip-rule:evenodd;stroke-linejoin:round;stroke-miterlimit:2;">
    <g transform="matrix(0.874005,0,0,0.874005,35.8836,22.282)">
        <g>
            <path d="M57.9,201.665C57.51,201.665 57.113,201.577 56.739,201.394C18.76,182.96 -0.85,161.473 0.028,139.247C0.742,120.951 15.673,103.677 43.205,89.288C69.328,75.638 106.174,64.806 149.762,57.958C151.216,57.731 152.577,58.724 152.805,60.176C153.034,61.628 152.041,62.989 150.588,63.219C62.295,77.085 6.644,106.298 5.35,139.458C4.573,159.119 23.649,179.415 59.065,196.604C60.388,197.249 60.94,198.835 60.298,200.165C59.836,201.111 58.888,201.665 57.9,201.665Z" style="fill:rgb(198,23,23);fill-rule:nonzero;"/>
        </g>
        <g>
            <path d="M388.979,65.167C388.834,65.167 388.69,65.156 388.543,65.132C360.486,60.526 330.873,57.451 300.521,55.999C299.049,55.93 297.917,54.682 297.988,53.212C298.058,51.744 299.329,50.623 300.775,50.681C331.333,52.144 361.154,55.238 389.411,59.877C390.858,60.115 391.845,61.484 391.604,62.937C391.388,64.242 390.261,65.167 388.979,65.167Z" style="fill:rgb(198,23,23);fill-rule:nonzero;"/>
        </g>
        <g>
            <path d="M305.16,247.033C304.414,247.033 303.674,247.033 302.928,247.03C301.457,247.027 300.273,245.832 300.277,244.359C300.282,242.892 301.467,241.707 302.935,241.707L302.948,241.707C303.678,241.709 304.427,241.709 305.163,241.709C447.667,241.711 560.116,204.669 561.599,157.063C562.12,140.405 548.738,123.502 522.89,108.19C497.156,92.939 460.271,79.94 416.23,70.601C414.792,70.295 413.875,68.881 414.177,67.444C414.48,66.005 415.898,65.09 417.335,65.392C461.935,74.851 499.374,88.066 525.605,103.609C553.22,119.973 567.507,138.516 566.921,157.229C566.134,182.545 538.167,205.625 488.173,222.204C439.834,238.23 374.916,247.033 305.16,247.033Z" style="fill:rgb(198,23,23);fill-rule:nonzero;"/>
        </g>
        <path d="M353.382,108.404L423.681,54.818L341.114,87.776L317.91,63.624L325.308,97.091L255.009,150.675L337.58,117.708L360.78,141.861L353.382,108.404Z" style="fill:rgb(198,23,23);fill-rule:nonzero;"/>
        <g>
            <path d="M265.343,175.296C266.351,170.335 268.189,171.057 273.22,170.257L277.903,169.52L276.445,177.329L271.762,178.077C266.731,178.874 264.516,180.22 265.343,175.296ZM255.19,168.148L251.545,187.753C250.547,193.107 252.165,194.831 257.317,194.017L287.148,189.285L293.543,154.898L263.71,159.624C258.555,160.441 256.179,162.796 255.19,168.148ZM444.558,137.198L444.21,139.094L474.981,134.209C477.41,133.819 479.777,131.364 480.272,128.709C480.757,126.056 479.197,124.217 476.765,124.605L468.863,125.853L456.254,127.86L453.059,128.36C449.363,128.951 445.308,133.165 444.558,137.198ZM228.671,225.867L228.921,224.5C229.979,224.58 231.397,224.989 232.635,224.805L264.615,219.788C263.427,226.168 255,227.767 242.14,229.805L227.503,232.13L219.655,274.332L238.884,271.285C286.229,266.611 304.241,242.142 310.023,212.972L367.711,203.816L377.006,153.795L381.698,153.045C386.84,152.23 386.082,151.299 385.094,156.642L376.586,202.412L418.002,195.84L418.569,192.807C421.695,194.186 425.347,194.672 429.215,194.065L500.84,182.705L507.52,146.752L502.877,143.446C506.9,138.682 510.035,132.853 510.943,127.961L512.072,122.291C515.644,101.084 496.093,95.453 487.172,96.871L446.068,103.392C438.789,104.548 430.773,109.621 424.941,116.341C419.546,110.999 411.22,108.923 406.378,109.692L360.618,116.951L365.741,128.273L407.011,121.733C412.962,120.785 416.939,123.161 418.03,127.873C417.592,129.121 407.011,185.452 407.011,185.452L392.214,187.801L400.148,145.155C401.13,139.815 399.515,138.088 394.377,138.905L366.021,143.409L356.717,193.43L340.451,196.019L351.096,138.748L337.705,122.952L289.502,140.377L312.348,136.752L312.717,136.701L298.19,214.856C294.499,234.71 273.313,253.696 254.522,256.679L235.293,259.727L238.209,244.085L252.836,241.772C265.695,239.725 280.172,226.856 282.669,213.397L284.247,204.929L246.157,210.97C237.99,212.268 233.557,207.307 235.164,198.679L241.994,161.938C243.202,155.409 247.276,149.987 252.727,147.169L252.817,146.19L271.926,131.483L260.763,133.36C254.824,134.298 243.81,138.752 236.812,147.677C231.52,141.364 222.265,138.891 217.053,139.718L175.998,146.239L182.688,110.277L212.641,105.525C228.585,102.999 246.227,85.067 249.362,68.224L253.865,43.992C257,27.138 245.149,13.888 229.204,16.416L163.747,26.8L149.799,101.841L89.524,111.406C84.422,112.216 79.46,117.247 78.462,122.637L55.935,243.79C54.936,249.184 58.261,252.902 63.364,252.1L178.372,233.848L187.677,183.827L192.359,183.079C197.511,182.269 196.752,181.344 195.754,186.683L187.248,232.439L228.671,225.867ZM143.328,198.441L104.869,204.542L106.317,196.734L137.378,191.796L144.936,151.15L113.875,156.086L115.322,148.272L153.781,142.168L143.328,198.441ZM141.001,210.951L137.806,228.142L69.764,238.937L90.971,124.816L147.182,115.9L144.276,131.535L104.339,137.877L98.239,170.705L130.778,165.543L127.873,181.17L95.334,186.332L89.224,219.168L141.001,210.951ZM219.157,215.247L202.883,217.818L210.81,175.185C211.809,169.841 210.191,168.107 205.039,168.923L176.684,173.427L167.39,223.448L151.115,226.034L163.316,160.382L163.695,160.319L217.679,151.756C225.846,150.457 230.279,155.408 228.672,164.045L219.157,215.247ZM324.918,134.741L340.823,132.225L328.612,197.877L312.345,200.455L324.544,134.809L324.918,134.741ZM423.604,165.684L429.251,135.312C431.042,125.708 441.364,116.272 450.159,114.874L488.208,108.845C494.62,107.824 499.073,114.985 497.765,121.992L495.9,131.766C494.589,138.775 487.431,146.224 481.025,147.242L441.527,153.513L440.959,157.058C440.209,161.088 442.885,164.238 446.58,163.648L490.727,156.619L487.751,172.639L437.95,180.535C429.154,181.927 421.826,175.296 423.604,165.684ZM188.206,80.568L193.728,50.865L214.435,47.58C217.151,47.15 218.539,48.699 217.999,51.563L214.225,71.892C213.685,74.767 211.629,76.853 208.913,77.283L188.206,80.568Z" style="fill:rgb(198,23,23);fill-rule:nonzero;"/>
            <g>
                <path d="M320.565,94.466L316.169,77.054L313.69,77.353L312.893,81.646C312.341,84.623 309.95,87.046 307.14,87.498L290.125,90.193C287.317,90.642 285.711,88.845 286.263,85.87L294.838,39.753C295.388,36.788 297.781,34.361 300.586,33.912L317.606,31.217C320.413,30.769 322.018,32.566 321.463,35.53L320.365,41.4L354.761,35.938L356.069,28.909C359.365,11.168 347.302,-2.32 330.507,0.335L297.601,5.558C280.819,8.224 262.848,26.475 259.554,44.216L250.4,93.459C247.105,111.2 259.166,124.688 275.96,122.023L286.96,120.286L320.565,94.466Z" style="fill:rgb(198,23,23);fill-rule:nonzero;"/>
                <path d="M344.946,83.962C345.843,81.546 346.465,80.628 346.925,78.15L348.093,71.89L334.405,74.066L344.946,83.962Z" style="fill:rgb(198,23,23);fill-rule:nonzero;"/>
            </g>
        </g>
    </g>
</svg>
