<svg height="129.104" viewBox="48.598 9.613 354.746 129.104" width="354.746" xmlns="http://www.w3.org/2000/svg" xmlns:xlink="http://www.w3.org/1999/xlink"><linearGradient id="a"><stop offset="0" stop-color="#9b9b9b"/><stop offset="1" stop-color="#5b5c60"/></linearGradient><linearGradient id="b" gradientUnits="userSpaceOnUse" x1="200.2363" x2="200.2363" xlink:href="#a" y1="91.4241" y2="23.4241"/><linearGradient id="c" gradientUnits="userSpaceOnUse" x1="246.4277" x2="246.4277" xlink:href="#a" y1="91.4241" y2="23.4241"/><linearGradient id="d" gradientUnits="userSpaceOnUse" x1="290.7935" x2="290.7935" xlink:href="#a" y1="91.4241" y2="23.4241"/><linearGradient id="e" gradientUnits="userSpaceOnUse" x1="336.7144" x2="336.7144" xlink:href="#a" y1="91.4241" y2="23.4241"/><linearGradient id="f" gradientUnits="userSpaceOnUse" x1="380.4038" x2="380.4038" xlink:href="#a" y1="91.4241" y2="23.4241"/><linearGradient id="g"><stop offset="0" stop-color="#f9da55"/><stop offset="1" stop-color="#e04305"/></linearGradient><linearGradient id="h" gradientUnits="userSpaceOnUse" x1="201.0303" x2="201.0303" xlink:href="#g" y1="132.3713" y2="61.6219"/><linearGradient id="i" gradientUnits="userSpaceOnUse" x1="246.4106" x2="246.4106" xlink:href="#g" y1="132.3713" y2="61.6219"/><linearGradient id="j" gradientUnits="userSpaceOnUse" x1="291.3853" x2="291.3853" xlink:href="#g" y1="132.3713" y2="61.6219"/><linearGradient id="k" gradientUnits="userSpaceOnUse" x1="336.4272" x2="336.4272" xlink:href="#g" y1="132.3713" y2="61.6219"/><linearGradient id="l" gradientUnits="userSpaceOnUse" x1="381.1987" x2="381.1987" xlink:href="#g" y1="132.3713" y2="61.6219"/><path d="m133.433 48.001c.325-.116.875-.312 1.232-.477.358-.166.663-.254.914-.517.252-.263.448-.731.596-1.061.148-.328.044-.682.292-.914.247-.231.729-.268 1.192-.478.464-.209 1.19-.545 1.59-.781s.532-.186.808-.636.647-1.641.848-2.066c.201-.427.099-.266.357-.49.258-.226.808-.537 1.192-.861.384-.325.822-.751 1.113-1.087s.473-.594.636-.928c.163-.333.3-.764.344-1.072.044-.31-.172-.541-.08-.782.093-.24.389-.438.636-.662.247-.226.569-.313.848-.689.278-.375.687-.989.821-1.563s-.126-1.382-.013-1.881.462-.738.689-1.113c.228-.375.49-.722.676-1.14.186-.417.429-.858.438-1.364s-.427-1.201-.385-1.67c.042-.468.435-.813.636-1.139.201-.327.455-.429.569-.821.115-.394.241-.977.12-1.537-.121-.561-.759-1.316-.848-1.828-.088-.513.223-.817.317-1.246.095-.429.285-.814.252-1.324-.033-.511-.162-1.264-.451-1.736-.29-.472-.822-.841-1.285-1.1-.464-.258-.963-.359-1.498-.45-.534-.09-1.181.137-1.708-.093-.528-.229-.899-.956-1.458-1.285s-1.241-.572-1.895-.688c-.653-.117-1.545-.021-2.027-.014s-.572.168-.861.053-.51-.515-.875-.741c-.364-.228-.808-.513-1.312-.623s-1.343-.051-1.709-.04c-.367.011-.232.229-.49.106-.259-.124-.691-.656-1.06-.849-.369-.191-.616-.249-1.153-.305-.537-.055-1.548-.11-2.067-.026s-.744.444-1.047.53c-.302.086-.601.042-.768-.014-.168-.055-.102-.243-.238-.318s-.451-.048-.583-.132c-.133-.084.181-.294-.212-.371-.394-.077-1.44-.27-2.147-.093s-1.625.943-2.093 1.153c-.468.209-.477.156-.715.105s-.298-.352-.715-.411-1.162-.165-1.789.054c-.627.218-1.577 1.044-1.974 1.258-.397.215-.276.052-.411.027-.134-.024-.017-.146-.397-.173s-1.283-.13-1.882.014c-.598.144-1.256.534-1.708.848s-.747.791-1.007 1.034c-.26.242-.137.338-.556.424-.42.086-1.339-.155-1.961.092-.623.248-1.176.857-1.775 1.392s-1.254 1.168-1.815 1.815c-.561.646-1.17 1.46-1.55 2.066-.38.607-.461 1.056-.729 1.576-.267.521-.561.824-.874 1.551s-.755 2.474-1.007 2.809c-.252.336-.261-.212-.504-.795s-.594-1.898-.953-2.703c-.36-.804-.632-1.278-1.206-2.119-.574-.842-1.521-2.126-2.239-2.928s-1.515-1.425-2.066-1.882c-.552-.457-.758-.711-1.246-.861s-1.164.186-1.683-.04c-.519-.225-.967-.944-1.431-1.311s-.675-.716-1.351-.889c-.676-.172-2.087-.1-2.703-.146-.616-.047-.676.009-.994-.133-.318-.141-.55-.545-.914-.715-.364-.171-.859-.257-1.272-.306-.413-.048-.85-.053-1.206.014s-.654.378-.928.385-.439-.208-.715-.345-.698-.385-.941-.478-.364-.013-.517-.079c-.152-.065-.02-.268-.397-.318-.378-.051-1.501-.037-1.868.014-.366.051-.139.221-.332.292-.192.07-.684.046-.821.132s.147.329 0 .384c-.148.056-.572.031-.888-.053s-.389-.396-1.007-.45c-.619-.053-2.025-.07-2.703.133s-1.056.907-1.365 1.086-.115-.002-.49-.013-1.111-.25-1.762-.054c-.651.197-1.683 1.01-2.146 1.232-.464.224-.161.093-.636.106s-1.594-.095-2.212-.026c-.619.068-1.073.254-1.498.438-.424.183-.737.405-1.046.662-.309.256-.36.722-.809.874s-1.27-.06-1.881.04c-.612.099-1.319.289-1.789.556-.47.268-.804.656-1.033 1.048-.229.391-.278.965-.344 1.298s-.08.429-.053.702c.026.273.119.653.212.94s.298.539.344.782.066.424-.066.676c-.132.251-.585.468-.729.834-.144.367-.144.994-.133 1.365s.113.527.199.861c.086.333.155.813.318 1.14.164.326.601.516.662.821.062.305-.263.618-.292 1.007s-.159.646.12 1.324 1.27 2.18 1.55 2.743c.281.563.078.209.133.636.055.426-.117 1.217.198 1.921.316.705 1.341 1.813 1.696 2.306s.375.426.437.649-.166.27-.066.688c.099.42.225 1.259.662 1.829.437.569 1.5 1.24 1.961 1.589.462.35.594.208.808.504s.307.848.477 1.271c.17.425.166.846.543 1.272s1.135.991 1.722 1.285 1.436.231 1.802.477c.367.245.221.656.397.994s.232.7.663 1.033c.431.334 1.453.791 1.921.968s.687.013.887.093c.201.079.374.205.318.384s-.36.497-.649.688c-.289.192-.618.18-1.086.464-.468.285-1.159.777-1.722 1.246-.563.468-1.029.954-1.656 1.563s-1.493 1.349-2.106 2.093-1.131 1.555-1.577 2.372c-.446.816-.742 1.623-1.1 2.53s-.792 1.99-1.047 2.915c-.254.925-.375 1.585-.477 2.636-.102 1.052-.095 2.913-.132 3.671-.038.758.046.51-.093.874s-.369.91-.742 1.313c-.373.401-.937.622-1.497 1.099-.561.478-1.263 1.12-1.868 1.763s-1.106 1.13-1.762 2.093-1.551 2.299-2.173 3.684-1.243 3.235-1.563 4.624-.335 1.991-.358 3.71c-.022 1.718-.051 4.469.226 6.598.276 2.129.548 3.909 1.431 6.175s2.217 5.242 3.869 7.419c1.651 2.178 3.851 4.011 6.042 5.645s5.781 3.171 7.102 4.16c1.32.989.594 1.051.822 1.775s.188 1.481.543 2.57c.355 1.088.898 2.698 1.589 3.961.691 1.264 1.526 2.467 2.557 3.617 1.032 1.15 2.259 2.314 3.631 3.286 1.371.972 2.849 1.793 4.597 2.544 1.749.751 3.995 1.466 5.896 1.961 1.901.494 4.025.811 5.511 1.007s1.594.141 3.405.172 5.353.028 7.459.014c2.106-.016 3.698-.026 5.18-.106 1.481-.079 2.365-.159 3.71-.371s2.343-.263 4.359-.9c2.016-.639 5.58-1.769 7.738-2.929 2.157-1.159 3.815-2.625 5.207-4.027s2.281-2.714 3.141-4.386c.859-1.671 1.647-4.341 2.013-5.644.367-1.303-.04-1.696.186-2.173.225-.478.375-.27 1.166-.689s1.943-.746 3.577-1.828 4.586-3.169 6.227-4.664 2.648-2.921 3.617-4.306c.97-1.385 1.594-2.683 2.199-4.001s1.063-2.531 1.431-3.909c.369-1.378.585-2.937.782-4.358.197-1.422.345-2.765.397-4.174.053-1.408.088-2.994-.08-4.279s-.585-2.33-.927-3.432c-.343-1.102-.647-2.184-1.126-3.18s-1.161-1.932-1.749-2.795c-.587-.864-1.17-1.694-1.775-2.386-.605-.691-1.312-1.31-1.855-1.762-.543-.453-.962-.504-1.404-.954-.441-.45-1.022-1.212-1.245-1.749-.223-.536-.064-.879-.093-1.471s-.036-1.355-.08-2.08c-.044-.724-.031-1.404-.185-2.266-.155-.861-.449-1.976-.743-2.901-.293-.925-.494-1.637-1.02-2.65-.526-1.014-1.46-2.51-2.133-3.431-.674-.921-1.288-1.473-1.908-2.094-.621-.62-1.214-1.124-1.815-1.63-.601-.505-1.255-1.035-1.789-1.404-.534-.368-1.1-.618-1.417-.808-.318-.19-.464-.208-.49-.331-.027-.124.157-.306.331-.411.177-.106.393-.108.718-.225z"/><path d="m133.433 48.001c.325-.116.875-.312 1.232-.477.358-.166.663-.254.914-.517.252-.263.448-.731.596-1.061.148-.328.044-.682.292-.914.247-.231.729-.268 1.192-.478.464-.209 1.19-.545 1.59-.781s.532-.186.808-.636.647-1.641.848-2.066c.201-.427.099-.266.357-.49.258-.226.808-.537 1.192-.861.384-.325.822-.751 1.113-1.087s.473-.594.636-.928c.163-.333.3-.764.344-1.072.044-.31-.172-.541-.08-.782.093-.24.389-.438.636-.662.247-.226.569-.313.848-.689.278-.375.687-.989.821-1.563s-.126-1.382-.013-1.881.462-.738.689-1.113c.228-.375.49-.722.676-1.14.186-.417.429-.858.438-1.364s-.427-1.201-.385-1.67c.042-.468.435-.813.636-1.139.201-.327.455-.429.569-.821.115-.394.241-.977.12-1.537-.121-.561-.759-1.316-.848-1.828-.088-.513.223-.817.317-1.246.095-.429.285-.814.252-1.324-.033-.511-.162-1.264-.451-1.736-.29-.472-.822-.841-1.285-1.1-.464-.258-.963-.359-1.498-.45-.534-.09-1.181.137-1.708-.093-.528-.229-.899-.956-1.458-1.285s-1.241-.572-1.895-.688c-.653-.117-1.545-.021-2.027-.014s-.572.168-.861.053-.51-.515-.875-.741c-.364-.228-.808-.513-1.312-.623s-1.343-.051-1.709-.04c-.367.011-.232.229-.49.106-.259-.124-.691-.656-1.06-.849-.369-.191-.616-.249-1.153-.305-.537-.055-1.548-.11-2.067-.026s-.744.444-1.047.53c-.302.086-.601.042-.768-.014-.168-.055-.102-.243-.238-.318s-.451-.048-.583-.132c-.133-.084.181-.294-.212-.371-.394-.077-1.44-.27-2.147-.093s-1.625.943-2.093 1.153c-.468.209-.477.156-.715.105s-.298-.352-.715-.411-1.162-.165-1.789.054c-.627.218-1.577 1.044-1.974 1.258-.397.215-.276.052-.411.027-.134-.024-.017-.146-.397-.173s-1.283-.13-1.882.014c-.598.144-1.256.534-1.708.848s-.747.791-1.007 1.034c-.26.242-.137.338-.556.424-.42.086-1.339-.155-1.961.092-.623.248-1.176.857-1.775 1.392s-1.254 1.168-1.815 1.815c-.561.646-1.17 1.46-1.55 2.066-.38.607-.461 1.056-.729 1.576-.267.521-.561.824-.874 1.551s-.755 2.474-1.007 2.809c-.252.336-.261-.212-.504-.795s-.594-1.898-.953-2.703c-.36-.804-.632-1.278-1.206-2.119-.574-.842-1.521-2.126-2.239-2.928s-1.515-1.425-2.066-1.882c-.552-.457-.758-.711-1.246-.861s-1.164.186-1.683-.04c-.519-.225-.967-.944-1.431-1.311s-.675-.716-1.351-.889c-.676-.172-2.087-.1-2.703-.146-.616-.047-.676.009-.994-.133-.318-.141-.55-.545-.914-.715-.364-.171-.859-.257-1.272-.306-.413-.048-.85-.053-1.206.014s-.654.378-.928.385-.439-.208-.715-.345-.698-.385-.941-.478-.364-.013-.517-.079c-.152-.065-.02-.268-.397-.318-.378-.051-1.501-.037-1.868.014-.366.051-.139.221-.332.292-.192.07-.684.046-.821.132s.147.329 0 .384c-.148.056-.572.031-.888-.053s-.389-.396-1.007-.45c-.619-.053-2.025-.07-2.703.133s-1.056.907-1.365 1.086-.115-.002-.49-.013-1.111-.25-1.762-.054c-.651.197-1.683 1.01-2.146 1.232-.464.224-.161.093-.636.106s-1.594-.095-2.212-.026c-.619.068-1.073.254-1.498.438-.424.183-.737.405-1.046.662-.309.256-.36.722-.809.874s-1.27-.06-1.881.04c-.612.099-1.319.289-1.789.556-.47.268-.804.656-1.033 1.048-.229.391-.278.965-.344 1.298s-.08.429-.053.702c.026.273.119.653.212.94s.298.539.344.782.066.424-.066.676c-.132.251-.585.468-.729.834-.144.367-.144.994-.133 1.365s.113.527.199.861c.086.333.155.813.318 1.14.164.326.601.516.662.821.062.305-.263.618-.292 1.007s-.159.646.12 1.324 1.27 2.18 1.55 2.743c.281.563.078.209.133.636.055.426-.117 1.217.198 1.921.316.705 1.341 1.813 1.696 2.306s.375.426.437.649-.166.27-.066.688c.099.42.225 1.259.662 1.829.437.569 1.5 1.24 1.961 1.589.462.35.594.208.808.504s.307.848.477 1.271c.17.425.166.846.543 1.272s1.135.991 1.722 1.285 1.436.231 1.802.477c.367.245.221.656.397.994s.232.7.663 1.033c.431.334 1.453.791 1.921.968s.687.013.887.093c.201.079.374.205.318.384s-.36.497-.649.688c-.289.192-.618.18-1.086.464-.468.285-1.159.777-1.722 1.246-.563.468-1.029.954-1.656 1.563s-1.493 1.349-2.106 2.093-1.131 1.555-1.577 2.372c-.446.816-.742 1.623-1.1 2.53s-.792 1.99-1.047 2.915c-.254.925-.375 1.585-.477 2.636-.102 1.052-.095 2.913-.132 3.671-.038.758.046.51-.093.874s-.369.91-.742 1.313c-.373.401-.937.622-1.497 1.099-.561.478-1.263 1.12-1.868 1.763s-1.106 1.13-1.762 2.093-1.551 2.299-2.173 3.684-1.243 3.235-1.563 4.624-.335 1.991-.358 3.71c-.022 1.718-.051 4.469.226 6.598.276 2.129.548 3.909 1.431 6.175s2.217 5.242 3.869 7.419c1.651 2.178 3.851 4.011 6.042 5.645s5.781 3.171 7.102 4.16c1.32.989.594 1.051.822 1.775s.188 1.481.543 2.57c.355 1.088.898 2.698 1.589 3.961.691 1.264 1.526 2.467 2.557 3.617 1.032 1.15 2.259 2.314 3.631 3.286 1.371.972 2.849 1.793 4.597 2.544 1.749.751 3.995 1.466 5.896 1.961 1.901.494 4.025.811 5.511 1.007s1.594.141 3.405.172 5.353.028 7.459.014c2.106-.016 3.698-.026 5.18-.106 1.481-.079 2.365-.159 3.71-.371s2.343-.263 4.359-.9c2.016-.639 5.58-1.769 7.738-2.929 2.157-1.159 3.815-2.625 5.207-4.027s2.281-2.714 3.141-4.386c.859-1.671 1.647-4.341 2.013-5.644.367-1.303-.04-1.696.186-2.173.225-.478.375-.27 1.166-.689s1.943-.746 3.577-1.828 4.586-3.169 6.227-4.664 2.648-2.921 3.617-4.306c.97-1.385 1.594-2.683 2.199-4.001s1.063-2.531 1.431-3.909c.369-1.378.585-2.937.782-4.358.197-1.422.345-2.765.397-4.174.053-1.408.088-2.994-.08-4.279s-.585-2.33-.927-3.432c-.343-1.102-.647-2.184-1.126-3.18s-1.161-1.932-1.749-2.795c-.587-.864-1.17-1.694-1.775-2.386-.605-.691-1.312-1.31-1.855-1.762-.543-.453-.962-.504-1.404-.954-.441-.45-1.022-1.212-1.245-1.749-.223-.536-.064-.879-.093-1.471s-.036-1.355-.08-2.08c-.044-.724-.031-1.404-.185-2.266-.155-.861-.449-1.976-.743-2.901-.293-.925-.494-1.637-1.02-2.65-.526-1.014-1.46-2.51-2.133-3.431-.674-.921-1.288-1.473-1.908-2.094-.621-.62-1.214-1.124-1.815-1.63-.601-.505-1.255-1.035-1.789-1.404-.534-.368-1.1-.618-1.417-.808-.318-.19-.464-.208-.49-.331-.027-.124.157-.306.331-.411.177-.106.393-.108.718-.225z" fill="none"/><path d="m94.685 36.495c.964.193 1.625-1.051 2.283-1.741s1.322-1.387 1.664-2.399.658-2.103.387-3.677c-.271-1.573-1.064-3.979-2.013-5.766-.948-1.787-3.012-4.321-3.676-4.954-.664-.632-.181.899-.31 1.161-.129.261-.307.346-.465.406-.158.062-.332.042-.483-.038-.151-.081.216.248-.426-.445s-2.825-3.264-3.425-3.715c-.6-.452-.129.745-.174 1.006-.045.262-.019.377-.096.562-.078.184-.232.464-.368.541-.136.078-.323-.013-.445-.077s.042.025-.291-.31c-.332-.336-1.199-1.255-1.703-1.703-.503-.448-1.08-.98-1.316-.986-.235-.007-.055.657-.097.948-.042.29-.032.583-.155.793s-.313.52-.58.465-.497-.394-1.025-.794c-.529-.399-1.578-1.237-2.148-1.605-.571-.367-1.103-.591-1.277-.601s.158.397.232.542c.074.146.178.123.213.329s.055.668 0 .909c-.055.242-.129.517-.329.542-.2.026-.403-.151-.871-.387s-1.2-.716-1.935-1.025-2.064-.79-2.477-.832-.081.419 0 .58.364.255.483.387c.119.133.193.214.232.407s.032.58 0 .754c-.032.175-.064.265-.193.291-.129.025-.113.025-.581-.136s-1.46-.616-2.225-.832c-.764-.216-2.006-.468-2.361-.465-.354.004.113.326.232.484s.403.189.484.464.132.975 0 1.181-.152.187-.793.058-2.067-.709-3.058-.831c-.99-.123-2.608-.179-2.882.096-.274.274 1.348 1.226 1.238 1.549-.109.322-.935.332-1.896.387s-3.357-.329-3.87-.059c-.513.271.513 1.087.793 1.684.281.597.709 1.342.89 1.896.181.555.539 1.226.194 1.432s-2.058-.474-2.264-.193c-.206.28.438 1.196 1.026 1.877.587.681 2.229 1.716 2.497 2.206s-.503.622-.891.735c-.387.112-1.151-.094-1.432-.059s-.654-.216-.251.271c.403.486 2.054 2.045 2.67 2.65.616.606.848.758 1.026.987.177.229.077.28.038.387-.039.106.048.206-.271.252-.319.045-1.339-.007-1.645.02-.306.025-.49-.185-.193.135s1.206 1.181 1.974 1.78c.767.6 2.337 1.429 2.631 1.819.293.39-.513.429-.871.522s-1.074-.043-1.277.038-.371.104.059.445c.429.342 1.89 1.232 2.515 1.606s.822.422 1.238.638.975.494 1.258.658c.284.165.397.21.445.329s.158.28-.155.387c-.313.106-1.39.2-1.722.251-.332.052-.287-.028-.271.059s-.293.154.368.464 2.722 1.091 3.6 1.394c.877.303 1.363.245 1.664.426.3.181.316.442.136.658-.181.216-1.013.48-1.219.638-.207.158-.458.155-.02.311.438.154 1.613.48 2.651.619s2.934.048 3.579.213c.645.164.41.513.291.773-.119.262-.822.6-1.006.794-.184.193-.303.306-.097.367.207.062.371.087 1.335 0s2.874-.184 4.451-.522 3.528-.71 5.011-1.51 2.983-2.222 3.89-3.289c.906-1.067 1.509-2.364 1.548-3.115s-.393-.542-1.315-1.394c-.922-.851-2.806-2.589-4.219-3.715-1.413-1.125-2.754-2.031-4.257-3.038-1.503-1.006-3.122-2.021-4.76-2.999-1.639-.977-3.635-2.066-5.069-2.863-1.435-.797-2.88-1.513-3.541-1.916-.661-.402-.813-.551-.426-.503.387.049.674-.045 2.748.794 2.074.838 7.607 3.282 9.694 4.237 2.086.954 1.167.489 2.825 1.489 1.657 1 5.35 3.274 7.121 4.509 1.77 1.235 2.537 2.709 3.502 2.902z" fill="#378e04"/><path d="m94.685 36.495c.964.193 1.625-1.051 2.283-1.741s1.322-1.387 1.664-2.399.658-2.103.387-3.677c-.271-1.573-1.064-3.979-2.013-5.766-.948-1.787-3.012-4.321-3.676-4.954-.664-.632-.181.899-.31 1.161-.129.261-.307.346-.465.406-.158.062-.332.042-.483-.038-.151-.081.216.248-.426-.445s-2.825-3.264-3.425-3.715c-.6-.452-.129.745-.174 1.006-.045.262-.019.377-.096.562-.078.184-.232.464-.368.541-.136.078-.323-.013-.445-.077s.042.025-.291-.31c-.332-.336-1.199-1.255-1.703-1.703-.503-.448-1.08-.98-1.316-.986-.235-.007-.055.657-.097.948-.042.29-.032.583-.155.793s-.313.52-.58.465-.497-.394-1.025-.794c-.529-.399-1.578-1.237-2.148-1.605-.571-.367-1.103-.591-1.277-.601s.158.397.232.542c.074.146.178.123.213.329s.055.668 0 .909c-.055.242-.129.517-.329.542-.2.026-.403-.151-.871-.387s-1.2-.716-1.935-1.025-2.064-.79-2.477-.832-.081.419 0 .58.364.255.483.387c.119.133.193.214.232.407s.032.58 0 .754c-.032.175-.064.265-.193.291-.129.025-.113.025-.581-.136s-1.46-.616-2.225-.832c-.764-.216-2.006-.468-2.361-.465-.354.004.113.326.232.484s.403.189.484.464.132.975 0 1.181-.152.187-.793.058-2.067-.709-3.058-.831c-.99-.123-2.608-.179-2.882.096-.274.274 1.348 1.226 1.238 1.549-.109.322-.935.332-1.896.387s-3.357-.329-3.87-.059c-.513.271.513 1.087.793 1.684.281.597.709 1.342.89 1.896.181.555.539 1.226.194 1.432s-2.058-.474-2.264-.193c-.206.28.438 1.196 1.026 1.877.587.681 2.229 1.716 2.497 2.206s-.503.622-.891.735c-.387.112-1.151-.094-1.432-.059s-.654-.216-.251.271c.403.486 2.054 2.045 2.67 2.65.616.606.848.758 1.026.987.177.229.077.28.038.387-.039.106.048.206-.271.252-.319.045-1.339-.007-1.645.02-.306.025-.49-.185-.193.135s1.206 1.181 1.974 1.78c.767.6 2.337 1.429 2.631 1.819.293.39-.513.429-.871.522s-1.074-.043-1.277.038-.371.104.059.445c.429.342 1.89 1.232 2.515 1.606s.822.422 1.238.638.975.494 1.258.658c.284.165.397.21.445.329s.158.28-.155.387c-.313.106-1.39.2-1.722.251-.332.052-.287-.028-.271.059s-.293.154.368.464 2.722 1.091 3.6 1.394c.877.303 1.363.245 1.664.426.3.181.316.442.136.658-.181.216-1.013.48-1.219.638-.207.158-.458.155-.02.311.438.154 1.613.48 2.651.619s2.934.048 3.579.213c.645.164.41.513.291.773-.119.262-.822.6-1.006.794-.184.193-.303.306-.097.367.207.062.371.087 1.335 0s2.874-.184 4.451-.522 3.528-.71 5.011-1.51 2.983-2.222 3.89-3.289c.906-1.067 1.509-2.364 1.548-3.115s-.393-.542-1.315-1.394c-.922-.851-2.806-2.589-4.219-3.715-1.413-1.125-2.754-2.031-4.257-3.038-1.503-1.006-3.122-2.021-4.76-2.999-1.639-.977-3.635-2.066-5.069-2.863-1.435-.797-2.88-1.513-3.541-1.916-.661-.402-.813-.551-.426-.503.387.049.674-.045 2.748.794 2.074.838 7.607 3.282 9.694 4.237 2.086.954 1.167.489 2.825 1.489 1.657 1 5.35 3.274 7.121 4.509 1.77 1.235 2.537 2.709 3.502 2.902z" fill="none"/><path d="m109.495 36.496c-.964.193-1.625-1.052-2.283-1.742-.658-.689-1.322-1.387-1.664-2.399s-.658-2.103-.387-3.677 1.064-3.979 2.013-5.767c.948-1.786 3.012-4.321 3.676-4.954.665-.632.181.899.31 1.161.129.261.307.346.465.406.158.062.332.042.483-.039.151-.08-.216.249.426-.444s2.826-3.265 3.425-3.716c.6-.451.129.745.174 1.007.045.261.019.377.096.561s.232.465.368.542.323-.013.445-.077-.042.025.291-.31c.332-.336 1.2-1.255 1.703-1.703s1.081-.98 1.316-.987c.235-.006.055.658.097.948s.032.584.154.794c.123.209.313.52.581.464.268-.055.497-.394 1.025-.793.529-.4 1.578-1.238 2.148-1.606.571-.367 1.103-.59 1.277-.6s-.158.396-.232.542c-.074.145-.177.122-.213.328-.036.207-.055.668 0 .91s.129.517.329.542.403-.151.871-.388c.468-.235 1.2-.716 1.936-1.025s2.064-.79 2.477-.832.081.42 0 .581-.364.254-.483.387c-.12.132-.193.213-.232.406s-.032.581 0 .755.064.265.193.29c.129.026.113.025.581-.136.467-.161 1.46-.615 2.225-.832.764-.216 2.006-.468 2.361-.464.355.003-.112.326-.232.483-.119.158-.403.19-.484.465-.081.273-.132.974 0 1.181.132.206.151.187.793.058s2.067-.709 3.058-.832c.99-.122 2.609-.178 2.883.097.274.273-1.348 1.226-1.238 1.548.109.323.935.332 1.896.387.961.056 3.357-.328 3.87-.058.513.271-.513 1.087-.793 1.684s-.709 1.342-.89 1.896-.539 1.226-.194 1.432c.345.207 2.058-.474 2.265-.193.206.281-.438 1.197-1.026 1.878-.587.681-2.229 1.715-2.497 2.205s.503.623.89.736c.387.112 1.152-.094 1.432-.059.281.035.655-.216.252.271s-2.055 2.046-2.67 2.651c-.616.606-.849.758-1.026.987s-.077.28-.038.387c.039.106-.048.207.271.252s1.338-.007 1.645.02c.307.025.49-.185.193.135s-1.207 1.181-1.974 1.781c-.768.6-2.338 1.429-2.632 1.818-.293.391.513.43.871.522.358.094 1.074-.042 1.277.039.203.08.371.103-.058.445s-1.89 1.231-2.516 1.606c-.625.374-.822.422-1.238.638s-.975.494-1.258.658c-.284.165-.397.21-.445.329s-.158.28.155.387 1.39.2 1.722.252c.333.051.287-.029.271.058-.016.088.293.155-.368.465s-2.723 1.09-3.6 1.393c-.877.304-1.364.245-1.664.426s-.316.442-.136.658c.181.217 1.013.48 1.219.639.207.158.458.155.02.31s-1.613.481-2.651.62c-1.039.138-2.935.048-3.58.212-.645.165-.41.513-.291.774s.822.6 1.006.793c.184.194.303.307.097.368-.207.062-.371.087-1.335 0s-2.874-.184-4.451-.522-3.528-.71-5.012-1.51-2.983-2.222-3.89-3.29c-.906-1.067-1.509-2.363-1.548-3.115s.393-.542 1.315-1.394 2.807-2.59 4.219-3.715c1.413-1.126 2.754-2.032 4.257-3.039 1.503-1.006 3.122-2.021 4.76-2.999 1.639-.977 3.635-2.067 5.07-2.864 1.436-.796 2.88-1.513 3.542-1.915.661-.403.813-.552.426-.503-.387.048-.674-.046-2.749.793-2.074.839-7.608 3.283-9.695 4.238-2.087.954-1.167.489-2.825 1.489s-5.351 3.274-7.122 4.51c-1.768 1.234-2.536 2.708-3.501 2.901z" fill="#378e04"/><path d="m109.495 36.496c-.964.193-1.625-1.052-2.283-1.742-.658-.689-1.322-1.387-1.664-2.399s-.658-2.103-.387-3.677 1.064-3.979 2.013-5.767c.948-1.786 3.012-4.321 3.676-4.954.665-.632.181.899.31 1.161.129.261.307.346.465.406.158.062.332.042.483-.039.151-.08-.216.249.426-.444s2.826-3.265 3.425-3.716c.6-.451.129.745.174 1.007.045.261.019.377.096.561s.232.465.368.542.323-.013.445-.077-.042.025.291-.31c.332-.336 1.2-1.255 1.703-1.703s1.081-.98 1.316-.987c.235-.006.055.658.097.948s.032.584.154.794c.123.209.313.52.581.464.268-.055.497-.394 1.025-.793.529-.4 1.578-1.238 2.148-1.606.571-.367 1.103-.59 1.277-.6s-.158.396-.232.542c-.074.145-.177.122-.213.328-.036.207-.055.668 0 .91s.129.517.329.542.403-.151.871-.388c.468-.235 1.2-.716 1.936-1.025s2.064-.79 2.477-.832.081.42 0 .581-.364.254-.483.387c-.12.132-.193.213-.232.406s-.032.581 0 .755.064.265.193.29c.129.026.113.025.581-.136.467-.161 1.46-.615 2.225-.832.764-.216 2.006-.468 2.361-.464.355.003-.112.326-.232.483-.119.158-.403.19-.484.465-.081.273-.132.974 0 1.181.132.206.151.187.793.058s2.067-.709 3.058-.832c.99-.122 2.609-.178 2.883.097.274.273-1.348 1.226-1.238 1.548.109.323.935.332 1.896.387.961.056 3.357-.328 3.87-.058.513.271-.513 1.087-.793 1.684s-.709 1.342-.89 1.896-.539 1.226-.194 1.432c.345.207 2.058-.474 2.265-.193.206.281-.438 1.197-1.026 1.878-.587.681-2.229 1.715-2.497 2.205s.503.623.89.736c.387.112 1.152-.094 1.432-.059.281.035.655-.216.252.271s-2.055 2.046-2.67 2.651c-.616.606-.849.758-1.026.987s-.077.28-.038.387c.039.106-.048.207.271.252s1.338-.007 1.645.02c.307.025.49-.185.193.135s-1.207 1.181-1.974 1.781c-.768.6-2.338 1.429-2.632 1.818-.293.391.513.43.871.522.358.094 1.074-.042 1.277.039.203.08.371.103-.058.445s-1.89 1.231-2.516 1.606c-.625.374-.822.422-1.238.638s-.975.494-1.258.658c-.284.165-.397.21-.445.329s-.158.28.155.387 1.39.2 1.722.252c.333.051.287-.029.271.058-.016.088.293.155-.368.465s-2.723 1.09-3.6 1.393c-.877.304-1.364.245-1.664.426s-.316.442-.136.658c.181.217 1.013.48 1.219.639.207.158.458.155.02.31s-1.613.481-2.651.62c-1.039.138-2.935.048-3.58.212-.645.165-.41.513-.291.774s.822.6 1.006.793c.184.194.303.307.097.368-.207.062-.371.087-1.335 0s-2.874-.184-4.451-.522-3.528-.71-5.012-1.51-2.983-2.222-3.89-3.29c-.906-1.067-1.509-2.363-1.548-3.115s.393-.542 1.315-1.394 2.807-2.59 4.219-3.715c1.413-1.126 2.754-2.032 4.257-3.039 1.503-1.006 3.122-2.021 4.76-2.999 1.639-.977 3.635-2.067 5.07-2.864 1.436-.796 2.88-1.513 3.542-1.915.661-.403.813-.552.426-.503-.387.048-.674-.046-2.749.793-2.074.839-7.608 3.283-9.695 4.238-2.087.954-1.167.489-2.825 1.489s-5.351 3.274-7.122 4.51c-1.768 1.234-2.536 2.708-3.501 2.901z" fill="none"/><path d="m88.376 56.036c0-4.358 6.1-7.893 13.624-7.893 7.524 0 13.624 3.534 13.624 7.893 0 4.358-6.1 7.892-13.624 7.892-7.524 0-13.624-3.533-13.624-7.892z" fill="#d6033f"/><path d="m88.376 56.036c0-4.358 6.1-7.893 13.624-7.893 7.524 0 13.624 3.534 13.624 7.893 0 4.358-6.1 7.892-13.624 7.892-7.524 0-13.624-3.533-13.624-7.892z" fill="none"/><path d="m107.427 86.364c-4.051-7.94-1.952-17.124 4.687-20.511 3.188-1.627 7.019-1.672 10.649-.125 3.63 1.546 6.762 4.558 8.707 8.371 4.051 7.94 1.952 17.123-4.687 20.511-6.639 3.386-15.305-.305-19.356-8.246z" fill="#d6033f"/><path d="m107.427 86.364c-4.051-7.94-1.952-17.124 4.687-20.511 3.188-1.627 7.019-1.672 10.649-.125 3.63 1.546 6.762 4.558 8.707 8.371 4.051 7.94 1.952 17.123-4.687 20.511-6.639 3.386-15.305-.305-19.356-8.246z" fill="none"/><path d="m96.318 87.292c4.05-7.941 1.952-17.124-4.687-20.511-3.188-1.627-7.019-1.672-10.649-.125-3.63 1.546-6.762 4.558-8.707 8.37-4.051 7.941-1.952 17.124 4.687 20.512 6.639 3.387 15.305-.305 19.356-8.246z" fill="#d6033f"/><path d="m96.318 87.292c4.05-7.941 1.952-17.124-4.687-20.511-3.188-1.627-7.019-1.672-10.649-.125-3.63 1.546-6.762 4.558-8.707 8.37-4.051 7.941-1.952 17.124 4.687 20.512 6.639 3.387 15.305-.305 19.356-8.246z" fill="none"/><path d="m125.218 51.298c-.735-.142-1.141-.238-1.974-.29-.832-.052-2.116-.067-3.019-.02-.903.049-1.906.178-2.399.31s-.57.178-.561.484c.01.306.1.625.619 1.354s1.716 2.145 2.496 3.019c.781.874 1.225 1.297 2.187 2.226.961.929 2.535 2.399 3.58 3.348s1.59 1.464 2.689 2.341c1.1.878 2.854 2.164 3.909 2.922s1.638 1.178 2.419 1.626c.78.448 1.741.867 2.264 1.063.522.197.639.194.871.116.232-.077.438-.067.522-.58.083-.513.042-1.625-.02-2.496-.062-.87-.094-1.687-.349-2.729-.254-1.042-.712-2.457-1.18-3.521s-.974-1.97-1.625-2.863-1.451-1.762-2.284-2.497c-.832-.735-1.757-1.374-2.709-1.915-.951-.542-2.093-1.02-2.999-1.335-.905-.318-1.701-.421-2.437-.563z" fill="#d6033f"/><path d="m125.218 51.298c-.735-.142-1.141-.238-1.974-.29-.832-.052-2.116-.067-3.019-.02-.903.049-1.906.178-2.399.31s-.57.178-.561.484c.01.306.1.625.619 1.354s1.716 2.145 2.496 3.019c.781.874 1.225 1.297 2.187 2.226.961.929 2.535 2.399 3.58 3.348s1.59 1.464 2.689 2.341c1.1.878 2.854 2.164 3.909 2.922s1.638 1.178 2.419 1.626c.78.448 1.741.867 2.264 1.063.522.197.639.194.871.116.232-.077.438-.067.522-.58.083-.513.042-1.625-.02-2.496-.062-.87-.094-1.687-.349-2.729-.254-1.042-.712-2.457-1.18-3.521s-.974-1.97-1.625-2.863-1.451-1.762-2.284-2.497c-.832-.735-1.757-1.374-2.709-1.915-.951-.542-2.093-1.02-2.999-1.335-.905-.318-1.701-.421-2.437-.563z" fill="none"/><path d="m64.977 61.413c-.257.703-.417 1.089-.599 1.902s-.402 2.078-.498 2.978c-.096.899-.127 1.91-.075 2.418.052.509.085.592.389.631s.634.001 1.436-.396c.802-.396 2.389-1.354 3.376-1.986s1.475-1.004 2.544-1.806 2.771-2.123 3.873-3.004c1.102-.882 1.698-1.338 2.738-2.285s2.589-2.476 3.504-3.396c.915-.921 1.422-1.431 1.988-2.13.566-.7 1.132-1.583 1.409-2.067s.292-.6.253-.841c-.04-.242.003-.444-.49-.608s-1.598-.299-2.467-.376c-.87-.078-1.681-.175-2.75-.089-1.069.087-2.539.314-3.664.607s-2.1.649-3.085 1.15c-.985.502-1.969 1.154-2.827 1.859s-1.635 1.518-2.321 2.371c-.686.854-1.337 1.905-1.793 2.75s-.685 1.614-.941 2.318z" fill="#d6033f"/><path d="m64.977 61.413c-.257.703-.417 1.089-.599 1.902s-.402 2.078-.498 2.978c-.096.899-.127 1.91-.075 2.418.052.509.085.592.389.631s.634.001 1.436-.396c.802-.396 2.389-1.354 3.376-1.986s1.475-1.004 2.544-1.806 2.771-2.123 3.873-3.004c1.102-.882 1.698-1.338 2.738-2.285s2.589-2.476 3.504-3.396c.915-.921 1.422-1.431 1.988-2.13.566-.7 1.132-1.583 1.409-2.067s.292-.6.253-.841c-.04-.242.003-.444-.49-.608s-1.598-.299-2.467-.376c-.87-.078-1.681-.175-2.75-.089-1.069.087-2.539.314-3.664.607s-2.1.649-3.085 1.15c-.985.502-1.969 1.154-2.827 1.859s-1.635 1.518-2.321 2.371c-.686.854-1.337 1.905-1.793 2.75s-.685 1.614-.941 2.318z" fill="none"/><path d="m147.529 80.922c-.3-.561-.591-1.1-.93-1.645-.338-.545-.751-1.164-1.103-1.626-.352-.461-.648-.779-1.006-1.141s-.758-.704-1.142-1.026-.833-.667-1.161-.909c-.329-.241-.558-.39-.813-.542-.255-.151-.458-.316-.716-.367-.258-.052-.558-.094-.832.059-.274.151-.522.393-.813.851s-.684.961-.929 1.896-.477 2.38-.542 3.715-.036 2.51.155 4.296c.19 1.787.564 4.519.987 6.424.422 1.906 1.054 3.758 1.548 5.012.493 1.255.954 1.894 1.412 2.516s.974.98 1.335 1.219.509.316.832.213c.322-.104.613-.322 1.104-.832.49-.509 1.322-1.415 1.838-2.225s.929-1.835 1.258-2.632.532-1.436.716-2.147c.184-.713.31-1.252.387-2.129.078-.878.119-2.235.078-3.135-.042-.9-.197-1.577-.329-2.264-.132-.688-.242-1.261-.464-1.857-.222-.598-.57-1.162-.87-1.724z" fill="#d6033f"/><path d="m147.529 80.922c-.3-.561-.591-1.1-.93-1.645-.338-.545-.751-1.164-1.103-1.626-.352-.461-.648-.779-1.006-1.141s-.758-.704-1.142-1.026-.833-.667-1.161-.909c-.329-.241-.558-.39-.813-.542-.255-.151-.458-.316-.716-.367-.258-.052-.558-.094-.832.059-.274.151-.522.393-.813.851s-.684.961-.929 1.896-.477 2.38-.542 3.715-.036 2.51.155 4.296c.19 1.787.564 4.519.987 6.424.422 1.906 1.054 3.758 1.548 5.012.493 1.255.954 1.894 1.412 2.516s.974.98 1.335 1.219.509.316.832.213c.322-.104.613-.322 1.104-.832.49-.509 1.322-1.415 1.838-2.225s.929-1.835 1.258-2.632.532-1.436.716-2.147c.184-.713.31-1.252.387-2.129.078-.878.119-2.235.078-3.135-.042-.9-.197-1.577-.329-2.264-.132-.688-.242-1.261-.464-1.857-.222-.598-.57-1.162-.87-1.724z" fill="none"/><path d="m54.923 81.287c.3-.562.59-1.1.929-1.646.338-.545.751-1.164 1.103-1.625.352-.462.648-.78 1.006-1.142.358-.361.758-.703 1.142-1.026.384-.322.832-.667 1.161-.909.329-.241.558-.39.813-.542.254-.151.458-.315.716-.367s.558-.094.833.059c.274.151.522.394.812.851.291.458.685.961.929 1.896.245.936.477 2.38.542 3.715.064 1.336.036 2.51-.155 4.296-.19 1.787-.564 4.519-.987 6.425-.422 1.905-1.055 3.757-1.548 5.011-.493 1.255-.954 1.894-1.412 2.516-.458.623-.974.98-1.335 1.22-.361.238-.509.315-.832.212-.322-.104-.613-.322-1.103-.832-.49-.509-1.322-1.415-1.838-2.225s-.929-1.835-1.257-2.632c-.329-.797-.532-1.435-.716-2.147-.184-.713-.309-1.252-.387-2.129-.077-.877-.119-2.235-.077-3.135s.197-1.577.329-2.264c.132-.688.242-1.261.464-1.857.219-.598.568-1.162.868-1.723z" fill="#d6033f"/><path d="m54.923 81.287c.3-.562.59-1.1.929-1.646.338-.545.751-1.164 1.103-1.625.352-.462.648-.78 1.006-1.142.358-.361.758-.703 1.142-1.026.384-.322.832-.667 1.161-.909.329-.241.558-.39.813-.542.254-.151.458-.315.716-.367s.558-.094.833.059c.274.151.522.394.812.851.291.458.685.961.929 1.896.245.936.477 2.38.542 3.715.064 1.336.036 2.51-.155 4.296-.19 1.787-.564 4.519-.987 6.425-.422 1.905-1.055 3.757-1.548 5.011-.493 1.255-.954 1.894-1.412 2.516-.458.623-.974.98-1.335 1.22-.361.238-.509.315-.832.212-.322-.104-.613-.322-1.103-.832-.49-.509-1.322-1.415-1.838-2.225s-.929-1.835-1.257-2.632c-.329-.797-.532-1.435-.716-2.147-.184-.713-.309-1.252-.387-2.129-.077-.877-.119-2.235-.077-3.135s.197-1.577.329-2.264c.132-.688.242-1.261.464-1.857.219-.598.568-1.162.868-1.723z" fill="none"/><path d="m75.177 107.318c-1.429.809-1.75 1.096-2.611 1.736-.861.641-1.989 1.639-2.557 2.106-.567.468-.698.431-.848.702s-.042.219-.054.928c-.011.709-.072 2.245-.013 3.325s.196 2.142.371 3.153.323 1.87.676 2.915c.354 1.044.872 2.312 1.444 3.352s1.228 1.983 1.987 2.889 1.691 1.795 2.57 2.544c.879.748 1.515 1.265 2.703 1.947s3.151 1.621 4.425 2.146 2.016.693 3.22 1.007c1.203.313 2.153.647 4.001.875 1.848.227 4.548.421 7.088.489 2.539.069 6.092-.015 8.148-.079s2.771-.144 4.187-.305 2.924-.397 4.306-.662c1.382-.266 2.844-.583 3.988-.928s1.811-.653 2.875-1.14c1.064-.485 2.458-1.133 3.511-1.775s2.034-1.401 2.809-2.08c.775-.678 1.204-1.201 1.842-1.987s1.396-1.651 1.987-2.729c.592-1.077 1.186-2.464 1.563-3.736.377-1.271.567-2.548.702-3.896.135-1.347.133-3.184.106-4.186-.027-1.003-.058-1.308-.266-1.829s-.406-.742-.98-1.298c-.574-.557-1.537-1.409-2.464-2.041-.928-.631-1.802-1.117-3.101-1.748-1.298-.632-3.087-1.379-4.69-2.041-1.603-.663-3.118-1.347-4.928-1.935-1.811-.587-4.284-1.215-5.936-1.59-1.651-.375-2.628-.494-3.975-.662s-2.632-.278-4.107-.345-3.025-.133-4.743-.053c-1.718.079-3.746.238-5.565.53-1.82.291-3.4.671-5.353 1.219s-4.306 1.203-6.359 2.066c-2.051.866-4.531 2.308-5.959 3.116z" fill="#fbdb85"/><path d="m75.177 107.318c-1.429.809-1.75 1.096-2.611 1.736-.861.641-1.989 1.639-2.557 2.106-.567.468-.698.431-.848.702s-.042.219-.054.928c-.011.709-.072 2.245-.013 3.325s.196 2.142.371 3.153.323 1.87.676 2.915c.354 1.044.872 2.312 1.444 3.352s1.228 1.983 1.987 2.889 1.691 1.795 2.57 2.544c.879.748 1.515 1.265 2.703 1.947s3.151 1.621 4.425 2.146 2.016.693 3.22 1.007c1.203.313 2.153.647 4.001.875 1.848.227 4.548.421 7.088.489 2.539.069 6.092-.015 8.148-.079s2.771-.144 4.187-.305 2.924-.397 4.306-.662c1.382-.266 2.844-.583 3.988-.928s1.811-.653 2.875-1.14c1.064-.485 2.458-1.133 3.511-1.775s2.034-1.401 2.809-2.08c.775-.678 1.204-1.201 1.842-1.987s1.396-1.651 1.987-2.729c.592-1.077 1.186-2.464 1.563-3.736.377-1.271.567-2.548.702-3.896.135-1.347.133-3.184.106-4.186-.027-1.003-.058-1.308-.266-1.829s-.406-.742-.98-1.298c-.574-.557-1.537-1.409-2.464-2.041-.928-.631-1.802-1.117-3.101-1.748-1.298-.632-3.087-1.379-4.69-2.041-1.603-.663-3.118-1.347-4.928-1.935-1.811-.587-4.284-1.215-5.936-1.59-1.651-.375-2.628-.494-3.975-.662s-2.632-.278-4.107-.345-3.025-.133-4.743-.053c-1.718.079-3.746.238-5.565.53-1.82.291-3.4.671-5.353 1.219s-4.306 1.203-6.359 2.066c-2.051.866-4.531 2.308-5.959 3.116z" fill="none"/><path d="m87.746 114.412c0-4.724 1.17-8.553 2.614-8.553.693 0 1.358.901 1.848 2.505s.766 3.779.766 6.048c0 4.724-1.17 8.553-2.614 8.553-.693 0-1.358-.9-1.849-2.505-.49-1.603-.765-3.779-.765-6.048z" fill="none"/><path d="m87.735 111.414c0 6.38 1.175 11.551 2.624 11.551s2.624-5.171 2.624-11.551c-1.722 1.926-3.525 1.926-5.248 0z" fill="none"/><path d="m109.58 114.412c0-4.724 1.17-8.553 2.614-8.553.693 0 1.358.901 1.848 2.505s.766 3.779.766 6.048c0 4.724-1.17 8.553-2.614 8.553-.693 0-1.358-.9-1.848-2.505-.491-1.603-.766-3.779-.766-6.048z" fill="none"/><path d="m109.57 111.414c0 6.38 1.175 11.551 2.624 11.551s2.624-5.171 2.624-11.551c-1.722 1.926-3.526 1.926-5.248 0z" fill="none"/><ellipse cx="111.498" cy="114.418" rx="3.125" ry="9.417"/><path d="m111.386 110.59c.848 0 1.657.208 2.409.571-.124-1.034-.306-1.984-.54-2.791-.465-1.604-1.097-2.505-1.756-2.505-1.024 0-1.903 2.135-2.283 5.182.683-.294 1.412-.457 2.17-.457z" fill="#fff"/><ellipse cx="91.415" cy="114.418" rx="3.125" ry="9.417"/><path d="m91.303 110.59c.848 0 1.657.208 2.409.571-.124-1.034-.306-1.984-.54-2.791-.465-1.604-1.097-2.505-1.756-2.505-1.024 0-1.903 2.135-2.283 5.182.683-.294 1.411-.457 2.17-.457z" fill="#fff"/><path d="m180.42 127.642 1.082-2.569v-99.149l-2.705-3.382h33.681l9.198 5.546v46.125l-25.024 13.932v23.536h3.382zm15.961-56.405 10.821-6.493v-26.241h-10.821z" fill="url(#b)"/><path d="m260.766 22.542 5.952 6.899v78.724l-22.048 18.666-18.531-17.179v-79.67l5.681-7.44zm-19.343 14.609v60.868l9.063 7.981v-68.85h-9.063z" fill="url(#c)"/><path d="m271.586 125.343v-99.419l-2.705-3.382h33.68l9.198 5.546v28.541l-14.203 8.116 14.203 7.575v26.106l.947.812-15.691 11.497v-32.058l-10.279-5.411v40.715l2.029 2.976-18.667 13.797zm14.878-68.985 10.821-6.493v-11.362h-10.821z" fill="url(#d)"/><path d="m328.666 38.503h-12.038v-12.58l-2.705-3.382h45.584l-2.705 3.382v12.58h-13.122v77.235l2.164 3.247-18.802 13.526 1.623-7.305v-86.703z" fill="url(#e)"/><path d="m392.645 22.542 9.198 5.546v13.662h-16.232v-3.246h-9.063v20.154l25.295 13.662v22.319l-41.256 33.004 1.082-2.569v-44.369h14.879v9.604l9.063-6.628v-5.546l-23.941-13.526v-38.685l-2.705-3.382z" fill="url(#f)"/><path d="m221.658 65.205v8.955l-25.024 13.932v23.536h3.382l-19.613 15.961 1.082-2.569v-36.815" fill="url(#h)"/><path d="m266.7 87.205v20.906l-22.048 18.666-18.531-17.179v-44.81l15.284 8.333v24.844l9.063 7.981v-27.657z" fill="url(#i)"/><path d="m286.718 80.538v33.39l2.029 2.976-18.666 13.796 1.487-5.41v-37.585m36.265-17.523 3.909 2.085v26.105l.947.812-15.691 11.497v-32.057l-3.044-1.602" fill="url(#j)"/><path d="m343.664 78.038v37.647l2.164 3.247-18.802 13.526 1.623-7.305v-56.531" fill="url(#k)"/><path d="m392.712 67.344 9.114 4.923v22.318l-41.256 33.004 1.082-2.569v-44.367h14.879v9.604l9.063-6.628v-5.546l-7.7-4.351" fill="url(#l)"/><g fill="#542209"><path d="m181.962 87.057 38.251-22.125 1.001 1.732-38.249 22.125z"/><path d="m226.737 66.302.954-1.758 14.189 7.699-.951 1.757z"/><path d="m250.956 79.409 1.016-1.723 14.625 8.627-1.017 1.722z"/><path d="m271.639 86.906 14.374-7.25.903 1.786-14.375 7.249z"/><path d="m294.122 75.663 11.374-6 .933 1.771-11.375 6z"/><path d="m329.037 69.633 1.102-1.669 12.501 8.249-1.103 1.67z"/><path d="m377.924 72.513 12.873-5.875.832 1.82-12.875 5.876z"/></g><path d="m180 124.271v-98.323l-4.323-5.406h37.217l10.28 6.198v47.855l-25.024 13.931v21.154h6.1l-22.884 18.624-4.666 3.796zm1.801 3.452-1.383-.582zm1.2-102.827v98.209l12.81-10.425h-.66v-25.917l25.021-13.933v-44.397l-8.112-4.891-30.145-.002zm11.878 11.607h13.822v28.59l-11.551 6.929-.771-1.286.771 1.286-2.271 1.366zm3 31.583 7.82-4.691v-23.892l-7.82-.002z"/><path d="m224.637 109.804v-80.83l6.438-8.432h29.689v1.5-1.5h.685l6.768 7.839v79.977l-23.595 19.976zm2.999-79.815v78.508l17.077 15.83 20.503-17.356v-77.475l-5.14-5.955h-27.516zm12.286 68.207v-61.545-1.5h12.063v73.672zm3-1.355 6.062 5.339v-64.029h-6.062zm-1.5-58.69v-1.5z"/><path d="m270.084 124.636-.002-98.688-4.324-5.407h37.218l10.283 6.199v30.259l-12.602 7.199 12.602 6.721-.002 26.316 1.861 1.593-19.604 14.36v-34.107l-7.279-3.831v37.768l2.582 3.785-23.318 17.233zm3 .409-.393 1.424 14.02-10.361-1.477-2.168v-43.659l13.28 6.988-.002 30.004 11.78-8.631-.036-.029v-25.894l-15.805-8.429 15.805-9.032v-26.824l-8.115-4.893h-30.141l1.085 1.356v99.944.204zm11.879-88.542h13.821v13.709l-11.549 6.932-.772-1.287.772 1.287-2.272 1.363zm2.999 16.705 7.821-4.693v-9.013h-7.821z"/><path d="m327.164 124.543v-85.041h-12.038v-13.554l-4.323-5.406h51.824l-4.326 5.408v13.552h-13.122v75.282l2.716 4.072-23.173 16.673zm3.001-88.04v88.367l-.807 3.627 14.433-10.384-1.611-2.421v-79.189h13.12v-11.606l1.084-1.355h-39.343l1.086 1.355v11.606h10.538v1.5-1.5z"/><path d="m360.168 124.27v-45.566h17.879v8.147l6.062-4.432v-3.912l-23.94-13.523v-39.035l-4.324-5.408h36.8v1.5-1.5h.417l10.283 6.198v16.01h-19.232v-3.246h-6.064v17.759l25.297 13.663v23.935l-46.436 37.14zm3.001-1.116 37.171-29.737v-20.704l-25.294-13.662v-22.549h12.063l-.002 3.246h13.234v-11.315l-8.112-4.891-30.147-.002 1.087 1.358-.002 38.335 23.942 13.526v7.181l-12.063 8.824v-11.059h-11.877z"/></svg>