<svg enable-background="new 0 0 667 279.5" height="279.5" viewBox="0 0 667 279.5" width="667" xmlns="http://www.w3.org/2000/svg"><g stroke="none" stroke-width="0"><g fill="#fff" fill-opacity=".887755" transform="translate(1.321174 4.321105)"><g><path d="m420.88281 17.316406c-29.49519.20681-58.99808-.292358-88.48781.385621-10.88022 1.12313-21.7721 6.577066-27.62803 16.077634-5.37894 8.44982-6.35271 18.831967-5.86575 28.618384-.1375 20.277913.40405 40.569995-.4055 60.836855-.82055 5.83806-4.51982 11.84832-10.52697 13.34322-7.00404 1.7538-14.25377.35809-21.36641.83659-19.15346.0472-38.32252-.1581-57.46562.21029-2.28211 1.06911-2.22025 4.0095-2.00195 6.14258.16452 3.64871-.4792 7.40446.51367 10.96875 1.75627 2.12856 4.80888 1.29675 7.1875 1.43164 28.14221-.17334 56.29448.39179 84.42899-.41297 11.01603-1.24161 21.96882-7.04599 27.60002-16.85446 5.02115-8.4095 5.76416-18.53744 5.33067-28.11108.1553-20.28339-.46008-40.584464.4595-60.854059.84801-5.607149 4.50471-11.35885 10.21011-12.939307 7.22781-1.827745 14.71415-.41682 22.05782-.892471 19.2377-.02043 38.48287.08194 57.71562-.150498 2.37278-.902615 2.53619-3.89135 2.22656-6.041016-.17563-3.716413.50354-7.541561-.54687-11.169921-.75735-1.085285-2.1673-1.491401-3.43555-1.425782z"/><path d="m157.13086 17.357422c-46.15479.03976-92.316338-.09035-138.466798.144531-2.377198.894602-2.554106 3.890253-2.234374 6.041016.179438 3.721253-.51655 7.563921.554687 11.189453 1.864783 2.131962 4.967755 1.210107 7.421875 1.390625 49.296183.08245 98.5934-.193258 147.88867.21875 6.9758.910255 12.28838 7.528715 12.65936 14.360057 1.16785 7.053025.24431 14.987615-4.72381 20.45049-3.62455 3.541996-8.98914 4.478784-13.87539 4.07009-39.66225.177014-79.32908-.211472-118.988342.287851-12.06698.903495-22.684265 9.54809-27.499762 20.425688-3.933766 9.031157-3.63461 19.120027-3.448876 28.766607.162916 9.7922-.212212 19.60206.201041 29.38336 1.059545 2.35851 4.065186 2.28378 6.239061 2.0814 8.251974-.0587 16.520419.15829 24.760939-.2025 2.268899-1.0066 2.287674-3.91017 2.089843-6.01953.247555-14.27678-.654218-28.60392.650311-42.84227 1.298574-6.00734 5.919514-12.0121 12.393686-12.75802 6.702363-.911489 13.471771.05474 20.200143-.356306 34.011116-.108093 68.028066.292474 102.034816-.31263 10.67803-1.051571 21.43217-6.207027 27.35471-15.425056 7.29107-11.272595 8.01083-25.993089 3.50305-38.448294-4.06097-10.403082-13.43934-18.616529-24.41015-20.921875-8.79772-2.272911-17.95499-1.360602-26.93515-1.532902-2.45651.0032-4.91303.0063-7.36954.0095z"/><path d="m604.82617 17.3125c-51.47513.153591-102.96118-.131592-154.42969.226562-2.30291.990844-2.36374 3.933926-2.10351 6.060547.18698 3.707427-.51563 7.536323.55273 11.148438 1.85318 2.113378 4.93188 1.195584 7.36719 1.375 49.28966.08925 98.58044-.200624 147.86914.222656 6.84927.920395 12.13994 7.256661 12.65011 14.026977 1.3158 7.177362.30494 15.309218-4.75411 20.835093-3.73576 3.580195-9.17043 4.441078-14.1749 4.025326-49.15095.124217-98.31443-.121787-147.45743.257135-2.34928 1.059112-2.27557 4.061243-2.04323 6.227201.16438 3.637958-.52524 7.404345.55886 10.940768 1.92846 2.12689 5.05956 1.118111 7.55156 1.340034 49.15269.08312 98.30665-.208489 147.4582.243951 6.72949 1.009233 11.67111 7.292672 12.41814 13.837182 1.55882 7.47484 1.53124 15.75006-2.17796 22.61468-2.71597 4.33182-7.80252 6.93339-12.91755 6.65631-8.02791.34271-16.06426-.12203-24.09489.10276-42.24327.0368-84.49714-.13036-126.7336.18165-2.27558.97725-2.33268 3.88599-2.07226 5.98632.18706 3.71459-.51581 7.55053.55273 11.16993 1.85318 2.11337 4.93188 1.19558 7.36719 1.375 53.25026-.0902 106.50408.22304 159.7518-.25758 11.72836-1.01043 23.4146-7.25796 29.24842-17.73481 6.0116-10.49931 6.38067-23.33779 3.73329-34.90408-1.65465-6.988568-4.97261-13.675966-10.02843-18.830097 8.66851-7.9835 12.28888-20.283192 11.46633-31.826267-.62295-10.925517-5.59422-22.045366-14.83547-28.308498-8.19347-5.651748-18.43909-7.22749-28.20584-6.991954-.83892-.0084-1.67788-.000267-2.51682-.000234z"/></g><g><path d="m523.39258 196.00586c-8.98657-.069-16.83282 8.16121-16.90865 17.04098-.10921 1.10722-.14368 2.22001-.21245 3.33011h12.05079c-.84529-3.70154.5194-8.51424 4.45117-9.79492 3.51612-1.1383 7.90127 2.29059 6.77021 6.06277-.9136 3.15912-4.59055 4.5612-7.65483 4.28891-.97366.0353-1.94816-.00089-2.92202-.01v9.92187c3.86939-.0432 8.35424-.65381 11.43359 2.2168 3.0066 3.62309.46402 10.0101-4.27636 10.4086-3.73589.96054-8.39619-1.64337-8.6391-5.68795-.26407-1.46684-.15961-2.9657-.0181-4.4394-3.9974 0-7.99479 0-11.99219 0-.59879 6.80694 1.97432 14.36631 8.00391 18.07031 8.48286 4.85309 20.53439 3.37839 26.79781-4.40017 4.98246-6.40861 4.05669-16.92635-2.64742-21.79514-.77517-.0716-.52385-.55861.0137-.76172 5.98408-5.7832 4.74241-16.99548-2.39305-21.29946-3.44743-2.3631-7.72031-3.29369-11.85695-3.15171z"/><path d="m144.76367 195.96289c-6.98468.0732-13.9701.00003-20.95508.0254-.78851 2.04417-.0885 4.27351-.33203 6.39727v46.85859h12.66797c0-6.30013 0-12.60026 0-18.90039 7.27865-.16705 15.04515 1.06436 21.83985-2.24414 5.80773-3.08638 8.69433-10.04027 8.0526-16.41493-.34897-6.28284-4.37057-12.57673-10.57415-14.43627-3.41799-1.2289-7.1071-1.31551-10.69916-1.28552zm-8.19531 10.96484c4.34869.23187 8.74266-.27488 13.0625.27149 3.02508.90575 4.47063 4.4185 3.70545 7.3371-.54831 2.76109-3.1376 4.92494-5.9822 4.70048-3.7189.38205-7.4554-.004-11.18223.0347-.0466-4.05651.0387-8.14871-.10547-12.18359.12463-.13874.32941-.15023.50195-.16016z"/><path d="m167.19336 196.1875v53.05664h11.875c0-17.75195 0-35.50391 0-53.25586-3.95833 0-7.91667 0-11.875 0z"/><path d="m199.59766 208.65039c-5.73132.14391-12.04527 2.4621-14.865 7.78524-1.30132 2.46865-1.57497 5.30802-1.69164 8.05265h12.42187c-1.46413-2.63345 1.27927-5.68707 3.99805-5.61133 2.27002-.0277 5.16421-.29568 6.64062 1.84766 1.03817 1.64292-1.09665 3.39124-2.70703 3.08398-5.90562 1.14047-12.51497.88914-17.54492 4.6875-6.29362 5.1452-4.91347 16.76719 2.63784 20.01713 6.05157 2.90568 13.50364 2.06853 19.10239-1.48588 2.20003 3.39037 6.88962 3.80275 10.47662 2.78136 1.37349-.20522 3.52585-.59336 3.44775-2.40701-.0979-2.41791-.0233-4.83818-.0376-7.25716-1.11302-.74756-2.41866.12092-3.60156-.1582-.50431-7.69289.71681-15.50941-.82322-23.11698-2.12986-5.30102-8.05157-7.99397-13.48767-8.15401-1.31916-.10752-2.64441-.0908-3.96645-.065zm6.20312 26.58008c-.15315 3.30753-3.88873 4.99355-6.82286 4.82306-2.02003.10324-4.78168-.48907-5.26308-2.79376.0774-2.48852 2.83634-3.80341 5.04906-3.72685 2.34127-.39459 4.73927-.49994 7.03688-1.15792z"/><path d="m216.32812 209.86328c4.71847 12.45999 9.43896 24.91921 14.15821 37.37891-.71793 1.97865-.9137 4.77489-3.24024 5.58398-2.32161.41982-4.56096-.57676-6.82226-.92773v10.99804c5.02328.55131 10.72692 1.40156 15.15039-1.66796 5.02675-4.03915 6.40631-10.67677 8.72167-16.36338 4.3473-11.75474 8.68592-23.51269 13.02247-35.27139-4.19727 0-8.39453 0-12.5918 0-2.56413 7.56888-5.12332 15.13945-7.68554 22.70898-2.65115-7.56962-5.30144-15.13955-7.95313-22.70898-4.28711 0-8.57422 0-12.86133 0l.0705.18715z"/><path d="m275.16992 194.81445c-6.88732.0526-14.25121 3.17526-17.60235 9.47611-3.54539 6.5334-1.24542 15.98344 5.61212 19.34421 6.62786 3.6974 14.74822 3.31353 21.30867 7.12827 2.47451 2.35997.97062 7.07019-2.31648 7.86587-3.45198 1.17133-7.47109 1.14365-10.82735-.27456-2.68251-1.18289-4.71897-3.88346-4.61221-6.88416-.0631-1.46567-1.24576-2.85599-2.81363-2.61218-3.24554.0231-6.48961.0675-9.73705.0268-1.18474 8.68696 4.51651 18.05099 13.19152 20.16292 8.47978 2.70597 18.47615 1.75781 25.62485-3.80171 5.83082-5.06922 7.19463-14.66144 2.49515-20.92532-2.57379-3.72413-6.84577-5.88071-11.20519-6.71616-4.8637-1.40796-10.09631-1.90555-14.54383-4.47364-1.99675-1.82912-1.31367-5.84484 1.47875-6.45959 3.71113-1.43126 8.63081-1.32922 11.5818 1.73303 1.1652 1.30245 1.41854 3.01593 1.65625 4.64062.67813 1.69432 2.75813 1.74784 4.28825 1.55745 2.45831-.0468 4.94126.0512 7.38362-.0672 1.39677-.85164.64374-2.70147.71761-4.01301-.8224-7.83429-7.68467-14.32704-15.43518-15.21244-2.05372-.40248-4.15539-.51522-6.24532-.49526z"/><path d="m303.04492 199.05078v10.54102c-1.96875 0-3.9375 0-5.90625 0v9.8457h5.93164c.21993 8.16235-.71269 16.43221.77376 24.50863 1.60256 4.15406 6.44412 6.04767 10.63991 5.64615 2.53416.0283 5.05071-.32136 7.5668-.5747 0-3.31836 0-6.63672 0-9.95508-2.23847-.24123-4.55897 1.08126-6.6914-.0293-.98316-3.80486.006-7.81035-.40235-11.70234 0-2.63112 0-5.26224 0-7.89336h7.09375c0-3.2819 0-6.5638 0-9.8457-2.36458 0-4.72917 0-7.09375 0 0-3.58008 0-7.16016 0-10.74024-3.9707 0-7.9414 0-11.91211 0z"/><path d="m340.06836 208.65039c-5.70253.17103-11.96141 2.49636-14.77148 7.78711-1.29632 2.47088-1.57749 5.30621-1.69727 8.05078h12.32422c-1.35305-2.7972 1.65169-5.87358 4.4773-5.6153 2.24846-.0706 5.26762-.15246 6.44848 2.19538.53059 1.74101-1.54388 3.01461-3.07377 2.77381-5.89762 1.11757-12.56563.87326-17.52703 4.78468-6.02362 5.14845-4.73354 16.35702 2.51308 19.75545 6.10958 3.1093 13.67467 2.156 19.42756-1.30222 2.12183 3.2516 6.60666 3.6838 10.08487 2.81858 1.42238-.29616 3.73303-.41016 3.87021-2.28733-.0654-2.13598-.0577-4.26809-.0273-6.41016.11785-.8222-.34657-1.47047-1.20703-1.37109-.84116-.0141-1.68355.41509-2.51563.15234-.52029-7.63483.67295-15.38139-.76424-22.94287-2.00893-5.33206-7.89628-8.087-13.30453-8.31206-1.41502-.12379-2.8387-.1121-4.2574-.0771zm6.36133 26.58008c-.1385 3.20467-3.74247 4.93618-6.60399 4.81002-2.07569.13989-4.83549-.36694-5.51125-2.65963-.063-2.50709 2.66096-3.88689 4.87113-3.82376 2.40706-.42362 4.87984-.51385 7.24411-1.18796z"/><path d="m364.81055 199.05078v10.54102c-1.97591 0-3.95183 0-5.92774 0v9.8457h5.95117c.22912 8.1958-.72669 16.50203.79532 24.60939 1.63632 4.09885 6.4338 5.93592 10.59491 5.54537 2.54211.0301 5.0665-.32082 7.59024-.57664 0-3.3177 0-6.63541 0-9.95312-2.24015-.23745-4.56377 1.06924-6.70117-.0234-.96128-3.90864.0147-7.94454-.39062-11.90547 0-2.56536 0-5.13073 0-7.69609h7.09375c0-3.2819 0-6.5638 0-9.8457-2.36459 0-4.72917 0-7.09375 0 0-3.58008 0-7.16016 0-10.74024-3.97071 0-7.94141 0-11.91211 0z"/><path d="m386.59766 209.79102v39.45312h11.87109c0-13.21745 0-26.4349 0-39.65234-3.95703 0-7.91406 0-11.87109 0z"/><path d="m419.46875 208.58008c-8.66359-.0622-17.06081 6.52034-18.45009 15.18854-1.84153 7.82023.10422 16.99807 6.49545 22.25746 8.33875 6.62761 22.04499 5.57922 28.71117-2.943 5.02822-6.80659 5.50693-16.40974 2.00088-23.99105-2.42025-5.11473-7.29964-8.94237-12.86432-10.00861-1.92769-.44269-3.91861-.58682-5.89309-.50334zm1.26563 10.24804c4.61054.17389 7.83099 4.87234 7.75133 9.22235.56444 4.4309-1.10561 9.72186-5.47009 11.60969-4.28264 1.61223-9.58471-1.51038-10.16542-6.03906-1.46786-4.8185-.46158-10.90181 3.95061-13.84927 1.19256-.66486 2.57685-.93948 3.93357-.94371z"/><path d="m462.47461 208.60742c-3.09206.17523-6.16273 1.24758-8.58008 3.20508.16969-1.19914-.7899-2.59118-2.11601-2.2207-3.12474 0-6.24948 0-9.37422 0v39.65234h11.82226c.35851-8.84093-.68881-17.77341.67391-26.54736 1.47614-3.46348 6.52398-5.21578 9.50578-2.70264 2.22635 2.81492 1.14361 6.60098 1.43399 9.88438.006 6.4552.0132 12.91041.0191 19.36562h11.92968c-.36096-10.50882.64966-21.08606-.68501-31.5449-1.75401-5.91979-8.12929-9.60599-14.13792-9.10848-.16384.006-.32768.0111-.49152.0167z"/><path d="m386.59766 196.1875v11.24023h11.87109c0-3.81315 0-7.6263 0-11.43945-3.95703 0-7.91406 0-11.87109 0z"/></g></g><g transform="translate(1.260484 4.001645)"><g><path d="m520.959 224.799c6.157-.256 12.684.695 12.684 8.244 0 5.463-4.03 8.521-9.277 8.521-6.147 0-9.268-4.398-9.031-10.229h-7.897c.185 10.074 5.811 16.836 16.929 16.836 9.277 0 17.041-5.627 17.041-14.729 0-6.24-3.283-11.006-8.726-12.092v-.102c4.563-1.709 6.772-5.625 6.772-10.424 0-8.51-7.672-12.846-15.119-12.846-9.736 0-15.588 6.965-15.956 16.406h7.774c-.104-5.002 2.576-9.902 7.998-9.902 4.337 0 7.487 2.793 7.487 6.875 0 5.912-5.38 7.723-10.679 7.59z"/><path d="m125.468 247.252h8.684v-18.863h13.103c14.074.063 16.78-9.072 16.78-15.158 0-6.146-2.706-15.25-16.78-15.25h-21.787zm8.684-42.275h12.765c4.567 0 8.475 1.719 8.475 8.193 0 6.207-4.741 8.182-8.648 8.182h-12.591v-16.375z"/><path d="m169.186 197.98h7.891v49.271h-7.891z"/><path d="m215.797 221.025c0-7.568-7.395-10.424-14.371-10.424-7.897 0-15.711 2.721-16.253 11.896h7.938c.241-3.877 3.396-5.625 7.814-5.625 3.248 0 7.416.766 7.416 4.838 0 4.602-5.068 3.938-10.745 5-6.547.758-13.722 2.23-13.722 11.141 0 6.936 5.83 10.412 12.233 10.412 4.199 0 9.226-1.34 12.382-4.367.604 3.324 2.93 4.367 6.04 4.367 1.33 0 3.866-.521 4.956-.85v-5.482c-.767.123-1.448.123-1.841.123-1.488 0-1.846-.756-1.846-2.721v-18.308zm-8.004 14.268c0 4.963-5.35 6.762-8.827 6.762-2.788 0-7.237-1.012-7.237-4.563 0-4.174 3.038-5.4 6.439-5.891 3.437-.613 7.237-.613 9.625-2.168z"/><path d="m232.618 247.221-.899 2.762c-.941 2.955-1.887 4.971-5.575 4.971-1.232 0-2.501-.275-3.728-.572v6.709c1.774.195 3.657.359 5.467.359 8.254 0 10.091-5.779 12.663-12.152l13.901-37.713h-8.295l-9.007 26.656h-.148l-9.334-26.656h-8.546z"/><path d="m256.103 230.875c.179 12.273 9.298 17.594 20.591 17.594 9.814 0 19.587-4.43 19.587-15.426 0-5.145-3.079-10.637-9.594-12.682-2.537-.688-13.43-3.488-14.192-3.715-3.539-1.021-5.927-2.895-5.927-6.371 0-5.002 5.028-6.455 9.078-6.455 5.943 0 10.245 2.342 10.684 8.787h8.572c0-10.352-8.572-15.814-18.887-15.814-8.935 0-18.059 4.604-18.059 14.504 0 5.115 2.45 10.281 10.925 12.51 6.766 1.842 11.261 2.773 14.729 4.092 2.03.809 4.097 2.322 4.097 6.004 0 3.816-2.864 7.539-10.464 7.539-6.915 0-12.52-2.967-12.52-10.566h-8.62z"/><path d="m299.13 211.584h5.907v-10.74h7.928v10.74h7.093v5.861h-7.093v19.055c0 3.264.317 4.941 3.764 4.941 1.12 0 2.24 0 3.33-.234v6.014c-1.749.193-3.375.398-5.068.398-8.214 0-9.804-3.119-9.953-9.113v-21.061h-5.907v-5.861z"/><path d="m356.309 221.025c0-7.568-7.375-10.424-14.361-10.424-7.815 0-15.67 2.721-16.212 11.896h7.927c.328-3.877 3.406-5.625 7.886-5.625 3.156 0 7.355.766 7.355 4.838 0 4.602-5.038 3.938-10.746 5-6.597.758-13.722 2.23-13.722 11.141 0 6.936 5.825 10.412 12.193 10.412 4.229 0 9.267-1.34 12.412-4.367.619 3.324 2.9 4.367 6.158 4.367 1.227 0 3.718-.521 4.919-.85v-5.482c-.833.123-1.529.123-1.958.123-1.442 0-1.852-.756-1.852-2.721v-18.308zm-7.887 14.268c0 4.963-5.385 6.762-8.863 6.762-2.741 0-7.237-1.012-7.237-4.563 0-4.174 2.997-5.4 6.398-5.891 3.478-.613 7.283-.613 9.702-2.168z"/><path d="m360.876 211.584h5.927v-10.74h7.927v10.74h7.094v5.861h-7.094v19.055c0 3.264.266 4.941 3.774 4.941 1.078 0 2.199 0 3.319-.234v6.014c-1.698.193-3.396.398-5.1.398-8.244 0-9.773-3.119-9.921-9.113v-21.061h-5.927v-5.861z"/><path d="m388.59 211.584h7.887v35.667999h-7.887z"/><path d="m420.432 248.264c11.467 0 18.023-7.855 18.023-18.83 0-10.945-6.557-18.832-18.023-18.832-11.497 0-18.043 7.887-18.043 18.832 0 10.974 6.546 18.83 18.043 18.83zm0-6.209c-7.098 0-10.167-6.383-10.167-12.621 0-6.18 3.069-12.561 10.167-12.561 7.018 0 10.137 6.381 10.137 12.561-.001 6.238-3.12 12.621-10.137 12.621z"/><path d="m444.397 247.252h7.855v-21.031c0-5.195 3.366-9.348 8.664-9.348 4.603 0 6.813 2.371 6.935 7.926v22.453h7.917v-24.488c0-7.979-4.909-12.162-12.683-12.162-4.654 0-8.776 2.434-11.109 6.414l-.174-.143v-5.289h-7.405z"/><path d="m388.59 197.98h7.887v7.455h-7.887z"/></g><g><path d="m421.659 19.551h-82.591c-25.474 0-37.958 15.741-37.958 36.179v62.087c0 12.684-5.989 21.788-18.631 21.788h-72.24c-.506 0-.925.419-.925.9v12.53c0 .512.419.941.925.941h81.768c25.464 0 37.979-15.67 37.979-36.118v-62.128c0-12.694 5.943-21.818 18.657-21.818h73.017c.573 0 1.023-.409 1.023-.921v-12.509c0-.491-.451-.931-1.024-.931z"/><path d="m178.54 19.551h-158.933c-.578 0-.998.44-.998.931v12.509c0 .512.419.941.998.941h149.374c12.627 0 18.621 9.104 18.621 21.797 0 12.643-5.994 21.726-18.621 21.726h-118.171c-18.351 0-32.2 15.415-32.2 35.862v39.687c0 .543.419.973.998.973h26.927c.527 0 .967-.43.967-.973v-39.687c0-12.612 7.247-21.511 17.762-21.511h113.276c25.423 0 37.887-15.62 37.887-36.067 0-20.415-12.464-36.188-37.887-36.188z"/><path d="m636.409 85.086c-.356-.399-.356-1.084 0-1.473 7.917-6.557 11.835-16.438 11.835-27.874 0-20.416-12.438-36.188-37.938-36.188h-158.892c-.542 0-.94.44-.94.972v12.468c0 .512.398.941.94.941h149.35c12.591 0 18.667 9.104 18.667 21.797 0 12.643-6.035 21.726-18.667 21.726h-.185l-149.165.031c-.542 0-.94.389-.94.961v12.459c0 .501.398.9.94.9h149.35c16.468.194 18.636 16.232 18.636 24.436l.031 1.544c0 12.714-6.076 21.859-18.667 21.859h-149.35c-.542 0-.94.388-.94.899v12.49c0 .512.398.941.94.941h158.893c25.521 0 37.938-16.939 37.938-36.189v-1.544c-.001-12.274-3.919-23.996-11.836-31.156z"/></g></g></g></svg>