<svg height="180mm" viewBox="0 0 465 180" width="465mm" xmlns="http://www.w3.org/2000/svg" xmlns:xlink="http://www.w3.org/1999/xlink"><linearGradient id="a" gradientUnits="userSpaceOnUse" x1="6.555049" x2="459.76326" y1="205.70446" y2="205.70446"><stop offset="0"/><stop offset="1" stop-opacity="0"/></linearGradient><g fill="#000080" stroke="url(#a)" transform="translate(0 -117)"><path d="m1735.1016 211.73438-66.0235 2.74609c-57.4988 2.39157-69.7486 4.50128-94.8808 16.34375-39.733 18.72249-54.7817 43.98396-61.4629 103.17578-2.7435 24.30569-9.0458 51.04588-14.0039 59.42188-13.8133 23.33512-43.5024 34.71611-97.0059 37.18554l-46.1211 2.12891v17.73437 17.73438l69.8399-2.375c76.2281-2.592 97.057-8.23143 120.5839-32.65039 21.6315-22.45157 26.2771-34.92869 30.9766-83.17969 2.5905-26.59672 8.1068-51.05378 13.4981-59.84375 12.5114-20.39898 39.5628-31.55054 83.666-34.49219 59.8465-3.99167 60.9336-4.44763 60.9336-25.52148zm-985.64066 51.73242-30.30664 1.52343c-27.1474 1.3637-30.48733 2.7508-32.04102 13.3125-.95399 6.48507-.43527 15.05217 1.15234 19.03711 2.01926 5.06793 11.64813 7.2461 32.04102 7.2461h29.1543v-20.5586zm474.37306 0v20.8125 20.8125l30.3066-1.52149 30.3086-1.52343v-17.76758-17.76758l-30.3086-1.52149zm-236.584.75586c-16.17883.0338-32.69063 1.51451-49.01367 4.60742-38.31753 7.26043-58.86869 16.28272-79.87695 35.0664-26.49328 23.68778-31.57545 39.1237-34.08204 103.48633l-2.32422 59.64649h31.49219 31.49024l2.96093-57.88282c4.37265-85.51032 19.62573-101.68313 96.11524-101.90234 49.03298-.14064 70.02418 6.90658 87.53908 29.38672 11.2251 14.40733 12.8018 22.43828 14.3789 73.28906l1.7715 57.10938h31.6152 31.6152l-3.3867-57.10938c-1.8629-31.4101-6.9064-66.57334-11.207-78.14062-15.1264-40.68545-78.9796-67.70324-149.0879-67.55664zm-799.76367.20703c-17.35296-.0136-34.60991 1.48834-50.61524 4.66406-41.867895 8.30729-54.834031 14.72953-78.503902 38.88086-25.652604 26.1744-31.00586 44.56217-31.00586 106.50977v52.54492h28.990234 28.988282l.107422-29.18946c.185181-51.00359 8.721275-92.77001 21.675784-106.05078 13.32577-13.66136 54.8649-27.21849 83.27148-27.17578 31.1304.0469 59.48335 10.21004 77.85938 27.9082 16.69046 16.07479 17.37983 18.31172 17.43554 56.58594.0319 21.91726 1.52735 48.41671 3.32422 58.88672l3.26758 19.03516h27.7793 27.77929l3.86524-59.56836c3.76109-57.97399 4.31128-59.9995 20.5332-75.62305 28.4172-27.36899 82.10567-34.77739 131.50391-18.14648 36.07018 12.14373 44.30049 28.91667 48.46289 98.76757l3.25195 54.57032h31.90039 31.90039l-2.95312-57.76368c-3.05586-59.75858-9.17939-79.53515-32.17188-103.90429-45.96215-48.71388-189.89605-54.69064-250.01953-10.38086-11.72259 8.63928-12.7676 8.52606-30.93164-3.3457-26.36772-17.2336-71.34885-27.17044-115.69531-27.20508zm1036.34767 70.10742v66.24609 66.2461h31.7832 31.7812l-1.4746-64.72266-1.4746-64.72461-30.3086-1.52344zm-537.62111.50586v65.99414 65.99219h31.62305 31.625v-65.99219-65.99414h-31.625z" stroke-width="5.172678" transform="matrix(.26458333 0 0 .26458333 0 117)"/><g stroke-width=".355593"><g transform="matrix(.87207952 0 0 2.0610605 59.428102 -1161.6888)"><path d="m75.532272 696.74989c3.607489 0 5.772009-.31636 5.772009-1.79356 0-1.09308-1.574244-1.67777-5.181733-1.67777h-4.984942v3.47133zm-6.296775 4.5616v-8.73625h7.411793c5.247267 0 6.624722 1.12981 6.624722 2.4404 0 1.95175-4.066656 2.43756-7.805366 2.43756h-4.32904v3.85829z"/><path d="m85.830051 701.31149h1.639784v-8.73625h-1.639784z"/><path d="m101.24394 698.00962c-1.44297.25422-2.95159.30505-4.394582.35308-2.558065.0847-4.132223.48582-4.132223 1.33316 0 .76827 1.574158 1.12982 3.148342 1.12982 2.689263 0 5.378463-.55927 5.378463-1.83313zm-2.88599-.36155c.65593-.0254 1.70538-.0988 2.23012-.209.59027-.10733.65587-.43498.65587-.65247 0-.74002-1.04942-1.27384-3.673084-1.27384-2.295682 0-3.93544.32764-4.263391 1.41791h-1.705374c.262351-1.48006 2.82039-2.07602 6.03436-2.07602 2.951619 0 5.247269.49992 5.247269 1.95455v3.42049c0 .57056.39355.70333 1.77097.48583v.57055c-.19673.0367-.78709.12146-1.31183.12146-.26233 0-.45914-.0113-.72147-.0367-1.18063-.0706-1.37745-.49712-1.37745-.93492-1.37738.68073-3.345132 1.04508-5.444058 1.04508-2.558012 0-4.853754-.59598-4.853754-1.8077 0-1.05354 1.70538-1.69753 5.116138-1.89241l2.295684-.13278"/><path d="m107.08157 703.02031c.45914.0367.91828.0763 1.37743.0763 1.96774 0 2.23006-1.19194 2.88602-1.73709l-5.70641-6.33257h1.9021l4.72259 5.40048 4.65694-5.40048h1.83656l-5.44408 6.19982c-1.37743 1.57608-2.29566 2.55903-4.65696 2.55903-.59031 0-1.11505-.0367-1.57419-.0847v-.68073"/><path d="m122.75784 698.70163c.32795 1.56478 2.68929 2.13534 5.83763 2.13534 3.60748 0 5.11614-.84735 5.11614-1.80769 0-2.70589-12.3312-.90949-12.3312-4.3413 0-1.21453 2.29575-2.34152 6.88711-2.34152 4.5258 0 6.82146 1.1863 6.75587 2.60987h-1.77092c0-1.33602-2.42688-1.90658-4.98495-1.90658-3.93549 0-5.31286 1.03098-4.98491 1.92916.85269 2.25399 12.39672.62989 12.39672 4.01364 0 1.60433-2.75487 2.54772-7.41181 2.54772-4.26344 0-7.41179-.94339-7.41179-2.83864z"/><path d="m144.46855 701.3341c-.39359.0367-1.1151.14686-1.96777.14686-1.63977 0-2.55805-.31634-2.55805-1.25127v-4.59831h-2.09887v-.60445h2.09887v-1.74837h1.70535v1.74837h2.68928v.60445h-2.68928v4.30739c0 .6214 0 .88691 1.44305.88691.45915 0 .91828-.0367 1.37742-.0847v.59317"/><path d="m157.12762 698.00962c-1.44303.25422-2.886.30505-4.32904.35308-2.55802.0847-4.13222.48582-4.13222 1.33316 0 .76827 1.5742 1.12982 3.14839 1.12982 2.6892 0 5.31287-.55927 5.31287-1.83313zm-2.8204-.36155c.59028-.0254 1.63978-.0988 2.23006-.209.52474-.10733.59034-.43498.59034-.65247 0-.74002-.98388-1.27384-3.60749-1.27384-2.36131 0-3.93549.32764-4.26345 1.41791h-1.70538c.26237-1.48006 2.82042-2.07602 5.96883-2.07602 2.95157 0 5.31287.49992 5.31287 1.95455v3.42049c0 .57056.32795.70333 1.77095.48583v.57055c-.26235.0367-.8527.12146-1.31179.12146-.26241 0-.52476-.0113-.78715-.0367-1.11504-.0706-1.31176-.49712-1.31176-.93492-1.44306.68073-3.34517 1.04508-5.4441 1.04508-2.55805 0-4.91932-.59598-4.91932-1.8077 0-1.05354 1.70536-1.69753 5.11606-1.89241l2.36133-.13278"/><path d="m168.80288 701.3341c-.3936.0367-1.11511.14686-1.96779.14686-1.63978 0-2.55806-.31634-2.55806-1.25127v-4.59831h-2.03334v-.60445h2.03334v-1.74837h1.70537v1.74837h2.68925v.60445h-2.68925v4.30739c0 .6214 0 .88691 1.44303.88691.45916 0 .91832-.0367 1.37745-.0847v.59317"/><path d="m173.85333 701.31149h-1.63975v-6.28456h1.63975zm-1.77092-7.65729v-1.07896h1.90215v1.07896z"/><path d="m183.82322 695.51276c-3.54192 0-4.91935 1.29644-4.91935 2.65504 0 1.56477 1.70539 2.65788 4.91935 2.65788 3.54194 0 4.98491-1.3106 4.98491-2.65788 0-1.48004-1.37742-2.65504-4.98491-2.65504zm-6.75592 2.65504c0-1.83029 2.29571-3.31315 6.75592-3.31315 4.59137 0 6.82148 1.46874 6.82148 3.31315 0 1.9913-2.68926 3.31316-6.82148 3.31316-3.67311-.0254-6.75592-1.11569-6.75592-3.31316"/><path d="m194.71137 701.31149h-1.70539v-6.28456h1.70539v.87279c1.31182-.61858 2.68919-1.04507 4.65693-1.04507 1.83657 0 3.41075.24289 4.46023.89818.7215.45194.78709.92361.78709 1.44335v4.11531h-1.70536v-4.1012c0-1.12698-1.11506-1.69753-3.80432-1.69753-2.09892 0-3.54189.58184-4.06663 1.22301-.32794.40109-.32794.75416-.32794 1.19195z"/><path d="m211.24033 699.26937c-.1968-.0396-.45916-.0593-.85269-.0593h-.52474v.58187h.59037c.26232 0 .52467-.0113.65586-.0339.26236-.0452.39354-.12993.39354-.25422 0-.11581-.13118-.19488-.26234-.23442zm-.72153-.25703c.45914 0 .78709.0169 1.04948.0565.39354.0706.52472.20618.52472.41236 0 .14406-.0656.24857-.32797.31636-.13116.0367-.32795.0621-.5247.0791.26234.0198.45916.0762.5903.16101.13119.0875.19679.17227.19679.25419v.11864c0 .0395 0 .0819.0656.12145v.0875.0198h-.59033c0-.005 0-.0113 0-.0141 0-.005 0-.0141 0-.0226l-.0656-.0508v-.12994c0-.19207-.1312-.31633-.32795-.37566-.13119-.0367-.39354-.0536-.72149-.0536h-.52474v.64682h-.65588v-1.62692zm-2.03333-.0847c-.59028.24855-.8527.55079-.8527.90101 0 .35871.26242.66095.8527.9095.59033.25138 1.24623.37567 2.09891.37567.8527 0 1.50862-.12429 2.09894-.37567.59033-.24855.85269-.55079.85269-.9095 0-.35022-.26236-.65246-.85269-.90101-.59032-.24855-1.24624-.37282-2.09894-.37282-.85268 0-1.50858.12427-2.09891.37282zm4.5258 1.94891c-.6559.28812-1.5086.43498-2.42689.43498-.91827 0-1.77091-.14686-2.42686-.43498-.65588-.28809-.98384-.63833-.98384-1.0479 0-.40389.32796-.75414.98384-1.03942.65595-.29092 1.50859-.43215 2.42686-.43215.91829 0 1.77099.14123 2.42689.43215.65593.28247.98388.63269.98388 1.03942 0 .40957-.32795.75981-.98388 1.0479"/><path d="m225.5392 696.74989c3.60748 0 5.83759-.31636 5.83759-1.79356 0-1.09308-1.63974-1.67777-5.24727-1.67777h-4.98491v3.47133zm-6.29679 4.5616v-8.73625h7.41181c5.24735 0 6.62471 1.12981 6.62471 2.4404 0 1.95175-4.00106 2.43756-7.80533 2.43756h-4.32899v3.85829z"/><path d="m240.82192 695.51276c-3.5419 0-4.98492 1.29644-4.98492 2.65504 0 1.56477 1.77097 2.65788 4.98492 2.65788 3.54191 0 4.98494-1.3106 4.98494-2.65788-.0656-1.48004-1.37743-2.65504-4.98494-2.65504zm-6.7559 2.65504c0-1.83029 2.23012-3.31315 6.7559-3.31315 4.59139 0 6.75591 1.46874 6.75591 3.31315 0 1.9913-2.68926 3.31316-6.75591 3.31316-3.73869-.0254-6.7559-1.11569-6.7559-3.31316"/><path d="m251.77563 701.31149h-1.70534v-6.28456h1.70534v1.17784h.0656c.91829-1.00837 2.29572-1.35012 4.7226-1.35012v.79085c-3.80431-.0367-4.78818 1.175-4.78818 2.58161v3.08438"/><path d="m266.00893 701.3341c-.39354.0367-1.11504.14686-1.90216.14686-1.70533 0-2.62364-.31634-2.62364-1.25127v-4.59831h-2.0333v-.60445h2.0333v-1.74837h1.70537v1.74837h2.75483v.60445h-2.75483v4.30739c0 .6214.0656.88691 1.443.88691.45914 0 .98389-.0367 1.37743-.0847v.59317"/><path d="m278.14325 698.00962c-1.44297.25422-2.88599.30505-4.32899.35308-2.55805.0847-4.13222.48582-4.13222 1.33316 0 .76827 1.57417 1.12982 3.14835 1.12982 2.68925 0 5.31286-.55927 5.31286-1.83313zm-2.8204-.36155c.59035-.0254 1.63979-.0988 2.23012-.209.52474-.10733.59028-.43498.59028-.65247 0-.74002-.98383-1.27384-3.60749-1.27384-2.36128 0-3.93543.32764-4.26339 1.41791h-1.70537c.26234-1.48006 2.82039-2.07602 5.96876-2.07602 2.95162 0 5.31287.49992 5.31287 1.95455v3.42049c0 .57056.328.70333 1.77097.48583v.57055c-.26232.0367-.8527.12146-1.31183.12146-.26232 0-.52474-.0113-.78709-.0367-1.11502-.0706-1.31183-.49712-1.31183-.93492-1.44297.68073-3.34514 1.04508-5.444 1.04508-2.55807 0-4.91941-.59598-4.91941-1.8077 0-1.05354 1.70538-1.69753 5.11613-1.89241l2.36128-.13278"/><path d="m291.52387 700.82568c2.82042 0 4.91933-.88691 4.98493-2.46298.13119-1.5761-1.50858-2.84994-4.98493-2.84994-3.08275 0-4.91933 1.2117-4.91933 2.62963 0 1.51958 1.70538 2.68329 4.91933 2.68329zm-4.91933.48581h-1.70537v-8.73625h1.70537v3.45721c1.04943-.7626 3.14835-1.1778 5.18168-1.1778 4.46024 0 6.49355 1.5676 6.49355 3.32727 0 1.85289-1.83657 3.29904-6.55909 3.29904-1.90219 0-4.06671-.4491-5.11614-1.27386z"/><path d="m302.01848 701.31149h1.70532v-8.73625h-1.70532z"/><path d="m318.41625 697.72999c0-1.22303-1.57418-2.21723-4.59139-2.21723s-4.59138 1.03094-4.91932 2.21723zm-9.51071.61009c0 1.35578 1.70537 2.4856 4.91932 2.4856 2.16452 0 3.93544-.52257 4.39461-1.44334h1.90216c-.85269 1.18629-2.55807 2.09862-6.29677 2.09862-4.65699 0-6.69029-1.43203-6.69029-3.28774 0-1.83312 2.49247-3.33857 6.69029-3.33857 4.00106 0 6.42791 1.22866 6.42791 3.48543z"/></g><g transform="matrix(.87207953 0 0 1.8577617 61.864848 -1084.418)"><path d="m5.6776741 649.86855h119.5070459v15.26086h-114.784458v13.22723h-4.7225879v-15.26089h114.7845159v-11.19356h-114.7845159z"/><path d="m274.47016 665.12941v13.22723h-4.72252v-15.26089h114.78451v-11.19356h-114.78451v-2.03364h119.50703v15.26086z"/><path d="m186.11894 649.86855v26.45442h-60.93422v2.03367h65.9191v-26.45445h60.93418v-2.03364z"/></g></g></g></svg>