<svg clip-rule="evenodd" fill-rule="evenodd" stroke-linejoin="round" stroke-miterlimit="2" viewBox="0 0 568 114" xmlns="http://www.w3.org/2000/svg"><g fill-rule="nonzero"><path d="m165.884 28.918v57.54h10.078v-51.363h6.186c4.461 0 6.475.12 7.233.437 1.496.625 3.036 2.529 3.667 4.521.331 1.047.604 3.313.701 5.831.2 5.154-.398 8.356-1.971 10.433-1.641 2.168-2.645 2.51-7.284 2.51h-3.982v6.246l6.257-.121 6.258-.121 2.214-1.047c4.045-1.908 6.982-5.811 8.167-10.84.662-2.808.652-9.086-.021-12.099-.646-2.896-1.991-5.813-3.504-7.579-.633-.738-1.857-1.797-2.712-2.347-2.933-1.882-4.062-2.001-18.356-2.001zm44.535 0v57.54h10.077v-57.54zm126.372 0c-4.514.001-9.158.16-10.32.346-2.623.418-5.682 1.805-7.416 3.372-1.748 1.579-3.236 3.949-4.043 6.44-.502 1.548-.66 2.959-.68 5.933-.029 4.103.316 5.851 1.727 8.614.916 1.798 3.361 4.393 5.039 5.363 1.949 1.13 4.441 1.728 8.727 2.072 3.26.264 4.02.426 5.08 1.129.834.551 1.564 1.453 2.184 2.711.869 1.771.918 2.142.914 5.953-.004 3.801-.057 4.176-.896 5.771-.566 1.084-1.385 2.032-2.242 2.602l-1.354.895-8.563.103-8.553.092v6.145h9.73c5.92 0 10.412-.146 11.459-.367 3.984-.838 7.299-3.42 8.908-6.938 1.355-2.963 1.834-6.008 1.656-10.576-.188-4.816-.9-7.44-2.824-10.32-2.391-3.575-5.064-4.801-11.855-5.423-2.512-.23-5.086-.635-5.719-.904-1.398-.592-2.705-2.082-3.281-3.738-.568-1.633-.561-6.361.021-8.359.57-1.973 2.305-3.79 4.135-4.338.883-.266 3.852-.396 8.848-.396h7.527v-6.18h-8.209zm115.806 0v8.453h10.078v-8.453zm-96.902 6.502.104 20.723c.09 20.398.105 20.754.803 22.604.391 1.033 1.227 2.58 1.857 3.443 1.293 1.76 2.973 2.994 5.1 3.738 1.023.359 2.762.498 6.064.51l4.633.02v-6.176h-3.027c-2.881 0-3.07-.039-3.891-.895-.508-.529-1.006-1.563-1.207-2.52-.221-1.033-.313-6.406-.256-14.791l.092-13.165 10.89-.184v-6.156h-11.052v-7.151zm69.596 0v20.469c0 19.797.023 20.54.672 22.512.771 2.348 2.338 4.672 4.043 5.973.65.498 1.939 1.166 2.863 1.482 1.289.445 2.73.582 6.156.59l4.469.01v-6.176h-2.885c-2.41 0-3.02-.104-3.727-.662-.467-.365-.996-1.205-1.18-1.867-.205-.74-.336-6.584-.336-15.106v-13.897h11.074l-.094-3.007-.092-3.008-5.445-.09-5.441-.093v-7.13zm-8.889 7.069-10.758.174c-11.568.178-12.766.32-16.162 2.042-3.799 1.925-6.447 5.663-7.648 10.788-.502 2.138-.59 3.979-.59 12.109 0 9.23.027 9.661.742 11.428 1.441 3.561 3.586 5.76 6.674 6.826 1.361.471 2.781.58 7.457.588l5.771.012v-6.178h-4.043c-3.828 0-4.088-.047-4.998-.813-.602-.506-1.092-1.35-1.32-2.256-.453-1.793-.475-15.937-.031-19.361.631-4.865 1.727-7.146 4.014-8.371.787-.42 2.146-.57 5.975-.67l4.957-.132v37.781h10.402v-12.141c0-6.674-.104-16.566-.225-21.982zm-152.672.011-10.808.162c-11.746.181-13.433.396-16.64 2.113-3.725 1.994-6.385 5.936-7.508 11.123-.713 3.295-1.047 16.791-.498 20.054.48 2.846 1.811 5.713 3.404 7.334 1.172 1.192 3.117 2.368 4.743 2.864.447.138 3.481.259 6.745.272l5.932.031v-6.173h-4.154c-4.686 0-5.303-.221-6.186-2.234-.395-.897-.549-2.662-.65-7.416-.146-6.756.324-14.086 1.056-16.52.657-2.185 1.881-3.863 3.321-4.57 1.052-.516 2.019-.613 6.125-.62l4.875-.011.082 18.773.082 18.771h10.078v-21.98zm10.85.071c-2.928 0-5.319.037-5.313.082.004.045 3.346 9.857 7.426 21.811l7.416 21.738-4.176 10.77c-2.295 5.927-4.175 10.818-4.175 10.869 0 .05 1.993.05 4.429 0l4.43-.092 12.951-32.508c7.127-17.879 12.963-32.542 12.963-32.588.002-.045-2.102-.082-4.684-.082-3.404 0-4.766.113-4.947.408-.137.223-2.627 6.543-5.525 14.049-2.897 7.504-5.397 13.688-5.565 13.744-.17.057-2.472-6.266-5.108-14.049l-4.796-14.152zm178.017 0v43.884h10.078v-43.884zm60.951.162-.094 21.861h.012l-.092 21.861h10.412v-37.779l4.957.133c5.262.137 6.141.356 7.619 1.939 1.158 1.24 1.986 3.499 2.355 6.439.191 1.539.348 8.603.348 16.01v13.259h10.074l-.01-12.922c-.002-13.705-.242-16.957-1.563-20.673-1.797-5.053-5.104-8.049-10.482-9.508-1.779-.483-3.68-.567-12.811-.59zm-25.478.092c-2.842 0-5.674.357-7.709 1.057-2.709.932-4.41 2.023-6.117 3.921-1.852 2.06-3.193 4.849-3.98 8.259-.48 2.09-.596 3.845-.566 8.938.025 5.359.133 6.729.711 8.849.979 3.596 2.26 6.017 4.205 7.985 1.916 1.938 4.748 3.422 7.936 4.146 1.434.324 3.422.427 6.461.345 5.238-.14 7.73-.814 10.787-2.904 2.563-1.752 4.5-4.517 5.598-7.996 1.57-4.967 1.846-13.156.641-19.199-.586-2.936-2.01-6.119-3.598-8.056-1.492-1.821-3.936-3.418-6.551-4.287-2.115-.701-4.976-1.058-7.818-1.058zm.123 6.054c1.475 0 2.953.285 4.113.873 1.514.768 2.465 2.104 3.291 4.632.541 1.653.676 3.158.803 8.625.166 7.141-.162 10.506-1.27 13.043-.781 1.793-2.045 3.186-3.434 3.779-.594.254-2.156.446-3.605.446-2.055 0-2.844-.146-3.992-.75-.902-.478-1.773-1.295-2.336-2.205-1.469-2.37-1.953-5.479-1.973-12.483-.016-6.668.328-9.348 1.557-12.06.416-.92 1.256-2.043 1.879-2.52 1.184-.903 3.07-1.38 4.967-1.38z" fill="#e2e2e2"/><path d="m559.435 83.913h.77v-2.836h1.756c.48 0 .795.078.939.232.139.148.229.492.268 1.031l.068.836c.012.16.027.293.055.4.021.114.063.228.117.334h.807v-.209c-.064-.058-.107-.125-.135-.205-.037-.095-.064-.211-.072-.351l-.07-.972c-.047-.473-.109-.797-.189-.973-.117-.264-.322-.422-.611-.477.311-.07.555-.244.742-.525.189-.285.283-.633.283-1.039 0-.334-.068-.625-.207-.871-.145-.274-.352-.486-.617-.635-.217-.119-.477-.197-.777-.234-.199-.022-.508-.035-.914-.035h-2.209v6.527h-.004zm.772-3.538v-2.289h1.557c.305 0 .523.009.662.022.205.033.369.093.488.175.146.096.256.219.328.368.08.158.121.334.121.526 0 .433-.121.738-.367.921-.246.185-.648.274-1.207.274z"/><path d="m560.436 84.912h-1.002v-1 1-1h-.997v-7.527h3.209c.429 0 .757.013 1.035.043.399.049.785.157 1.144.354.428.234.787.604 1 1.017.236.419.338.894.336 1.361.002.557-.134 1.12-.451 1.595-.013.021-.026.041-.041.061.164.395.204.75.265 1.287l.07.963.21.188v1.657h-2.417l-.279-.543c-.093-.183-.168-.383-.197-.544-.051-.211-.068-.39-.081-.565l-.07-.845c-.007-.135-.021-.246-.034-.332-.05-.004-.108-.006-.174-.006h-.757v2.837h-.769zm.77-5.539.582-.001c.226 0 .396-.019.5-.042.029-.007.05-.012.065-.016.005-.03.009-.075.009-.136-.001-.032-.004-.049-.009-.063-.015-.005-.035-.011-.027-.011-.08-.009-.28-.02-.563-.02h-.557zm-1.772 4.539v1z" fill="#e5e5e5"/><path d="m555.467 80.648c0-3.486 2.807-6.316 6.286-6.355.023-.002.047-.003.07-.003 3.508.002 6.354 2.846 6.355 6.358h-.002c0 3.51-2.844 6.355-6.354 6.355s-6.355-2.843-6.355-6.355zm2 0c.004 2.407 1.948 4.352 4.356 4.356 2.403-.005 4.35-1.953 4.354-4.356-.005-2.365-1.885-4.283-4.227-4.354h-.128c-2.406.003-4.351 1.948-4.355 4.354zm3.952-4.442c.126.053.22.072.294.079-.088-.01-.173-.031-.255-.063-.059-.023-.115-.052-.17-.086-.013-.008-.025-.017-.038-.025.06.042.119.074.169.095zm-.47-.431c-.002-.003-.003-.005-.005-.008.002.003.003.005.005.008zm-.012-.021c-.002-.004-.003-.007-.005-.01.002.004.003.006.005.01zm-.113-.466c0-.114.021-.227.059-.333-.031.078-.062.186-.059.333z" fill="#e5e5e5"/><g transform="translate(-61.6856 -312.868)"><path d="m142.207 336.374-.099 89.525-23.986-7.801v-105.23l30.618 8.096c19.599 5.267 31.592 15.507 31.398 33.45-.195 20.873-9.849 29.257-28.667 23.796v-41.154c-.002-4.976-9.264-5.267-9.264-.682z" fill="#de0029"/><path d="m107.102 400.738-11.311 3.805c-7.314 2.537-13.554-3.412-6.826-5.854l5.46-1.947-20.575-6.537c-6.338 2.148-12.288 6.73-11.896 13.168.39 6.533 15.309 8.096 26.815 9.947 10.726 1.754 20.477.779 29.351-2.342v-6.73zm35.2 25.162 20.965-7.313-21.16-6.729v13.558z" fill="#f3c202"/><path d="m198.08 406.299.389-.099c9.167-3.218 13.067-7.707 12.092-11.898-1.56-7.021-12.773-10.826-30.033-12.094-12.384-.877-24.572 1.854-36.468 5.947l-1.95.686 21.355 6.633 12.48-4.197c13.067-2.436 18.333 1.854 5.755 5.854l-6.242 2.146zm-79.958-31.013-9.459 3.217 9.459 2.926z" fill="#326db3"/><path d="m163.268 418.585 34.812-12.286-22.624-7.022-33.348 11.41v1.17zm-45.146-21.552-11.019 3.705 11.019 3.512zm23.985 5.755v-13.945l21.355 6.631zm-47.682-6.046 23.696-8.485v-6.826l-9.459-2.927-34.324 11.605c-.097 0-.292.096-.487.096z" fill="#00aa9e"/></g></g></svg>