<svg height="171.83997" viewBox="0 0 600.27198 171.83996" width="600.27197" xmlns="http://www.w3.org/2000/svg"><g stroke-width="2.976166"><path d="m87.141923 40.815546h-35.400099v13.078854h32.37743q7.091646 0 9.649288 2.499514 2.615771 2.441386 2.615771 9.416775v6.045337q0 6.975389-2.557642 9.474904-2.499515 2.441386-9.707417 2.441386h-30.691711q-7.207902 0-9.823673-2.441386-2.557643-2.499515-2.557643-9.474904v-1.395077l8.719237-1.801976v7.498543h38.073998v-14.183291h-32.493687q-7.149774 0-9.707417-2.441386-2.557642-2.499514-2.557642-9.474903v-4.766516q0-6.917261 2.557642-9.416775 2.557643-2.557643 9.707417-2.557643h28.07594q7.033518 0 9.707417 2.441387 2.673899 2.441386 2.673899 8.602979v1.220693l-8.661108 1.860104z"/><path d="m161.95297 40.815546h-35.22572v35.34197h35.22572v-12.032546l9.53303 1.801976v5.92908q0 6.917261-2.61577 9.416776-2.55764 2.499514-9.76555 2.499514h-29.6454q-7.2079 0-9.76554-2.383258-2.49952-2.441386-2.49952-9.533032v-26.564606q0-7.033517 2.55764-9.474903 2.55765-2.499515 9.70742-2.499515h29.6454q7.20791 0 9.76555 2.557643 2.61577 2.499514 2.61577 9.416775v4.766516l-9.53303 1.569462z"/><path d="m186.88998 56.393914v-8.719236h25.92519v8.719236z"/><path d="m247.80839 83.772316q-7.78918 0-10.52121-2.499514-2.6739-2.557643-2.6739-9.533032v-4.999029l9.76554-2.267001v10.869981h35.45823q3.37144 0 4.41775-1.046308 1.10443-1.104437 1.10443-4.475875v-8.196082q0-3.429566-1.10443-4.475875-1.10444-1.104436-4.41775-1.104436h-21.73996v-7.847313h19.47296q3.31331 0 4.41775-1.336949 1.10443-1.33695 1.10443-5.696568v-3.603951q0-4.30149-1.10443-5.638439-1.10444-1.33695-4.41775-1.33695h-32.84246v9.474903l-9.30051-1.860103v-3.836464q0-6.917261 2.67389-9.474904 2.73203-2.557642 10.57934-2.557642h31.15674q7.84731 0 10.52121 2.557642 2.73203 2.557643 2.73203 9.474904v5.580311q0 5.28967-2.15074 7.905441-2.09262 2.615771-7.14978 3.778335 6.1616.930052 8.83549 3.894593 2.73203 2.906412 2.73203 8.602979v6.452235q0 7.556672-3.13892 10.404955-3.0808 2.790156-10.92811 2.790156z"/><path d="m320.35243 36.862825q0-8.428595 2.73203-11.451263 2.79015-3.080797 10.46308-3.080797h39.06218q7.6148 0 10.40495 3.080797 2.79016 3.022668 2.79016 11.451263v32.377431q0 8.428595-2.79016 11.509391-2.79015 3.022669-10.40495 3.022669h-39.06218q-7.67293 0-10.46308-3.022669-2.73203-3.022668-2.73203-11.509391zm9.8818 38.480896h45.6888v-44.758746h-45.6888z"/><path d="m409.40489 36.862825q0-8.428595 2.73203-11.451263 2.79015-3.080797 10.46308-3.080797h39.06218q7.6148 0 10.40495 3.080797 2.79016 3.022668 2.79016 11.451263v32.377431q0 8.428595-2.79016 11.509391-2.79015 3.022669-10.40495 3.022669h-39.06218q-7.67293 0-10.46308-3.022669-2.73203-3.022668-2.73203-11.509391zm9.8818 38.480896h45.6888v-44.758746h-45.6888z"/><path d="m498.45735 36.862825q0-8.428595 2.73203-11.451263 2.79015-3.080797 10.46308-3.080797h39.06218q7.6148 0 10.40495 3.080797 2.79016 3.022668 2.79016 11.451263v32.377431q0 8.428595-2.79016 11.509391-2.79015 3.022669-10.40495 3.022669h-39.06218q-7.67293 0-10.46308-3.022669-2.73203-3.022668-2.73203-11.509391zm9.8818 38.480896h45.6888v-44.758746h-45.6888z"/></g><g fill="#00f" stroke-width="1.396696"><path d="m32.969984 119.23146h-13.503214v7.4745h13.503214q1.500357 0 2.073221-.49102.600143-.51831.600143-1.74587v-3.00072q0-1.22756-.572864-1.71859-.572864-.5183-2.1005-.5183zm-17.977006 20.2139v-23.67837h19.995668q2.755202 0 3.955487 1.06389 1.227565 1.06389 1.227565 3.51902v5.29217q0 2.40057-1.227565 3.46446-1.200285 1.06389-3.955487 1.06389h-15.521876v9.27494z"/><path d="m48.819211 139.44536v-23.67837h23.842038v3.51902h-19.368246v6.08327h11.675506v3.51902h-11.675506v7.0926h19.58648v3.46446z"/><path d="m98.412833 119.23146h-12.603v7.63818h12.603q1.500357 0 2.018667-.49103.5183-.49102.5183-1.90954v-2.83704q0-1.30941-.54558-1.85499-.545588-.54558-1.991387-.54558zm-17.076792 20.2139v-23.67837h19.040899q2.64608 0 3.79181 1.09117 1.17301 1.06389 1.17301 3.49174v5.29217q0 2.40057-1.17301 3.46446-1.14573 1.06389-3.79181 1.06389h-3.137113l10.447943 9.27494h-5.97415l-9.438612-9.27494h-6.465175v9.27494z"/><path d="m136.49462 119.28601h-16.61305v6.13783h15.19453q3.32806 0 4.52835 1.17301 1.22757 1.14572 1.22757 4.41923v2.83704q0 3.2735-1.20029 4.44651-1.17301 1.14573-4.55563 1.14573h-14.40343q-3.38262 0-4.61019-1.14573-1.20028-1.17301-1.20028-4.44651v-.6547l4.09188-.84566v3.51902h17.86789v-6.65613h-15.24908q-3.35535 0-4.55563-1.14573-1.20029-1.173-1.20029-4.44651v-2.2369q0-3.24622 1.20029-4.41923 1.20028-1.20029 4.55563-1.20029h13.17586q3.30078 0 4.55563 1.14573 1.25484 1.14573 1.25484 4.03733v.57286l-4.0646.87294z"/><path d="m155.07178 135.87178h19.77743v-16.58577h-19.77743zm-4.47379-14.48527q0-3.24622 1.22756-4.41923 1.22757-1.20029 4.58291-1.20029h17.10407q3.35535 0 4.58291 1.20029 1.22756 1.17301 1.22756 4.41923v12.46661q0 3.24623-1.22756 4.41923-1.20029 1.17301-4.58291 1.17301h-17.10407q-3.4099 0-4.61019-1.14573-1.20028-1.17301-1.20028-4.44651z"/><path d="m193.48093 120.51358q.16367 1.03661.24551 2.1005.0818 1.06389.0818 2.12778v14.7035h-4.11917v-23.67837h3.40991l17.37686 15.46732q.76382.6547 1.4458 1.4458.70926.7911 1.39124 1.80043-.19096-1.06389-.30007-2.15506-.0818-1.09117-.0818-2.26417v-14.29432h4.11916v23.67837h-3.05527l-17.73149-15.68555q-.9275-.87294-1.60948-1.63676-.6547-.79109-1.173-1.60947z"/><path d="m224.11548 139.44536 13.69417-23.67837h4.09188l14.02152 23.67837h-4.8557l-3.08255-5.53768h-16.36753l-3.02799 5.53768zm9.38405-8.94759h12.57573l-6.3015-11.26631z"/><path d="m263.01565 139.44536v-23.67837h4.47379v20.10479h18.41348v3.57358z"/><path d="m334.29627 119.28601h-16.53121v16.58577h16.53121v-5.6468l4.47379.84566v2.78248q0 3.24623-1.22756 4.41923-1.20029 1.17301-4.58291 1.17301h-13.91241q-3.38262 0-4.5829-1.11845-1.17301-1.14573-1.17301-4.47379v-12.46661q0-3.30078 1.20028-4.44651 1.20029-1.17301 4.55563-1.17301h13.91241q3.38262 0 4.58291 1.20029 1.22756 1.17301 1.22756 4.41923v2.2369l-4.47379.73654z"/><path d="m352.24599 135.87178h19.77743v-16.58577h-19.77743zm-4.47379-14.48527q0-3.24622 1.22756-4.41923 1.22757-1.20029 4.58291-1.20029h17.10407q3.35534 0 4.58291 1.20029 1.22756 1.17301 1.22756 4.41923v12.46661q0 3.24623-1.22756 4.41923-1.20029 1.17301-4.58291 1.17301h-17.10407q-3.4099 0-4.61019-1.14573-1.20028-1.17301-1.20028-4.44651z"/><path d="m390.43689 120.15895q0 .5183.0546 1.41852.0546 1.47308.0546 1.88227v15.98562h-3.68269v-23.67837h3.68269l11.78463 15.35821 10.82985-15.35821h4.14644v23.67837h-4.14644v-15.98562q0-.87294.0546-1.69132.0818-.81837.21823-1.58219-.38191 1.11845-.7911 1.99138-.40919.84566-.76382 1.28213l-9.11126 12.24837h-1.173l-9.43861-12.13926q-.49103-.62742-.9275-1.47308-.43646-.84565-.79109-1.93682z"/><path d="m446.30473 119.23146h-13.50321v7.4745h13.50321q1.50036 0 2.07322-.49102.60014-.51831.60014-1.74587v-3.00072q0-1.22756-.57286-1.71859-.57286-.5183-2.1005-.5183zm-17.97701 20.2139v-23.67837h19.99567q2.7552 0 3.95549 1.06389 1.22757 1.06389 1.22757 3.51902v5.29217q0 2.40057-1.22757 3.46446-1.20029 1.06389-3.95549 1.06389h-15.52187v9.27494z"/><path d="m466.62775 115.76699v20.10479h17.29503v-20.10479h4.52835v18.08613q0 3.2735-1.22757 4.44651-1.20028 1.14573-4.58291 1.14573h-14.67622q-3.38262 0-4.61019-1.17301-1.20028-1.173-1.20028-4.41923v-18.08613z"/><path d="m510.84739 119.28601v20.15935h-4.44652v-20.15935h-11.18448v-3.51902h26.87003v3.51902z"/><path d="m528.8244 139.44536v-23.67837h23.84204v3.51902h-19.36825v6.08327h11.67551v3.51902h-11.67551v7.0926h19.58648v3.46446z"/><path d="m578.41798 119.23146h-12.603v7.63818h12.603q1.50035 0 2.01866-.49103.5183-.49102.5183-1.90954v-2.83704q0-1.30941-.54558-1.85499-.54559-.54558-1.99138-.54558zm-17.0768 20.2139v-23.67837h19.0409q2.64608 0 3.79181 1.09117 1.17301 1.06389 1.17301 3.49174v5.29217q0 2.40057-1.17301 3.46446-1.14573 1.06389-3.79181 1.06389h-3.13711l10.44794 9.27494h-5.97415l-9.43861-9.27494h-6.46517v9.27494z"/></g></svg>