<svg height="171.83997" viewBox="0 0 600.27198 171.83996" width="600.27197" xmlns="http://www.w3.org/2000/svg" xmlns:xlink="http://www.w3.org/1999/xlink"><linearGradient id="a" gradientTransform="matrix(1.0317796 0 0 1.0317796 -830.86406 592.67791)" gradientUnits="userSpaceOnUse" x1="1012.5133" x2="1006.8082" xlink:href="#b" y1="484.41721" y2="20.625916"/><linearGradient id="b" gradientTransform="matrix(1.0058652 0 0 .994169 100 0)" gradientUnits="userSpaceOnUse" x1="45.447727" x2="45.447727" y1="92.539597" y2="7.01654"><stop offset="0"/><stop offset="1" stop-opacity=".588235"/></linearGradient><linearGradient id="c" gradientTransform="matrix(1.0402541 0 0 1.0402541 -837.95116 592.51825)" gradientUnits="userSpaceOnUse" x1="1012.5133" x2="1006.8082" xlink:href="#b" y1="484.41721" y2="20.625916"/><linearGradient id="d" gradientTransform="matrix(1.023305 0 0 1.023305 -823.77704 592.83757)" gradientUnits="userSpaceOnUse" x1="1012.5133" x2="1006.8082" xlink:href="#b" y1="484.41721" y2="20.625916"/><linearGradient id="e" gradientTransform="matrix(1.0148305 0 0 1.0148305 -816.68996 592.99723)" gradientUnits="userSpaceOnUse" x1="1012.5133" x2="1006.8082" xlink:href="#b" y1="484.41721" y2="20.625916"/><linearGradient id="f" gradientTransform="matrix(1.0074153 0 0 1.0074153 -810.48879 593.1369)" gradientUnits="userSpaceOnUse" x1="1012.5133" x2="1006.8082" xlink:href="#b" y1="484.41721" y2="20.625916"/><linearGradient id="g" gradientUnits="userSpaceOnUse" x1="1772.03875" x2="1767.38531" y1="-309.047865" y2="3.17862"><stop offset="0" stop-color="#fff"/><stop offset="1" stop-color="#fff" stop-opacity="0"/></linearGradient><linearGradient id="h" gradientUnits="userSpaceOnUse" x1="1764.6487" x2="1763.6903" y1="155.59685" y2="-55.941216"><stop offset="0"/><stop offset="1" stop-color="#fff" stop-opacity=".2"/></linearGradient><linearGradient id="i"><stop offset="0" stop-color="#4d4d4d"/><stop offset="1" stop-color="#333"/></linearGradient><linearGradient id="j"><stop offset="0" stop-color="#c3b194"/><stop offset="1" stop-color="#e1c497"/></linearGradient><linearGradient id="k" gradientTransform="matrix(1 0 0 1.4 12 -2.4)" gradientUnits="userSpaceOnUse" x1="48" x2="48" y1="90" y2="5.987717"><stop offset="0" stop-color="#958741"/><stop offset="1" stop-color="#b4ba66"/></linearGradient><linearGradient id="l" gradientUnits="userSpaceOnUse" x1="211.047619" x2="211.047619" xlink:href="#j" y1="435.809523" y2="402.0952374"/><linearGradient id="m" gradientUnits="userSpaceOnUse" x1="177.3333334" x2="177.3333334" xlink:href="#j" y1="435.809523" y2="402.0952374"/><linearGradient id="n" gradientUnits="userSpaceOnUse" x1="334.6666662" x2="334.6666662" xlink:href="#i" y1="126.761905" y2="166.0952382"/><radialGradient id="o" cx="166.0952348" cy="166.0952348" gradientUnits="userSpaceOnUse" r="134.8571424" xlink:href="#i"/><linearGradient id="p" gradientUnits="userSpaceOnUse" x1="-262.1900652" x2="-262.1900652" y1="491.999999" y2="19.93098183833"><stop offset="0" stop-color="#3e8116"/><stop offset="1" stop-color="#66ae3b"/></linearGradient><g transform="matrix(.11555437 0 0 .11555437 375.56619 78.122116)"><g fill="#008080" stroke-width="4.59987" transform="matrix(8.6539349 0 0 8.6539349 -3250.1254 -676.06371)"><path d="m109.66371 83.992219h-54.713299v20.214271h50.041549q10.96063 0 14.91365 3.86317 4.04285 3.77333 4.04285 14.55428v9.34348q0 10.78095-3.95301 14.64412-3.86318 3.77333-15.00349 3.77333h-47.436154q-11.14031 0-15.183164-3.77333-3.953013-3.86317-3.953013-14.64412v-2.15618l13.476181-2.78508v11.58951h58.84599v-21.92125h-50.221234q-11.050469 0-15.003482-3.77333-3.953013-3.86317-3.953013-14.644119v-7.366979q0-10.691104 3.953013-14.554276 3.953013-3.953013 15.003482-3.953013h43.393304q10.87079 0 15.00348 3.773331 4.1327 3.77333 4.1327 13.296498v1.886666l-13.38634 2.874919z"/><path d="m157.99828 150.38487v-77.982167h78.52122v11.589516h-63.78726v20.034591h38.45204v11.58951h-38.45204v23.35872h64.50599v11.40983z"/><path d="m302.55278 83.992219v66.392651h-14.64412v-66.392651h-36.8349v-11.589516h88.4936v11.589516z"/><path d="m376.49211 72.402703v66.212967h56.95933v-66.212967h14.91364v59.564717q0 10.78095-4.04286 14.64412-3.95301 3.77333-15.09332 3.77333h-48.33457q-11.14031 0-15.18316-3.86317-3.95302-3.86317-3.95302-14.55428v-59.564717z"/><path d="m543.86628 83.812536h-44.4714v24.616494h44.4714q4.94127 0 6.82793-1.61714 1.97651-1.70699 1.97651-5.74984v-9.882535q0-4.042854-1.88667-5.659996-1.88666-1.706983-6.91777-1.706983zm-59.20536 66.572334v-77.982167h65.85361q9.07396 0 13.02698 3.503807 4.04285 3.503807 4.04285 11.589516v17.429194q0 7.90603-4.04285 11.40983-3.95302 3.50381-13.02698 3.50381h-51.11965v30.54601z"/></g><g transform="translate(-11.985071 -592.11719)"><path d="m133.44341 612.11719h284.08332c56.20792 0 101.45834 45.25042 101.45834 101.45834v284.08331c0 56.20796-45.25042 101.45836-101.45834 101.45836h-284.08332c-56.207918 0-101.458339-45.2504-101.458339-101.45836v-284.08331c0-56.20792 45.250421-101.45834 101.458339-101.45834z" fill="url(#a)" opacity=".1"/><path d="m134.27674 612.11719h286.41666c56.66959 0 102.29167 45.62208 102.29167 102.29167v286.41664c0 56.6696-45.62208 102.2917-102.29167 102.2917h-286.41666c-56.669583 0-102.291669-45.6221-102.291669-102.2917v-286.41664c0-56.66959 45.622086-102.29167 102.291669-102.29167z" fill="url(#c)" opacity=".08"/><path d="m132.61008 612.11719h281.74998c55.74626 0 100.62501 44.87875 100.62501 100.62501v281.74998c0 55.74622-44.87875 100.62502-100.62501 100.62502h-281.74998c-55.746255 0-100.625009-44.8788-100.625009-100.62502v-281.74998c0-55.74626 44.878754-100.62501 100.625009-100.62501z" fill="url(#d)" opacity=".2"/><path d="m131.77674 612.11719h279.41667c55.28458 0 99.79166 44.50708 99.79166 99.79166v279.41667c0 55.28458-44.50708 99.79168-99.79166 99.79168h-279.41667c-55.284587 0-99.791669-44.5071-99.791669-99.79168v-279.41667c0-55.28458 44.507082-99.79166 99.791669-99.79166z" fill="url(#e)" opacity=".25"/><path d="m131.04757 612.11719h277.375c54.88063 0 99.0625 44.18187 99.0625 99.0625v277.375c0 54.88061-44.18187 99.06251-99.0625 99.06251h-277.375c-54.880624 0-99.062499-44.1819-99.062499-99.06251v-277.375c0-54.88063 44.181875-99.0625 99.062499-99.0625z" fill="url(#f)" opacity=".25"/></g><path d="m118.34375 20c-54.476663 0-98.34375 43.867084-98.34375 98.34375v23.0625 252.25c0 54.47666 43.867087 98.34375 98.34375 98.34375h275.3125c54.47667 0 98.34375-43.86709 98.34375-98.34375v-252.25-23.0625c0-54.476666-43.86708-98.34375-98.34375-98.34375z" fill="url(#k)"/><path d="m118.34375 20c-54.476663 0-98.34375 43.867084-98.34375 98.34375v23.0625 252.25c0 54.47666 43.867087 98.34375 98.34375 98.34375h275.3125c10.31946 0 20.26177-1.57787 29.59375-4.5v-463c-9.33198-2.922132-19.27429-4.5-29.59375-4.5z" fill="url(#p)"/><path d="m42.476191 300.95238 33.714286 33.71429h179.809523l33.71429-33.71429v-89.90476l11.23809-11.2381h123.61905v-101.142853h-146.09524l-22.47619-22.47619h-89.90476l-11.2381 11.238095h-78.666663l-33.714286 33.714288zm101.247619 134.70976.6126-33.69298 11.6394-10.41419 208.17821.6126 14.37523-11.5657.65521-135.51236 22.91078-22.8038h22.47619v179.80953h-22.47619l-11.2381 11.23809h-33.71428l-11.2381 11.2381v22.47619l-22.47619 22.47619h-146.09524z" opacity=".15"/><path d="m300.95239 121.14286h78.66667v44.95238h-78.66667z" fill="url(#n)"/><path d="m76.190475 345.90475h22.476191v33.71429h-22.476191z" fill="#ccc"/><path d="m-480.7619 390.85715h56.19047v11.23809h-56.19047z" fill="#ffc441" transform="scale(-1 1)"/><path d="m-480.7619 368.38095h56.19047v11.2381h-56.19047z" fill="#ffc441" transform="scale(-1 1)"/><path d="m-480.7619 345.90475h56.19047v11.2381h-56.19047z" fill="#ffc441" transform="scale(-1 1)"/><path d="m-480.7619 323.42856h56.19047v11.23809h-56.19047z" fill="#ffc441" transform="scale(-1 1)"/><path d="m-480.7619 300.95239h56.19047v11.2381h-56.19047z" fill="#ffc441" transform="scale(-1 1)"/><path d="m-480.7619 278.4762h56.19047v11.23809h-56.19047z" fill="#ffc441" transform="scale(-1 1)"/><path d="m-480.7619 256h56.19047v11.2381h-56.19047z" fill="#ffc441" transform="scale(-1 1)"/><path d="m-480.7619 233.5238h56.19047v11.2381h-56.19047z" fill="#ffc441" transform="scale(-1 1)"/><path d="m-480.7619 177.33333h56.19047v11.23809h-56.19047z" fill="#ffc441" transform="scale(-1 1)"/><path d="m-480.7619 154.85715h56.19047v11.23809h-56.19047z" fill="#ffc441" transform="scale(-1 1)"/><path d="m-480.7619 132.38095h56.19047v11.2381h-56.19047z" fill="#ffc441" transform="scale(-1 1)"/><path d="m-480.7619 109.90476h56.19047v11.2381h-56.19047z" fill="#ffc441" transform="scale(-1 1)"/><path d="m87.428572 345.90476 16.857138-16.85714h297.80953l22.47619-22.47619" fill="none" opacity=".4" stroke="#fc0" stroke-width="2.809524"/><path d="m424.57143 329.04762-28.09524 28.09524h-196.66667" fill="none" opacity=".5" stroke="#fc0" stroke-width="2.809524"/><path d="m199.80952 368.38095h196.66667l16.85714-16.85714h11.2381" fill="none" opacity=".5" stroke="#fc0" stroke-width="2.809524"/><path d="m121.14286 379.61905 11.23809 11.23809h146.09524l11.2381 11.2381" fill="none" opacity=".5" stroke="#fc0" stroke-width="2.809524"/><path d="m357.14286 379.61905h39.33333l16.85714 16.85714h11.2381" fill="none" opacity=".5" stroke="#fc0" stroke-width="2.809524"/><path d="m176.58262 435.77945 11.98881 11.26817h22.47619l22.47619 22.47619h28.09524l22.47619-22.47619" fill="none" opacity=".5" stroke="#fc0" stroke-width="2.809524"/><path d="m211.04762 435.80952 22.47619 22.47619h28.09524l11.23809-11.23809" fill="none" opacity=".5" stroke="#fc0" stroke-width="2.809524"/><path d="m121.14286 345.90476 5.61905-5.61905h258.47618" fill="none" opacity=".5" stroke="#fc0" stroke-width="2.809524"/><path d="m396.47621 340.28572a5.61905 5.61905 0 1 1 -11.2381 0 5.61905 5.61905 0 1 1 11.2381 0z" fill="#fc0" opacity=".5"/><path d="m424.57143 115.52381h-11.2381l-28.09524-28.095238h-95.5238l-33.71429 33.714288" fill="none" opacity=".5" stroke="#fc0" stroke-width="2.809524"/><path d="m205.42857 87.428572h61.80952l16.85715-16.857143h89.90476" fill="none" opacity=".5" stroke="#fc0" stroke-width="2.809524"/><path d="m267.23809 132.38095 22.4762-22.47619h95.5238l28.09524 28.09524h11.2381" fill="none" opacity=".5" stroke="#fc0" stroke-width="2.809524"/><path d="m278.47619 205.42857h89.90476l33.71429 33.71429h22.47619" fill="none" opacity=".5" stroke="#fc0" stroke-width="2.809524"/><path d="m424.57143 261.61905h-22.47619l-33.71429-33.71429h-33.71428" fill="none" opacity=".5" stroke="#fc0" stroke-width="2.809524"/><path d="m334.66667 250.38095h33.71428l33.71429 33.71429h22.47619" fill="none" opacity=".5" stroke="#fc0" stroke-width="2.809524"/><path d="m424.57143 160.47619h-11.2381l-33.71428-33.71428" fill="none" opacity=".5" stroke="#fc0" stroke-width="2.809524"/><path d="m424.57143 182.95238h-11.2381l-33.71428-33.71428" fill="none" opacity=".5" stroke="#fc0" stroke-width="2.809524"/><path d="m272.85714 317.80952h56.19048l33.71428-33.71428" fill="none" opacity=".5" stroke="#fc0" stroke-width="2.809524"/><path d="m368.38097 284.09525a5.61905 5.61905 0 1 1 -11.2381 0 5.61905 5.61905 0 1 1 11.2381 0z" fill="#fc0" opacity=".5"/><path d="m272.85716 317.80953a5.6190488 5.6190488 0 1 1 -11.23809 0 5.6190488 5.6190488 0 1 1 11.23809 0z" fill="#fc0" opacity=".5"/><path d="m385.23811 70.571439a5.61905 5.61905 0 1 1 -11.2381 0 5.61905 5.61905 0 1 1 11.2381 0z" fill="#fc0" opacity=".5"/><path d="m205.42859 87.428579a5.6190488 5.6190488 0 1 1 -11.23809 0 5.6190488 5.6190488 0 1 1 11.23809 0z" fill="#fc0" opacity=".5"/><path d="m385.23811 402.09525a5.6190488 5.6190488 0 1 1 -11.23809 0 5.6190488 5.6190488 0 1 1 11.23809 0z" fill="#fc0" opacity=".5"/><path d="m374 402.09524h-16.85714l-22.47619 22.47619h-11.2381" fill="none" opacity=".5" stroke="#fc0" stroke-width="2.809524"/><path d="m166.09524 430.19048h-44.95238l-16.85715 16.85714" fill="none" opacity=".5" stroke="#fc0" stroke-width="2.809524"/><path d="m166.09524 418.95238h-44.95238l-33.714288-33.71429v-5.61904" fill="none" opacity=".5" stroke="#fc0" stroke-width="2.809524"/><path d="m59.333334 295.33333v89.90476l22.47619 22.47619" fill="none" opacity=".5" stroke="#fc0" stroke-width="2.809524"/><path d="m87.428593 407.71429a5.619049 5.619049 0 1 1 -11.238098 0 5.619049 5.619049 0 1 1 11.238098 0z" fill="#fc0" opacity=".5"/><path d="m109.90478 447.04763a5.6190488 5.6190488 0 1 1 -11.238095 0 5.6190488 5.6190488 0 1 1 11.238095 0z" fill="#fc0" opacity=".5"/><path d="m48.095239 334.66667v56.19047l33.714285 33.71429" fill="none" opacity=".5" stroke="#fc0" stroke-width="2.809524"/><path d="m87.428593 424.57144a5.619049 5.619049 0 1 1 -11.238098 0 5.619049 5.619049 0 1 1 11.238098 0z" fill="#fc0" opacity=".5"/><path d="m53.714303 329.04763a5.619049 5.619049 0 1 1 -11.238098 0 5.619049 5.619049 0 1 1 11.238098 0z" fill="#fc0" opacity=".5"/><path d="m267.23809 64.952381 11.2381-11.238095h67.42857" fill="none" opacity=".5" stroke="#fc0" stroke-width="2.809524"/><path d="m357.14287 53.714299a5.6190488 5.6190488 0 1 1 -11.23809 0 5.6190488 5.6190488 0 1 1 11.23809 0z" fill="#fc0" opacity=".5"/><path d="m272.85716 64.952389a5.6190488 5.6190488 0 1 1 -11.23809 0 5.6190488 5.6190488 0 1 1 11.23809 0z" fill="#fc0" opacity=".5"/><path d="m109.90476 345.90475h22.47619v33.71429h-22.47619z" fill="#ccc"/><path d="m143.61905 345.90475h22.47619v33.71429h-22.47619z" fill="#ccc"/><path d="m177.33333 345.90475h22.47619v33.71429h-22.47619z" fill="#ccc"/><path d="m166.09525 402.09525h22.47619v33.71428h-22.47619z" fill="url(#m)"/><path d="m199.80952 402.09525h22.4762v33.71428h-22.4762z" fill="url(#l)"/><g fill="#e1e1e1"><path d="m264.4375 402.09375c-4.66943 0-8.4375 3.76807-8.4375 8.4375v28.09375c0 4.66943 3.76807 8.4375 8.4375 8.4375h50.5625c4.66943 0 8.4375-3.76807 8.4375-8.4375v-28.09375c0-4.66943-3.76807-8.4375-8.4375-8.4375z"/><g transform="matrix(4.4952381 0 0 5.6190476 4.266667 -13.714285)"><path d="m11 54h5v1h-5z"/><path d="m11 52h5v1h-5z"/><path d="m11 50h5v1h-5z"/><path d="m11 48h5v1h-5z"/><path d="m11 46h5v1h-5z"/><path d="m11 44h5v1h-5z"/><path d="m11 42h5v1h-5z"/><path d="m11 40h5v1h-5z"/><path d="m11 38h5v1h-5z"/><path d="m11 36h5v1h-5z"/><path d="m11 34h5v1h-5z"/><path d="m11 32h5v1h-5z"/><path d="m11 30h5v1h-5z"/><path d="m11 28h5v1h-5z"/><path d="m11 26h5v1h-5z"/><path d="m11 24h5v1h-5z"/></g><g transform="matrix(0 4.4952381 -5.6190476 0 390.85714 49.219048)"><path d="m11 54h5v1h-5z"/><path d="m11 52h5v1h-5z"/><path d="m11 50h5v1h-5z"/><path d="m11 48h5v1h-5z"/><path d="m11 46h5v1h-5z"/><path d="m11 44h5v1h-5z"/><path d="m11 42h5v1h-5z"/><path d="m11 40h5v1h-5z"/><path d="m11 38h5v1h-5z"/><path d="m11 36h5v1h-5z"/><path d="m11 34h5v1h-5z"/><path d="m11 32h5v1h-5z"/><path d="m11 30h5v1h-5z"/><path d="m11 28h5v1h-5z"/><path d="m11 26h5v1h-5z"/><path d="m11 24h5v1h-5z"/></g><g transform="matrix(-4.4952381 0 0 -5.6190476 327.92381 435.80952)"><path d="m11 54h5v1h-5z"/><path d="m11 52h5v1h-5z"/><path d="m11 50h5v1h-5z"/><path d="m11 48h5v1h-5z"/><path d="m11 46h5v1h-5z"/><path d="m11 44h5v1h-5z"/><path d="m11 42h5v1h-5z"/><path d="m11 40h5v1h-5z"/><path d="m11 38h5v1h-5z"/><path d="m11 36h5v1h-5z"/><path d="m11 34h5v1h-5z"/><path d="m11 32h5v1h-5z"/><path d="m11 30h5v1h-5z"/><path d="m11 28h5v1h-5z"/><path d="m11 26h5v1h-5z"/><path d="m11 24h5v1h-5z"/></g><g transform="matrix(0 -4.4952381 5.6190476 0 -58.666666 372.87619)"><path d="m11 54h5v1h-5z"/><path d="m11 52h5v1h-5z"/><path d="m11 50h5v1h-5z"/><path d="m11 48h5v1h-5z"/><path d="m11 46h5v1h-5z"/><path d="m11 44h5v1h-5z"/><path d="m11 42h5v1h-5z"/><path d="m11 40h5v1h-5z"/><path d="m11 38h5v1h-5z"/><path d="m11 36h5v1h-5z"/><path d="m11 34h5v1h-5z"/><path d="m11 32h5v1h-5z"/><path d="m11 30h5v1h-5z"/><path d="m11 28h5v1h-5z"/><path d="m11 26h5v1h-5z"/><path d="m11 24h5v1h-5z"/></g><path d="m98.666664-312.19049h22.476186v11.23809h-22.476186z" transform="rotate(90)"/><path d="m98.666664-334.66666h22.476186v11.2381h-22.476186z" transform="rotate(90)"/><path d="m98.666664-357.14285h22.476186v11.23809h-22.476186z" transform="rotate(90)"/><path d="m98.666664-379.61905h22.476186v11.2381h-22.476186z" transform="rotate(90)"/><path d="m-188.57143-312.19049h22.47619v11.23809h-22.47619z" transform="matrix(0 -1 -1 0 0 0)"/><path d="m-188.57143-334.66666h22.47619v11.2381h-22.47619z" transform="matrix(0 -1 -1 0 0 0)"/><path d="m-188.57143-357.14285h22.47619v11.23809h-22.47619z" transform="matrix(0 -1 -1 0 0 0)"/><path d="m-188.57143-379.61905h22.47619v11.2381h-22.47619z" transform="matrix(0 -1 -1 0 0 0)"/></g><g fill="#c89737" transform="matrix(5.6190476 0 0 5.6190476 -15.72814 -15.333054)"><path d="m58.152344 28v-.149414h.350586v-1.058594l-.310547.22168v-.166016l.325195-.223633h.162109v1.226563h.334961v.149414z"/><path d="m59.973633 27.688477v.311523h-.166016v-.311523h-.648437v-.136719l.629882-.927735h.184571v.925782h.193359v.138672zm-.166016-.866211c-.0013.0033-.0046.0098-.0098.01953-.0052.0091-.01107.01953-.01758.03125-.0065.01172-.01335.02376-.02051.03613-.0065.01172-.01237.02149-.01758.0293l-.352539.519531c-.0033.0052-.0081.01205-.01465.02051-.0059.0085-.01205.01725-.01855.02637-.0065.0085-.01302.01693-.01953.02539-.0065.0085-.01172.01497-.01563.01953h.486328v-.727539"/><path d="m60.390625 28v-1.375977h1.043945v.152344h-.857422v.441406h.798829v.150391h-.798829v.479492h.897461v.152344z"/><path d="m62.699219 28-.357422-.571289h-.428711v.571289h-.186524v-1.375977h.647461c.07813.000002.147135.0091.207032.02734.06054.01758.111327.0433.152343.07715.04102.03386.07227.0752.09375.124023.02148.04883.03223.103842.03223.165039-.000001.04362-.0065.08659-.01953.128906-.01237.04232-.03223.08106-.05957.116211-.02735.03516-.06218.06543-.104492.09082-.04232.02539-.0931.04329-.152344.05371l.39062.592778zm-.02734-.980469c-.000001-.04167-.0072-.0778-.02148-.108398-.01432-.0306-.03516-.05599-.0625-.07617-.02734-.02083-.06055-.03613-.09961-.0459-.03906-.01042-.08333-.01562-.132812-.01563h-.442383v.507813h.450195c.05338.000001.09961-.0065.138672-.01953.03906-.01367.07096-.03223.0957-.05566.02539-.02344.04394-.05111.05566-.08301.01237-.0319.01855-.0664.01855-.103516"/><path d="m63.358398 26.776367v.511719h.767579v.154297h-.767579v.557617h-.186523v-1.375977h.977539v.152344z"/><path d="m65.258789 27.551758c-.000001.06901-.01042.132162-.03125.189453-.02083.05729-.05176.106771-.09277.148437-.04102.04102-.09212.07292-.153321.0957-.06055.02279-.13086.03418-.210937.03418-.07227 0-.135417-.0085-.189453-.02539-.05339-.01693-.09863-.04004-.135743-.06934-.03711-.02995-.06673-.06478-.08887-.104493-.02148-.03971-.03678-.08236-.0459-.127929l.177734-.02051c.0072.02604.01725.05143.03027.07617.01302.02409.0306.0459.05273.06543.02279.01888.05046.03418.08301.0459.0332.01107.07324.0166.120117.0166.04557 0 .08691-.0068.124023-.02051.03711-.01432.06869-.03516.09473-.0625.02669-.02734.0472-.06087.06152-.100586.01432-.03971.02148-.08529.02148-.136719-.000001-.04232-.0068-.08105-.02051-.116211-.01367-.03581-.0332-.0664-.05859-.0918-.02539-.02604-.05664-.04622-.09375-.06055-.03646-.01432-.07813-.02148-.125-.02148-.0293.000001-.05631.0026-.08105.0078s-.04785.01237-.06934.02148c-.02083.0091-.04004.01986-.05762.03223-.01693.01172-.03288.02409-.04785.03711h-.171875l.0459-.740235h.782227v.149414h-.62207l-.02637.436524c.03125-.02409.07031-.0446.117188-.06152.04687-.01758.102538-.02637.166992-.02637.06836.000001.129882.01042.18457.03125.05469.02083.101237.05046.139649.08887.03841.03776.06803.08301.08887.135743.02083.05274.03125.110677.03125.173828"/><path d="m66.368164 27.549805c-.000001.06901-.0098.132487-.0293.190429-.01888.05729-.0472.106771-.08496.148438-.03711.04102-.08333.07324-.138672.09668-.05534.02279-.119141.03418-.191406.03418-.08008 0-.150065-.0153-.209961-.0459-.0599-.0306-.109701-.07454-.149414-.131836-.03971-.05794-.06966-.128581-.08984-.211914-.01953-.08398-.0293-.179362-.0293-.286133 0-.122395.01107-.229817.0332-.322266.02279-.09245.05534-.169595.09766-.231445s.09375-.108397.154297-.139648c.0612-.03125.130208-.04687.207031-.04687.04687.000001.09082.0049.131836.01465.04101.0098.07812.02572.111328.04785.03385.02149.06348.05013.08887.08594s.04557.07975.06055.131836l-.167969.03027c-.01823-.05924-.04753-.101886-.08789-.127929-.03971-.02669-.08594-.04004-.138672-.04004-.04818.000001-.0918.01139-.13086.03418s-.07227.05697-.09961.102539c-.02734.04492-.0485.101564-.06348.169922-.01432.06836-.02149.148113-.02149.239258.0319-.05924.07682-.104166.134766-.134765.05794-.03125.124348-.04687.199219-.04687.0625 0 .119139.01009.169921.03027.05078.02018.09408.04948.129883.08789.03646.03776.06445.08399.08398.138671.02018.05404.03027.11491.03027.182618m-.178711.0078c-.000001-.04753-.0059-.09049-.01758-.128906-.01172-.03841-.0293-.07096-.05273-.09766-.02344-.02734-.05241-.04818-.08691-.0625-.03451-.01497-.07455-.02246-.120118-.02246-.0319.000001-.06413.0049-.09668.01465-.03255.0091-.06218.02442-.08887.0459-.02604.02083-.04753.0485-.06445.08301-.01628.03451-.02441.0765-.02441.125977 0 .05078.0065.09831.01953.142578.01302.04362.03157.08171.05566.114258.02474.03255.05436.05827.08887.07715.0345.01888.07324.02832.116211.02832.04232 0 .08008-.0072.113281-.02148.03385-.01497.0625-.03613.08594-.06348.02344-.028.04134-.06185.05371-.101563.01237-.03971.01855-.08431.01856-.133789"/><path d="m59.02832 30.051758c-.000001.06901-.01042.132162-.03125.189453-.02083.05729-.05176.106771-.09277.148437-.04102.04102-.09212.07292-.15332.0957-.06055.02279-.13086.03418-.210938.03418-.07227 0-.135417-.0085-.189453-.02539-.05339-.01693-.09863-.04004-.135742-.06934-.03711-.02995-.06673-.06478-.08887-.104493-.02148-.03971-.03678-.08236-.0459-.127929l.177734-.02051c.0072.02604.01725.05143.03027.07617.01302.02409.0306.0459.05273.06543.02279.01888.05046.03418.08301.0459.0332.01107.07324.0166.120117.0166.04557 0 .08691-.0068.124024-.02051.03711-.01432.06868-.03516.09473-.0625.02669-.02734.0472-.06087.06152-.100586.01432-.03971.02148-.08529.02148-.136719-.000001-.04232-.0068-.08105-.02051-.116211-.01367-.03581-.0332-.0664-.05859-.0918-.02539-.02604-.05664-.04622-.09375-.06055-.03646-.01432-.07813-.02148-.125-.02148-.0293.000001-.05632.0026-.08105.0078-.02474.0052-.04785.01237-.06934.02148-.02083.0091-.04004.01986-.05762.03223-.01693.01172-.03288.02409-.04785.03711h-.171875l.0459-.740235h.782226v.149414h-.62207l-.02637.436524c.03125-.02409.07031-.0446.117187-.06152.04687-.01758.102539-.02637.166992-.02637.06836.000001.129882.01042.184571.03125.05469.02083.101236.05046.139648.08887.03841.03776.06803.08301.08887.135743.02083.05274.03125.110677.03125.173828"/><path d="m60.137695 30.049805c-.000001.06901-.0098.132487-.0293.190429-.01888.05729-.0472.106771-.08496.148438-.03711.04102-.08333.07324-.138671.09668-.05534.02279-.119142.03418-.191407.03418-.08008 0-.150065-.0153-.209961-.0459-.0599-.0306-.1097-.07454-.149414-.131836-.03971-.05794-.06966-.128581-.08984-.211914-.01953-.08398-.0293-.179362-.0293-.286133 0-.122395.01107-.229817.0332-.322266.02279-.09245.05534-.169595.09766-.231445s.09375-.108397.154297-.139648c.0612-.03125.130208-.04687.207031-.04687.04687.000001.09082.0049.131836.01465.04102.0098.07812.02572.111328.04785.03385.02149.06348.05013.08887.08594s.04557.07975.06055.131836l-.167968.03027c-.01823-.05924-.04753-.101886-.08789-.127929-.03971-.02669-.08594-.04004-.138672-.04004-.04818.000001-.0918.01139-.130859.03418-.03906.02279-.07227.05697-.09961.102539-.02734.04492-.0485.101564-.06348.169922-.01432.06836-.02148.148113-.02148.239258.0319-.05924.07682-.104166.134766-.134765.05794-.03125.124348-.04687.199219-.04687.0625 0 .11914.01009.169922.03027.05078.02018.09407.04948.129882.08789.03646.03776.06445.08399.08398.138671.02018.05404.03027.11491.03027.182618m-.178711.0078c0-.04753-.0059-.09049-.01758-.128906-.01172-.03841-.0293-.07096-.05273-.09766-.02344-.02734-.05241-.04818-.08691-.0625-.03451-.01497-.07455-.02246-.120117-.02246-.0319.000001-.06413.0049-.09668.01465-.03255.0091-.06217.02442-.08887.0459-.02604.02083-.04753.0485-.06445.08301-.01628.03451-.02441.0765-.02441.125977-.000001.05078.0065.09831.01953.142578.01302.04362.03158.08171.05566.114258.02474.03255.05436.05827.08887.07715s.07324.02832.116211.02832c.04232 0 .08008-.0072.113281-.02148.03385-.01497.0625-.03613.08594-.06348.02344-.028.04134-.06185.05371-.101563.01237-.03971.01855-.08431.01855-.133789"/><path d="m60.929687 29.276367v1.223633h-.185546v-1.223633h-.472657v-.152344h1.13086v.152344z"/><path d="m61.428711 30.046875v-.15625h.488281v.15625z"/><path d="m63.144531 30.5-.357422-.571289h-.428711v.571289h-.186523v-1.375977h.647461c.07812.000002.147134.0091.207031.02734.06055.01758.111327.0433.152344.07715.04101.03386.07226.0752.09375.124023.02148.04883.03222.103842.03223.165039-.000001.04362-.0065.08659-.01953.128906-.01237.04232-.03223.08106-.05957.116211-.02734.03516-.06218.06543-.104492.09082-.04232.02539-.0931.04329-.152344.05371l.39062.592778zm-.02734-.980469c-.000001-.04167-.0072-.0778-.02148-.108398-.01432-.0306-.03516-.05599-.0625-.07617-.02734-.02083-.06055-.03613-.09961-.0459-.03906-.01042-.08333-.01562-.132813-.01563h-.442383v.507813h.450196c.05338.000001.09961-.0065.138672-.01953.03906-.01367.07096-.03223.0957-.05566.02539-.02344.04394-.05111.05566-.08301.01237-.0319.01855-.0664.01855-.103516"/><path d="m64.612305 30.5h-1.095703v-.139648l.83789-1.083985h-.766601v-.152344h.978515v.135743l-.83789 1.08789h.883789z"/><path d="m65.700195 30.120117c-.000001.06315-.01042.119467-.03125.168945-.02018.04948-.05013.09147-.08984.125977-.03906.03385-.08789.0599-.146485.07813-.05794.01758-.124349.02637-.199219.02637-.08529 0-.157227-.01042-.21582-.03125-.05794-.02148-.105794-.04948-.143555-.08398-.03776-.03516-.06608-.07487-.08496-.119141-.01888-.04492-.03125-.09115-.03711-.138672l.181641-.0166c.0052.03646.01465.06966.02832.09961.01432.02995.03353.05566.05762.07715.02409.02148.05371.03809.08887.0498.03516.01172.07682.01758.125.01758.08854.000001.157877-.02181.208008-.06543.05078-.04362.07617-.108398.07617-.194336-.000001-.05078-.01139-.09147-.03418-.122071-.02214-.03125-.05013-.05534-.08398-.07227-.0332-.01758-.06966-.0293-.109375-.03516-.03906-.0059-.0752-.0088-.108398-.0088h-.09961v-.152344h.0957c.0332.000001.06771-.0033.103516-.0098.03581-.0072.06836-.01953.09766-.03711.02995-.01823.05436-.04264.07324-.07324.01953-.0306.0293-.06966.0293-.117188 0-.07357-.02181-.131509-.06543-.173828-.04297-.04297-.107097-.06445-.192383-.06445-.07748.000001-.1403.01986-.188477.05957-.04753.03972-.07519.0957-.08301.167969l-.176757-.01367c.0072-.06055.02376-.11328.0498-.158203.02604-.04492.05892-.08203.09863-.111328.04036-.02995.08626-.05208.137695-.06641.05143-.01497.10612-.02246.164063-.02246.07682.000001.142903.0098.198242.0293.05534.01888.100585.04492.135742.07813.03516.03255.06087.07096.07715.115235.01693.04427.02539.09147.02539.141601-.000001.04037-.0055.07813-.0166.113282-.01107.03516-.02832.06673-.05176.09473s-.05339.05208-.08984.07227c-.03581.02018-.0791.03548-.129883.0459v.0039c.05534.0059.103515.01856.144532.03809.04101.01888.07487.04264.101562.07129.02669.02865.04655.0612.05957.09766.01367.03646.02051.07487.02051.115234"/><path d="m66.806641 29.78418c-.000001.122396-.01172.229818-.03516.322265-.02279.0918-.05567.168295-.09863.229492-.04297.0612-.09538.107097-.157227.137696-.0612.0306-.130209.0459-.207031.0459-.05273 0-.100261-.0055-.142578-.0166-.04232-.01042-.08008-.02702-.113282-.0498-.0332-.02279-.06152-.05241-.08496-.08887s-.04232-.0804-.05664-.131836l.167969-.02637c.01823.05925.04655.102864.08496.130859.03906.02734.08822.04102.147461.04102.04753 0 .09082-.01107.129883-.0332.03971-.02279.07324-.05664.100586-.101563.02799-.04492.0498-.101237.06543-.168945.01562-.06771.02409-.147135.02539-.238282-.01367.0306-.03255.05794-.05664.08203-.02344.02409-.05046.0446-.08106.06152-.02995.01628-.0625.02897-.09766.03809-.03516.0085-.07064.0127-.106445.0127-.0625.000001-.119141-.01107-.169922-.0332-.05013-.02279-.09277-.05436-.12793-.09473-.03516-.04036-.0625-.08887-.08203-.145508-.01888-.05729-.02832-.120767-.02832-.19043 0-.07096.01009-.13509.03027-.192383.02083-.05729.05078-.105793.08984-.145507.03906-.04036.08691-.07129.143554-.09277.05729-.02148.12207-.03223.194336-.03223.152994.000001.26888.05664.347657.169921.07877.113283.118163.28353.118164.510743m-.191407-.169922c0-.05078-.0062-.09863-.01855-.143555-.01172-.04492-.02962-.08398-.05371-.117187-.02344-.0332-.05273-.05924-.08789-.07813-.03451-.01953-.07455-.0293-.120117-.0293-.04232.000001-.0804.0075-.114258.02246-.03385.01497-.0625.03646-.08594.06445-.02344.02735-.04167.06087-.05469.100586-.01237.03971-.01856.08399-.01856.132812 0 .04622.0055.08919.0166.128906.01172.03971.02897.07422.05176.103516.02279.02865.05111.05143.08496.06836.03385.01628.07324.02441.118164.02441.03255 0 .06543-.0055.09863-.0166.03385-.01107.06413-.02799.09082-.05078.02734-.02279.04948-.05143.06641-.08594.01758-.03515.02637-.0765.02637-.124023"/><path d="m67.936523 29.811523c-.000001.132162-.0127.24349-.03809.333985-.02474.08984-.05892.16276-.102539.21875-.04297.05534-.09375.09505-.152343.11914-.0586.02409-.121095.03613-.1875.03613-.06706 0-.129558-.01204-.1875-.03613-.05794-.02409-.108399-.0638-.151368-.11914-.04232-.05534-.07585-.12793-.100585-.217774-.02409-.09049-.03613-.202148-.03613-.334961 0-.138671.01204-.253254.03613-.34375.02474-.09114.05859-.163735.101562-.217773.04297-.05403.09375-.0918.152344-.113281.05859-.02213.122395-.0332.191406-.0332.06576.000001.127278.01107.18457.0332.05794.02149.108398.05925.151368.113281.04297.05404.07682.126629.101562.217773.02474.0905.03711.205079.03711.34375m-.178711 0c0-.109374-.0065-.200194-.01953-.272461-.01302-.07292-.03223-.130858-.05762-.173828-.02539-.04362-.05664-.07422-.09375-.0918-.03646-.01823-.07813-.02734-.125-.02734-.04948.000001-.0931.0091-.130859.02734-.03776.01823-.06966.04915-.0957.09277-.02539.04297-.0446.100912-.05762.173828-.01302.07227-.01953.162761-.01953.271484 0 .10547.0065.194337.01953.266602.01367.07227.0332.130534.05859.174805.02604.04362.05762.0752.09473.09473.03711.01888.07943.02832.126953.02832.04622 0 .08789-.0094.125-.02832.03711-.01953.06836-.05111.09375-.09473.02604-.04427.0459-.102539.05957-.174805.01432-.07227.02148-.161132.02148-.266602"/></g><path d="m42-62h2v6h-2z" fill="#ccc" transform="matrix(0 5.6190476 -5.6190476 0 -13.714285 -13.714285)"/><path d="m42-60h2v2h-2z" fill="#767676" transform="matrix(0 5.6190476 -5.6190476 0 -13.714285 -13.714285)"/><path d="m42-62h2v6h-2z" fill="#ccc" transform="matrix(0 5.6190476 -5.6190476 0 -13.714285 8.761905)"/><path d="m42-60h2v2h-2z" fill="#767676" transform="matrix(0 5.6190476 -5.6190476 0 -13.714285 8.761905)"/><path d="m81.809525 351.5238h11.238095v22.47619h-11.238095z" opacity=".290043"/><path d="m115.52381 351.5238h11.2381v22.47619h-11.2381z" opacity=".290043"/><path d="m149.2381 351.5238h11.23809v22.47619h-11.23809z" opacity=".290043"/><path d="m182.95238 351.5238h11.23809v22.47619h-11.23809z" opacity=".290043"/><path d="m76.1875 121.15625v179.78125l192.53125 191.0625h124.9375c54.47667 0 98.34375-43.86709 98.34375-98.34375v-35.1875l-236-237.3125z" fill-opacity=".235294"/><path d="m76.190475 121.14286h179.809525v179.80952h-179.809525z" fill="url(#o)"/><g transform="translate(-1532.18695 330.41615)"><path d="m1650.4994-310.41615c-54.4767 0-98.3125 43.83583-98.3125 98.3125v275.343747c0 54.476673 43.8358 98.343753 98.3125 98.343753h2.9375c-53.3225 0-96.25-42.9275-96.25-96.250003v-269.499997c0-53.3225 42.9275-96.25 96.25-96.25h269.5001c53.3225 0 96.25 42.9275 96.25 96.25v269.499997c0 53.322503-42.9275 96.250003-96.25 96.250003h2.9062c54.4767 0 98.3438-43.86708 98.3438-98.343753v-275.343747c0-54.47667-43.8671-98.3125-98.3438-98.3125z" fill="url(#g)" opacity=".5"/><path d="m1650.4994 161.58385c-54.4767 0-98.3125-43.83583-98.3125-98.312503v-275.343747c0-54.47667 43.8358-98.34375 98.3125-98.34375h2.9375c-53.3225 0-96.25 42.9275-96.25 96.25v269.499997c0 53.322503 42.9275 96.250003 96.25 96.250003h269.5001c53.3225 0 96.25-42.9275 96.25-96.250003v-269.499997c0-53.3225-42.9275-96.25-96.25-96.25h2.9062c54.4767 0 98.3438 43.86708 98.3438 98.34375v275.343747c0 54.476673-43.8671 98.312503-98.3438 98.312503z" fill="url(#h)" opacity=".2"/></g><g fill="#f00" stroke-width="15.805904"><path d="m-1695.4337-510.14135h-188.0039v69.45955h171.951q37.6625 0 51.2457 13.2745 13.8919 12.96578 13.8919 50.01087v32.10575q0 37.0451-13.5832 50.31959-13.2745 12.96578-51.5544 12.96578h-162.9984q-38.2799 0-52.1719-12.96578-13.5832-13.27449-13.5832-50.31959v-7.40902l46.3064-9.56998v39.82348h202.2045v-75.32503h-172.5684q-37.9712 0-51.5544-12.96578-13.5832-13.27449-13.5832-50.31959v-25.31414q0-36.73639 13.5832-50.01088 13.5832-13.5832 51.5544-13.5832h149.1065q37.3538 0 51.5544 12.96578 14.2006 12.96578 14.2006 45.68895v6.48289l-45.9976 9.87869z"/><path d="m-1298.1251-510.14135h-187.0777v187.69515h187.0777v-63.90279l50.6283 9.56998v31.48833q0 36.73639-13.8919 50.01088-13.5832 13.27449-51.8632 13.27449h-157.4416q-38.2799 0-51.8631-12.65707-13.2745-12.96579-13.2745-50.6283v-141.08006q0-37.35381 13.5832-50.31959 13.5832-13.27449 51.5544-13.27449h157.4416q38.28 0 51.8632 13.5832 13.8919 13.27449 13.8919 50.01088v25.31414l-50.6283 8.33515z"/><path d="m-945.88799-510.75876h-142.62361v86.43855h142.62361q16.979 0 22.84447-5.55677 5.86548-5.55676 5.86548-21.60963v-32.10575q0-14.81804-6.17419-20.99222-6.17418-6.17418-22.53576-6.17418zm-193.25191 228.75345v-267.95951h215.47896q29.94479 0 42.91057 12.34836 13.27449 12.03966 13.27449 39.51477v59.88957q0 27.1664-13.27449 39.20606-12.96578 12.03965-42.91057 12.03965h-35.50154l118.23559 104.9611h-67.6073l-106.81331-104.9611h-73.1641v104.9611z"/><path d="m-702.3165-282.00531h-50.31959v-267.34209h50.31959z"/><path d="m-376.31973-510.75876h-152.81101v84.58629h152.81101q16.979 0 23.46189-5.55676 6.7916-5.86547 6.7916-19.75738v-33.95801q0-13.89191-6.48289-19.44867-6.48289-5.86547-23.7706-5.86547zm-203.43931 228.75345v-267.95951h226.28378q31.17962 0 44.76282 12.03965 13.89191 12.03966 13.89191 39.82348v59.88957q0 27.1664-13.89191 39.20606-13.5832 12.03965-44.76282 12.03965h-175.65548v104.9611z"/><path d="m-68.228021-510.14135v228.13604h-50.319589v-228.13604h-126.57073v-39.82347h304.078474v39.82347z"/><path d="m371.68248-510.14135h-188.00385v69.45955h171.95098q37.66251 0 51.24571 13.2745 13.89191 12.96578 13.89191 50.01087v32.10575q0 37.0451-13.5832 50.31959-13.27449 12.96578-51.55442 12.96578h-162.99842q-38.27993 0-52.17184-12.96578-13.5832-13.27449-13.5832-50.31959v-7.40902l46.30637-9.56998v39.82348h202.20447v-75.32503h-172.5684q-37.97122 0-51.55442-12.96578-13.5832-13.27449-13.5832-50.31959v-25.31414q0-36.73639 13.5832-50.01088 13.5832-13.5832 51.55442-13.5832h149.10651q37.3538 0 51.55442 12.96578 14.20062 12.96578 14.20062 45.68895v6.48289l-45.99766 9.87869z"/></g></g></svg>