<svg enable-background="new 0 0 650 170" height="134" viewBox="0 0 629.79999 134" width="629.79999" xmlns="http://www.w3.org/2000/svg"><g transform="translate(-3.2 -15.6)"><g fill="#f00"><path d="m463.6 94.1h-8.9v-34h32.7c5.6 0 10.1 4.6 10.3 11v23.1h-8.4s0-14.7 0-21.2c0-3.2-1.6-5.4-4.4-5.6-1.5-.1-3 0-4.6 0v26.8h-8.8s0-17.9 0-26.9c-2.6 0-5.2 0-7.8 0-.1 8.8-.1 26.8-.1 26.8z"/><path d="m598.9 94.1h-8.9v-34h32.7c5.6 0 10.1 4.6 10.3 11v23.1h-8.4s0-14.7 0-21.2c0-3.2-1.6-5.4-4.4-5.6-1.5-.1-3 0-4.6 0v26.8h-8.8s0-17.9 0-26.9c-2.6 0-5.2 0-7.8 0-.1 8.8-.1 26.8-.1 26.8z"/><path d="m356 81.2c2.8 4.2 5.8 8.7 8.7 13-3.4 0-9.9 0-9.9 0l-7.7-12.6h-8.5v12.6c-2.9 0-5.9 0-8.8 0 0-11.2 0-22.7 0-33.9h1.2 22.9c6.2 0 10.7 6.4 9.5 13.3-.7 3.8-2.8 6.1-6 7.3-.4-.1-.7 0-1.4.3zm-17.4-5.8h11.5c.6 0 1.2-.3 1.8-.6 1.2-.6 2.1-1.5 2.1-3.3s-.6-3.2-2.1-4c-.9-.4-1.8-.6-2.7-.6h-10.6z"/><path d="m449.8 94.1h-22.4c-1.7 0-3.4-.4-5-.9-4.1-1.4-6.3-5.1-6-9.8.2-4.8 2.9-8.5 7-9.6.9-.3 1.9-.4 2.9-.4h14.2c0-3.7-2.7-6.8-6.2-6.8h-15.6v-6.5h18.2c7 0 12.4 5.9 12.6 13.8v20.2zm-8.9-14.3c-3.7 0-7.3 0-11 0-2.3 0-3.8 1.5-4 4 0 2.3 1.5 3.8 3.8 3.8h11.1c.1-.2.1-5.1.1-7.8z"/><path d="m186.6 94.1v-6.6h19.6c1.8 0 2.9-1 3.3-3.1.3-1.5-.6-3.1-2.1-3.7-.7-.3-1.5-.5-2.3-.5h-12.1c-5-.1-7.8-3.4-8.2-9.3-.3-4.6 2.7-9.8 6.8-10.7h25.9v6.9c-.5 0-.8 0-1.2 0-5.8 0-11.5 0-17.3 0-.6 0-1.1 0-1.6.1-1.4.3-2.4 1.3-2.6 2.7s.3 2.8 1.4 3.7c.3.3.9.4 1.4.4h13.1c3.3.1 6.3 1 7.9 4.6 2.8 6.3.7 15.3-7.8 15.4z"/><path d="m567.3 59.4c3.4.1 6.7.5 9.7 2.2 4.3 2.2 7.5 5.7 8.4 11 1.1 6.6.1 12.9-4.6 17.6-2.7 2.7-6.1 3.8-9.5 4.6-5.4 1-10.5 0-15.4-2.7-4.5-2.6-6.4-7.1-7-12.5-.2-2.8-.2-5.5.6-8.2 1.8-6.3 6-9.4 11.3-10.8 2-.7 3.2-1.1 6.5-1.2zm9.7 17.7c0-.6 0-1.3-.1-1.9-.2-4.6-2.7-8.2-6.4-9.2-2.3-.6-4.4-.6-6.7 0-3.2.8-5.3 2.9-6.2 6.5-.7 2.8-.7 5.7-.3 8.5.5 3.3 2.3 5.6 5.1 6.5 1.7.5 3.5.8 5.3.6 6.1-.2 9.5-4.1 9.3-11z"/><path d="m325.1 73.8v6.5c-7 0-13.9 0-20.9 0 0 4.1 2.6 7 6.1 7h14.7v6.9h-16.8c-8.4-.4-13.4-7.1-13.2-15.9.1-2.9.2-5.7 1.2-8.4 2-5.9 6.8-9.6 12.4-9.6h16.6v6.9s-11.4 0-14.1 0c-3.4 0-6.1 2.8-6.5 6.8 6.7-.2 13.6-.2 20.5-.2z"/><path d="m245.8 87.2s0-18.1 0-27h8.6v33.9h-22.6c-2.8 0-5.1-1.1-6.8-3.6-1.7-2.3-2.7-4.7-2.6-7.9.1-6.8 0-22.5 0-22.5h8.6v21.7c-.1 3.2 1.5 5.1 4.1 5.4z"/><path d="m267.8 82.6v11.5c-2.8 0-5.5 0-8.4 0 0-11.1 0-33.9 0-33.9h22.8c4.1-.1 8.1 3.3 9.3 8.3 1.8 7.4-2.8 14.2-9.6 14.2-4.3 0-8.6 0-13 0-.2-.1-.5-.1-1.1-.1zm.3-6.5h11.5c.5 0 1-.4 1.4-.6 1.2-1 2.1-3.6 1.7-5-.7-2.3-1.9-3.3-4-3.3h-10.7v8.9z"/><path d="m414.1 60.1v6.5h-14.7c-2.5.1-4.6 1.4-6.1 3.7-.5.8-.8 1.8-.9 3.2h21.2v7.1c-7.1 0-14.1 0-21.3 0v13.4c-2.9 0-8.7 0-8.7 0s0-13.9 0-20c0-7.3 4.9-13.7 11.3-13.9z"/><path d="m546 87.4v6.6h-15.8c-6.5 0-11.5-4.3-13.2-11.6-1.2-5.6-.7-11.4 2.1-16.2 2.4-4.1 5.8-6.1 10.2-6.1h16.9v6.8h-14.3c-2.8 0-4.6 1.5-5.5 4.5-1.1 3.4-1.2 7.4-.2 11 .9 3.3 3.2 5.1 6.3 5.1z"/><path d="m355.8 125.1c0-2 0-4.1 0-6.1h20.9c0-3.4 0-6.8 0-10.1-6.9 0-13.7 0-20.6 0 0-2 0-4 0-5.9h25.1v22.1c-8.5 0-17 0-25.4 0z"/><path d="m185.5 108.6c0-2.2 0-4 0-6h20.9c.6 4.3.2 8.4-1 12.5-.1.4-.3 1-.3 1s3.8 6.1 5.6 8.9c-2 0-5.9 0-5.9 0s-2-3.1-2.8-4.3c-.5.4-.8.6-1.1 1-2.5 2.2-5.1 3.4-8.4 3.3 0 0-5.2 0-7.8 0v-6h5.5c2.4 0 4.6-.3 6.8-1.1 3.4-1.5 5.4-5 5.2-9.2-5.5-.1-11.1-.1-16.7-.1z"/><path d="m503 60.099998h9.3v33.900002h-9.3z"/><path d="m280.9 125.1v-6.1h10.8c4.4.3 7.8-2.9 7.7-9.1 0-.4 0-.8-.1-1.3-6.5 0-13.1 0-19.8 0 0-1.9 0-3.8 0-5.7h23.8v11c0 1-.3 2.2-.7 3.1-1.6 4.8-4.9 7.8-9.4 8.2h-12.3z"/><path d="m305.5 113.2c0-1.8 0-3.6 0-5.2h21v7.8c0 3.1-1.9 4.5-9.7 4.5 0 0-.1 1.4-.3 1.8-.8 2.3-2.4 3.2-4.7 3.2h-5.1c0-1.8 0-3.6 0-5.4h5c1.6 0 2.1-.4 2.4-2.3.1-.5.1-1.1.2-1.8h6.4c1.5 0 1.9-.5 1.9-2.4-5.6-.2-11.3-.2-17.1-.2z"/><path d="m408.7 103.1v12.5c-.9 7-6.4 9.6-10.5 9.4h-14.5v-6h14.8c3 .1 6.1-3.1 6.1-7 0-2.6 0-5.1 0-7.5 0-.4 0-.8 0-1.1 1.5-.3 2.9-.3 4.1-.3z"/><path d="m241.5 102.6h4.5v7.3 1.4c-.3 5.7 3.3 7.4 6.5 7.4h1.4v6.1c-7.3.5-12.2-3.2-12.4-11.4-.1-3.2 0-6.4 0-9.6 0-.3 0-.7 0-1.2z"/><path d="m328.7 114.6v-5.5l24.7 3.3v5.7z"/><path d="m328.7 101.9 24.7 3.3v5.6l-24.7-3.6z"/><path d="m353.4 120v5.6c-8.2-1.1-16.5-2.3-24.7-3.6 0-1.7 0-3.6 0-5.5 8.2 1 16.5 2.5 24.7 3.5z"/><path d="m227.1 124.9c0-2.2 0-4.1 0-6.1 1.1-.1 2.1-.1 3.2-.3 3-.5 4.7-2.9 4.7-6.4 0-3.1 0-6.1 0-9.3h4.6v7.5c0 1.7 0 3.4-.2 5-1 5.7-4.2 8.7-9.5 9.2-.8.3-1.7.3-2.8.4z"/><path d="m227.5 111v5.6c-6.3 0-12.5 0-18.9 0 0-1.9 0-3.7 0-5.6z"/><path d="m254.2 110.8h18.9v5.6c-6.3 0-12.5 0-18.9 0 0-1.8 0-3.7 0-5.6z"/><path d="m398.8 102.9v5.9c-5 0-9.9 0-14.9 0 0-1.8 0-4 0-5.9z"/><path d="m254.5 106.4c0 2.3-1.7 4.1-3.6 4.1s-3.6-1.8-3.6-4.1 1.6-4.2 3.6-4.2c1.9.2 3.6 2 3.6 4.2zm-2.3 0c0-.9-.8-1.8-1.6-1.8s-1.6.9-1.5 1.9.7 1.7 1.6 1.7c.9-.1 1.4-.7 1.5-1.8z"/></g><g fill="#0f0" transform="translate(1.190476 .761905)"><path d="m75 97.3c0 11.2-16 20.3-35.9 20.3s-35.9-9.1-35.9-20.3c0-11.3 16.1-20.3 35.9-20.3s35.9 9 35.9 20.3z"/><path d="m136.9 129.3c0 11.2-16 20.3-35.9 20.3s-35.9-9.1-35.9-20.3c0-11.2 16-20.3 35.9-20.3s35.9 9.1 35.9 20.3z"/><path d="m76.4 15.6c-18.1 0-32.9 16.3-33.2 36.7.8 0 1.5-.1 2.3-.1 18.4 0 33.3 16.8 33.3 37.6v.9c17.3-1.3 30.9-17.6 30.9-37.5-.1-20.8-15-37.6-33.3-37.6z"/><path d="m139.3 48.5c-18.4 0-33.2 16.8-33.2 37.6v1.4h1.4c18 0 32.6 16.1 33.2 36.2 17.7-.8 32-17.2 32-37.5-.1-20.8-15-37.7-33.4-37.7z"/></g></g></svg>