<svg height="27.5mm" viewBox="0 0 107 27.5" width="107mm" xmlns="http://www.w3.org/2000/svg"><path d="m97.140131 230.60057v-8.35958h132.474969 132.47497v8.35958 8.35951h-132.47497-132.474969zm6.379819 5.01572c.25512-.45961.10582-.83597-.33101-.83597-1.2911 0-.90642-3.11726.45654-3.69974.95371-.4079 1.04299-.76692.37525-1.5106-1.2312-1.37126-1.09017-3.14916.24982-3.14916.61921 0 1.12585-.59073 1.12585-1.31211 0-.87596-.54965-1.22325-1.6537-1.04495l-1.65366.26732-.92703 5.43367c-.5099 2.98855-.94785 5.71584-.9733 6.06066-.0686.93678 2.79523.757 3.33127-.20904zm11.72083-.62714.0867-1.46289.34328 1.46289c.48816 2.08055 2.24514 1.81222 2.73683-.41809 1.73921-7.88854 1.20478-13.49279-.83706-8.77752l-.81445 1.88089-.0506-1.88089c-.0923-3.41001-1.41238-1.95972-2.26982 2.49332-.4633 2.40585-1.03455 5.22717-1.26943 6.26963-.31129 1.38153-.10019 1.89547.78011 1.89547.66402 0 1.24639-.65846 1.29428-1.46296zm15.2656-3.12163c.28292-2.52152.8284-4.80077 1.21234-5.06503 1.42539-.9812.72426-3.01026-.94639-2.73887-1.35879.22071-1.67176.871-1.80171 3.74353-.0867 1.91208-.38662 4.63936-.66696 6.06073-.38853 1.97013-.24847 2.58422.58939 2.58422.76884 0 1.2535-1.37729 1.6133-4.58458zm12.681 2.07669c-.30568-1.70208-.15289-2.50782.47544-2.50782.62271 0 .76501-.71309.4348-2.17881-.35531-1.57687-.11866-2.48409.85689-3.28406l1.34782-1.1054-1.36394-.58853c-1.81522-.78345-2.34952.0582-3.38898 5.33977-1.18733 6.03277-1.11639 6.83289.60605 6.83289h1.48236zm12.49692.46762c0-1.12229.27663-2.23096.61471-2.46367.3381-.23309.4687.6854.29014 2.04048-.17856 1.35509.0157 2.46376.43222 2.46376.81579 0 3.25812-10.86165 2.67761-11.90783-.19274-.34744-1.15094-.6315-2.12935-.6315h-1.77889l-.85543 4.80674c-.47049 2.64374-1.02384 5.46506-1.22964 6.26963-.24251.94828.0394 1.46296.80228 1.46296.74689 0 1.17643-.74506 1.17643-2.04057zm14.65995-1.09424c.25691-1.72416.77886-4.2255 1.15985-5.55852.99773-3.49084.87884-3.99408-.87264-3.69516l-1.56538.26732-.19928 4.17976c-.10921 2.29885-.44122 5.0262-.73687 6.06065-.39708 1.38902-.2389 1.8809.60469 1.8809.73665 0 1.30834-1.11333 1.60961-3.13482zm12.81676 1.67185.99706-1.46288.0237 1.53259c.0135.84573.44438 1.37773.96204 1.18704 1.14731-.42246 1.76549-12.33312.64004-12.33312-.98365 0-1.2943.63223-3.46531 7.0565-1.80554 5.34254-1.39498 7.30226.84214 4.01987zm14.42529-3.85818c1.05785-6.3946 1.08126-7.21819.20457-7.21819-.58432 0-1.31586 2.82576-2.75914 10.65842-.22303 1.21029.0135 1.88091.6638 1.88091.64883 0 1.32543-1.90429 1.89071-5.32114zm11.47529 3.85818.0867-1.46288.34327 1.46288c.1888.80465.79046 1.46296 1.33702 1.46296.8526 0 2.64899-7.84112 2.64899-11.56286 0-1.83422-1.37464-.9807-2.1299 1.32237l-.75386 2.29893-.0596-2.29893c-.0327-1.26433-.39056-2.29884-.79553-2.29884-.40496 0-.93107 1.03451-1.16915 2.29884-.23813 1.2644-.75118 3.87617-1.14017 5.80391-.90552 4.48764-.91036 4.43658.4186 4.43658.61922 0 1.16503-.65846 1.2129-1.46296zm14.93575.41809c.008-.70143.2593-.63224.7648.20905l.7533 1.25392 1.11155-1.62269 1.11155-1.6227v1.41372c0 3.18653 1.35118 1.096 2.14809-3.32347 1.52474-8.45602.6362-10.43365-2.09698-4.66734l-1.4859 3.13482-.0327-3.13482c-.0372-3.48217-1.22466-4.15608-2.21021-1.2539-1.17561 3.46193-1.78037 10.65842-.89572 10.65842.45157 0 .82614-.47053.83245-1.04493zm18.75268.20905c0-.45962-.33776-.83597-.75061-.83597-1.15881 0-.88953-1.78716.5331-3.53797 1.0083-1.24095 1.07687-1.72211.31985-2.24327-.76299-.52517-.71762-.93758.21751-1.9791 1.59855-1.78045 1.48769-3.10706-.25961-3.10706-1.16885 0-1.66496 1.0968-2.62699 5.8077-1.47856 7.24026-1.53073 6.73163.69037 6.73163 1.03207 0 1.87642-.37657 1.87642-.83596zm12.11128-1.04494.10246-1.8809.32525 1.8809c.60672 3.50855 2.24179 2.01143 3.11951-2.85628 1.02644-5.69238 1.07812-7.80215.19118-7.80215-.36467 0-.9142.84639-1.22113 1.88091l-.55808 1.88089-.33225-1.88089c-.18272-1.03452-.64004-1.88091-1.01631-1.88091-.37625 0-.85665.84639-1.06752 1.88091-2.20905 10.83411-2.19636 10.65842-.77098 10.65842.63689 0 1.17023-.81688 1.22805-1.8809zm15.28455-3.13635c.28754-2.75948.82738-5.2268 1.19954-5.48304 1.30269-.89664.66043-2.03904-1.14634-2.03904h-1.82304l.10807 2.71687c.0596 1.49428-.16324 4.31559-.49459 6.26963-.49009 2.89015-.39394 3.55283.51565 3.55283.80815 0 1.26304-1.39077 1.64094-5.01725zm23.14356 1.25545c-.0686-1.37934-.30927-3.63638-.53601-5.01573-.22663-1.37933-.22697-1.82875 0-.99867.5394 1.97894 2.09605 1.3647 2.40155-.9477l.23979-1.81543h-2.25169c-2.69293 0-3.39615 2.40833-1.78623 6.11733.56236 1.29557.85971 2.80026.66089 3.34386-.19895.54337-.38833.29864-.42084-.5441-.0822-2.1215-1.87956-1.27081-2.18281 1.03298l-.24712 1.87734 2.12352-.27095 2.12355-.27096zm11.01438 1.8809c.003-.57469.85565-3.07458 1.89244-5.55523 2.05185-4.90916 1.82002-6.68444-.46329-3.54766l-1.43653 1.97348v-1.76451c0-.9705-.42221-1.76451-.93818-1.76451-.6612 0-.93817 1.72766-.93817 5.85169s.27707 5.85168.93817 5.85168c.51597 0 .94154-.47054.94548-1.04494zm15.44772-1.05106c.30028-1.33243.006-2.8876-.80612-4.26912-1.01146-1.71927-1.08397-2.37271-.34754-3.12869.7201-.73924.82629-.62423.46871.50768-.30421.96285-.0855 1.46288.64003 1.46288.68306 0 1.10233-.81601 1.10233-2.14538v-2.14545l-2.06408.2644c-2.52864.32413-3.0512 2.79153-1.36179 6.43017.73406 1.58102.89053 2.70842.42085 3.03175-.41128.28334-.7478-.0729-.7478-.78848 0-.71673-.33775-1.30329-.7506-1.30329s-.75051.94041-.75051 2.08987c0 1.66764.37628 2.08988 1.86212 2.08988 1.36174 0 1.98905-.56304 2.33443-2.096zm10.43947-2.98578c.41285-2.49246 1.02385-5.00195 1.35781-5.57664.42759-.73575.0631-1.04495-1.23408-1.04495-1.42408 0-1.8299.4261-1.79089 1.88091.027 1.03452-.22159 3.71569-.55428 5.95832-.88074 5.9385 1.22757 4.78293 2.22141-1.21764zm11.14592 2.57388c-.29047-1.61737-.14536-2.50782.40835-2.50782.54568 0 .68351-.77725.37806-2.13264-.34756-1.54234-.0912-2.46047.92387-3.3172l1.4045-1.18463-1.91391-.0291-1.91389-.0291-.90067 4.85708c-1.19072 6.4207-1.15456 6.84628.58161 6.84628h1.48236zm11.08288 1.04502.0867-1.46296.3433 1.46296c.39347 1.67688 1.70484 1.98251 1.79354.41809.0473-.83597.1349-.83597.43787 0 .20815.57469.79474 1.04494 1.3033 1.04494.57531 0 1.19911-2.21072 1.65095-5.85169.56549-4.55742.51854-5.85168-.21269-5.85168-.51643 0-1.44281 1.03453-2.05867 2.29885l-1.1198 2.29892-.0304-2.29892c-.0215-1.68286-.40912-2.29885-1.44471-2.29885-1.15659 0-1.51142.86263-1.9451 4.72881-.2916 2.60084-.70456 5.23409-.91735 5.85168-.22495.65263.11799 1.12288.81919 1.12288.66333 0 1.24533-.65847 1.29322-1.46288zm-304.664496.53026c-10.395071-1.92701-14.482164-8.43045-8.793911-13.99297 3.248921-3.17713 7.216755-4.40992 14.29336-4.4408 6.894928-.0291 9.665148.61402 13.667634 3.17742 7.769083 4.97595 3.770211 12.98212-7.636053 15.28832-5.001824 1.01129-5.916891 1.00874-11.53103-.0291zm325.860976-7.85598c-.23979-.6956 1.85246-8.87752 4.64917-18.18197 7.98209-26.55597 9.98375-32.61736 11.22945-34.00478 1.2936-1.44074 11.26087-2.29717 15.7702-1.35494 3.24556.67813 3.31921 1.85221.67145 10.70702l-1.93806 6.48151h-2.51291-2.51293l.62788-2.29885c.34539-1.2644 1.15121-3.89765 1.79074-5.85168l1.16281-3.55284-5.03301.00074-5.03302.00073-6.57995 21.52474c-3.61892 11.83863-6.57428 21.80691-6.56742 22.15173.006.34453 2.18012.62715 4.82949.62715h4.81704l1.99967-6.68766 1.99972-6.68764h2.64562 2.64566l-.54941 1.46296c-.30219.80456-1.17225 3.62217-1.93358 6.26132-1.81742 6.30008-3.34868 9.50933-4.84167 10.14747-.66819.28552-4.74438.51934-9.05812.51934-6.30918 0-7.92833-.24765-8.27884-1.26477zm34.04051-21.86153c3.91193-12.79806 7.67449-25.15005 8.36126-27.44891l1.24872-4.17976 7.38253.006 7.38249.006 1.80693 2.33964c.9938 1.28683 1.80688 2.98637 1.80688 3.77681 0 1.89081-10.66242 37.40204-12.26575 40.85108-.6836 1.47046-2.48225 3.72757-3.99708 5.01571l-2.75423 2.34212-8.04214.28043-8.04217.28043zm8.51565 17.24985c.79419-.47345 1.91426-1.88404 2.48898-3.13481 2.36417-5.14508 11.07856-35.27669 10.84887-37.51203l-.24453-2.37999-4.2114-.24692-4.21139-.24692-1.57161 4.84499c-.86443 2.66478-3.93767 12.65077-6.8295 22.19106l-5.25788 17.34535h3.77218c2.07472 0 4.42202-.3875 5.21622-.86073zm-341.565769-2.6921c-.0259-2.88979-2.4988-8.31552-5.123528-11.23888-2.208026-2.45925-4.381244-3.58285-9.230536-4.77237l-1.986191-.48729.59749-2.95053c3.214627-15.87474 23.216043-17.75944 28.858339-2.71927 1.440199 3.83901 1.496423 9.85866.125307 13.41754-1.455757 3.77863-5.518104 7.82407-9.381098 9.34209-4.088544 1.60667-3.840204 1.64469-3.859794-.59144zm-60.825343-3.43994c-7.2786516-2.1861-10.5348677-6.96386-7.6754461-11.26203 4.6471461-6.9855 21.6140161-8.05265 29.4334591-1.85127 3.065157 2.43091 3.205867 6.5698.32458 9.54546-3.977783 4.10801-14.580325 5.82102-22.082537 3.56784zm84.836663-.14422c-.770533-1.03409-.777397-2.46303-.0349-7.31457 1.401374-9.15847 1.299578-8.95525 4.485119-8.95525h2.82449l-.94447 5.10458c-1.06415 5.75138-.8266 7.1367 1.35642 7.90842 2.52406.8922 4.26986-1.92657 4.81929-7.78117l.48671-5.18594-4.23289-7.90019c-3.31705-6.19082-4.23288-8.64787-4.23288-11.35615 0-5.00749 1.47491-11.01482 3.23664-13.18279l1.52842-1.88089h6.53237c9.06639 0 9.17812.22506 6.64233 13.3946l-.80115 4.16045h-2.82614-2.82613l.713-4.60922c.85937-5.55567.43627-7.09415-1.95126-7.09415-2.38635 0-3.55225 1.70558-4.32821 6.33161l-.63846 3.80653 4.48966 8.27815c2.46933 4.55298 4.48968 9.18505 4.48968 10.29351 0 4.50177-2.44574 14.382-3.9123 15.80475-2.05452 1.99314-13.42117 2.12899-14.875141.17772zm21.752429-.0219c-.79845-1.0716-.74971-2.67296.27392-8.98651.68507-4.22542 2.26834-14.26567 3.51837-22.31175 1.25002-8.04601 2.46325-15.66366 2.69605-16.92806l.42332-2.29877h2.56735c1.41203 0 2.56719.28188 2.567.62713-.00018.34453-1.51994 10.21958-3.37721 21.94378-1.85727 11.72427-3.37703 22.16323-3.3772 23.19776l-.00026 1.8809h2.95797c3.46426 0 3.66051-.26148 4.5445-6.04856.98793-6.46753 5.92884-36.62449 6.43929-39.30196l.43829-2.29884h2.61792c2.14502 0 2.54578.2644 2.21857 1.46296-.21964.80456-1.06899 5.60082-1.88736 10.65835-5.6308 34.79676-6.02313 36.75982-7.64329 38.24492-2.18654 2.00429-13.5125 2.12448-14.97713.15879zm19.55202.66865c0-.34962 1.20279-7.59085 2.67288-16.0921 1.4701-8.50125 3.37952-19.87692 4.24317-25.27926l1.57029-9.82246h7.78199 7.78198l.77278 1.88906c.96564 2.36047-2.52607 22.95681-4.20983 24.83219-.68452.76232-3.06631 1.35238-6.27421 1.55429l-5.17086.32558-1.25512 7.64329c-.69038 4.20386-1.59902 9.43015-2.01932 11.61414l-.76423 3.97078h-2.56477c-1.41064 0-2.5648-.28625-2.5648-.63515zm16.16607-28.67506c.27098-.48875 1.07203-4.07458 1.77997-7.96924 1.4356-7.8975 1.07711-9.03173-2.70168-8.5491l-2.10946.2695-1.24163 6.26963c-.68294 3.44831-1.27396 7.30415-1.31348 8.56855l-.072 2.29885h2.58267c1.42049 0 2.80445-.39988 3.07546-.88804zm4.84979 28.3561c0-.52516 1.18035-7.57832 2.62301-15.67415 1.44264-8.09583 3.40628-19.2339 4.36362-24.75119l1.74062-10.03143 6.23682-.24474 6.23684-.24473-.4678 1.35778c-.25725.74673-.46779 2.07931-.46779 2.96131v1.60353h-3.32696c-3.70141 0-3.54927-.24619-4.90712 7.94156-.45743 2.75861-.99379 5.8621-1.19185 6.89663l-.36004 1.8809h3.47214c2.85777 0 3.39154.23381 3.01657 1.3223-.25062.72694-.45563 1.85578-.45563 2.50783 0 .84704-.96025 1.18558-3.36326 1.18558h-3.36325l-.33842 1.88092c-.1861 1.03444-.72348 4.32601-1.19415 7.31457-.47061 2.98855-1.03691 6.28011-1.25833 7.31456l-.40272 1.8809h3.53923c2.91894 0 3.45939.23163 3.08364 1.32231-.25062.72766-.45563 2.04391-.45563 2.92584v1.60354h-6.3798c-4.28071 0-6.37982-.31394-6.37982-.95441zm16.51246-.76532c0-.9458.32639-3.29695.72527-5.22469.39889-1.92774 2.09631-11.78093 3.772-21.89599s3.2338-19.42547 3.46246-20.68987l.41578-2.29891h7.39242c8.06211 0 10.23269 1.0327 9.47732 4.50897-.21042.96839-.9268 4.95826-1.59202 8.86632-.66515 3.90806-1.37089 7.9637-1.56825 9.01243-.19736 1.04872-1.35016 2.57825-2.56175 3.39893l-2.20294 1.49209 1.52084 1.69386 1.52085 1.69384-1.72411 10.58138-1.72409 10.58136h-2.87822c-2.38869 0-2.81217-.24911-2.48994-1.46288.94796-3.57178 2.71516-15.73781 2.71516-18.69235v-3.25151h-2.5648-2.56478l-.75263 3.97078c-.41386 2.18392-1.32139 7.45049-2.01659 11.70337l-1.26402 7.73259h-2.549c-2.07225 0-2.549-.32195-2.549-1.71972zm15.55351-27.7476c1.03218-1.48569 3.42269-14.61574 2.84917-15.64924-.26277-.47345-1.62458-.86087-3.02635-.86087h-2.54868l-.49425 3.13481c-.2719 1.72416-.9188 5.47213-1.4377 8.32877-.5189 2.85665-.76208 5.39587-.54052 5.64272.7756.86385 4.47905.43921 5.19833-.59655zm16.24538 27.22033c.2281-1.29288 1.64983-9.68618 3.15927-18.65185 1.50943-8.96559 3.30417-19.4986 3.98832-23.40666l1.24391-7.1056 2.72419-.25493 2.72417-.25421.46341 3.18041c.25489 1.74929.95303 7.65196 1.55137 13.11702.59839 5.46513 1.22666 10.09109 1.3962 10.27988.16955.18866 1.21026-5.03502 2.31271-11.60845 2.68344-16.00017 2.24393-14.87767 5.82499-14.87767h3.04551l-.39991 2.29892c-.22 1.2644-2.18878 12.92597-4.37517 25.91457l-3.97524 23.6157h-2.84905-2.84904l-.0225-1.8809c-.0451-3.72429-2.09619-26.6723-2.41589-27.0284-.17991-.20031-1.47804 6.12818-2.88473 14.06347l-2.55758 14.42789-3.25977.26076-3.25978.26076zm23.24067 1.06045c.22483-.65263 1.9591-10.33925 3.85392-21.52582 1.8948-11.18659 3.79744-22.31417 4.22809-24.72796l.78302-4.38879h2.57378c2.96014 0 2.9541-.0291 1.52006 7.94155-.57891 3.21844-2.50956 14.40983-4.29043 24.86969l-3.23793 19.01794h-2.91966c-2.2132 0-2.82074-.28698-2.51082-1.18661zm9.51018.14204c.002-1.54418 4.80236-30.63478 7.5877-45.97751l.87265-4.80674h2.76996 2.76997l.89021 7.73258c.48964 4.25288 1.10277 10.08367 1.36253 12.95728.25972 2.87362.70623 5.2247.99219 5.2247.28598 0 1.48106-5.83078 2.65581-12.95728l2.13592-12.95728h3.29236 3.29239l-.37771 1.46295c-.20772.80457-1.95714 11.05547-3.88752 22.77975-1.93037 11.7242-3.82271 22.72745-4.20517 24.4516l-.69543 3.13489h-2.59805c-1.42893 0-2.61762-.094-2.64154-.20905-.1601-.76939-2.1409-25.68621-2.17087-27.30789-.0202-1.11106-.22686-1.80915-.45844-1.55116-.3068.34162-5.53286 27.38393-5.57716 28.85905-.004.11509-1.35729.20905-3.00854.20905-1.90198 0-3.00189-.38313-3.00122-1.04494zm27.30934-1.25398c.22507-1.26433.5939-3.61548.81962-5.2247.22575-1.60922 1.58829-10.23363 3.02795-19.16536 3.0826-19.12493 3.09207-19.28853 1.11638-19.28853-.97939 0-1.50114-.55721-1.50114-1.60353 0-3.93837.55955-4.24815 7.67351-4.24815h6.76234l-.45261 1.8809c-.24893 1.03452-.45719 2.35115-.46283 2.92584-.006.5747-.85462 1.04494-1.88665 1.04494-1.03208 0-1.87643.17409-1.87643.3875 0 .60602-6.69532 41.59927-7.13882 43.70896l-.39543 1.8809h-3.04754-3.04761zm11.74667.83596c.0157-.80457 1.99235-12.37209 4.3937-25.70558l4.36604-24.24264 6.20679-.24473 6.20676-.24474-.4678 1.35778c-.25736.74681-.46777 2.07939-.46777 2.96131v1.60354h-3.36321-3.36328l-.3919 1.8809c-.59975 2.87851-2.63901 14.06407-2.63901 14.47487 0 .19958 1.4614.36346 3.24756.36346h3.24756l-.33044 2.5079-.33043 2.50782h-3.21756-3.2175l-.80341 3.97078c-.69678 3.44394-2.34858 13.39977-2.34858 14.15583 0 .14568 1.55604.26441 3.45788.26441 2.84472 0 3.37705.23454 3.00226 1.3223-.25064.72694-.45565 2.04392-.45565 2.92585v1.60353h-6.37983-6.3798l.0282-1.46288zm15.35055-.41809c.21739-1.03452 2.07892-11.8497 4.13659-24.03373 2.05763-12.18403 3.92408-23.02113 4.14763-24.08246l.40632-1.92963 2.78933.25785 2.78931.25784.44335 4.17976c1.9605 18.4836 2.47235 22.1931 2.92497 21.19879.28449-.62496 1.09377-4.70959 1.79851-9.07748.70477-4.36782 1.62772-9.91649 2.05097-12.33028l.76962-4.3888h2.94904 2.94908v1.72015c0 .94609-.65718 5.36621-1.46033 9.82247-.80319 4.45632-2.34337 13.36881-3.42263 19.80567-1.07923 6.43687-2.33349 13.67831-2.78721 16.09209l-.8249 4.38881h-2.76948-2.76947l-1.10244-14.83819c-.6064-8.16102-1.30442-14.2739-1.5513-13.58427-.24688.68978-1.56206 7.36687-2.92264 14.83819l-2.47382 13.58427h-3.2329-3.23295zm23.65352.83596c.003-.5747 1.14742-7.62814 2.54711-15.67414 1.39966-8.04609 3.33251-19.2374 4.29516-24.8697l1.7503-10.24041h7.68526 7.68525l.7986 1.66181c.61097 1.27161-.0124 6.42478-2.64732 21.94378-4.23789 24.94405-4.55493 26.31487-6.33079 27.37343-2.15115 1.28218-15.78631 1.11392-15.78354-.19447zm11.8271-4.60658c.86983-.96875 1.93406-5.18267 3.11411-12.33029.98604-5.97223 2.3762-14.0562 3.08935-17.96425 1.53723-8.42426 1.10896-10.03145-2.67254-10.03145-2.04866 0-2.60061.33506-2.60061 1.57805 0 1.57418-2.74776 18.46829-4.87985 30.00297-1.62992 8.8178-1.52699 10.21666.75172 10.21666 1.03208 0 2.47106-.6621 3.19782-1.47169zm10.74713 4.10334c-.53724-1.118.25885-7.89392 2.86431-24.38517l3.60824-22.837 1.7287-1.55903 1.72875-1.55909 6.73751.23891 6.73758.2389.94098 1.67193c.75904 1.34868.73754 2.80326-.11144 7.52362-1.89938 10.5625-3.93609 22.43856-5.19647 30.30029-.75015 4.67914-1.82254 8.55545-2.71733 9.82247l-1.47812 2.09286h-7.0495-7.0495zm10.68695-3.83668c.88751-.74936 1.70465-3.29615 2.33828-7.28798.53567-3.3749 1.89442-11.70089 3.01946-18.50217 1.12505-6.80136 1.85659-12.91423 1.62574-13.58427-.24093-.69925-1.39687-1.21823-2.71359-1.21823-1.68904 0-2.46223.49604-2.93274 1.88091-.51463 1.51481-3.1791 17.29626-5.85619 34.68502-.67293 4.37139 1.65448 6.44532 4.51904 4.02672zm-310.222397-10.52232c0-2.63798-2.122654-7.66688-4.355573-10.319-2.429425-2.88556-7.2272-5.49367-10.152463-5.51896l-2.1237-.0146.495711-2.7168c2.624806-14.38571 19.217386-19.31854 27.610888-8.20866 4.340725 5.74556 4.697721 15.03397.814327 21.18794-3.768353 5.97172-12.289201 9.85014-12.289201 5.59369z" fill="#f00" fill-opacity=".988281" stroke-width=".792111" transform="matrix(.24518840547 0 0 .32124117705 -.81309422285 -50.59710187267)"/></svg>