<svg height="171.83997" viewBox="0 0 600.27198 171.83996" width="600.27197" xmlns="http://www.w3.org/2000/svg"><g fill="#f00"><g stroke-width="3.947145" transform="translate(0 2)"><path d="m187.37265 120.83693v-23.127803q0-1.850224-.30837-3.083707-.23128-1.233483-1.23348-2.00441-.92511-.848019-2.77534-1.233483-1.85022-.385463-5.08811-.539648l.15418-2.775337q1.23348 0 2.92952.07709 1.77313 0 3.70045 0 2.00441 0 4.08591.07709 2.08151 0 3.93173 0 1.46476 0 3.23789 0 1.77313-.07709 3.46917-.07709 1.77313 0 3.31499 0 1.54185-.07709 2.62115-.07709l.15418 2.621151q-3.00661.231278-4.85683.770927-1.77314.462556-2.77534 1.541854-1.00221 1.002204-1.38767 2.852429-.30837 1.850224-.30837 4.702657v51.88337q0 1.85022.30837 3.0837.30837 1.23349 1.23348 2.08151 1.00221.77092 2.92953 1.15639 1.92731.38546 5.16521.53965l-.15419 2.77533q-1.23348 0-3.00661 0-1.77314-.0771-3.77755-.0771-2.00441 0-4.08591 0-2.0815-.0771-3.93172-.0771-1.54186 0-3.31499.0771-1.69604 0-3.39208 0-1.69604 0-3.23789.0771-1.46476 0-2.54406 0l-.23128-2.62115q3.00662-.23128 4.77975-.69383 1.77313-.53965 2.77534-1.54186 1.0022-1.07929 1.31057-2.85243.30837-1.85022.30837-4.77974v-24.2071h-41.24458v27.05953q0 1.85022.23128 3.0837.30837 1.23349 1.23348 2.08151 1.00221.77092 2.85243 1.15639 1.85022.38546 5.08812.53965l-.15419 2.77533q-1.23348 0-3.00661 0-1.69604-.0771-3.70045-.0771-1.92732-.0771-4.00882-.0771-2.0815-.0771-3.93173-.0771-1.46476 0-3.23789.0771-1.77313 0-3.54626 0-1.69604 0-3.2379.0771-1.54185 0-2.62115 0l-.15418-2.62115q3.00661-.23128 4.77974-.69384 1.85023-.53964 2.85243-1.54185 1.00221-1.0793 1.31058-2.85243.38546-1.85022.38546-4.77974v-51.806273q0-1.850224-.30837-3.083707-.30837-1.233483-1.31057-2.00441-.92512-.848019-2.85243-1.233483-1.92732-.385463-5.16521-.539648l.15418-2.775337h3.39208q1.92732 0 3.85463.07709 2.00441 0 3.85464 0h6.78415q1.77314 0 3.46917 0 1.77314-.07709 3.31499-.07709h2.62115l.23128 2.621151q-3.00662.231278-4.77975.770927-1.77313.462556-2.77533 1.541854-1.00221 1.002204-1.31058 2.852429-.30837 1.850224-.30837 4.702657v20.27537z"/><path d="m258.22082 134.71361h-25.67186l-5.93614 15.18726q-1.54185 4.39428-1.54185 5.55067 0 2.00441 1.85022 2.77534 1.92732.77093 6.78416 1.0022l-.23128 2.77534q-2.85243 0-6.39869-.0771-3.54627-.0771-7.01544-.0771-2.85242 0-5.93613.0771-3.00662.0771-5.85905.0771l-.15418-2.62115q3.00661-.23128 4.93393-.69384 1.92732-.53964 3.31499-1.85022 1.46476-1.38767 2.69824-3.70045 1.31058-2.38987 3.00661-6.3216l22.1256-52.19174q.92511-2.312781 1.54186-4.008819.69383-1.773132 1.46476-3.777542l4.85684-.616741q.84802 3.700448 1.77313 6.784156 1.0022 3.083707 1.85022 5.627765l17.34585 50.264421q1.15639 3.39208 2.08151 5.3194.92511 1.92732 2.15859 3.00661 1.23348 1.00221 3.08371 1.38767 1.92732.38547 4.93393.61674l-.23128 2.77534q-3.23789 0-7.16962-.0771-3.85463-.0771-7.78636-.0771-3.23789 0-6.55288.0771-3.31498.0771-6.55287.0771l-.23128-2.62115q4.31719-.30837 6.16741-1.00221 1.85023-.77092 1.85023-2.77533 0-.84802-.30837-1.92732-.30837-1.15639-.77093-2.54406zm-23.89873-4.47137h22.43397l-10.33042-30.528704z"/><path d="m300.85307 123.68936q0 7.4009 1.85023 13.95377 1.85022 6.47579 5.55067 11.33263 3.77754 4.77974 9.40531 7.63217 5.62776 2.77534 13.25994 2.77534 4.163 0 7.94054-1.15639 3.85464-1.15639 6.78416-3.77754 2.77534-2.46697 4.77975-6.01323 2.0815-3.62336 4.08591-8.4802l3.0837.77093q-1.31057 5.08812-2.0815 9.55949-.77092 4.47138-1.31057 9.55949-6.09032 1.77314-12.10355 2.77534-5.93614 1.00221-11.94937 1.00221-8.71147 0-16.11237-2.69825-7.3238-2.69824-12.72029-7.63217-5.31939-4.93393-8.32601-11.87228-3.00661-7.01543-3.00661-15.57272 0-9.86786 3.62335-17.19166 3.62336-7.4009 9.79077-12.334831 6.24451-4.933932 14.41633-7.323805 8.17183-2.466965 17.26876-2.466965 4.70266 0 10.02205.693834 5.39649.693834 10.02205 1.927317-.46256 4.933931-.61674 9.405306-.0771 4.394284-.0771 9.328214l-3.23789.30837q-.30837-4.54847-1.85022-7.86345-1.46476-3.39208-4.00882-5.550675-2.46697-2.235688-5.78195-3.237892-3.31499-1.079298-7.24671-1.079298-7.70927 0-13.56831 2.466966-5.85905 2.389873-9.86787 6.784155-3.93172 4.317194-6.01323 10.484604-2.00441 6.09032-2.00441 13.49122z"/><path d="m395.83125 90.693693q-3.0837.231278-5.01102.770927-1.85022.462556-2.92952 1.541854-1.0793 1.002204-1.46476 2.852429-.38547 1.773131-.38547 4.625557v21.97142q2.23569-.38547 4.00882-1.31058 1.85023-.92511 4.08592-2.92952 2.38987-2.23569 5.08811-4.93393 2.69825-2.69825 5.3194-5.47358 2.69824-2.85243 5.16521-5.62777 2.46696-2.775334 4.39428-5.165207 1.0793-1.387668 1.54185-2.466966.53965-1.079297 0-1.850224-.53965-.84802-2.23568-1.310576-1.61895-.462556-4.77975-.616741l.15418-2.698244q1.0793 0 2.77534.07709 1.69604 0 3.54626 0 1.92732 0 3.85464.07709 2.00441 0 3.70045 0 1.46476 0 3.39207 0 2.00441-.07709 3.93173-.07709 2.00441 0 3.70045 0 1.69604-.07709 2.77534-.07709l.23127 2.621151q-2.77533.231278-5.08811.770927-2.23569.539649-4.39429 1.541854-2.0815 1.002204-4.163 2.544058-2.0815 1.464761-4.39428 3.623356-1.69604 1.541852-4.16301 3.931722-2.38987 2.38988-5.2423 5.3194-2.77534 2.85243-5.85904 6.01323-3.08371 3.0837-6.01323 6.09032 3.23789 4.00882 6.86125 8.48019 3.70045 4.47138 7.24671 8.71148 3.62335 4.163 6.70706 7.78636 3.1608 3.54626 5.2423 5.70485 2.31278 2.38988 3.85464 3.85464 1.61894 1.46476 3.0837 2.38987 1.46477.84802 3.1608 1.23348 1.69604.38547 4.31719.61675l-.15418 2.77533q-2.92952 0-6.47579-.0771-3.46917-.0771-6.93834-.0771-1.07929 0-2.31278.0771-1.15639 0-2.23569.0771-.61674-1.15639-2.15859-3.23789-1.54185-2.0815-3.70045-4.77975-2.15859-2.69824-4.77974-5.78195-2.54406-3.1608-5.3194-6.39869-2.69824-3.31498-5.47358-6.47578-2.69824-3.2379-5.08812-6.09033-1.54185-1.77313-2.85243-2.46696-1.23348-.77093-2.54405-.77093-.84802 0-1.77314.23128v26.13442q0 1.85022.30838 3.0837.30837 1.23349 1.31057 2.08151 1.0793.77092 3.00662 1.15639 2.00441.38546 5.31939.53965l-.15419 2.77533q-1.23348 0-3.0837 0-1.77313-.0771-3.85464-.0771-2.0815 0-4.24009 0-2.08151-.0771-3.93173-.0771-1.54185 0-3.39208.0771-1.77313 0-3.62335 0-1.85023 0-3.46917.0771-1.61895 0-2.69825 0l-.23128-2.62115q3.2379-.23128 5.16521-.69383 1.92732-.53965 2.92953-1.54186 1.07929-1.07929 1.38766-2.85243.38547-1.85022.38547-4.77974v-51.883373q0-1.850224-.30837-3.083707-.30837-1.233483-1.38767-2.00441-1.00221-.848019-3.00662-1.233483-2.00441-.385463-5.31939-.539648l.15418-2.775337q1.23349 0 3.08371.07709 1.85023 0 3.93173 0 2.0815 0 4.2401.07709 2.15859 0 4.00881 0 1.46477 0 3.2379 0 1.85022-.07709 3.62335-.07709 1.85023 0 3.46917 0 1.61895-.07709 2.69825-.07709z"/><path d="m445.86442 140.57266q1.54185 4.00881 3.23789 7.40089 1.77313 3.39208 4.16301 5.93614 2.46696 2.46696 5.70485 3.93173 3.2379 1.38766 7.78636 1.38766 3.00662 0 5.55068-1.0022 2.54406-1.00221 4.47137-2.85243 1.92732-1.85022 3.00662-4.31719 1.07929-2.54406 1.07929-5.55067 0-3.77754-1.38766-6.47579-1.38767-2.69824-3.70045-4.62556-2.31278-2.00441-5.2423-3.46917-2.92953-1.46476-6.01323-2.85243-3.46917-1.54185-7.01544-3.39208-3.46917-1.85022-6.2445-4.39428-2.77534-2.54406-4.54847-5.85904-1.77313-3.31499-1.77313-7.86346 0-4.85683 1.92731-8.557282 2.00441-3.777542 5.3194-6.3216 3.39208-2.544058 7.78636-3.854634 4.47137-1.310575 9.4824-1.310575 4.85684 0 8.94275.770926 4.163.693835 8.86566 1.927317-.23128 2.466966-.38547 4.625561-.15418 2.081502-.23128 4.163005 0 2.004412-.0771 4.163002 0 2.0815 0 4.54847l-3.23789.30837q-.69383-8.171823-5.01102-12.180642-4.2401-4.085912-11.48681-4.085912-2.77534 0-5.08812.848019-2.31278.84802-4.00882 2.466966-1.69604 1.618946-2.69824 3.854634-.92511 2.235685-.92511 5.011025 0 3.70045 1.15639 6.24451 1.23348 2.46696 3.31498 4.31719 2.0815 1.85022 4.77975 3.23789 2.77533 1.31057 5.78195 2.62115 3.70045 1.61895 7.40089 3.54626 3.77755 1.92732 6.70707 4.54847 3.00661 2.62115 4.85684 6.09032 1.85022 3.46917 1.85022 8.17183 0 5.2423-2.15859 9.32821-2.1586 4.00882-5.70486 6.86125-3.54627 2.77533-8.17183 4.2401-4.62556 1.46476-9.4824 1.46476-4.24009 0-8.78856-.84802-4.54847-.84802-9.63659-2.31278-.53964-5.08812-1.31057-9.5595-.77093-4.47137-2.0815-9.55949z"/></g><path d="m174.5584 7.9567555h9.26383q4.44874.4710424 4.44874 4.1347055-2.09353 12.09009-2.66924 13.660231h-6.33291l-.31403-.157014q1.51781-8.217074 1.51781-9.420849-.36637-2.355212-2.35522-2.355212-4.03003 0-4.60574 6.332904-.10468.26169-.57572 3.244959 0 1.727155 2.51222 4.710424 7.37967 11.933075 7.37967 13.084512-2.66924 15.910767-3.97769 15.910767-1.62248 2.041184-5.18147 2.041184h-8.06006q-3.14028 0-4.44873-2.355212 0-.05234-.26169-1.62248 2.19819-13.817244 2.6169-13.817244h6.17589q.31403.05234.31403.314028-1.7795 9.002144-1.7795 9.996567 0 1.936508 2.82626 2.512227h.26169q2.72158 0 3.55899-4.134706 0-.418705 1.15143-6.908623-.62805-2.250536-8.68811-15.439724-1.15144-2.302874-1.15144-4.448734 2.14586-13.084512 3.50665-13.084512 1.77949-2.1981985 4.86744-2.1981985zm18.37065 0h5.75719q.31403 0 .31403.4187043l-7.95539 45.0630602q.31403.837409 1.15144.837409h4.29172q2.1982 0 2.1982-3.925354l7.79837-42.2368054.31403-.1570141h5.44315l.26169.1570141q-8.37409 45.1677364-8.9498 47.5229484-1.93651 3.506649-6.33291 3.506649h-8.1124q-3.50664 0-4.55341-2.930931v-.889746q0-1.62248 8.1124-47.2089204zm36.95066 0q3.40198 0 4.3964 2.9309305l.15702 1.360789q-3.76834 20.987558-4.3964 20.987558-2.09352 2.669241-4.71043 2.669241h-8.37408q-3.716 19.679106-4.55341 23.238093h-6.07122l-.26169-.157014q9.26384-48.9884136 9.83956-51.0295975zm22.08666 0q.26169.052338.26169.3140283-.83741 6.0188752-1.15144 6.0188752h-6.90862l-3.24496 15.858429h6.90863l.31402.157014q-.88974 5.181467-1.36079 5.181467h-6.59459q-.36637 0-2.51223 13.974259-.15701 0-.57571 3.244959h6.7516q.31403 0 .31403.26169-.88974 6.17589-1.20377 6.17589h-13.97426q-.26169 0-.26169-.26169 8.5311-43.545257 10.10124-50.9249215zm4.3964 0h13.66023q3.66366 0 4.60575 3.0879445 0 .471043.10467 1.046761-3.50665 19.365078-4.08237 20.150149-1.9365 1.831832-4.86743 2.616903v.314028q1.77949 0 3.40197 2.773916v.889747q0 1.517804-3.55899 20.150149l-.31403.157014h-5.86186l-.31403-.157014q2.82626-13.974259 3.55899-19.260402-.31403-3.820677-1.04676-3.820677h-4.3964l-4.39639 23.081079-.31403.157014h-5.9142l-.26169-.157014 9.68254-50.8725834zm34.43843 0h5.86187q.47104 0 1.77949 12.8228215.15701.05234 1.77949 13.660231h.10468q4.44873-24.4418686 5.02445-26.4830525h7.22265q0 1.4654653-9.73488 51.1866115h-6.01887q-.52338 0-1.15144-11.776061-.15701-.418704-1.5178-17.480908h-.10468q0 .575718-5.9142 29.256969h-7.06563q-.26169 0-.26169-.26169l9.68254-50.7679074zm31.35049 0q.2617.052338.2617.3140283-9.26384 48.9884132-9.68254 50.8725832h-6.07122q-.26169 0-.26169-.26169 8.94981-47.679963 9.68254-50.9249215zm9.99657 0q.36637 0 .88975 6.1758895.15701.05234 2.45989 19.993135h.31403q.88974-5.547833 4.86743-26.1690245h7.06564q.26169.052338.26169.3140283-9.42085 49.7211462-9.68254 50.8725832h-6.17589q-.31403 0-.31403-.26169l-2.19819-29.152293h-.15702q-5.75718 29.047617-6.01887 29.413983h-7.22265v-.157014q9.00214-48.569709 9.73487-51.0295975zm18.78936 0h14.75933l.26169.1570141q-.88974 5.9665374-1.15144 6.1758894h-3.716q-7.90304 44.173314-8.21707 44.853708h-6.90862l-.31403-.157014q7.53668-42.550834 7.95538-44.539679l-.31403-.157015h-3.34963q-.31403 0-.31403-.314028 1.04676-6.0188755 1.30845-6.0188755zm30.77477 0 .31403.1570141q-.88974 6.1758894-1.20377 6.1758894h-6.75161q-.36637 0-1.62248 7.641355-.73273 2.878593-1.62248 8.217074h6.75161l.31403.157014q-.94209 5.181467-1.20378 5.181467h-6.75161q-.36636 0-2.35521 12.927498-.15701 0-.73273 4.29172h6.75161l.31403.104676q-.88975 6.071214-1.20378 6.332904h-13.97426q-.26169 0-.26169-.26169 8.37409-43.074214 10.15358-50.9249215zm9.26384 0q.57572 0 .88975 5.0244525.57571 3.349635 2.66924 21.301586h.10467l5.02446-26.3260385h7.06563l.26169.1570141q-9.10682 48.4126954-9.68254 50.8725834l-.31403.157014h-5.86186q-.31402 0-.31402-.26169-2.1982-28.210208-2.1982-29.152293h-.15702q-4.55341 23.081079-6.01887 29.413983h-7.06564l-.31403-.157014q9.42085-49.5641322 9.89189-51.0295975zm33.39167 0q3.76834 0 4.55341 3.2449585 0 .628057.15702.889747-7.79837 42.027454-8.37409 43.702271-1.88417 3.349635-6.17589 3.349635h-13.55555l-.26169-.157014q9.36851-49.7211463 9.83955-51.0295975zm14.13128 0h9.99656q3.2973 0 4.29172 2.5122265.2617.52338.2617 1.151437v.628056q-6.90863 38.154438-8.21708 43.545257-1.93651 3.349635-6.3329 3.349635h-8.68812q-3.87301 0-4.71042-2.512226-.26169-1.099099-.26169-1.308451 6.43758-38.1021 7.64135-43.545257 2.04119-3.8206775 6.01888-3.8206775zm-29.9897 46.2144975h2.77391q3.97769 0 4.55341-5.757186 5.9142-30.984125 5.9142-31.769195v-.157015q-.4187-2.512226-2.51222-2.512226 0-.157014-.88975-.157014h-2.1982q-.4187 0-3.08794 15.753753-3.24496 16.591161-4.55341 24.598883zm23.81381-2.669241q.36636 2.669241 2.04118 2.669241h.73273q3.82068 0 4.44874-7.955384 5.28614-28.367222 5.28614-29.885026 0-1.936508-2.82625-2.512226-3.82068.628057-3.82068 5.181467-.26169.889747-5.86186 32.501928zm-214.37665-21.353924q.31403.889747.62806.889747h4.39639q1.36079 0 2.66924-8.06006.10468 0 1.46547-6.908622-.62806-1.308451-1.7795-1.936508h-3.40197q-1.30845 0-1.30845 2.773917-.15701 0-2.66924 13.241526zm40.35264.157014q.26169.680395.57571.732733h3.24496q1.72716 0 2.77392-3.663663l2.1982-11.305019v-.157014q-1.15144-1.779494-2.04119-1.779494h-2.82625q-1.15144 0-1.15144 1.62248-2.1982 11.095666-2.77391 14.549977zm-98.13385 33.286999h286.44615q.26169 0 .26169.261691v16.172457q0 .314028-.26169.314028h-286.44615q-.31402 0-.31402-.314028v-16.172457q.0523-.261691.31402-.261691zm209.19519 5.286143q.52338 1.413128 2.19819 3.977692v.104676q-.10467 2.512226-.88974 2.512226h-.41871q-.20935 0-.47104-.418704.31403-1.88417.31403-2.355212h-1.30845q-.62806 2.983269-.62806 3.087945.31403.680394.62806.732732h2.45988q1.36079 0 1.7795-3.820677 0-.157014-2.1982-3.977692.31403-2.198198 1.15144-2.198198.62805.157014.62805.575719 0 .78507-.31402 2.041184h1.20377q.31403 0 .73273-3.349636l-.62805-.471042h-2.93093q-.88975 0-1.30845 3.558987zm13.08451-3.558987q0 .575718.73273 6.071214-.73273 4.501072-.73273 5.129128h1.30845q.31403 0 1.20377-5.024452.10468 0 3.50665-6.018876v-.157014h-1.62248q-.26169 0-2.04118 3.820678h-.4187v-.575719q0-1.046761-.15702-3.244959zm15.02102 3.716001q.52338 1.308452 2.1982 4.082368-.36637 2.355212-.88975 2.355212h-.57572q-.31403 0-.31403-.26169v-.314028q0-.837409.31403-2.198198h-1.46547q-.47104 2.302874-.47104 3.506649l.47104.314028h2.93094q.94208 0 1.30845-3.977691-.57572-1.308452-2.1982-3.663664.36636-2.198198.88975-2.198198h.57571q.10468 0 .47105.418705-.31403 1.308451-.31403 2.041184h1.30845q.47104-2.616903.47104-3.192621-.15701-.628057-.88975-.628057h-2.66924q-.94208 0-1.15143 3.716001zm13.08451-3.716001-.15701 1.046761v.314028q.47104 0 .73273.104676-1.46547 8.635778-1.7795 9.734877h1.7795q1.46546-9.839553 1.93651-9.839553.88974 0 .88974-1.360789zm11.04333 11.200342h3.24496v-.575718l.10467-.732733h-1.30845l-.31403-.157014q.62806-3.663663.88975-3.663663 1.46547 0 1.46547-.471043l.15701-.732732h-1.30845l-.31403-.157015q.62806-3.349635.88975-3.349635 1.46546 0 1.46546-.471042 0-.104676.15702-.889747h-2.77392q-.36637 0-2.35521 11.200342zm14.54998-11.200342q-2.04119 10.7293-2.04119 11.200342h1.62248l.83741-5.286143h.31403v.157015q0 1.046761.15701 5.129128h.88975q.52338-.628056 2.35521-5.129128h.15702v.104676q0 .52338-.78508 5.024452h1.51781l1.72715-11.200342h-1.72715q-2.30288 5.547833-2.82626 6.071214-.15701-.314029-.15701-.471043 0-.942085-.10468-5.600171zm-272.31487 11.619047.31403.157014h2.6169q.47104-.104676.47104-1.151437v-.314028h-1.20377l-.31403-.157015q.52338-3.663663.88974-3.663663h1.36079l.10468-1.046761v-.157014h-1.15144l-.31403-.104676q.47105-3.401973.88975-3.401973h1.30845l.15702-1.046761v-.418705h-2.61691q-.4187 0-2.35521 11.043329-.15701 0-.15701.26169zm16.17245-11.305019-2.19819 11.305019.31402.157014h1.30846q1.15143-5.600171 1.15143-6.018876h.31403q0 .994423.41871 6.018876h1.20377q.36637 0 2.35521-11.462033h-1.62248q-.88974 4.605749-.88974 5.129129h-.15702q-.26169 0-.88974-5.129129zm14.707 1.465466q.88974 0 .88974.314028-1.30845 7.222651-1.62248 9.682539h1.46547q1.77949-9.996567 2.09352-9.996567.83741 0 .83741-1.308452l-.26169-.157014h-2.82626q-.26169 0-.57571 1.465466zm15.02102-1.465466q-2.1982 10.938652-2.1982 11.462033h2.93093q.31403 0 .4187-1.465465h-1.30845l-.31403-.157015q.62806-3.663663.88975-3.663663 1.46547 0 1.46547-.418704 0-.523381.15701-.785071-1.62248 0-1.62248-.104676.62806-3.401973 1.04676-3.401973 1.30845 0 1.30845-.418705l.15702-1.046761zm14.13127 0q-2.09352 10.938652-2.09352 11.462033h1.36079q.88974-5.129129 1.15143-5.129129h.73274q.31402 0 .31402.418705 0 .52338-.73273 4.710424h1.15144q.31403 0 1.04676-4.710424l-.57572-.732733q1.15144 0 1.46547-3.820678.20935 0 .26169-1.308451-.26169-.889747-1.15144-.889747zm14.39296 0-.26169 1.465466q.83741 0 .83741.314028-1.57014 8.84513-1.57014 9.682539h1.46547q1.67481-9.787215 2.04118-9.996567.73273 0 .73273-.732733v-.732733zm12.66581 11.305019v.157014h1.62248q.78507-2.616902 1.15144-2.616902h.62805q.26169 0 .26169.26169-.15701 1.517803-.15701 2.355212h1.62248q.31403 0 .31403-.26169l.4187-10.886314q.15702 0 .15702-.157015l-.26169-.157014h-1.46547q-.57572.523381-4.29172 11.305019zm15.28271 0 .31403.157014h.88975q.4187 0 2.35521-11.462033h-1.20378q-.31403 0-2.1982 11.200343-.15701 0-.15701.104676zm15.17803-11.305019-2.19819 11.305019.26169.157014h1.36079q1.15143-5.600171 1.15143-6.018876h.31403q0 1.727156.41871 6.018876h1.20377q.31403 0 2.1982-11.043328l.15701-.261691-.31402-.157014h-1.30846q-.88974 4.710425-.88974 5.129129h-.15702q-.31403 0-.88974-5.129129zm16.6435 0q-2.09352 10.938652-2.09352 11.462033h1.30845q.36637 0 1.04676-4.972115h.15702q.31403 0 .31403.261691v.314028q0 1.465465.10467 4.396396h1.04676l2.04119-5.129129h.31403l-.73274 5.129129h1.30845q.62806-2.930931 1.93651-11.305019h-1.62248q-.31403 0-2.82625 6.17589h-.26169q0-.418704-.15702-5.914199-.15701-.261691-.15701-.418705zm18.21365 0-2.1982 11.462033h2.93093q.31403 0 .47104-1.465465h-1.36079l-.26169-.157015q.57572-3.663663.88975-3.663663h1.46546v-.418704l.10468-.785071h-1.46547q.31403-3.506649.73274-3.506649h1.46546l.15702-1.465466zm14.54997 0q-2.04118 10.833976-2.04118 11.462033h1.30845q.4187 0 1.36079-5.861862h.26169q.4187 5.861862.73273 5.861862h.88975q.4187 0 2.35521-11.462033h-1.30845q-.47104 0-1.20377 5.443157h-.2617q-.57571-5.443157-.88974-5.443157zm14.70699 1.465466q.6804 0 .88975.157014l-1.72715 9.682539.26169.157014h1.36079q1.57014-9.996567 1.88417-9.996567.73273 0 .73273-.314029.15701-.78507.15701-1.151437h-3.08794q-.31403 0-.47105 1.465466zm-120.16816 0h.57572q.31403 0 .31403.418704-.36636 3.244959-.88975 3.244959h-.88974q.31403-3.663663.88974-3.663663zm29.25697 4.134705h.31403v.418705q0 1.622479-.47104 1.622479h-.10468q-.31402 0-.31402-.314028.57571-1.203775.57571-1.727156zm50.87259-149.739157q7.432 0 13.08451 5.338481 5.54783 5.757185 5.54783 13.241526 0 7.379665-5.12913 12.979836-2.6169 2.564565-4.86743 3.663664-4.23939 2.041184-7.85071 2.041184-.10468 0-.10468-.104677v-.366366q0-7.222651-5.54783-13.032174-5.65251-5.286143-13.13685-5.286143h-.52338q-.10468 0-.10468-.104676v-.157014q0-6.646932 5.02445-12.35178 5.86187-5.861861 13.6079-5.861861zm36.27027 19.365078q7.95538 0 13.71256 6.332904 4.34406 5.233805 4.34406 11.566709v.418704q0 6.542256-4.50107 11.880737-2.82625 2.878593-4.23938 3.454311-1.57014 1.046761-3.66367 1.727156-3.0356.942085-5.02445.942085l-.0523-.104676v-.732733q0-4.867439-3.19262-9.682539-5.65251-7.850707-15.43972-7.850707h-.0523q-.10468 0-.10468-.104676 0-6.489919 4.76277-11.985414 5.65251-5.861861 13.45088-5.861861zm-60.60747 12.404117q9.36852 0 15.70142 3.925354 3.97769 2.669241 3.97769 6.071214 0 4.658086-7.58902 7.850707-5.65251 2.093522-12.09009 2.093522-8.5311 0-14.81166-3.454311-4.76277-2.930931-4.76277-6.280566v-.418704q0-4.239382 6.64694-7.327327 5.70484-2.459889 12.92749-2.459889zm37.21236 17.847275q10.25825 0 16.95753 4.448734 3.716 2.826255 3.716 6.018876 0 4.972114-8.37409 8.4264257-5.86186 1.9888459-11.04333 1.9888459h-2.35521q-7.22265 0-13.86958-3.1926206-5.65251-3.192621-5.65251-7.170313 0-5.286143 8.79279-8.635778 5.44316-1.88417 11.8284-1.88417z"/></g></svg>