<svg height="193.666667" viewBox="0 0 400 193.66666667" width="400" xmlns="http://www.w3.org/2000/svg"><g fill-rule="evenodd"><path d="m156.67252 432.44677c-.82375.84289-1.36821 1.8962-2.02149 2.86524-1.33019-2.06662-4.43352-2.14311-6.23834-.67598-9.41601 4.55167-18.07015 10.48337-27.23268 15.4987-2.88605 1.79453-6.29272 3.6092-7.59694 6.94591-1.70547 5.05416-.54208 10.45882-1.00778 15.66611-.066 9.68972-.13096 19.37945-.19769 29.06916 1.55892-.12376 3.06844-.60809 4.63281-.67578-1.2349 2.61491.65446 5.78419 3.22626 6.70295 10.39353 5.89543 20.23958 12.8868 31.33233 17.46502 4.08849 1.30672 8.45721-.35326 12.02008-2.37755 8.17809-5.31961 17.08183-9.46372 25.16145-14.95119 1.14941-.87353 2.53888-1.56504 3.49385-2.62353.46349-.79616.35859-1.95748.41251-2.69421 2.23317.64774 4.27325-1.7447 3.85518-3.89296-.2642-6.67097-.0248-13.35044-.10765-20.02658-.004-6.74408-.0368-13.49415-.228-20.23281-1.70778-5.07679-6.71538-7.89483-11.23601-10.13071-9.36922-5.38373-18.76736-10.71686-28.16047-16.05874zm-5.66602 24.86719c2.22914 8.49607 8.74735 14.86394 14.87382 20.76513 3.36944 3.24409 6.84215 6.37838 10.24923 9.58253-5.96087-2.23989-12.54234-1.62977-18.58013-.12906-7.17066 1.52583-14.09387 4.00775-21.06245 6.2189 6.24889-5.69474 8.72287-14.13982 10.71135-22.07929 1.2707-5.00151 2.38896-10.05173 3.64217-15.04962.0553.23047.11067.46094.16601.69141zm-57.279291 88.42187c-8.27709-.18538-17.164552 2.20776-22.800782 8.60157-3.155646 3.736-5.109251 8.35364-6.185546 13.08984-.000001-6.54753 0-13.09505 0-19.64258-7.656251 0-15.3125 0-22.96875 0v21.66406c-3.010417 0-6.020834 0-9.03125 0-.000001-7.22135 0-14.4427 0-21.66406-22.545572 0-45.091146 0-67.636719 0v20.96875h15.667969c-.000001 15.22136 0 30.44271 0 45.66406h22.3750006c.6769242-15.20748.5717367-30.43394.875-45.65039 1.9185011.006 3.8388122-.0686 5.7558593.0332-.00194 15.20573-.00396 30.41146-.00586 45.61718h22.9687491c0-8-.000001-16 0-24h9.03125c0 8-.000001 16 0 24h22.96875c0-6.55208-.000001-13.10416 0-19.65625 1.528856 7.1837 5.406848 14.34757 12.091796 17.89649 7.622713 4.20229 16.868165 4.38938 25.196154 2.51198 6.50976-1.59492 12.5045-5.82879 15.44419-11.95814 1.98166-3.72959 3.0678-7.87225 3.63114-12.04017v23.24609h21.63086c.018-5.25.0393-10.5.0586-15.75 1.60868 5.24741 3.21772 10.49471 4.82617 15.74219 5.24154.002 10.48308.005 15.72461.008 1.56939-5.08036 3.14078-10.1601 4.71094-15.24023.0186 5.08008.0393 10.16015.0566 15.24023h21.96094c0-4.38737 0-8.77474 0-13.16211 2.22516 6.09941 7.47054 10.80889 13.57236 12.86768 8.62964 3.24146 18.3573 2.76497 27.01384-.11353 6.7616-2.58778 12.31217-8.81562 13.47044-15.93579 1.94298 7.04207 6.98336 13.48227 13.99764 15.98039 7.70925 3.08049 16.49711 3.04934 24.38322.64657 6.58723-2.32017 12.01847-7.70069 14.25904-14.33521 1.1754-3.00375 1.91384-6.16715 2.33471-9.36206v23.75h22.30469c.008-7.09635.017-14.19271.0254-21.28906 3.56426 7.09612 7.12486 14.19411 10.6914 21.28906h22.28321c0-22.10156 0-44.20312 0-66.30469-7.32162 0-14.64323 0-21.96485 0-.0295 7.01173-.0628 14.02344-.0937 21.03516-3.09003-6.95564-6.17855-13.91197-9.26953-20.86719-7.9922-.07-15.98437-.14467-23.97656-.21679v23.46289c-.91781-7.78867-3.74253-15.96446-10.13867-20.93164-5.68288-4.3766-13.13987-5.59215-20.14597-5.05879-7.60102.3396-15.64656 3.10241-20.27591 9.45918-2.78602 3.70103-4.47073 8.11936-5.39648 12.63086-.25027-9.19928-7.14246-17.70693-16.06076-19.94324-10.33529-3.39487-22.67143-1.9054-30.99157 5.43086-3.00705 2.7689-5.13875 6.47534-6.02189 10.4655 0-5.39388 0-10.78776 0-16.18164-9.51432.0721-19.02864.14539-28.54297.21484-1.96225 7.30662-3.91082 14.61695-5.9082 21.91407-1.85715-7.35814-3.71647-14.71574-5.57227-22.07422-9.64844-.001-19.29687-.003-28.94531-.004v24.00196c-1.08045-7.74651-4.04486-15.81432-10.41391-20.75078-4.79489-3.69373-10.934468-5.49722-16.963042-5.30001zm122.007811 19.91602c2.16783-.0602 4.28798 1.85404 4.19336 4.07031-2.31017-.75445-4.99331-1.27349-6.61328-3.24609.47089-.83606 1.60947-.73311 2.41992-.82422zm-123.017577.50977c3.956763.36147 6.407 4.67306 5.938243 8.37721.489761 6.53893.99848 13.53634-1.90504 19.60716-2.301906 2.91732-7.670531 2.24706-8.945312-1.30664-2.181994-4.28586-1.117362-9.22657-1.458976-13.85078-.000921-4.07019.103745-8.80091 3.265616-11.77813.876303-.67864 1.976769-1.16448 3.105469-1.04882zm178.410157.0449c3.86766.0815 6.44574 4.42693 5.87109 8.04101.58951 6.51968 1.08742 13.44269-1.55469 19.57617-2.5848 3.49334-9.13155 2.42896-10.13192-1.95115-1.48465-4.32405-.84164-8.96976-1.07946-13.45022.10822-3.68773.30655-7.87289 2.93705-10.72407 1.09881-.92107 2.5171-1.48631 3.95793-1.49174zm-80.94336 6.71484c1.47429 6.27295 6.1579 11.69892 12.23633 13.91016 1.14103.42573 1.84855.73723.23088.63152-4.19337.0511-8.38705.00033-12.58049-.0163 0-5.01172 0-10.02344 0-15.03515.0378.16992.0755.33984.11328.50976zm41.91015.15039c3.4284.003 6.85676.0319 10.28516.0137-.31999 3.12483-.36616 6.27131-.34961 9.41016-2.76746-4.529-7.47208-7.48277-12.30664-9.4082.79036-.005 1.58073-.0104 2.37109-.0156zm-21.07226 16.73633c3.49167 1.11314 7.04434 2.33731 10.04101 4.49805.21466 1.63974-1.82199 2.05331-3.05909 2.10713-2.6172.62185-5.95182-.97402-6.12432-3.86597-.25987-.98826-.59988-1.96939-1.15643-2.83296l.19083.0599z" fill="#ececec" transform="matrix(.94123534 0 0 .91033275 48.823111 -378.83722)"/><path d="m189.667 10.252c-11.455 6.507-30.013 17.348-30.616 17.885-2.275 2.025-2.208 1.38-2.312 22.13l-.094 18.767 1.261-.203c17.429-2.815 21.618-7.765 27.101-32.03 1.489-6.587 5.857-24.499 6.515-26.718.275-.927.036-.905-1.855.169m7.058 2.165c-5.204 15.275-2.455 21.569 17.275 39.544 3.942 3.592 9.754 8.984 12.917 11.984l5.75 5.454v-18.801-18.8l-.875-1.755c-.547-1.099-1.326-2.042-2.083-2.524-1.698-1.081-31.587-18.186-31.777-18.186-.086 0-.629 1.388-1.207 3.084m7.442 49.808c-4.61.579-10.103 2.05-22.85 6.121-4.666 1.491-11.188 3.485-14.493 4.432-3.306.947-6.072 1.872-6.147 2.055-.153.374 5.88 4.07 20.118 12.324 11.709 6.787 11.344 6.626 14.556 6.44l2.522-.146 14.98-8.593c8.239-4.725 15.323-8.809 15.742-9.074.899-.568.79-.772-2.277-4.284-6.405-7.332-13.605-10.347-22.151-9.275m-76 59.795c-14.203 1.916-20.5 11.433-20.5 30.98 0 21.698 7.742 31.212 25.333 31.129 17.461-.082 25-9.452 25-31.071 0-23.176-10.114-33.699-29.833-31.038m178.5.012c-14.112 1.577-20.455 11.181-20.452 30.968.004 21.014 6.848 30.268 23.075 31.196 19.008 1.087 27.37-9.497 26.612-33.684-.682-21.767-9.802-30.65-29.235-28.48m-56.167.774c-12.009 2.344-18.363 10.722-16.125 21.261 1.444 6.798 5.486 10.006 17.125 13.589 10.194 3.138 13.149 4.808 13.827 7.817.846 3.751-2.075 6.509-7.191 6.79-6.101.335-8.627-1.537-10.137-7.513l-.358-1.417h-7.321-7.32v2.635c0 11.984 11.569 19.611 27.451 18.097 12.883-1.227 19.315-6.777 20.359-17.565.972-10.047-3.834-15.403-17.643-19.664-11.608-3.581-13.825-4.896-13.831-8.203-.013-7.065 13.591-6.372 14.534.74l.216 1.627h7.624 7.623v-1.317c0-11.814-13.696-19.831-28.833-16.877m-241.167 7.361v6.5h7.834 7.833v22.833 22.833h7.282 7.281l.219-4.552c.12-2.504.218-9.605.218-15.78s.099-14.401.22-18.281l.219-7.053h6.781 6.78v22.833 22.833h7.5 7.5v-12-12h8.5 8.5v12 12h7.5 7.5v-29.333-29.333h-7.5-7.5v10.833 10.833h-8.5-8.5v-10.833-10.833h-29.833-29.834zm156 22.833v29.333h6.831 6.831l.086-19.034.086-19.035 5.833 19.031 5.833 19.03 4.904.004 4.904.004 1.12-3.583c.617-1.971 3.21-10.387 5.763-18.702l4.643-15.12.086 18.703.086 18.702h6.997 6.997v-29.338-29.338l-10.736.088-10.737.088-4.493 16.763c-2.471 9.219-4.595 16.569-4.719 16.333-.123-.236-2.083-7.815-4.353-16.843l-4.128-16.415-10.917-.002-10.917-.002zm178 .494v29.173h7.167 7.167l.018-17.084.019-17.083 8.563 17.083 8.563 17.084h7.918 7.919v-29.167-29.167h-6.997-6.998l-.086 17.861-.086 17.86-7.897-17.777-7.896-17.777-8.687-.089-8.687-.089zm-206.476-18.506c2.722 1.18 4.76 3.987 5.635 7.758 1.214 5.237.929 18.545-.478 22.306-3.765 10.064-16.398 8.826-18.862-1.849-.682-2.951-.791-16.154-.162-19.536 1.418-7.629 7.506-11.439 13.867-8.679m178.543.073c4.653 2.001 6.239 6.513 6.248 17.772.006 6.989-.296 9.867-1.321 12.607-3.246 8.675-15.327 8.481-18.65-.3-1.578-4.169-1.697-18.819-.194-23.709 1.812-5.89 8.217-8.823 13.917-6.37" transform="matrix(.94123534 0 0 .91033275 10.957414 10.523139)"/></g></svg>