<svg height="84" width="567.75757" xmlns="http://www.w3.org/2000/svg"><g transform="translate(-84.80976 -496.933618)"><path d="m85.071449 578.74798v-2.18565l4-4.74376c2.2-2.60907 4-5.00053 4-5.31436 0-.31382-1.8-.57059-4-.57059h-4v-2-2h7.5 7.500001v2.09051 2.09051l-4.621475 5.40949-4.621473 5.40949h5.121473c2.816811 0 5.393015.1125 5.724895.25s1.53191-1.35097 2.66672-3.3077l2.0633-3.55771-2.68913-3.94229-2.68913-3.9423 2.23851-.34787 2.2385-.34787 2.09747 2.63048 2.09747 2.63048 1.35542-2.53261 1.35541-2.53261h2.33102 2.33102v.76787c0 .42232-1.1439 2.45127-2.54201 4.50876l-2.54201 3.7409 3.04201 4.42141c3.66463 5.32637 3.69165 5.56106.64021 5.56106h-2.4018l-1.96095-3.09712-1.96096-3.09711-2.20534 3.09711-2.20534 3.09712h-9.931905-9.931906zm42.750001.10554-1.75-1.01928v-2.75031-2.75031l1.08713-1.08713 1.08713-1.08714-1.08713-.67188-1.08713-.67188v-2.24099-2.24098l1.2-1.2 1.2-1.2h5.1 5.1l1.2 1.2 1.2 1.2v2.1 2.1l-1.08713 1.08713-1.08714 1.08714 1.08714.67188 1.08713.67188v2.9058 2.9058l-1.93426 1.03519-1.93426 1.03518-3.81574-.0304-3.81574-.0304-1.75-1.01928zm8.19212-3.35016 1.18701-1.43026-1.92642-1.031-1.92643-1.03099-1.80371 1.31891-1.80371 1.3189 1.91557 1.11194c2.51944 1.46248 2.95142 1.43695 4.35769-.2575zm-.19183-8.31921.41602-1.24948-1.65037-.63331-1.65038-.63331-1.04565 1.04565-1.04565 1.04566.70611 1.1425.7061 1.1425 1.5739-.30537 1.5739-.30537zm9.24971 11.24947v-1.5h2 2v-5.5-5.5h-2-2v-2-2h4 4v7.5 7.5h2 2v1.5 1.5h-6-6zm310-19.47484c0-.29571 13.39027-13.92235 29.75615-30.28141l29.75615-29.74375h68.9877 68.9877l-30.4564 30.46869-30.45641 30.46869-68.28744-.18728-68.28745-.18727zm-370.000001-13.52516v-4.5h30.500001 30.5v-4-4h-30.5-30.500001v-12-12h34.500001 34.5v4 4h-30-30.000001v4 4h30.500001 30.5v12.5 12.5h-35-35.000001zm74.000001-16v-20.5h4.5 4.5v20.5 20.5h-4.5-4.5zm13 .0575v-20.5575h34.5 34.5v20.5 20.5h-4.5-4.5v-16.5-16.5h-25.47523-25.47523l-.27477 16.25-.27477 16.25-4.25.3075-4.25.3075zm73-.0575v-20.5h34.5 34.5v4 4h-30-30v12 12h30 30v4.5 4.5h-34.5-34.5zm74-6v-26.5h4.5 4.5v26.5 26.5h-4.5-4.5zm13 14v-12.5h30 30v-4-4h-30-30v-4-4h34.5 34.5v20.5 20.5h-34.5-34.5zm60-.5v-4h-25.5-25.5v4 4h25.5 25.5zm14-7.4425v-20.5575h4.52071 4.5207l-.2707 20.25-.27071 20.25-4.25.3075-4.25.3075zm13-.0575v-20.5h34.5 34.5v4 4h-30-30v16.5 16.5h-4.5-4.5zm-260-28.5v-4h4.5 4.5v4 4h-4.5-4.5zm247 0v-4h4.5 4.5v4 4h-4.5-4.5z" fill="#bbdad6"/><path d="m85.071449 578.79143v-2.14218l4.577323-5.35782 4.577323-5.35781h-4.077323-4.077323v-2-2h7 7.000001v1.75709 1.75709l-4.514033 5.49291-4.514032 5.49291 4.514032.30479 4.514033.30479v1.94521 1.94521h-7.500001-7.5zm16.000001 1.37432c0-.42232 1.125-2.42345 2.5-4.44694 3.09599-4.55616 3.09491-5.01937-.0224-9.58824l-2.52241-3.69695 2.16454-.33818 2.16453-.33817 2.16207 2.71149 2.16206 2.71149 1.71886-2.62332 1.71887-2.62331h1.97694c2.52842 0 2.49647.25783-.61434 4.95858l-2.59129 3.9157 3.05182 4.43567 3.05182 4.43566-.6272.62719c-.34496.34496-1.42675.6272-2.40399.6272h-1.7768l-1.77214-3c-.97468-1.65-2.01262-2.99716-2.30654-2.99368-.29391.004-1.30096 1.35348-2.23788 3l-1.70349 2.99368h-2.04651-2.04651v-.76787zm26.75-1.31223-1.75-1.01928v-2.75031-2.75031l1.08713-1.08713 1.08713-1.08714-1.08713-.67188-1.08713-.67188v-2.4058-2.4058l1.93426-1.03519 1.93426-1.03518h3.63148 3.63148l1.93426 1.03518 1.93426 1.03519v2.26481 2.26482l-1.08713 1.08713-1.08714 1.08714 1.08714.67188 1.08713.67188v2.36956 2.36955l-1.57143 1.57143-1.57143 1.57143-4.17857-.0304-4.17857-.0304-1.75-1.01928zm8.0262-3.09611 1.17621-1.1762-1.09865-1.3238c-.60426-.72808-1.66345-1.32379-2.35376-1.32379s-1.74951.59571-2.35376 1.32379l-1.09865 1.3238 1.1762 1.1762c.64692.64692 1.67121 1.17621 2.27621 1.17621s1.62929-.52929 2.2762-1.17621zm.2238-7.8391 1.5-.98469-1.5-.98469c-.825-.54157-1.95-.98468-2.5-.98468s-1.675.44311-2.5.98468l-1.5.98469 1.5.98469c.825.54157 1.95.98468 2.5.98468s1.675-.44311 2.5-.98468zm9 10.51531v-1.5h2 2v-5.90638-5.90638l-2.10087.54939-2.10086.54939.35918-1.89301.35918-1.89301 3.74169-.31037 3.74168-.31036v7.56036 7.56037h2 2v1.5 1.5h-6-6zm310-19.35231c0-.3631 13.39027-14.04488 29.75615-30.40394l29.75615-29.74375h68.99178 68.99179l-29.99794 29.89518-29.99793 29.89517-68.75.50877-68.75.50877zm-369.60091-10.55006c-.301531-.78578-.40218-2.7042-.223665-4.26316l.324574-2.83447 30.250001-.26466 30.25-.26467v-3.98533-3.98534h-30.5-30.500001v-12-12h34.500001 34.5v4 4h-30-30.000001v4 4h30.530781 30.53078l-.28078 12.25-.28078 12.25-34.27634.26316-34.276332.26316zm74.31517.7833-.71426-.71426v-19.83334-19.83333h4.5207 4.52071l-.27071 20.25-.2707 20.25-3.53574.29759-3.53574.29759zm12.28574-19.82343v-20.5575h34.5 34.5v20.5575 20.5575l-4.25-.3075-4.25-.3075-.27477-16.25-.27477-16.25h-25.45046-25.45046l-.27477 16.25-.27477 16.25-4.25.3075-4.25.3075zm73-.0575v-20.5h34.5 34.5v4 4h-30-30v12 12h30 30v4.5 4.5h-34.5-34.5zm74.66667 19.83333-.66667-.66666v-25.83334-25.83333h4.5 4.5v26.5 26.5h-3.83333c-2.10834 0-4.13334-.3-4.5-.66667zm12.33333-11.83333v-12.5h30.5 30.5v-4-4h-30.5-30.5v-4-4h34.5 34.5v20.5 20.5h-34.5-34.5zm61-.5v-4h-26-26v4 4h26 26zm13-7.4425v-20.5575h4.52071 4.5207l-.2707 20.25-.27071 20.25-4.25.3075-4.25.3075zm13 0v-20.5575h34.5 34.5v4 4h-29.97523-29.97523l-.27477 16.25-.27477 16.25-4.25.3075-4.25.3075zm-260-28.5575v-4h4.5 4.5v4 4h-4.5-4.5zm247 .0575v-4.0575h4.56037 4.56036l-.31036 3.75-.31037 3.75-4.25.3075-4.25.3075z" fill="#e8a4a3"/><path d="m85.071449 578.79143v-2.14218l4.577323-5.35782 4.577323-5.35781h-4.077323-4.077323v-2-2h7 7.000001v1.75709 1.75709l-4.514033 5.49291-4.514032 5.49291 4.514032.30479 4.514033.30479v1.94521 1.94521h-7.500001-7.5zm16.000001 1.37432c0-.42232 1.125-2.42345 2.5-4.44694 3.09599-4.55616 3.09491-5.01937-.0224-9.58824l-2.52241-3.69695 2.16454-.33818 2.16453-.33817 2.16207 2.71149 2.16206 2.71149 1.71886-2.62332 1.71887-2.62331h1.97694c2.52842 0 2.49647.25783-.61434 4.95858l-2.59129 3.9157 3.05182 4.43567 3.05182 4.43566-.6272.62719c-.34496.34496-1.42675.6272-2.40399.6272h-1.7768l-1.77214-3c-.97468-1.65-2.01262-2.99716-2.30654-2.99368-.29391.004-1.30096 1.35348-2.23788 3l-1.70349 2.99368h-2.04651-2.04651v-.76787zm26.75-1.31223-1.75-1.01928v-2.75031-2.75031l1.08713-1.08713 1.08713-1.08714-1.08713-.67188-1.08713-.67188v-2.4058-2.4058l1.93426-1.03519 1.93426-1.03518h3.63148 3.63148l1.93426 1.03518 1.93426 1.03519v2.26481 2.26482l-1.08713 1.08713-1.08714 1.08714 1.08714.67188 1.08713.67188v2.36956 2.36955l-1.57143 1.57143-1.57143 1.57143-4.17857-.0304-4.17857-.0304-1.75-1.01928zm8.0262-3.09611 1.17621-1.1762-1.09865-1.3238c-.60426-.72808-1.66345-1.32379-2.35376-1.32379s-1.74951.59571-2.35376 1.32379l-1.09865 1.3238 1.1762 1.1762c.64692.64692 1.67121 1.17621 2.27621 1.17621s1.62929-.52929 2.2762-1.17621zm.2238-7.8391 1.5-.98469-1.5-.98469c-.825-.54157-1.95-.98468-2.5-.98468s-1.675.44311-2.5.98468l-1.5.98469 1.5.98469c.825.54157 1.95.98468 2.5.98468s1.675-.44311 2.5-.98468zm9 10.51531v-1.5h2 2v-5.90638-5.90638l-2.10087.54939-2.10086.54939.35918-1.89301.35918-1.89301 3.74169-.31037 3.74168-.31036v7.56036 7.56037h2 2v1.5 1.5h-6-6zm340.5-49.5 29.9875-30h68.5 68.5l-29.9875 30-29.9875 30h-68.5-68.5zm-400.10091 19.59763c-.301531-.78578-.40218-2.7042-.223665-4.26316l.324574-2.83447 30.250001-.26466 30.25-.26467v-3.98533-3.98534h-30.5-30.500001v-12-12h34.500001 34.5v4 4h-30-30.000001v4 4h30.530781 30.53078l-.28078 12.25-.28078 12.25-34.27634.26316-34.276332.26316zm74.31517.7833-.71426-.71426v-19.83334-19.83333h4.5207 4.52071l-.27071 20.25-.2707 20.25-3.53574.29759-3.53574.29759zm12.28574-19.82343v-20.5575h34.5 34.5v20.5575 20.5575l-4.25-.3075-4.25-.3075-.27477-16.25-.27477-16.25h-25.45046-25.45046l-.27477 16.25-.27477 16.25-4.25.3075-4.25.3075zm73-.0575v-20.5h34.5 34.5v4 4h-30-30v12 12h30 30v4.5 4.5h-34.5-34.5zm74.66667 19.83333-.66667-.66666v-25.83334-25.83333h4.5 4.5v26.5 26.5h-3.83333c-2.10834 0-4.13334-.3-4.5-.66667zm12.33333-11.83333v-12.5h30.5 30.5v-4-4h-30.5-30.5v-4-4h34.5 34.5v20.5 20.5h-34.5-34.5zm61-.5v-4h-26-26v4 4h26 26zm13-7.4425v-20.5575h4.52071 4.5207l-.2707 20.25-.27071 20.25-4.25.3075-4.25.3075zm13 0v-20.5575h34.5 34.5v4 4h-29.97523-29.97523l-.27477 16.25-.27477 16.25-4.25.3075-4.25.3075zm-260-28.5575v-4h4.5 4.5v4 4h-4.5-4.5zm247 .0575v-4.0575h4.56037 4.56036l-.31036 3.75-.31037 3.75-4.25.3075-4.25.3075z" fill="#ababab"/><path d="m85.071449 578.34311v-1.5905l4.621474-5.4095 4.621473-5.40949h-4.121473-4.121474v-2-2h7 7.000001v1.75709 1.75709l-4.514033 5.49291-4.514032 5.49291 4.514032.30479 4.514033.30479v1.44521 1.44521h-7.500001-7.5zm17.538341-1.15949c.9726-1.5125 2.3505-3.60358 3.06202-4.64685l1.29365-1.89685-2.99504-4.35315-2.99505-4.35315h2.43303 2.43303l1.75135 2.6729 1.75135 2.67289 1.94706-2.67289 1.94707-2.6729h1.9166c2.46689 0 2.42846.26939-.7163 5.02144l-2.63288 3.97856 2.63288 3.97856c3.21017 4.8509 3.22014 5.02144.2934 5.02144h-2.33948l-1.13908-2.5c-.62649-1.375-1.52268-2.5-1.99153-2.5-.46886 0-1.45454 1.125-2.19042 2.5l-1.33796 2.5h-2.44603-2.44603zm25.03309 1.17857-1.57143-1.57143v-2.37888-2.37888l1.60946-.9007 1.60946-.9007-1.60946-.6176-1.60946-.61761v-2.4962-2.4962l1.93426-1.03519 1.93426-1.03518h3.63148 3.63148l1.93426 1.03518 1.93426 1.03519v2.41512 2.41513l-1.60946.9007-1.60946.9007 1.60946.6176 1.60946.61761v2.3764 2.37639l-1.82874 1.65499-1.82874 1.65499h-4.09983-4.09983zm7.84678-2.03556 1.58179-.60699v-1.28602-1.28602l-1.64088-.62967-1.64088-.62966-1.85912.59006-1.85912.59006v1.34928 1.34928l1.25.50439c1.80155.72694 2.39732.73484 4.16821.0553zm1.08179-9.39301v-1.5l-2.36534-.33466-2.36533-.33467-.99753.99753-.99754.99754.70731 1.14444.7073 1.14444 2.65556-.30731 2.65557-.30731zm8.5 11.5v-1.5h2 2v-5.90638-5.90638l-2.10087.54939-2.10086.54939.35918-1.89301.35918-1.89301 3.74169-.31037 3.74168-.31036v7.56036 7.56037h2 2v1.5 1.5h-6-6zm340.5-49.5 29.9875-30h67.75625 67.75625v.75636c0 .41599-13.16531 13.91599-29.25625 30l-29.25625 29.24364h-68.4875-68.4875zm-400.310366 16.25.310365-3.75 30.250001-.26466 30.25-.26467v-3.97067-3.97067l-30.25-.26467-30.250001-.26466-.281735-11.75-.281736-11.75h34.531732 34.53174v4 4h-30-30.000001v3.98534 3.98533l30.250001.26467 30.25.26466.28173 11.75.28174 11.75h-35.0921-35.092102zm73.810366-16.25v-20h4.5 4.5v20 20h-4.5-4.5zm13 0v-20h34.5 34.5v20 20h-4.5-4.5v-16-16h-26-26v16 16h-4-4zm73 0v-20h34.5 34.5v4 4h-30-30v12 12h30 30v4 4h-34.5-34.5zm74-6v-26h4.5 4.5v26 26h-4.5-4.5zm13 14.51466v-11.48533l30.25-.26467 30.25-.26466.3075-4.25.3075-4.25h-30.5575-30.5575v-4-4h34.5 34.5v20 20h-34.5-34.5zm61-.51466v-4h-26-26v4 4h26 26zm13-8v-20h4 4v20 20h-4-4zm13 0v-20h34.5 34.5v4 4h-30-30v16 16h-4.5-4.5zm-260-28v-4h4.5 4.5v4 4h-4.5-4.5zm247 0v-4h4 4v4 4h-4-4z" fill="#989898"/><path d="m85.071449 578.53286v-1.40076l4.451574-5.34924 4.451575-5.34924-3.951575-.3075-3.951574-.3075v-1.9425-1.9425h7 7.000001v1.64877 1.64878l-4.619183 5.60122-4.619183 5.60123 4.619183.30479 4.619183.30479v1.44521 1.44521h-7.500001-7.5zm18.993971-3.09047 3.09005-4.49124-2.54201-3.7409c-1.39811-2.05749-2.54201-4.08644-2.54201-4.50876v-.76787h1.97432 1.97432l1.62916 3.15045 1.62916 3.15044 1.99472-3.15044 1.99472-3.15045h2.01681 2.01681l-1.46217 2.25c-.80419 1.2375-2.06567 3.22483-2.80328 4.4163l-1.34112 2.1663 2.68827 4.06226c3.2145 4.85743 3.24901 5.10514.71133 5.10514h-1.97694l-1.63807-2.5c-.90093-1.375-1.96027-2.5-2.35407-2.5-.39381 0-1.31809 1.125-2.05397 2.5l-1.33796 2.5h-2.37906-2.37906zm24.22853 2.93453-2.2225-1.55671v-1.90387-1.90387l1.40653-1.28942 1.40654-1.28943-1.49667-1.67834-1.49667-1.67833.63547-2.00217.63546-2.00216 3.03284-.66613 3.03285-.66612 3.36546.63136 3.36547.63137.64649 2.03692.64649 2.03693-1.49666 1.67833-1.49667 1.67834 1.40653 1.28943 1.40654 1.28942v1.90387 1.90387l-2.22251 1.55671-2.2225 1.5567h-3.05499-3.05499zm8.2775-3.9433v-2l-2.36534-.33466-2.36533-.33467-1.01745 1.01745-1.01745 1.01745.6271 1.63418.6271 1.63419 2.75568-.31697 2.75569-.31697zm0-7.5v-1.5l-2.36534-.33466-2.36533-.33467-.99753.99753-.99754.99754.70731 1.14444.7073 1.14444 2.65556-.30731 2.65557-.30731zm8.5 11.5v-1.5h2 2v-6.06739-6.06738l-2 .63477-2 .63477v-1.46039-1.4604l1.58179-.60699c.86998-.33384 2.66998-.60699 4-.60699h2.41821v7.5 7.5h2 2v1.5 1.5h-6-6zm340.5-49.5 29.9875-30h67.75625 67.75625v.75636c0 .41599-13.16531 13.91599-29.25625 30l-29.25625 29.24364h-68.4875-68.4875zm-399.500001 16.5v-3.5h30.000001 30v-4.5-4.5h-29.86408-29.864073l-.635924-4.63957c-.349758-2.55176-.635924-7.95176-.635924-12v-7.36043h34.500001 34.5v4 4h-30.60699-30.606989l.606989 1.58179c.333844.86998.606989 2.66998.606989 4v2.41821h30.000001 30v12 12h-34-34.000001zm73.000001-16.5v-20h4.5 4.5v20 20h-4.5-4.5zm13 0v-20h34.5 34.5v20 20h-4-4v-16-16h-26.5-26.5v16 16h-4-4zm73 0v-20h34.5 34.5v4 4h-30-30v12.5 12.5h30 30v3.5 3.5h-34.5-34.5zm75-6v-26h4 4v26 26h-4-4zm12 14.5v-11.5h30.5 30.5v-4.5-4.5h-30.5-30.5v-4-4h34.5 34.5v20 20h-34.5-34.5zm61 0v-4.5h-26.5-26.5v3.83333c0 2.10834.3 4.13334.66667 4.5l.66666.66667h25.83334 25.83333zm13-8.5v-20h4 4v20 20h-4-4zm13 0v-20h34.5 34.5v4 4h-30.5-30.5v16 16h-4-4zm-259.28574-24.61907c-.39285-.39285-.71426-2.21426-.71426-4.0476v-3.33333h4.56036 4.56037l-.31037 3.75-.31036 3.75-3.53574.29759-3.53574.29759zm246.28574-3.38093v-4h4 4v4 4h-4-4z" fill="#fbc501"/><path d="m85.071449 578.53286v-1.40076l4.451574-5.34924 4.451575-5.34924-3.951575-.3075-3.951574-.3075v-1.9425-1.9425h7 7.000001v1.64877 1.64878l-4.619183 5.60122-4.619183 5.60123 4.619183.30479 4.619183.30479v1.44521 1.44521h-7.500001-7.5zm18.993971-3.09047 3.09005-4.49124-2.54201-3.7409c-1.39811-2.05749-2.54201-4.08644-2.54201-4.50876v-.76787h1.97432 1.97432l1.62916 3.15045 1.62916 3.15044 1.99472-3.15044 1.99472-3.15045h2.01681 2.01681l-1.46217 2.25c-.80419 1.2375-2.06567 3.22483-2.80328 4.4163l-1.34112 2.1663 2.68827 4.06226c3.2145 4.85743 3.24901 5.10514.71133 5.10514h-1.97694l-1.63807-2.5c-.90093-1.375-1.96027-2.5-2.35407-2.5-.39381 0-1.31809 1.125-2.05397 2.5l-1.33796 2.5h-2.37906-2.37906zm24.22853 2.93453-2.2225-1.55671v-1.90387-1.90387l1.40653-1.28942 1.40654-1.28943-1.49667-1.67834-1.49667-1.67833.63547-2.00217.63546-2.00216 3.03284-.66613 3.03285-.66612 3.36546.63136 3.36547.63137.64649 2.03692.64649 2.03693-1.49666 1.67833-1.49667 1.67834 1.40653 1.28943 1.40654 1.28942v1.90387 1.90387l-2.22251 1.55671-2.2225 1.5567h-3.05499-3.05499zm8.2775-3.9433v-2l-2.36534-.33466-2.36533-.33467-1.01745 1.01745-1.01745 1.01745.6271 1.63418.6271 1.63419 2.75568-.31697 2.75569-.31697zm0-7.5v-1.5l-2.36534-.33466-2.36533-.33467-.99753.99753-.99754.99754.70731 1.14444.7073 1.14444 2.65556-.30731 2.65557-.30731zm8.5 11.5v-1.5h2 2v-6.06739-6.06738l-2 .63477-2 .63477v-1.46039-1.4604l1.58179-.60699c.86998-.33384 2.66998-.60699 4-.60699h2.41821v7.5 7.5h2 2v1.5 1.5h-6-6zm340.5-49.5 29.9875-30h17 17l-29.9875 30-29.9875 30h-17-17zm68 0 29.9875-30h33.75625 33.75625v.75636c0 .41599-13.16531 13.91599-29.25625 30l-29.25625 29.24364h-34.4875-34.4875zm-467.500001 16.5v-3.5h30.000001 30v-4.5-4.5h-29.86408-29.864073l-.635924-4.63957c-.349758-2.55176-.635924-7.95176-.635924-12v-7.36043h34.500001 34.5v4 4h-30.60699-30.606989l.606989 1.58179c.333844.86998.606989 2.66998.606989 4v2.41821h30.000001 30v12 12h-34-34.000001zm73.000001-16.5v-20h4.5 4.5v20 20h-4.5-4.5zm13 0v-20h34.5 34.5v20 20h-4-4v-16-16h-26.5-26.5v16 16h-4-4zm73 0v-20h34.5 34.5v4 4h-30-30v12.5 12.5h30 30v3.5 3.5h-34.5-34.5zm75-6v-26h4 4v26 26h-4-4zm12 14.5v-11.5h30.5 30.5v-4.5-4.5h-30.5-30.5v-4-4h34.5 34.5v20 20h-34.5-34.5zm61 0v-4.5h-26.5-26.5v3.83333c0 2.10834.3 4.13334.66667 4.5l.66666.66667h25.83334 25.83333zm13-8.5v-20h4 4v20 20h-4-4zm13 0v-20h34.5 34.5v4 4h-30.5-30.5v16 16h-4-4zm-259.28574-24.61907c-.39285-.39285-.71426-2.21426-.71426-4.0476v-3.33333h4.56036 4.56037l-.31037 3.75-.31036 3.75-3.53574.29759-3.53574.29759zm246.28574-3.38093v-4h4 4v4 4h-4-4z" fill="#5692b6"/><path d="m85.071449 578.53286v-1.40076l4.451574-5.34924 4.451575-5.34924-3.951575-.3075-3.951574-.3075v-1.9425-1.9425h7 7.000001v1.64877 1.64878l-4.619183 5.60122-4.619183 5.60123 4.619183.30479 4.619183.30479v1.44521 1.44521h-7.500001-7.5zm18.993971-3.09047 3.09005-4.49124-2.54201-3.7409c-1.39811-2.05749-2.54201-4.08644-2.54201-4.50876v-.76787h1.97432 1.97432l1.62916 3.15045 1.62916 3.15044 1.99472-3.15044 1.99472-3.15045h2.01681 2.01681l-1.46217 2.25c-.80419 1.2375-2.06567 3.22483-2.80328 4.4163l-1.34112 2.1663 2.68827 4.06226c3.2145 4.85743 3.24901 5.10514.71133 5.10514h-1.97694l-1.63807-2.5c-.90093-1.375-1.96027-2.5-2.35407-2.5-.39381 0-1.31809 1.125-2.05397 2.5l-1.33796 2.5h-2.37906-2.37906zm24.22853 2.93453-2.2225-1.55671v-1.90387-1.90387l1.40653-1.28942 1.40654-1.28943-1.49667-1.67834-1.49667-1.67833.63547-2.00217.63546-2.00216 3.03284-.66613 3.03285-.66612 3.36546.63136 3.36547.63137.64649 2.03692.64649 2.03693-1.49666 1.67833-1.49667 1.67834 1.40653 1.28943 1.40654 1.28942v1.90387 1.90387l-2.22251 1.55671-2.2225 1.5567h-3.05499-3.05499zm8.2775-3.9433v-2l-2.36534-.33466-2.36533-.33467-1.01745 1.01745-1.01745 1.01745.6271 1.63418.6271 1.63419 2.75568-.31697 2.75569-.31697zm0-7.5v-1.5l-2.36534-.33466-2.36533-.33467-.99753.99753-.99754.99754.70731 1.14444.7073 1.14444 2.65556-.30731 2.65557-.30731zm8.5 11.5v-1.5h2 2v-6.06739-6.06738l-2 .63477-2 .63477v-1.46039-1.4604l1.58179-.60699c.86998-.33384 2.66998-.60699 4-.60699h2.41821v7.5 7.5h2 2v1.5 1.5h-6-6zm340.5-49.5 29.9875-30h17 17l-29.9875 30-29.9875 30h-17-17zm68 0 29.9875-30h17 17l-29.9875 30-29.9875 30h-17-17zm35 0 29.9875-30h16.5 16.5l-29.9875 30-29.9875 30h-16.5-16.5zm-502.500001 16.5v-3.5h30.000001 30v-4.5-4.5h-29.86408-29.864073l-.635924-4.63957c-.349758-2.55176-.635924-7.95176-.635924-12v-7.36043h34.500001 34.5v4 4h-30.60699-30.606989l.606989 1.58179c.333844.86998.606989 2.66998.606989 4v2.41821h30.000001 30v12 12h-34-34.000001zm73.000001-16.5v-20h4.5 4.5v20 20h-4.5-4.5zm13 0v-20h34.5 34.5v20 20h-4-4v-16-16h-26.5-26.5v16 16h-4-4zm73 0v-20h34.5 34.5v4 4h-30-30v12.5 12.5h30 30v3.5 3.5h-34.5-34.5zm75-6v-26h4 4v26 26h-4-4zm12 14.5v-11.5h30.5 30.5v-4.5-4.5h-30.5-30.5v-4-4h34.5 34.5v20 20h-34.5-34.5zm61 0v-4.5h-26.5-26.5v3.83333c0 2.10834.3 4.13334.66667 4.5l.66666.66667h25.83334 25.83333zm13-8.5v-20h4 4v20 20h-4-4zm13 0v-20h34.5 34.5v4 4h-30.5-30.5v16 16h-4-4zm-259.28574-24.61907c-.39285-.39285-.71426-2.21426-.71426-4.0476v-3.33333h4.56036 4.56037l-.31037 3.75-.31036 3.75-3.53574.29759-3.53574.29759zm246.28574-3.38093v-4h4 4v4 4h-4-4z" fill="#d96146"/><path d="m85.071449 578.53286v-1.40076l4.451574-5.34924 4.451575-5.34924-3.951575-.3075-3.951574-.3075v-1.9425-1.9425h7 7.000001v1.64877 1.64878l-4.619183 5.60122-4.619183 5.60123 4.619183.30479 4.619183.30479v1.44521 1.44521h-7.500001-7.5zm18.993971-3.09047 3.09005-4.49124-2.54201-3.7409c-1.39811-2.05749-2.54201-4.08644-2.54201-4.50876v-.76787h1.97432 1.97432l1.62916 3.15045 1.62916 3.15044 1.99472-3.15044 1.99472-3.15045h2.01681 2.01681l-1.46217 2.25c-.80419 1.2375-2.06567 3.22483-2.80328 4.4163l-1.34112 2.1663 2.68827 4.06226c3.2145 4.85743 3.24901 5.10514.71133 5.10514h-1.97694l-1.63807-2.5c-.90093-1.375-1.96027-2.5-2.35407-2.5-.39381 0-1.31809 1.125-2.05397 2.5l-1.33796 2.5h-2.37906-2.37906zm24.22853 2.93453-2.2225-1.55671v-1.90387-1.90387l1.40653-1.28942 1.40654-1.28943-1.49667-1.67834-1.49667-1.67833.63547-2.00217.63546-2.00216 3.03284-.66613 3.03285-.66612 3.36546.63136 3.36547.63137.64649 2.03692.64649 2.03693-1.49666 1.67833-1.49667 1.67834 1.40653 1.28943 1.40654 1.28942v1.90387 1.90387l-2.22251 1.55671-2.2225 1.5567h-3.05499-3.05499zm8.2775-3.9433v-2l-2.36534-.33466-2.36533-.33467-1.01745 1.01745-1.01745 1.01745.6271 1.63418.6271 1.63419 2.75568-.31697 2.75569-.31697zm0-7.5v-1.5l-2.36534-.33466-2.36533-.33467-.99753.99753-.99754.99754.70731 1.14444.7073 1.14444 2.65556-.30731 2.65557-.30731zm8.5 11.5v-1.5h2 2v-6.06739-6.06738l-2 .63477-2 .63477v-1.46039-1.4604l1.58179-.60699c.86998-.33384 2.66998-.60699 4-.60699h2.41821v7.5 7.5h2 2v1.5 1.5h-6-6zm340-49 29.48729-29.5h16.5 16.5l-29.48729 29.5-29.48729 29.5h-16.5-16.5zm68.5-.5 29.9875-30h17 17l-29.9875 30-29.9875 30h-17-17zm35 0 29.9875-30h16.5 16.5l-29.9875 30-29.9875 30h-16.5-16.5zm-502.500001 16.5v-3.5h30.000001 30v-4.5-4.5h-29.86408-29.864073l-.635924-4.63957c-.349758-2.55176-.635924-7.95176-.635924-12v-7.36043h34.500001 34.5v4 4h-30.60699-30.606989l.606989 1.58179c.333844.86998.606989 2.66998.606989 4v2.41821h30.000001 30v12 12h-34-34.000001zm73.000001-16.5v-20h4.5 4.5v20 20h-4.5-4.5zm13 0v-20h34.5 34.5v20 20h-4-4v-16-16h-26.5-26.5v16 16h-4-4zm73 0v-20h34.5 34.5v4 4h-30-30v12.5 12.5h30 30v3.5 3.5h-34.5-34.5zm75-6v-26h4 4v26 26h-4-4zm12 14.5v-11.5h30.5 30.5v-4.5-4.5h-30.5-30.5v-4-4h34.5 34.5v20 20h-34.5-34.5zm61 0v-4.5h-26.5-26.5v3.83333c0 2.10834.3 4.13334.66667 4.5l.66666.66667h25.83334 25.83333zm13-8.5v-20h4 4v20 20h-4-4zm13 0v-20h34.5 34.5v4 4h-30.5-30.5v16 16h-4-4zm-259.28574-24.61907c-.39285-.39285-.71426-2.21426-.71426-4.0476v-3.33333h4.56036 4.56037l-.31037 3.75-.31036 3.75-3.53574.29759-3.53574.29759zm246.28574-3.38093v-4h4 4v4 4h-4-4z" fill="#2baa53"/><path d="m85.071449 578.53286v-1.40076l4.451574-5.34924 4.451575-5.34924-3.951575-.3075-3.951574-.3075v-1.9425-1.9425h7 7.000001v1.64877 1.64878l-4.619183 5.60122-4.619183 5.60123 4.619183.30479 4.619183.30479v1.44521 1.44521h-7.500001-7.5zm18.993971-3.09047 3.09005-4.49124-2.54201-3.7409c-1.39811-2.05749-2.54201-4.08644-2.54201-4.50876v-.76787h1.97432 1.97432l1.62916 3.15045 1.62916 3.15044 1.99472-3.15044 1.99472-3.15045h2.01681 2.01681l-1.46217 2.25c-.80419 1.2375-2.06567 3.22483-2.80328 4.4163l-1.34112 2.1663 2.68827 4.06226c3.2145 4.85743 3.24901 5.10514.71133 5.10514h-1.97694l-1.63807-2.5c-.90093-1.375-1.96027-2.5-2.35407-2.5-.39381 0-1.31809 1.125-2.05397 2.5l-1.33796 2.5h-2.37906-2.37906zm24.22853 2.93453-2.2225-1.55671v-1.90387-1.90387l1.40653-1.28942 1.40654-1.28943-1.49667-1.67834-1.49667-1.67833.63547-2.00217.63546-2.00216 3.03284-.66613 3.03285-.66612 3.36546.63136 3.36547.63137.64649 2.03692.64649 2.03693-1.49666 1.67833-1.49667 1.67834 1.40653 1.28943 1.40654 1.28942v1.90387 1.90387l-2.22251 1.55671-2.2225 1.5567h-3.05499-3.05499zm8.2775-3.9433v-2l-2.36534-.33466-2.36533-.33467-1.01745 1.01745-1.01745 1.01745.6271 1.63418.6271 1.63419 2.75568-.31697 2.75569-.31697zm0-7.5v-1.5l-2.36534-.33466-2.36533-.33467-.99753.99753-.99754.99754.70731 1.14444.7073 1.14444 2.65556-.30731 2.65557-.30731zm8.5 11.5v-1.5h2 2v-6.06739-6.06738l-2 .63477-2 .63477v-1.46039-1.4604l1.58179-.60699c.86998-.33384 2.66998-.60699 4-.60699h2.41821v7.5 7.5h2 2v1.5 1.5h-6-6zm340-49 29.48729-29.5h16.5 16.5l-29.48729 29.5-29.48729 29.5h-16.5-16.5zm69 0 29.48729-29.5h16.5 16.5l-29.48729 29.5-29.48729 29.5h-16.5-16.5zm34.5-.5 29.9875-30h16.5 16.5l-29.9875 30-29.9875 30h-16.5-16.5zm-502.500001 16.5v-3.5h30.000001 30v-4.5-4.5h-29.86408-29.864073l-.635924-4.63957c-.349758-2.55176-.635924-7.95176-.635924-12v-7.36043h34.500001 34.5v4 4h-30.60699-30.606989l.606989 1.58179c.333844.86998.606989 2.66998.606989 4v2.41821h30.000001 30v12 12h-34-34.000001zm73.000001-16.5v-20h4.5 4.5v20 20h-4.5-4.5zm13 0v-20h34.5 34.5v20 20h-4-4v-16-16h-26.5-26.5v16 16h-4-4zm73 0v-20h34.5 34.5v4 4h-30-30v12.5 12.5h30 30v3.5 3.5h-34.5-34.5zm75-6v-26h4 4v26 26h-4-4zm12 14.5v-11.5h30.5 30.5v-4.5-4.5h-30.5-30.5v-4-4h34.5 34.5v20 20h-34.5-34.5zm61 0v-4.5h-26.5-26.5v3.83333c0 2.10834.3 4.13334.66667 4.5l.66666.66667h25.83334 25.83333zm13-8.5v-20h4 4v20 20h-4-4zm13 0v-20h34.5 34.5v4 4h-30.5-30.5v16 16h-4-4zm-259.28574-24.61907c-.39285-.39285-.71426-2.21426-.71426-4.0476v-3.33333h4.56036 4.56037l-.31037 3.75-.31036 3.75-3.53574.29759-3.53574.29759zm246.28574-3.38093v-4h4 4v4 4h-4-4z" fill="#c92724"/><path d="m85.071449 578.53286v-1.40076l4.451574-5.34924 4.451575-5.34924-3.951575-.3075-3.951574-.3075v-1.9425-1.9425h7 7.000001v1.64877 1.64878l-4.619183 5.60122-4.619183 5.60123 4.619183.30479 4.619183.30479v1.44521 1.44521h-7.500001-7.5zm18.993971-3.09047 3.09005-4.49124-2.54201-3.7409c-1.39811-2.05749-2.54201-4.08644-2.54201-4.50876v-.76787h1.97432 1.97432l1.62916 3.15045 1.62916 3.15044 1.99472-3.15044 1.99472-3.15045h2.01681 2.01681l-1.46217 2.25c-.80419 1.2375-2.06567 3.22483-2.80328 4.4163l-1.34112 2.1663 2.68827 4.06226c3.2145 4.85743 3.24901 5.10514.71133 5.10514h-1.97694l-1.63807-2.5c-.90093-1.375-1.96027-2.5-2.35407-2.5-.39381 0-1.31809 1.125-2.05397 2.5l-1.33796 2.5h-2.37906-2.37906zm24.22853 2.93453-2.2225-1.55671v-1.90387-1.90387l1.40653-1.28942 1.40654-1.28943-1.49667-1.67834-1.49667-1.67833.63547-2.00217.63546-2.00216 3.03284-.66613 3.03285-.66612 3.36546.63136 3.36547.63137.64649 2.03692.64649 2.03693-1.49666 1.67833-1.49667 1.67834 1.40653 1.28943 1.40654 1.28942v1.90387 1.90387l-2.22251 1.55671-2.2225 1.5567h-3.05499-3.05499zm8.2775-3.9433v-2l-2.36534-.33466-2.36533-.33467-1.01745 1.01745-1.01745 1.01745.6271 1.63418.6271 1.63419 2.75568-.31697 2.75569-.31697zm0-7.5v-1.5l-2.36534-.33466-2.36533-.33467-.99753.99753-.99754.99754.70731 1.14444.7073 1.14444 2.65556-.30731 2.65557-.30731zm8.5 11.5v-1.5h2 2v-6.06739-6.06738l-2 .63477-2 .63477v-1.46039-1.4604l1.58179-.60699c.86998-.33384 2.66998-.60699 4-.60699h2.41821v7.5 7.5h2 2v1.5 1.5h-6-6zm409-49 29.48729-29.5h16.5 16.5l-29.48729 29.5-29.48729 29.5h-16.5-16.5zm34.5-.5 29.9875-30h16.5 16.5l-29.9875 30-29.9875 30h-16.5-16.5zm-502.500001 16.5v-3.5h30.000001 30v-4.5-4.5h-29.86408-29.864073l-.635924-4.63957c-.349758-2.55176-.635924-7.95176-.635924-12v-7.36043h34.500001 34.5v4 4h-30.60699-30.606989l.606989 1.58179c.333844.86998.606989 2.66998.606989 4v2.41821h30.000001 30v12 12h-34-34.000001zm73.000001-16.5v-20h4.5 4.5v20 20h-4.5-4.5zm13 0v-20h34.5 34.5v20 20h-4-4v-16-16h-26.5-26.5v16 16h-4-4zm73 0v-20h34.5 34.5v4 4h-30-30v12.5 12.5h30 30v3.5 3.5h-34.5-34.5zm75-6v-26h4 4v26 26h-4-4zm12 14.5v-11.5h30.5 30.5v-4.5-4.5h-30.5-30.5v-4-4h34.5 34.5v20 20h-34.5-34.5zm61 0v-4.5h-26.5-26.5v3.83333c0 2.10834.3 4.13334.66667 4.5l.66666.66667h25.83334 25.83333zm13-8.5v-20h4 4v20 20h-4-4zm13 0v-20h34.5 34.5v4 4h-30.5-30.5v16 16h-4-4zm-259.28574-24.61907c-.39285-.39285-.71426-2.21426-.71426-4.0476v-3.33333h4.56036 4.56037l-.31037 3.75-.31036 3.75-3.53574.29759-3.53574.29759zm246.28574-3.38093v-4h4 4v4 4h-4-4z" fill="#595959"/><path d="m85.071449 578.78485c0-.63183 2.025-3.60852 4.5-6.61488s4.5-5.86441 4.5-6.35123v-.88512h-4-4v-1.5-1.5h6.531385 6.531385l.573134 1.49356.573137 1.49357-5.203466 6.00643-5.203464 6.00644h5.098945 5.098945v1.5 1.5h-7.500001-7.5zm19.043251-3.41409 3.13933-4.56286-2.59129-3.9157c-3.00661-4.54329-3.10052-4.95858-1.12123-4.95858h1.47006l2.22375 3.00778 2.22375 3.00778 1.90439-3.00778 1.90439-3.00778h1.4018 1.4018l-.0222 1.25c-.0122.6875-.90222 2.375-1.97776 3.75-2.44574 3.1267-2.47455 4.5052-.16397 7.84563 1.00982 1.4599 2.16138 3.21687 2.55902 3.90437l.72298 1.25h-1.96081-1.96082l-1.96095-3.09712-1.96096-3.09711-2.20534 3.09711-2.20534 3.09712h-1.97995-1.97994l3.13933-4.56286zm25.29469 3.56423-2.16206-.87186-.67807-2.13642-.67808-2.13642 1.61536-1.78495 1.61537-1.78496-1.52523-1.26582c-.83888-.69621-1.52523-1.86021-1.52523-2.58668v-1.32085l2.2225-1.55671 2.22251-1.5567h3.05499 3.05499l2.2225 1.5567 2.22251 1.55671v1.32085c0 .72647-.68635 1.89047-1.52523 2.58668l-1.52523 1.26583 1.61536 1.78495 1.61536 1.78495-.6757 2.12895-.6757 2.12895-2.47953.94271c-2.97002 1.1292-5.10954 1.11427-8.01139-.0559zm7.16206-4.50137v-2l-2.36534-.33466-2.36533-.33467-1.01745 1.01745-1.01745 1.01745.6271 1.63418.6271 1.63419 2.75568-.31697 2.75569-.31697zm0-7.5v-1.5l-2.36534-.33466-2.36533-.33467-.99753.99753-.99754.99754.70731 1.14444.7073 1.14444 2.65556-.30731 2.65557-.30731zm8.5 11.5v-1.5h2 2v-6.11663-6.11663l-2 .52301-2 .52301v-1.28975-1.28975l2.25-.60297c1.2375-.33164 3.0375-.60912 4-.61664l1.75-.0136v7.5 7.5h2 2v1.5 1.5h-6-6v-1.5zm409-49 29.48729-29.5h16.5 16.5l-29.48729 29.5-29.48729 29.5h-16.5-16.5zm34.5-.5 29.9875-30h16.5 16.5l-29.9875 30-29.9875 30h-16.5-16.5zm-502.500001 16.5v-3.5h30.000001 30v-4.5-4.5h-30-30.000001l-.01101-8.25c-.0061-4.5375-.289932-9.9375-.630842-12l-.619837-3.75h34.63085 34.63084v3.48534 3.48533l-30.23665.26467-30.236644.26466-.351912 1.8291c-.193552 1.006-.07849 2.9185.255697 4.25l.607608 2.4209h29.980951 29.98095v12 12h-34-34.000005v-3.5zm74.000001-16.5v-20h3.5 3.5v20 20h-3.5-3.5zm12 0v-20h34.5 34.5v20 20h-4-4v-16-16h-26.5-26.5v16 16h-4-4zm73.22886.25.27114-19.75 34.25-.26313 34.25-.26312v4.01312 4.01313h-30.5-30.5v12.5 12.5h30.5 30.5v3.5 3.5h-34.52114-34.52114zm74.77114-6.25v-26h4 4v26 26h-4-4zm12 14.5v-11.5h30.5 30.5v-4.48534-4.48533l-30.25-.26467-30.25-.26466v-3.5-3.5l34.25-.26313 34.25-.26312v20.01312 20.01313h-34.5-34.5zm61 0v-4.5h-26.5-26.5v4.5 4.5h26.5 26.5zm13-8.5v-20h4 4v20 20h-4-4zm13.22886.25.27114-19.75 34.25-.26313 34.25-.26312v4.01312 4.01313h-30.5-30.5v16 16h-4.02114-4.02114zm-259.22886-28.25v-4h3.5 3.5v4 4h-3.5-3.5zm246 0v-4h4 4v4 4h-4-4z" fill="#01549b"/><path d="m85.071449 578.78485c0-.63183 2.025-3.60852 4.5-6.61488s4.5-5.86441 4.5-6.35123v-.88512h-4-4v-1.5-1.5h6.531385 6.531385l.573134 1.49356.573137 1.49357-5.203466 6.00643-5.203464 6.00644h5.098945 5.098945v1.5 1.5h-7.500001-7.5zm19.043251-3.41409 3.13933-4.56286-2.59129-3.9157c-3.00661-4.54329-3.10052-4.95858-1.12123-4.95858h1.47006l2.22375 3.00778 2.22375 3.00778 1.90439-3.00778 1.90439-3.00778h1.4018 1.4018l-.0222 1.25c-.0122.6875-.90222 2.375-1.97776 3.75-2.44574 3.1267-2.47455 4.5052-.16397 7.84563 1.00982 1.4599 2.16138 3.21687 2.55902 3.90437l.72298 1.25h-1.96081-1.96082l-1.96095-3.09712-1.96096-3.09711-2.20534 3.09711-2.20534 3.09712h-1.97995-1.97994l3.13933-4.56286zm25.29469 3.56423-2.16206-.87186-.67807-2.13642-.67808-2.13642 1.61536-1.78495 1.61537-1.78496-1.52523-1.26582c-.83888-.69621-1.52523-1.86021-1.52523-2.58668v-1.32085l2.2225-1.55671 2.22251-1.5567h3.05499 3.05499l2.2225 1.5567 2.22251 1.55671v1.32085c0 .72647-.68635 1.89047-1.52523 2.58668l-1.52523 1.26583 1.61536 1.78495 1.61536 1.78495-.6757 2.12895-.6757 2.12895-2.47953.94271c-2.97002 1.1292-5.10954 1.11427-8.01139-.0559zm7.16206-4.50137v-2l-2.36534-.33466-2.36533-.33467-1.01745 1.01745-1.01745 1.01745.6271 1.63418.6271 1.63419 2.75568-.31697 2.75569-.31697zm0-7.5v-1.5l-2.36534-.33466-2.36533-.33467-.99753.99753-.99754.99754.70731 1.14444.7073 1.14444 2.65556-.30731 2.65557-.30731zm8.5 11.5v-1.5h2 2v-6.11663-6.11663l-2 .52301-2 .52301v-1.28975-1.28975l2.25-.60297c1.2375-.33164 3.0375-.60912 4-.61664l1.75-.0136v7.5 7.5h2 2v1.5 1.5h-6-6v-1.5zm409-49 29.48729-29.5h16.5 16.5l-29.48729 29.5-29.48729 29.5h-16.5-16.5zm-468.000001 16v-3.5h30.000001 30v-4.5-4.5h-30-30.000001l-.01101-8.25c-.0061-4.5375-.289932-9.9375-.630842-12l-.619837-3.75h34.63085 34.63084v3.48534 3.48533l-30.23665.26467-30.236644.26466-.351912 1.8291c-.193552 1.006-.07849 2.9185.255697 4.25l.607608 2.4209h29.980951 29.98095v12 12h-34-34.000005v-3.5zm74.000001-16.5v-20h3.5 3.5v20 20h-3.5-3.5zm12 0v-20h34.5 34.5v20 20h-4-4v-16-16h-26.5-26.5v16 16h-4-4zm73.22886.25.27114-19.75 34.25-.26313 34.25-.26312v4.01312 4.01313h-30.5-30.5v12.5 12.5h30.5 30.5v3.5 3.5h-34.52114-34.52114zm74.77114-6.25v-26h4 4v26 26h-4-4zm12 14.5v-11.5h30.5 30.5v-4.48534-4.48533l-30.25-.26467-30.25-.26466v-3.5-3.5l34.25-.26313 34.25-.26312v20.01312 20.01313h-34.5-34.5zm61 0v-4.5h-26.5-26.5v4.5 4.5h26.5 26.5zm13-8.5v-20h4 4v20 20h-4-4zm13.22886.25.27114-19.75 34.25-.26313 34.25-.26312v4.01312 4.01313h-30.5-30.5v16 16h-4.02114-4.02114zm-259.22886-28.25v-4h3.5 3.5v4 4h-3.5-3.5zm246 0v-4h4 4v4 4h-4-4z" fill="#009b36"/><path d="m85.071449 578.78485c0-.63183 2.025-3.60852 4.5-6.61488s4.5-5.86441 4.5-6.35123v-.88512h-4-4v-1.5-1.5h6.531385 6.531385l.573134 1.49356.573137 1.49357-5.203466 6.00643-5.203464 6.00644h5.098945 5.098945v1.5 1.5h-7.500001-7.5zm19.043251-3.41409 3.13933-4.56286-2.59129-3.9157c-3.00661-4.54329-3.10052-4.95858-1.12123-4.95858h1.47006l2.22375 3.00778 2.22375 3.00778 1.90439-3.00778 1.90439-3.00778h1.4018 1.4018l-.0222 1.25c-.0122.6875-.90222 2.375-1.97776 3.75-2.44574 3.1267-2.47455 4.5052-.16397 7.84563 1.00982 1.4599 2.16138 3.21687 2.55902 3.90437l.72298 1.25h-1.96081-1.96082l-1.96095-3.09712-1.96096-3.09711-2.20534 3.09711-2.20534 3.09712h-1.97995-1.97994l3.13933-4.56286zm25.29469 3.56423-2.16206-.87186-.67807-2.13642-.67808-2.13642 1.61536-1.78495 1.61537-1.78496-1.52523-1.26582c-.83888-.69621-1.52523-1.86021-1.52523-2.58668v-1.32085l2.2225-1.55671 2.22251-1.5567h3.05499 3.05499l2.2225 1.5567 2.22251 1.55671v1.32085c0 .72647-.68635 1.89047-1.52523 2.58668l-1.52523 1.26583 1.61536 1.78495 1.61536 1.78495-.6757 2.12895-.6757 2.12895-2.47953.94271c-2.97002 1.1292-5.10954 1.11427-8.01139-.0559zm7.16206-4.50137v-2l-2.36534-.33466-2.36533-.33467-1.01745 1.01745-1.01745 1.01745.6271 1.63418.6271 1.63419 2.75568-.31697 2.75569-.31697zm0-7.5v-1.5l-2.36534-.33466-2.36533-.33467-.99753.99753-.99754.99754.70731 1.14444.7073 1.14444 2.65556-.30731 2.65557-.30731zm8.5 11.5v-1.5h2 2v-6.11663-6.11663l-2 .52301-2 .52301v-1.28975-1.28975l2.25-.60297c1.2375-.33164 3.0375-.60912 4-.61664l1.75-.0136v7.5 7.5h2 2v1.5 1.5h-6-6v-1.5zm-59.000001-33v-3.5h30.000001 30v-4.5-4.5h-30-30.000001l-.01101-8.25c-.0061-4.5375-.289932-9.9375-.630842-12l-.619837-3.75h34.63085 34.63084v3.48534 3.48533l-30.23665.26467-30.236644.26466-.351912 1.8291c-.193552 1.006-.07849 2.9185.255697 4.25l.607608 2.4209h29.980951 29.98095v12 12h-34-34.000005v-3.5zm74.000001-16.5v-20h3.5 3.5v20 20h-3.5-3.5zm12 0v-20h34.5 34.5v20 20h-4-4v-16-16h-26.5-26.5v16 16h-4-4zm73.22886.25.27114-19.75 34.25-.26313 34.25-.26312v4.01312 4.01313h-30.5-30.5v12.5 12.5h30.5 30.5v3.5 3.5h-34.52114-34.52114zm74.77114-6.25v-26h4 4v26 26h-4-4zm12 14.5v-11.5h30.5 30.5v-4.48534-4.48533l-30.25-.26467-30.25-.26466v-3.5-3.5l34.25-.26313 34.25-.26312v20.01312 20.01313h-34.5-34.5zm61 0v-4.5h-26.5-26.5v4.5 4.5h26.5 26.5zm13-8.5v-20h4 4v20 20h-4-4zm13.22886.25.27114-19.75 34.25-.26313 34.25-.26312v4.01312 4.01313h-30.5-30.5v16 16h-4.02114-4.02114zm-259.22886-28.25v-4h3.5 3.5v4 4h-3.5-3.5zm246 0v-4h4 4v4 4h-4-4z" fill="#2f2f2f"/><path d="m85.071449 578.83004c0-.60697 2.31471-3.86947 5.143799-7.25l5.143799-6.14642-4.643799-.30479-4.643799-.30479v-.94521-.94521h7 7.000001v.91255c0 .50191-2.288948 3.65191-5.086549 7l-5.086548 6.08745h5.086548 5.086549v1.5 1.5h-7.500001-7.5zm17.000001.55053c0-.30418 1.125-2.20864 2.5-4.23214 3.08915-4.54609 3.08795-4.75519-.0509-8.87042l-2.55089-3.34439h1.93588 1.93588l1.72349 2.63037 1.72348 2.63038 2.21165-2.77367 2.21164-2.77367 1.18978.3966 1.18978.39659-2.55191 3.75547-2.55191 3.75546 3.09005 4.49124 3.09005 4.49123h-2.02236-2.02236l-1.55136-3c-.85325-1.65-1.89278-3-2.31007-3s-1.55618 1.35-2.53086 3l-1.77214 3h-1.44347c-.7939 0-1.44346-.24887-1.44346-.55305zm28.24781-.13251-2.2522-.45412-1.06888-1.99722-1.06887-1.99722 1.43663-2.19258 1.43664-2.19259-1.36298-2.05276-1.36298-2.05276 1.35587-1.85426 1.35587-1.85426h4.78309 4.78309l1.35587 1.85426 1.35587 1.85426-1.36298 2.05276-1.36299 2.05276 1.43664 2.19259 1.43664 2.19258-1.10625 2.06706-1.10626 2.06706-1.21481.0136c-.66815.008-2.11482.18044-3.21482.38428s-3.01349.16627-4.25219-.0835zm6.25219-4.81444v-2l-2.36534-.33466-2.36533-.33467-1.01745 1.01745-1.01745 1.01745.6271 1.63418.6271 1.63419 2.75568-.31697 2.75569-.31697zm.5-7.5v-2h-3.5-3.5v2 2h3.5 3.5zm8 11.5v-1.5h2 2v-6-6h-2-2v-.875-.875l3.125-.625c1.71875-.34375 3.51875-.625 4-.625h.875v7.5 7.5h2 2v1.5 1.5h-6-6zm-59.000001-32.98534v-3.48533l30.250001-.26467 30.25-.26466v-4.5-4.5l-30.25-.26466-30.250001-.26467v-11.48533-11.48534h34.000001 34v3.5 3.5h-30.5-30.500001v4.5 4.5h30.500001 30.5v12 12h-34-34.000001zm74.000001-16.01466v-19.5h3.5 3.5v19.5 19.5h-3.5-3.5zm12-.5v-20h34 34v20 20h-3.5-3.5v-16.5-16.5h-26.5-26.5v16.5 16.5h-4-4zm74 .5v-19.5h34 34v2.98534 2.98533l-30.25.26467-30.25.26466-.27988 12.75-.27987 12.75h30.52987 30.52988v3.5 3.5h-34-34zm74-6.5v-26h3.5 3.5v26 26h-3.5-3.5zm13 14.5v-11.5h30 30v-5-5h-30-30v-3-3h34 34v19.5 19.5h-34-34zm60-.5v-5h-26.5-26.5v5 5h26.5 26.5zm13-7.5v-19.5h4 4v19.5 19.5h-4-4zm14 0v-19.5h34 34v2.98534 2.98533l-30.25.26467-30.25.26466-.27477 16.25-.27477 16.25h-3.47523-3.47523zm-260-29v-3.5h3.5 3.5v3.5 3.5h-3.5-3.5zm246 0v-3.5h4 4v3.5 3.5h-4-4z" fill="#010101"/></g></svg>