<svg height="350.26" viewBox="0 0 598.189 350.26" width="598.189" xmlns="http://www.w3.org/2000/svg"><g fill="#f4f4f4"><path d="m415.095 188.464v-25.334h37.499v-138c-.009-4.418-3.582-7.992-8-8h-289.999c-4.42.008-7.994 3.582-8 8l-.002 138h37.501v24.75h-2v-22.75h-37.5v-140.002c0-5.522 4.478-9.999 10.001-9.999h289.999c5.523 0 10.001 4.477 10.001 9.999v140.002l-37.5-.002v23.336z"/><path d="m154.595 337.128c-5.525 0-10-4.478-10-10v-149h1.999v149c.008 4.42 3.583 7.992 8.001 8.002h289.999c4.419-.01 7.991-3.582 8.001-8.002v-149h1.999v149c0 5.522-4.478 10-10 10z"/><path d="m156.259 189.464v-.002-1-1l286.67.002c5.337-.012 9.654-4.328 9.663-9.668-.009-5.336-4.326-9.656-9.663-9.666h-286.67c-5.337.009-9.655 4.328-9.666 9.666.011 5.34 4.328 9.658 9.666 9.668v.998 1c-6.441 0-11.664-5.223-11.666-11.666.002-6.444 5.225-11.666 11.666-11.666h286.67c6.441 0 11.663 5.222 11.663 11.666 0 6.443-5.222 11.666-11.663 11.666h-286.67z"/><path d="m201.92097 156.796c-3.62623 0-6.55739-2.238-6.56132-5v-115.334c.004-2.761 2.93509-5 6.56132-5h198.90641c3.62361 0 6.55345 2.238 6.55345 5v115.333c0 2.761-2.92984 5-6.55345 5h-198.90641zm-3.93837-120.334v115.333c.007 1.656 1.76394 2.996 3.93837 3h198.90641c2.17049-.004 3.92918-1.344 3.93444-3v-115.333c-.006-1.657-1.76395-2.996-3.93444-3h-198.90641c-2.17574.004-3.9318 1.345-3.93837 3z" stroke-width="1.145197"/><path d="m206.42074 149.796c-2.22261-.002-4.02162-1.342-4.02429-3l.002-105.333c0-1.657 1.799-3 4.02162-3h189.01446c2.22127 0 4.02027 1.344 4.02027 3v105.333c0 1.656-1.799 3-4.02027 3h-189.01413zm-1.34054-108.334-.002 105.333c.002.549.60325.998 1.34322 1h189.01415c.74265-.002 1.33786-.447 1.34054-1v-105.333c-.002-.552-.59789-.998-1.34054-1h-189.01448c-.73998.002-1.34053.449-1.34053 1z" stroke-width="1.157816"/><path d="m218.345 317.255v-119.752c0-2.209 1.79-3.998 4-3.998l154.499-.002c2.21.002 4 1.791 4 4v119.752c0 2.207-1.79 3.998-4 3.998l-154.499.002c-2.21-.002-4-1.793-4-4zm1.999-119.752v119.752c.003 1.104.897 1.996 2.001 1.998h154.499c1.104-.002 1.997-.896 1.999-1.998h.002l-.002-119.752c-.002-1.104-.895-1.998-1.999-2h-154.499c-1.104.002-1.998.896-2.001 2z"/><path d="m227.969 312.753c-1.104 0-1.999-.896-1.999-1.998v-106.75c0-1.107.895-2.002 1.999-2.002h143.25c1.104 0 1.999.895 1.999 2.002v106.75c0 1.104-.895 1.998-1.999 1.998zm0-108.748v106.75h143.25v-106.75-.002h-143.25z"/><path d="m175.02983 302.25163c-1.105 0-2.001-.895-2.001-2v-12.062h-12.063c-1.105 0-1.999-.896-1.999-1.999v-13.251c0-1.104.894-2 1.999-2h12.063v-12.063c0-1.104.896-1.998 2.001-1.998h13.249c1.105 0 2 .895 2 1.998v12.063h12.063c1.105 0 1.999.896 1.999 2v13.251c0 1.104-.893 1.999-1.999 1.999h-12.063v12.063c0 1.104-.896 1.998-2 1.998h-13.249zm0-2h13.249v-12.188c.006-.307.025-.742.354-1.199.334-.469.956-.693 1.502-.675h12.208v-13.25h-12.146c-.395 0-.891-.083-1.317-.455-.43-.376-.608-.954-.6-1.481v-12.127h-13.249v12.168c-.002.375-.075.842-.417 1.266-.343.428-.929.645-1.458.631h-12.188v13.249h12.085c.391.015.823-.008 1.34.345.53.393.648 1.022.638 1.469v12.247z"/><path d="m407.763 219.794c0-5.246 4.253-9.5 9.499-9.5 5.247 0 9.5 4.254 9.5 9.5 0 5.246-4.253 9.5-9.5 9.5-5.246 0-9.499-4.252-9.499-9.5zm1.998 0c.008 4.143 3.359 7.494 7.501 7.502 4.144-.008 7.493-3.359 7.5-7.502-.007-4.143-3.356-7.492-7.5-7.5-4.142.008-7.493 3.358-7.501 7.5z"/><path d="m407.763 255.296c0-5.25 4.253-9.502 9.499-9.502 5.247 0 9.5 4.252 9.5 9.502 0 5.244-4.253 9.498-9.5 9.498-5.246 0-9.499-4.252-9.499-9.498zm1.998 0c.008 4.141 3.359 7.49 7.501 7.5 4.144-.01 7.493-3.359 7.5-7.5-.007-4.146-3.356-7.494-7.5-7.502-4.142.008-7.493 3.357-7.501 7.502z"/><path d="m390.095 237.628c0-5.246 4.256-9.5 9.501-9.5 5.246 0 9.5 4.254 9.5 9.5 0 5.246-4.254 9.5-9.5 9.5-5.245 0-9.501-4.252-9.501-9.5zm2.001 0c.009 4.144 3.358 7.492 7.5 7.502 4.143-.01 7.492-3.358 7.5-7.502-.008-4.142-3.357-7.494-7.5-7.5-4.142.006-7.493 3.359-7.5 7.5z"/><path d="m425.931 237.628c0-5.246 4.252-9.5 9.5-9.5 5.245 0 9.499 4.254 9.499 9.5 0 5.248-4.254 9.5-9.499 9.5-5.248 0-9.5-4.252-9.5-9.5zm1.999 0c.009 4.144 3.357 7.492 7.501 7.502 4.142-.01 7.493-3.358 7.499-7.502-.006-4.142-3.357-7.492-7.499-7.5-4.144.008-7.494 3.359-7.501 7.5z"/><path d="m390.429 295.128c0-2.946 2.387-5.334 5.334-5.334 2.943 0 5.331 2.388 5.331 5.334 0 2.945-2.388 5.332-5.331 5.332-2.95 0-5.334-2.385-5.334-5.332zm1.998 0c.004 1.84 1.493 3.33 3.336 3.332 1.84-.002 3.327-1.492 3.331-3.332-.004-1.842-1.491-3.33-3.331-3.334-1.843.004-3.332 1.494-3.336 3.334z"/><path d="m390.429 312.796c0-2.947 2.388-5.334 5.333-5.334 2.945 0 5.332 2.387 5.332 5.334 0 2.945-2.387 5.332-5.332 5.332-2.947 0-5.333-2.387-5.333-5.332zm1.998 0c.005 1.84 1.493 3.328 3.335 3.332 1.841-.004 3.33-1.492 3.332-3.332-.002-1.842-1.491-3.33-3.332-3.334-1.842.004-3.33 1.492-3.335 3.334z"/><g transform="matrix(.57507656 0 0 .68407401 126.56421 2.429076)"><path d="m185.136 38.629c-1.658 0-3-1.344-3-3v-5.251c0-1.656 1.342-3 3-3h5.25c1.658 0 3 1.343 3 3v5.251c0 1.656-1.341 3-3 3zm-1.001-8.251v5.251c.002.55.449.999 1 .999h5.25c.552 0 .999-.449 1-.999v-5.251c-.002-.55-.448-.999-1-1h-5.25c-.551.002-.998.451-1 1z"/><path d="m408.803 38.628c-1.657 0-2.999-1.343-2.999-2.999v-5.251c0-1.656 1.342-2.999 2.999-2.999h5.251c1.656 0 2.997 1.341 2.999 2.999v5.251c-.002 1.658-1.343 2.999-2.999 2.999zm-1.001-8.249v5.251c.002.553.448.999 1.001.999h5.251c.549 0 .997-.448.999-.999v-5.251c-.002-.551-.45-.999-.999-1.001h-5.251c-.553.002-.999.449-1.001 1.001z"/></g><path d="m434.85669 180.34931c0 .16689-.448.3018-1 .3018h-.332c-.552 0-1-.13491-1-.3018v-3.62157c0-.1669.448-.3018 1-.3018h.332c.552 0 1 .1349 1 .3018z" stroke-width=".549361"/><g transform="matrix(1.0985231 0 0 1 -28.184057 0)"><circle cx="405.56299" cy="90.942001" r="1.563"/><circle cx="417.18799" cy="90.942001" r="1.563"/><circle cx="428.81299" cy="90.942001" r="1.563"/><circle cx="417.18799" cy="102.317" r="1.563"/><circle cx="417.26093" cy="79.360962" r="1.563"/><circle cx="170.37601" cy="90.942001" r="1.563"/><circle cx="182.00101" cy="90.942001" r="1.563"/><circle cx="193.62601" cy="90.942001" r="1.563"/><circle cx="182.00101" cy="102.317" r="1.563"/><circle cx="182.07393" cy="79.21286" r="1.563"/></g><path d="m169.7047 222.1505c0-6.30919 5.2512-11.42534 11.72267-11.42534 6.4727 0 11.72143 5.11615 11.72143 11.42534 0 6.3092-5.24873 11.42535-11.72143 11.42535-6.47147 0-11.72267-5.11374-11.72267-11.42535zm2.4689 0c.0111 4.98386 4.14322 9.01039 9.25377 9.02242 5.11178-.012 9.24389-4.03856 9.25376-9.02242-.01-4.98145-4.14198-9.01279-9.25376-9.02-5.11055.007-9.24513 4.03975-9.25377 9.02z" stroke-width="1.218152"/></g><path d="m161.1147 221.74542c0-11.15614 9.09932-20.20268 20.31312-20.20268 11.21594 0 20.31099 9.04654 20.31099 20.20268 0 11.15614-9.09505 20.20268-20.31099 20.20268-11.2138 0-20.31312-9.04229-20.31312-20.20268z" fill="none" stroke="#fff" stroke-width="1.118"/><path d="m386.86495 200.11581c0-3.05516 2.44647-5.5326 5.46143-5.5326 3.01555 0 5.46086 2.47744 5.46086 5.5326 0 3.05516-2.44531 5.5326-5.46086 5.5326-3.01496 0-5.46143-2.47627-5.46143-5.5326z" fill="none" stroke="#fff" stroke-width=".987754"/><path d="m297.391 24.729246c0-1.96424 1.65774-3.55643 3.7044-3.55643 2.04388 0 3.70232 1.59219 3.70232 3.55643 0 1.96356-1.65844 3.55509-3.70232 3.55509-2.04874 0-3.7044-1.59019-3.7044-3.55509zm1.38759 0c.003 1.22681 1.03687 2.22026 2.31681 2.22159 1.27786-.001 2.31057-.99478 2.31335-2.22159-.003-1.22815-1.03549-2.22027-2.31335-2.22294-1.27994.003-2.31403.99612-2.31681 2.22294z" fill="#f4f4f4" stroke-width=".680476"/></svg>