<svg height="350.26" viewBox="0 0 598.189 350.26" width="598.189" xmlns="http://www.w3.org/2000/svg"><g fill="#f4f4f4"><path d="m243.026 35.035v1.544h109.522v-1.544z"/><path d="m184.994 91.859v206.096c0 22.536 18.268 40.828 40.804 40.828h143.837c22.533 0 40.827-18.292 40.827-40.828v-205.972h-1.545v205.972c0 21.703-17.583 39.284-39.282 39.284h-143.837c-21.703 0-39.261-17.581-39.261-39.28v-206.096h-1.544z"/><path d="m221.309 128.537c-10.8 0-19.569 8.769-19.569 19.569v154.478c0 10.801 8.769 19.569 19.569 19.569h152.841c10.536 0 19.081-8.361 19.497-18.797h.072v-.772-154.478c0-10.8-8.771-19.569-19.57-19.569zm0 1.544h152.841c9.966 0 18.024 8.06 18.024 18.025v153.706.772c0 9.967-8.058 18.025-18.024 18.025h-152.841c-9.965 0-18.025-8.059-18.025-18.025v-154.478c-.001-9.965 8.06-18.025 18.025-18.025z"/><path d="m225.29 31.367c-24.114 0-43.675 19.561-43.675 43.675 0 24.115 19.561 43.675 43.676 43.675s43.675-19.56 43.675-43.675-19.56-43.675-43.676-43.675zm0 1.545c23.279 0 42.13 18.851 42.13 42.13 0 23.28-18.851 42.131-42.13 42.131-23.28 0-42.13-18.851-42.13-42.131s18.85-42.13 42.13-42.13z"/><path d="m370.169 31.367c-24.114 0-43.675 19.561-43.675 43.675 0 24.115 19.561 43.675 43.675 43.675 24.112 0 43.674-19.56 43.674-43.675s-19.562-43.675-43.674-43.675zm0 1.545c23.279 0 42.13 18.851 42.13 42.13 0 23.28-18.851 42.131-42.13 42.131-23.28 0-42.131-18.851-42.131-42.131s18.851-42.13 42.131-42.13z"/><path d="m181.615 75.621v223.778c0 24.114 19.561 43.674 43.675 43.674h144.874c24.111 0 43.673-19.56 43.673-43.674v-222.574h-1.543v222.574c0 23.28-18.854 42.131-42.13 42.131h-144.874c-23.277 0-42.129-18.849-42.129-42.128v-223.78h-1.544z"/><path d="m297.727 181.669c-32.917 0-59.627 26.709-59.627 59.625s26.709 59.625 59.627 59.625c32.915 0 59.6-26.709 59.6-59.625s-26.685-59.625-59.6-59.625zm0 1.544c32.08 0 58.055 25.999 58.055 58.081s-25.975 58.08-58.055 58.08c-32.084 0-58.083-25.998-58.083-58.08s25.999-58.081 58.083-58.081z"/><path d="m297.727 198.54c-23.608 0-42.76 19.151-42.76 42.76 0 23.605 19.152 42.757 42.76 42.757 23.605 0 42.757-19.151 42.757-42.757-.001-23.609-19.152-42.76-42.757-42.76zm0 1.544c22.771 0 41.213 18.443 41.213 41.216 0 22.771-18.442 41.213-41.213 41.213-22.774 0-41.215-18.441-41.215-41.213-.001-22.773 18.44-41.216 41.215-41.216z"/><g transform="translate(-.000005)"><path d="m220.186 198.782c-3.588 0-6.495-2.908-6.495-6.494l-.001-42.093c.001-3.586 2.908-6.492 6.496-6.494h42.09c3.585.002 6.492 2.909 6.494 6.494-.019 3.645-2.441 5.818-2.475 5.861l-39.495 39.495h.28l-1.652 1.368c-1.083.938-2.217 1.866-5.018 1.866-.074 0-.15-.002-.224-.003zm-4.952-48.587v42.093c.004 2.734 2.216 4.945 4.951 4.951 2.732-.052 3.012-.524 4.228-1.487l40.817-40.815c-.003-.002.1-.089.288-.305.188-.216.442-.541.696-.956.509-.834 1.013-2.025 1.011-3.481-.005-2.731-2.217-4.943-4.949-4.949h-42.09c-2.735.006-4.947 2.216-4.952 4.949zm10.246 46.675-.545-.547z"/><path d="m370.031 196.919.493-.596.545-.547-.545.547-.493.596-.031-.027-40.811-40.812c-.06-.065-2.482-2.239-2.501-5.882 0-3.587 2.906-6.494 6.495-6.496h42.093c3.584.002 6.49 2.907 6.49 6.496l.002 42.093c-.002 3.585-2.908 6.492-6.492 6.492-.078.001-.15.003-.222.003-2.803-.001-3.942-.928-5.023-1.867zm5.245.318c2.73-.004 4.941-2.215 4.948-4.947l-.003-42.093c-.004-2.735-2.213-4.946-4.945-4.951h-42.093c-2.736.005-4.945 2.216-4.949 4.951-.008 2.174 1.138 3.783 1.706 4.434.187.216.286.306.315.331l40.789 40.791c1.217.962 1.496 1.435 4.232 1.484z"/></g><path d="m225.29 42.998c-17.683 0-32.021 14.361-32.021 32.044 0 17.684 14.337 32.044 32.021 32.044s32.044-14.36 32.044-32.044-14.36-32.044-32.044-32.044zm0 1.544c16.848 0 30.5 13.652 30.5 30.5s-13.652 30.5-30.5 30.5c-16.849 0-30.475-13.652-30.475-30.5s13.625-30.5 30.475-30.5z"/><path d="m370.169 42.998c-17.684 0-32.046 14.361-32.046 32.044 0 17.684 14.362 32.044 32.046 32.044s32.021-14.36 32.021-32.044-14.336-32.044-32.021-32.044zm0 1.544c16.849 0 30.475 13.652 30.475 30.5s-13.626 30.5-30.475 30.5c-16.85 0-30.5-13.652-30.5-30.5s13.65-30.5 30.5-30.5z"/><path d="m226.618 31.392v1.544h139.351v-1.544z"/><path d="m289.332 5.162v.772 5.454.771h.772 15.395.772v-.771-5.454-.772h-.772-15.395zm1.543 1.544h13.851v3.909h-13.851z"/><path d="m288.922 15.345v.772 5.454.771h.772 16.215.772v-.771-5.454-.772h-.772-16.215zm1.545 1.544h14.671v3.91h-14.671z"/><path d="m288.513 25.527v.773 5.453h1.545v-4.681h15.467v4.681h1.545v-5.453-.772h-.772-17.012-.773z"/><g transform="translate(-.000005)"><g><path d="m291.881 16.031v-4.631h1.544v4.631z"/><path d="m302.164 15.895v-4.495h1.546v4.495z"/></g><g><path d="m291.881 26.35v-4.631h1.544v4.631z"/><path d="m302.164 26.215v-4.497h1.546v4.497z"/></g></g></g></svg>