<svg height="350.26" viewBox="0 0 598.189 350.26" width="598.189" xmlns="http://www.w3.org/2000/svg"><g fill="#f4f4f4"><path d="m407.349 51.894-.313.531-6 9.281 1.688 1.094 5.656-8.781 91.5 9.906 3.375 8.188 1.844-.75-3.594-8.75-.219-.563-.594-.063-92.719-10.031z"/><path d="m398.505 58.456-380.782 20.875-.406.031-.281.313-9.813 11.531-.25.281v.375 49.594 39.344 49.594.375l.25.281 9.813 11.531.281.313.406.031 380.782 20.875.375.031.313-.25 17.656-13.813 78.625-5.813 12.656 11.469.406.375.5-.125 5.906-1.469.313-.094.188-.25 7.625-8.813.125-.156.063-.188 4.906-14.719.063-.156v-.188-4.156-1h-.531v-.594h.531v-1-59.091-5.344-59.094-1h-.531v-.594h.531v-1-4.156-.156l-.063-.156-4.906-14.75-.063-.188-.125-.125-7.625-8.844-.188-.25-.313-.094-5.906-1.469-.5-.125-.406.375-12.688 11.5-78.594-5.844-17.656-13.813-.313-.219h-.374zm-.25 2.031 17.625 13.75.25.188.281.031 79.313 5.875.406.031.344-.281 12.625-11.438 5.094 1.313 7.219 8.406 4.813 14.469v2.938h-.531v1 2.594 1h.531v58.094 5.344 58.094h-.531v1 2.594 1h.531v2.938l-4.813 14.438-7.25 8.469-5.063 1.281-12.625-11.438-.344-.281-.406.031-79.313 5.875-.281.031-.25.188-17.625 13.75-379.969-20.815-9.313-10.938v-49.218-39.344-49.219l9.313-10.937z"/><path d="m503.255 250.144-3.375 8.188-91.5 9.906-5.656-8.781-1.688 1.094 6 9.313.313.5.625-.063 92.719-10.031.594-.063.219-.563 3.594-8.75z"/><path d="m401.692 91.831-386.594 5.25h-.094-.125l-5.969 1.5-.781.188v.781 41.5 40.156 41.5.813l.781.188 5.969 1.469.125.031h.094l386.594 5.25h.031l125-3.969-.063-2-124.938 3.969h-.063l-386.438-5.25-5.094-1.281v-40.719-40.157-40.719l5.094-1.25 386.438-5.25h.063l124.938 3.938.063-2-125-3.938z"/><path d="m273.879 95.144-1.031.031-257.781 3.187h-.125l-.125.031-5.906 1.719.563 1.906 5.625-1.656h.063l256.719-3.188v37.906 52.094 37.906l-256.719-3.188h-.063l-5.625-1.656-.563 1.906 5.906 1.719.125.031h.125l257.781 3.188 1.031.031v-1.031-38.906-52.094-38.905z"/><path d="m281.418 226.729-7.46-7.463.002-32.573v-4.283l9.912-.002v-1.219h-9.912v-4.119l9.912-.002v-1.22h-9.912v-4.763h9.91v-1.222h-9.91v-4.853h9.912v-1.224h-9.912v-4.393h9.912v-1.224h-9.912v-4.208l9.91-.002v-1.219h-9.91v-4.579h9.91v-1.222h-9.91v-4.578h9.91v-1.222h-9.91v-4.396h9.91v-1.222h-9.912v-32.532l7.46-7.458h110.2l8.32 8.316v31.674h-10.957v1.222h10.955v4.396h-10.955v1.222h10.955v4.578h-10.955v1.222h10.955v4.579h-10.955v1.221h10.955v4.208h-10.955v1.224h10.955v4.393h-10.955v1.224h10.955v4.853h-10.955v1.222h10.955v4.763l-10.955-.002v1.224h10.955v4.119h-10.955v1.221h10.957v5.021 30.979l-8.32 8.32h-110.2zm-5.459-40.037v31.745l6.287 6.289h108.544l7.146-7.148v-30.148-3.021h-10.955v-4.222-1.002h10.955v-.116h-10.955v-5.223h10.957v-.762h-10.957v-5.222h10.957v-.853h-10.957v-5.224h10.957v-.394h-10.957v-5.223h10.955v-.208h-10.955v-5.221h10.955v-.579h-10.955v-5.222l10.955-.002v-.577h-10.955v-5.221l10.957-.002v-.394h-10.957v-5.222h10.955v-28.844l-7.146-7.146h-108.543l-6.289 6.287v29.704h9.912v5.222h-9.912v.396h9.912v5.221h-9.912v.579h9.912v5.222h-9.912v.579h9.912v5.221h-9.912v.208h9.912v5.223h-9.912v.394h9.912v5.224h-9.912v.853h9.912v5.222h-9.912v.762h9.912v5.223h-9.912v.116h9.912v5.224h-9.912z"/><path d="m401.804 95.75 8.444.234v128.288l-7.418.184-.025-.999.025.999-1.026.023zm2.002 126.681 4.44-.109v-124.393l-4.44-.125zm7.021-126.428 7.982.222v127.833l-6.956.174-.025-.999.025.999-1.026.025zm2.002 126.204 3.982-.1v-123.937l-3.982-.112zm6.559-125.965 7.985.222v127.38l-6.959.175-.025-.998.025.998-1.026.025zm2.002 125.751 3.983-.101v-123.481l-3.983-.112zm6.561-125.511 7.982.222v126.926l-6.958.174-.023-.999.023.999-1.024.025zm2 125.298 3.982-.099v-123.03l-3.982-.112zm6.562-125.059 7.986.224v126.472l-6.961.176-.025-1.001.025 1.001-1.025.025zm2.001 124.845 3.983-.101v-122.575l-3.983-.112zm6.561-124.604 7.984.224v126.018l-6.958.173-.025-.999.025.999-1.026.023zm2.002 124.39 3.98-.099v-122.122l-3.98-.112zm6.56-124.149 7.984.222v125.565l-6.958.174-.025-.999.025.999-1.026.025zm2.002 123.936 3.982-.1v-121.67l-3.982-.112zm6.56-123.696 7.984.222v125.112l-6.96.173-.023-.999.023.999-1.024.025zm2 123.484 3.985-.101v-121.216l-3.985-.109zm6.56-123.245 7.984.222v124.66l-6.959.174-.024-.999.024.999-1.025.025zm2.002 123.032 3.982-.099v-120.766l-3.982-.112zm6.562-122.793 7.984.224v124.206l-6.96.173-.025-.998.025.998-1.024.025zm1.998 122.577 3.984-.099v-120.31l-3.984-.112zm6.564-122.336 7.984.222v123.754l-6.96.173-.023-.999.023.999-1.024.023zm2 122.123 3.984-.099v-119.856l-3.984-.112zm6.562-121.883 7.982.222v123.3l-6.958.174-.023-.999.023.999-1.024.025zm2 121.67 3.983-.1v-119.401l-3.983-.112zm6.562-121.431 7.982.222v122.847l-6.958.175-.025-.999.025.999-1.024.023zm1.998 121.217 3.984-.099v-118.949l-3.984-.112zm6.562-119.948v-1.029l8.447.234v122.369l-8.447.21zm2 119.734 4.445-.107v-118.474l-4.443-.125zm-1.026-118.735.027-.999z"/><path d="m390.505 95.8-20.438 19.594 1.406 1.438 20.438-19.563z"/><path d="m282.504 95.8-1.344 1.469 21.157 19.563 1.375-1.469z"/><path d="m302.317 205.425-21.157 19.563 1.344 1.469 21.188-19.563z"/><path d="m371.474 205.425-1.406 1.438 20.438 19.594 1.406-1.438z"/><path d="m398.13 103.675-16.844 23.156 1.625 1.188 16.844-23.156z"/><path d="m275.817 102.894-1.719 1.031 15.531 25.219 1.719-1.031z"/><path d="m289.629 193.112-15.531 25.219 1.719 1.031 15.531-25.219z"/><path d="m382.911 194.237-1.625 1.188 16.844 23.156 1.625-1.188z"/><path d="m336.349 112.706c-26.879 0-48.688 21.809-48.688 48.688 0 26.878 21.809 48.688 48.688 48.688 26.877 0 48.688-21.81 48.688-48.688-.001-26.879-21.811-48.688-48.688-48.688zm0 2c25.797 0 46.688 20.89 46.688 46.688 0 25.797-20.891 46.688-46.688 46.688-25.798 0-46.688-20.891-46.688-46.688 0-25.798 20.89-46.688 46.688-46.688z"/><path d="m352.864 207.148-.347-1.938c13.755-5.082 24.455-16.47 28.612-30.646l1.961.283v20.393l-11.911 11.909h-18.315zm4.868-2.001 12.619-.002 10.737-10.737v-13.829c-4.596 10.721-12.923 19.455-23.356 24.568zm-55.143 2.001-13.103-13.109v-19.519l1.962-.274c4.09 14.324 14.843 25.842 28.701 30.963l-.348 1.938h-17.212zm-11.101-13.936 11.934 11.937h11.514c-10.504-5.149-18.873-13.971-23.449-24.794zm-1.962-18.417.961-.274zm-.04-26.505v-19.658-.415l13.104-13.107h18.825l.313 1.95c-14.615 4.81-26.038 16.642-30.281 31.504zm2-5.832c4.747-11.226 13.578-20.294 24.639-25.348h-12.705l-11.934 11.936zm59.452-25.398.313-1.95h19.515v.999l-.708.708.708-.708v-.999h.413l11.909 11.909v20.948l-1.959.28c-4.313-14.714-15.681-26.414-30.191-31.187zm30.152 25.176-.001-14.387-10.737-10.74h-13.809c10.986 5.02 19.777 14.005 24.547 25.127z"/><path d="m534.38 173.206v2h6.5v-2z"/><path d="m547.849 173.206v2h6.5v-2z"/><path d="m561.317 173.206v2h6.5v-2z"/><path d="m574.817 173.206v2h6.531v-2z"/><path d="m588.255 173.206v2h6.531v-2z"/><path d="m588.411 154.987v2h6.375v-2z"/><path d="m574.911 154.987v2h6.5v-2z"/><path d="m561.349 154.987v2h6.594v-2z"/><path d="m547.88 154.987v2h6.563v-2z"/><path d="m534.442 154.987v2h6.469v-2z"/><path d="m526.091 147.933 9.241.405v33.498l-8.196.362-.043-1 .043 1-1.045.045zm2.002 32.219 5.239-.231v-29.668l-5.239-.23zm11.748-31.613 8.964.396v32.303l-7.921.352-.043-.997.043.997-1.043.047zm1.998 31.007 4.966-.22v-28.479l-4.966-.22zm11.473-30.415 8.966.396v31.118l-7.923.352-.043-.999.043.999-1.043.045zm1.998 29.82 4.968-.22v-27.289l-4.968-.22zm11.472-29.223 8.968.395v29.93l-7.923.35-.043-.997.043.997-1.045.047zm2.002 28.628 4.966-.218v-26.102l-4.966-.22zm11.469-28.035 8.968.396v28.739l-7.923.352-.043-.998.043.998-1.045.047zm2.002 27.443 4.966-.22v-24.914l-4.966-.22zm11.472-25.804v-1.045l9.489.418v27.508l-9.489.418zm1.999 25.208 5.488-.24v-23.68l-5.488-.242zm-1.044-24.208.045-1z"/></g></svg>