<svg height="350.26" viewBox="0 0 598.189 350.26" width="598.189" xmlns="http://www.w3.org/2000/svg"><g fill="#f4f4f4"><path d="m63.494 154.659-.255.255s-15.638 15.388-17.58 17.382c-.785.804-1.243 1.449-1.5 1.925-.256.476-.311.905-.311.905l-.028.057v.058 2.095.906h.906 336.109.906v-.906-2.039c-.002-.002-.019.016.113-.226.164-.303.502-.824 1.188-1.529 1.795-1.841 17.552-17.325 17.552-17.325l1.585-1.557h-2.208-336.11-.367zm.764 1.812h333.477c-2.341 2.302-14.228 14.011-15.994 15.825-.784.804-1.216 1.449-1.472 1.925-.257.476-.34.905-.34.905v.057.058 1.188h-334.299v-1.075s-.022.019.142-.283c.164-.303.502-.824 1.189-1.529 1.767-1.814 16.85-16.631 17.297-17.071z"/><path d="m96.841 154.914s-15.638 15.388-17.58 17.382c-.785.804-1.215 1.449-1.472 1.925s-.339.905-.339.905v.057.058 2.095h1.812v-2.039c-.001-.002-.017.016.113-.226.164-.303.501-.824 1.189-1.529 1.792-1.84 17.552-17.325 17.552-17.325z"/><path d="m130.443 154.914s-15.609 15.388-17.551 17.382c-.785.804-1.244 1.449-1.5 1.925-.257.476-.34.905-.34.905v.057.058 2.095h1.813v-1.981s-.051.019.113-.283c.164-.303.501-.824 1.189-1.529 1.792-1.84 17.552-17.325 17.552-17.325z"/><path d="m164.046 154.914s-15.609 15.388-17.551 17.382c-.785.804-1.243 1.449-1.5 1.925s-.34.905-.34.905v.057.058 2.095h1.813v-1.981s-.022.019.141-.283c.164-.303.502-.824 1.189-1.529 1.792-1.84 17.523-17.325 17.523-17.325z"/><path d="m197.677 154.914s-15.638 15.388-17.58 17.382c-.785.804-1.244 1.449-1.5 1.925-.257.476-.312.905-.312.905l-.029.057v.058 2.095h1.812v-1.981s-.022.019.142-.283c.164-.303.501-.824 1.189-1.529 1.792-1.84 17.551-17.325 17.551-17.325z"/><path d="m231.28 154.914s-15.639 15.389-17.58 17.382c-.784.804-1.215 1.449-1.472 1.925s-.339.905-.339.905v.057.058 2.095h1.812v-2.039c-.002-.002-.018.016.113-.226.163-.303.502-.824 1.189-1.529 1.794-1.841 17.551-17.325 17.551-17.325z"/><path d="m264.882 154.914s-15.609 15.388-17.551 17.382c-.785.804-1.243 1.449-1.5 1.925s-.339.905-.339.905v.057.058 2.095h1.812v-2.039c-.002-.002-.018.016.113-.226.164-.303.501-.824 1.189-1.529 1.792-1.84 17.551-17.325 17.551-17.325z"/><path d="m298.484 154.914s-15.609 15.388-17.551 17.382c-.783.804-1.243 1.449-1.5 1.925s-.34.905-.34.905v.057.058 2.095h1.812v-1.981s-.021.019.142-.283c.163-.303.501-.824 1.189-1.529 1.794-1.841 17.522-17.325 17.522-17.325z"/><path d="m332.115 154.914s-15.637 15.388-17.58 17.382c-.783.804-1.243 1.449-1.5 1.925s-.312.905-.312.905l-.028.057v.058 2.095h1.812v-1.981s-.021.019.142-.283c.164-.303.502-.824 1.188-1.529 1.793-1.84 17.523-17.325 17.523-17.325z"/><path d="m365.717 154.914s-15.637 15.388-17.579 17.382c-.784.804-1.214 1.449-1.473 1.925-.256.476-.34.905-.34.905l-.027.057v.058 2.095h1.812v-1.981s-.021.019.142-.283c.164-.303.503-.824 1.189-1.529 1.791-1.84 17.551-17.325 17.551-17.325z"/><path d="m132.454 44.283s-2.852-.229-5.464 2.208c-.007.007-.188.161-.198.169-.283-.681-.678-1.321-1.331-1.783-.545-.385-1.279-.588-2.039-.453-.759.135-1.509.563-2.265 1.274l-.085.084c-.668.626-5.747 5.241-13.022 11.833-7.324 6.637-16.839 15.246-26.271 23.78-18.863 17.068-37.396 33.829-37.396 33.829l-1.755 1.585h2.378 5.832.34l.255-.255s18.606-16.634 37.509-33.546c9.451-8.456 18.989-16.976 26.299-23.524 7.311-6.549 12.33-11.071 12.994-11.691h.029c2.111-1.958 3.991-1.699 3.991-1.699zm-8.72 1.925c.295-.052.463-.012.68.142.367.259.691.997.877 1.67-1.469 1.331-4.915 4.444-11.267 10.135-7.31 6.548-16.848 15.069-26.299 23.525-18.774 16.796-37.005 33.096-37.254 33.319h-3.143c1.593-1.44 17.676-15.991 35.669-32.272 9.431-8.535 18.946-17.142 26.271-23.78 7.325-6.637 12.406-11.259 13.135-11.946.586-.55 1.036-.74 1.331-.793z"/><path d="m140.72 44.283s-2.824-.229-5.435 2.208c-.008.007-.188.161-.199.169-.282-.681-.677-1.321-1.33-1.783-.545-.385-1.308-.588-2.066-.453-.759.135-1.481.563-2.236 1.274-.61.574-5.811 5.281-13.135 11.917-7.325 6.637-16.839 15.246-26.271 23.78-18.863 17.068-37.396 33.829-37.396 33.829l-1.726 1.585h2.349 5.832.34l.254-.255s18.607-16.634 37.51-33.546c9.451-8.456 18.988-16.976 26.299-23.524 7.31-6.549 12.329-11.071 12.994-11.691l.113-.085c2.07-1.859 3.906-1.614 3.906-1.614zm-8.691 1.925c.295-.052.463-.012.679.142.365.258.662 1.001.85 1.67-1.475 1.337-4.923 4.452-11.267 10.135-7.31 6.548-16.82 15.069-26.271 23.525-18.774 16.796-37.005 33.096-37.255 33.319h-3.17c1.593-1.44 17.676-15.991 35.669-32.272 9.431-8.535 18.945-17.142 26.271-23.78 7.324-6.637 12.405-11.259 13.135-11.946.585-.55 1.063-.74 1.359-.793z"/><path d="m149.014 44.283s-2.852-.229-5.463 2.208c-.008.007-.188.161-.198.169-.283-.681-.677-1.321-1.331-1.783-.545-.385-1.279-.588-2.039-.453-.759.135-1.509.563-2.264 1.274-.611.574-5.783 5.281-13.107 11.917-7.324 6.637-16.839 15.246-26.271 23.78-18.862 17.068-37.396 33.829-37.396 33.829l-1.755 1.585h2.35 5.86.34l.255-.255s18.607-16.634 37.509-33.546c9.451-8.456 18.96-16.976 26.271-23.524 7.311-6.549 12.358-11.071 13.022-11.691 2.119-1.978 4.02-1.699 4.02-1.699zm-8.719 1.925c.295-.052.463-.012.68.142.367.259.691.997.877 1.67-1.469 1.331-4.915 4.444-11.267 10.135-7.31 6.548-16.848 15.069-26.299 23.525-18.773 16.796-37.005 33.096-37.254 33.319h-3.142c1.593-1.44 17.676-15.991 35.669-32.272 9.431-8.535 18.946-17.142 26.271-23.78 7.085-6.42 11.731-10.639 12.711-11.55l.424-.396c.584-.55 1.035-.74 1.33-.793z"/><path d="m157.28 44.283s-2.824-.229-5.435 2.208c-.008.007-.188.161-.198.169-.283-.681-.677-1.321-1.331-1.783-.545-.385-1.308-.588-2.066-.453-.759.135-1.509.563-2.265 1.274-.61.574-5.782 5.281-13.107 11.917-7.324 6.637-16.839 15.246-26.27 23.78-18.862 17.068-37.396 33.829-37.396 33.829l-1.727 1.585h2.349 5.832.34l.255-.255s18.607-16.634 37.509-33.546c9.451-8.456 18.989-16.976 26.299-23.524 7.31-6.549 12.329-11.071 12.994-11.691 2.119-1.978 4.02-1.699 4.02-1.699zm-8.718 1.925c.295-.052.491-.012.707.142.373.263.666 1.017.85 1.698-1.481 1.342-4.931 4.43-11.267 10.106-7.31 6.548-16.82 15.069-26.271 23.525-18.774 16.796-37.005 33.096-37.254 33.319h-3.17c1.593-1.44 17.676-15.991 35.669-32.272 9.431-8.535 18.945-17.142 26.271-23.78 7.325-6.637 12.405-11.259 13.135-11.946.583-.549 1.034-.739 1.33-.792z"/><path d="m165.575 44.283s-2.853-.229-5.464 2.208c-.008.007-.188.161-.198.169-.283-.681-.677-1.321-1.331-1.783-.545-.385-1.279-.588-2.038-.453s-1.509.563-2.265 1.274c-.61.574-5.783 5.281-13.107 11.917-7.324 6.637-16.839 15.246-26.271 23.78-18.863 17.068-37.396 33.829-37.396 33.829l-1.755 1.585h2.35 5.832.368l.255-.255s18.607-16.634 37.509-33.546c9.451-8.456 18.96-16.976 26.271-23.524s12.357-11.071 13.021-11.691c2.119-1.978 3.992-1.699 3.992-1.699zm-8.72 1.925c.295-.052.463-.012.68.142.365.258.662 1.001.849 1.67-1.475 1.337-4.922 4.452-11.267 10.135-7.31 6.548-16.82 15.069-26.271 23.525-18.774 16.796-37.005 33.096-37.255 33.319h-3.141c1.594-1.441 17.648-15.991 35.641-32.272 9.432-8.535 18.974-17.142 26.299-23.78 7.086-6.42 11.731-10.639 12.711-11.55l.424-.396c.585-.55 1.035-.74 1.33-.793z"/><path d="m173.841 44.283s-2.823-.229-5.435 2.208c-.009.008-.215.188-.227.198-.283-.691-.669-1.344-1.331-1.812-.545-.385-1.279-.588-2.038-.453s-1.509.563-2.265 1.274c-.61.574-5.782 5.281-13.107 11.917-7.324 6.637-16.839 15.246-26.271 23.78-18.861 17.068-37.396 33.829-37.396 33.829l-1.727 1.585h2.35 5.832.34l.255-.255s18.606-16.634 37.509-33.546c9.452-8.456 18.989-16.976 26.299-23.524 7.31-6.549 12.329-11.071 12.994-11.691 2.119-1.978 4.02-1.699 4.02-1.699zm-8.719 1.925c.295-.052.462-.012.679.142.372.263.694 1.017.877 1.698-1.481 1.342-4.931 4.43-11.267 10.106-7.31 6.548-16.848 15.069-26.299 23.525-18.773 16.796-37.004 33.096-37.254 33.319h-3.142c1.593-1.44 17.676-15.991 35.669-32.272 9.431-8.535 18.945-17.142 26.271-23.78 7.325-6.637 12.405-11.259 13.135-11.946.585-.549 1.035-.739 1.331-.792z"/><path d="m182.107 44.283s-2.824-.229-5.435 2.208c-.008.007-.188.161-.198.169-.283-.681-.678-1.321-1.331-1.783-.545-.385-1.279-.588-2.039-.453-.759.135-1.509.563-2.265 1.274-.61.574-5.811 5.281-13.135 11.917-7.325 6.637-16.839 15.246-26.271 23.78-18.862 17.068-37.368 33.829-37.368 33.829l-1.755 1.585h2.349 5.832.34l.283-.255s18.579-16.634 37.481-33.546c9.451-8.456 18.988-16.976 26.299-23.524s12.358-11.072 13.022-11.691c2.119-1.978 3.992-1.699 3.992-1.699zm-8.691 1.925c.295-.052.463-.012.68.142.364.258.661 1.001.849 1.67-1.475 1.337-4.922 4.452-11.267 10.135-7.31 6.548-16.82 15.069-26.271 23.525-18.774 16.796-37.005 33.096-37.254 33.319h-3.143c1.593-1.441 17.649-15.991 35.641-32.272 9.431-8.535 18.946-17.142 26.271-23.78 7.085-6.42 11.76-10.639 12.739-11.55l.425-.396c.585-.55 1.036-.74 1.33-.793z"/><path d="m190.402 44.283s-2.853-.229-5.464 2.208c-.008.007-.188.161-.198.169-.283-.681-.677-1.321-1.331-1.783-.545-.385-1.279-.588-2.038-.453s-1.509.563-2.265 1.274c-.611.574-5.783 5.281-13.107 11.917-7.324 6.637-16.839 15.246-26.271 23.78-18.861 17.068-37.396 33.829-37.396 33.829l-1.755 1.585h2.378 5.832.339l.255-.255s18.607-16.634 37.509-33.546c9.452-8.456 18.961-16.976 26.271-23.524 7.311-6.549 12.358-11.071 13.022-11.691 2.119-1.978 4.02-1.699 4.02-1.699zm-8.719 1.925c.295-.052.462-.012.679.142.367.259.691.997.877 1.67-1.469 1.331-4.915 4.444-11.267 10.135-7.31 6.548-16.848 15.069-26.299 23.525-18.773 16.796-37.005 33.096-37.254 33.319h-3.142c1.593-1.44 17.676-15.991 35.669-32.272 9.432-8.535 18.946-17.142 26.271-23.78 7.325-6.637 12.405-11.259 13.135-11.946.585-.55 1.035-.74 1.331-.793z"/><path d="m198.611 44.283s-2.853-.229-5.464 2.208c-.008.007-.188.161-.198.169-.283-.681-.677-1.321-1.331-1.783-.545-.385-1.279-.588-2.038-.453s-1.509.563-2.265 1.274c-.61.574-5.811 5.281-13.135 11.917-7.324 6.637-16.811 15.246-26.242 23.78-18.862 17.068-37.396 33.829-37.396 33.829l-1.755 1.585h2.35 5.832.339l.283-.255s18.607-16.634 37.509-33.546c9.451-8.456 18.96-16.976 26.271-23.524 7.311-6.549 12.358-11.072 13.022-11.691 2.118-1.978 3.991-1.699 3.991-1.699zm-8.719 1.925c.296-.052.463-.012.68.142.365.258.662 1.001.85 1.67-1.476 1.337-4.923 4.452-11.267 10.135-7.31 6.548-16.82 15.069-26.271 23.525-18.773 16.796-37.005 33.096-37.254 33.319h-3.142c1.593-1.441 17.648-15.991 35.641-32.272 9.431-8.535 18.946-17.142 26.271-23.78 7.325-6.637 12.434-11.259 13.164-11.946.582-.55 1.032-.74 1.328-.793z"/><path d="m206.877 44.283s-2.852-.229-5.463 2.208c-.008.007-.188.161-.199.169-.283-.681-.677-1.321-1.331-1.783-.545-.385-1.279-.588-2.038-.453s-1.509.563-2.264 1.274c-.611.574-5.783 5.281-13.107 11.917-7.325 6.637-16.839 15.246-26.271 23.78-18.862 17.068-37.396 33.829-37.396 33.829l-1.727 1.585h2.35 5.831.34l.254-.255s18.607-16.634 37.509-33.546c9.451-8.456 18.989-16.976 26.299-23.524s12.33-11.071 12.994-11.691c2.119-1.978 4.02-1.699 4.02-1.699zm-8.719 1.925c.295-.052.462-.012.679.142.367.259.691.997.877 1.67-1.469 1.331-4.915 4.444-11.267 10.135-7.31 6.548-16.848 15.069-26.298 23.525-18.774 16.796-37.005 33.096-37.255 33.319h-3.142c1.593-1.44 17.676-15.991 35.669-32.272 9.431-8.535 18.945-17.142 26.271-23.78 7.325-6.637 12.406-11.259 13.135-11.946.586-.55 1.036-.74 1.331-.793z"/><path d="m215.144 44.283s-2.824-.229-5.436 2.208c-.008.007-.188.161-.198.169-.284-.681-.678-1.321-1.331-1.783-.545-.385-1.308-.588-2.067-.453s-1.48.563-2.236 1.274c-.61.574-5.811 5.281-13.135 11.917-7.324 6.637-16.839 15.246-26.271 23.78-18.862 17.068-37.367 33.829-37.367 33.829l-1.755 1.585h2.35 5.832.339l.255-.255s18.607-16.634 37.509-33.546c9.451-8.456 18.989-16.976 26.299-23.524 7.311-6.549 12.358-11.071 13.022-11.691 2.118-1.978 3.991-1.699 3.991-1.699zm-8.691 1.925c.295-.052.462-.012.679.142.365.258.662 1.001.85 1.67-1.475 1.337-4.923 4.452-11.267 10.135-7.31 6.548-16.82 15.069-26.271 23.525-18.773 16.796-37.005 33.096-37.254 33.319h-3.171c1.593-1.44 17.676-15.991 35.669-32.272 9.431-8.535 18.946-17.142 26.271-23.78 7.085-6.42 11.76-10.639 12.739-11.55l.424-.396c.585-.55 1.035-.74 1.331-.793z"/><path d="m223.438 44.283s-2.852-.229-5.463 2.208c-.008.007-.188.161-.199.169-.283-.681-.677-1.321-1.331-1.783-.545-.385-1.279-.588-2.038-.453s-1.51.563-2.265 1.274c-.61.574-5.783 5.281-13.106 11.917-7.325 6.637-16.839 15.246-26.271 23.78-18.863 17.068-37.396 33.829-37.396 33.829l-1.755 1.585h2.35 5.86.339l.254-.255s18.607-16.634 37.51-33.546c9.451-8.456 18.96-16.976 26.271-23.524 7.31-6.549 12.357-11.071 13.022-11.691 2.119-1.978 4.02-1.699 4.02-1.699zm-8.719 1.925c.295-.052.462-.012.679.142.368.259.691.997.878 1.67-1.47 1.331-4.915 4.444-11.267 10.135-7.31 6.548-16.848 15.069-26.298 23.525-18.774 16.796-37.005 33.096-37.255 33.319h-3.142c1.593-1.44 17.676-15.991 35.669-32.272 9.432-8.535 18.945-17.142 26.271-23.78 7.325-6.637 12.406-11.259 13.135-11.946.584-.55 1.034-.74 1.33-.793z"/><path d="m231.704 44.283s-2.824-.229-5.436 2.208c-.007.007-.188.161-.198.169-.284-.681-.678-1.321-1.331-1.783-.545-.385-1.308-.588-2.067-.453s-1.48.563-2.236 1.274c-.61.574-5.811 5.281-13.135 11.917-7.324 6.637-16.839 15.246-26.271 23.78-18.863 17.068-37.396 33.829-37.396 33.829l-1.727 1.585h2.35 5.832.34l.255-.255s18.606-16.634 37.509-33.546c9.452-8.456 18.989-16.976 26.299-23.524 7.311-6.549 12.33-11.071 12.994-11.691 2.119-1.978 4.02-1.699 4.02-1.699zm-8.691 1.925c.295-.052.463-.012.68.142.365.258.661 1.001.849 1.67-1.475 1.337-4.923 4.452-11.267 10.135-7.31 6.548-16.819 15.069-26.271 23.525-18.774 16.796-37.004 33.096-37.254 33.319h-3.171c1.593-1.44 17.676-15.991 35.669-32.272 9.431-8.535 18.946-17.142 26.271-23.78 7.325-6.637 12.406-11.259 13.135-11.946.585-.55 1.064-.74 1.359-.793z"/><path d="m239.999 44.283s-2.852-.229-5.463 2.208c-.008.007-.188.161-.198.169-.283-.681-.678-1.321-1.331-1.783-.545-.385-1.279-.588-2.038-.453s-1.509.563-2.265 1.274c-.609.574-5.782 5.281-13.106 11.917-7.325 6.637-16.839 15.246-26.271 23.78-18.863 17.068-37.396 33.829-37.396 33.829l-1.755 1.585h2.35 5.832.368l.254-.255s18.607-16.634 37.51-33.546c9.451-8.456 18.96-16.976 26.271-23.524 7.31-6.549 12.357-11.071 13.022-11.691 2.118-1.978 4.02-1.699 4.02-1.699zm-8.719 1.925c.295-.052.462-.012.679.142.367.259.691.997.877 1.67-1.469 1.331-4.916 4.444-11.267 10.135-7.31 6.548-16.849 15.069-26.299 23.525-18.773 16.796-37.004 33.096-37.254 33.319h-3.143c1.593-1.44 17.677-15.991 35.669-32.272 9.431-8.535 18.945-17.142 26.271-23.78 7.324-6.637 12.405-11.259 13.135-11.946.586-.55 1.036-.74 1.332-.793z"/><path d="m248.265 44.283s-2.824-.229-5.435 2.208c-.009.008-.215.188-.227.198-.283-.691-.669-1.344-1.331-1.812-.545-.385-1.279-.588-2.038-.453s-1.509.563-2.265 1.274c-.611.574-5.783 5.281-13.107 11.917-7.324 6.637-16.839 15.246-26.271 23.78-18.862 17.068-37.396 33.829-37.396 33.829l-1.727 1.585h2.35 5.832.339l.255-.255s18.607-16.634 37.509-33.546c9.452-8.456 18.989-16.976 26.299-23.524 7.311-6.549 12.33-11.071 12.994-11.691 2.119-1.978 4.02-1.699 4.02-1.699zm-8.72 1.925c.295-.052.462-.012.68.142.373.263.694 1.017.877 1.698-1.482 1.342-4.931 4.43-11.267 10.106-7.31 6.548-16.849 15.069-26.299 23.525-18.773 16.796-37.005 33.096-37.255 33.319h-3.142c1.593-1.44 17.676-15.991 35.669-32.272 9.432-8.535 18.946-17.142 26.271-23.78 7.325-6.637 12.406-11.259 13.135-11.946.586-.549 1.036-.739 1.331-.792z"/><path d="m256.531 44.283s-2.824-.229-5.435 2.208c-.008.007-.188.161-.198.169-.283-.681-.678-1.321-1.331-1.783-.545-.385-1.279-.588-2.038-.453s-1.509.563-2.265 1.274c-.61.574-5.811 5.281-13.135 11.917-7.325 6.637-16.84 15.246-26.271 23.78-18.862 17.068-37.368 33.829-37.368 33.829l-1.755 1.585h2.35 5.832.34l.283-.255s18.579-16.634 37.481-33.546c9.451-8.456 18.988-16.976 26.299-23.524 7.31-6.549 12.357-11.071 13.022-11.691 2.118-1.978 3.992-1.699 3.992-1.699zm-8.691 1.925c.295-.052.462-.012.679.142.365.258.662 1.001.849 1.67-1.475 1.337-4.922 4.452-11.267 10.135-7.31 6.548-16.82 15.069-26.271 23.525-18.773 16.796-37.004 33.096-37.254 33.319h-3.142c1.593-1.441 17.647-15.991 35.641-32.272 9.431-8.535 18.945-17.142 26.271-23.78 7.085-6.42 11.759-10.639 12.739-11.55l.425-.396c.584-.55 1.035-.74 1.33-.793z"/><path d="m264.91 44.283s-2.853-.229-5.464 2.208c-.007.007-.188.161-.198.169-.283-.681-.677-1.321-1.331-1.783-.545-.385-1.279-.588-2.038-.453s-1.509.563-2.265 1.274c-.61.574-5.782 5.281-13.106 11.917-7.325 6.637-16.839 15.246-26.271 23.78-18.863 17.068-37.396 33.829-37.396 33.829l-1.755 1.585h2.35 5.832.369l.254-.255s18.607-16.634 37.509-33.546c9.451-8.456 18.96-16.976 26.27-23.524 7.311-6.549 12.358-11.072 13.022-11.691 2.118-1.978 4.02-1.699 4.02-1.699zm-8.719 1.925c.295-.052.462-.012.679.142.367.259.691.997.877 1.67-1.47 1.332-4.915 4.444-11.267 10.135-7.31 6.548-16.848 15.069-26.299 23.525-18.773 16.796-37.004 33.096-37.254 33.319h-3.142c1.592-1.44 17.676-15.991 35.669-32.272 9.431-8.535 18.945-17.142 26.271-23.78 7.085-6.42 11.731-10.639 12.71-11.55l.425-.396c.585-.55 1.036-.74 1.331-.793z"/><path d="m273.176 44.283s-2.824-.229-5.435 2.208c-.009.008-.215.188-.227.198-.283-.69-.67-1.345-1.33-1.812-.546-.385-1.28-.588-2.039-.453s-1.509.563-2.265 1.274c-.61.574-5.783 5.281-13.107 11.917-7.325 6.637-16.839 15.246-26.271 23.78-18.862 17.068-37.396 33.829-37.396 33.829l-1.726 1.585h2.35 5.832.339l.255-.255s18.607-16.634 37.509-33.546c9.451-8.456 18.989-16.976 26.299-23.524 7.311-6.549 12.329-11.071 12.994-11.691 2.119-1.978 4.02-1.699 4.02-1.699zm-8.718 1.925c.295-.052.491-.012.708.142.372.263.665 1.017.85 1.698-1.481 1.341-4.931 4.43-11.267 10.106-7.31 6.548-16.849 15.069-26.299 23.525-18.774 16.796-36.977 33.096-37.227 33.319h-3.17c1.593-1.44 17.677-15.991 35.669-32.272 9.431-8.535 18.946-17.142 26.271-23.78 7.325-6.637 12.405-11.259 13.135-11.946.584-.549 1.034-.739 1.33-.792z"/><path d="m281.471 44.283s-2.851-.229-5.463 2.208c-.008.007-.188.161-.198.169-.284-.681-.677-1.321-1.331-1.783-.545-.385-1.279-.588-2.038-.453s-1.509.563-2.265 1.274c-.611.574-5.783 5.281-13.107 11.917-7.324 6.637-16.839 15.246-26.271 23.78-18.862 17.068-37.396 33.829-37.396 33.829l-1.755 1.585h2.35 5.832.339l.283-.255s18.607-16.634 37.509-33.546c9.452-8.456 18.96-16.976 26.271-23.524 7.311-6.549 12.358-11.072 13.022-11.691 2.12-1.979 3.991-1.699 3.991-1.699zm-8.719 1.925c.295-.052.462-.012.679.142.365.258.662 1.001.85 1.67-1.476 1.337-4.923 4.452-11.267 10.135-7.31 6.548-16.82 15.069-26.271 23.525-18.773 16.796-37.004 33.096-37.254 33.319h-3.142c1.593-1.441 17.647-15.991 35.641-32.272 9.431-8.535 18.946-17.142 26.271-23.78 7.085-6.42 11.76-10.639 12.739-11.55l.425-.396c.583-.55 1.033-.74 1.329-.793z"/><path d="m289.736 44.283s-2.851-.229-5.463 2.208c-.008.007-.188.161-.198.169-.283-.681-.677-1.321-1.33-1.783-.546-.385-1.28-.588-2.039-.453s-1.509.563-2.265 1.274c-.61.574-5.783 5.281-13.107 11.917-7.325 6.637-16.839 15.246-26.271 23.78-18.863 17.068-37.396 33.829-37.396 33.829l-1.727 1.585h2.349 5.832.339l.255-.255s18.607-16.634 37.509-33.546c9.451-8.456 18.988-16.976 26.299-23.524s12.329-11.071 12.994-11.691c2.119-1.978 4.02-1.699 4.02-1.699zm-8.718 1.925c.295-.053.462-.012.679.142.367.259.691.997.877 1.67-1.468 1.331-4.915 4.444-11.267 10.135-7.31 6.548-16.849 15.069-26.299 23.525-18.774 16.796-37.005 33.096-37.254 33.319h-3.142c1.593-1.44 17.676-15.991 35.669-32.272 9.431-8.535 18.946-17.142 26.271-23.78 7.325-6.637 12.405-11.259 13.135-11.946.585-.55 1.036-.74 1.331-.793z"/><path d="m298.003 44.283s-2.822-.229-5.436 2.208c-.007.007-.188.161-.198.169-.283-.681-.677-1.321-1.331-1.783-.545-.385-1.307-.588-2.066-.453s-1.481.563-2.236 1.274c-.61.574-5.811 5.281-13.135 11.917-7.324 6.637-16.839 15.246-26.271 23.78-18.862 17.068-37.368 33.829-37.368 33.829l-1.755 1.585h2.35 5.832.339l.255-.255s18.607-16.634 37.509-33.546c9.451-8.456 18.988-16.976 26.299-23.524 7.31-6.549 12.358-11.072 13.021-11.691 2.12-1.979 3.992-1.699 3.992-1.699zm-8.691 1.925c.296-.052.464-.012.68.142.366.258.662 1.001.85 1.67-1.476 1.337-4.922 4.452-11.267 10.135-7.31 6.548-16.82 15.069-26.271 23.525-18.773 16.796-37.005 33.096-37.254 33.319h-3.142c1.593-1.441 17.648-15.991 35.641-32.272 9.431-8.535 18.946-17.142 26.271-23.78 7.085-6.42 11.759-10.639 12.739-11.55l.425-.396c.582-.55 1.033-.74 1.328-.793z"/><path d="m306.297 44.283s-2.813-.223-5.406 2.151l-.057.057c-.007.007-.188.161-.198.169-.283-.681-.677-1.321-1.331-1.783-.545-.385-1.278-.588-2.038-.453-.759.135-1.508.563-2.264 1.274-.61.574-5.783 5.281-13.107 11.917-7.325 6.637-16.839 15.246-26.271 23.78-18.863 17.068-37.396 33.829-37.396 33.829l-1.755 1.585h2.349 5.86.34l.255-.255s18.607-16.634 37.509-33.546c9.451-8.456 18.96-16.976 26.271-23.524 7.31-6.549 12.358-11.071 13.021-11.691 2.12-1.978 4.02-1.699 4.02-1.699zm-8.719 1.925c.295-.053.463-.012.68.142.368.259.691.997.877 1.67-1.468 1.331-4.915 4.444-11.266 10.135-7.31 6.548-16.848 15.069-26.299 23.525-18.773 16.796-37.005 33.096-37.254 33.319h-3.142c1.593-1.44 17.676-15.991 35.669-32.272 9.431-8.535 18.945-17.142 26.271-23.78 7.325-6.637 12.406-11.259 13.135-11.946.584-.55 1.034-.74 1.329-.793z"/><path d="m314.563 44.283s-2.824-.229-5.435 2.208c-.008.007-.188.161-.199.169-.283-.681-.677-1.321-1.33-1.783-.545-.385-1.308-.588-2.066-.453-.76.135-1.481.563-2.236 1.274-.61.574-5.811 5.281-13.136 11.917-7.324 6.637-16.839 15.246-26.27 23.78-18.862 17.068-37.396 33.829-37.396 33.829l-1.727 1.585h2.35 5.832.339l.255-.255s18.607-16.634 37.509-33.546c9.451-8.456 18.989-16.976 26.298-23.524 7.311-6.549 12.33-11.071 12.994-11.691 2.119-1.978 4.02-1.699 4.02-1.699zm-8.69 1.925c.295-.052.463-.012.679.142.366.258.662 1.001.85 1.67-1.474 1.336-4.922 4.452-11.267 10.135-7.309 6.548-16.819 15.069-26.27 23.525-18.773 16.796-37.005 33.096-37.254 33.319h-3.17c1.593-1.44 17.676-15.991 35.669-32.272 9.431-8.535 18.946-17.142 26.27-23.78 7.325-6.637 12.406-11.259 13.135-11.946.585-.55 1.062-.74 1.358-.793z"/><path d="m322.858 44.283s-2.853-.229-5.465 2.208c-.006.007-.188.161-.197.169-.283-.681-.678-1.321-1.331-1.783-.544-.385-1.279-.588-2.038-.453s-1.509.563-2.265 1.274c-.61.574-5.782 5.281-13.106 11.917-7.324 6.637-16.839 15.246-26.271 23.78-18.862 17.068-37.396 33.829-37.396 33.829l-1.755 1.585h2.35 5.832.368l.255-.255s18.607-16.634 37.509-33.546c9.451-8.456 18.96-16.976 26.271-23.524 7.311-6.549 12.358-11.071 13.021-11.691 2.12-1.978 4.021-1.699 4.021-1.699zm-8.719 1.925c.296-.052.464-.012.68.142.368.259.692.997.878 1.67-1.469 1.331-4.915 4.444-11.268 10.135-7.309 6.548-16.848 15.069-26.298 23.525-18.774 16.796-37.005 33.096-37.255 33.319h-3.142c1.593-1.44 17.676-15.991 35.669-32.272 9.432-8.535 18.945-17.142 26.27-23.78 7.086-6.42 11.732-10.639 12.711-11.55l.425-.396c.585-.55 1.035-.74 1.33-.793z"/><path d="m331.039 44.283s-2.824-.229-5.436 2.208c-.007.007-.188.161-.198.169-.283-.681-.677-1.321-1.33-1.783-.545-.385-1.308-.588-2.066-.453s-1.481.563-2.237 1.274c-.609.574-5.81 5.281-13.135 11.917-7.324 6.637-16.838 15.246-26.27 23.78-18.862 17.068-37.396 33.829-37.396 33.829l-1.727 1.585h2.35 5.832.34l.254-.255s18.607-16.634 37.51-33.546c9.451-8.456 18.989-16.976 26.298-23.524 7.312-6.549 12.33-11.071 12.994-11.691 2.119-1.978 4.02-1.699 4.02-1.699zm-8.69 1.925c.295-.052.463-.012.679.142.366.258.662 1.001.85 1.67-1.476 1.337-4.923 4.452-11.268 10.135-7.308 6.548-16.818 15.069-26.269 23.525-18.774 16.796-37.005 33.096-37.255 33.319h-3.17c1.593-1.44 17.676-15.991 35.669-32.272 9.432-8.535 18.945-17.142 26.269-23.78 7.325-6.637 12.407-11.259 13.136-11.946.585-.55 1.063-.74 1.359-.793z"/><path d="m339.334 44.283s-2.853-.229-5.464 2.208c-.007.007-.188.161-.198.169-.283-.681-.677-1.321-1.331-1.783-.544-.385-1.279-.588-2.037-.453-.76.135-1.51.563-2.266 1.274-.609.574-5.781 5.281-13.106 11.917-7.323 6.637-16.838 15.246-26.271 23.78-18.862 17.068-37.396 33.829-37.396 33.829l-1.755 1.585h2.35 5.832.368l.255-.255s18.607-16.634 37.508-33.546c9.452-8.456 18.96-16.976 26.271-23.524s12.358-11.072 13.022-11.691c2.117-1.978 4.019-1.699 4.019-1.699zm-8.719 1.925c.295-.052.463-.012.679.142.368.259.692.997.878 1.67-1.469 1.332-4.916 4.444-11.268 10.135-7.309 6.548-16.847 15.069-26.299 23.525-18.772 16.796-37.004 33.096-37.254 33.319h-3.142c1.593-1.44 17.676-15.991 35.668-32.272 9.432-8.535 18.945-17.142 26.271-23.78 7.087-6.42 11.732-10.639 12.711-11.55l.425-.396c.585-.55 1.035-.74 1.331-.793z"/><path d="m347.601 44.283s-2.822-.229-5.437 2.208c-.008.008-.214.188-.226.198-.283-.69-.669-1.345-1.331-1.812-.544-.385-1.279-.588-2.038-.453s-1.51.563-2.265 1.274c-.61.574-5.782 5.281-13.106 11.917-7.323 6.637-16.839 15.246-26.271 23.78-18.861 17.068-37.395 33.829-37.395 33.829l-1.727 1.585h2.35 5.832.339l.255-.255s18.607-16.634 37.508-33.546c9.452-8.456 18.99-16.976 26.299-23.524 7.311-6.549 12.331-11.072 12.993-11.691 2.121-1.979 4.021-1.699 4.021-1.699zm-8.721 1.925c.296-.053.493-.012.709.142.371.263.664 1.017.85 1.698-1.481 1.342-4.932 4.43-11.268 10.106-7.309 6.548-16.848 15.069-26.299 23.525-18.773 16.796-36.977 33.096-37.226 33.319h-3.17c1.593-1.44 17.676-15.991 35.668-32.272 9.432-8.535 18.945-17.142 26.271-23.78 7.325-6.637 12.406-11.259 13.135-11.946.586-.549 1.035-.739 1.33-.792z"/><path d="m355.894 44.283s-2.851-.229-5.463 2.208c-.008.007-.188.161-.198.169-.283-.681-.678-1.321-1.33-1.783-.546-.385-1.279-.588-2.039-.453-.759.135-1.509.563-2.265 1.274-.61.574-5.782 5.281-13.106 11.917-7.325 6.637-16.839 15.246-26.271 23.78-18.862 17.068-37.396 33.829-37.396 33.829l-1.755 1.585h2.35 5.832.339l.283-.255s18.607-16.634 37.509-33.546c9.451-8.456 18.959-16.976 26.271-23.524 7.311-6.549 12.358-11.072 13.021-11.691 2.12-1.979 3.992-1.699 3.992-1.699zm-8.719 1.925c.296-.052.464-.012.68.142.364.258.661 1.001.849 1.67-1.476 1.337-4.921 4.452-11.267 10.135-7.309 6.548-16.819 15.069-26.27 23.525-18.773 16.796-37.005 33.096-37.255 33.319h-3.142c1.593-1.441 17.648-15.991 35.641-32.272 9.432-8.535 18.974-17.142 26.299-23.78 7.085-6.42 11.732-10.639 12.71-11.55l.425-.396c.586-.55 1.035-.74 1.33-.793z"/><path d="m364.16 44.283s-2.853-.229-5.463 2.208c-.008.007-.188.161-.198.169-.283-.681-.678-1.321-1.33-1.783-.546-.385-1.28-.588-2.039-.453s-1.509.563-2.265 1.274c-.61.575-5.782 5.281-13.107 11.917-7.325 6.637-16.838 15.246-26.271 23.78-18.862 17.068-37.395 33.829-37.395 33.829l-1.727 1.585h2.35 5.832.34l.254-.255s18.607-16.634 37.508-33.546c9.452-8.456 18.99-16.976 26.299-23.524 7.312-6.549 12.331-11.071 12.994-11.691 2.119-1.978 4.02-1.699 4.02-1.699zm-8.719 1.925c.295-.052.464-.012.679.142.368.259.692.997.878 1.67-1.469 1.331-4.915 4.444-11.267 10.135-7.309 6.548-16.848 15.069-26.299 23.525-18.773 16.796-37.004 33.096-37.254 33.319h-3.142c1.593-1.44 17.676-15.991 35.667-32.272 9.434-8.535 18.947-17.142 26.271-23.78 7.324-6.637 12.406-11.26 13.135-11.946.587-.55 1.037-.74 1.332-.793z"/><path d="m372.427 44.283s-2.822-.229-5.436 2.208c-.007.007-.188.161-.198.169-.283-.681-.677-1.321-1.331-1.783-.544-.385-1.279-.588-2.037-.453-.76.135-1.51.563-2.265 1.274-.611.574-5.811 5.281-13.136 11.917-7.323 6.637-16.839 15.246-26.271 23.78-18.861 17.068-37.367 33.829-37.367 33.829l-1.755 1.585h2.35 5.831.339l.255-.255s18.607-16.634 37.509-33.546c9.452-8.456 18.988-16.976 26.299-23.524s12.358-11.072 13.022-11.691c2.119-1.979 3.991-1.699 3.991-1.699zm-8.692 1.925c.296-.052.464-.012.68.142.366.258.662 1.001.85 1.67-1.476 1.337-4.923 4.452-11.268 10.135-7.309 6.548-16.818 15.069-26.271 23.525-18.773 16.796-37.005 33.096-37.254 33.319h-3.142c1.593-1.441 17.649-15.991 35.64-32.272 9.433-8.535 18.946-17.142 26.271-23.78 7.086-6.42 11.761-10.639 12.739-11.55l.425-.396c.585-.55 1.035-.74 1.33-.793z"/><path d="m380.722 44.283s-2.853-.229-5.465 2.208c-.007.007-.188.161-.197.169-.283-.681-.678-1.321-1.331-1.783-.544-.385-1.279-.588-2.038-.453-.76.135-1.51.563-2.265 1.274-.608.574-5.782 5.281-13.106 11.917-7.323 6.637-16.839 15.246-26.271 23.78-18.863 17.068-37.396 33.829-37.396 33.829l-1.755 1.585h2.35 5.86.339l.255-.255s18.607-16.634 37.51-33.546c9.45-8.456 18.959-16.976 26.271-23.524 7.311-6.549 12.357-11.072 13.021-11.691 2.118-1.978 4.021-1.699 4.021-1.699zm-8.72 1.925c.296-.053.463-.012.679.142.369.259.692.997.879 1.67-1.47 1.332-4.915 4.444-11.268 10.135-7.31 6.548-16.848 15.069-26.299 23.525-18.774 16.796-37.005 33.096-37.254 33.319h-3.142c1.593-1.44 17.677-15.991 35.669-32.272 9.432-8.535 18.945-17.142 26.271-23.78 7.325-6.637 12.406-11.259 13.136-11.946.584-.55 1.034-.74 1.329-.793z"/><path d="m388.987 44.283s-2.822-.229-5.436 2.208c-.007.007-.188.161-.198.169-.283-.681-.678-1.321-1.33-1.783-.545-.385-1.308-.588-2.066-.453-.76.135-1.481.563-2.237 1.274-.61.574-5.81 5.281-13.135 11.917-7.322 6.637-16.838 15.246-26.271 23.78-18.862 17.068-37.396 33.829-37.396 33.829l-1.727 1.585h2.349 5.832.34l.255-.255s18.607-16.634 37.509-33.546c9.451-8.456 18.988-16.976 26.3-23.524 7.311-6.549 12.329-11.072 12.993-11.691 2.119-1.979 4.019-1.699 4.019-1.699zm-8.691 1.925c.296-.053.464-.012.68.142.365.258.662 1.001.85 1.67-1.476 1.337-4.922 4.452-11.268 10.135-7.309 6.548-16.818 15.069-26.271 23.525-18.771 16.796-37.004 33.096-37.254 33.319h-3.171c1.594-1.44 17.678-15.991 35.67-32.272 9.432-8.535 18.945-17.142 26.27-23.78 7.325-6.637 12.407-11.259 13.135-11.946.586-.55 1.064-.74 1.359-.793z"/><path d="m397.026 44.283s-2.824-.229-5.435 2.208c-.008.007-.188.161-.198.169-.283-.681-.678-1.321-1.33-1.783-.546-.385-1.309-.588-2.067-.453s-1.48.563-2.236 1.274c-.61.575-5.811 5.281-13.136 11.917-7.324 6.637-16.838 15.246-26.271 23.78-18.862 17.068-37.367 33.829-37.367 33.829l-1.755 1.585h2.35 5.832.34l.255-.255s18.607-16.634 37.508-33.546c9.452-8.456 18.99-16.976 26.299-23.524 7.312-6.549 12.331-11.071 12.994-11.691 2.119-1.978 4.02-1.699 4.02-1.699zm-8.69 1.925c.296-.052.464-.012.68.142.364.258.661 1.001.849 1.67-1.476 1.337-4.922 4.452-11.267 10.135-7.309 6.548-16.819 15.069-26.271 23.525-18.773 16.796-37.004 33.096-37.254 33.319h-3.171c1.594-1.44 17.678-15.991 35.669-32.272 9.433-8.535 18.946-17.142 26.271-23.78 7.325-6.637 12.435-11.26 13.163-11.946.587-.55 1.035-.74 1.331-.793z"/><path d="m405.321 44.283s-2.853-.229-5.463 2.208c-.008.007-.188.161-.199.169-.282-.681-.678-1.321-1.33-1.783-.545-.385-1.279-.588-2.038-.453s-1.509.563-2.265 1.274c-.611.574-5.782 5.281-13.107 11.917-7.325 6.637-16.838 15.246-26.271 23.78-18.862 17.068-37.396 33.829-37.396 33.829l-1.755 1.585h2.35 5.831.368l.255-.255s18.607-16.634 37.509-33.546c9.452-8.456 18.96-16.976 26.271-23.524s12.358-11.072 13.022-11.691c2.117-1.978 4.02-1.699 4.02-1.699zm-8.718 1.925c.295-.052.464-.012.679.142.368.259.692.997.878 1.67-1.469 1.332-4.915 4.444-11.267 10.135-7.31 6.548-16.848 15.069-26.299 23.525-18.774 16.796-37.006 33.096-37.255 33.319h-3.142c1.594-1.44 17.677-15.991 35.668-32.272 9.434-8.535 18.946-17.142 26.271-23.78 7.087-6.42 11.732-10.639 12.712-11.55l.424-.396c.584-.55 1.035-.74 1.331-.793z"/><path d="m413.587 44.283s-2.823-.229-5.436 2.208c-.006.007-.188.161-.197.169-.283-.681-.678-1.321-1.331-1.783-.544-.385-1.307-.588-2.066-.453-.752.134-1.487.575-2.236 1.274-.007.006-.021-.007-.028 0-.621.584-5.79 5.289-13.106 11.917-7.325 6.637-16.839 15.246-26.271 23.78-18.862 17.068-37.396 33.829-37.396 33.829l-1.728 1.585h2.35 5.832.339l.255-.255s18.607-16.634 37.51-33.546c9.452-8.456 18.988-16.976 26.299-23.524s12.33-11.072 12.993-11.691c2.118-1.978 4.021-1.699 4.021-1.699zm-8.719 1.925c.296-.052.492-.012.708.142.371.263.665 1.017.849 1.698-1.48 1.342-4.931 4.43-11.267 10.106-7.31 6.548-16.818 15.069-26.271 23.525-18.773 16.796-37.005 33.096-37.254 33.319h-3.171c1.594-1.44 17.677-15.991 35.669-32.272 9.432-8.535 18.945-17.142 26.271-23.78 7.325-6.637 12.406-11.26 13.136-11.946.585-.549 1.035-.739 1.33-.792z"/><path d="m421.882 44.283s-2.852-.229-5.464 2.208c-.007.007-.188.161-.198.169-.283-.681-.678-1.321-1.33-1.783-.545-.385-1.279-.588-2.038-.453-.76.135-1.51.563-2.265 1.274-.61.574-5.782 5.281-13.106 11.917-7.325 6.637-16.839 15.246-26.271 23.78-18.863 17.068-37.396 33.829-37.396 33.829l-1.756 1.585h2.35 5.832.368l.255-.255s18.607-16.634 37.51-33.546c9.45-8.456 18.959-16.976 26.271-23.524 7.311-6.549 12.357-11.072 13.021-11.691 2.118-1.978 4.021-1.699 4.021-1.699zm-8.719 1.925c.296-.052.463-.012.679.142.367.258.662 1.001.85 1.67-1.476 1.337-4.922 4.452-11.267 10.135-7.31 6.548-16.819 15.069-26.271 23.525-18.773 16.796-37.004 33.096-37.253 33.319h-3.144c1.595-1.44 17.678-15.991 35.67-32.272 9.432-8.535 18.945-17.142 26.271-23.78 7.086-6.42 11.731-10.639 12.71-11.55l.426-.396c.584-.55 1.034-.74 1.329-.793z"/><path d="m430.148 44.283s-2.824-.229-5.436 2.208c-.009.008-.214.188-.227.198-.283-.691-.669-1.344-1.33-1.812-.546-.385-1.28-.588-2.038-.453-.76.135-1.51.563-2.266 1.274-.609.574-5.782 5.281-13.106 11.917-7.325 6.637-16.838 15.246-26.271 23.78-18.862 17.068-37.396 33.829-37.396 33.829l-1.727 1.585h2.35 5.832.34l.255-.255s18.607-16.634 37.509-33.546c9.451-8.456 18.987-16.976 26.298-23.524 7.312-6.549 12.331-11.072 12.995-11.691 2.117-1.978 4.019-1.699 4.019-1.699zm-8.719 1.925c.295-.052.464-.012.68.142.373.263.695 1.017.878 1.698-1.481 1.342-4.931 4.43-11.268 10.106-7.309 6.548-16.847 15.069-26.299 23.525-18.774 16.796-37.005 33.096-37.255 33.319h-3.142c1.595-1.44 17.678-15.991 35.669-32.272 9.433-8.535 18.946-17.142 26.271-23.78 7.325-6.637 12.407-11.259 13.136-11.946.586-.549 1.034-.739 1.33-.792z"/><path d="m438.414 44.283s-2.822-.229-5.435 2.208c-.007.007-.188.161-.198.169-.283-.681-.679-1.321-1.331-1.783-.545-.385-1.279-.588-2.039-.453-.758.135-1.508.563-2.264 1.274-.611.574-5.811 5.281-13.136 11.917-7.324 6.637-16.838 15.246-26.271 23.78-18.862 17.068-37.367 33.829-37.367 33.829l-1.755 1.585h2.35 5.831.34l.283-.255s18.579-16.634 37.48-33.546c9.452-8.456 18.988-16.976 26.299-23.524s12.359-11.072 13.022-11.691c2.119-1.979 3.991-1.699 3.991-1.699zm-8.69 1.925c.295-.053.464-.012.68.142.364.258.661 1.001.85 1.67-1.477 1.337-4.923 4.452-11.268 10.135-7.309 6.548-16.818 15.069-26.271 23.525-18.772 16.796-37.005 33.096-37.255 33.319h-3.142c1.594-1.441 17.648-15.991 35.641-32.272 9.433-8.535 18.945-17.142 26.271-23.78 7.325-6.637 12.434-11.259 13.163-11.946.586-.55 1.035-.74 1.331-.793z"/><path d="m446.708 44.283s-2.85-.229-5.463 2.208c-.008.007-.188.161-.199.169-.281-.681-.677-1.321-1.329-1.783-.546-.385-1.279-.588-2.039-.453-.759.135-1.509.563-2.264 1.274-.611.574-5.782 5.281-13.107 11.917-7.325 6.637-16.839 15.246-26.271 23.78-18.862 17.068-37.396 33.829-37.396 33.829l-1.754 1.585h2.378 5.831.339l.255-.255s18.608-16.634 37.51-33.546c9.451-8.456 18.959-16.976 26.271-23.524 7.311-6.549 12.358-11.072 13.021-11.691 2.12-1.979 4.021-1.699 4.021-1.699zm-8.719 1.925c.296-.052.464-.012.68.142.368.259.691.997.877 1.67-1.468 1.332-4.914 4.444-11.266 10.135-7.311 6.548-16.848 15.069-26.299 23.525-18.774 16.796-37.005 33.096-37.255 33.319h-3.143c1.594-1.44 17.677-15.991 35.67-32.272 9.432-8.535 18.945-17.142 26.271-23.78 7.325-6.637 12.405-11.259 13.135-11.946.586-.55 1.035-.74 1.33-.793z"/><path d="m454.975 44.283s-2.823-.229-5.436 2.208c-.007.007-.188.161-.198.169-.283-.681-.677-1.321-1.33-1.783-.545-.385-1.307-.588-2.066-.453s-1.481.563-2.236 1.274c-.61.575-5.811 5.281-13.136 11.917-7.324 6.637-16.838 15.246-26.271 23.78-18.861 17.068-37.367 33.829-37.367 33.829l-1.756 1.585h2.351 5.832.339l.255-.255s18.608-16.634 37.509-33.546c9.452-8.456 18.99-16.976 26.299-23.524 7.312-6.549 12.33-11.071 12.994-11.691 2.119-1.978 4.02-1.699 4.02-1.699zm-8.691 1.925c.296-.052.463-.012.679.142.367.258.662 1.001.85 1.67-1.476 1.337-4.922 4.452-11.267 10.135-7.31 6.548-16.819 15.069-26.271 23.525-18.772 16.796-37.004 33.096-37.253 33.319h-3.171c1.592-1.44 17.677-15.991 35.668-32.272 9.433-8.535 18.946-17.142 26.271-23.78 7.324-6.637 12.435-11.26 13.164-11.946.585-.55 1.035-.74 1.33-.793z"/><path d="m463.185 44.283s-2.853-.229-5.464 2.208c-.007.007-.188.161-.198.169-.282-.681-.678-1.321-1.33-1.783-.545-.385-1.279-.588-2.039-.453-.758.135-1.508.563-2.264 1.274-.611.574-5.782 5.281-13.107 11.917-7.325 6.637-16.839 15.246-26.271 23.78-18.862 17.068-37.396 33.829-37.396 33.829l-1.755 1.585h2.378 5.831.339l.255-.255s18.608-16.634 37.51-33.546c9.452-8.456 18.988-16.976 26.299-23.524s12.33-11.072 12.993-11.691c2.119-1.978 4.021-1.699 4.021-1.699zm-8.719 1.925c.295-.052.464-.012.68.142.367.259.691.997.877 1.67-1.469 1.332-4.915 4.444-11.267 10.135-7.31 6.548-16.848 15.069-26.299 23.525-18.774 16.796-37.005 33.096-37.255 33.319h-3.143c1.595-1.44 17.677-15.991 35.67-32.272 9.432-8.535 18.945-17.142 26.27-23.78 7.325-6.637 12.406-11.259 13.136-11.946.585-.55 1.035-.74 1.331-.793z"/><path d="m471.45 44.283s-2.823-.229-5.436 2.208c-.007.007-.188.161-.197.169-.283-.681-.678-1.321-1.331-1.783-.544-.385-1.307-.588-2.066-.453s-1.481.563-2.236 1.274c-.61.575-5.811 5.281-13.135 11.917-7.325 6.637-16.839 15.246-26.271 23.78-18.862 17.068-37.367 33.829-37.367 33.829l-1.756 1.585h2.35 5.832.339l.255-.255s18.607-16.634 37.51-33.546c9.451-8.456 18.988-16.976 26.299-23.524s12.357-11.072 13.021-11.691c2.118-1.978 3.992-1.699 3.992-1.699zm-8.69 1.925c.296-.052.463-.012.679.142.365.258.662 1.001.85 1.67-1.475 1.337-4.922 4.452-11.266 10.135-7.311 6.548-16.82 15.069-26.271 23.525-18.773 16.796-37.005 33.096-37.254 33.319h-3.171c1.592-1.44 17.677-15.991 35.669-32.272 9.432-8.535 18.945-17.142 26.271-23.78 7.325-6.637 12.435-11.26 13.164-11.946.584-.55 1.034-.74 1.329-.793z"/><path d="m479.745 44.283s-2.853-.229-5.464 2.208c-.007.007-.188.161-.198.169-.283-.681-.678-1.321-1.33-1.783-.545-.385-1.279-.588-2.038-.453-.76.135-1.51.563-2.266 1.274-.609.574-5.781 5.281-13.106 11.917-7.324 6.637-16.838 15.246-26.271 23.78-18.862 17.068-37.396 33.829-37.396 33.829l-1.755 1.585h2.35 5.86.34l.255-.255s18.607-16.634 37.509-33.546c9.451-8.456 18.96-16.976 26.271-23.524 7.312-6.549 12.358-11.072 13.022-11.691 2.117-1.978 4.021-1.699 4.021-1.699zm-8.719 1.925c.295-.052.463-.012.679.142.368.259.692.997.878 1.67-1.469 1.332-4.915 4.444-11.268 10.135-7.309 6.548-16.847 15.069-26.299 23.525-18.773 16.796-37.004 33.096-37.254 33.319h-3.142c1.594-1.44 17.677-15.991 35.669-32.272 9.432-8.535 18.945-17.142 26.27-23.78 7.087-6.42 11.732-10.639 12.711-11.55l.426-.396c.585-.55 1.034-.74 1.33-.793z"/><path d="m488.012 44.283s-2.824-.229-5.436 2.208c-.007.007-.188.161-.198.169-.283-.681-.678-1.321-1.33-1.783-.546-.385-1.309-.588-2.066-.453-.76.135-1.481.563-2.237 1.274-.609.575-5.811 5.281-13.135 11.917-7.325 6.637-16.839 15.246-26.271 23.78-18.862 17.068-37.396 33.829-37.396 33.829l-1.727 1.585h2.35 5.832.34l.254-.255s18.607-16.634 37.51-33.546c9.451-8.456 18.987-16.976 26.298-23.524s12.331-11.072 12.995-11.691c2.117-1.978 4.019-1.699 4.019-1.699zm-8.692 1.925c.295-.052.464-.012.68.142.364.258.661 1.001.85 1.67-1.477 1.337-4.923 4.452-11.268 10.135-7.309 6.548-16.818 15.069-26.271 23.525-18.774 16.796-37.005 33.096-37.255 33.319h-3.17c1.593-1.44 17.677-15.991 35.669-32.272 9.433-8.535 18.945-17.142 26.271-23.78 7.325-6.637 12.407-11.26 13.136-11.946.585-.55 1.062-.74 1.358-.793z"/><path d="m496.306 44.283s-2.852-.229-5.464 2.208c-.007.007-.188.161-.197.169-.283-.681-.679-1.321-1.331-1.783-.545-.385-1.279-.588-2.039-.453-.758.135-1.508.563-2.264 1.274-.611.575-5.782 5.281-13.107 11.917-7.325 6.637-16.839 15.246-26.271 23.78-18.862 17.068-37.396 33.829-37.396 33.829l-1.755 1.585h2.35 5.831.367l.256-.255s18.607-16.634 37.509-33.546c9.452-8.456 18.96-16.976 26.271-23.524s12.359-11.071 13.021-11.691c2.12-1.978 4.021-1.699 4.021-1.699zm-8.72 1.925c.296-.052.465-.012.681.142.367.259.691.997.877 1.67-1.469 1.331-4.915 4.444-11.267 10.135-7.309 6.548-16.847 15.069-26.299 23.525-18.774 16.796-37.005 33.096-37.255 33.319h-3.143c1.594-1.44 17.678-15.991 35.67-32.272 9.432-8.535 18.945-17.142 26.271-23.78 7.325-6.637 12.405-11.26 13.135-11.946.586-.55 1.035-.74 1.33-.793z"/><path d="m504.571 44.283s-2.823-.229-5.435 2.208c-.01.008-.214.188-.228.198-.282-.691-.668-1.344-1.329-1.812-.546-.385-1.279-.588-2.039-.453-.759.135-1.509.563-2.265 1.274-.61.574-5.782 5.281-13.107 11.917-7.324 6.637-16.838 15.246-26.27 23.78-18.862 17.068-37.396 33.829-37.396 33.829l-1.727 1.585h2.35 5.832.339l.255-.255s18.608-16.634 37.51-33.546c9.451-8.456 18.987-16.976 26.299-23.524 7.311-6.549 12.329-11.072 12.993-11.691 2.118-1.978 4.021-1.699 4.021-1.699zm-8.718 1.925c.296-.052.464-.012.68.142.373.263.695 1.017.877 1.698-1.48 1.342-4.931 4.43-11.266 10.106-7.31 6.548-16.849 15.069-26.299 23.525-18.774 16.796-37.005 33.096-37.255 33.319h-3.143c1.594-1.44 17.677-15.991 35.67-32.272 9.432-8.535 18.945-17.142 26.271-23.78 7.324-6.637 12.405-11.259 13.135-11.946.585-.549 1.035-.739 1.33-.792z"/><path d="m512.838 44.283s-2.824-.229-5.435 2.208c-.008.007-.188.161-.199.169-.283-.681-.677-1.321-1.33-1.783-.545-.385-1.279-.588-2.038-.453-.76.135-1.51.563-2.266 1.274-.609.575-5.81 5.281-13.135 11.917-7.325 6.637-16.838 15.246-26.271 23.78-18.862 17.068-37.367 33.829-37.367 33.829l-1.756 1.585h2.351 5.832.339l.283-.255s18.58-16.634 37.48-33.546c9.452-8.456 18.988-16.976 26.299-23.524s12.358-11.072 13.022-11.691c2.117-1.978 3.991-1.699 3.991-1.699zm-8.691 1.925c.295-.052.463-.012.679.142.364.258.662 1.001.85 1.67-1.476 1.337-4.923 4.452-11.267 10.135-7.31 6.548-16.819 15.069-26.271 23.525-18.773 16.796-37.004 33.096-37.254 33.319h-3.142c1.594-1.441 17.648-15.991 35.64-32.272 9.433-8.535 18.945-17.142 26.271-23.78 7.325-6.637 12.436-11.26 13.164-11.946.585-.55 1.035-.74 1.33-.793z"/><path d="m521.133 44.283s-2.853-.229-5.464 2.208c-.007.007-.188.161-.198.169-.283-.681-.677-1.321-1.331-1.783-.544-.385-1.279-.588-2.037-.453-.76.135-1.51.563-2.266 1.274-.609.574-5.781 5.281-13.106 11.917-7.325 6.637-16.839 15.246-26.271 23.78-18.863 17.068-37.396 33.829-37.396 33.829l-1.756 1.585h2.378 5.831.341l.254-.255s18.607-16.634 37.51-33.546c9.451-8.456 18.96-16.976 26.271-23.524s12.358-11.072 13.022-11.691c2.117-1.978 4.02-1.699 4.02-1.699zm-8.72 1.925c.296-.052.464-.012.68.142.368.259.692.997.878 1.67-1.469 1.332-4.915 4.444-11.268 10.135-7.309 6.548-16.847 15.069-26.299 23.525-18.774 16.796-37.005 33.096-37.254 33.319h-3.142c1.594-1.44 17.676-15.991 35.668-32.272 9.432-8.535 18.945-17.142 26.271-23.78 7.325-6.637 12.406-11.259 13.136-11.946.585-.55 1.035-.74 1.33-.793z"/><path d="m529.483 44.283s-2.823-.229-5.436 2.208c-.009.008-.214.188-.226.198-.283-.69-.67-1.345-1.331-1.812-.545-.385-1.279-.588-2.039-.453-.758.135-1.508.563-2.264 1.274-.609.574-5.782 5.281-13.107 11.917-7.323 6.637-16.839 15.246-26.271 23.78-18.862 17.068-37.396 33.829-37.396 33.829l-1.727 1.585h2.35 5.831.341l.254-.255s18.607-16.634 37.509-33.546c9.452-8.456 18.99-16.976 26.299-23.524 7.311-6.549 12.331-11.071 12.994-11.691 2.12-1.978 4.02-1.699 4.02-1.699zm-8.718 1.925c.295-.053.492-.012.708.142.371.263.665 1.017.849 1.698-1.48 1.342-4.932 4.43-11.267 10.106-7.309 6.548-16.848 15.069-26.299 23.525-18.774 16.796-36.977 33.096-37.227 33.319h-3.17c1.595-1.44 17.677-15.991 35.669-32.272 9.432-8.535 18.945-17.142 26.271-23.78 7.325-6.637 12.406-11.259 13.135-11.946.586-.549 1.035-.739 1.331-.792z"/><path d="m537.749 44.283s-2.823-.229-5.435 2.208c-.007.007-.188.161-.198.169-.283-.681-.678-1.321-1.331-1.783-.544-.385-1.278-.588-2.038-.453-.758.135-1.51.563-2.264 1.274-.611.574-5.811 5.281-13.136 11.917-7.325 6.637-16.811 15.246-26.242 23.78-18.862 17.068-37.396 33.829-37.396 33.829l-1.756 1.585h2.35 5.832.339l.283-.255s18.608-16.634 37.51-33.546c9.452-8.456 18.962-16.976 26.271-23.524 7.311-6.549 12.358-11.071 13.021-11.691 2.12-1.978 3.992-1.699 3.992-1.699zm-8.69 1.925c.296-.052.464-.012.68.142.364.258.661 1.001.849 1.67-1.475 1.337-4.921 4.452-11.266 10.135-7.31 6.548-16.82 15.069-26.271 23.525-18.774 16.796-37.006 33.096-37.255 33.319h-3.143c1.594-1.441 17.649-15.991 35.641-32.272 9.433-8.535 18.946-17.142 26.271-23.78 7.324-6.637 12.434-11.259 13.163-11.946l.113-.085c.511-.445.949-.66 1.218-.708z"/><path d="m121.696 44.17c-1.52-.02-3.448.028-5.549.028h-80.34c-.653 0-1.337.009-2.01.396-.672.387-1.104 1.225-1.104 2.18 0-.031-.026.424-.057 1.047-.03.623-.084 1.484-.142 2.576-.115 2.184-.256 5.24-.453 8.861-.395 7.241-.946 16.779-1.472 26.299-.525 9.52-1.05 19.009-1.443 26.186-.198 3.588-.338 6.611-.453 8.748-.058 1.068-.11 1.922-.142 2.519-.016.299-.021.511-.029.68-.007.169-.028.219-.028.34 0 .308-.106 1.116.142 1.953.124.418.357.859.792 1.189s1.028.51 1.67.51h526.315c2.113 0 3.117-.104 3.879-.708.38-.302.596-.82.622-1.161.028-.34-.028-.546-.028-.623 0-.158.012-.166 0-.34-.008-.174-.037-.425-.056-.736-.04-.623-.098-1.514-.171-2.633-.143-2.239-.348-5.376-.594-9.144-.492-7.535-1.125-17.535-1.783-27.488-1.313-19.907-2.633-39.717-2.633-39.717l-.057-.85h-.85-9.682-.113c-.172-.013-2.82-.151-5.35 2.208-.008.007-.188.161-.199.169-.283-.681-.677-1.321-1.33-1.783-.545-.385-1.279-.588-2.038-.453s-1.51.563-2.265 1.274c-.61.575-5.782 5.281-13.107 11.917-7.324 6.637-16.838 15.246-26.27 23.78-18.862 17.068-37.396 33.829-37.396 33.829l-1.727 1.585h2.349 5.832.34l.255-.255s18.608-16.634 37.51-33.546c9.451-8.456 18.989-16.976 26.299-23.524 7.311-6.549 12.329-11.071 12.993-11.691 2.119-1.978 4.021-1.699 4.021-1.699h.057.027 8.946c.055.82 1.29 19.415 2.575 38.896.656 9.953 1.292 19.925 1.783 27.459.246 3.767.452 6.906.595 9.144.073 1.118.131 2.013.17 2.633.02.31.048.566.057.736.011.169 0 .338 0 .227 0 .223.022.299.028.368-.045.018-.76.312-2.689.312h-526.313c-.357 0-.498-.09-.566-.142s-.123-.095-.169-.255c-.095-.32-.057-.91-.057-1.444 0 .068.021-.062.028-.227.008-.165.013-.41.029-.708.03-.595.055-1.452.113-2.52.115-2.135.284-5.131.481-8.719.394-7.176.918-16.694 1.443-26.214.526-9.52 1.05-19.057 1.444-26.299.197-3.621.367-6.646.481-8.832.057-1.093.11-1.978.142-2.605.031-.626.057-.93.057-1.132 0-.557.066-.547.198-.623.131-.076.535-.142 1.104-.142h80.34c2.118 0 4.073-.048 5.549-.028.737.009 1.362.044 1.812.084.45.041.773.174.623.085l.906-1.557c-.486-.286-.851-.292-1.387-.339-.537-.044-1.195-.07-1.955-.081zm415.629 2.038c.295-.052.463-.012.679.142.368.259.692.997.878 1.67-1.469 1.331-4.915 4.444-11.268 10.135-7.309 6.548-16.847 15.069-26.298 23.525-18.773 16.796-37.005 33.096-37.254 33.319h-3.143c1.594-1.44 17.677-15.991 35.669-32.272 9.432-8.535 18.945-17.142 26.27-23.78 7.325-6.637 12.407-11.26 13.137-11.946.585-.55 1.035-.74 1.33-.793z"/><path d="m28.164 130.597v.906 46.03.906h.906 531.695.906v-.906-46.03-.906h-.906-531.695zm1.812 1.811h529.883v44.219h-529.883z"/><path d="m28.164 179.005v.905 132.146.906h.906 531.695.906v-.906-132.146-.905h-.906-531.695zm1.812 1.811h529.883v130.334h-529.883z"/><path d="m29.353 126.605v4.727h1.812v-4.727z"/><path d="m29.353 177.392v2.519h1.812v-2.519z"/><path d="m558.585 126.69v4.728h1.812v-4.728z"/><path d="m558.585 177.476v2.521h1.812v-2.521z"/><path d="m441.698 140.363-.255.283-11.975 11.975-1.558 1.557h2.181 105.449.396l.283-.311 10.813-11.975 1.359-1.529h-2.038-104.258zm.764 1.812h101.883l-9.228 10.191h-102.846z"/><path d="m44.385 189.733c-.665 0-1.217.554-1.217 1.218v20.1c0 .662.555 1.217 1.217 1.217h20.099c.665 0 1.217-.553 1.217-1.217v-20.1c0-.663-.555-1.218-1.217-1.218zm.594 1.812h18.91v18.911h-18.91z"/><path d="m66.069 189.733c-.664 0-1.217.554-1.217 1.218v20.1c0 .662.555 1.217 1.217 1.217h20.1c.664 0 1.246-.553 1.246-1.217v-20.1c0-.663-.584-1.218-1.246-1.218zm.595 1.812h18.938v18.911h-18.938z"/><path d="m87.782 189.733c-.664 0-1.246.554-1.246 1.218v20.1c0 .662.584 1.217 1.246 1.217h20.099c.665 0 1.217-.553 1.217-1.217v-20.1c0-.663-.555-1.218-1.217-1.218zm.567 1.812h18.938v18.911h-18.938z"/><path d="m109.467 189.733c-.665 0-1.217.554-1.217 1.218v20.1c0 .662.555 1.217 1.217 1.217h20.099c.665 0 1.217-.553 1.217-1.217v-20.1c0-.663-.556-1.218-1.217-1.218zm.595 1.812h18.91v18.911h-18.91z"/><path d="m131.151 189.733c-.664 0-1.217.554-1.217 1.218v20.1c0 .662.556 1.217 1.217 1.217h20.1c.664 0 1.217-.553 1.217-1.217v-20.1c0-.663-.556-1.218-1.217-1.218zm.595 1.812h18.911v18.911h-18.911z"/><path d="m152.864 189.733c-.663 0-1.246.554-1.246 1.218v20.1c0 .665.584 1.217 1.246 1.217h20.099c.665 0 1.217-.553 1.217-1.217v-20.1c0-.663-.555-1.218-1.217-1.218zm.566 1.812h18.938v18.911h-18.938z"/><path d="m174.549 189.733c-.665 0-1.217.554-1.217 1.218v20.1c0 .662.555 1.217 1.217 1.217h20.099c.665 0 1.217-.553 1.217-1.217v-20.1c0-.663-.556-1.218-1.217-1.218zm.595 1.812h18.91v18.911h-18.91z"/><path d="m196.233 189.733c-.664 0-1.217.554-1.217 1.218v20.1c0 .662.555 1.217 1.217 1.217h20.099c.664 0 1.217-.553 1.217-1.217v-20.1c0-.663-.556-1.218-1.217-1.218zm.595 1.812h18.911v18.911h-18.911z"/><path d="m217.917 189.733c-.663 0-1.217.554-1.217 1.218v20.1c0 .665.556 1.217 1.217 1.217h20.128c.663 0 1.217-.553 1.217-1.217v-20.1c0-.663-.557-1.218-1.217-1.218zm.595 1.812h18.938v18.911h-18.938z"/><path d="m239.631 189.733c-.665 0-1.218.554-1.218 1.218v20.1c0 .662.556 1.217 1.218 1.217h20.099c.663 0 1.218-.553 1.218-1.217v-20.1c0-.666-.556-1.218-1.218-1.218zm.594 1.812h18.91v18.911h-18.91z"/><path d="m261.315 189.733c-.663 0-1.217.554-1.217 1.218v20.1c0 .665.555 1.217 1.217 1.217h20.1c.663 0 1.217-.553 1.217-1.217v-20.1c0-.666-.556-1.218-1.217-1.218zm.595 1.812h18.91v18.911h-18.91z"/><path d="m283 189.733c-.664 0-1.217.554-1.217 1.218v20.1c0 .665.555 1.217 1.217 1.217h20.098c.664 0 1.246-.556 1.246-1.217v-20.1c0-.663-.584-1.218-1.246-1.218zm.594 1.812h18.938v18.911h-18.938z"/><path d="m304.712 189.733c-.662 0-1.245.554-1.245 1.218v20.1c0 .665.583 1.217 1.245 1.217h20.099c.664 0 1.218-.556 1.218-1.217v-20.1c0-.663-.556-1.218-1.218-1.218zm.566 1.812h18.938v18.911h-18.938z"/><path d="m76.374 211.334c-.664 0-1.217.553-1.217 1.217v20.1c0 .662.555 1.217 1.217 1.217h20.099c.663 0 1.246-.556 1.246-1.217v-.906h-.029v-19.193c0-.66-.558-1.217-1.217-1.217h-20.099zm.594 1.812h18.911v18.91h-18.911z"/><path d="m44.527 211.334c-.665 0-1.217.553-1.217 1.217v20.1c0 .662.555 1.217 1.217 1.217h30.205c.665 0 1.217-.553 1.217-1.217v-20.1c0-.662-.555-1.217-1.217-1.217zm.594 1.812h29.017v18.91h-29.017z"/><path d="m98.087 211.334c-.663 0-1.246.556-1.246 1.217v20.1c0 .659.585 1.217 1.246 1.217h20.099c.665 0 1.217-.553 1.217-1.217v-20.1c0-.662-.556-1.217-1.217-1.217zm.566 1.812h18.938v18.91h-18.938z"/><path d="m119.771 211.334c-.665 0-1.217.553-1.217 1.217v20.1c0 .662.556 1.217 1.217 1.217h20.099c.665 0 1.218-.553 1.218-1.217v-20.1c0-.662-.556-1.217-1.218-1.217zm.595 1.812h18.91v18.91h-18.91z"/><path d="m141.456 211.334c-.665 0-1.217.553-1.217 1.217v20.1c0 .662.556 1.217 1.217 1.217h20.1c.664 0 1.217-.553 1.217-1.217v-20.1c0-.662-.556-1.217-1.217-1.217zm.594 1.812h18.91v18.91h-18.91z"/><path d="m163.14 211.334c-.664 0-1.217.553-1.217 1.217v20.1c0 .662.556 1.217 1.217 1.217h20.127c.665 0 1.217-.553 1.217-1.217v-20.1c0-.662-.555-1.217-1.217-1.217zm.595 1.812h18.938v18.91h-18.938z"/><path d="m184.853 211.334c-.663 0-1.217.553-1.217 1.217v20.1c0 .662.557 1.217 1.217 1.217h20.099c.665 0 1.218-.553 1.218-1.217v-20.1c0-.662-.556-1.217-1.218-1.217zm.595 1.812h18.91v18.91h-18.91z"/><path d="m206.538 211.334c-.665 0-1.217.553-1.217 1.217v20.1c0 .662.556 1.217 1.217 1.217h20.1c.279 0 .528-.147.736-.312h.481v-.905-20.1c0-.662-.556-1.217-1.217-1.217zm.594 1.812h18.911v18.599.312h-18.911z"/><path d="m228.222 211.334c-.665 0-1.217.553-1.217 1.217v20.1c0 .662.556 1.217 1.217 1.217h20.099c.663 0 1.246-.553 1.246-1.217v-20.1c0-.666-.583-1.217-1.246-1.217zm.594 1.812h18.938v18.91h-18.938z"/><path d="m249.935 211.334c-.665 0-1.246.553-1.246 1.217v20.1c0 .662.584 1.217 1.246 1.217h20.099c.665 0 1.217-.553 1.217-1.217v-20.1c0-.666-.554-1.217-1.217-1.217zm.566 1.812h18.938v18.91h-18.938z"/><path d="m271.62 211.334c-.664 0-1.217.553-1.217 1.217v20.1c0 .666.555 1.217 1.217 1.217h20.099c.664 0 1.217-.553 1.217-1.217v-20.1c0-.666-.556-1.217-1.217-1.217zm.594 1.812h18.91v18.91h-18.91z"/><path d="m293.303 211.334c-.662 0-1.217.556-1.217 1.217v20.1c0 .662.556 1.217 1.217 1.217h20.099c.664 0 1.246-.556 1.246-1.217v-20.1c0-.662-.584-1.217-1.246-1.217zm.595 1.812h18.939v18.91h-18.939z"/><path d="m81.838 232.905c-.665 0-1.218.552-1.218 1.217v20.099c0 .663.556 1.218 1.218 1.218h20.099c.664 0 1.246-.556 1.246-1.218v-.905-19.193c0-.66-.586-1.217-1.246-1.217h-20.099zm.594 1.812h18.938v18.91h-18.938z"/><path d="m44.64 232.905c-.664 0-1.217.552-1.217 1.217v20.099c0 .663.556 1.218 1.217 1.218h35.556c.664 0 1.217-.553 1.217-1.218v-20.099c0-.663-.556-1.217-1.217-1.217zm.594 1.812h34.367v18.91h-34.367z"/><path d="m103.55 232.905c-.664 0-1.246.552-1.246 1.217v20.099c0 .663.584 1.218 1.246 1.218h20.1c.664 0 1.217-.553 1.217-1.218v-20.099c0-.663-.556-1.217-1.217-1.217zm.567 1.812h18.938v18.91h-18.938z"/><path d="m125.235 232.905c-.665 0-1.217.552-1.217 1.217v20.099c0 .663.556 1.218 1.217 1.218h20.099c.664 0 1.217-.553 1.217-1.218v-20.099c0-.663-.555-1.217-1.217-1.217zm.594 1.812h18.911v18.91h-18.911z"/><path d="m146.919 232.905c-.665 0-1.217.552-1.217 1.217v20.099c0 .663.556 1.218 1.217 1.218h20.099c.665 0 1.246-.553 1.246-1.218v-20.099c0-.663-.584-1.217-1.246-1.217zm.595 1.812h18.938v18.91h-18.938z"/><path d="m168.632 232.905c-.665 0-1.246.552-1.246 1.217v20.099c0 .663.583 1.218 1.246 1.218h20.099c.664 0 1.217-.553 1.217-1.218v-20.099c0-.663-.556-1.217-1.217-1.217zm.566 1.812h18.939v18.91h-18.939z"/><path d="m190.316 232.905c-.663 0-1.217.552-1.217 1.217v20.099c0 .663.558 1.218 1.217 1.218h20.1c.663 0 1.217-.553 1.217-1.218v-20.099c0-.666-.556-1.217-1.217-1.217zm.595 1.812h18.91v18.91h-18.91z"/><path d="m212.001 232.905c-.665 0-1.217.552-1.217 1.217v20.099c0 .663.555 1.218 1.217 1.218h20.099c.665 0 1.217-.553 1.217-1.218v-20.099c0-.663-.555-1.217-1.217-1.217zm.595 1.812h18.91v18.91h-18.91z"/><path d="m233.686 232.905c-.665 0-1.217.552-1.217 1.217v20.099c0 .663.555 1.218 1.217 1.218h20.128c.663 0 1.217-.553 1.217-1.218v-20.099c0-.666-.556-1.217-1.217-1.217zm.594 1.812h18.938v18.91h-18.938z"/><path d="m255.398 232.905c-.664 0-1.217.552-1.217 1.217v20.099c0 .663.556 1.218 1.217 1.218h20.099c.664 0 1.217-.553 1.217-1.218v-20.099c0-.666-.555-1.217-1.217-1.217zm.595 1.812h18.911v18.91h-18.911z"/><path d="m277.083 232.905c-.664 0-1.218.552-1.218 1.217v20.099c0 .667.556 1.218 1.218 1.218h20.098c.664 0 1.217-.556 1.217-1.218v-20.099c0-.663-.555-1.217-1.217-1.217zm.595 1.812h18.91v18.91h-18.91z"/><path d="m92.991 254.476c-.663 0-1.217.584-1.217 1.246v20.1c0 .66.557 1.217 1.217 1.217h20.1c.278 0 .501-.15.708-.312h.509v-.905-20.1c0-.663-.555-1.246-1.217-1.246zm.594 1.812h18.911v18.627.312h-18.911z"/><path d="m44.527 254.476c-.665 0-1.217.582-1.217 1.246v20.1c0 .662.555 1.217 1.217 1.217h46.907c.665 0 1.217-.554 1.217-1.217v-.906-19.193c0-.663-.555-1.246-1.217-1.246h-46.907zm.594 1.812h45.719v18.938h-45.719z"/><path d="m114.676 254.476c-.665 0-1.218.582-1.218 1.246v20.1c0 .662.556 1.217 1.218 1.217h20.099c.665 0 1.246-.554 1.246-1.217v-20.1c0-.663-.584-1.246-1.246-1.246zm.595 1.812h18.938v18.938h-18.938z"/><path d="m136.36 254.476c-.665 0-1.217.582-1.217 1.246v20.1c0 .662.556 1.217 1.217 1.217h20.127c.664 0 1.217-.554 1.217-1.217v-20.1c0-.663-.556-1.246-1.217-1.246zm.595 1.812h18.939v18.938h-18.939z"/><path d="m158.073 254.476c-.663 0-1.217.584-1.217 1.246v20.1c0 .662.556 1.217 1.217 1.217h20.1c.665 0 1.217-.554 1.217-1.217v-20.1c0-.663-.556-1.246-1.217-1.246zm.594 1.812h18.91v18.938h-18.91z"/><path d="m179.758 254.476c-.664 0-1.218.582-1.218 1.246v20.1c0 .665.556 1.217 1.218 1.217h20.099c.665 0 1.217-.554 1.217-1.217v-20.1c0-.663-.555-1.246-1.217-1.246zm.594 1.812h18.91v18.938h-18.91z"/><path d="m201.442 254.476c-.665 0-1.217.582-1.217 1.246v20.1c0 .662.555 1.217 1.217 1.217h20.128c.664 0 1.217-.554 1.217-1.217v-20.1c0-.663-.556-1.246-1.217-1.246zm.595 1.812h18.938v18.938h-18.938z"/><path d="m223.155 254.476c-.663 0-1.217.584-1.217 1.246v20.1c0 .662.556 1.217 1.217 1.217h20.099c.665 0 1.217-.554 1.217-1.217v-20.1c0-.663-.555-1.246-1.217-1.246zm.594 1.812h18.911v18.938h-18.911z"/><path d="m244.839 254.476c-.665 0-1.217.582-1.217 1.246v20.1c0 .662.556 1.217 1.217 1.217h20.099c.663 0 1.217-.554 1.217-1.217v-20.1c0-.666-.556-1.246-1.217-1.246zm.595 1.812h18.91v18.938h-18.91z"/><path d="m69.042 276.104c-.665 0-1.217.553-1.217 1.217v20.1c0 .664.553 1.217 1.217 1.217h31.14c.668 0 1.217-.551 1.217-1.217v-20.1c0-.662-.556-1.217-1.217-1.217zm.594 1.812h29.951v18.91h-29.951z"/><path d="m299.249 276.104c-.663 0-1.217.556-1.217 1.217v20.1c0 .664.554 1.217 1.217 1.217h31.139c.668 0 1.218-.551 1.218-1.217v-20.1c0-.666-.556-1.217-1.218-1.217zm.594 1.812h29.951v18.91h-29.951z"/><path d="m101.823 276.104c-.664 0-1.217.553-1.217 1.217v20.1c0 .664.553 1.217 1.217 1.217h195.783c.278 0 .5-.149.708-.312h.51v-.905-20.1c0-.662-.556-1.217-1.217-1.217zm.595 1.812h194.594v18.599.312h-194.594z"/><path d="m288.236 254.476c-.664 0-1.245.582-1.245 1.246v20.1c0 .665.583 1.217 1.245 1.217h20.099c.666 0 1.218-.554 1.218-1.217v-20.1c0-.666-.554-1.246-1.218-1.246zm.567 1.812h18.938v18.938h-18.938z"/><path d="m309.978 254.476c-.663 0-1.218.582-1.218 1.246v20.1c0 .665.555 1.217 1.218 1.217h31.14c.665 0 1.217-.554 1.217-1.217v-20.1c0-.666-.553-1.246-1.217-1.246zm.593 1.812h29.951v18.938h-29.951z"/><path d="m266.496 254.476c-.665 0-1.217.582-1.217 1.246v20.1c0 .665.554 1.217 1.217 1.217h20.127c.663 0 1.217-.554 1.217-1.217v-20.1c0-.666-.556-1.246-1.217-1.246zm.594 1.812h18.938v18.938h-18.938z"/><path d="m298.767 232.905c-.664 0-1.217.552-1.217 1.217v20.099c0 .667.555 1.218 1.217 1.218h20.099c.664 0 1.245-.556 1.245-1.218v-20.099c0-.663-.583-1.217-1.245-1.217zm.595 1.812h18.938v18.91h-18.938z"/><path d="m358.442 232.905c-.662 0-1.246.555-1.246 1.217v20.099c0 .663.584 1.218 1.246 1.218h20.099c.664 0 1.218-.556 1.218-1.218v-20.099c0-.663-.556-1.217-1.218-1.217zm.567 1.812h18.938v18.91h-18.938z"/><path d="m336.757 211.334c-.661 0-1.217.556-1.217 1.217v20.1c0 .175.011.148 0 .255h-14.805c-.662 0-1.219.552-1.219 1.217v20.099c0 .667.557 1.218 1.219 1.218h36.206c.31 0 .575-.116.792-.312h.426v-.906-41.67c0-.666-.556-1.217-1.218-1.217h-20.184zm.595 1.812h18.996v40.17.312h-35.019v-18.91h14.692c.209 0 .494-.054.735-.227.242-.173.381-.417.454-.623.146-.41.141-.745.141-1.217v-19.505z"/><path d="m315.016 211.334c-.661 0-1.245.556-1.245 1.217v20.1c0 .662.584 1.217 1.245 1.217h20.101c.662 0 1.217-.556 1.217-1.217v-20.1c0-.662-.556-1.217-1.217-1.217zm.566 1.812h18.939v18.91h-18.939z"/><path d="m358.414 211.334c-.664 0-1.218.553-1.218 1.217v20.1c0 .666.554 1.217 1.218 1.217h20.099c.664 0 1.218-.556 1.218-1.217v-20.1c0-.662-.556-1.217-1.218-1.217zm.595 1.812h18.909v18.91h-18.909z"/><path d="m388.704 211.334c-.664 0-1.246.553-1.246 1.217v20.1c0 .666.582 1.217 1.246 1.217h20.1c.663 0 1.218-.553 1.218-1.217v-20.1c0-.666-.557-1.217-1.218-1.217zm.567 1.812h18.938v18.91h-18.938z"/><path d="m410.644 211.334c-.664 0-1.217.556-1.217 1.217v20.1c0 .662.555 1.217 1.217 1.217h20.099c.664 0 1.246-.553 1.246-1.217v-20.1c0-.666-.584-1.217-1.246-1.217zm.594 1.812h18.938v18.91h-18.938z"/><path d="m432.61 211.334c-.662 0-1.217.556-1.217 1.217v20.1c0 .662.556 1.217 1.217 1.217h20.101c.662 0 1.217-.556 1.217-1.217v-20.1c0-.662-.557-1.217-1.217-1.217zm.595 1.812h18.911v18.91h-18.911z"/><path d="m388.704 232.989c-.664 0-1.246.582-1.246 1.246v20.1c0 .665.582 1.217 1.246 1.217h20.1c.663 0 1.218-.554 1.218-1.217v-20.1c0-.666-.557-1.246-1.218-1.246zm.567 1.812h18.938v18.939h-18.938z"/><path d="m410.644 232.989c-.664 0-1.217.584-1.217 1.246v20.1c0 .662.555 1.217 1.217 1.217h20.099c.664 0 1.246-.554 1.246-1.217v-20.1c0-.666-.584-1.246-1.246-1.246zm.594 1.812h18.938v18.939h-18.938z"/><path d="m432.61 232.989c-.662 0-1.217.584-1.217 1.246v20.1c0 .662.556 1.217 1.217 1.217h20.101c.662 0 1.217-.556 1.217-1.217v-20.1c0-.662-.557-1.246-1.217-1.246zm.595 1.812h18.911v18.939h-18.911z"/><path d="m461.854 211.334c-.663 0-1.217.553-1.217 1.217v20.1c0 .666.555 1.217 1.217 1.217h20.099c.664 0 1.219-.553 1.219-1.217v-20.1c0-.666-.557-1.217-1.219-1.217zm.594 1.812h18.91v18.91h-18.91z"/><path d="m483.821 211.334c-.661 0-1.217.556-1.217 1.217v20.1c0 .662.557 1.217 1.217 1.217h20.1c.663 0 1.217-.553 1.217-1.217v-20.1c0-.666-.556-1.217-1.217-1.217zm.595 1.812h18.91v18.91h-18.91z"/><path d="m505.761 211.334c-.662 0-1.218.556-1.218 1.217v20.1c0 .662.558 1.217 1.218 1.217h20.1c.663 0 1.245-.553 1.245-1.217v-20.1c0-.666-.584-1.217-1.245-1.217zm.593 1.812h18.939v18.91h-18.939z"/><path d="m527.53 211.334c-.664 0-1.218.553-1.218 1.217v20.1c0 .666.556 1.217 1.218 1.217h20.1c.663 0 1.217-.553 1.217-1.217v-20.1c0-.666-.556-1.217-1.217-1.217zm.594 1.812h18.91v18.91h-18.91z"/><path d="m461.854 189.564c-.665 0-1.217.553-1.217 1.217v20.1c0 .664.555 1.217 1.217 1.217h20.099c.664 0 1.219-.555 1.219-1.217v-20.1c0-.666-.553-1.217-1.219-1.217zm.594 1.812h18.91v18.91h-18.91z"/><path d="m483.821 189.564c-.663 0-1.217.556-1.217 1.217v20.1c0 .66.557 1.217 1.217 1.217h20.1c.663 0 1.217-.555 1.217-1.217v-20.1c0-.666-.552-1.217-1.217-1.217zm.595 1.812h18.91v18.91h-18.91z"/><path d="m505.761 189.564c-.664 0-1.218.556-1.218 1.217v20.1c0 .66.558 1.217 1.218 1.217h20.1c.663 0 1.245-.555 1.245-1.217v-20.1c0-.666-.58-1.217-1.245-1.217zm.593 1.812h18.939v18.91h-18.939z"/><path d="m527.53 189.564c-.666 0-1.218.553-1.218 1.217v20.1c0 .664.556 1.217 1.218 1.217h20.1c.663 0 1.217-.555 1.217-1.217v-20.1c0-.666-.552-1.217-1.217-1.217zm.594 1.812h18.91v18.91h-18.91z"/><path d="m461.854 232.989c-.663 0-1.217.582-1.217 1.246v20.1c0 .665.555 1.217 1.217 1.217h20.099c.664 0 1.219-.554 1.219-1.217v-20.1c0-.666-.557-1.246-1.219-1.246zm.594 1.812h18.91v18.939h-18.91z"/><path d="m483.821 232.989c-.661 0-1.217.584-1.217 1.246v20.1c0 .662.557 1.217 1.217 1.217h20.1c.663 0 1.217-.554 1.217-1.217v-20.1c0-.666-.556-1.246-1.217-1.246zm.595 1.812h18.91v18.939h-18.91z"/><path d="m505.761 232.989c-.662 0-1.218.584-1.218 1.246v20.1c0 .662.558 1.217 1.218 1.217h20.1c.663 0 1.245-.554 1.245-1.217v-20.1c0-.666-.584-1.246-1.245-1.246zm.593 1.812h18.939v18.939h-18.939z"/><path d="m527.53 232.989c-.664 0-1.218.582-1.218 1.246v20.1c0 .665.556 1.217 1.218 1.217h20.1c.663 0 1.217-.554 1.217-1.217v-20.1c0-.666-.556-1.246-1.217-1.246zm.594 1.812h18.91v18.939h-18.91z"/><path d="m461.854 254.675c-.663 0-1.217.552-1.217 1.217v20.127c0 .668.554 1.218 1.217 1.218h20.099c.668 0 1.219-.551 1.219-1.218v-20.127c0-.666-.557-1.217-1.219-1.217zm.594 1.811h18.91v18.938h-18.91z"/><path d="m483.821 254.675c-.661 0-1.217.555-1.217 1.217v20.127c0 .665.554 1.218 1.217 1.218h20.1c.667 0 1.217-.551 1.217-1.218v-20.127c0-.666-.556-1.217-1.217-1.217zm.595 1.811h18.91v18.938h-18.91z"/><path d="m505.761 254.675c-.662 0-1.218.555-1.218 1.217v20.127c0 .665.554 1.218 1.218 1.218h20.1c.666 0 1.245-.551 1.245-1.218v-20.127c0-.666-.584-1.217-1.245-1.217zm.593 1.811h18.939v18.938h-18.939z"/><path d="m527.53 254.675c-.664 0-1.218.552-1.218 1.217v41.868c0 .667.556 1.218 1.218 1.218h20.1c.663 0 1.217-.553 1.217-1.218v-41.868c0-.666-.556-1.217-1.217-1.217zm.594 1.811h18.91v40.68h-18.91z"/><path d="m461.854 276.358c-.665 0-1.217.554-1.217 1.217v20.101c0 .664.555 1.245 1.217 1.245h41.868c.662 0 1.219-.586 1.219-1.245v-20.101c0-.661-.555-1.217-1.219-1.217zm.594 1.812h40.68v18.939h-40.68z"/><path d="m505.761 276.358c-.664 0-1.218.557-1.218 1.217v20.101c0 .66.558 1.245 1.218 1.245h20.1c.663 0 1.245-.583 1.245-1.245v-20.101c0-.665-.58-1.217-1.245-1.217zm.593 1.812h18.939v18.939h-18.939z"/><path d="m326.396 189.733c-.662 0-1.217.554-1.217 1.218v20.1c0 .665.555 1.217 1.217 1.217h20.101c.663 0 1.217-.553 1.217-1.217v-20.1c0-.666-.555-1.218-1.217-1.218zm.595 1.812h18.91v18.911h-18.91z"/><path d="m348.393 189.733c-.662 0-1.218.557-1.218 1.218v20.1c0 .662.556 1.217 1.218 1.217h29.865c.662 0 1.245-.556 1.245-1.217v-20.1c0-.663-.585-1.218-1.245-1.218zm.593 1.812h28.705v18.911h-28.705z"/><path d="m388.676 189.733c-.664 0-1.218.557-1.218 1.218v20.1c0 .662.556 1.217 1.218 1.217h30.517c.664 0 1.217-.556 1.217-1.217v-20.1c0-.663-.555-1.218-1.217-1.218zm.595 1.812h29.327v18.911h-29.327z"/><path d="m421.628 189.733c-.664 0-1.219.557-1.219 1.218v20.1c0 .662.557 1.217 1.219 1.217h30.828c.662 0 1.217-.556 1.217-1.217v-20.1c0-.663-.556-1.218-1.217-1.218zm.594 1.812h29.64v18.911h-29.64z"/></g></svg>