<svg height="350.257" viewBox="0 0 598.191 350.257" width="598.191" xmlns="http://www.w3.org/2000/svg"><g fill="#f4f4f4"><path d="m424.144 317.612-1.441-.251.758-1.251c13.222-21.773 27.552-66.131 28.189-93.506.088-3.7.128-7.365.128-10.954.013-23.146-1.756-43.25-3.42-48.734-.987-3.296-2.014-5.638-3.955-7.171-1.938-1.54-5.016-2.451-10.42-2.449h-271.055c-5.404-.002-8.484.909-10.419 2.449-1.942 1.533-2.968 3.875-3.955 7.171-1.666 5.486-3.436 25.592-3.423 48.734 0 3.587.04 7.251.13 10.954.638 27.375 14.968 71.732 28.19 93.506l.759 1.251-1.445.251c-2.293.397-5.602.585-9.414.585-9.54-.009-22.083-1.172-28.77-3.632l-.429-.159-.158-.428c-9.944-26.517-27.1-66.108-27.096-121.998 0-11.465.722-23.616 2.373-36.48 9.629-75.631 49.143-113.55 109.86-121.529l.263 1.981c-59.949 8.02-98.435 44.767-108.139 119.802-1.641 12.78-2.356 24.843-2.356 36.226.004 55.184 16.81 94.281 26.805 120.862 6.306 2.2 18.513 3.366 27.647 3.355 2.958.002 5.607-.119 7.619-.35-13.216-22.615-27.022-65.771-27.708-93.196-.09-3.721-.13-7.4-.132-11.002.013-23.313 1.708-43.25 3.507-49.309 1.014-3.37 2.154-6.196 4.628-8.165 2.482-1.958 6.069-2.882 11.663-2.882h271.055c5.594 0 9.183.924 11.661 2.882 2.476 1.969 3.616 4.794 4.63 8.165 1.795 6.057 3.492 25.993 3.505 49.309-.002 3.604-.042 7.283-.131 11.002-.683 27.425-14.491 70.581-27.707 93.196 2.01.23 4.661.352 7.619.35 9.132.011 21.34-1.155 27.647-3.355 9.993-26.583 26.801-65.679 26.805-120.862-.002-11.381-.717-23.445-2.355-36.226-9.705-75.035-48.19-111.783-108.14-119.802h.002l.261-1.981c60.717 7.979 100.231 45.898 109.86 121.529 1.651 12.866 2.371 25.015 2.371 36.48.004 55.888-17.151 95.479-27.094 121.998l-.162.43-.427.157c-6.688 2.46-19.23 3.623-28.769 3.634-3.814-.002-7.122-.19-9.415-.587z"/><path d="m226.596 51.129c-4.97-.002-9-4.029-9-9.001v-4.167c.004-2.669 1.702-5.061 4.619-7.075 2.935-2.03 7.187-3.797 12.767-5.288 11.156-2.971 27.637-4.801 49.278-4.804h28.388c32.481.027 53.269 4.063 62.045 10.091 2.917 2.014 4.615 4.405 4.621 7.075v4.167c-.002 4.972-4.029 8.999-9.001 9.001v-1-1c3.867-.006 6.994-3.135 7-7v-4.167c.006-1.748-1.11-3.585-3.76-5.431-2.632-1.829-6.703-3.552-12.144-4.999-10.885-2.904-27.236-4.739-48.762-4.737h-28.388c-32.269-.027-52.98 4.188-60.906 9.736-2.649 1.846-3.764 3.683-3.76 5.431v4.167c.008 3.865 3.135 6.994 7 7h143.718v1 1h-143.715z"/><path d="m347.731 65.711h-98.553c-4.73.002-7.707-.77-9.727-1.719-2.004-.942-3.076-2.068-3.703-2.423-1.865-1.132-6.858-5.497-8.229-6.688-1.189-1.062-2.892-1.971-3.778-4.317l1.874-.703c.616 1.651 1.745 2.242 3.221 3.514 1.297 1.143 6.47 5.611 7.941 6.478 1.037.645 1.801 1.521 3.524 2.328 1.709.801 4.356 1.529 8.876 1.531h98.553c4.521-.002 7.17-.73 8.877-1.531 1.726-.807 2.487-1.683 3.526-2.328 1.469-.865 6.642-5.335 7.938-6.478 1.477-1.272 2.605-1.863 3.222-3.514h.002l1.871.701c-.884 2.348-2.587 3.257-3.777 4.319-1.371 1.19-6.364 5.555-8.228 6.688-.628.355-1.7 1.481-3.704 2.423-2.019.949-4.989 1.72-9.708 1.719-.004 0-.011 0-.018 0z"/><path d="m331.981 80.044h-67.051c-11.387.01-17.476-6.718-25.099-15.772l1.528-1.29c7.712 9.116 13.124 15.052 23.571 15.062h67.052c10.447-.01 15.857-5.946 23.569-15.062l.002.002 1.527 1.288c-7.617 9.047-13.701 15.772-25.072 15.772-.008 0-.018 0-.027 0z"/><path d="m256.146 78.84 1.401-1.426c4.628 4.533 14.829 12.121 33.465 12.131l14.887-.002c18.636-.008 28.837-7.596 33.466-12.129h.002l1.4 1.426c-4.872 4.802-15.67 12.713-34.868 12.703l-14.887.002c-19.198.009-29.996-7.903-34.866-12.705z"/><path d="m147.928 147.962c-5.875-.004-12.802-1.37-18.338-5.589-5.545-4.215-9.554-11.331-9.538-22.335 0-4.264.59-9.118 1.905-14.642l1.945.464c-1.286 5.398-1.851 10.099-1.851 14.178.017 10.54 3.72 16.885 8.752 20.745 5.039 3.856 11.55 5.182 17.125 5.18h300.832c5.574.002 12.084-1.323 17.124-5.18 5.03-3.86 8.733-10.208 8.75-20.745 0-4.079-.564-8.78-1.848-14.178h.002l1.945-.464c1.311 5.524 1.9 10.378 1.902 14.642.017 11.004-3.992 18.12-9.537 22.335-5.539 4.22-12.466 5.585-18.339 5.589z"/><path d="m384.623 316.96h-1.001v-136.331c-.007-3.867-3.136-6.994-7-7.002h-156.334c-3.865.008-6.991 3.135-7 7.002v136.333h-1c-13.694-.002-39.653-.002-39.692-.002v-1.999h38.693v-134.332c0-4.972 4.028-9.001 8.999-9.001h156.334c4.971 0 8.999 4.028 9.001 9.001v134.332h38.639v2.001c0-.002-23.666-.002-39.639-.002zm-212.027 0v.002z"/><path d="m212.263 313.127v-1.999h172v1.999z"/><path d="m240.763 200.961v-.999-1.002h19.167c3.083-.004 5.576-2.499 5.583-5.582-.006-3.084-2.5-5.579-5.583-5.583h-19.167c-3.085.004-5.579 2.499-5.584 5.583.006 3.083 2.501 5.578 5.584 5.582v1.002.999c-4.19 0-7.583-3.397-7.585-7.583.002-4.188 3.396-7.583 7.585-7.583h19.167c4.188 0 7.581 3.395 7.583 7.583-.002 4.186-3.395 7.583-7.583 7.583z"/><path d="m288.845 200.961v-.999-1.002l19.167.002c3.083-.006 5.578-2.501 5.582-5.584-.004-3.084-2.499-5.579-5.582-5.583h-19.167c-3.083.004-5.579 2.499-5.583 5.583.004 3.083 2.5 5.578 5.583 5.582v1.002.999c-4.188 0-7.583-3.397-7.583-7.583 0-4.188 3.395-7.583 7.583-7.583h19.167c4.188 0 7.583 3.395 7.583 7.583 0 4.186-3.395 7.583-7.583 7.583z"/><path d="m336.927 200.962v-1.001-1.001l19.168.002c3.083-.006 5.578-2.5 5.584-5.584-.006-3.085-2.499-5.579-5.584-5.584h-19.168c-3.081.005-5.576 2.499-5.582 5.584.006 3.084 2.501 5.578 5.582 5.582v1.001 1.001c-4.188-.002-7.582-3.396-7.582-7.584 0-4.189 3.395-7.583 7.582-7.585l19.168.002c4.189 0 7.583 3.394 7.583 7.583 0 4.188-3.394 7.582-7.583 7.584z"/><path d="m240.762 232.518v-1.002-.999h19.168c3.083-.005 5.577-2.501 5.582-5.584-.004-3.084-2.499-5.577-5.582-5.583h-19.168c-3.083.006-5.577 2.499-5.583 5.583.006 3.083 2.5 5.579 5.583 5.584v.999 1.002c-4.188-.002-7.583-3.396-7.583-7.585 0-4.188 3.395-7.583 7.583-7.583h19.168c4.188 0 7.582 3.396 7.583 7.583-.002 4.188-3.395 7.583-7.583 7.585z"/><path d="m288.844 232.518v-1.002-.999h19.167c3.083-.005 5.577-2.501 5.582-5.584-.005-3.084-2.499-5.577-5.582-5.583h-19.167c-3.083.006-5.577 2.499-5.583 5.583.006 3.083 2.5 5.579 5.583 5.584v.999 1.002c-4.188-.002-7.581-3.396-7.583-7.585.002-4.188 3.395-7.583 7.583-7.583h19.167c4.188 0 7.584 3.396 7.584 7.583 0 4.188-3.396 7.583-7.584 7.585z"/><path d="m336.927 232.517v-.999-1.001h19.168c3.083-.006 5.578-2.501 5.584-5.584-.006-3.083-2.499-5.577-5.584-5.582h-19.168c-3.081.005-5.576 2.499-5.582 5.582.006 3.083 2.501 5.578 5.582 5.584v1.001.999c-4.188 0-7.582-3.396-7.582-7.584 0-4.188 3.395-7.583 7.582-7.583h19.168c4.189 0 7.583 3.396 7.583 7.583 0 4.188-3.394 7.584-7.583 7.584z"/><path d="m240.762 264.073v-1.001-1h19.167c3.084-.006 5.578-2.5 5.584-5.584-.006-3.084-2.5-5.577-5.584-5.582h-19.167c-3.084.005-5.578 2.498-5.583 5.582.006 3.084 2.5 5.578 5.583 5.584v1 1.001c-4.189-.002-7.583-3.397-7.583-7.585 0-4.188 3.394-7.583 7.583-7.583h19.167c4.189 0 7.583 3.396 7.583 7.583 0 4.188-3.394 7.583-7.583 7.585z"/><path d="m288.846 264.073v-1.001-1h19.166c3.082-.006 5.578-2.5 5.582-5.584-.004-3.084-2.498-5.577-5.582-5.582h-19.166c-3.084.005-5.578 2.498-5.583 5.582.006 3.084 2.5 5.578 5.583 5.584v1 1.001c-4.189-.002-7.583-3.397-7.585-7.585.002-4.188 3.396-7.583 7.585-7.583h19.166c4.188 0 7.583 3.396 7.583 7.583 0 4.188-3.394 7.583-7.583 7.585z"/><path d="m336.927 264.073v-1.001-1h19.169c3.082-.006 5.577-2.5 5.582-5.584-.005-3.084-2.498-5.577-5.582-5.582h-19.169c-3.082.005-5.577 2.498-5.581 5.582.004 3.084 2.499 5.578 5.581 5.584v1 1.001c-4.188-.002-7.581-3.397-7.583-7.585.002-4.188 3.396-7.583 7.583-7.583h19.169c4.188 0 7.583 3.396 7.583 7.583 0 4.188-3.394 7.583-7.583 7.585z"/><path d="m240.762 295.628v-1.001-1.001h19.167c3.083-.005 5.578-2.499 5.583-5.582-.004-3.084-2.499-5.578-5.583-5.583h-19.167c-3.083.005-5.578 2.499-5.584 5.583.006 3.083 2.501 5.577 5.584 5.582v1.001 1.001c-4.188-.002-7.583-3.397-7.584-7.584.002-4.189 3.396-7.583 7.584-7.585h19.167c4.189.002 7.583 3.396 7.583 7.585 0 4.187-3.394 7.582-7.583 7.584z"/><path d="m288.846 295.628v-1.001-1.001l19.166.002c3.083-.007 5.578-2.501 5.582-5.584-.004-3.084-2.499-5.578-5.582-5.583h-19.166c-3.083.005-5.578 2.499-5.584 5.583.006 3.083 2.501 5.577 5.584 5.582v1.001 1.001c-4.189-.002-7.583-3.397-7.585-7.584.002-4.189 3.396-7.583 7.585-7.585l19.166.002c4.188 0 7.583 3.394 7.583 7.583 0 4.187-3.395 7.582-7.583 7.584z"/><path d="m336.927 295.628v-1.001-1.001l19.168.002c3.083-.007 5.578-2.501 5.583-5.584-.005-3.084-2.5-5.578-5.583-5.583h-19.168c-3.081.005-5.576 2.499-5.583 5.583.007 3.083 2.502 5.577 5.583 5.582v1.001 1.001c-4.187-.002-7.581-3.397-7.583-7.584.002-4.189 3.396-7.583 7.583-7.585l19.168.002c4.189 0 7.583 3.394 7.585 7.583-.002 4.187-3.396 7.582-7.585 7.584z"/><path d="m264.768 130.721c-1.564-1.396-2.365-3.341-2.363-5.284-.002-1.678.595-3.372 1.801-4.719l13.216-14.789c1.396-1.563 3.341-2.364 5.283-2.364 1.676 0 3.368.596 4.717 1.801 1.565 1.398 2.366 3.343 2.364 5.285 0 1.678-.596 3.368-1.801 4.717l-13.214 14.789-.745-.665.745.667c-1.398 1.563-3.343 2.361-5.286 2.361-1.677.001-3.37-.594-4.717-1.799zm14.145-23.459-13.216 14.791c-.869.972-1.292 2.175-1.292 3.384 0 1.4.571 2.785 1.696 3.792.971.867 2.177 1.29 3.384 1.292 1.4-.002 2.786-.571 3.794-1.695l-.001-.001 13.216-14.789c.867-.973 1.292-2.177 1.292-3.384-.002-1.402-.571-2.786-1.696-3.792-.973-.871-2.177-1.292-3.384-1.294-1.401.002-2.788.571-3.793 1.696z"/><path d="m298.485 132.52c-1.678.002-3.37-.596-4.717-1.799-1.564-1.397-2.366-3.343-2.364-5.286-.002-1.675.596-3.369 1.801-4.717l13.215-14.788c1.397-1.564 3.341-2.366 5.284-2.366 1.675 0 3.364.596 4.717 1.803 1.563 1.397 2.365 3.341 2.363 5.284 0 1.678-.596 3.368-1.801 4.717l-13.214 14.79c-1.397 1.562-3.337 2.361-5.278 2.361-.001.001-.003.001-.006.001zm9.428-25.258-13.215 14.79c-.87.973-1.292 2.176-1.294 3.383.002 1.401.573 2.786 1.698 3.794.971.868 2.174 1.292 3.384 1.292 1.401-.002 2.786-.571 3.794-1.696l13.213-14.788c.867-.975 1.292-2.178 1.294-3.386-.002-1.401-.57-2.786-1.695-3.792-.976-.87-2.179-1.292-3.386-1.294-1.402.003-2.787.572-3.793 1.697z"/><path d="m151.094 95.711c.002-24.439 19.813-44.25 44.251-44.25 24.439 0 44.25 19.811 44.25 44.25 0 24.438-19.811 44.25-44.25 44.251-24.438-.002-44.248-19.813-44.251-44.251zm14.376-29.876c-7.647 7.649-12.374 18.206-12.374 29.875 0 11.67 4.727 22.226 12.374 29.875 7.649 7.647 18.206 12.374 29.875 12.374 11.67 0 22.226-4.727 29.875-12.374 7.647-7.649 12.374-18.206 12.374-29.875 0-11.67-4.727-22.226-12.374-29.875-7.649-7.647-18.206-12.374-29.875-12.374-11.669 0-22.225 4.727-29.875 12.374z"/><path d="m163.262 95.711c0-17.719 14.365-32.081 32.083-32.083 17.719.002 32.083 14.365 32.083 32.083 0 17.721-14.365 32.083-32.083 32.083-17.718 0-32.083-14.362-32.083-32.083zm1.999 0c.03 16.615 13.469 30.054 30.084 30.084 16.615-.031 30.054-13.469 30.083-30.084-.028-16.615-13.467-30.054-30.083-30.083-16.615.029-30.053 13.468-30.084 30.083z"/><path d="m344.095 142.295v-.002-.998-1.002h29.083c1.879 0 3.536-.923 4.544-2.336l8.411-12.101c.709-.918 1.129-2.062 1.129-3.311 0-2.128-1.225-3.966-3.034-4.868l-18.97-10.076c-1.14-.622-2.44-.975-3.829-.975-2.717 0-5.11 1.351-6.574 3.44l-15.238 20.657c-.847 1.015-1.354 2.312-1.354 3.737.004 3.222 2.61 5.828 5.832 5.832v1.002.998c-4.325 0-7.833-3.506-7.833-7.832 0-1.906.686-3.665 1.783-4.974l15.185-20.589c1.807-2.58 4.808-4.271 8.199-4.271 1.729 0 3.365.441 4.776 1.212l18.937 10.06c2.44 1.212 4.119 3.735 4.121 6.647 0 1.704-.579 3.282-1.519 4.493l-8.387 12.07c-1.372 1.926-3.633 3.186-6.18 3.186h-29.082z"/><path d="m349.887 124.46c0-7.663 6.212-13.873 13.876-13.875 7.661.002 13.873 6.212 13.875 13.875-.002 7.663-6.214 13.875-13.875 13.877-7.664-.002-13.876-6.214-13.876-13.877zm2 0c.013 6.559 5.317 11.864 11.876 11.876 6.557-.013 11.862-5.318 11.874-11.876-.012-6.559-5.317-11.861-11.874-11.874-6.559.013-11.864 5.315-11.876 11.874z"/><path d="m375.031 95.377c.002-7.664 6.214-13.874 13.877-13.875 7.661.002 13.873 6.212 13.875 13.875-.002 7.663-6.214 13.875-13.875 13.875-7.663 0-13.875-6.211-13.877-13.875zm2.002 0c.011 6.56 5.315 11.864 11.875 11.875 6.558-.01 11.862-5.315 11.873-11.875-.011-6.558-5.315-11.862-11.873-11.875-6.559.013-11.864 5.317-11.875 11.875z"/><path d="m401.913 69.631c0-7.663 6.212-13.875 13.875-13.875 7.663 0 13.874 6.211 13.876 13.875-.002 7.663-6.213 13.875-13.876 13.875-7.663-.001-13.875-6.212-13.875-13.875zm2.001 0c.011 6.558 5.315 11.863 11.874 11.875 6.558-.012 11.862-5.317 11.875-11.875-.013-6.558-5.317-11.863-11.875-11.875-6.559.012-11.863 5.317-11.874 11.875z"/><path d="m388.24 112.704-19.599-10.65c-1.974-1.176-3.297-3.335-3.297-5.801 0-1.861.756-3.553 1.953-4.75l10.79-11.523c1.777-1.907 4.32-3.102 7.132-3.102 1.987 0 3.846.597 5.388 1.623l18.311 9.407-.457.89.457-.89.046.025.039.025c2.085 1.342 3.467 3.691 3.467 6.357 0 2.376-1.099 4.501-2.813 5.884l-9.973 10.45c-1.67 1.974-4.175 3.229-6.964 3.229-1.631-.001-3.169-.43-4.48-1.174zm-8.691-31.359-10.813 11.549c-.86.863-1.39 2.044-1.39 3.359-.003 1.736.929 3.251 2.286 4.063l19.579 10.64c1.036.588 2.229.921 3.51.923 2.183-.002 4.127-.979 5.478-2.568l10.111-10.596.052-.04c1.286-1.021 2.107-2.591 2.107-4.36.002-1.945-.995-3.651-2.507-4.649l-18.371-9.44-.048-.031c-1.236-.832-2.718-1.315-4.323-1.315-2.241-.001-4.25.945-5.671 2.465z"/><path d="m418.546 88.314c-1.629-.092-3.141-.608-4.407-1.424l-18.966-11.741c-1.805-1.217-2.978-3.283-2.978-5.591 0-.124.002-.259.013-.385.104-1.859.957-3.507 2.219-4.632l11.421-10.898c1.758-1.683 4.142-2.71 6.737-2.71.182 0 .372.004.56.017 1.979.111 3.794.808 5.273 1.914l17.764 10.435-.506.862.506-.862.048.027.036.025c1.895 1.382 3.111 3.622 3.111 6.114 0 .145-.002.282-.009.431-.135 2.371-1.352 4.434-3.143 5.718l-10.545 9.866c-1.667 1.758-4.029 2.846-6.612 2.846-.174.001-.348-.003-.522-.012zm-11.317-33.226-11.446 10.921c-.909.813-1.503 1.964-1.581 3.3-.004.067-.008.15-.008.249 0 1.62.826 3.074 2.063 3.912l18.949 11.729c1.003.644 2.175 1.045 3.445 1.116.139.009.278.013.416.013 2.017 0 3.856-.847 5.205-2.265l10.687-10.005.059-.04c1.343-.949 2.253-2.467 2.351-4.218.007-.121.009-.232.009-.334 0-1.825-.885-3.461-2.271-4.48l-17.783-10.445-.049-.036c-1.189-.901-2.641-1.468-4.253-1.56-.142-.008-.286-.013-.437-.013-2.063 0-3.952.816-5.356 2.156z"/><path d="m185.722 123.34-.051-.018-.047-.021c-.967-.366-1.788-1.578-1.696-3.257v-12.323c-.055-.374-.11-.572-.583-.595h-12.333c-.901-.008-1.542-.041-2.18-.378-.654-.357-.95-.977-1.15-1.514-1.03-2.987-1.588-6.193-1.585-9.523-.002-3.347.562-6.567 1.61-9.597.123-.323.355-.921.964-1.313.601-.38 1.318-.503 2.341-.507h12.302c.293.003.491-.02.6-.04.008-.083.015-.214.014-.377v-12.5c-.033-2.47 2.031-3.381 2.345-3.478l.045-.018.047-.017c2.83-.911 5.85-1.403 8.979-1.403 3.468 0 6.796.603 9.883 1.712l.059.021.055.029c.441.204 1.001.603 1.22 1.232.207.595.192 1.116.2 1.922v12.531c-.001.163.012.279.024.349.008.001.017.003.027.005.114.021.321.033.595.033h12.271c.846.006 1.391.022 1.933.19.558.143 1.052.697 1.2 1.144 1.154 3.145 1.784 6.542 1.784 10.083 0 3.408-.584 6.685-1.676 9.776-.171.45-.499 1.067-1.156 1.361-.625.268-1.202.268-2.084.278h-12.302c-.207-.004-.441.058-.513.11-.062.07-.078-.004-.103.296v12.511c-.006.644-.006 1.208-.253 1.816-.251.617-.77 1.079-1.369 1.403l-.076.043-.084.029c-3.018 1.054-6.262 1.625-9.636 1.625-3.367.001-6.608-.569-9.621-1.62zm9.623-.38c3.112 0 6.1-.52 8.883-1.48.353-.212.39-.297.436-.394.055-.11.104-.435.098-1.042v-12.511c-.024-.856.439-1.632 1.02-1.978.572-.36 1.144-.423 1.596-.427l12.302-.002c.461.002.794-.012.999-.041.159-.02.221-.041.242-.05h-.001c.018-.019.076-.119.13-.26 1.001-2.834 1.545-5.884 1.545-9.063 0-3.299-.585-6.458-1.64-9.337-.142-.039-.568-.086-1.275-.081h-12.271c-.627-.016-1.216.01-1.864-.431-.656-.496-.789-1.265-.782-1.955v-12.531c.013-.788-.042-1.151-.069-1.22-.009-.011-.071-.056-.201-.125-2.859-1.018-5.936-1.571-9.146-1.571-2.895 0-5.679.449-8.294 1.285-.373.197-1.091.376-1.123 1.631v12.5c-.014.527.024 1.169-.54 1.794-.604.572-1.281.609-2.074.623h-12.302c-.852-.006-1.195.137-1.248.182-.045.035-.062.028-.18.325-.964 2.791-1.489 5.787-1.489 8.911 0 3.107.521 6.091 1.465 8.839.178.443.219.435.239.447.037.037.404.139 1.213.129l12.333.002c.787-.01 1.506.331 1.943.846.443.511.638 1.138.64 1.747v12.323c.092 1.378.171 1.188.528 1.433 2.785.961 5.771 1.482 8.887 1.482z"/><path d="m204.761 118.598c.002-7.433 6.027-13.458 13.46-13.458v1.999c-6.329.012-11.447 5.131-11.46 11.459z"/><path d="m183.969 118.598c-.01-6.329-5.128-11.447-11.458-11.458v-2.002c7.434.002 13.458 6.027 13.458 13.46z"/><path d="m204.761 72.826h.002 1.999c.012 6.329 5.13 11.446 11.46 11.458v2.001c-7.434-.002-13.459-6.025-13.461-13.459z"/><path d="m172.511 84.285c6.329-.012 11.447-5.13 11.459-11.458h1.999c0 7.433-6.025 13.458-13.458 13.459z"/><circle cx="195.346" cy="58.628" r="2.917"/><circle cx="169.124" cy="69.489" r="1.792"/><circle cx="158.262" cy="95.711" r="2.917"/><circle cx="195.345" cy="132.795" r="2.917"/><circle cx="232.429" cy="95.712" r="2.917"/><circle cx="169.124" cy="121.933" r="1.792"/><circle cx="221.567" cy="121.934" r="1.792"/><circle cx="221.568" cy="69.49" r="1.792"/><path d="m169.956 167.878v-1.001-.999h257c2.002-.004 3.621-1.624 3.625-3.625-.004-2.003-1.623-3.623-3.625-3.627h-257c-2.001.004-3.623 1.624-3.625 3.627.002 2.001 1.624 3.621 3.625 3.625v.999 1.001c-3.106-.002-5.624-2.52-5.624-5.625 0-3.106 2.518-5.624 5.624-5.626h257c3.106.002 5.624 2.52 5.624 5.626 0 3.105-2.518 5.623-5.624 5.625z"/></g></svg>