<svg height="308" viewBox="0 0 593.798 308" width="593.79797" xmlns="http://www.w3.org/2000/svg"><g fill="#f4f4f4"><path d="m95.1875 104.46875c-1.04 0-1.90625.86625-1.90625 1.90625v21.625c0 1.04008.86625 1.90625 1.90625 1.90625h25.34375c1.03867 0 1.90625-.86625 1.90625-1.90625v-21.625c0-1.04-.86625-1.90625-1.90625-1.90625zm.09375 2h25.15625v21.4375h-25.15625z"/><path d="m125.28125 102.09375c-1.03875 0-1.90625.86625-1.90625 1.90625v24.90625c0 1.03867.86625 1.90625 1.90625 1.90625h168.21875c1.04008 0 1.90625-.86625 1.90625-1.90625v-1-23.90625c0-1.03875-.86625-1.90625-1.90625-1.90625zm.0937 2h168.03125v24.71875h-168.03125z"/><path d="m86.65625 15.1875v.5 28.84375.5h.5 3.875.5v-.5-28.84375-.5h-.5-3.875zm1 1h2.875v27.84375h-2.875z"/><path d="m93.25 15.1875v.5 28.84375.5h.5 3.875.5v-.5-28.84375-.5h-.5-3.875zm1 1h2.875v27.84375h-2.875z"/><path d="m99.84375 15.1875v.5 28.84375.5h.5 3.90625.5v-.5-28.84375-.5h-.5-3.90625zm1 1h2.90625v27.84375h-2.90625z"/><path d="m106.4375 15.1875v.5 28.84375.5h.5 3.90625.5v-.5-28.84375-.5h-.5-3.90625zm1 1h2.90625v27.84375h-2.90625z"/><path d="m113.0625 15.1875v.5 28.84375.5h.5 3.875.5v-.5-28.84375-.5h-.5-3.875zm1 1h2.875v27.84375h-2.875z"/><path d="m119.65625 15.1875v.5 28.84375.5h.5 3.875.5v-.5-28.84375-.5h-.5-3.875zm1 1h2.875v27.84375h-2.875z"/><path d="m126.25 15.1875v.5 28.84375.5h.5 3.90625.5v-.5-28.84375-.5h-.5-3.90625zm1 1h2.90625v27.84375h-2.90625z"/><path d="m132.84375 15.1875v.5 28.84375.5h.5 3.90625.5v-.5-28.84375-.5h-.5-3.90625zm1 1h2.90625v27.84375h-2.90625z"/><path d="m139.46875 15.1875v.5 28.84375.5h.5 3.875.5v-.5-28.84375-.5h-.5-3.875zm1 1h2.875v27.84375h-2.875z"/><path d="m146.0625 15.1875v.5 28.84375.5h.5 3.875.5v-.5-28.84375-.5h-.5-3.875zm1 1h2.875v27.84375h-2.875z"/><path d="m152.65625 15.1875v.5 28.84375.5h.5 3.90625.5v-.5-28.84375-.5h-.5-3.90625zm1 1h2.90625v27.84375h-2.90625z"/><path d="m159.25 15.1875v.5 28.84375.5h.5 3.90625.5v-.5-28.84375-.5h-.5-3.90625zm1 1h2.90625v27.84375h-2.90625z"/><path d="m165.875 15.1875v.5 28.84375.5h.5 3.875.5v-.5-28.84375-.5h-.5-3.875zm1 1h2.875v27.84375h-2.875z"/><path d="m172.46875 15.1875v.5 28.84375.5h.5 3.875.5v-.5-28.84375-.5h-.5-3.875zm1 1h2.875v27.84375h-2.875z"/><path d="m179.0625 15.1875v.5 28.84375.5h.5 3.90625.5v-.5-28.84375-.5h-.5-3.90625zm1 1h2.90625v27.84375h-2.90625z"/><path d="m185.65625 15.1875v.5 28.84375.5h.5 3.90625.5v-.5-28.84375-.5h-.5-3.90625zm1 1h2.90625v27.84375h-2.90625z"/><path d="m192.28125 15.1875v.5 28.84375.5h.5 3.875.5v-.5-28.84375-.5h-.5-3.875zm1 1h2.875v27.84375h-2.875z"/><path d="m198.875 15.1875v.5 28.84375.5h.5 3.90625.5v-.5-28.84375-.5h-.5-3.90625zm1 1h2.90625v27.84375h-2.90625z"/><path d="m205.46875 15.1875v.5 28.84375.5h.5 3.90625.5v-.5-28.84375-.5h-.5-3.90625zm1 1h2.90625v27.84375h-2.90625z"/><path d="m212.0625 15.1875v.5 28.84375.5h.5 3.90625.5v-.5-28.84375-.5h-.5-3.90625zm1 1h2.90625v27.84375h-2.90625z"/><path d="m218.6875 15.1875v.5 28.84375.5h.5 3.875.5v-.5-28.84375-.5h-.5-3.875zm1 1h2.875v27.84375h-2.875z"/><path d="m225.28125 15.1875v.5 28.84375.5h.5 3.90625.5v-.5-28.84375-.5h-.5-3.90625zm1 1h2.90625v27.84375h-2.90625z"/><path d="m231.875 15.1875v.5 28.84375.5h.5 3.90625.5v-.5-28.84375-.5h-.5-3.90625zm1 1h2.90625v27.84375h-2.90625z"/><path d="m238.5 15.1875v.5 28.84375.5h.5 3.875.5v-.5-28.84375-.5h-.5-3.875zm1 1h2.875v27.84375h-2.875z"/><path d="m245.09375 15.1875v.5 28.84375.5h.5 3.875.5v-.5-28.84375-.5h-.5-3.875zm1 1h2.875v27.84375h-2.875z"/><path d="m251.6875 15.1875v.5 28.84375.5h.5 3.90625.5v-.5-28.84375-.5h-.5-3.90625zm1 1h2.90625v27.84375h-2.90625z"/><path d="m258.28125 15.1875v.5 28.84375.5h.5 3.90625.5v-.5-28.84375-.5h-.5-3.90625zm1 1h2.90625v27.84375h-2.90625z"/><path d="m264.90625 15.1875v.5 28.84375.5h.5 3.875.5v-.5-28.84375-.5h-.5-3.875zm1 1h2.875v27.84375h-2.875z"/><path d="m271.5 15.1875v.5 28.84375.5h.5 3.875.5v-.5-28.84375-.5h-.5-3.875zm1 1h2.875v27.84375h-2.875z"/><path d="m278.09375 15.1875v.5 28.84375.5h.5 3.90625.5v-.5-28.84375-.5h-.5-3.90625zm1 1h2.90625v27.84375h-2.90625z"/><path d="m284.6875 15.1875v.5 28.84375.5h.5 3.90625.5v-.5-28.84375-.5h-.5-3.90625zm1 1h2.90625v27.84375h-2.90625z"/><path d="m291.3125 15.1875v.5 28.84375.5h.5 3.875.5v-.5-28.84375-.5h-.5-3.875zm1 1h2.875v27.84375h-2.875z"/><path d="m297.90625 15.1875v.5 28.84375.5h.5 3.875.5v-.5-28.84375-.5h-.5-3.875zm1 1h2.875v27.84375h-2.875z"/><path d="m304.5 15.1875v.5 28.84375.5h.5 3.90625.5v-.5-28.84375-.5h-.5-3.90625zm1 1h2.90625v27.84375h-2.90625z"/><path d="m311.09375 15.1875v.5 28.84375.5h.5 3.90625.5v-.5-28.84375-.5h-.5-3.90625zm1 1h2.90625v27.84375h-2.90625z"/><path d="m317.71875 15.1875v.5 28.84375.5h.5 3.875.5v-.5-28.84375-.5h-.5-3.875zm1 1h2.875v27.84375h-2.875z"/><path d="m324.3125 15.1875v.5 28.84375.5h.5 3.90625.5v-.5-28.84375-.5h-.5-3.90625zm1 1h2.90625v27.84375h-2.90625z"/><path d="m330.90625 15.1875v.5 28.84375.5h.5 3.90625.5v-.5-28.84375-.5h-.5-3.90625zm1 1h2.90625v27.84375h-2.90625z"/><path d="m337.5 15.1875v.5 28.84375.5h.5 3.90625.5v-.5-28.84375-.5h-.5-3.90625zm1 1h2.90625v27.84375h-2.90625z"/><path d="m344.125 15.1875v.5 28.84375.5h.5 3.875.5v-.5-28.84375-.5h-.5-3.875zm1 1h2.875v27.84375h-2.875z"/><path d="m350.71875 15.1875v.5 28.84375.5h.5 3.90625.5v-.5-28.84375-.5h-.5-3.90625zm1 1h2.90625v27.84375h-2.90625z"/><path d="m357.3125 15.1875v.5 28.84375.5h.5 3.90625.5v-.5-28.84375-.5h-.5-3.90625zm1 1h2.90625v27.84375h-2.90625z"/><path d="m363.9375 15.1875v.5 28.84375.5h.5 3.875.5v-.5-28.84375-.5h-.5-3.875zm1 1h2.875v27.84375h-2.875z"/><path d="m370.53125 15.1875v.5 28.84375.5h.5 3.875.5v-.5-28.84375-.5h-.5-3.875zm1 1h2.875v27.84375h-2.875z"/><path d="m377.125 15.1875v.5 28.84375.5h.5 3.90625.5v-.5-28.84375-.5h-.5-3.90625zm1 1h2.90625v27.84375h-2.90625z"/><path d="m383.71875 15.1875v.5 28.84375.5h.5 3.90625.5v-.5-28.84375-.5h-.5-3.90625zm1 1h2.90625v27.84375h-2.90625z"/><path d="m390.34375 15.1875v.5 28.84375.5h.5 3.875.5v-.5-28.84375-.5h-.5-3.875zm1 1h2.875v27.84375h-2.875z"/><path d="m396.9375 15.1875v.5 28.84375.5h.5 3.875.5v-.5-28.84375-.5h-.5-3.875zm1 1h2.875v27.84375h-2.875z"/><path d="m403.53125 15.1875v.5 28.84375.5h.5 3.90625.5v-.5-28.84375-.5h-.5-3.90625zm1 1h2.90625v27.84375h-2.90625z"/><path d="m410.125 15.1875v.5 28.84375.5h.5 3.90625.5v-.5-28.84375-.5h-.5-3.90625zm1 1h2.90625v27.84375h-2.90625z"/><path d="m416.75 15.1875v.5 28.84375.5h.5 3.875.5v-.5-28.84375-.5h-.5-3.875zm1 1h2.875v27.84375h-2.875z"/><path d="m423.34375 15.1875v.5 28.84375.5h.5 3.875.5v-.5-28.84375-.5h-.5-3.875zm1 1h2.875v27.84375h-2.875z"/><path d="m429.9375 15.1875v.5 28.84375.5h.5 3.90625.5v-.5-28.84375-.5h-.5-3.90625zm1 1h2.90625v27.84375h-2.90625z"/><path d="m436.53125 15.1875v.5 28.84375.5h.5 3.90625.5v-.5-28.84375-.5h-.5-3.90625zm1 1h2.90625v27.84375h-2.90625z"/><path d="m443.15625 15.1875v.5 28.84375.5h.5 3.875.5v-.5-28.84375-.5h-.5-3.875zm1 1h2.875v27.84375h-2.875z"/><path d="m449.75 15.1875v.5 28.84375.5h.5 3.90625.5v-.5-28.84375-.5h-.5-3.90625zm1 1h2.90625v27.84375h-2.90625z"/><path d="m456.34375 15.1875v.5 28.84375.5h.5 3.90625.5v-.5-28.84375-.5h-.5-3.90625zm1 1h2.90625v27.84375h-2.90625z"/><path d="m462.9375 15.1875v.5 28.84375.5h.5 3.90625.5v-.5-28.84375-.5h-.5-3.90625zm1 1h2.90625v27.84375h-2.90625z"/><path d="m469.5625 15.1875v.5 28.84375.5h.5 3.875.5v-.5-28.84375-.5h-.5-3.875zm1 1h2.875v27.84375h-2.875z"/><path d="m476.15625 15.1875v.5 28.84375.5h.5 3.90625.5v-.5-28.84375-.5h-.5-3.90625zm1 1h2.90625v27.84375h-2.90625z"/><path d="m482.75 15.1875v.5 28.84375.5h.5 3.90625.5v-.5-28.84375-.5h-.5-3.90625zm1 1h2.90625v27.84375h-2.90625z"/><path d="m489.34375 15.1875v.5 28.84375.5h.5 3.90625.5v-.5-28.84375-.5h-.5-3.90625zm1 1h2.90625v27.84375h-2.90625z"/><path d="m495.96875 15.1875v.5 28.84375.5h.5 3.875.5v-.5-28.84375-.5h-.5-3.875zm1 1h2.875v27.84375h-2.875z"/><path d="m502.5625 15.1875v.5 28.84375.5h.5 3.90625.5v-.5-28.84375-.5h-.5-3.90625zm1 1h2.90625v27.84375h-2.90625z"/><path d="m82.3125.15625v141.8125c0 2.52611 2.0687 4.59375 4.59375 4.59375h159.46875v.0625 18.84375h-201.28125-1v1 54.8125 1h1 6.3125v54.40625 1h1 71.0625v27.5625 1h1 259.875 1v-1-27.5625h86.0625 1v-1-54.40625h6.28125 1v-1-54.8125-1h-1-135.65625v-18.84375-.0625h164.5625c2.52611 0 4.59375-2.0687 4.59375-4.59375v-141.8125h-2v141.8125c0 1.44495-1.14786 2.59375-2.59375 2.59375h-166.5625-1v1 1.0625 1h1v18.84375 1h1 135.65625v52.8125h-6.28125-1v1 54.40625h-86.0625-1v1 27.5625h-257.875v-27.5625-1h-1-71.0625v-54.40625-1h-1-6.3125v-52.8125h201.28125 1v-1-18.84375h1v-1-1.0625-1h-1-161.46875c-1.44495 0-2.59375-1.14786-2.59375-2.59375v-141.8125z"/><path d="m84.78125 95.5v2h424.84375v-2z"/><path d="m71.65625 12.03125v1 83.46875 1h1 10.65625v-2h-9.65625v-81.46875h446.46875v81.46875h-8.875v2h9.875 1v-1-83.46875-1h-1-448.46875z"/><path d="m72.09375 95.6875-72.09375 51.5 1.15625 1.625 72.09375-51.5z"/><path d="m521.71875 95.6875-1.15625 1.625 72.0625 51.5 1.1875-1.625z"/><path d="m508.59375 0v141.65625c0 .84075-.15404.99444-.34375 1.125s-.6817.25-1.34375.25h-163.96875v-3.40625c0-.98465-.33431-2.23236-.84375-3.65625s-1.226-2.95323-2.0625-4.125l-1.625 1.1875c.6605.92523 1.31744 2.29739 1.78125 3.59375s.75 2.58665.75 3v4.40625 1h1 164.96875c.79895 0 1.68821-.0566 2.46875-.59375.78054-.53719 1.21875-1.551 1.21875-2.78125v-141.65625z"/><path d="m83.75 0v141.65625c0 1.23025.438376 2.24404 1.21875 2.78125s1.639007.59375 2.4375.59375h162.90625 1v-1-4.40625c0-.41335.25484-1.70369.71875-3s1.12035-2.66858 1.78125-3.59375l-1.625-1.1875c-.8371 1.17183-1.52166 2.70106-2.03125 4.125s-.84375 2.6716-.84375 3.65625v3.40625h-161.90625c-.661507 0-1.122874-.11946-1.3125-.25s-.34375-.28425-.34375-1.125v-141.65625z"/><path d="m283.71875 157.78125 2.84375 1.84375 5.40625 3.5.25.15625h.28125.0937.25l.21875-.125 6.59375-3.46875-.46875-1.90625h-12.0625-3.40625zm6.78125 2h4.6875l-2.5625 1.375z"/><path d="m250.46875 143.28125v1 2h-.9375-1v1 19.09375 1h1 90.0625 1v-1-19.09375-1h-1-.1875v-2-1h-1-86.9375zm2 2h84.9375v2 1h1 .1875v17.09375h-88.0625v-17.09375h.9375 1v-1z"/><path d="m51 168.375c-2.525722 0-4.59375 2.06909-4.59375 4.59375v16.375c0 2.52611 2.0687 4.59375 4.59375 4.59375h16.375c2.525386 0 4.59375-2.06836 4.59375-4.59375v-16.375c0-2.52539-2.068364-4.59375-4.59375-4.59375zm0 2h16.375c1.444614 0 2.59375 1.14914 2.59375 2.59375v16.375c0 1.44461-1.149136 2.59375-2.59375 2.59375h-16.375c-1.44495 0-2.59375-1.14786-2.59375-2.59375v-16.375c0-1.44334 1.149472-2.59375 2.59375-2.59375z"/><path d="m79.90625 168.375c-2.525722 0-4.59375 2.06909-4.59375 4.59375v16.375c0 2.52611 2.0687 4.59375 4.59375 4.59375h16.34375c2.171308 0 3.93475-1.55981 4.40625-3.59375h.21875v-1-16.375c0-2.52539-2.068364-4.59375-4.59375-4.59375zm0 2h16.375c1.444614 0 2.59375 1.14914 2.59375 2.59375v15.375h-.03125v1c0 1.44461-1.149136 2.59375-2.59375 2.59375h-16.34375c-1.44495 0-2.59375-1.14786-2.59375-2.59375v-16.375c0-1.44334 1.149472-2.59375 2.59375-2.59375z"/><path d="m108.78125 168.375c-2.52572 0-4.59375 2.06909-4.59375 4.59375v16.375c0 2.52611 2.0687 4.59375 4.59375 4.59375h16.375c2.52539 0 4.59375-2.06836 4.59375-4.59375v-16.375c0-2.52539-2.06836-4.59375-4.59375-4.59375zm0 2h16.375c1.44461 0 2.59375 1.14914 2.59375 2.59375v16.375c0 1.44461-1.14914 2.59375-2.59375 2.59375h-16.375c-1.44495 0-2.59375-1.14786-2.59375-2.59375v-16.375c0-1.44334 1.14947-2.59375 2.59375-2.59375z"/><path d="m137.6875 168.375c-2.52572 0-4.59375 2.06909-4.59375 4.59375v16.375c0 2.52611 2.0687 4.59375 4.59375 4.59375h16.375c2.52539 0 4.59375-2.06836 4.59375-4.59375v-16.375c0-2.52539-2.06836-4.59375-4.59375-4.59375zm0 2h16.375c1.44461 0 2.59375 1.14914 2.59375 2.59375v16.375c0 1.44461-1.14914 2.59375-2.59375 2.59375h-16.375c-1.44495 0-2.59375-1.14786-2.59375-2.59375v-16.375c0-1.44334 1.14947-2.59375 2.59375-2.59375z"/><path d="m166.5625 168.375c-2.52572 0-4.59375 2.06909-4.59375 4.59375v16.375c0 2.52611 2.0687 4.59375 4.59375 4.59375h16.375c2.52539 0 4.59375-2.06836 4.59375-4.59375v-16.375c0-2.52539-2.06836-4.59375-4.59375-4.59375zm0 2h16.375c1.44461 0 2.59375 1.14914 2.59375 2.59375v16.375c0 1.44461-1.14914 2.59375-2.59375 2.59375h-16.375c-1.44495 0-2.59375-1.14786-2.59375-2.59375v-16.375c0-1.44334 1.14947-2.59375 2.59375-2.59375z"/><path d="m195.46875 168.375c-2.52572 0-4.59375 2.06909-4.59375 4.59375v16.375c0 2.52611 2.0687 4.59375 4.59375 4.59375h16.375c2.52539 0 4.59375-2.06836 4.59375-4.59375v-16.375c0-2.52539-2.06836-4.59375-4.59375-4.59375zm0 2h16.375c1.44461 0 2.59375 1.14914 2.59375 2.59375v16.375c0 1.44461-1.14914 2.59375-2.59375 2.59375h-16.375c-1.44495 0-2.59375-1.14786-2.59375-2.59375v-16.375c0-1.44334 1.14947-2.59375 2.59375-2.59375z"/><path d="m224.34375 168.375c-2.52572 0-4.59375 2.06909-4.59375 4.59375v16.375c0 2.52611 2.0687 4.59375 4.59375 4.59375h16.375c2.52539 0 4.59375-2.06836 4.59375-4.59375v-16.375c0-2.52539-2.06836-4.59375-4.59375-4.59375zm0 2h16.375c1.44461 0 2.59375 1.14914 2.59375 2.59375v16.375c0 1.44461-1.14914 2.59375-2.59375 2.59375h-16.375c-1.44495 0-2.59375-1.14786-2.59375-2.59375v-16.375c0-1.44334 1.14947-2.59375 2.59375-2.59375z"/><path d="m253.25 168.375c-2.52572 0-4.59375 2.06909-4.59375 4.59375v16.375c0 2.52611 2.0687 4.59375 4.59375 4.59375h16.375c2.52539 0 4.59375-2.06836 4.59375-4.59375v-16.375c0-2.52539-2.06836-4.59375-4.59375-4.59375zm0 2h16.375c1.44461 0 2.59375 1.14914 2.59375 2.59375v16.375c0 1.44461-1.14914 2.59375-2.59375 2.59375h-16.375c-1.44495 0-2.59375-1.14786-2.59375-2.59375v-16.375c0-1.44334 1.14947-2.59375 2.59375-2.59375z"/><path d="m282.125 168.375c-2.52572 0-4.59375 2.06909-4.59375 4.59375v16.375c0 2.52611 2.0687 4.59375 4.59375 4.59375h16.375c2.52539 0 4.59375-2.06836 4.59375-4.59375v-16.375c0-2.52572-2.06909-4.59375-4.59375-4.59375zm0 2h16.375c1.44334 0 2.59375 1.14947 2.59375 2.59375v16.375c0 1.44461-1.14914 2.59375-2.59375 2.59375h-16.375c-1.44495 0-2.59375-1.14786-2.59375-2.59375v-16.375c0-1.44334 1.14947-2.59375 2.59375-2.59375z"/><path d="m311.03125 168.375c-2.52572 0-4.59375 2.06909-4.59375 4.59375v16.375c0 2.52645 2.06943 4.59375 4.59375 4.59375h16.375c2.52611 0 4.59375-2.06836 4.59375-4.59375v-16.375c0-2.52572-2.06836-4.59375-4.59375-4.59375zm0 2h16.375c1.44461 0 2.59375 1.14947 2.59375 2.59375v16.375c0 1.44461-1.14786 2.59375-2.59375 2.59375h-16.375c-1.44368 0-2.59375-1.1482-2.59375-2.59375v-16.375c0-1.44334 1.14947-2.59375 2.59375-2.59375z"/><path d="m339.9375 168.375c-2.52645 0-4.625 2.06909-4.625 4.59375v16.375c0 2.52645 2.09995 4.59375 4.625 4.59375h16.34375c2.52611 0 4.59375-2.0687 4.59375-4.59375v-16.375c0-2.52539-2.06836-4.59375-4.59375-4.59375zm0 2h16.34375c1.44461 0 2.59375 1.14914 2.59375 2.59375v16.375c0 1.44495-1.14786 2.59375-2.59375 2.59375h-16.34375c-1.44495 0-2.625-1.1482-2.625-2.59375v-16.375c0-1.44334 1.17945-2.59375 2.625-2.59375z"/><path d="m368.8125 168.375c-2.52572 0-4.59375 2.06909-4.59375 4.59375v16.375c0 2.52645 2.06943 4.59375 4.59375 4.59375h16.375c2.52539 0 4.59375-2.06803 4.59375-4.59375v-16.375c0-2.52606-2.06909-4.59375-4.59375-4.59375zm0 2h16.375c1.44334 0 2.59375 1.14981 2.59375 2.59375v16.375c0 1.44428-1.14914 2.59375-2.59375 2.59375h-16.375c-1.44368 0-2.59375-1.1482-2.59375-2.59375v-16.375c0-1.44334 1.14947-2.59375 2.59375-2.59375z"/><path d="m397.71875 168.375c-2.52645 0-4.59375 2.06909-4.59375 4.59375v16.375c0 2.52645 2.0687 4.59375 4.59375 4.59375h16.375c2.52611 0 4.59375-2.06836 4.59375-4.59375v-16.375c0-2.52572-2.06836-4.59375-4.59375-4.59375zm0 2h16.375c1.44461 0 2.59375 1.14947 2.59375 2.59375v16.375c0 1.44461-1.14786 2.59375-2.59375 2.59375h-16.375c-1.44495 0-2.59375-1.1482-2.59375-2.59375v-16.375c0-1.44334 1.1482-2.59375 2.59375-2.59375z"/><path d="m426.59375 168.375c-2.52572 0-4.59375 2.06909-4.59375 4.59375v16.375c0 2.52645 2.06943 4.59375 4.59375 4.59375h16.375c2.52611 0 4.59375-2.06836 4.59375-4.59375v-16.375c0-2.52572-2.06836-4.59375-4.59375-4.59375zm0 2h16.375c1.44461 0 2.59375 1.14947 2.59375 2.59375v16.375c0 1.44461-1.14786 2.59375-2.59375 2.59375h-16.375c-1.44368 0-2.59375-1.1482-2.59375-2.59375v-16.375c0-1.44334 1.14947-2.59375 2.59375-2.59375z"/><path d="m455.5 168.375c-2.52572 0-4.59375 2.06909-4.59375 4.59375v16.375c0 2.52645 2.06943 4.59375 4.59375 4.59375h16.375c2.52539 0 4.59375-2.06803 4.59375-4.59375v-16.375c0-2.52606-2.06909-4.59375-4.59375-4.59375zm0 2h16.375c1.44334 0 2.59375 1.14981 2.59375 2.59375v16.375c0 1.44428-1.14914 2.59375-2.59375 2.59375h-16.375c-1.44368 0-2.59375-1.1482-2.59375-2.59375v-16.375c0-1.44334 1.14947-2.59375 2.59375-2.59375z"/><path d="m58.1875 222c-2.525722 0-4.59375 2.06836-4.59375 4.59375v16.375c0 2.52611 2.068364 4.59375 4.59375 4.59375h30.4375c2.171596 0 3.934816-1.55961 4.40625-3.59375h.1875v-1-16.375c0-2.52611-2.068364-4.59375-4.59375-4.59375zm0 2h30.4375c1.444614 0 2.59375 1.14786 2.59375 2.59375v15.375 1c0 1.44461-1.149472 2.59375-2.59375 2.59375h-30.4375c-1.444614 0-2.59375-1.14786-2.59375-2.59375v-16.375c0-1.44461 1.149472-2.59375 2.59375-2.59375z"/><path d="m101.15625 222c-2.525722 0-4.59375 2.06836-4.59375 4.59375v16.375c0 2.52611 2.068364 4.59375 4.59375 4.59375h16.375c2.52572 0 4.59375-2.06836 4.59375-4.59375v-16.375c0-2.52611-2.06836-4.59375-4.59375-4.59375zm0 2h16.375c1.44461 0 2.59375 1.14786 2.59375 2.59375v16.375c0 1.44461-1.14947 2.59375-2.59375 2.59375h-16.375c-1.444614 0-2.59375-1.14786-2.59375-2.59375v-16.375c0-1.44461 1.149472-2.59375 2.59375-2.59375z"/><path d="m130.0625 222c-2.52572 0-4.59375 2.06836-4.59375 4.59375v16.375c0 2.52645 2.06909 4.59375 4.59375 4.59375h16.375c2.52572 0 4.59375-2.06836 4.59375-4.59375v-16.375c0-2.52611-2.06836-4.59375-4.59375-4.59375zm0 2h16.375c1.44461 0 2.59375 1.14786 2.59375 2.59375v16.375c0 1.44461-1.14947 2.59375-2.59375 2.59375h-16.375c-1.44334 0-2.59375-1.1482-2.59375-2.59375v-16.375c0-1.44461 1.14947-2.59375 2.59375-2.59375z"/><path d="m158.9375 222c-2.52572 0-4.59375 2.06836-4.59375 4.59375v16.375c0 2.52611 2.06836 4.59375 4.59375 4.59375h16.375c2.52572 0 4.59375-2.06836 4.59375-4.59375v-16.375c0-2.52611-2.06836-4.59375-4.59375-4.59375zm0 2h16.375c1.44461 0 2.59375 1.14786 2.59375 2.59375v16.375c0 1.44461-1.14947 2.59375-2.59375 2.59375h-16.375c-1.44461 0-2.59375-1.14786-2.59375-2.59375v-16.375c0-1.44461 1.14947-2.59375 2.59375-2.59375z"/><path d="m187.84375 222c-2.52572 0-4.59375 2.06836-4.59375 4.59375v16.375c0 2.52611 2.06836 4.59375 4.59375 4.59375h16.375c2.52572 0 4.59375-2.06836 4.59375-4.59375v-16.375c0-2.52611-2.06836-4.59375-4.59375-4.59375zm0 2h16.375c1.44461 0 2.59375 1.14786 2.59375 2.59375v16.375c0 1.44461-1.14947 2.59375-2.59375 2.59375h-16.375c-1.44461 0-2.59375-1.14786-2.59375-2.59375v-16.375c0-1.44461 1.14947-2.59375 2.59375-2.59375z"/><path d="m216.71875 222c-2.52572 0-4.59375 2.06836-4.59375 4.59375v16.375c0 2.52611 2.06836 4.59375 4.59375 4.59375h16.375c2.52572 0 4.59375-2.06836 4.59375-4.59375v-16.375c0-2.52611-2.06836-4.59375-4.59375-4.59375zm0 2h16.375c1.44461 0 2.59375 1.14786 2.59375 2.59375v16.375c0 1.44461-1.14947 2.59375-2.59375 2.59375h-16.375c-1.44461 0-2.59375-1.14786-2.59375-2.59375v-16.375c0-1.44461 1.14947-2.59375 2.59375-2.59375z"/><path d="m245.625 222c-2.52572 0-4.59375 2.06836-4.59375 4.59375v16.375c0 2.52611 2.06836 4.59375 4.59375 4.59375h16.375c2.52572 0 4.59375-2.06836 4.59375-4.59375v-16.375c0-2.52611-2.06836-4.59375-4.59375-4.59375zm0 2h16.375c1.44461 0 2.59375 1.14786 2.59375 2.59375v16.375c0 1.44461-1.14947 2.59375-2.59375 2.59375h-16.375c-1.44461 0-2.59375-1.14786-2.59375-2.59375v-16.375c0-1.44461 1.14947-2.59375 2.59375-2.59375z"/><path d="m274.5 222c-2.52572 0-4.59375 2.06836-4.59375 4.59375v16.375c0 2.52611 2.06836 4.59375 4.59375 4.59375h16.375c2.52499 0 4.59375-2.06803 4.59375-4.59375v-1-15.375c0-2.52645-2.06909-4.59375-4.59375-4.59375zm0 2h16.375c1.44334 0 2.59375 1.1482 2.59375 2.59375v16.375c0 1.44428-1.15074 2.59375-2.59375 2.59375h-16.375c-1.44461 0-2.59375-1.14786-2.59375-2.59375v-16.375c0-1.44461 1.14947-2.59375 2.59375-2.59375z"/><path d="m303.40625 222c-2.52572 0-4.59375 2.06836-4.59375 4.59375v16.375c0 2.52645 2.06909 4.59375 4.59375 4.59375h16.375c2.52645 0 4.59375-2.06836 4.59375-4.59375v-16.375c0-2.52645-2.06836-4.59375-4.59375-4.59375zm0 2h16.375c1.44461 0 2.59375 1.1482 2.59375 2.59375v16.375c0 1.44461-1.1482 2.59375-2.59375 2.59375h-16.375c-1.44334 0-2.59375-1.1482-2.59375-2.59375v-16.375c0-1.44461 1.14947-2.59375 2.59375-2.59375z"/><path d="m332.28125 222c-2.52645 0-4.59375 2.06836-4.59375 4.59375v16.375c0 2.52645 2.06836 4.59375 4.59375 4.59375h16.375c2.52572 0 4.59375-2.06836 4.59375-4.59375v-16.375c0-2.52645-2.06909-4.59375-4.59375-4.59375zm0 2h16.375c1.44334 0 2.59375 1.1482 2.59375 2.59375v16.375c0 1.44461-1.14947 2.59375-2.59375 2.59375h-16.375c-1.44461 0-2.59375-1.1482-2.59375-2.59375v-16.375c0-1.44461 1.1482-2.59375 2.59375-2.59375z"/><path d="m361.1875 222c-2.52572 0-4.59375 2.06836-4.59375 4.59375v16.375c0 2.52645 2.06909 4.59375 4.59375 4.59375h16.375c2.52572 0 4.59375-2.06836 4.59375-4.59375v-16.375c0-2.52645-2.06909-4.59375-4.59375-4.59375zm0 2h16.375c1.44334 0 2.59375 1.1482 2.59375 2.59375v16.375c0 1.44461-1.14947 2.59375-2.59375 2.59375h-16.375c-1.44334 0-2.59375-1.1482-2.59375-2.59375v-16.375c0-1.44461 1.14947-2.59375 2.59375-2.59375z"/><path d="m390.09375 222c-2.52572 0-4.625 2.06803-4.625 4.59375v16.375c0 2.52679 2.10034 4.59375 4.625 4.59375h16.34375c2.52572 0 4.625-2.06836 4.625-4.59375v-16.375c0-2.52645-2.10034-4.59375-4.625-4.59375zm0 2h16.34375c1.44334 0 2.625 1.1482 2.625 2.59375v16.375c0 1.44461-1.18072 2.59375-2.625 2.59375h-16.34375c-1.44334 0-2.625-1.14854-2.625-2.59375v-16.375c0-1.44428 1.18072-2.59375 2.625-2.59375z"/><path d="m418.96875 222c-2.52572 0-4.59375 2.06836-4.59375 4.59375v16.375c0 2.52645 2.06909 4.59375 4.59375 4.59375h16.375c2.52645 0 4.59375-2.06836 4.59375-4.59375v-16.375c0-2.52645-2.06836-4.59375-4.59375-4.59375zm0 2h16.375c1.44461 0 2.59375 1.1482 2.59375 2.59375v16.375c0 1.44461-1.1482 2.59375-2.59375 2.59375h-16.375c-1.44334 0-2.59375-1.1482-2.59375-2.59375v-16.375c0-1.44461 1.14947-2.59375 2.59375-2.59375z"/><path d="m447.875 222c-2.52572 0-4.59375 2.06836-4.59375 4.59375v16.375c0 2.52645 2.06909 4.59375 4.59375 4.59375h16.375c2.52645 0 4.59375-2.06836 4.59375-4.59375v-16.375c0-2.52645-2.06836-4.59375-4.59375-4.59375zm0 2h16.375c1.44461 0 2.59375 1.1482 2.59375 2.59375v16.375c0 1.44461-1.1482 2.59375-2.59375 2.59375h-16.375c-1.44334 0-2.59375-1.1482-2.59375-2.59375v-16.375c0-1.44461 1.14947-2.59375 2.59375-2.59375z"/><path d="m58.5 249.25c-2.525722 0-4.59375 2.06836-4.59375 4.59375v16.375c0 2.52611 2.068364 4.59375 4.59375 4.59375h41.8125c2.52572 0 4.59375-2.06836 4.59375-4.59375v-16.375c0-2.52611-2.06836-4.59375-4.59375-4.59375zm0 2h41.8125c1.44461 0 2.59375 1.14786 2.59375 2.59375v16.375c0 1.44461-1.14947 2.59375-2.59375 2.59375h-41.8125c-1.444614 0-2.59375-1.14786-2.59375-2.59375v-16.375c0-1.44461 1.149472-2.59375 2.59375-2.59375z"/><path d="m130.96875 277.84375c-2.52572 0-4.59375 2.06836-4.59375 4.59375v16.375c0 2.52572 2.06909 4.59375 4.59375 4.59375h246.6875c2.52645 0 4.59375-2.06909 4.59375-4.59375v-16.375c0-2.52645-2.06836-4.59375-4.59375-4.59375zm0 2h246.6875c1.44461 0 2.59375 1.1482 2.59375 2.59375v16.375c0 1.44334-1.1482 2.59375-2.59375 2.59375h-246.6875c-1.44334 0-2.59375-1.14947-2.59375-2.59375v-16.375c0-1.44461 1.14947-2.59375 2.59375-2.59375z"/><path d="m112.84375 249.25c-2.52572 0-4.59375 2.06836-4.59375 4.59375v16.375c0 2.52611 2.06836 4.59375 4.59375 4.59375h16.375c2.52572 0 4.59375-2.06836 4.59375-4.59375v-16.375c0-2.52611-2.06836-4.59375-4.59375-4.59375zm0 2h16.375c1.44461 0 2.59375 1.14786 2.59375 2.59375v16.375c0 1.44461-1.14947 2.59375-2.59375 2.59375h-16.375c-1.44461 0-2.59375-1.14786-2.59375-2.59375v-16.375c0-1.44461 1.14947-2.59375 2.59375-2.59375z"/><path d="m141.71875 249.25c-2.52572 0-4.59375 2.06836-4.59375 4.59375v16.375c0 2.52611 2.06836 4.59375 4.59375 4.59375h16.375c2.52572 0 4.59375-2.06836 4.59375-4.59375v-16.375c0-2.52611-2.06836-4.59375-4.59375-4.59375zm0 2h16.375c1.44461 0 2.59375 1.14786 2.59375 2.59375v16.375c0 1.44461-1.14947 2.59375-2.59375 2.59375h-16.375c-1.44461 0-2.59375-1.14786-2.59375-2.59375v-16.375c0-1.44461 1.14947-2.59375 2.59375-2.59375z"/><path d="m170.625 249.25c-2.52572 0-4.59375 2.06836-4.59375 4.59375v16.375c0 2.52611 2.06836 4.59375 4.59375 4.59375h16.375c2.52572 0 4.59375-2.06836 4.59375-4.59375v-16.375c0-2.52611-2.06836-4.59375-4.59375-4.59375zm0 2h16.375c1.44461 0 2.59375 1.14786 2.59375 2.59375v16.375c0 1.44461-1.14947 2.59375-2.59375 2.59375h-16.375c-1.44461 0-2.59375-1.14786-2.59375-2.59375v-16.375c0-1.44461 1.14947-2.59375 2.59375-2.59375z"/><path d="m199.5 249.25c-2.52572 0-4.59375 2.06836-4.59375 4.59375v16.375c0 2.52611 2.06836 4.59375 4.59375 4.59375h16.375c2.52572 0 4.59375-2.06836 4.59375-4.59375v-16.375c0-2.52611-2.06836-4.59375-4.59375-4.59375zm0 2h16.375c1.44461 0 2.59375 1.14786 2.59375 2.59375v16.375c0 1.44461-1.14947 2.59375-2.59375 2.59375h-16.375c-1.44461 0-2.59375-1.14786-2.59375-2.59375v-16.375c0-1.44461 1.14947-2.59375 2.59375-2.59375z"/><path d="m228.40625 249.25c-2.52572 0-4.59375 2.06836-4.59375 4.59375v16.375c0 2.52611 2.06836 4.59375 4.59375 4.59375h16.375c2.52572 0 4.59375-2.06836 4.59375-4.59375v-16.375c0-2.52611-2.06836-4.59375-4.59375-4.59375zm0 2h16.375c1.44461 0 2.59375 1.14786 2.59375 2.59375v16.375c0 1.44461-1.14947 2.59375-2.59375 2.59375h-16.375c-1.44461 0-2.59375-1.14786-2.59375-2.59375v-16.375c0-1.44461 1.14947-2.59375 2.59375-2.59375z"/><path d="m257.3125 249.25c-2.52572 0-4.59375 2.06836-4.59375 4.59375v16.375c0 2.52611 2.06836 4.59375 4.59375 4.59375h16.375c2.52572 0 4.59375-2.06836 4.59375-4.59375v-16.375c0-2.52611-2.06836-4.59375-4.59375-4.59375zm0 2h16.375c1.44461 0 2.59375 1.14786 2.59375 2.59375v16.375c0 1.44461-1.14947 2.59375-2.59375 2.59375h-16.375c-1.44461 0-2.59375-1.14786-2.59375-2.59375v-16.375c0-1.44461 1.14947-2.59375 2.59375-2.59375z"/><path d="m286.1875 249.25c-2.52572 0-4.59375 2.06836-4.59375 4.59375v16.375c0 2.52611 2.06836 4.59375 4.59375 4.59375h16.375c2.52645 0 4.59375-2.06836 4.59375-4.59375v-16.375c0-2.52645-2.06836-4.59375-4.59375-4.59375zm0 2h16.375c1.44461 0 2.59375 1.1482 2.59375 2.59375v16.375c0 1.44461-1.1482 2.59375-2.59375 2.59375h-16.375c-1.44461 0-2.59375-1.14786-2.59375-2.59375v-16.375c0-1.44461 1.14947-2.59375 2.59375-2.59375z"/><path d="m315.09375 249.25c-2.52572 0-4.59375 2.06836-4.59375 4.59375v16.375c0 2.52645 2.06909 4.59375 4.59375 4.59375h16.375c2.52645 0 4.59375-2.0687 4.59375-4.59375v-16.375c0-2.52611-2.06836-4.59375-4.59375-4.59375zm0 2h16.375c1.44461 0 2.59375 1.14786 2.59375 2.59375v16.375c0 1.44495-1.1482 2.59375-2.59375 2.59375h-16.375c-1.44334 0-2.59375-1.1482-2.59375-2.59375v-16.375c0-1.44461 1.14947-2.59375 2.59375-2.59375z"/><path d="m343.96875 249.25c-2.52572 0-4.59375 2.06836-4.59375 4.59375v16.375c0 2.52645 2.06909 4.59375 4.59375 4.59375h16.375c2.52572 0 4.59375-2.06836 4.59375-4.59375v-16.375c0-2.52645-2.06909-4.59375-4.59375-4.59375zm0 2h16.375c1.44334 0 2.59375 1.1482 2.59375 2.59375v16.375c0 1.44461-1.14947 2.59375-2.59375 2.59375h-16.375c-1.44334 0-2.59375-1.1482-2.59375-2.59375v-16.375c0-1.44461 1.14947-2.59375 2.59375-2.59375z"/><path d="m372.875 249.25c-2.52645 0-4.59375 2.06836-4.59375 4.59375v16.375c0 2.52645 2.06836 4.59375 4.59375 4.59375h16.375c2.52645 0 4.59375-2.06836 4.59375-4.59375v-16.375c0-2.52645-2.06836-4.59375-4.59375-4.59375zm0 2h16.375c1.44461 0 2.59375 1.1482 2.59375 2.59375v16.375c0 1.44461-1.1482 2.59375-2.59375 2.59375h-16.375c-1.44461 0-2.59375-1.1482-2.59375-2.59375v-16.375c0-1.44461 1.1482-2.59375 2.59375-2.59375z"/><path d="m401.75 249.25c-2.52572 0-4.59375 2.06836-4.59375 4.59375v16.375c0 2.52645 2.06909 4.59375 4.59375 4.59375h16.375c2.52645 0 4.59375-2.06836 4.59375-4.59375v-16.375c0-2.52645-2.06836-4.59375-4.59375-4.59375zm0 2h16.375c1.44461 0 2.59375 1.1482 2.59375 2.59375v16.375c0 1.44461-1.1482 2.59375-2.59375 2.59375h-16.375c-1.44334 0-2.59375-1.1482-2.59375-2.59375v-16.375c0-1.44461 1.14947-2.59375 2.59375-2.59375z"/><path d="m430.65625 249.25c-2.52645 0-4.59375 2.0687-4.59375 4.59375v16.375c0 2.52611 2.06836 4.59375 4.59375 4.59375h34.34375c2.52645 0 4.59375-2.06836 4.59375-4.59375v-16.375c0-2.52645-2.06836-4.59375-4.59375-4.59375zm0 2h34.34375c1.44461 0 2.59375 1.1482 2.59375 2.59375v16.375c0 1.44461-1.1482 2.59375-2.59375 2.59375h-34.34375c-1.44461 0-2.59375-1.14786-2.59375-2.59375v-16.375c0-1.44495 1.1482-2.59375 2.59375-2.59375z"/><path d="m51 194.71875c-2.525722 0-4.59375 2.06909-4.59375 4.59375v16.375c0 2.52539 2.068364 4.59375 4.59375 4.59375h29.25c2.525722 0 4.59375-2.06909 4.59375-4.59375v-16.375c0-2.52539-2.068364-4.59375-4.59375-4.59375zm0 2h29.25c1.444614 0 2.59375 1.14914 2.59375 2.59375v16.375c0 1.44334-1.149472 2.59375-2.59375 2.59375h-29.25c-1.444614 0-2.59375-1.14914-2.59375-2.59375v-16.375c0-1.44334 1.149472-2.59375 2.59375-2.59375z"/><path d="m92.78125 194.71875c-2.525722 0-4.59375 2.06909-4.59375 4.59375v16.375c0 2.52539 2.068364 4.59375 4.59375 4.59375h16.375c2.17065 0 3.90258-1.56145 4.375-3.59375h.21875v-1-16.375c0-2.52539-2.06836-4.59375-4.59375-4.59375zm0 2h16.375c1.44461 0 2.59375 1.14914 2.59375 2.59375v15.375 1c0 1.44334-1.14947 2.59375-2.59375 2.59375h-16.375c-1.444614 0-2.59375-1.14914-2.59375-2.59375v-16.375c0-1.44334 1.149472-2.59375 2.59375-2.59375z"/><path d="m121.65625 194.71875c-2.52572 0-4.59375 2.06909-4.59375 4.59375v16.375c0 2.52539 2.06836 4.59375 4.59375 4.59375h16.375c2.52572 0 4.59375-2.06909 4.59375-4.59375v-16.375c0-2.52539-2.06836-4.59375-4.59375-4.59375zm0 2h16.375c1.44461 0 2.59375 1.14914 2.59375 2.59375v16.375c0 1.44334-1.14947 2.59375-2.59375 2.59375h-16.375c-1.44461 0-2.59375-1.14914-2.59375-2.59375v-16.375c0-1.44334 1.14947-2.59375 2.59375-2.59375z"/><path d="m150.5625 194.71875c-2.52572 0-4.59375 2.06909-4.59375 4.59375v16.375c0 2.52539 2.06836 4.59375 4.59375 4.59375h16.375c2.52572 0 4.59375-2.06909 4.59375-4.59375v-16.375c0-2.52539-2.06836-4.59375-4.59375-4.59375zm0 2h16.375c1.44461 0 2.59375 1.14914 2.59375 2.59375v16.375c0 1.44334-1.14947 2.59375-2.59375 2.59375h-16.375c-1.44461 0-2.59375-1.14914-2.59375-2.59375v-16.375c0-1.44334 1.14947-2.59375 2.59375-2.59375z"/><path d="m179.4375 194.71875c-2.52572 0-4.59375 2.06909-4.59375 4.59375v16.375c0 2.52539 2.06836 4.59375 4.59375 4.59375h16.375c2.52572 0 4.59375-2.06909 4.59375-4.59375v-16.375c0-2.52539-2.06836-4.59375-4.59375-4.59375zm0 2h16.375c1.44461 0 2.59375 1.14914 2.59375 2.59375v16.375c0 1.44334-1.14947 2.59375-2.59375 2.59375h-16.375c-1.44461 0-2.59375-1.14914-2.59375-2.59375v-16.375c0-1.44334 1.14947-2.59375 2.59375-2.59375z"/><path d="m208.34375 194.71875c-2.52572 0-4.59375 2.06909-4.59375 4.59375v16.375c0 2.52539 2.06836 4.59375 4.59375 4.59375h16.375c2.52572 0 4.59375-2.06909 4.59375-4.59375v-16.375c0-2.52539-2.06836-4.59375-4.59375-4.59375zm0 2h16.375c1.44461 0 2.59375 1.14914 2.59375 2.59375v16.375c0 1.44334-1.14947 2.59375-2.59375 2.59375h-16.375c-1.44461 0-2.59375-1.14914-2.59375-2.59375v-16.375c0-1.44334 1.14947-2.59375 2.59375-2.59375z"/><path d="m237.21875 194.71875c-2.52572 0-4.59375 2.06909-4.59375 4.59375v16.375c0 2.52539 2.06836 4.59375 4.59375 4.59375h16.375c2.52572 0 4.59375-2.06909 4.59375-4.59375v-16.375c0-2.52539-2.06836-4.59375-4.59375-4.59375zm0 2h16.375c1.44461 0 2.59375 1.14914 2.59375 2.59375v16.375c0 1.44334-1.14947 2.59375-2.59375 2.59375h-16.375c-1.44461 0-2.59375-1.14914-2.59375-2.59375v-16.375c0-1.44334 1.14947-2.59375 2.59375-2.59375z"/><path d="m266.125 194.71875c-2.52572 0-4.59375 2.06909-4.59375 4.59375v16.375c0 2.52539 2.06836 4.59375 4.59375 4.59375h16.375c2.52572 0 4.59375-2.06909 4.59375-4.59375v-16.375c0-2.52539-2.06836-4.59375-4.59375-4.59375zm0 2h16.375c1.44461 0 2.59375 1.14914 2.59375 2.59375v16.375c0 1.44334-1.14947 2.59375-2.59375 2.59375h-16.375c-1.44461 0-2.59375-1.14914-2.59375-2.59375v-16.375c0-1.44334 1.14947-2.59375 2.59375-2.59375z"/><path d="m295 194.71875c-2.52572 0-4.59375 2.06909-4.59375 4.59375v16.375c0 2.52572 2.06909 4.59375 4.59375 4.59375h16.375c2.52645 0 4.59375-2.06943 4.59375-4.59375v-16.375c0-2.52539-2.06836-4.59375-4.59375-4.59375zm0 2h16.375c1.44461 0 2.59375 1.14914 2.59375 2.59375v16.375c0 1.44368-1.1482 2.59375-2.59375 2.59375h-16.375c-1.44334 0-2.59375-1.14947-2.59375-2.59375v-16.375c0-1.44334 1.14947-2.59375 2.59375-2.59375z"/><path d="m323.90625 194.71875c-2.52572 0-4.59375 2.06909-4.59375 4.59375v16.375c0 2.52572 2.06909 4.59375 4.59375 4.59375h16.375c2.52572 0 4.59375-2.06909 4.59375-4.59375v-16.375c0-2.52572-2.06909-4.59375-4.59375-4.59375zm0 2h16.375c1.44334 0 2.59375 1.14947 2.59375 2.59375v16.375c0 1.44334-1.14947 2.59375-2.59375 2.59375h-16.375c-1.44334 0-2.59375-1.14947-2.59375-2.59375v-16.375c0-1.44334 1.14947-2.59375 2.59375-2.59375z"/><path d="m352.8125 194.71875c-2.52645 0-4.59375 2.06909-4.59375 4.59375v16.375c0 2.52572 2.06836 4.59375 4.59375 4.59375h16.375c2.52645 0 4.59375-2.06909 4.59375-4.59375v-16.375c0-2.52572-2.06836-4.59375-4.59375-4.59375zm0 2h16.375c1.44461 0 2.59375 1.14947 2.59375 2.59375v16.375c0 1.44334-1.1482 2.59375-2.59375 2.59375h-16.375c-1.44461 0-2.59375-1.14947-2.59375-2.59375v-16.375c0-1.44334 1.1482-2.59375 2.59375-2.59375z"/><path d="m381.6875 194.71875c-2.52572 0-4.59375 2.06909-4.59375 4.59375v16.375c0 2.52572 2.06909 4.59375 4.59375 4.59375h16.375c2.52572 0 4.59375-2.06876 4.59375-4.59375v-16.375c0-2.52606-2.06909-4.59375-4.59375-4.59375zm0 2h16.375c1.44334 0 2.59375 1.14981 2.59375 2.59375v16.375c0 1.44301-1.14947 2.59375-2.59375 2.59375h-16.375c-1.44334 0-2.59375-1.14947-2.59375-2.59375v-16.375c0-1.44334 1.14947-2.59375 2.59375-2.59375z"/><path d="m410.59375 194.71875c-2.52645 0-4.59375 2.06909-4.59375 4.59375v16.375c0 2.52572 2.06836 4.59375 4.59375 4.59375h16.375c2.52572 0 4.59375-2.06909 4.59375-4.59375v-16.375c0-2.52572-2.06909-4.59375-4.59375-4.59375zm0 2h16.375c1.44334 0 2.59375 1.14947 2.59375 2.59375v16.375c0 1.44334-1.14947 2.59375-2.59375 2.59375h-16.375c-1.44461 0-2.59375-1.14947-2.59375-2.59375v-16.375c0-1.44334 1.1482-2.59375 2.59375-2.59375z"/><path d="m439.46875 194.71875c-2.52645 0-4.59375 2.06943-4.59375 4.59375v16.375c0 2.52539 2.06836 4.59375 4.59375 4.59375h32.84375c2.52572 0 4.59375-2.06909 4.59375-4.59375v-16.375c0-2.52572-2.06909-4.59375-4.59375-4.59375zm0 2h32.84375c1.44334 0 2.59375 1.14947 2.59375 2.59375v16.375c0 1.44334-1.14947 2.59375-2.59375 2.59375h-32.84375c-1.44461 0-2.59375-1.14914-2.59375-2.59375v-16.375c0-1.44368 1.1482-2.59375 2.59375-2.59375z"/><path d="m501.15625 165.6875v1 140.3125 1h1 44.03125 1v-1-140.3125-1h-1-44.03125zm2 2h42.03125v138.3125h-42.03125z"/><path d="m503.5 167.78125v1 25.4375 1h1 39.375 1v-1-25.4375-1h-1-39.375zm2 2h37.375v23.4375h-37.375z"/><path d="m503.5 195.375v1 25.46875 1h1 39.375 1v-1-25.46875-1h-1-39.375zm2 2h37.375v23.46875h-37.375z"/><path d="m503.5 223v1 25.46875 1h1 39.375 1v-1-25.46875-1h-1-39.375zm2 2h37.375v23.46875h-37.375z"/><path d="m503.5 250.59375v1 25.46875 1h1 39.375 1v-1-25.46875-1h-1-39.375zm2 2h37.375v23.46875h-37.375z"/><path d="m503.5 278.21875v1 25.46875 1h1 39.375 1v-1-25.46875-1h-1-39.375zm2 2h37.375v23.46875h-37.375z"/></g></svg>