<svg height="350.99329" viewBox="0 0 158.45508 92.866976" width="598.88538" xmlns="http://www.w3.org/2000/svg"><g fill="#fff" transform="matrix(1.0767869 0 0 1.0767869 42.377272 -274.325063)"><path d="m-4.6386719 263.82031c-2.5214825 0-4.5605469 2.03905-4.5605469 4.56055v5.74023 1.67188 52.05078c0 2.19516 1.7755492 3.97266 3.9707032 3.97266h79.0722656c2.195174 0 3.972656-1.7775 3.972656-3.97266v-53.72266c0-2.19516-1.777481-3.97265-3.972656-3.97265h-49.027344-1.060547c-1.181533 0-3.070121-.80679-3.759765-3.13282-.390656-1.31764-1.347453-2.12387-2.265625-2.58789-.918173-.46402-1.773508-.60546-2.166016-.60546-5.456165.00032-15.3944381-.002-19.9101561-.002zm0 .58789c4.41490851 0 14.6664669.002 20.2031249.002.221904 0 1.077879.12534 1.900391.54101.822511.41568 1.633532 1.10177 1.96875 2.23242.762148 2.57056 2.874327 3.55274 4.322265 3.55274h1.060547 49.027344c1.879849 0 3.384766 1.50493 3.384766 3.38476v53.72266c0 1.87984-1.504916 3.38477-3.384766 3.38477h-79.0722656c-1.8798266 0-3.3847656-1.50493-3.3847656-3.38477v-52.05078-1.67188-5.74023c0-2.20618 1.7684479-3.97266 3.9746093-3.97266z"/><path d="m-4.4707031 274.22266c-2.6150163 0-4.7304688 2.11544-4.7304688 4.73046v7.34571 31.83789 4.97851h.5878907v-4.97851-31.83789-7.34571c0-2.29969 1.8428966-4.14257 4.1425781-4.14257h77.5566411c2.299703 0 4.142578 1.84288 4.142578 4.14257v7.34571 31.83789 4.97851h.58789v-4.97851-31.83789-7.34571c0-2.61502-2.115432-4.73046-4.730468-4.73046z"/><path d="m-9.0214844 324.76172v.11523 2.19727h86.6582034v-2.3125zm.2285156.22851h86.2011718v1.85547h-86.2011718z"/><path d="m-9.0214844 326.8457v.11524 1.92187h86.6582034v-2.03711zm.2285156.22852h86.2011718v1.58008h-86.2011718z"/><path d="m34.428948 278.7628a1.2787873 1.2787873 0 0 0 -1.165821.70538l-6.156213 12.27006-13.596068 1.88463a1.2787873 1.2787873 0 0 0 -.72347 2.17765l9.767362 9.64644-2.408121 13.51338a1.2787873 1.2787873 0 0 0 1.845881 1.36013l12.190987-6.30918 12.109856 6.46731a1.2787873 1.2787873 0 0 0 1.865-1.33635l-2.233454-13.54388 9.891903-9.51673a1.2787873 1.2787873 0 0 0 -.69505-2.18592l-13.570746-2.06344-5.994466-12.34911a1.2787873 1.2787873 0 0 0 -1.12758-.72037zm-.02325 1.27951 6.288505 12.95321 14.23634 2.16318-10.376627 9.98388 2.341975 14.20792-12.70155-6.78356-12.788883 6.61768 2.526461-14.17588-10.245886-10.11773 14.263211-1.97817z"/></g></svg>