<svg height="350.99329" viewBox="0 0 158.45508 92.866976" width="598.88538" xmlns="http://www.w3.org/2000/svg"><g fill="#fff" stroke-width="1.24834"><g transform="matrix(1.07678604695 0 0 1.07678604695 42.28557571174 -274.25315048979)"><path d="m-4.6386719 263.82031c-2.5214825 0-4.5605469 2.03905-4.5605469 4.56055v5.74023 1.67188 52.05078c0 2.19516 1.7755492 3.97266 3.9707032 3.97266h79.0722656c2.195174 0 3.972656-1.7775 3.972656-3.97266v-53.72266c0-2.19516-1.777481-3.97265-3.972656-3.97265h-49.027344-1.060547c-1.181533 0-3.070121-.80679-3.759765-3.13282-.390656-1.31764-1.347453-2.12387-2.265625-2.58789-.918173-.46402-1.773508-.60546-2.166016-.60546-5.456165.00032-15.3944381-.002-19.9101561-.002zm0 .58789c4.41490851 0 14.6664669.002 20.2031249.002.221904 0 1.077879.12534 1.900391.54101.822511.41568 1.633532 1.10177 1.96875 2.23242.762148 2.57056 2.874327 3.55274 4.322265 3.55274h1.060547 49.027344c1.879849 0 3.384766 1.50493 3.384766 3.38476v53.72266c0 1.87984-1.504916 3.38477-3.384766 3.38477h-79.0722656c-1.8798266 0-3.3847656-1.50493-3.3847656-3.38477v-52.05078-1.67188-5.74023c0-2.20618 1.7684479-3.97266 3.9746093-3.97266z"/><path d="m-4.4707031 274.22266c-2.6150163 0-4.7304688 2.11544-4.7304688 4.73046v7.34571 31.83789 4.97851h.5878907v-4.97851-31.83789-7.34571c0-2.29969 1.8428966-4.14257 4.1425781-4.14257h77.5566411c2.299703 0 4.142578 1.84288 4.142578 4.14257v7.34571 31.83789 4.97851h.58789v-4.97851-31.83789-7.34571c0-2.61502-2.115432-4.73046-4.730468-4.73046z"/><path d="m-9.0214844 324.76172v.11523 2.19727h86.6582034v-2.3125zm.2285156.22851h86.2011718v1.85547h-86.2011718z"/><path d="m-9.0214844 326.8457v.11524 1.92187h86.6582034v-2.03711zm.2285156.22852h86.2011718v1.58008h-86.2011718z"/></g><g stroke-width=".504052" transform="matrix(.52491233 0 0 .52491233 -24.023229 -107.8657)"><path d="m170.125 261.70508c-3.91153.17078-7.81159.63051-11.65039 1.40234.0585.59896-.49783 1.4066-.20703 1.87305 7.37991-1.69871 15.3546-3.45799 22.72804-.78551 4.1712 1.54913 7.44784 6.03185 6.48545 10.5811-.87525 5.92157-5.1498 10.48994-8.54511 15.14478-7.32847 9.33148-15.64286 17.81466-23.74846 26.46588.11568.75736-.21906 1.54936.0371 2.28516 10.61316-.0888 21.35702.0145 31.88867-.043-.0682-.57428.5456-1.90485-.55397-1.53194-9.57337.57923-19.18431.47461-28.76048.31123-1.08063-.43259-.22971-1.68121.45898-2.04297 10.30639-10.74217 20.75706-21.54013 28.83988-34.11842 2.30158-4.13974 3.5877-9.81829.55247-13.94439-3.237-4.32315-8.98603-5.54349-14.08714-5.63103-1.1461-.0438-2.29241-.004-3.43802.0337z"/><path d="m218.31445 276.57031c-5.42271.0777-10.76909 1.13197-15.97851 2.50781-.48785 19.17429-1.06401 38.35885-2.06836 57.50782-.47319.81678.65002.83382 1.14844.75.66051.15937 1.42696-.14589 1.08688-.93045-.12533-9.21111.37429-18.43152.69241-27.62424.64343-.54326.85761.96635 1.13867 1.3457 1.99185 4.13596 5.48698 7.92477 10.20867 8.77334 7.23818 1.93313 15.9741-.53308 19.96126-7.20693 5.18299-8.14395 5.6902-19.15626 1.04707-27.64735-2.44236-4.09772-6.95272-6.60532-11.63031-7.12949-1.85291-.29268-3.73253-.37011-5.60622-.34621zm2.03907 1.14063c6.56835-.10634 13.22384 4.19092 14.99218 10.67383 2.61418 7.68249 1.48097 16.53143-2.79458 23.39612-3.34677 4.90741-9.60024 7.61707-15.46723 6.52658-6.23118-.91982-12.03912-5.76111-12.9819-12.17022-1.27655-6.4802-.15638-13.09337-.0904-19.62621.10829-1.91243.26412-3.82164.40634-5.73174 5.08644-1.90653 10.48014-3.13115 15.93555-3.06836z"/></g></g></svg>