<svg height="350.99329" viewBox="0 0 158.45508 92.866976" width="598.88538" xmlns="http://www.w3.org/2000/svg"><g transform="matrix(1.0767869 0 0 1.0767869 42.285547 -274.253402)"><g fill="#fff"><path d="m-4.6386719 263.82031c-2.5214825 0-4.5605469 2.03905-4.5605469 4.56055v5.74023 1.67188 52.05078c0 2.19516 1.7755492 3.97266 3.9707032 3.97266h79.0722656c2.195174 0 3.972656-1.7775 3.972656-3.97266v-53.72266c0-2.19516-1.777481-3.97265-3.972656-3.97265h-49.027344-1.060547c-1.181533 0-3.070121-.80679-3.759765-3.13282-.390656-1.31764-1.347453-2.12387-2.265625-2.58789-.918173-.46402-1.773508-.60546-2.166016-.60546-5.456165.00032-15.3944381-.002-19.9101561-.002zm0 .58789c4.41490851 0 14.6664669.002 20.2031249.002.221904 0 1.077879.12534 1.900391.54101.822511.41568 1.633532 1.10177 1.96875 2.23242.762148 2.57056 2.874327 3.55274 4.322265 3.55274h1.060547 49.027344c1.879849 0 3.384766 1.50493 3.384766 3.38476v53.72266c0 1.87984-1.504916 3.38477-3.384766 3.38477h-79.0722656c-1.8798266 0-3.3847656-1.50493-3.3847656-3.38477v-52.05078-1.67188-5.74023c0-2.20618 1.7684479-3.97266 3.9746093-3.97266z"/><path d="m-4.4707031 274.22266c-2.6150163 0-4.7304688 2.11544-4.7304688 4.73046v7.34571 31.83789 4.97851h.5878907v-4.97851-31.83789-7.34571c0-2.29969 1.8428966-4.14257 4.1425781-4.14257h77.5566411c2.299703 0 4.142578 1.84288 4.142578 4.14257v7.34571 31.83789 4.97851h.58789v-4.97851-31.83789-7.34571c0-2.61502-2.115432-4.73046-4.730468-4.73046z"/><path d="m-9.0214844 324.76172v.11523 2.19727h86.6582034v-2.3125zm.2285156.22851h86.2011718v1.85547h-86.2011718z"/></g><g fill="none" stroke="#fff" stroke-width="9.668583" transform="matrix(.06841316 0 0 .06841316 13.37323 278.94408)"><path d="m331.5 19.570312c-138.62271 0-254.283342 98.591918-280.710938 229.499998h-50.789062a5.9298761 5.9298761 0 0 0 -4.7441406 9.48633l76.4999996 102a5.9298761 5.9298761 0 0 0 9.488282 0l76.499999-102a5.9298761 5.9298761 0 0 0 -4.74414-9.48633h-37.55664c25.20794-95.85102 112.22691-166.640622 216.05664-166.640622 123.55724 0 223.57031 100.013072 223.57031 223.570312s-100.01307 223.57031-223.57031 223.57031c-77.49839 0-145.71889-39.39735-185.83984-99.24219a5.9298761 5.9298761 0 0 0 -4.92578-2.6289h-59.083989a5.9298761 5.9298761 0 0 0 -5.277344 8.63086c47.445913 92.67786 143.912483 156.09961 255.126953 156.09961 158.1166 0 286.42969-128.31309 286.42969-286.42969 0-158.11758-128.31311-286.429688-286.42969-286.429688z"/><path d="m318.75 119.74414a8.5722816 8.5722816 0 0 0 -8.57227 8.57227v186.60937a8.5722816 8.5722816 0 0 0 4.22071 7.38477l132.88086 78.30859a8.5722816 8.5722816 0 0 0 11.73437-3.0293l12.95508-21.95507a8.5722816 8.5722816 0 0 0 -3.00195-11.72266l-116.14453-69.06055v-166.53515a8.5722816 8.5722816 0 0 0 -8.57227-8.57227z" transform="translate(-6.285715 24)"/></g><path d="m-9.0214844 326.8457v.11524 1.92187h86.6582034v-2.03711zm.2285156.22852h86.2011718v1.58008h-86.2011718z" fill="#fff"/></g></svg>