<svg height="350.99329" viewBox="0 0 158.45508 92.866976" width="598.88538" xmlns="http://www.w3.org/2000/svg"><g fill="#fff"><g stroke-width="1.24834" transform="matrix(1.07678604695 0 0 1.07678604695 42.28557571174 -274.25315048979)"><path d="m-4.6386719 263.82031c-2.5214825 0-4.5605469 2.03905-4.5605469 4.56055v5.74023 1.67188 52.05078c0 2.19516 1.7755492 3.97266 3.9707032 3.97266h79.0722656c2.195174 0 3.972656-1.7775 3.972656-3.97266v-53.72266c0-2.19516-1.777481-3.97265-3.972656-3.97265h-49.027344-1.060547c-1.181533 0-3.070121-.80679-3.759765-3.13282-.390656-1.31764-1.347453-2.12387-2.265625-2.58789-.918173-.46402-1.773508-.60546-2.166016-.60546-5.456165.00032-15.3944381-.002-19.9101561-.002zm0 .58789c4.41490851 0 14.6664669.002 20.2031249.002.221904 0 1.077879.12534 1.900391.54101.822511.41568 1.633532 1.10177 1.96875 2.23242.762148 2.57056 2.874327 3.55274 4.322265 3.55274h1.060547 49.027344c1.879849 0 3.384766 1.50493 3.384766 3.38476v53.72266c0 1.87984-1.504916 3.38477-3.384766 3.38477h-79.0722656c-1.8798266 0-3.3847656-1.50493-3.3847656-3.38477v-52.05078-1.67188-5.74023c0-2.20618 1.7684479-3.97266 3.9746093-3.97266z"/><path d="m-4.4707031 274.22266c-2.6150163 0-4.7304688 2.11544-4.7304688 4.73046v7.34571 31.83789 4.97851h.5878907v-4.97851-31.83789-7.34571c0-2.29969 1.8428966-4.14257 4.1425781-4.14257h77.5566411c2.299703 0 4.142578 1.84288 4.142578 4.14257v7.34571 31.83789 4.97851h.58789v-4.97851-31.83789-7.34571c0-2.61502-2.115432-4.73046-4.730468-4.73046z"/><path d="m-9.0214844 324.76172v.11523 2.19727h86.6582034v-2.3125zm.2285156.22851h86.2011718v1.85547h-86.2011718z"/><path d="m-9.0214844 326.8457v.11524 1.92187h86.6582034v-2.03711zm.2285156.22852h86.2011718v1.58008h-86.2011718z"/></g><g stroke-width=".264583" transform="translate(9.201172 -238.94944)"><path d="m60.199219 269.11719c-.865137.29693-1.076785 1.35141-1.669043 1.96207-3.607636 4.9294-7.221571 9.85397-10.885645 14.74105.08709.44015-.222297 1.0764.09961 1.375 4.181582-.0367 8.363221-.065 12.544921-.084-.162331 3.83967-.300674 7.68092-.560546 11.51562.427239-.11537 1.075066.25733 1.332031-.22656-.05181-3.76677.09969-7.53195.193359-11.29687 1.712956-.006 3.426511.11466 5.138672.0195.287922-.40545-.127263-1.01124-.597656-.73828-1.490353.0527-2.981824.0279-4.472656.0527.220178-5.76484.471803-11.52859.787109-17.28906-.421569.0618-1.272129-.23802-1.306641.41992.08385 2.06383-.06436 4.15251-.09537 6.22534-.09516 3.44399-.240337 6.88635-.410485 10.32739-.399964.67296-1.281083.15702-1.898828.31055-3.411328 0-6.822656 0-10.233985 0 4.234058-5.74519 8.465448-11.49237 12.701172-17.23633-.215603-.0642-.439915-.12839-.666015-.0781z"/><path d="m80.695312 276.52734c-2.675248.11847-5.317765.6174-7.90039 1.3086-.269406 10.02434-.568315 20.04901-1.078125 30.06445-.270209.50688.418989.57259.751953.55078.648079.0504.358611-.74144.416016-1.11719.02321-4.50194.217623-9.00054.351562-13.5.462024-.36407.71498.43327.855068.76092 1.12207 2.33763 3.445823 4.12184 6.054658 4.34464 3.712346.65675 7.983746-.89577 9.791426-4.33862 2.54683-4.40416 2.736921-10.26439.0078-14.63022-1.545637-2.20745-4.249817-3.27325-6.871407-3.39257-.790937-.0693-1.585445-.0674-2.378593-.0508zm1.28711.61914c3.480664-.14617 7.105935 2.04053 8.085426 5.47962 1.404629 3.95571.856705 8.48854-1.229121 12.0936-1.682309 2.66114-4.919116 4.22103-8.03738 3.73496-3.244165-.39057-6.408267-2.82055-6.996068-6.16788-.729099-3.25419-.164226-6.63082-.130288-9.93624.06861-1.20091.152484-2.40081.239071-3.60054 2.593037-.95279 5.297227-1.57445 8.06836-1.60352z"/></g></g></svg>