<svg height="350.26" viewBox="0 0 598.189 350.26" width="598.189" xmlns="http://www.w3.org/2000/svg"><g fill="#f4f4f4"><path d="m211.423 83.913c-.312.022-.585.214-.71.5-.508 1.122-1.285 2.126-2.263 2.894-.365.289-.426.818-.137 1.183.289.364.818.426 1.183.137.002-.001.005-.003.006-.005 1.185-.928 2.138-2.119 2.762-3.499.206-.417.035-.921-.382-1.127-.143-.071-.301-.1-.459-.083z"/><path d="m74.186 74.389c-3.877 0-7.049 3.146-7.049 7.023s3.172 7.05 7.049 7.05h129.955c3.878 0 7.05-3.172 7.05-7.05s-3.171-7.023-7.05-7.023zm0 1.684h129.955c2.968 0 5.367 2.372 5.367 5.34s-2.398 5.367-5.367 5.367h-129.955c-2.968 0-5.367-2.399-5.367-5.367 0-2.969 2.399-5.34 5.367-5.34z"/><path d="m211.347 83.965c-.465.041-.809.451-.768.917.042.466.452.809.917.768.003 0 .006 0 .009-.001h48.244 73.498 138.575c.464.006.847-.365.854-.83.006-.464-.366-.847-.831-.854-.007 0-.015 0-.022 0h-138.576-73.498-48.244c-.052-.005-.106-.005-.158 0z"/><path d="m212.004 82.176c-.465.021-.826.415-.805.879s.414.825.88.804h.003 47.666 73.498 138.003c.464.007.846-.365.854-.83.006-.464-.366-.847-.83-.854-.009 0-.016 0-.023 0h-138.004-73.498-47.666c-.026-.001-.052-.001-.078.001z"/><path d="m37.542 91.121c-.393.088-.667.44-.658.841v1.763c0 .465.376.842.842.842h222.021 145.232 150.31c.465 0 .842-.377.842-.842v-1.763c0-.465-.377-.841-.842-.841h-150.31-145.232-222.021c-.061-.007-.123-.007-.184 0zm1.026 1.684h221.179 145.232 149.468v.079h-149.468-145.232-221.179z"/><path d="m74.107 88.989c-.465.021-.825.415-.804.88s.415.825.879.804h.003 129.955.026.5.026 55.058 73.498 145.394.026.499.026 21.045c.464.006.848-.365.854-.83.007-.465-.364-.847-.829-.854-.01 0-.017 0-.024 0h-21.02-.026-.499c-.008 0-.018 0-.026 0h-145.419-73.498-55.084-.526-.026-129.922c-.026-.001-.053-.001-.079 0z"/><path d="m208.821 87.174c-.465.042-.809.451-.768.917.041.465.451.808.917.768.003 0 .006 0 .009-.001h50.77 73.498 141.1c.465.007.847-.365.854-.83.006-.465-.365-.847-.829-.854-.009 0-.017 0-.024 0h-141.1-73.498-50.77c-.053-.005-.105-.005-.159 0z"/><path d="m471.796 83.913c-.466.011-.834.397-.822.862.003.121.031.24.085.348.624 1.378 1.577 2.57 2.763 3.499.361.292.893.236 1.184-.125.292-.362.236-.893-.126-1.185-.002-.002-.004-.003-.006-.005-.978-.767-1.754-1.771-2.263-2.894-.14-.317-.462-.516-.809-.5z"/><path d="m212.004 79.151-.079.026c-.447.093-.738.524-.657.973.072.412.104.828.104 1.263 0 .493-.039.982-.131 1.447-.129.447.128.916.576 1.045.447.13.915-.128 1.045-.575.014-.05.024-.102.03-.153.114-.572.157-1.158.157-1.763 0-.199-.04-.382-.053-.579h46.746 73.498 137.075c-.012.196-.052.379-.052.579 0 .605.068 1.216.184 1.789.03.464.431.816.894.787.464-.03.816-.43.787-.894-.005-.081-.021-.16-.05-.236-.092-.464-.135-.954-.135-1.447 0-.434.033-.849.105-1.262.08-.451-.216-.884-.665-.973l-.075-.026c-.063-.007-.123-.007-.186 0h-137.892-73.498-47.561c-.062-.007-.123-.007-.184 0h.017z"/><path d="m209.184 74.312c-.464-.022-.859.336-.881.8-.016.342.176.66.487.804h.026c.849.721 1.53 1.619 1.973 2.657.171.41.632.618 1.053.473h47.902 73.498 138.263c.412.129.856-.075 1.026-.473.445-1.044 1.145-1.935 1.999-2.657.422-.196.604-.696.409-1.118-.145-.311-.462-.503-.805-.486h-140.898-73.497-50.56zm1.999 1.683h48.561 73.499 138.894c-.326.424-.596.888-.842 1.368h-138.053-73.499-47.719c-.247-.48-.514-.944-.841-1.368z"/><path d="m37.62 72.549c-.423.053-.739.415-.736.841v1.763c0 .465.376.842.842.842h29.383c-.321.419-.571.895-.815 1.368h-28.568c-.465 0-.842.377-.842.842v1.789c0 .465.376.842.842.842h27.594c-.013.196-.053.38-.053.578 0 .259.057.51.079.764h-27.62c-.465 0-.841.376-.842.841v1.789c0 .465.376.842.842.842h28.646c.29.541.611 1.055 1 1.526h-29.647c-.465 0-.842.376-.842.841v.027l.052 1.815c.015.455.387.816.842.816h36.513c.465.006.847-.365.854-.83s-.365-.847-.83-.854c-.008 0-.016 0-.024 0h-35.696v-.132h30.777.053c.293-.006.563-.166.71-.421.222-.368.131-.844-.21-1.105-.01-.007-.016-.019-.026-.026-.96-.748-1.749-1.698-2.263-2.789-.008-.018-.017-.036-.026-.053-.003-.007.003-.02 0-.026-.008-.009-.016-.018-.025-.026-.007-.027-.016-.054-.026-.08l-.027-.025c-.208-.323-.609-.463-.973-.342h-27.99v-.105h27.489c.265.075.55.017.764-.158l.025-.026c.271-.223.375-.589.263-.921-.008-.009-.017-.018-.026-.025-.077-.424-.131-.868-.131-1.316 0-.441.03-.871.105-1.289.073-.46-.241-.891-.7-.963-.038-.006-.077-.009-.115-.01h-.184-27.49v-.106h28.015.185c.33-.002.628-.197.762-.5.458-1.059 1.174-1.984 2.052-2.709.358-.296.408-.827.111-1.185-.123-.148-.292-.249-.48-.288l-.078-.026c-.061-.016-.123-.025-.185-.026h-30.382v-.079h34.434 132.059 54.69 73.498 145.022 23.123 53.059v.079h-48.983c-.062.001-.124.011-.185.026l-.104.026c-.453.104-.736.556-.631 1.01.042.182.144.345.288.463.879.725 1.568 1.65 2.025 2.709.139.311.45.508.79.5h.025.079 46.693v.106h-46.114-.157c-.465.008-.835.391-.826.856 0 .04.004.079.009.117h-.026c.075.419.132.848.132 1.289 0 .448-.055.892-.132 1.316-.003.018-.022.035-.026.052v.026c-.088.316.015.654.264.868l.026.026c.22.183.516.243.788.158h46.063v.105h-46.615c-.355-.108-.741.031-.946.342l-.026.026c-.019.025-.036.052-.053.08-.009.017-.019.035-.026.053-.514 1.112-1.285 2.082-2.263 2.841-.008.008-.017.017-.026.026-.374.274-.457.8-.183 1.176.008.011.017.022.026.034.158.2.401.316.657.316h.105 49.323v.131h-54.296c-.465-.006-.847.365-.854.83-.006.465.365.847.83.854h.023 55.11c.456 0 .829-.361.843-.815l.052-1.815c.015-.465-.35-.853-.814-.868-.009 0-.018 0-.027 0h-48.243c.388-.471.709-.985 1-1.526h47.245c.464 0 .841-.377.841-.842v-1.789c0-.464-.377-.842-.841-.842h-46.22c.021-.253.079-.504.079-.763 0-.198-.041-.383-.053-.578h46.193c.464 0 .841-.377.841-.842v-1.789c0-.465-.377-.842-.841-.842h-47.166c-.244-.473-.495-.949-.816-1.368h47.982c.465 0 .841-.377.841-.842v-1.763c0-.464-.376-.841-.841-.841h-53.9-23.122-145.023-73.497-54.69-132.059-35.276c-.035-.005-.07-.005-.105-.001z"/><path d="m479.187 74.389c-3.879 0-7.025 3.146-7.025 7.023s3.146 7.05 7.025 7.05h21.044c3.878 0 7.023-3.172 7.023-7.05s-3.146-7.023-7.023-7.023zm0 1.684h21.044c2.968 0 5.34 2.372 5.34 5.34s-2.372 5.367-5.34 5.367h-21.044c-2.968 0-5.341-2.399-5.341-5.367 0-2.969 2.373-5.34 5.341-5.34z"/><path d="m40.672 55.739c-2.06 0-3.735 1.676-3.735 3.735v11.575c0 .465.377.842.842.842h517.724c.464 0 .841-.377.841-.842v-11.575c0-2.06-1.677-3.735-3.735-3.735h-511.941zm0 1.683h511.94c1.149 0 2.052.902 2.052 2.052v10.733h-516.039v-10.733c0-1.149.902-2.052 2.052-2.052z"/><path d="m37.594 95.803c-.392.087-.667.44-.658.842v210.816c0 2.06 1.676 3.735 3.735 3.735h511.94c2.059 0 3.735-1.676 3.735-3.735l-.01-210.816c0-.465-.377-.842-.841-.842h-517.721c-.061-.007-.123-.007-.184 0zm1.026 1.684h516.039v209.974c0 1.149-.902 2.053-2.052 2.053h-511.939c-1.151 0-2.052-.903-2.052-2.053z"/><path d="m61.506 144.491c-1.555 0-2.815 1.285-2.815 2.841v17.494c0 1.555 1.259 2.84 2.815 2.84h17.493c1.555 0 2.841-1.285 2.841-2.84v-17.494c0-1.556-1.286-2.841-2.841-2.841zm0 1.684h17.493c.646 0 1.157.511 1.157 1.158v17.494c0 .645-.512 1.157-1.157 1.157h-17.493c-.646 0-1.132-.514-1.132-1.157v-17.494c.001-.647.486-1.158 1.132-1.158z"/><path d="m86.208 144.491c-1.555 0-2.841 1.285-2.841 2.841v17.494c0 1.554 1.285 2.84 2.841 2.84h17.466c1.555 0 2.841-1.285 2.841-2.84v-17.494c0-1.556-1.287-2.841-2.841-2.841zm0 1.684h17.466c.646 0 1.158.511 1.158 1.158v17.494c0 .645-.512 1.157-1.158 1.157h-17.466c-.647 0-1.158-.513-1.158-1.157v-17.494c0-.647.512-1.158 1.158-1.158z"/><path d="m110.882 144.491c-1.555 0-2.842 1.285-2.842 2.841v17.494c0 1.555 1.286 2.84 2.842 2.84h17.493c1.424 0 2.546-1.097 2.736-2.472.009-.018.018-.035.027-.053 0-.009-.001-.018 0-.026.009-.025.019-.052.025-.079.014-.051.022-.104.027-.157.009-.018.018-.036.026-.053v-17.494c0-1.556-1.286-2.841-2.841-2.841zm0 1.684h17.493c.646 0 1.158.511 1.158 1.158v17.335c-.002.036-.002.07 0 .105-.01.018-.019.035-.026.053 0 .645-.486 1.157-1.131 1.157h-17.493c-.645 0-1.158-.513-1.158-1.157v-17.494c0-.645.511-1.157 1.157-1.157z"/><path d="m135.553 144.491c-1.555 0-2.815 1.285-2.815 2.841v17.494c0 1.555 1.26 2.84 2.815 2.84h17.493c1.555 0 2.841-1.285 2.841-2.84v-17.494c0-1.556-1.287-2.841-2.841-2.841zm0 1.684h17.493c.646 0 1.158.511 1.158 1.158v17.494c0 .645-.512 1.157-1.158 1.157h-17.493c-.645 0-1.131-.514-1.131-1.157v-17.494c0-.647.485-1.158 1.131-1.158z"/><path d="m160.259 144.491c-1.555 0-2.841 1.285-2.841 2.841v17.494c0 1.555 1.286 2.84 2.841 2.84h17.467c1.555 0 2.84-1.285 2.84-2.84v-17.494c0-1.556-1.286-2.841-2.84-2.841zm0 1.684h17.467c.645 0 1.157.511 1.157 1.158v17.494c0 .645-.512 1.157-1.157 1.157h-17.467c-.645 0-1.158-.514-1.158-1.157v-17.494c.001-.647.512-1.158 1.158-1.158z"/><path d="m184.932 144.491c-1.555 0-2.842 1.285-2.842 2.841v17.494c0 1.555 1.287 2.84 2.842 2.84h17.493c1.555 0 2.814-1.285 2.814-2.84v-17.494c0-1.556-1.26-2.841-2.814-2.841zm0 1.684h17.493c.645 0 1.13.511 1.13 1.158v17.494c0 .645-.485 1.157-1.13 1.157h-17.493c-.645 0-1.158-.514-1.158-1.157v-17.494c0-.647.513-1.158 1.158-1.158z"/><path d="m209.604 144.491c-1.555 0-2.814 1.285-2.814 2.841v17.494c0 1.555 1.259 2.84 2.814 2.84h17.494c1.554 0 2.84-1.285 2.84-2.84v-17.494c0-1.556-1.286-2.841-2.84-2.841zm0 1.684h17.494c.645 0 1.157.511 1.157 1.158v17.494c0 .645-.512 1.157-1.157 1.157h-17.494c-.646 0-1.131-.514-1.131-1.157v-17.494c.001-.647.486-1.158 1.131-1.158z"/><path d="m234.311 144.491c-1.555 0-2.841 1.285-2.841 2.841v17.494c0 1.555 1.286 2.84 2.841 2.84h17.467c1.554 0 2.84-1.285 2.84-2.84v-17.494c0-1.556-1.286-2.841-2.84-2.841zm0 1.684h17.467c.645 0 1.157.511 1.157 1.158v17.494c0 .645-.513 1.157-1.157 1.157h-17.467c-.645 0-1.158-.514-1.158-1.157v-17.494c0-.647.513-1.158 1.158-1.158z"/><path d="m258.983 144.491c-1.555 0-2.841 1.285-2.841 2.841v17.494c0 1.555 1.285 2.84 2.841 2.84h17.493c1.555 0 2.815-1.285 2.815-2.84v-17.494c0-1.556-1.26-2.841-2.815-2.841zm0 1.684h17.493c.646 0 1.132.511 1.132 1.158v17.494c0 .645-.487 1.157-1.132 1.157h-17.493c-.645 0-1.157-.514-1.157-1.157v-17.494c0-.647.512-1.158 1.157-1.158z"/><path d="m283.656 144.491c-1.555 0-2.841 1.285-2.841 2.841v17.494c0 1.554 1.285 2.84 2.841 2.84h17.493c1.555 0 2.841-1.285 2.841-2.84v-17.494c0-1.556-1.285-2.841-2.841-2.841zm0 1.684h17.493c.645 0 1.157.511 1.157 1.158v17.494c0 .645-.513 1.157-1.157 1.157h-17.493c-.646 0-1.157-.513-1.157-1.157v-17.494c0-.647.512-1.158 1.157-1.158z"/><path d="m308.363 144.491c-1.557 0-2.842 1.285-2.842 2.841v17.494c0 1.554 1.285 2.84 2.842 2.84h17.466c1.555 0 2.841-1.284 2.841-2.84v-17.494c0-1.556-1.285-2.841-2.841-2.841zm0 1.684h17.466c.646 0 1.158.511 1.158 1.158v17.494c0 .644-.514 1.157-1.158 1.157h-17.466c-.647 0-1.157-.513-1.157-1.157v-17.494c0-.647.511-1.158 1.157-1.158z"/><path d="m333.035 144.491c-1.555 0-2.841 1.285-2.841 2.841v17.494c0 1.554 1.285 2.84 2.841 2.84h17.494c1.554 0 2.813-1.285 2.813-2.84v-17.494c0-1.556-1.259-2.841-2.813-2.841zm0 1.684h17.494c.644 0 1.131.511 1.131 1.158v17.494c0 .645-.487 1.157-1.131 1.157h-17.494c-.646 0-1.157-.513-1.157-1.157v-17.494c0-.647.514-1.158 1.157-1.158z"/><path d="m357.708 144.491c-1.555 0-2.814 1.285-2.814 2.841v17.494c0 1.554 1.259 2.84 2.814 2.84h17.494c1.554 0 2.839-1.284 2.839-2.84v-17.494c0-1.556-1.284-2.841-2.839-2.841zm0 1.684h17.494c.644 0 1.156.511 1.156 1.158v17.494c0 .644-.513 1.157-1.156 1.157h-17.494c-.645 0-1.132-.513-1.132-1.157v-17.494c0-.647.487-1.158 1.132-1.158z"/><path d="m382.415 144.491c-1.555 0-2.842 1.285-2.842 2.841v17.492c0 1.554 1.286 2.841 2.842 2.841h17.466c1.555 0 2.842-1.286 2.842-2.841.001-.026.001-.053 0-.079v-17.415c0-1.556-1.286-2.841-2.842-2.841zm0 1.684h17.466c.647 0 1.157.511 1.157 1.158v17.492c0 .646-.511 1.157-1.157 1.157h-17.466c-.646 0-1.158-.513-1.158-1.157v-17.493c0-.647.514-1.158 1.158-1.157z"/><path d="m99.15 168.903c-1.555 0-2.841 1.285-2.841 2.841v17.492c0 1.555 1.286 2.815 2.841 2.815h17.493c1.422 0 2.542-1.075 2.736-2.446.01-.019.018-.034.026-.053.001-.009-.001-.019 0-.026.01-.025.019-.051.027-.076.014-.052.022-.105.026-.161.009-.015.019-.032.026-.05v-17.493c0-1.554-1.286-2.84-2.841-2.84h-17.493zm0 1.683h17.493c.646 0 1.158.514 1.158 1.158v17.335c-.001.025-.001.052 0 .077-.011.028-.019.057-.026.086 0 .645-.486 1.131-1.131 1.131h-17.494c-.646 0-1.158-.487-1.158-1.127v-17.495c0-.645.512-1.157 1.158-1.157z"/><path d="m61.506 168.903c-1.555 0-2.815 1.285-2.815 2.841v17.492c0 1.557 1.259 2.815 2.815 2.815h30.12c1.555 0 2.841-1.259 2.841-2.815v-17.492c0-1.555-1.285-2.841-2.841-2.841zm0 1.683h30.12c.646 0 1.157.514 1.157 1.158v17.492c0 .646-.512 1.133-1.157 1.133h-30.12c-.646 0-1.132-.488-1.132-1.133v-17.492c.001-.645.486-1.158 1.132-1.158z"/><path d="m123.827 168.903c-1.555 0-2.84 1.285-2.84 2.841v17.492c0 1.557 1.285 2.815 2.84 2.815h17.494c1.555 0 2.841-1.259 2.841-2.815v-17.492c0-1.555-1.286-2.841-2.841-2.841zm0 1.683h17.494c.645 0 1.157.514 1.157 1.158v17.492c0 .646-.512 1.133-1.157 1.133h-17.494c-.645 0-1.157-.488-1.157-1.133v-17.492c0-.645.511-1.158 1.157-1.158z"/><path d="m148.524 168.903c-1.555 0-2.84 1.285-2.84 2.841v17.492c0 1.557 1.286 2.815 2.84 2.815h17.468c1.555 0 2.841-1.259 2.841-2.815v-17.492c0-1.555-1.286-2.841-2.841-2.841zm0 1.683h17.468c.645 0 1.157.514 1.157 1.158v17.492c0 .646-.512 1.133-1.157 1.133h-17.468c-.645 0-1.157-.488-1.157-1.133v-17.492c0-.645.512-1.158 1.157-1.158z"/><path d="m173.197 168.903c-1.554 0-2.84 1.285-2.84 2.841v17.492c0 1.557 1.286 2.815 2.84 2.815h17.494c1.555 0 2.814-1.259 2.814-2.815v-17.492c0-1.555-1.259-2.841-2.814-2.841zm0 1.683h17.494c.646 0 1.131.514 1.131 1.158v17.492c0 .646-.485 1.133-1.131 1.133h-17.494c-.645 0-1.157-.488-1.157-1.133v-17.492c0-.645.512-1.158 1.157-1.158z"/><path d="m197.878 168.903c-1.555 0-2.815 1.285-2.815 2.841v17.492c0 1.556 1.259 2.815 2.815 2.815h17.494c1.555 0 2.841-1.259 2.841-2.815v-17.492c0-1.555-1.286-2.841-2.841-2.841zm0 1.683h17.494c.645 0 1.157.514 1.157 1.158v17.492c0 .646-.512 1.133-1.157 1.133h-17.494c-.646 0-1.131-.488-1.131-1.133v-17.492c0-.645.486-1.158 1.131-1.158z"/><path d="m222.576 168.903c-1.555 0-2.841 1.285-2.841 2.841v17.492c0 1.557 1.285 2.815 2.841 2.815h17.468c1.554 0 2.841-1.259 2.841-2.815v-17.492c0-1.555-1.286-2.841-2.841-2.841zm0 1.683h17.468c.645 0 1.157.514 1.157 1.158v17.492c0 .646-.514 1.133-1.157 1.133h-17.468c-.645 0-1.158-.488-1.158-1.133v-17.492c0-.645.513-1.158 1.158-1.158z"/><path d="m247.249 168.903c-1.555 0-2.841 1.285-2.841 2.841v17.492c0 1.557 1.286 2.815 2.841 2.815h17.493c1.555 0 2.815-1.259 2.815-2.815v-17.492c0-1.555-1.259-2.841-2.815-2.841zm0 1.683h17.493c.645 0 1.131.514 1.131 1.158v17.492c0 .646-.486 1.133-1.131 1.133h-17.493c-.645 0-1.158-.488-1.158-1.133v-17.492c0-.645.513-1.158 1.158-1.158z"/><path d="m271.922 168.903c-1.555 0-2.841 1.285-2.841 2.841v17.492c0 1.557 1.286 2.815 2.841 2.815h17.494c1.554 0 2.841-1.259 2.841-2.815v-17.492c0-1.555-1.286-2.841-2.841-2.841zm0 1.683h17.494c.645 0 1.157.514 1.157 1.158v17.492c0 .646-.512 1.133-1.157 1.133h-17.494c-.646 0-1.158-.488-1.158-1.133v-17.492c0-.645.512-1.158 1.158-1.158z"/><path d="m296.628 168.903c-1.555 0-2.842 1.285-2.842 2.841v17.492c0 1.557 1.286 2.815 2.842 2.815h17.466c1.555 0 2.842-1.258 2.842-2.815v-17.492c0-1.555-1.286-2.841-2.842-2.841zm0 1.683h17.466c.646 0 1.159.514 1.159 1.158v17.492c0 .645-.515 1.133-1.159 1.133h-17.466c-.645 0-1.158-.488-1.158-1.133v-17.492c.001-.645.513-1.158 1.158-1.158z"/><path d="m321.301 168.903c-1.555 0-2.842 1.285-2.842 2.841v17.492c0 1.556 1.286 2.815 2.842 2.815h17.493c1.555 0 2.814-1.259 2.814-2.815v-17.492c0-1.555-1.258-2.841-2.814-2.841zm0 1.683h17.493c.646 0 1.131.514 1.131 1.158v17.492c0 .646-.486 1.133-1.131 1.133h-17.493c-.646 0-1.157-.488-1.157-1.133v-17.492c0-.645.511-1.158 1.157-1.158z"/><path d="m345.974 168.903c-1.554 0-2.842 1.285-2.842 2.841v17.492c0 1.557 1.286 2.815 2.842 2.815h17.493c1.556 0 2.841-1.258 2.841-2.815v-17.492c0-1.555-1.285-2.841-2.841-2.841zm0 1.683h17.493c.645 0 1.158.514 1.158 1.158v17.492c0 .645-.514 1.133-1.158 1.133h-17.493c-.645 0-1.158-.488-1.158-1.133v-17.492c-.001-.645.514-1.158 1.158-1.158z"/><path d="m370.68 168.903c-1.554 0-2.842 1.285-2.842 2.841v17.492c0 1.556 1.287 2.815 2.842 2.815h17.468c1.554 0 2.84-1.259 2.84-2.815v-17.492c0-1.555-1.285-2.841-2.84-2.841zm0 1.683h17.468c.645 0 1.157.514 1.157 1.158v17.492c0 .646-.514 1.133-1.157 1.133h-17.468c-.646 0-1.157-.488-1.157-1.133v-17.492c-.001-.645.511-1.158 1.157-1.158z"/><path d="m395.352 168.903c-1.554 0-2.839 1.285-2.839 2.841v17.492c0 1.556 1.284 2.815 2.839 2.815h17.495c1.554 0 2.813-1.258 2.813-2.815v-17.492c0-1.555-1.259-2.841-2.813-2.841zm0 1.683h17.495c.644 0 1.131.514 1.131 1.158v17.492c0 .645-.487 1.133-1.131 1.133h-17.495c-.646 0-1.155-.488-1.155-1.133v-17.492c-.001-.645.509-1.158 1.155-1.158z"/><path d="m482.638 168.903c-1.555 0-2.842 1.285-2.842 2.841v17.492c0 1.556 1.286 2.815 2.842 2.815h31.75c1.555 0 2.842-1.258 2.842-2.815v-17.492c0-1.555-1.286-2.841-2.842-2.841zm0 1.683h31.75c.646 0 1.158.514 1.158 1.158v17.492c0 .645-.514 1.133-1.158 1.133h-31.75c-.647 0-1.157-.488-1.157-1.133v-17.492c-.001-.645.51-1.158 1.157-1.158z"/><path d="m419.814 168.903c-1.553 0-2.842 1.285-2.842 2.841v17.492c0 1.557 1.286 2.815 2.842 2.815h29.437c1.555 0 2.842-1.259 2.842-2.815v-17.492c0-1.555-1.286-2.841-2.842-2.841zm0 1.683h29.437c.646 0 1.157.514 1.157 1.158v17.492c0 .646-.511 1.133-1.157 1.133h-29.437c-.645 0-1.157-.488-1.157-1.133v-17.492c0-.645.514-1.158 1.157-1.158z"/><path d="m407.087 144.491c-1.556 0-2.841 1.285-2.841 2.841v17.494c0 1.554 1.285 2.84 2.841 2.84h17.493c1.554 0 2.815-1.284 2.815-2.84v-17.494c0-1.556-1.261-2.841-2.815-2.841zm0 1.684h17.493c.646 0 1.131.511 1.131 1.158v17.494c0 .644-.486 1.157-1.131 1.157h-17.493c-.646 0-1.157-.513-1.157-1.157v-17.494c0-.647.512-1.158 1.157-1.158z"/><path d="m54.877 193.314c-1.555 0-2.841 1.285-2.841 2.842v17.467c0 1.555 1.286 2.841 2.841 2.841h17.493c1.555 0 2.815-1.286 2.815-2.841v-17.467c0-1.557-1.26-2.842-2.815-2.842zm0 1.684h17.493c.646 0 1.131.514 1.131 1.158v17.467c0 .646-.485 1.157-1.131 1.157h-17.493c-.646 0-1.158-.512-1.158-1.157v-17.467c.001-.646.512-1.158 1.158-1.158z"/><path d="m79.553 193.314c-1.555 0-2.841 1.285-2.841 2.842v17.467c0 1.555 1.286 2.841 2.841 2.841h17.492c1.556 0 2.841-1.286 2.841-2.841v-17.467c0-1.557-1.286-2.842-2.841-2.842zm0 1.684h17.492c.646 0 1.158.514 1.158 1.158v17.467c0 .646-.512 1.157-1.158 1.157h-17.492c-.646 0-1.158-.512-1.158-1.157v-17.467c0-.646.511-1.158 1.158-1.158z"/><path d="m104.227 193.314c-1.555 0-2.815 1.285-2.815 2.842v17.467c0 1.555 1.26 2.841 2.815 2.841h17.493c1.417 0 2.562-1.082 2.762-2.446.01-.026.019-.052.026-.079.038-.101.055-.208.052-.315v-17.467c0-1.557-1.286-2.842-2.841-2.842h-17.492zm0 1.684h17.493c.646 0 1.157.514 1.157 1.158v17.335c-.001.027-.001.054 0 .08v.052c0 .646-.512 1.157-1.157 1.157h-17.493c-.646 0-1.131-.512-1.131-1.157v-17.467c0-.646.485-1.158 1.131-1.158z"/><path d="m128.928 193.314c-1.554 0-2.84 1.285-2.84 2.842v17.467c0 1.555 1.285 2.841 2.84 2.841h17.493c1.555 0 2.814-1.286 2.814-2.841v-17.467c0-1.557-1.26-2.842-2.814-2.842zm0 1.684h17.493c.646 0 1.131.514 1.131 1.158v17.467c0 .646-.485 1.157-1.131 1.157h-17.493c-.645 0-1.158-.512-1.158-1.157v-17.467c.001-.646.512-1.158 1.158-1.158z"/><path d="m153.601 193.314c-1.554 0-2.84 1.285-2.84 2.842v17.467c0 1.555 1.285 2.841 2.84 2.841h17.493c1.555 0 2.841-1.286 2.841-2.841v-17.467c0-1.557-1.286-2.842-2.841-2.842zm0 1.684h17.493c.646 0 1.157.514 1.157 1.158v17.467c0 .646-.512 1.157-1.157 1.157h-17.493c-.645 0-1.157-.512-1.157-1.157v-17.467c0-.646.511-1.158 1.157-1.158z"/><path d="m178.282 193.314c-1.555 0-2.815 1.285-2.815 2.842v17.467c0 1.555 1.259 2.841 2.815 2.841h17.493c1.555 0 2.842-1.286 2.842-2.841v-17.467c0-1.557-1.287-2.842-2.842-2.842zm0 1.684h17.493c.646 0 1.158.514 1.158 1.158v17.467c0 .646-.513 1.157-1.158 1.157h-17.493c-.646 0-1.131-.512-1.131-1.157v-17.467c-.001-.646.485-1.158 1.131-1.158z"/><path d="m202.98 193.314c-1.554 0-2.841 1.285-2.841 2.842v17.467c0 1.555 1.286 2.841 2.841 2.841h17.493c1.555 0 2.815-1.286 2.815-2.841v-17.467c0-1.557-1.26-2.842-2.815-2.842zm0 1.684h17.493c.646 0 1.131.514 1.131 1.158v17.467c0 .646-.486 1.157-1.131 1.157h-17.493c-.646 0-1.158-.512-1.158-1.157v-17.467c0-.646.513-1.158 1.158-1.158z"/><path d="m227.653 193.314c-1.555 0-2.842 1.285-2.842 2.842v17.467c0 1.555 1.285 2.841 2.842 2.841h17.493c1.555 0 2.84-1.286 2.84-2.841v-17.467c0-1.557-1.285-2.842-2.84-2.842zm0 1.684h17.493c.646 0 1.157.514 1.157 1.158v17.467c0 .646-.512 1.157-1.157 1.157h-17.493c-.647 0-1.158-.512-1.158-1.157v-17.467c0-.646.51-1.158 1.158-1.158z"/><path d="m252.325 193.314c-1.554 0-2.814 1.285-2.814 2.842v17.467c0 1.555 1.259 2.841 2.814 2.841h17.493c1.555 0 2.841-1.286 2.841-2.841v-17.467c0-1.557-1.286-2.842-2.841-2.842zm0 1.684h17.493c.645 0 1.157.514 1.157 1.158v17.467c0 .646-.512 1.157-1.157 1.157h-17.493c-.646 0-1.131-.512-1.131-1.157v-17.467c0-.646.486-1.158 1.131-1.158z"/><path d="m277.032 193.314c-1.555 0-2.842 1.285-2.842 2.842v17.467c0 1.555 1.287 2.841 2.842 2.841h17.493c1.554 0 2.814-1.286 2.814-2.841v-17.467c0-1.556-1.26-2.842-2.814-2.842zm0 1.684h17.493c.645 0 1.131.513 1.131 1.158v17.467c0 .646-.487 1.157-1.131 1.157h-17.493c-.646 0-1.158-.512-1.158-1.157v-17.467c0-.646.511-1.158 1.158-1.158z"/><path d="m301.704 193.314c-1.554 0-2.841 1.285-2.841 2.842v17.467c0 1.555 1.286 2.841 2.841 2.841h17.493c1.554 0 2.841-1.286 2.841-2.841v-17.467c0-1.557-1.286-2.842-2.841-2.842zm0 1.684h17.493c.646 0 1.157.514 1.157 1.158v17.467c0 .646-.514 1.157-1.157 1.157h-17.493c-.646 0-1.157-.512-1.157-1.157v-17.467c0-.646.511-1.158 1.157-1.158z"/><path d="m326.376 193.314c-1.553 0-2.813 1.285-2.813 2.842v17.467c0 1.555 1.259 2.841 2.813 2.841h17.494c1.554 0 2.842-1.286 2.842-2.841v-17.467c0-1.557-1.287-2.842-2.842-2.842zm0 1.684h17.494c.646 0 1.157.514 1.157 1.158v17.467c0 .646-.514 1.157-1.157 1.157h-17.494c-.645 0-1.13-.512-1.13-1.157v-17.467c0-.646.486-1.158 1.13-1.158z"/><path d="m351.084 193.314c-1.556 0-2.842 1.285-2.842 2.842v17.467c0 1.555 1.284 2.841 2.842 2.841h17.493c1.554 0 2.814-1.286 2.814-2.841v-17.467c0-1.557-1.26-2.842-2.814-2.842zm0 1.684h17.493c.645 0 1.13.514 1.13 1.158v17.467c0 .646-.486 1.157-1.13 1.157h-17.493c-.646 0-1.159-.512-1.159-1.157v-17.467c0-.646.513-1.158 1.159-1.158z"/><path d="m375.756 193.314c-1.554 0-2.841 1.285-2.841 2.842v17.467c0 1.555 1.285 2.841 2.841 2.841h17.492c1.555 0 2.842-1.286 2.842-2.841v-17.467c0-1.556-1.286-2.842-2.842-2.842zm0 1.684h17.492c.646 0 1.157.513 1.157 1.158v17.467c0 .646-.512 1.157-1.157 1.157h-17.492c-.646 0-1.158-.512-1.158-1.157v-17.467c0-.646.513-1.158 1.158-1.158z"/><path d="m482.638 193.314c-1.555 0-2.842 1.285-2.842 2.842v17.467c0 1.555 1.286 2.841 2.842 2.841h31.75c1.555 0 2.842-1.286 2.842-2.841v-17.467c0-1.557-1.286-2.842-2.842-2.842zm0 1.684h31.75c.646 0 1.158.514 1.158 1.158v17.467c0 .646-.514 1.157-1.158 1.157h-31.75c-.647 0-1.157-.512-1.157-1.157v-17.467c-.001-.646.51-1.158 1.157-1.158z"/><path d="m401.11 193.314c-1.555 0-2.841 1.285-2.841 2.842v17.467c0 1.555 1.285 2.841 2.841 2.841h41.063c1.554 0 2.814-1.286 2.814-2.841v-17.467c0-1.557-1.261-2.842-2.814-2.842zm0 1.684h41.063c.646 0 1.132.514 1.132 1.158v17.467c0 .646-.488 1.157-1.132 1.157h-41.063c-.646 0-1.157-.512-1.157-1.157v-17.467c0-.646.512-1.158 1.157-1.158z"/><path d="m54.877 217.727c-1.555 0-2.841 1.26-2.841 2.814v17.494c0 1.555 1.286 2.84 2.841 2.84h17.493c1.555 0 2.815-1.284 2.815-2.84v-17.494c0-1.555-1.26-2.814-2.815-2.814zm0 1.683h17.493c.646 0 1.131.486 1.131 1.131v17.494c0 .645-.485 1.157-1.131 1.157h-17.493c-.646 0-1.158-.514-1.158-1.157v-17.494c.001-.646.512-1.131 1.158-1.131z"/><path d="m79.553 217.727c-1.555 0-2.841 1.26-2.841 2.814v17.494c0 1.555 1.286 2.84 2.841 2.84h29.436c1.416 0 2.561-1.083 2.762-2.445 0-.009 0-.019 0-.026.003-.02.024-.034.026-.053.032-.084.049-.173.053-.263 0-.019 0-.036 0-.053v-17.494c0-1.555-1.286-2.814-2.841-2.814zm0 1.683h29.436c.645 0 1.158.486 1.158 1.131v17.441.053c0 .645-.513 1.157-1.158 1.157h-29.436c-.646 0-1.158-.513-1.158-1.157v-17.494c0-.646.511-1.131 1.158-1.131z"/><path d="m116.196 217.727c-1.555 0-2.841 1.26-2.841 2.814v17.494c0 1.555 1.286 2.84 2.841 2.84h17.493c1.555 0 2.814-1.284 2.814-2.84v-17.494c0-1.555-1.259-2.814-2.814-2.814zm0 1.683h17.493c.645 0 1.131.486 1.131 1.131v17.494c0 .645-.486 1.157-1.131 1.157h-17.493c-.646 0-1.158-.514-1.158-1.157v-17.494c.001-.646.512-1.131 1.158-1.131z"/><path d="m140.873 217.727c-1.555 0-2.841 1.26-2.841 2.814v17.494c0 1.555 1.286 2.84 2.841 2.84h17.493c1.555 0 2.841-1.284 2.841-2.84v-17.494c0-1.555-1.286-2.814-2.841-2.814zm0 1.683h17.493c.646 0 1.158.486 1.158 1.131v17.494c0 .645-.512 1.157-1.158 1.157h-17.493c-.645 0-1.158-.514-1.158-1.157v-17.494c0-.646.512-1.131 1.158-1.131z"/><path d="m165.571 217.727c-1.555 0-2.841 1.26-2.841 2.814v17.494c0 1.555 1.286 2.84 2.841 2.84h17.467c1.555 0 2.841-1.284 2.841-2.84v-17.494c0-1.555-1.286-2.814-2.841-2.814zm0 1.683h17.467c.646 0 1.158.485 1.158 1.131v17.494c0 .645-.512 1.157-1.158 1.157h-17.467c-.646 0-1.158-.514-1.158-1.157v-17.494c0-.646.512-1.131 1.158-1.131z"/><path d="m122.404 242.113c-1.554 0-2.841 1.284-2.841 2.841v17.493c0 1.555 1.286 2.842 2.841 2.842h217.702c1.555 0 2.841-1.286 2.841-2.842v-17.493c0-1.555-1.286-2.841-2.841-2.841zm0 1.684h217.702c.646 0 1.157.512 1.157 1.157v17.493c0 .646-.513 1.157-1.157 1.157h-217.702c-.645 0-1.157-.512-1.157-1.157v-17.493c0-.646.511-1.157 1.157-1.157z"/><path d="m190.244 217.727c-1.555 0-2.841 1.26-2.841 2.814v17.494c0 1.554 1.285 2.84 2.841 2.84h17.493c1.555 0 2.815-1.284 2.815-2.84v-17.494c0-1.555-1.26-2.814-2.815-2.814zm0 1.683h17.493c.646 0 1.132.486 1.132 1.131v17.494c0 .645-.486 1.157-1.132 1.157h-17.493c-.646 0-1.158-.513-1.158-1.157v-17.494c0-.646.511-1.131 1.158-1.131z"/><path d="m214.925 217.727c-1.555 0-2.841 1.26-2.841 2.814v17.494c0 1.555 1.286 2.84 2.841 2.84h17.493c1.555 0 2.841-1.284 2.841-2.84v-17.494c0-1.555-1.285-2.814-2.841-2.814zm0 1.683h17.493c.647 0 1.158.485 1.158 1.131v17.494c0 .645-.512 1.157-1.158 1.157h-17.493c-.646 0-1.158-.514-1.158-1.157v-17.494c0-.646.512-1.131 1.158-1.131z"/><path d="m239.623 217.727c-1.554 0-2.841 1.26-2.841 2.814v17.494c0 1.554 1.286 2.84 2.841 2.84h17.466c1.555 0 2.841-1.284 2.841-2.84v-17.494c0-1.555-1.286-2.814-2.841-2.814zm0 1.683h17.466c.646 0 1.158.486 1.158 1.131v17.494c0 .645-.512 1.157-1.158 1.157h-17.466c-.646 0-1.158-.513-1.158-1.157v-17.494c0-.646.513-1.131 1.158-1.131z"/><path d="m264.295 217.727c-1.555 0-2.841 1.26-2.841 2.814v17.494c0 1.555 1.286 2.84 2.841 2.84h17.493c1.555 0 2.815-1.284 2.815-2.84v-17.494c0-1.555-1.26-2.814-2.815-2.814zm0 1.683h17.493c.646 0 1.131.485 1.131 1.131v17.494c0 .645-.485 1.157-1.131 1.157h-17.493c-.645 0-1.158-.514-1.158-1.157v-17.494c.001-.646.512-1.131 1.158-1.131z"/><path d="m288.976 217.727c-1.553 0-2.84 1.26-2.84 2.814v17.494c0 1.554 1.286 2.84 2.84 2.84h17.494c1.555 0 2.841-1.284 2.841-2.84v-17.494c0-1.555-1.286-2.814-2.841-2.814zm0 1.683h17.494c.646 0 1.157.486 1.157 1.131v17.494c0 .645-.513 1.157-1.157 1.157h-17.494c-.645 0-1.157-.513-1.157-1.157v-17.494c0-.646.513-1.131 1.157-1.131z"/><path d="m313.674 217.727c-1.554 0-2.841 1.259-2.841 2.814v17.494c0 1.555 1.286 2.84 2.841 2.84h17.468c1.555 0 2.841-1.284 2.841-2.84v-17.494c0-1.555-1.286-2.814-2.841-2.814zm0 1.683h17.468c.646 0 1.157.486 1.157 1.131v17.494c0 .645-.513 1.157-1.157 1.157h-17.468c-.646 0-1.156-.514-1.156-1.157v-17.494c0-.646.511-1.131 1.156-1.131z"/><path d="m338.347 217.727c-1.554 0-2.842 1.259-2.842 2.814v17.494c0 1.555 1.287 2.84 2.842 2.84h17.493c1.555 0 2.813-1.284 2.813-2.84v-17.494c0-1.555-1.258-2.814-2.813-2.814zm0 1.683h17.493c.646 0 1.132.486 1.132 1.131v17.494c0 .645-.487 1.157-1.132 1.157h-17.493c-.646 0-1.157-.514-1.157-1.157v-17.494c-.001-.646.512-1.131 1.157-1.131z"/><path d="m363.02 217.727c-1.554 0-2.842 1.259-2.842 2.814v17.494c0 1.555 1.286 2.84 2.842 2.84h30.436c1.556 0 2.841-1.284 2.841-2.84v-17.494c0-1.555-1.285-2.814-2.841-2.814zm0 1.683h30.436c.646 0 1.157.486 1.157 1.131v17.494c0 .645-.513 1.157-1.157 1.157h-30.436c-.646 0-1.157-.514-1.157-1.157v-17.494c-.001-.646.512-1.131 1.157-1.131z"/><path d="m400.008 217.727c-1.554 0-2.842 1.26-2.842 2.814v17.494c0 1.554 1.287 2.84 2.842 2.84h17.467c1.554 0 2.841-1.284 2.841-2.84v-17.494c0-1.555-1.286-2.814-2.841-2.814zm0 1.683h17.467c.646 0 1.157.485 1.157 1.131v17.494c0 .645-.512 1.157-1.157 1.157h-17.467c-.646 0-1.157-.513-1.157-1.157v-17.494c0-.646.512-1.131 1.157-1.131z"/><path d="m482.638 217.727c-1.555 0-2.842 1.26-2.842 2.814v17.494c0 1.554 1.286 2.84 2.842 2.84h31.75c1.555 0 2.842-1.284 2.842-2.84v-17.494c0-1.555-1.286-2.814-2.842-2.814zm0 1.683h31.75c.646 0 1.158.486 1.158 1.131v17.494c0 .645-.514 1.157-1.158 1.157h-31.75c-.647 0-1.157-.513-1.157-1.157v-17.494c-.001-.646.51-1.131 1.157-1.131z"/><path d="m424.681 217.727c-1.554 0-2.842 1.26-2.842 2.814v17.494c0 1.554 1.285 2.84 2.842 2.84h17.493c1.554 0 2.814-1.284 2.814-2.84v-17.494c0-1.555-1.261-2.814-2.814-2.814zm0 1.683h17.493c.646 0 1.132.486 1.132 1.131v17.494c0 .645-.488 1.157-1.132 1.157h-17.493c-.646 0-1.158-.513-1.158-1.157v-17.494c-.001-.646.511-1.131 1.158-1.131z"/><path d="m431.76 144.491c-1.555 0-2.841 1.285-2.841 2.841v17.494c0 1.555 1.285 2.84 2.841 2.84h17.493c1.555 0 2.842-1.285 2.842-2.84v-17.494c0-1.556-1.287-2.841-2.842-2.841zm0 1.684h17.493c.647 0 1.157.511 1.157 1.158v17.494c0 .645-.511 1.157-1.157 1.157h-17.493c-.646 0-1.157-.514-1.157-1.157v-17.494c0-.646.512-1.158 1.157-1.158z"/><path d="m482.638 144.491c-1.555 0-2.842 1.285-2.842 2.841v17.494c0 1.554 1.286 2.84 2.842 2.84h31.75c1.555 0 2.842-1.284 2.842-2.84v-17.494c0-1.556-1.286-2.841-2.842-2.841zm0 1.684h31.75c.646 0 1.158.511 1.158 1.158v17.494c0 .644-.514 1.157-1.158 1.157h-31.75c-.647 0-1.157-.513-1.157-1.157v-17.494c-.001-.647.51-1.158 1.157-1.158z"/><path d="m56.666 141.73c-.434.041-.764.406-.763.841v47.982h-5.787c-.465 0-.842.377-.842.843v52.11c0 .465.376.841.842.841h66.238v23.07c0 .466.377.843.842.843h227.466c.465 0 .843-.377.843-.843v-23.385h101.435c.466 0 .842-.377.842-.842v-47.98h6.444c.466 0 .843-.377.843-.842v-51.796c0-.465-.377-.841-.843-.841h-397.482c-.026-.002-.053-.002-.078-.001zm.92 1.684h395.799v50.112h-6.446c-.463 0-.841.376-.841.842v47.98h-101.435c-.465 0-.841.378-.841.843v23.386h-225.784v-23.07c0-.465-.377-.842-.842-.842h-66.238v-50.427h5.788c.465 0 .841-.378.841-.842z"/><path d="m478.219 142.235c-.424.054-.741.416-.737.842v99.617c0 .465.377.842.842.842h40.168c.466 0 .843-.377.843-.842v-99.617c0-.465-.377-.842-.843-.842h-40.168c-.036-.002-.072-.002-.105 0zm.946 1.684h38.485v97.934h-38.485z"/><path d="m45.802 133c-2.105 0-3.84 1.709-3.84 3.814v137.472c0 2.106 1.734 3.841 3.84 3.841h502.411c2.104 0 3.813-1.734 3.813-3.841v-137.473c0-2.105-1.709-3.813-3.813-3.813zm0 1.683h502.411c1.195 0 2.13.935 2.13 2.13v137.472c0 1.196-.935 2.158-2.13 2.158h-502.411c-1.196 0-2.157-.962-2.157-2.158v-137.472c0-1.196.96-2.13 2.157-2.13z"/><path d="m554.29 92.857c-.465 0-.842.376-.842.841v.027 2.92c-.008.465.364.847.83.854.463.006.847-.366.853-.83 0-.008 0-.016 0-.024v-2.92c.016-.465-.351-.854-.814-.867-.009-.001-.018-.001-.027-.001z"/><path d="m554.29 88.91c-.465 0-.842.377-.842.841v.027 2.105c-.008.465.364.846.83.853.463.007.847-.365.853-.83 0-.008 0-.016 0-.023v-2.105c.016-.465-.351-.854-.814-.868-.009 0-.018 0-.027 0z"/><path d="m554.188 83.859c-.423.054-.737.415-.735.842v3.288c-.006.465.364.847.83.854.465.006.848-.365.854-.83 0-.008 0-.016 0-.024v-3.288c.004-.465-.37-.845-.835-.848-.038 0-.076.001-.114.006z"/><path d="m554.29 78.993c-.465 0-.842.377-.842.842v.026 3.156c-.008.465.364.848.83.854.463.007.847-.365.853-.83 0-.008 0-.016 0-.024v-3.156c.016-.465-.351-.854-.814-.868-.009 0-.018 0-.027 0z"/><path d="m554.188 74.389c-.432.055-.752.432-.735.868v2.946c-.006.465.364.848.83.854.465.007.848-.365.854-.83 0-.008 0-.016 0-.024v-2.946c.019-.464-.344-.855-.808-.874-.048-.001-.095 0-.141.006z"/><path d="m554.29 70.208c-.465 0-.842.376-.842.841v.026 2.315c-.008.465.364.848.83.854.463.007.847-.365.853-.83 0-.009 0-.016 0-.024v-2.315c.016-.465-.351-.853-.814-.867-.009 0-.018 0-.027 0z"/><path d="m38.2 70.208c-.424.053-.74.415-.737.841v2.368c-.007.465.365.847.83.854.465.006.847-.365.854-.83 0-.008 0-.016 0-.024v-2.368c.003-.465-.371-.844-.835-.848-.038-.001-.076.002-.112.007z"/><path d="m38.12 74.363c-.391.087-.667.44-.657.842v2.999c-.007.465.365.847.83.854s.847-.365.854-.83c0-.009 0-.016 0-.024v-2.999c.012-.465-.356-.852-.821-.862-.07-.002-.138.005-.206.02z"/><path d="m38.12 79.388c-.391.088-.667.44-.657.842v2.736c-.007.465.365.847.83.854s.847-.365.854-.829c0-.008 0-.017 0-.024v-2.736c.012-.465-.356-.85-.821-.862-.07-.003-.138.005-.206.019z"/><path d="m38.12 83.913c-.391.088-.667.44-.657.841v3.078c-.007.465.365.848.83.854.465.007.847-.365.854-.83 0-.008 0-.016 0-.024v-3.078c.012-.464-.356-.851-.821-.861-.07-.002-.138.004-.206.02z"/><path d="m38.12 89.016c-.391.088-.667.44-.657.842v2.131c-.007.465.365.847.83.854.465.006.847-.366.854-.83 0-.008 0-.016 0-.024v-2.131c.012-.465-.356-.851-.821-.862-.07-.001-.138.005-.206.02z"/><path d="m38.2 93.119c-.424.054-.74.415-.737.842v2.5c-.007.465.365.846.83.854.465.006.847-.365.854-.831 0-.008 0-.016 0-.023v-2.5c.003-.464-.371-.846-.835-.849-.038 0-.076.002-.112.007z"/><path d="m499.337 76.6c-2.715 0-4.944 2.203-4.944 4.919s2.229 4.945 4.944 4.945c2.719 0 4.946-2.229 4.946-4.945 0-2.717-2.227-4.919-4.946-4.919zm0 1.683c1.808 0 3.262 1.429 3.262 3.236s-1.454 3.262-3.262 3.262c-1.806 0-3.261-1.455-3.261-3.262s1.455-3.236 3.261-3.236z"/></g></svg>