<svg height="350.26" viewBox="0 0 598.189 350.26" width="598.189" xmlns="http://www.w3.org/2000/svg"><g fill="#f4f4f4"><path d="m143.577 201.482c-.644 0-1.169-.522-1.169-1.168v-22.213c.002-.646.523-1.165 1.169-1.168h22.212c.648.002 1.167.522 1.169 1.168v22.213c-.002.645-.525 1.168-1.169 1.169zm21.771-1.609v-21.328h-21.328v21.326z"/><path d="m150.967 197.539c-2.85-.001-5.156-2.311-5.159-5.156v-6.348c.001-2.85 2.309-5.156 5.159-5.156h7.434c2.848 0 5.157 2.307 5.157 5.156v6.348c0 2.847-2.309 5.155-5.157 5.156zm-3.547-11.504v6.348c.003 1.956 1.588 3.542 3.546 3.544h7.434c1.957-.002 3.542-1.588 3.545-3.544h.001l-.001-6.348c-.003-1.96-1.586-3.544-3.545-3.546h-7.434c-1.959.002-3.542 1.587-3.546 3.546z"/><path d="m167.574 201.483c-.646-.002-1.168-.524-1.169-1.17l.001-22.211c0-.646.52-1.168 1.168-1.168h22.213c.646 0 1.167.522 1.167 1.168v22.211c-.001.646-.523 1.168-1.167 1.17zm21.769-1.611v-21.328h-21.327v21.328z"/><path d="m174.962 197.538c-2.85 0-5.157-2.308-5.157-5.154l-.002-6.348c.002-2.85 2.309-5.156 5.159-5.156h7.435c2.848 0 5.156 2.307 5.156 5.156v6.348c0 2.847-2.309 5.154-5.156 5.155zm-3.546-11.503v6.348c.003 1.956 1.588 3.542 3.546 3.544h7.435c1.958-.002 3.542-1.588 3.544-3.544h.002l-.002-6.348c-.003-1.96-1.587-3.544-3.544-3.546h-7.435c-1.958.002-3.543 1.587-3.546 3.546z"/><path d="m191.569 201.482c-.644 0-1.167-.522-1.169-1.168l.002-22.213c0-.646.521-1.165 1.167-1.168h22.214c.645.002 1.166.522 1.167 1.168v22.213c0 .646-.523 1.168-1.167 1.169zm21.769-1.609v-21.328h-21.327v21.326z"/><path d="m198.958 197.538c-2.848 0-5.156-2.308-5.156-5.154v-6.348c0-2.85 2.309-5.156 5.156-5.156h7.434c2.849 0 5.158 2.307 5.158 5.156v6.348c0 2.845-2.309 5.154-5.158 5.155zm-3.547-11.503v6.348c.003 1.956 1.588 3.542 3.546 3.544h7.434c1.958-.002 3.542-1.588 3.547-3.544v-6.348c-.005-1.96-1.588-3.544-3.547-3.546h-7.434c-1.957.002-3.543 1.587-3.546 3.546z"/><path d="m215.565 201.483c-.644-.002-1.167-.524-1.169-1.17l.002-22.211c0-.644.52-1.168 1.167-1.168h22.213c.646 0 1.166.522 1.168 1.168v22.211c-.002.646-.523 1.168-1.168 1.17zm21.77-1.611v-21.328h-21.326l-.001 21.328z"/><path d="m222.954 197.539c-2.849-.001-5.157-2.31-5.157-5.156v-6.348c0-2.85 2.309-5.156 5.157-5.156h7.434c2.848 0 5.156 2.307 5.156 5.156v6.348c0 2.847-2.308 5.155-5.156 5.156zm-3.547-11.504v6.348c.004 1.956 1.588 3.542 3.547 3.544h7.433c1.959-.002 3.544-1.588 3.547-3.544v-6.348c-.003-1.96-1.588-3.544-3.547-3.546h-7.433c-1.958.002-3.542 1.587-3.547 3.546z"/><path d="m239.561 201.482c-.644 0-1.167-.524-1.167-1.168v-22.213c0-.644.521-1.165 1.167-1.168h22.213c.646.002 1.168.524 1.168 1.168v22.213c-.001.644-.522 1.168-1.168 1.169zm21.769-1.609v-21.328h-21.326v21.326z"/><path d="m246.949 197.539c-2.848-.001-5.157-2.31-5.157-5.156v-6.348c0-2.85 2.309-5.156 5.157-5.156h7.434c2.85 0 5.157 2.307 5.157 5.156v6.348h.001c-.001 2.846-2.309 5.155-5.159 5.156zm-3.547-11.504v6.348c.005 1.956 1.59 3.542 3.547 3.544h7.434c1.959-.002 3.543-1.588 3.547-3.544v-6.348c-.003-1.96-1.587-3.544-3.547-3.546h-7.434c-1.958.002-3.542 1.587-3.547 3.546z"/><path d="m263.558 201.482c-.645 0-1.168-.524-1.169-1.168l.001-22.213c0-.644.521-1.165 1.168-1.168h22.213c.646.002 1.167.524 1.167 1.168v22.213c0 .644-.522 1.168-1.167 1.169zm21.769-1.609v-21.328h-21.327v21.326z"/><path d="m270.946 197.538c-2.85 0-5.159-2.308-5.159-5.154v-6.348c0-2.85 2.309-5.156 5.159-5.156h7.434c2.848 0 5.157 2.307 5.157 5.156v6.348c-.001 2.845-2.309 5.154-5.157 5.155zm-3.548-11.503.002 6.348c.003 1.956 1.589 3.542 3.547 3.544h7.434c1.958-.002 3.542-1.588 3.544-3.544h.002l-.002-6.348c-.002-1.96-1.586-3.544-3.544-3.546h-7.435c-1.96.002-3.543 1.587-3.548 3.546z"/><path d="m287.553 201.482c-.645 0-1.168-.524-1.168-1.168v-22.213c0-.644.521-1.165 1.168-1.168h22.212c.648.002 1.166.522 1.167 1.168v22.213c0 .646-.521 1.168-1.167 1.169zm21.768-1.609.002-21.328h-21.328l-.001 21.326z"/><path d="m294.942 197.538c-2.851 0-5.157-2.308-5.159-5.154v-6.348c.001-2.85 2.311-5.156 5.159-5.156h7.434c2.848 0 5.156 2.307 5.156 5.156v6.348c0 2.847-2.309 5.154-5.156 5.155zm-3.547-11.503v6.348c.003 1.956 1.588 3.542 3.547 3.544h7.434c1.957-.002 3.542-1.588 3.545-3.544h.002l-.002-6.348c-.003-1.96-1.586-3.544-3.545-3.546h-7.434c-1.959.002-3.544 1.587-3.547 3.546z"/><path d="m311.549 201.483c-.645-.002-1.167-.524-1.169-1.17l.002-22.212c0-.644.521-1.166 1.167-1.168h22.213c.646.002 1.166.521 1.168 1.168v22.212h-.002c0 .646-.522 1.168-1.166 1.17zm21.77-1.61v-21.329h-21.327v21.327z"/><path d="m318.938 197.538c-2.85 0-5.159-2.309-5.159-5.155v-6.347c0-2.85 2.31-5.157 5.159-5.157h7.435c2.846 0 5.153 2.308 5.153 5.157v6.347h.002c-.002 2.847-2.31 5.155-5.155 5.155zm-3.548-11.502.002 6.347c.003 1.956 1.588 3.541 3.547 3.544h7.435c1.955-.003 3.541-1.588 3.544-3.544v-6.347c-.003-1.961-1.589-3.544-3.544-3.547l-7.435-.001c-1.96.004-3.544 1.588-3.549 3.548z"/><path d="m335.544 201.483c-.646-.002-1.168-.524-1.17-1.169l.002-22.213c0-.645.521-1.167 1.168-1.169h22.213c.646.002 1.166.523 1.169 1.169v22.213h-.003c0 .645-.521 1.167-1.166 1.169zm21.769-1.611.002-21.328h-21.329l-.001 21.328z"/><path d="m342.933 197.538c-2.849 0-5.155-2.309-5.155-5.154l-.002-6.348c.002-2.85 2.309-5.156 5.157-5.158l7.434.002c2.849 0 5.157 2.307 5.157 5.156v6.348h.002c-.002 2.846-2.311 5.154-5.159 5.155zm-3.547-11.503.002 6.348c.003 1.956 1.587 3.541 3.545 3.544h7.434c1.958-.003 3.543-1.588 3.547-3.544h.002l-.002-6.348c-.004-1.959-1.591-3.543-3.547-3.546l-7.434-.001c-1.958.004-3.542 1.588-3.547 3.547z"/><path d="m359.539 201.482c-.645 0-1.167-.522-1.168-1.168l.001-22.212c.002-.647.521-1.166 1.167-1.17l22.213.002c.647 0 1.167.524 1.169 1.168v22.212h-.002c0 .644-.522 1.168-1.167 1.169zm21.772-1.61v-21.327h-21.327l-.002 21.327z"/><path d="m366.929 197.538c-2.85 0-5.157-2.309-5.157-5.156v-6.347c0-2.849 2.311-5.156 5.157-5.156h7.434c2.849 0 5.157 2.308 5.157 5.156v6.347h.002c-.002 2.848-2.311 5.156-5.159 5.156zm-3.547-11.503v6.347c.005 1.957 1.591 3.542 3.547 3.545h7.434c1.958-.003 3.544-1.588 3.547-3.545v-6.347c-.003-1.96-1.589-3.543-3.547-3.546l-7.434-.001c-1.96.004-3.542 1.588-3.547 3.547z"/><path d="m383.535 201.483c-.645-.002-1.165-.524-1.168-1.169v-22.213c0-.644.521-1.166 1.168-1.168h22.213c.648.004 1.166.522 1.169 1.168v22.213h-.002c0 .646-.522 1.169-1.167 1.169zm21.772-1.611v-21.328h-21.327v21.328z"/><path d="m390.925 197.538c-2.849 0-5.156-2.309-5.156-5.156l-.002-6.347c.002-2.849 2.31-5.156 5.158-5.157l7.434.001c2.85 0 5.158 2.308 5.158 5.156v6.347h.001c-.001 2.848-2.31 5.156-5.159 5.156zm-3.546-11.503v6.347c.002 1.957 1.588 3.543 3.546 3.544l7.434.002c1.96-.003 3.544-1.589 3.547-3.546v-6.347c-.003-1.96-1.588-3.543-3.547-3.546l-7.434-.001c-1.959.004-3.544 1.588-3.546 3.547z"/><path d="m407.531 201.483c-.645-.002-1.165-.525-1.168-1.168l.003-22.213c0-.646.519-1.168 1.165-1.17l22.213.002c.646 0 1.167.522 1.168 1.168v22.213h-.001c0 .643-.521 1.166-1.167 1.168zm21.769-1.61v-21.329h-21.324l-.002 21.327z"/><path d="m414.921 197.538c-2.848 0-5.157-2.309-5.157-5.154v-6.348c0-2.848 2.31-5.156 5.157-5.158h7.434c2.849 0 5.156 2.311 5.156 5.158v6.348h.002c-.002 2.846-2.31 5.154-5.158 5.155zm-3.547-11.502v6.347c.003 1.956 1.587 3.542 3.545 3.544h7.435c1.96-.002 3.543-1.588 3.547-3.544h.001l-.001-6.347c-.004-1.961-1.589-3.545-3.547-3.547h-7.435c-1.958.002-3.542 1.587-3.545 3.547z"/><path d="m431.526 201.482c-.646 0-1.166-.523-1.167-1.169l.001-22.212c0-.644.52-1.167 1.168-1.169l22.213.002c.645 0 1.166.522 1.168 1.167v22.212h-.002c0 .646-.521 1.169-1.166 1.17zm21.771-1.609.001-21.328-21.327-.001-.001 21.327z"/><path d="m438.917 197.538c-2.85 0-5.155-2.308-5.155-5.155l-.002-6.347c.002-2.848 2.31-5.156 5.157-5.157h7.434c2.849.001 5.156 2.31 5.156 5.157v6.347h.001c-.001 2.848-2.309 5.155-5.157 5.156zm-3.547-11.503v6.347c.004 1.958 1.587 3.543 3.547 3.545h7.433c1.957-.002 3.544-1.588 3.547-3.545v-6.347c-.003-1.96-1.588-3.543-3.547-3.546l-7.433-.001c-1.96.004-3.543 1.588-3.547 3.547z"/><path d="m131.248 225.698c-.646 0-1.169-.521-1.169-1.166v-22.213c0-.646.523-1.167 1.169-1.169l22.212.002c.645 0 1.167.521 1.168 1.167v22.213h-.001c0 .646-.523 1.166-1.167 1.168zm21.768-1.609v-21.327h-21.327v21.327z"/><path d="m138.636 221.755c-2.849 0-5.157-2.307-5.157-5.155v-6.348c0-2.848 2.309-5.157 5.157-5.157h7.435c2.85 0 5.156 2.31 5.157 5.157v6.348c-.001 2.849-2.309 5.155-5.157 5.157zm-3.547-11.503v6.348c.003 1.96 1.587 3.543 3.547 3.545h7.435c1.96-.002 3.542-1.586 3.545-3.545l.002-6.348c-.005-1.959-1.59-3.542-3.547-3.547h-7.435c-1.958.003-3.544 1.59-3.547 3.547z"/><path d="m155.243 225.698c-.645 0-1.168-.522-1.168-1.166v-22.213c0-.643.523-1.167 1.168-1.169l22.211.002c.645 0 1.168.521 1.168 1.167v22.213c0 .646-.523 1.166-1.168 1.168zm21.77-1.609v-21.327h-21.327v21.327z"/><path d="m162.631 221.755c-2.849 0-5.155-2.307-5.157-5.155l.001-6.348c0-2.848 2.307-5.157 5.155-5.157h7.435c2.849 0 5.158 2.31 5.158 5.157v6.348c0 2.849-2.309 5.155-5.158 5.157zm-3.545-11.503v6.348c.004 1.96 1.587 3.543 3.545 3.545l7.435.002c1.959-.004 3.543-1.588 3.547-3.547v-6.348c-.004-1.959-1.587-3.542-3.547-3.547h-7.435c-1.958.003-3.541 1.588-3.545 3.547z"/><path d="m179.238 225.699c-.643-.001-1.168-.521-1.168-1.165v-22.214c.001-.646.523-1.167 1.168-1.169h22.213c.645.002 1.167.523 1.168 1.169v22.214c0 .643-.523 1.165-1.168 1.165zm21.77-1.61.001-21.328h-21.329v21.328z"/><path d="m186.627 221.757c-2.849-.002-5.157-2.309-5.157-5.157v-6.348c0-2.848 2.309-5.157 5.157-5.157h7.435c2.849 0 5.156 2.31 5.156 5.157v6.348c0 2.849-2.307 5.155-5.156 5.157zm-3.545-11.505v6.348c.003 1.96 1.587 3.543 3.546 3.545h7.435c1.957-.002 3.541-1.586 3.545-3.545l.001-6.348c-.004-1.959-1.59-3.542-3.546-3.547h-7.435c-1.959.003-3.544 1.588-3.546 3.547z"/><path d="m203.234 225.698c-.645 0-1.168-.521-1.168-1.166v-22.213c.001-.646.523-1.167 1.168-1.169l22.214.002c.644 0 1.167.52 1.167 1.167v22.213c0 .647-.524 1.166-1.167 1.168zm21.771-1.609v-21.327h-21.328v21.327z"/><path d="m210.623 221.755c-2.848 0-5.156-2.307-5.157-5.155l.001-6.348c0-2.848 2.308-5.157 5.156-5.157h7.435c2.849 0 5.157 2.31 5.157 5.157v6.348c0 2.849-2.309 5.155-5.157 5.157zm-3.547-11.503v6.348c.005 1.96 1.589 3.543 3.546 3.545h7.435c1.959-.002 3.543-1.586 3.546-3.545v-6.348c-.003-1.959-1.588-3.542-3.546-3.547h-7.435c-1.956.003-3.541 1.588-3.546 3.547z"/><path d="m227.23 225.698c-.643 0-1.167-.521-1.168-1.166l.001-22.213c0-.646.521-1.167 1.167-1.169l22.212.002c.646 0 1.167.524 1.169 1.167v22.213c-.002.644-.525 1.166-1.169 1.168zm21.77-1.609.002-21.327h-21.327v21.327z"/><path d="m234.62 221.755c-2.849 0-5.158-2.307-5.158-5.155v-6.348c0-2.848 2.309-5.157 5.158-5.157h7.435c2.849 0 5.155 2.31 5.155 5.157v6.348c0 2.849-2.309 5.155-5.155 5.157zm-3.547-11.503v6.348c.003 1.96 1.588 3.543 3.547 3.545l7.435.002c1.958-.004 3.542-1.588 3.545-3.547v-6.348c-.003-1.959-1.587-3.542-3.545-3.547h-7.435c-1.96.003-3.543 1.588-3.547 3.547z"/><path d="m251.227 225.698c-.644 0-1.169-.521-1.169-1.166v-22.213c.002-.646.525-1.167 1.169-1.169l22.212.002c.646 0 1.167.524 1.169 1.167v22.213c-.002.644-.523 1.166-1.169 1.168zm21.768-1.609v-21.327h-21.326l-.001 21.327z"/><path d="m258.615 221.755c-2.848 0-5.156-2.307-5.157-5.155l.001-6.348c0-2.848 2.308-5.157 5.156-5.157h7.435c2.849 0 5.158 2.31 5.158 5.157v6.348c0 2.849-2.309 5.155-5.158 5.157zm-3.546-11.503v6.348c.003 1.96 1.587 3.543 3.546 3.545l7.435.002c1.959-.004 3.543-1.588 3.547-3.547v-6.348c-.003-1.957-1.587-3.542-3.547-3.547h-7.435c-1.958.003-3.543 1.588-3.546 3.547z"/><path d="m275.223 225.698c-.644 0-1.168-.52-1.168-1.166v-22.213c.001-.647.525-1.167 1.168-1.169l22.213.002c.645 0 1.167.524 1.168 1.167v22.213h-.001c0 .644-.522 1.166-1.167 1.168zm21.767-1.609.001-21.327h-21.327v21.327z"/><path d="m282.611 221.757c-2.848-.002-5.157-2.309-5.157-5.157v-6.348c0-2.848 2.309-5.157 5.157-5.157h7.433c2.849 0 5.158 2.31 5.158 5.157v6.348c0 2.849-2.309 5.155-5.158 5.157zm-3.545-11.505v6.348c.002 1.96 1.587 3.543 3.546 3.545l7.433.002c1.959-.004 3.543-1.588 3.547-3.547v-6.348c-.003-1.957-1.588-3.542-3.547-3.547h-7.433c-1.957.003-3.544 1.59-3.546 3.547z"/><path d="m299.218 225.698c-.645 0-1.167-.52-1.168-1.166v-22.213c0-.647.523-1.167 1.168-1.169l22.211.002c.646 0 1.167.524 1.169 1.167v22.213h-.002c0 .644-.521 1.166-1.167 1.168zm21.768-1.609.001-21.327h-21.326v21.327z"/><path d="m306.606 221.755c-2.848 0-5.157-2.307-5.157-5.155v-6.348c0-2.848 2.31-5.157 5.157-5.157h7.436c2.849 0 5.155 2.31 5.157 5.157v6.348c-.002 2.849-2.311 5.155-5.157 5.157zm-3.546-11.503v6.348c.004 1.96 1.588 3.543 3.547 3.545l7.434.002c1.958-.004 3.544-1.588 3.547-3.547v-6.348c-.003-1.957-1.589-3.542-3.547-3.547h-7.434c-1.958.003-3.544 1.59-3.547 3.547z"/><path d="m323.214 225.699c-.646-.001-1.166-.523-1.168-1.167v-22.212c.002-.644.522-1.167 1.168-1.169h22.212c.645.002 1.167.525 1.169 1.169v22.212h-.002c0 .644-.522 1.166-1.167 1.167zm21.768-1.61v-21.326l-21.325-.002-.002 21.327z"/><path d="m330.603 221.755c-2.849 0-5.155-2.307-5.157-5.156l.002-6.347c0-2.847 2.307-5.156 5.155-5.156h7.436c2.847 0 5.154 2.308 5.155 5.156v6.347c-.001 2.85-2.31 5.156-5.155 5.158zm-3.547-11.503v6.347c.004 1.96 1.587 3.542 3.547 3.546h7.434c1.958-.004 3.543-1.587 3.545-3.546l.002-6.347c-.004-1.957-1.589-3.541-3.547-3.546h-7.434c-1.96.004-3.543 1.587-3.547 3.546z"/><path d="m347.211 225.699c-.646-.001-1.167-.523-1.168-1.166v-22.214c.001-.645.522-1.166 1.168-1.168h22.211c.645.002 1.167.523 1.169 1.168v22.214h-.002c0 .643-.522 1.165-1.167 1.166zm21.768-1.61.002-21.327h-21.327v21.327z"/><path d="m354.6 221.754c-2.848 0-5.158-2.307-5.158-5.154v-6.346c0-2.85 2.308-5.159 5.158-5.159h7.433c2.85 0 5.156 2.31 5.158 5.159v6.346c-.002 2.848-2.311 5.154-5.158 5.157zm-3.547-11.5v6.346c.004 1.961 1.587 3.541 3.547 3.546h7.433c1.959-.005 3.542-1.586 3.546-3.546v-6.346c-.004-1.96-1.589-3.543-3.546-3.548l-7.433-.002c-1.959.006-3.543 1.59-3.547 3.55z"/><path d="m371.207 225.699c-.645-.001-1.168-.522-1.17-1.167l.002-22.213c0-.643.523-1.167 1.168-1.169l22.213.002c.644 0 1.165.524 1.166 1.167v22.213h-.001c0 .645-.521 1.166-1.165 1.167zm21.769-1.61v-21.327h-21.326v21.326z"/><path d="m378.596 221.757c-2.851 0-5.158-2.31-5.159-5.157l.001-6.348c0-2.848 2.308-5.157 5.158-5.157h7.433c2.849 0 5.156 2.31 5.156 5.157v6.348c0 2.848-2.308 5.157-5.157 5.157zm-3.547-11.505v6.348c.002 1.959 1.587 3.542 3.547 3.545h7.433c1.961-.003 3.542-1.587 3.546-3.545v-6.348c-.004-1.958-1.587-3.542-3.546-3.547h-7.433c-1.958.003-3.545 1.589-3.547 3.547z"/><path d="m395.202 225.698c-.646 0-1.168-.522-1.169-1.166l.001-22.213c0-.645.522-1.166 1.168-1.168h22.214c.645.002 1.165.525 1.167 1.168v22.213h-.002c0 .644-.521 1.166-1.165 1.168zm21.769-1.609.001-21.328h-21.327v21.328z"/><path d="m402.589 221.757c-2.848-.002-5.157-2.309-5.157-5.157v-6.347c0-2.849 2.31-5.158 5.157-5.158h7.437c2.846 0 5.155 2.31 5.155 5.158v6.347c0 2.849-2.31 5.155-5.155 5.157zm-3.545-11.504v6.347c.004 1.959 1.588 3.542 3.545 3.546h7.437c1.958-.004 3.543-1.588 3.545-3.546l.002-6.347c-.004-1.958-1.591-3.542-3.547-3.548h-7.437c-1.957.005-3.541 1.59-3.545 3.548z"/><path d="m419.196 225.699c-.645-.002-1.166-.522-1.167-1.167v-22.214c.001-.642.522-1.166 1.167-1.168l22.213.002c.643 0 1.168.52 1.17 1.166v22.214h-.002c0 .646-.525 1.165-1.168 1.167zm21.771-1.61.002-21.326-21.327-.002-.002 21.327z"/><path d="m426.586 221.757c-2.849-.002-5.156-2.309-5.156-5.157v-6.347c0-2.85 2.308-5.157 5.156-5.159h7.435c2.848.002 5.155 2.31 5.156 5.159v6.347c-.001 2.849-2.309 5.155-5.156 5.157zm-3.546-11.504v6.347c.004 1.96 1.587 3.541 3.546 3.545h7.435c1.957-.004 3.541-1.586 3.546-3.545v-6.347c-.005-1.959-1.589-3.542-3.546-3.547h-7.435c-1.957.004-3.542 1.588-3.546 3.547z"/><path d="m444.099 225.698c-.646 0-1.166-.52-1.169-1.165v-22.215c0-.646.523-1.167 1.169-1.167h22.214c.644.002 1.167.523 1.169 1.167v22.215h-.002c0 .643-.523 1.165-1.167 1.167zm21.769-1.609v-21.326l-21.326-.002-.001 21.328z"/><path d="m451.487 221.755c-2.848 0-5.155-2.308-5.155-5.155v-6.347c0-2.85 2.308-5.157 5.155-5.159h7.437c2.848.002 5.155 2.31 5.155 5.159v6.347c0 2.848-2.308 5.155-5.155 5.157zm-3.545-11.502v6.347c.004 1.961 1.587 3.541 3.545 3.545h7.437c1.957-.004 3.541-1.585 3.545-3.545l.001-6.347c-.005-1.959-1.589-3.543-3.546-3.548h-7.437c-1.956.003-3.541 1.589-3.545 3.548z"/><path d="m137.533 249.917c-.647 0-1.168-.521-1.169-1.167v-22.212c.001-.644.525-1.167 1.169-1.169h22.212c.644.002 1.168.525 1.169 1.169v22.212h-.001c0 .646-.521 1.166-1.168 1.168zm21.771-1.609v-21.328h-21.329v21.326z"/><path d="m144.923 245.974c-2.849 0-5.158-2.309-5.158-5.157v-6.347c0-2.849 2.309-5.155 5.158-5.157l7.433.002c2.85 0 5.157 2.307 5.158 5.155v6.347c-.001 2.848-2.309 5.157-5.158 5.158zm-3.548-11.504v6.347c.003 1.959 1.588 3.543 3.547 3.547h7.434c1.957-.004 3.542-1.589 3.547-3.547l-.002-6.347c-.003-1.958-1.588-3.542-3.545-3.546h-7.434c-1.958.003-3.544 1.588-3.547 3.546z"/><path d="m161.529 249.918c-.647-.002-1.167-.521-1.169-1.168v-22.211c0-.647.525-1.169 1.169-1.169h22.213c.645 0 1.167.522 1.168 1.169v22.211h-.001c0 .647-.521 1.166-1.167 1.168zm21.77-1.61v-21.328h-21.328v21.328z"/><path d="m168.918 245.974c-2.849 0-5.159-2.31-5.159-5.157v-6.347c0-2.849 2.31-5.155 5.159-5.157l7.433.002c2.849 0 5.156 2.307 5.158 5.155v6.347c-.002 2.848-2.309 5.157-5.158 5.158zm-3.547-11.504v6.347c.005 1.959 1.588 3.543 3.548 3.547h7.433c1.958-.004 3.543-1.589 3.547-3.547l-.001-6.347c-.003-1.958-1.588-3.542-3.546-3.546h-7.433c-1.96.003-3.544 1.588-3.548 3.546z"/><path d="m185.525 249.917c-.647 0-1.168-.521-1.169-1.167l.001-22.212c0-.644.522-1.167 1.168-1.169h22.213c.644.002 1.167.522 1.167 1.169v22.212c-.001.647-.522 1.164-1.167 1.168zm21.769-1.609v-21.328h-21.328v21.326z"/><path d="m192.914 245.975c-2.85-.001-5.158-2.31-5.158-5.158v-6.347c0-2.849 2.309-5.155 5.158-5.157h7.434c2.848.002 5.157 2.309 5.157 5.157v6.347c0 2.849-2.309 5.157-5.157 5.158zm-3.548-11.505v6.347c.005 1.959 1.59 3.543 3.548 3.547h7.434c1.957-.004 3.541-1.589 3.547-3.547v-6.347c-.005-1.958-1.59-3.542-3.547-3.546h-7.434c-1.958.003-3.543 1.588-3.548 3.546z"/><path d="m209.522 249.917c-.648-.002-1.167-.52-1.169-1.167v-22.212c0-.646.523-1.167 1.169-1.169h22.211c.644.002 1.168.525 1.168 1.169v22.212c0 .646-.522 1.166-1.168 1.168zm21.768-1.609.001-21.328h-21.328v21.326z"/><path d="m216.91 245.974c-2.85 0-5.157-2.31-5.158-5.157v-6.347c.001-2.849 2.309-5.155 5.158-5.157l7.435.002c2.848 0 5.155 2.309 5.156 5.155v6.347c-.001 2.848-2.309 5.157-5.156 5.158zm-3.547-11.504v6.347c.004 1.959 1.589 3.543 3.547 3.547h7.435c1.958-.004 3.542-1.589 3.544-3.547v-6.347c-.003-1.958-1.586-3.542-3.544-3.546h-7.435c-1.958.003-3.543 1.588-3.547 3.546z"/><path d="m233.516 249.918c-.646-.002-1.166-.521-1.167-1.168v-22.211c.001-.646.523-1.169 1.167-1.169h22.213c.646 0 1.167.522 1.167 1.169v22.211c-.001.647-.52 1.166-1.167 1.168zm21.769-1.61.002-21.328h-21.329v21.328z"/><path d="m240.906 245.975c-2.85-.001-5.156-2.311-5.159-5.158v-6.347c.002-2.849 2.309-5.155 5.159-5.157l7.435.002c2.847 0 5.156 2.307 5.156 5.155v6.347c0 2.848-2.309 5.157-5.156 5.158zm-3.548-11.505v6.347c.005 1.959 1.59 3.543 3.548 3.547h7.435c1.958-.004 3.541-1.589 3.546-3.547l-.001-6.347c-.003-1.958-1.586-3.542-3.544-3.546h-7.435c-1.961.003-3.544 1.588-3.549 3.546z"/><path d="m257.513 249.917c-.647 0-1.167-.521-1.169-1.167l.002-22.212c0-.644.521-1.167 1.167-1.169h22.212c.644.002 1.167.525 1.167 1.169v22.212c0 .646-.52 1.166-1.167 1.168zm21.768-1.609.001-21.328h-21.328v21.326z"/><path d="m264.902 245.975c-2.849-.001-5.156-2.311-5.156-5.158l-.001-6.347c.001-2.847 2.309-5.155 5.159-5.157l7.435.002c2.848 0 5.155 2.309 5.155 5.155v6.347c0 2.848-2.309 5.157-5.155 5.158zm-3.547-11.505v6.347c.003 1.959 1.586 3.543 3.546 3.547h7.436c1.958-.004 3.541-1.589 3.545-3.547l-.001-6.347c-.003-1.958-1.586-3.542-3.544-3.546h-7.436c-1.959.003-3.542 1.588-3.546 3.546z"/><path d="m281.508 249.917c-.646 0-1.166-.521-1.167-1.167v-22.212c.001-.644.523-1.167 1.167-1.169h22.214c.646.002 1.164.525 1.166 1.169v22.212c-.002.644-.52 1.164-1.166 1.168zm21.769-1.609v-21.328h-21.326v21.326z"/><path d="m288.897 245.975c-2.847-.001-5.156-2.31-5.156-5.158l-.001-6.347c.001-2.849 2.311-5.155 5.158-5.157h7.434c2.849.002 5.158 2.309 5.158 5.157v6.347c0 2.849-2.309 5.157-5.158 5.158zm-3.546-11.505v6.347c.003 1.959 1.589 3.543 3.546 3.547h7.433c1.958-.004 3.544-1.589 3.547-3.547v-6.347c-.003-1.958-1.589-3.542-3.547-3.546h-7.433c-1.958.003-3.543 1.588-3.546 3.546z"/><path d="m305.505 249.917c-.648 0-1.168-.521-1.17-1.167l.002-22.212c0-.644.521-1.167 1.168-1.169h22.213c.645 0 1.166.522 1.167 1.169v22.212h-.001c-.002.647-.521 1.164-1.166 1.168zm21.769-1.609v-21.328h-21.328v21.326z"/><path d="m312.892 245.974c-2.848 0-5.154-2.31-5.154-5.157l-.003-6.347c.003-2.847 2.31-5.155 5.157-5.157l7.436.002c2.847 0 5.156 2.307 5.156 5.155v6.347c0 2.849-2.31 5.157-5.156 5.158zm-3.545-11.504v6.347c.004 1.959 1.589 3.543 3.545 3.547h7.436c1.956-.004 3.542-1.589 3.545-3.547v-6.347c-.003-1.958-1.59-3.542-3.545-3.546h-7.436c-1.956.003-3.541 1.588-3.545 3.546z"/><path d="m329.501 249.917c-.646 0-1.17-.52-1.171-1.167l.001-22.212c0-.646.524-1.167 1.17-1.169h22.211c.646.002 1.166.525 1.168 1.169v22.212c0 .646-.521 1.166-1.168 1.168zm21.769-1.609v-21.328h-21.327l-.002 21.326z"/><path d="m336.888 245.975c-2.849-.001-5.155-2.31-5.155-5.158l-.002-6.347c.002-2.849 2.309-5.155 5.157-5.157h7.434c2.849.002 5.157 2.311 5.157 5.157v6.347c0 2.848-2.309 5.157-5.157 5.158zm-3.547-11.505v6.347c.006 1.959 1.591 3.543 3.547 3.547h7.434c1.96-.004 3.544-1.589 3.547-3.547l-.002-6.347c-.001-1.958-1.587-3.542-3.545-3.546h-7.434c-1.956.003-3.541 1.588-3.547 3.546z"/><path d="m353.495 249.917c-.646 0-1.167-.521-1.169-1.167l.002-22.212c0-.643.523-1.167 1.167-1.17h22.212c.644.003 1.169.527 1.171 1.17v22.212h-.002c0 .645-.522 1.166-1.169 1.168zm21.771-1.609.001-21.327-21.326-.002-.002 21.327z"/><path d="m360.886 245.975c-2.85 0-5.155-2.311-5.155-5.157l-.004-6.347c.004-2.85 2.31-5.156 5.159-5.158l7.434.002c2.848 0 5.156 2.307 5.156 5.156v6.347c0 2.847-2.309 5.157-5.156 5.157zm-3.547-11.504v6.347c.003 1.958 1.587 3.542 3.547 3.545l7.434.002c1.957-.005 3.54-1.59 3.544-3.547v-6.347c-.004-1.959-1.587-3.544-3.544-3.546h-7.434c-1.96.002-3.544 1.587-3.547 3.546z"/><path d="m377.49 249.918c-.647-.002-1.165-.521-1.168-1.168l.002-22.212c0-.646.521-1.169 1.166-1.169h22.213c.646.002 1.169.524 1.169 1.169v22.212c0 .646-.522 1.165-1.169 1.167zm21.771-1.61.002-21.327h-21.33v21.327z"/><path d="m384.881 245.975c-2.851 0-5.157-2.31-5.157-5.158v-6.347c0-2.848 2.307-5.155 5.157-5.157l7.435.002c2.847 0 5.156 2.308 5.156 5.155v6.347c0 2.849-2.31 5.158-5.156 5.158zm-3.547-11.505v6.347c.003 1.959 1.589 3.544 3.547 3.547h7.435c1.957-.003 3.542-1.589 3.547-3.547l-.001-6.347c-.004-1.957-1.591-3.542-3.546-3.545l-7.435-.002c-1.958.004-3.544 1.59-3.547 3.547z"/><path d="m401.487 249.917c-.647 0-1.169-.521-1.169-1.167v-22.212c.003-.643.523-1.167 1.169-1.169h36.719c.646 0 1.167.522 1.169 1.169v22.212h-.002c-.001.647-.521 1.165-1.167 1.169zm36.276-1.609v-21.328l-35.834-.002v21.327z"/><path d="m408.876 245.975c-2.848 0-5.157-2.311-5.157-5.157v-6.347c0-2.849 2.31-5.156 5.157-5.156h21.943c2.846 0 5.155 2.308 5.155 5.156v6.347c0 2.848-2.31 5.157-5.155 5.157zm-3.547-11.504v6.347c.005 1.958 1.589 3.542 3.549 3.546h21.941c1.956-.004 3.54-1.589 3.543-3.546v-6.347c-.003-1.958-1.589-3.544-3.543-3.547h-21.941c-1.961.003-3.544 1.587-3.549 3.547z"/><path d="m439.99 249.918c-.646-.002-1.168-.522-1.168-1.168v-22.212c0-.646.522-1.167 1.168-1.169h22.213c.645.002 1.166.523 1.166 1.169v22.212c0 .646-.52 1.166-1.166 1.168zm21.769-1.61.002-21.328h-21.327l-.001 21.326z"/><path d="m447.38 245.975c-2.851 0-5.158-2.31-5.158-5.156l-.002-6.348c.002-2.849 2.31-5.157 5.16-5.157h7.434c2.847 0 5.156 2.309 5.156 5.157v6.348c0 2.847-2.31 5.156-5.156 5.156zm-3.549-11.504v6.348c.005 1.956 1.59 3.542 3.549 3.545h7.434c1.957-.003 3.542-1.59 3.546-3.545l-.003-6.348c-.001-1.959-1.586-3.543-3.542-3.546l-7.435-.002c-1.959.004-3.544 1.589-3.549 3.548z"/><path d="m137.472 274.136c-.644 0-1.168-.523-1.168-1.17v-22.212c.002-.645.521-1.167 1.168-1.167h34.905c.646 0 1.169.522 1.169 1.167v22.212c0 .646-.524 1.168-1.169 1.17zm34.464-1.611v-21.329h-34.02l-.002 21.329z"/><path d="m144.861 270.19c-2.849 0-5.156-2.309-5.156-5.155v-6.347c0-2.85 2.307-5.158 5.156-5.158h20.128c2.849 0 5.156 2.309 5.156 5.158v6.347c0 2.847-2.307 5.155-5.156 5.155zm-3.545-11.502v6.347c.003 1.956 1.587 3.542 3.545 3.544h20.128c1.958-.002 3.542-1.589 3.546-3.544h.001v-6.347c-.005-1.96-1.589-3.544-3.547-3.547h-20.128c-1.959.004-3.542 1.588-3.545 3.547z"/><path d="m203.114 298.132c-.646-.002-1.168-.526-1.17-1.169l.002-22.213c0-.645.521-1.166 1.168-1.168h194.837c.643.002 1.167.523 1.169 1.168v22.213c-.002.643-.526 1.167-1.169 1.169zm194.394-1.611v-21.327h-193.951l-.001 21.327z"/><path d="m210.502 294.187c-2.848 0-5.157-2.309-5.157-5.156v-6.346c0-2.849 2.309-5.158 5.157-5.158h180.06c2.849 0 5.156 2.31 5.157 5.158v6.346h-.001c0 2.848-2.308 5.157-5.156 5.157zm-3.545-11.502v6.346c.003 1.957 1.589 3.542 3.546 3.546h180.059c1.96-.004 3.544-1.588 3.547-3.546v-6.346c-.003-1.961-1.589-3.545-3.547-3.548h-180.06c-1.959.003-3.544 1.587-3.545 3.548z"/><path d="m174.162 274.136c-.644 0-1.168-.523-1.168-1.17v-22.212c.002-.645.521-1.167 1.168-1.167h22.212c.647 0 1.167.522 1.168 1.167v22.212c0 .646-.523 1.17-1.168 1.17zm21.769-1.611.001-21.329h-21.328v21.329z"/><path d="m181.551 270.19c-2.848-.001-5.157-2.307-5.157-5.156v-6.347c0-2.848 2.308-5.157 5.157-5.158l7.435.001c2.848 0 5.157 2.31 5.157 5.157v6.347c0 2.85-2.309 5.155-5.157 5.156zm-3.548-11.502.002 6.347c.003 1.958 1.587 3.542 3.546 3.544l7.435.002c1.959-.004 3.543-1.589 3.546-3.546v-6.347c-.003-1.959-1.587-3.544-3.546-3.546h-7.435c-1.959.002-3.543 1.587-3.548 3.546z"/><path d="m198.158 274.135c-.646 0-1.168-.521-1.168-1.167v-22.214c.001-.646.521-1.166 1.168-1.169h22.212c.646.003 1.167.522 1.168 1.169v22.214c0 .646-.523 1.167-1.168 1.168zm21.769-1.611v-21.327l-21.328-.001v21.328z"/><path d="m205.546 270.19c-2.849-.001-5.157-2.31-5.157-5.156v-6.347c0-2.848 2.308-5.157 5.157-5.158h7.435c2.849.001 5.156 2.311 5.156 5.158v6.347c0 2.847-2.307 5.155-5.156 5.156zm-3.546-11.502v6.347c.003 1.958 1.587 3.542 3.546 3.544h7.435c1.958-.002 3.542-1.587 3.545-3.544v-6.347c-.003-1.959-1.587-3.544-3.545-3.546h-7.435c-1.959.002-3.543 1.587-3.546 3.546z"/><path d="m222.154 274.136c-.646-.002-1.167-.524-1.169-1.17v-22.212c.001-.645.522-1.167 1.169-1.167h22.213c.647 0 1.166.522 1.167 1.167v22.212c0 .646-.524 1.17-1.167 1.17zm21.77-1.611v-21.329h-21.327l-.001 21.329z"/><path d="m229.542 270.19c-2.848-.001-5.156-2.307-5.156-5.156v-6.347c0-2.849 2.309-5.157 5.156-5.158l7.435.001c2.85 0 5.157 2.31 5.157 5.157v6.347c0 2.85-2.307 5.155-5.157 5.156zm-3.547-11.502.002 6.347c.003 1.958 1.587 3.542 3.545 3.544l7.435.002c1.958-.004 3.542-1.589 3.546-3.546h.001v-6.347c-.005-1.959-1.589-3.544-3.547-3.546h-7.435c-1.958.002-3.542 1.587-3.547 3.546z"/><path d="m246.149 274.136c-.645-.002-1.168-.523-1.168-1.17v-22.212c0-.645.522-1.167 1.168-1.167h22.212c.648.002 1.167.523 1.169 1.167v22.212h-.002c0 .646-.521 1.17-1.167 1.17zm21.77-1.611v-21.329h-21.328v21.329z"/><path d="m253.539 270.189c-2.849 0-5.158-2.306-5.158-5.155v-6.347c0-2.849 2.309-5.157 5.158-5.158l7.434.001c2.849 0 5.156 2.309 5.156 5.157v6.347h.001c-.001 2.85-2.309 5.155-5.158 5.156zm-3.547-11.501v6.347c.003 1.958 1.589 3.542 3.547 3.544l7.434.002c1.958-.004 3.542-1.589 3.547-3.546v-6.347c-.005-1.959-1.59-3.544-3.547-3.546l-7.434-.001c-1.958.003-3.544 1.588-3.547 3.547z"/><path d="m270.145 274.135c-.644 0-1.167-.522-1.168-1.167v-22.214c0-.645.522-1.166 1.168-1.169h22.211c.647 0 1.169.524 1.169 1.169v22.214c0 .645-.526 1.167-1.169 1.168zm21.771-1.611v-21.327l-21.327-.001-.002 21.328z"/><path d="m277.535 270.189c-2.849 0-5.157-2.306-5.158-5.155v-6.347c.001-2.849 2.309-5.157 5.158-5.158l7.433.001c2.85 0 5.157 2.31 5.157 5.157v6.347c0 2.847-2.307 5.155-5.157 5.156zm-3.548-11.501v6.347c.004 1.958 1.589 3.542 3.548 3.544l7.433.002c1.958-.004 3.543-1.589 3.546-3.546v-6.347c-.004-1.959-1.589-3.544-3.547-3.546l-7.433-.001c-1.957.003-3.543 1.588-3.547 3.547z"/><path d="m294.14 274.135c-.645 0-1.167-.521-1.168-1.167l.002-22.214c.001-.646.521-1.166 1.167-1.169h22.213c.646.003 1.167.524 1.169 1.169v22.214h-.002c0 .645-.522 1.167-1.167 1.168zm21.77-1.611v-21.327l-21.327-.001v21.328z"/><path d="m301.53 270.189c-2.85 0-5.158-2.306-5.158-5.155v-6.347c0-2.849 2.309-5.157 5.158-5.158h7.436c2.848.001 5.154 2.31 5.154 5.158v6.347h.002c-.002 2.85-2.309 5.155-5.156 5.156zm-3.548-11.501.002 6.347c.003 1.958 1.588 3.542 3.546 3.544h7.436c1.955-.002 3.541-1.587 3.544-3.544h.001v-6.347c-.004-1.959-1.59-3.544-3.545-3.546l-7.436-.001c-1.959.003-3.543 1.588-3.548 3.547z"/><path d="m318.137 274.135c-.646 0-1.166-.522-1.17-1.167v-22.214c0-.645.521-1.166 1.17-1.169h22.213c.646.003 1.168.524 1.168 1.169v22.214c0 .645-.522 1.167-1.168 1.168zm21.77-1.611v-21.327l-21.328-.001-.001 21.328z"/><path d="m325.527 270.19c-2.851-.001-5.159-2.31-5.159-5.156v-6.347c0-2.848 2.309-5.157 5.159-5.158l7.432.001c2.851 0 5.157 2.31 5.157 5.157v6.347c0 2.847-2.307 5.155-5.157 5.156zm-3.548-11.502v6.347c.004 1.958 1.589 3.542 3.549 3.544l7.432.002c1.958-.004 3.543-1.589 3.545-3.546h.004v-6.347c-.006-1.959-1.591-3.544-3.549-3.546h-7.432c-1.963.002-3.546 1.587-3.549 3.546z"/><path d="m342.132 274.135c-.644 0-1.165-.522-1.167-1.167v-22.214c0-.645.521-1.169 1.167-1.169h22.215c.646.003 1.165.522 1.167 1.169v22.214c-.002.646-.524 1.167-1.167 1.168zm21.771-1.611v-21.327l-21.327-.001v21.328z"/><path d="m349.522 270.189c-2.85 0-5.157-2.306-5.157-5.155v-6.347c0-2.849 2.308-5.157 5.157-5.158l7.435.001c2.847 0 5.155 2.309 5.155 5.157v6.347c0 2.85-2.309 5.155-5.155 5.156zm-3.547-11.501v6.347c.003 1.958 1.589 3.542 3.548 3.544l7.435.002c1.956-.004 3.542-1.589 3.545-3.546v-6.347c-.003-1.959-1.59-3.544-3.545-3.546l-7.435-.001c-1.96.003-3.545 1.588-3.548 3.547z"/><path d="m366.13 274.135c-.646 0-1.168-.522-1.168-1.167v-22.214c0-.645.52-1.166 1.168-1.169h22.211c.646.003 1.167.524 1.169 1.169v22.214h-.002c0 .645-.522 1.167-1.167 1.168zm21.767-1.611v-21.327l-21.325-.001v21.328z"/><path d="m373.518 270.19c-2.85 0-5.156-2.309-5.156-5.156v-6.347c0-2.849 2.307-5.157 5.156-5.158h7.434c2.849.001 5.156 2.311 5.156 5.158v6.347h.002c-.002 2.848-2.31 5.156-5.158 5.156zm-3.548-11.502.001 6.347c.003 1.957 1.589 3.542 3.547 3.544h7.433c1.961-.002 3.543-1.587 3.547-3.544h.001v-6.347c-.005-1.959-1.588-3.543-3.548-3.546h-7.433c-1.958.003-3.544 1.587-3.548 3.546z"/><path d="m390.124 274.135c-.645 0-1.166-.522-1.168-1.167v-22.214c0-.645.52-1.166 1.168-1.168h22.213c.646.002 1.166.521 1.167 1.168v22.214c0 .646-.522 1.167-1.167 1.168zm21.77-1.61.001-21.329h-21.328v21.327z"/><path d="m397.514 270.189c-2.848 0-5.157-2.307-5.157-5.154v-6.348c0-2.849 2.31-5.157 5.157-5.158l7.435.001c2.848 0 5.155 2.309 5.155 5.157v6.348h.002c-.002 2.848-2.31 5.154-5.157 5.155zm-3.549-11.501.002 6.348c.003 1.956 1.587 3.542 3.547 3.544h7.433c1.958-.002 3.543-1.589 3.547-3.544v-6.348c-.004-1.959-1.589-3.543-3.547-3.546h-7.433c-1.96.003-3.544 1.587-3.549 3.546z"/><path d="m414.12 274.136c-.645 0-1.167-.521-1.169-1.169v-22.213c.002-.647.521-1.166 1.169-1.168h36.719c.647.002 1.168.523 1.17 1.168v22.213h-.002c0 .645-.521 1.169-1.168 1.169zm36.276-1.611v-21.328l-35.833-.001v21.329z"/><path d="m421.509 270.189c-2.849 0-5.158-2.308-5.158-5.155v-6.347c0-2.849 2.31-5.157 5.158-5.157h21.941c2.849 0 5.154 2.309 5.154 5.157v6.347h.003c-.003 2.848-2.309 5.155-5.157 5.157zm-3.548-11.501v6.347c.006 1.957 1.591 3.542 3.548 3.544l21.941.002c1.958-.004 3.541-1.589 3.544-3.546h.003v-6.347c-.006-1.959-1.591-3.543-3.547-3.546h-21.941c-1.957.003-3.542 1.587-3.548 3.546z"/><path d="m119.897 299.371v-127.286c.001-2.85 2.31-5.157 5.158-5.157h349.765c2.849 0 5.156 2.31 5.157 5.157v127.286h-.001c0 2.848-2.308 5.155-5.156 5.155l-349.767.003c-2.847-.003-5.155-2.31-5.156-5.158zm1.611-127.286v127.286c.003 1.957 1.588 3.542 3.546 3.547h349.766c1.958-.005 3.542-1.589 3.546-3.547v-127.286c-.004-1.959-1.588-3.542-3.546-3.546h-349.766c-1.958.003-3.543 1.587-3.546 3.546z"/><path d="m69.027 313.774c-2.248 0-4.07-1.821-4.07-4.068v-149.044c0-2.248 1.822-4.07 4.07-4.07h461.822c2.246 0 4.068 1.822 4.068 4.07v149.045c0 2.247-1.822 4.068-4.068 4.068zm-2.459-153.112-.002 149.045c.003 1.356 1.102 2.454 2.46 2.458h461.822c1.358-.004 2.457-1.102 2.46-2.458h-.002l.002-149.045c-.003-1.359-1.102-2.457-2.46-2.458l-461.822-.003c-1.358.004-2.456 1.102-2.458 2.461z"/><path d="m66.034 334.991c-2.246-.003-4.069-1.823-4.069-4.069v-306.248c0-2.249 1.823-4.07 4.069-4.072h467.807c2.247.001 4.068 1.823 4.07 4.072v306.248h-.002c0 2.246-1.821 4.066-4.068 4.069zm-2.458-310.317v306.248c.002 1.358 1.101 2.454 2.458 2.457h467.807c1.358-.003 2.454-1.099 2.458-2.457v-306.248c-.004-1.36-1.1-2.458-2.458-2.46h-467.807c-1.357.001-2.456 1.1-2.458 2.46z"/><path d="m222.569 112.109c-.646 0-1.167-.522-1.169-1.168l.001-13.599c0-.645.52-1.168 1.167-1.169h152.862c.646.001 1.165.524 1.167 1.169v13.599h-.002c0 .646-.521 1.168-1.165 1.168zm152.416-1.609.002-12.714-151.975-.001v12.715z"/><path d="m69.117 82.046c-2.449 0-4.431-1.983-4.431-4.431v-43.879c0-2.448 1.983-4.431 4.431-4.431h461.64c2.449 0 4.433 1.983 4.433 4.431v43.879h.002c-.002 2.448-1.985 4.431-4.435 4.431zm-2.822-48.31.002 43.879c.001 1.558 1.263 2.819 2.82 2.82h461.64c1.56-.001 2.818-1.262 2.82-2.82h.003l-.003-43.879c-.002-1.558-1.261-2.818-2.82-2.82h-461.64c-1.557.002-2.819 1.263-2.822 2.82z"/><path d="m101.258 39.396c-.845 0-1.53-.685-1.53-1.529v-2.721c0-.846.686-1.529 1.53-1.53h190.033c.846.001 1.529.685 1.529 1.53v2.721c0 .845-.684 1.529-1.529 1.529zm189.952-1.609v-2.56h-189.873v2.56z"/><path d="m158.386 38.502v-3.989h1.611v3.989z"/><path d="m160.834 38.502v-3.991h1.611v3.991z"/><path d="m191.116 38.502v-3.989h1.613v3.989z"/><path d="m193.565 38.502v-3.989h1.611v3.989z"/><path d="m240.439 38.502v-3.99h1.611v3.99z"/><path d="m242.887 38.502v-3.989h1.611v3.989z"/><path d="m155.303 38.591v-4.261h1.611v4.261z"/><path d="m104.079 38.592v-4.262h1.611v4.262z"/><path d="m101.258 46.832c-.845 0-1.53-.686-1.53-1.531v-2.72c0-.846.686-1.529 1.53-1.53h190.033c.846.001 1.529.685 1.529 1.53v2.72c0 .846-.684 1.531-1.529 1.531zm189.952-1.61v-2.56l-189.873-.002v2.562z"/><path d="m158.387 45.936v-3.989h1.611v3.989z"/><path d="m160.834 45.936v-3.99h1.611v3.99z"/><path d="m191.116 45.936v-3.99h1.613v3.99z"/><path d="m193.565 45.935v-3.99h1.611v3.99z"/><path d="m240.439 45.936v-3.99h1.611v3.99z"/><path d="m242.887 45.936v-3.99h1.611v3.99z"/><path d="m155.305 46.026v-4.259h1.611v4.259z"/><path d="m104.079 46.026v-4.259h1.611v4.259z"/><path d="m101.258 54.266c-.845 0-1.53-.685-1.53-1.531v-2.719c0-.847.686-1.53 1.53-1.532h190.033c.846.001 1.529.686 1.529 1.532v2.719c0 .846-.684 1.531-1.529 1.531zm189.952-1.611v-2.56h-189.873v2.56z"/><path d="m158.387 53.371v-3.991h1.611v3.991z"/><path d="m160.835 53.371v-3.991h1.611v3.991z"/><path d="m191.116 53.37v-3.989h1.613v3.989z"/><path d="m193.565 53.37v-3.989h1.611v3.989z"/><path d="m240.439 53.371v-3.99h1.611v3.99z"/><path d="m242.887 53.371v-3.99h1.611v3.99z"/><path d="m155.305 53.461v-4.261h1.611v4.261z"/><path d="m104.079 53.461v-4.261h1.611v4.261z"/><path d="m101.258 61.7c-.845 0-1.53-.685-1.53-1.53v-2.721c0-.845.686-1.527 1.53-1.53h190.033c.846.002 1.529.685 1.529 1.53v2.721c0 .846-.684 1.53-1.529 1.53zm189.952-1.609v-2.561h-189.873v2.56z"/><path d="m158.386 60.804v-3.99h1.611v3.99z"/><path d="m160.835 60.804v-3.99h1.611v3.99z"/><path d="m191.116 60.804v-3.99h1.613v3.99z"/><path d="m193.565 60.804v-3.99h1.611v3.99z"/><path d="m240.439 60.804v-3.989h1.611v3.989z"/><path d="m242.887 60.804v-3.99h1.611v3.99z"/><path d="m155.303 60.895v-4.26h1.612v4.26z"/><path d="m104.079 60.895v-4.26h1.611v4.26z"/><path d="m101.258 69.135c-.845 0-1.53-.686-1.53-1.531v-2.718c0-.847.686-1.531 1.53-1.533h190.033c.846.001 1.529.686 1.529 1.533v2.718c0 .845-.684 1.531-1.529 1.531zm189.952-1.61v-2.56h-189.873v2.56z"/><path d="m158.387 68.239v-3.989h1.61v3.989z"/><path d="m160.835 68.239v-3.989h1.611v3.989z"/><path d="m191.116 68.241v-3.99h1.613v3.99z"/><path d="m193.565 68.24v-3.99h1.611v3.99z"/><path d="m240.439 68.239v-3.988h1.611v3.988z"/><path d="m242.887 68.24v-3.991h1.611v3.991z"/><path d="m155.304 68.331v-4.262h1.611v4.262z"/><path d="m104.079 68.331v-4.262h1.61v4.262z"/><path d="m101.258 76.57c-.845 0-1.53-.685-1.53-1.53v-2.721c0-.845.686-1.528 1.53-1.53h190.033c.846.002 1.529.685 1.529 1.53v2.721c0 .846-.684 1.53-1.529 1.53zm189.952-1.611v-2.559h-189.873v2.56h189.873z"/><path d="m158.386 75.674v-3.989h1.611v3.989z"/><path d="m160.835 75.674v-3.989h1.611v3.989z"/><path d="m191.116 75.674v-3.989h1.613v3.989z"/><path d="m193.565 75.674v-3.989h1.611v3.989z"/><path d="m240.439 75.673v-3.987h1.611v3.987z"/><path d="m242.887 75.673v-3.987h1.611v3.987z"/><path d="m155.304 75.765v-4.262h1.612v4.262z"/><path d="m104.079 75.765v-4.262h1.61v4.262z"/><path d="m308.517 39.396c-.846 0-1.529-.684-1.529-1.53v-2.719c0-.847.685-1.531 1.529-1.531h190.032c.846 0 1.53.687 1.53 1.531v2.719c-.001.845-.685 1.53-1.53 1.53zm189.952-1.608v-2.56l-189.874-.001v2.56z"/><path d="m351.834 38.472v-4.112h1.612v4.112z"/><path d="m354.372 38.471v-4.11h1.612v4.11z"/><path d="m401.457 38.472v-4.11h1.612v4.11z"/><path d="m403.997 38.471v-4.11h1.61v4.11z"/><path d="m451.082 38.471v-4.11h1.609v4.11z"/><path d="m453.622 38.471v-4.11h1.609v4.11z"/><path d="m308.517 46.836c-.846-.001-1.529-.686-1.529-1.531v-2.719c0-.846.685-1.53 1.529-1.532l190.032.002c.846 0 1.529.686 1.53 1.53v2.719c-.001.846-.685 1.531-1.53 1.531zm189.952-1.611v-2.56h-189.874v2.56z"/><path d="m351.834 45.909v-4.109h1.612v4.109z"/><path d="m354.372 45.909v-4.109h1.612v4.109z"/><path d="m401.457 45.909v-4.11h1.612v4.11z"/><path d="m403.997 45.909v-4.109h1.61v4.109z"/><path d="m451.082 45.911v-4.112h1.609v4.112z"/><path d="m453.622 45.911v-4.11h1.609v4.11z"/><path d="m308.517 54.275c-.846 0-1.529-.685-1.529-1.53v-2.72c0-.846.685-1.53 1.529-1.531h190.032c.846 0 1.53.687 1.53 1.531v2.72c-.001.843-.685 1.53-1.53 1.531zm189.952-1.61v-2.561h-189.874v2.561z"/><path d="m351.834 53.349v-4.109h1.612v4.109z"/><path d="m354.372 53.35v-4.111h1.612v4.111z"/><path d="m401.457 53.349v-4.11h1.612v4.11z"/><path d="m403.997 53.349v-4.11h1.61v4.11z"/><path d="m451.082 53.35v-4.109h1.609v4.109z"/><path d="m453.622 53.349v-4.11h1.609v4.11z"/><path d="m308.517 61.714c-.846 0-1.529-.685-1.529-1.529v-2.72c0-.846.685-1.531 1.529-1.531h190.032c.846 0 1.529.686 1.53 1.531v2.72c-.001.845-.685 1.528-1.53 1.529zm189.952-1.61v-2.56h-189.874v2.558z"/><path d="m351.834 60.789v-4.112h1.612v4.112z"/><path d="m354.372 60.789v-4.112h1.612v4.112z"/><path d="m401.457 60.788v-4.11h1.612v4.11z"/><path d="m403.997 60.789v-4.112h1.61v4.112z"/><path d="m451.082 60.788v-4.11h1.609v4.11z"/><path d="m453.622 60.788v-4.11h1.609v4.11z"/><path d="m308.517 69.153c-.846 0-1.529-.686-1.529-1.53v-2.721c0-.845.685-1.529 1.529-1.531l190.032.001c.846 0 1.53.686 1.53 1.529v2.72c-.001.846-.685 1.531-1.53 1.531h-190.032zm189.952-1.611v-2.56h-189.874v2.56z"/><path d="m351.834 68.229v-4.112h1.612v4.112z"/><path d="m354.372 68.229v-4.112h1.612v4.112z"/><path d="m401.457 68.228v-4.11h1.612v4.11z"/><path d="m403.997 68.229v-4.113h1.61v4.113z"/><path d="m451.082 68.227v-4.11h1.609v4.11z"/><path d="m453.622 68.229v-4.113h1.609v4.113z"/><path d="m308.583 76.592c-.844 0-1.528-.685-1.528-1.53v-2.72c0-.846.685-1.53 1.528-1.53h190.035c.845.001 1.527.686 1.53 1.53v2.72c-.003.845-.687 1.528-1.53 1.53zm189.953-1.61v-2.56h-189.873v2.558z"/><path d="m351.903 75.667v-4.111h1.611v4.111z"/><path d="m354.441 75.666v-4.11h1.61v4.11z"/><path d="m401.524 75.667v-4.11h1.613v4.11z"/><path d="m404.064 75.666v-4.109h1.612v4.109z"/><path d="m451.15 75.667v-4.111h1.611v4.111z"/><path d="m453.688 75.666v-4.11h1.611v4.11z"/></g></svg>