<svg height="350.26" viewBox="0 0 598.189 350.26" width="598.189" xmlns="http://www.w3.org/2000/svg"><g fill="#f4f4f4"><path d="m208.38202 342.85419c0 2.56269 2.09408 4.65618 4.65558 4.65618h140.19121c2.5627 0 4.63823-2.09349 4.63823-4.65618v-334.6945841c0-2.5626962-2.07553-4.6388272-4.63823-4.6388272h-140.19121c-2.5621 0-4.65558 2.0767295-4.65558 4.6400241zm1.12873 0v-334.6945841c0-1.9534424 1.57461-3.5100918 3.52685-3.5100918h140.19121c1.95285 0 3.50949 1.5572479 3.50949 3.5100918v334.6945841c0 1.95344-1.55844 3.52745-3.51009 3.52745h-140.19121c-1.95224-.0006-3.52685-1.57461-3.52625-3.52745z"/><path d="m210.80901 140.30641h7.20632.56436v-1.17449-38.33521-1.17449h-.56436-7.20632v2.34898l5.91114-.0777v35.98747l-5.91114.0777z"/><path d="m219.14893 329.28863c0 4.97828 4.03635 9.01462 9.01462 9.01462h21.38636c4.97827 0 9.01462-4.03634 9.01462-9.01462v-20.11224c0-4.97828-4.03635-9.01463-9.01462-9.01463h-21.38636c-4.97827 0-9.01462 4.03635-9.01462 9.01463zm1.83986 0v-20.11224c0-3.99088 3.18389-7.17476 7.17476-7.17476h21.38636c3.99087 0 7.17475 3.18388 7.17475 7.17476v20.11224c0 3.99087-3.18388 7.17476-7.17475 7.17476h-21.38636c-3.99087 0-7.17476-3.18389-7.17476-7.17476z"/><path d="m355.59107 140.22685h-7.20631-.56437v-1.17449-38.3352-1.174501h.56437 7.20631v2.348981l-5.91113-.0777v35.98748l5.91113.0777z"/><path d="m308.51411 330.39613c0 4.97828 4.03635 9.01462 9.01462 9.01462h21.38635c4.97828 0 9.01462-4.03634 9.01462-9.01462v-20.11224c0-4.97827-4.03634-9.01462-9.01462-9.01462h-21.38635c-4.97827 0-9.01462 4.03635-9.01462 9.01462zm1.83986 0v-20.11224c0-3.99088 3.18388-7.17476 7.17476-7.17476h21.38635c3.99088 0 7.17476 3.18388 7.17476 7.17476v20.11224c0 3.99087-3.18388 7.17476-7.17476 7.17476h-21.38635c-3.99088 0-7.17476-3.18389-7.17476-7.17476z"/><path d="m308.76131 286.72012c0 4.97828 4.03634 9.01462 9.01462 9.01462h21.38635c4.97827 0 9.01462-4.03634 9.01462-9.01462v-20.11224c0-4.97827-4.03635-9.01462-9.01462-9.01462h-21.38635c-4.97828 0-9.01462 4.03635-9.01462 9.01462zm1.83986 0v-20.11224c0-3.99087 3.18388-7.17476 7.17476-7.17476h21.38635c3.99087 0 7.17476 3.18389 7.17476 7.17476v20.11224c0 3.99087-3.18389 7.17476-7.17476 7.17476h-21.38635c-3.99088 0-7.17476-3.18389-7.17476-7.17476z"/><path d="m309.00851 242.64079c0 4.97829 4.03635 9.01463 9.01462 9.01463h21.38635c4.97828 0 9.01462-4.03634 9.01462-9.01463v-20.11224c0-4.97827-4.03634-9.01462-9.01462-9.01462h-21.38635c-4.97827 0-9.01462 4.03635-9.01462 9.01462zm1.83986 0v-20.11224c0-3.99087 3.18388-7.17476 7.17476-7.17476h21.38635c3.99088 0 7.17476 3.18389 7.17476 7.17476v20.11224c0 3.99088-3.18388 7.17477-7.17476 7.17477h-21.38635c-3.99088 0-7.17476-3.18389-7.17476-7.17477z"/><path d="m309.00851 200.12272c0 4.97828 4.03635 9.01463 9.01462 9.01463h21.38635c4.97828 0 9.01462-4.03635 9.01462-9.01463v-20.11223c0-4.97828-4.03634-9.01463-9.01462-9.01463h-21.38635c-4.97827 0-9.01462 4.03635-9.01462 9.01463zm1.83986 0v-20.11223c0-3.99088 3.18388-7.17476 7.17476-7.17476h21.38635c3.99088 0 7.17476 3.18388 7.17476 7.17476v20.11223c0 3.99088-3.18388 7.17476-7.17476 7.17476h-21.38635c-3.99088 0-7.17476-3.18388-7.17476-7.17476z"/><path d="m264.51285 200.12272c0 4.97828 4.03635 9.01463 9.01462 9.01463h21.38635c4.97828 0 9.01462-4.03635 9.01462-9.01463v-20.11223c0-4.97828-4.03634-9.01463-9.01462-9.01463h-21.38635c-4.97827 0-9.01462 4.03635-9.01462 9.01463zm1.83986 0v-20.11223c0-3.99088 3.18389-7.17476 7.17476-7.17476h21.38635c3.99088 0 7.17476 3.18388 7.17476 7.17476v20.11223c0 3.99088-3.18388 7.17476-7.17476 7.17476h-21.38635c-3.99087 0-7.17476-3.18388-7.17476-7.17476z"/><path d="m264.76005 242.3936c0 4.97828 4.03634 9.01462 9.01462 9.01462h21.38635c4.97827 0 9.01462-4.03634 9.01462-9.01462v-20.11224c0-4.97827-4.03635-9.01462-9.01462-9.01462h-21.38635c-4.97828 0-9.01462 4.03635-9.01462 9.01462zm1.83986 0v-20.11224c0-3.99087 3.18388-7.17476 7.17476-7.17476h21.38635c3.99087 0 7.17476 3.18389 7.17476 7.17476v20.11224c0 3.99088-3.18389 7.17476-7.17476 7.17476h-21.38635c-3.99088 0-7.17476-3.18388-7.17476-7.17476z"/><path d="m264.76005 286.47292c0 4.97829 4.03634 9.01462 9.01462 9.01462h21.38635c4.97827 0 9.01462-4.03633 9.01462-9.01462v-20.11224c0-4.97827-4.03635-9.01462-9.01462-9.01462h-21.38635c-4.97828 0-9.01462 4.03635-9.01462 9.01462zm1.83986 0v-20.11224c0-3.99087 3.18388-7.17476 7.17476-7.17476h21.38635c3.99087 0 7.17476 3.18389 7.17476 7.17476v20.11224c0 3.99088-3.18389 7.17476-7.17476 7.17476h-21.38635c-3.99088 0-7.17476-3.18388-7.17476-7.17476z"/><path d="m264.51285 330.14893c0 4.97828 4.03635 9.01462 9.01462 9.01462h21.38635c4.97828 0 9.01462-4.03634 9.01462-9.01462v-20.11224c0-4.97827-4.03634-9.01462-9.01462-9.01462h-21.38635c-4.97827 0-9.01462 4.03635-9.01462 9.01462zm1.83986 0v-20.11224c0-3.99087 3.18389-7.17476 7.17476-7.17476h21.38635c3.99088 0 7.17476 3.18389 7.17476 7.17476v20.11224c0 3.99088-3.18388 7.17476-7.17476 7.17476h-21.38635c-3.99087 0-7.17476-3.18388-7.17476-7.17476z"/><path d="m220.01718 286.22572c0 4.97828 4.03635 9.01463 9.01463 9.01463h21.38635c4.97827 0 9.01462-4.03635 9.01462-9.01463v-20.11224c0-4.97827-4.03635-9.01462-9.01462-9.01462h-21.38635c-4.97828 0-9.01463 4.03635-9.01463 9.01462zm1.83987 0v-20.11224c0-3.99087 3.18388-7.17475 7.17476-7.17475h21.38635c3.99087 0 7.17476 3.18388 7.17476 7.17475v20.11224c0 3.99088-3.18389 7.17476-7.17476 7.17476h-21.38635c-3.99088 0-7.17476-3.18388-7.17476-7.17476z"/><path d="m220.01719 242.3936c0 4.97828 4.03634 9.01462 9.01462 9.01462h21.38635c4.97827 0 9.01462-4.03634 9.01462-9.01462v-20.11224c0-4.97828-4.03635-9.01463-9.01462-9.01463h-21.38635c-4.97828 0-9.01462 4.03635-9.01462 9.01463zm1.83986 0v-20.11224c0-3.99088 3.18388-7.17476 7.17476-7.17476h21.38635c3.99087 0 7.17476 3.18388 7.17476 7.17476v20.11224c0 3.99087-3.18389 7.17475-7.17476 7.17475h-21.38635c-3.99088 0-7.17476-3.18388-7.17476-7.17475z"/><path d="m219.52279 200.12272c0 4.97828 4.03635 9.01463 9.01462 9.01463h21.38635c4.97828 0 9.01463-4.03635 9.01463-9.01463v-20.11224c0-4.97827-4.03635-9.01462-9.01463-9.01462h-21.38635c-4.97827 0-9.01462 4.03635-9.01462 9.01462zm1.83986 0v-20.11224c0-3.99088 3.18389-7.17476 7.17476-7.17476h21.38635c3.99088 0 7.17476 3.18388 7.17476 7.17476v20.11224c0 3.99088-3.18388 7.17476-7.17476 7.17476h-21.38635c-3.99087 0-7.17476-3.18388-7.17476-7.17476z"/></g><path d="m283.97852 9.3261719c-22.21257 0-40.24024 18.0257191-40.24024 40.2382811s18.02767 40.240235 40.24024 40.240235c22.21256 0 40.23828-18.027673 40.23828-40.240235s-18.02572-40.2382811-40.23828-40.2382811zm0 1.8300781c21.22309 0 38.4082 17.185111 38.4082 38.408203s-17.18511 38.408203-38.4082 38.408203c-21.2231 0-38.40821-17.185111-38.40821-38.408203s17.18511-38.408203 38.40821-38.408203z" fill="#f3f3f3" fill-opacity=".866667"/><path d="m284.35547 14.998047c-18.87299 0-34.18945 15.316463-34.18945 34.189453s15.31646 34.189453 34.18945 34.189453 34.18945-15.316463 34.18945-34.189453-15.31646-34.189453-34.18945-34.189453zm0 1.554687c18.03228 0 32.63476 14.602484 32.63476 32.634766s-14.60248 32.632812-32.63476 32.632812-32.63281-14.60053-32.63281-32.632812 14.60053-32.634766 32.63281-32.634766z" fill="#f3f3f3" fill-opacity=".866667"/><path d="m221.39062 99.207031v1.499999h121.09766v44.95508h9.08984l.41016 112.07227-.41211 33.45507v51.63672h1.5v-51.62695l.41211-33.45703-.41601-113.58008h-9.08399v-44.955079h-122.59766z" fill="#f3f3f3" fill-opacity=".866667" fill-rule="evenodd"/></svg>