<svg height="350.26" viewBox="0 0 598.189 350.26" width="598.189" xmlns="http://www.w3.org/2000/svg"><g fill="none" stroke="#efefef" stroke-width="2"><path d="m176.299 162.097v99.888"/><path d="m186.064 161.097v100.888"/><path d="m193.876 163.097v98.051"/><path d="m203.642 161.097v101.724"/><path d="m209.78 161.097v101.306"/><path d="m219.545 162.097v99.469"/><path d="m227.358 162.097v99.888"/><path d="m237.124 161.097v101.306"/><path d="m243.542 161.097v101.306"/><path d="m253.307 162.097v99.051"/><path d="m261.12 162.097v99.888"/><path d="m270.885 162.097v99.888"/><path d="m277.86 161.097v100.888"/><path d="m287.625 162.097v99.888"/><path d="m295.438 162.097v99.469"/><path d="m305.204 161.097v101.306"/><path d="m311.342 161.097v101.724"/><path d="m321.106 163.097v98.051"/><path d="m328.919 162.097v99.888"/><path d="m338.687 162.097v99.888"/><path d="m346.103 162.097v100.144"/><path d="m354.868 163.097v97.633"/><path d="m362.681 161.097v101.306"/><path d="m372.445 162.097v99.469"/><path d="m380.259 162.097v99.888"/><path d="m390.023 161.097v101.306"/><path d="m397.837 163.097v97.213"/><path d="m406.603 162.097v101.144"/><path d="m413.74 162.097v100.306"/><path d="m423.506 162.097v99.888"/><path d="m431.318 162.097v99.469"/><path d="m441.084 161.097v101.306"/><path d="m447.502 161.097v101.306"/><path d="m457.268 162.097v99.469"/><path d="m465.079 161.679v99.887"/><path d="m474.845 162.097v99.888"/><path d="m481.821 161.261v100.724"/><path d="m491.585 161.261v100.305"/><path d="m499.119 161.54v99.888"/><path d="m508.885 161.54v100.724"/><path d="m516.14 162.097v99.888"/><path d="m525.905 161.097v101.306"/><path d="m532.88 162.097v99.888"/><path d="m542.646 162.097v99.888"/><path d="m572.013 176.815c0-9.416 9.416-20.716 17.16-20.716-13.813 0-439.66 0-439.66 0s-6.069.627-6.069 9.207c10.254 2.093 16.741 3.977 19.462 3.977-12.138 2.092-32.854-1.465-36.831-3.977"/><circle cx="164.894" cy="137.579" r="9.521"/><circle cx="572.954" cy="137.579" r="9.522"/><path d="m167.719 221.179v36.621s2.72 6.627 4.813 6.627c4.247 0 4.247-6.697 8.494-6.697s4.247 6.697 8.494 6.697 4.247-6.697 8.494-6.697 4.247 6.697 8.494 6.697 4.247-6.697 8.494-6.697c4.248 0 4.248 6.697 8.494 6.697s4.246-6.697 8.492-6.697 4.246 6.697 8.492 6.697c4.247 0 4.247-6.697 8.493-6.697s4.246 6.697 8.492 6.697c4.247 0 4.247-6.697 8.493-6.697 4.247 0 4.247 6.697 8.493 6.697s4.246-6.697 8.493-6.697c4.248 0 4.248 6.697 8.495 6.697 4.246 0 4.246-6.697 8.492-6.697 4.248 0 4.248 6.697 8.495 6.697 4.245 0 4.245-6.697 8.493-6.697 4.247 0 4.247 6.697 8.495 6.697 4.245 0 4.245-6.697 8.493-6.697 4.247 0 4.247 6.697 8.492 6.697 4.248 0 4.248-6.697 8.496-6.697 4.246 0 4.246 6.697 8.493 6.697s4.247-6.697 8.495-6.697c4.247 0 4.247 6.697 8.494 6.697 4.248 0 4.248-6.697 8.493-6.697 4.248 0 4.248 6.697 8.495 6.697 4.248 0 4.248-6.697 8.495-6.697s4.247 6.697 8.493 6.697c4.247 0 4.247-6.697 8.497-6.697 4.245 0 4.245 6.697 8.495 6.697 4.245 0 4.245-6.697 8.494-6.697 4.248 0 4.248 6.697 8.496 6.697s4.248-6.697 8.495-6.697c4.245 0 4.245 6.697 8.493 6.697 4.247 0 4.247-6.697 8.493-6.697 4.249 0 4.249 6.697 8.497 6.697 4.247 0 4.247-6.697 8.494-6.697 4.248 0 4.248 6.697 8.495 6.697 4.248 0 4.248-6.697 8.495-6.697s4.247 6.697 8.498 6.697c4.247 0 4.247-6.697 8.495-6.697 4.249 0 4.249 6.697 8.497 6.697 4.249 0 4.249-6.697 8.496-6.697 4.25 0 4.25 6.697 8.5 6.697 3.334 0 5.636-2.441 5.636-7.046 0-4.603 0-42.898 0-42.898v-5.231s0-38.294 0-42.899c0-4.604-2.302-7.044-5.636-7.044-4.25 0-4.25 6.695-8.5 6.695-4.247 0-4.247-6.695-8.496-6.695-4.248 0-4.248 6.695-8.497 6.695-4.248 0-4.248-6.695-8.495-6.695-4.251 0-4.251 6.695-8.498 6.695s-4.247-6.695-8.495-6.695c-4.247 0-4.247 6.695-8.495 6.695-4.247 0-4.247-6.695-8.494-6.695-4.248 0-4.248 6.695-8.497 6.695-4.246 0-4.246-6.695-8.493-6.695-4.248 0-4.248 6.695-8.493 6.695-4.247 0-4.247-6.695-8.495-6.695s-4.248 6.695-8.496 6.695c-4.249 0-4.249-6.695-8.494-6.695-4.25 0-4.25 6.695-8.495 6.695-4.25 0-4.25-6.695-8.497-6.695-4.246 0-4.246 6.695-8.493 6.695s-4.247-6.695-8.495-6.695c-4.247 0-4.247 6.695-8.495 6.695-4.245 0-4.245-6.695-8.493-6.695-4.247 0-4.247 6.695-8.494 6.695-4.248 0-4.248-6.695-8.495-6.695s-4.247 6.695-8.493 6.695c-4.248 0-4.248-6.695-8.496-6.695-4.245 0-4.245 6.695-8.492 6.695-4.248 0-4.248-6.695-8.493-6.695-4.248 0-4.248 6.695-8.495 6.695-4.248 0-4.248-6.695-8.493-6.695-4.247 0-4.247 6.695-8.495 6.695-4.246 0-4.246-6.695-8.492-6.695-4.247 0-4.247 6.695-8.495 6.695-4.247 0-4.247-6.695-8.493-6.695s-4.246 6.695-8.493 6.695c-4.246 0-4.246-6.695-8.493-6.695-4.246 0-4.246 6.695-8.492 6.695s-4.246-6.695-8.493-6.695c-4.246 0-4.246 6.695-8.492 6.695-4.247 0-4.247-6.695-8.492-6.695-4.246 0-4.246 6.695-8.494 6.695-4.247 0-4.247-6.695-8.494-6.695s-4.247 6.695-8.494 6.695-4.247-6.695-8.494-6.695-4.247 6.695-8.494 6.695-4.247-6.695-8.494-6.695c-2.093 0-4.813.558-4.813 6.626v36.621z"/><path d="m546.69 264.496c11.512 0 25.53 1.675 25.53-22.077s0-23.752 0-23.752v-13.602s0 0 0-23.75c0-23.752-14.019-22.078-25.53-22.078"/><path d="m572.013 246.918c0 9.417 9.416 20.717 17.16 20.717-13.813 0-439.66 0-439.66 0s-6.069-.628-6.069-9.206c10.254-2.094 16.741-3.978 19.462-3.978-12.138-2.092-32.854 1.466-36.831 3.978"/><path d="m121.891 222.435c0 39.76 8.161 46.247 8.161 46.247s10.045 0 15.276 0c2.302 34.737 17.369 34.737 30.343 34.737s362.441 0 384.204 0c21.764 0 27.204-9.835 28.041-17.578.837-7.742 2.302-35.155 2.302-58.803v-30.343c0-23.646-1.465-51.059-2.302-58.802s-6.277-17.578-28.041-17.578c-21.763 0-371.23 0-384.204 0s-28.041 0-30.343 34.738c-5.231 0-15.276 0-15.276 0s-8.161 6.487-8.161 46.247z"/><circle cx="164.894" cy="286.154" r="9.521"/><circle cx="572.954" cy="286.154" r="9.522"/><path d="m121.891 190.279c-1.674-2.79-9.766-4.186-15.346-5.86-5.58-1.673-25.391-9.206-32.645-33.48-7.254-24.275-2.231-29.855-18.972-33.482-1.116-.559-2.652.557-4.326 8.509-1.673 7.952-16.601 103.933-2.929 153.598 1.674 3.348 9.208 6.976 23.158-2.512 13.951-9.486 6.417-27.622 29.854-37.109 3.906-1.395 18.137.279 21.206-5.58"/><path d="m51.3 122.478c-1.116-3.907-1.954-5.58-7.255-1.954-5.301 3.627-30.691 29.856-39.899 84.542-9.208 54.688 34.598 80.077 47.433 78.124"/></g></svg>