<svg height="350.99329" viewBox="0 0 158.45508 92.866976" width="598.88538" xmlns="http://www.w3.org/2000/svg"><g fill="#fff" transform="matrix(1.0767869 0 0 1.0767869 42.285545 -274.253402)"><path d="m-4.6386701 263.82031c-2.5214825 0-4.5605469 2.03905-4.5605469 4.56055v5.74023 1.67188 52.05078c0 2.19516 1.7755492 3.97266 3.9707032 3.97266h79.0722658c2.195174 0 3.972656-1.7775 3.972656-3.97266v-53.72266c0-2.19516-1.777481-3.97265-3.972656-3.97265h-49.027344-1.060547c-1.181533 0-3.070121-.80679-3.759765-3.13282-.390656-1.31764-1.347453-2.12387-2.265625-2.58789-.918173-.46402-1.773508-.60546-2.166016-.60546-5.456165.00032-15.39443826-.002-19.9101563-.002zm0 .58789c4.41490855 0 14.6664671.002 20.2031251.002.221904 0 1.077879.12534 1.900391.54101.822511.41568 1.633532 1.10177 1.96875 2.23242.762148 2.57056 2.874327 3.55274 4.322265 3.55274h1.060547 49.027344c1.879849 0 3.384766 1.50493 3.384766 3.38476v53.72266c0 1.87984-1.504916 3.38477-3.384766 3.38477h-79.0722658c-1.8798266 0-3.3847656-1.50493-3.3847656-3.38477v-52.05078-1.67188-5.74023c0-2.20618 1.7684479-3.97266 3.9746093-3.97266z"/><path d="m-4.4707013 274.22266c-2.6150163 0-4.7304688 2.11544-4.7304688 4.73046v7.34571 31.83789 4.97851h.5878907v-4.97851-31.83789-7.34571c0-2.29969 1.8428966-4.14257 4.1425781-4.14257h77.5566413c2.299703 0 4.142578 1.84288 4.142578 4.14257v7.34571 31.83789 4.97851h.58789v-4.97851-31.83789-7.34571c0-2.61502-2.115432-4.73046-4.730468-4.73046z"/><path d="m-9.0214826 324.76172v.11523 2.19727h86.6582036v-2.3125zm.2285156.22851h86.201172v1.85547h-86.201172z"/><path d="m-9.0214826 326.8457v.11524 1.92187h86.6582036v-2.03711zm.2285156.22852h86.201172v1.58008h-86.201172z"/><path d="m19.074219 283.67383v.13476c-.502668.15737-.920557.5356-.962891 1.08985l-2.496094 32.68359c-.05542.72561.492973 1.36449 1.21875 1.41992l20.998047 1.60352c.57595.044 1.095074-.29043 1.3125-.79297l.158203-.36914-19.310546-4.25586c-.364042-.0803-.584186-.42689-.503907-.79102l6.66211-30.21289-6.613282-.50586h-.0039c-.051-.004-.09433-.004-.126953-.004h-.0078zm.339843.66211c.02813.00008.05067.00074.06445.002h.002l5.859375.44727-6.496094 29.46875c-.156675.71063.297082 1.42142 1.007812 1.57812l18.199219 4.01367c-.06801.0174-.09272.10731-.167969.10157l-20.998046-1.60352c-.371613-.0284-.637772-.34111-.609375-.71289l2.496093-32.68359c.02662-.34849.304308-.60309.642578-.61133z"/><path d="m27.210938 281.20508c-.616486-.009-1.173456.41724-1.310547 1.03906l-7.056641 32.00977c-.156675.71063.297082 1.42142 1.007812 1.57812l20.564454 4.53516c.710787.15671 1.419485-.29907 1.576172-1.00977l.128906-.57812-18.259766-6.03711c-.353929-.11702-.536968-.48192-.419922-.83594l9.72461-29.41602-5.65625-1.24804-.0039-.0332zm-.0098.66211c.04281.00065.08841.005.134766.0156l4.972656 1.09571-9.496094 28.71875c-.228434.69093.15077 1.44536.841797 1.67382l17.689453 5.84961c-.08283.36033-.425218.57979-.787109.5l-20.564453-4.5332c-.364042-.0803-.584186-.42689-.503907-.79102l7.058594-32.00976c.07024-.3186.3454-.52421.654297-.51953z"/><path d="m34.775358 279.73533c-.691003-.22846-1.444496.15059-1.672957.84161l-10.288993 31.12058c-.228461.69101.150593 1.4445.841596 1.67296l19.992324 6.6098c.691003.22846 1.444497-.15059 1.672957-.8416l10.288994-31.12059c.22846-.69101-.150594-1.4445-.841597-1.67296zm-.207225.62678 19.992324 6.6098c.353938.11702.537209.4844.420188.83835l-10.288993 31.12058c-.117021.35395-.483158.53967-.837096.42265l-19.992324-6.6098c-.353937-.11702-.539063-.485-.422042-.83895l10.288993-31.12058c.117021-.35395.485013-.53907.83895-.42205z"/></g></svg>