<svg height="350.26" viewBox="0 0 598.189 350.26" width="598.189" xmlns="http://www.w3.org/2000/svg"><g fill="#f4f4f4"><path d="m299.7095 100.097c-49.126 0-88.963 39.837-88.963 88.959 0 49.126 39.837 88.963 88.963 88.963 49.125 0 88.963-39.836 88.963-88.963 0-49.125-39.836-88.963-88.963-88.963zm0 1.845c48.128 0 87.118 38.989 87.118 87.118s-38.989 87.119-87.118 87.119c-48.133 0-87.122-38.984-87.122-87.12 0-48.126 38.989-87.115 87.118-87.115z"/><path d="m299.7095 151.53c-20.715 0-37.534 16.817-37.534 37.534 0 20.715 16.818 37.533 37.534 37.533s37.534-16.817 37.534-37.533-16.817-37.534-37.534-37.534zm0 1.845c19.718 0 35.689 15.97 35.689 35.689 0 19.718-15.97 35.688-35.689 35.688-19.718 0-35.689-15.97-35.689-35.688s15.971-35.689 35.689-35.689z"/><path d="m299.7095 129.934 4.526 17.182h-9.052z"/><path d="m257.8805 147.231 15.365 8.965-6.371 6.4z"/><path d="m257.7655 184.537v9.053l-17.21-4.526z"/><path d="m266.8745 215.528 6.371 6.398-15.365 8.966z"/><path d="m295.1835 231.002h9.052l-4.526 17.182z"/><path d="m332.5725 215.528 8.937 15.335-15.336-8.937z"/><path d="m341.6575 184.537 17.239 4.526-17.239 4.526z"/><path d="m341.5085 147.26-8.937 15.337-6.4-6.4z"/><g transform="translate(-11.048077 121.692)"><path d="m547.962 34.457c-18.162 0-32.892 14.731-32.892 32.892 0 18.162 14.731 32.922 32.892 32.922 18.163 0 32.893-14.76 32.893-32.922-.009-18.161-14.742-32.892-32.896-32.892zm0 1.845c17.165 0 31.048 13.884 31.048 31.047 0 17.165-13.883 31.077-31.048 31.077-17.164 0-31.047-13.912-31.047-31.077 0-17.164 13.883-31.047 31.052-31.047z"/><path d="m547.962 44.979c-12.345 0-22.369 10.026-22.369 22.371s10.024 22.398 22.369 22.398c12.346 0 22.37-10.054 22.37-22.398s-10.024-22.371-22.37-22.371zm0 1.844c11.349 0 20.525 9.178 20.525 20.526s-9.177 20.554-20.525 20.554-20.524-9.206-20.524-20.554 9.176-20.526 20.524-20.526z"/></g><g transform="translate(-484.83061 122.18221)"><path d="m547.962 34.457c-18.162 0-32.892 14.731-32.892 32.892 0 18.162 14.731 32.922 32.892 32.922 18.163 0 32.893-14.76 32.893-32.922-.009-18.161-14.742-32.892-32.896-32.892zm0 1.845c17.165 0 31.048 13.884 31.048 31.047 0 17.165-13.883 31.077-31.048 31.077-17.164 0-31.047-13.912-31.047-31.077 0-17.164 13.883-31.047 31.052-31.047z"/><path d="m547.962 44.979c-12.345 0-22.369 10.026-22.369 22.371s10.024 22.398 22.369 22.398c12.346 0 22.37-10.054 22.37-22.398s-10.024-22.371-22.37-22.371zm0 1.844c11.349 0 20.525 9.178 20.525 20.526s-9.177 20.554-20.525 20.554-20.524-9.206-20.524-20.554 9.176-20.526 20.524-20.526z"/></g></g></svg>