<svg height="350.26" viewBox="0 0 598.189 350.26" width="598.189" xmlns="http://www.w3.org/2000/svg"><g fill="#f4f4f4"><path d="m283.098 196.692v-39.636l39.637-.002v38.638 1zm38.636-1v-1.002zm-36.636-36.633v35.632h35.637v-35.634z"/><path d="m289.577 190.216v-26.682h26.678v25.68 1.002zm25.679-1.002v-1zm-23.679-1h22.678v-22.68h-22.678z"/><path d="m340.903 342.966c-.051 0-.107 0-.17-.004l-75.713-.002s-.004 0-.057.002c-1.528.025-2.554-1.356-2.589-2.783l-8.566-190.533c-.153-1.471-.894-2.08-2.778-2.167v-.997l.707.705-1.414-1.415c.031.031.017-.208.707-.294 2.499-.088 4.677 1.494 4.776 4.061l8.564 190.524c.12.813.302.873.594.899.004 0 .048-.002.088-.002h75.703l.046.004c.025 0 .061.004.104.004.335-.027.271-.047.359-.133.076-.1.172-.41.197-.754l8.563-190.56c.095-2.55 2.278-4.13 4.775-4.042v1.998c-1.884.088-2.627.699-2.778 2.151l-8.566 190.585c-.053.533-.145 1.144-.529 1.734-.363.586-1.129 1.02-1.947 1.02-.026.001-.051.001-.076-.001z"/><path d="m232.491 147.479v-140.851h140.848l.002 139.849v1.002zm139.849-1.001v-1zm-137.85-1h136.85l-.002-136.849h-136.846z"/><path d="m256.879 127.381c-2.371-.002-4.289-1.922-4.291-4.289v-92.077c.002-2.369 1.92-4.289 4.291-4.289h92.076c2.368.002 4.288 1.92 4.29 4.289v92.078c-.002 2.369-1.922 4.287-4.29 4.289h-92.076zm-2.29-96.366v92.078c.002 1.262 1.024 2.286 2.291 2.289h92.076c1.262-.002 2.286-1.026 2.288-2.289v-92.078c0-1.262-1.026-2.286-2.288-2.288h-92.077c-1.266.002-2.288 1.025-2.29 2.288z"/><path d="m324.608 103.537h.033c-.008 0-.014 0-.021 0-.003 0-.008 0-.012 0zm-.004 0h-43.531c-2.54-.002-4.596-2.057-4.596-4.594v-43.538c0-.001 0-.001 0-.002 0-2.539 2.059-4.592 4.596-4.594l43.534.002c2.536 0 4.594 2.057 4.594 4.592l.002 43.539h-.002c0 2.525-2.036 4.574-4.56 4.594.056-.002.144-.015.3-.06.149-.016.659-.361.661-.918-.025-.522-.225-.629-.275-.713-.078-.081-.117-.104-.148-.128l-.216.308-.359 1.512h.004c-.001 0-.002 0-.004 0zm0-2.001c1.437-.002 2.596-1.162 2.598-2.593v-43.538c-.004-1.434-1.161-2.593-2.595-2.595h-43.534c-1.402.002-2.543 1.11-2.595 2.498l-.002 43.634c.004 1.432 1.164 2.591 2.597 2.593h43.529.002z"/><path d="m261.175 35.904h26.182l-8.292 7.781 7.385 7.383-1.414 1.414-8.844-8.845 6.11-5.732-19.126-.002v19.125l5.644-6.019 9.217 9.218h.002l-1.416 1.414-7.756-7.759-7.692 8.203z"/><path d="m336.965 53.884-7.756 7.757-1.416-1.413 9.218-9.221 5.642 6.02v-19.123h-19.126l6.114 5.736-8.846 8.843-1.413-1.416 7.384-7.381-8.288-7.781 26.177-.004v26.188z"/><path d="m318.474 118.205 8.293-7.785-7.384-7.379 1.411-1.416 8.846 8.841-6.112 5.738h19.126l-.002-19.125-5.64 6.02-9.218-9.219 1.414-1.416 7.758 7.755 7.686-8.202.004 26.188z"/><path d="m261.178 118.203v-26.181l7.688 8.199 7.758-7.756h.002l1.412 1.414-9.217 9.216-5.642-6.017v19.126h19.124l-6.112-5.737 8.846-8.842 1.412 1.415-7.385 7.379 8.294 7.784z"/><path d="m288.118 96.142c-2.37-.002-4.289-1.921-4.289-4.287v-29.6c0-2.368 1.919-4.287 4.289-4.287l29.596-.002c2.368.002 4.289 1.919 4.291 4.289l-.002 29.597c0 2.368-1.921 4.287-4.291 4.289h-29.594zm-2.29-33.887v29.599c.002 1.261 1.026 2.284 2.29 2.286h29.596c1.264-.002 2.286-1.024 2.288-2.288l.002-29.597c-.002-1.263-1.026-2.286-2.29-2.288h-29.596c-1.265.002-2.288 1.026-2.29 2.288z"/><path d="m291.092 77.125c-.003-.033-.004-.076 0-.13.034-6.503 5.313-11.763 11.823-11.766 6.532.002 11.824 5.294 11.824 11.824h.002c-.002 6.532-5.294 11.824-11.826 11.826-6.507-.002-11.785-5.255-11.823-11.754zm11.823 9.752c5.426-.008 9.816-4.398 9.825-9.825-.011-5.424-4.399-9.814-9.825-9.822-5.426.008-9.814 4.398-9.824 9.822.01 5.429 4.398 9.818 9.824 9.825zm-9.825-9.874c-.003-.078-.01-.1-.013-.106.003.02.01.055.013.106z"/><path d="m261.107 291.442v-2h83.127v2z"/><path d="m269.195 339.724c-1.175-.049-1.921-.068-2.651-.633-.726-.664-.68-1.441-.715-2.022l-2.175-44.071h78.523l-2.173 44.055c-.036.599.01 1.379-.718 2.041-.73.563-1.478.584-2.649.629l-.021-.997v1zm-1.11-2.09c.23.045.614.078 1.128.089h67.383c.771-.005 1.227-.095 1.361-.144.021-.088.038-.3.047-.609l2.072-41.973h-74.324l2.072 41.984c.006.296.03.505.047.596.042.016.112.039.214.057z"/><path d="m272.666 77.053c0-5.197 1.314-10.095 3.625-14.367l1.759.951c-2.159 3.992-3.383 8.557-3.383 13.416 0 5.306 1.46 10.265 4.002 14.505l-1.716 1.029c-2.721-4.541-4.287-9.858-4.287-15.534z"/><path d="m288.008 103.38.987-1.739c4.11 2.333 8.855 3.663 13.922 3.663 5.303 0 10.258-1.46 14.495-3.999h.002l1.026 1.714c-4.537 2.719-9.853 4.285-15.523 4.285-5.418.002-10.511-1.427-14.909-3.924z"/><path d="m327.016 91.802c2.634-4.295 4.15-9.341 4.15-14.748 0-5.238-1.423-10.136-3.905-14.34h.002l1.721-1.018c2.657 4.501 4.185 9.754 4.185 15.357 0 5.785-1.628 11.196-4.447 15.792z"/><path d="m288.457 52.779s.001 0 0 0zm-1.024-1.717c4.528-2.703 9.83-4.258 15.483-4.258 5.536 0 10.731 1.489 15.197 4.089l-1.011 1.728c-4.169-2.427-9.013-3.817-14.188-3.817-5.287 0-10.227 1.45-14.458 3.975z"/></g></svg>