<svg height="350.26" viewBox="0 0 598.189 350.26" width="598.189" xmlns="http://www.w3.org/2000/svg"><g fill="#f4f4f4"><path d="m77.009 88.543c-4.303 0-7.798 3.495-7.798 7.798v27.028 125.116c0 4.303 3.496 7.822 7.798 7.822h433.85c4.304 0 7.799-3.52 7.799-7.822v-82.173c0-4.303-3.495-7.798-7.799-7.798h-258.872c-2.768 0-4.417-.694-5.425-1.792-1.006-1.099-1.452-2.73-1.453-4.844v-55.534c0-4.303-3.495-7.798-7.798-7.798h-35.165c-4.303 0-7.823 3.495-7.823 7.798v14.628c0 1.271-.199 2.375-.678 3.076s-1.221 1.139-2.81 1.139h-67.545c-1.134 0-1.88-.216-2.398-.775-.517-.56-.896-1.6-.896-3.439v-14.628c-.006-4.313-3.525-7.809-7.829-7.809h-35.165zm0 1.55h35.166c3.465 0 6.272 2.783 6.272 6.249v14.628c0 2.048.414 3.513 1.308 4.48.894.968 2.171 1.284 3.536 1.284h67.545c1.929 0 3.323-.69 4.093-1.816.77-1.127.945-2.535.945-3.948v-14.629c0-3.466 2.807-6.249 6.273-6.249h35.165c3.465 0 6.248 2.783 6.248 6.249v55.532c.001 2.329.497 4.393 1.865 5.886 1.368 1.492 3.531 2.301 6.563 2.301h258.87c3.467 0 6.249 2.784 6.249 6.248v82.173c0 3.466-2.782 6.271-6.249 6.271h-433.848c-3.466 0-6.249-2.806-6.249-6.271v-125.115-27.028c0-3.465 2.783-6.248 6.249-6.248z"/><path d="m253.027 92.805c-4.304 0-7.798 3.496-7.798 7.798v48.873c0 4.303 3.495 7.797 7.798 7.797h80.894c4.304 0 7.799-3.494 7.799-7.797v-48.873c0-4.306-3.495-7.801-7.797-7.801h-80.894zm0 1.55h80.894c3.466 0 6.249 2.783 6.249 6.248v48.873c0 3.466-2.783 6.249-6.249 6.249h-80.894c-3.466 0-6.249-2.783-6.249-6.249v-48.873c.001-3.465 2.783-6.248 6.249-6.248z"/><path d="m254.507 97.601c-2.667 0-4.843 2.2-4.843 4.868s2.176 4.844 4.843 4.844c2.668 0 4.868-2.176 4.868-4.844s-2.2-4.868-4.868-4.868zm0 1.55c1.831 0 3.318 1.488 3.318 3.318s-1.488 3.293-3.318 3.293c-1.829 0-3.293-1.463-3.293-3.293s1.464-3.318 3.293-3.318z"/><path d="m273.394 97.601c-2.667 0-4.844 2.2-4.844 4.868s2.177 4.844 4.844 4.844 4.843-2.176 4.843-4.844-2.175-4.868-4.843-4.868zm0 1.55c1.83 0 3.293 1.488 3.293 3.318s-1.464 3.293-3.293 3.293c-1.83 0-3.293-1.463-3.293-3.293s1.463-3.318 3.293-3.318z"/><path d="m292.265 97.601c-2.667 0-4.843 2.2-4.843 4.868s2.176 4.844 4.843 4.844 4.868-2.176 4.868-4.844-2.201-4.868-4.868-4.868zm0 1.55c1.83 0 3.318 1.488 3.318 3.318s-1.488 3.293-3.318 3.293-3.293-1.463-3.293-3.293 1.463-3.318 3.293-3.318z"/><path d="m311.151 97.601c-2.668 0-4.844 2.2-4.844 4.868s2.176 4.844 4.844 4.844 4.843-2.176 4.843-4.844-2.175-4.868-4.843-4.868zm0 1.55c1.829 0 3.293 1.488 3.293 3.318s-1.464 3.293-3.293 3.293c-1.828 0-3.294-1.463-3.294-3.293s1.466-3.318 3.294-3.318z"/><path d="m263.784 108.353c-2.667 0-4.868 2.176-4.868 4.844 0 2.667 2.2 4.843 4.868 4.843s4.844-2.176 4.844-4.843c-.001-2.668-2.177-4.844-4.844-4.844zm0 1.55c1.831 0 3.294 1.463 3.294 3.294 0 1.83-1.463 3.293-3.294 3.293-1.83 0-3.317-1.463-3.317-3.293-.001-1.83 1.487-3.294 3.317-3.294z"/><path d="m282.647 108.353c-2.667 0-4.843 2.176-4.843 4.844 0 2.667 2.176 4.843 4.843 4.843s4.844-2.176 4.844-4.843c.001-2.668-2.176-4.844-4.844-4.844zm0 1.55c1.83 0 3.293 1.463 3.293 3.294 0 1.83-1.463 3.293-3.293 3.293s-3.293-1.463-3.293-3.293 1.463-3.294 3.293-3.294z"/><path d="m301.542 108.353c-2.668 0-4.868 2.176-4.868 4.844 0 2.667 2.2 4.843 4.868 4.843s4.845-2.176 4.845-4.843c0-2.668-2.177-4.844-4.845-4.844zm0 1.55c1.83 0 3.295 1.463 3.295 3.294 0 1.83-1.465 3.293-3.295 3.293s-3.318-1.463-3.318-3.293 1.488-3.294 3.318-3.294z"/><path d="m320.405 108.353c-2.668 0-4.844 2.176-4.844 4.844 0 2.667 2.176 4.843 4.844 4.843s4.844-2.176 4.844-4.843c0-2.668-2.176-4.844-4.844-4.844zm0 1.55c1.83 0 3.294 1.463 3.294 3.294 0 1.83-1.464 3.293-3.294 3.293s-3.293-1.463-3.293-3.293 1.463-3.294 3.293-3.294z"/><path d="m263.784 129.811c-2.667 0-4.868 2.176-4.868 4.844s2.2 4.844 4.868 4.844 4.844-2.176 4.844-4.844c-.001-2.668-2.177-4.844-4.844-4.844zm0 1.55c1.831 0 3.294 1.463 3.294 3.293s-1.463 3.293-3.294 3.293c-1.83 0-3.317-1.463-3.317-3.293s1.487-3.293 3.317-3.293z"/><path d="m282.647 129.811c-2.667 0-4.843 2.176-4.843 4.844s2.176 4.844 4.843 4.844 4.844-2.176 4.844-4.844c.001-2.668-2.176-4.844-4.844-4.844zm0 1.55c1.83 0 3.293 1.463 3.293 3.293s-1.463 3.293-3.293 3.293-3.293-1.463-3.293-3.293 1.463-3.293 3.293-3.293z"/><path d="m301.542 129.811c-2.668 0-4.868 2.176-4.868 4.844s2.2 4.844 4.868 4.844 4.845-2.176 4.845-4.844-2.177-4.844-4.845-4.844zm0 1.55c1.83 0 3.295 1.463 3.295 3.293s-1.465 3.293-3.295 3.293-3.318-1.463-3.318-3.293 1.488-3.293 3.318-3.293z"/><path d="m320.405 129.811c-2.668 0-4.844 2.176-4.844 4.844s2.176 4.844 4.844 4.844 4.844-2.176 4.844-4.844-2.176-4.844-4.844-4.844zm0 1.55c1.83 0 3.294 1.463 3.294 3.293s-1.464 3.293-3.294 3.293-3.293-1.463-3.293-3.293 1.463-3.293 3.293-3.293z"/><path d="m330.023 97.601c-2.669 0-4.844 2.2-4.844 4.868s2.175 4.844 4.844 4.844c2.667 0 4.868-2.176 4.868-4.844.001-2.668-2.201-4.868-4.868-4.868zm0 1.55c1.83 0 3.318 1.488 3.318 3.318s-1.488 3.293-3.318 3.293c-1.831 0-3.294-1.463-3.294-3.293s1.463-3.318 3.294-3.318z"/><path d="m254.507 118.792c-2.667 0-4.843 2.2-4.843 4.868 0 2.667 2.176 4.844 4.843 4.844 2.668 0 4.868-2.176 4.868-4.844s-2.2-4.868-4.868-4.868zm0 1.549c1.831 0 3.318 1.488 3.318 3.318s-1.488 3.294-3.318 3.294c-1.829 0-3.293-1.464-3.293-3.294-.001-1.829 1.464-3.318 3.293-3.318z"/><path d="m273.394 118.792c-2.667 0-4.844 2.2-4.844 4.868 0 2.667 2.177 4.844 4.844 4.844s4.843-2.176 4.843-4.844-2.175-4.868-4.843-4.868zm0 1.549c1.83 0 3.293 1.488 3.293 3.318s-1.464 3.294-3.293 3.294c-1.83 0-3.293-1.464-3.293-3.294 0-1.829 1.463-3.318 3.293-3.318z"/><path d="m292.265 118.792c-2.667 0-4.843 2.2-4.843 4.868 0 2.667 2.176 4.844 4.843 4.844s4.868-2.176 4.868-4.844-2.201-4.868-4.868-4.868zm0 1.549c1.83 0 3.318 1.488 3.318 3.318s-1.488 3.294-3.318 3.294-3.293-1.464-3.293-3.294c-.001-1.829 1.463-3.318 3.293-3.318z"/><path d="m311.151 118.792c-2.668 0-4.844 2.2-4.844 4.868 0 2.667 2.176 4.844 4.844 4.844s4.843-2.176 4.843-4.844-2.175-4.868-4.843-4.868zm0 1.549c1.829 0 3.293 1.488 3.293 3.318s-1.464 3.294-3.293 3.294c-1.828 0-3.294-1.464-3.294-3.294 0-1.829 1.466-3.318 3.294-3.318z"/><path d="m330.023 118.792c-2.669 0-4.844 2.2-4.844 4.868 0 2.667 2.175 4.844 4.844 4.844 2.667 0 4.868-2.176 4.868-4.844.001-2.668-2.201-4.868-4.868-4.868zm0 1.549c1.83 0 3.318 1.488 3.318 3.318s-1.488 3.294-3.318 3.294c-1.831 0-3.294-1.464-3.294-3.294 0-1.829 1.463-3.318 3.294-3.318z"/><path d="m254.507 140.007c-2.667 0-4.843 2.176-4.843 4.844 0 2.667 2.176 4.843 4.843 4.843 2.668 0 4.868-2.176 4.868-4.843 0-2.668-2.2-4.844-4.868-4.844zm0 1.55c1.831 0 3.318 1.464 3.318 3.294s-1.488 3.293-3.318 3.293c-1.829 0-3.293-1.464-3.293-3.293-.001-1.83 1.464-3.294 3.293-3.294z"/><path d="m273.394 140.007c-2.667 0-4.844 2.176-4.844 4.844 0 2.667 2.177 4.843 4.844 4.843s4.843-2.176 4.843-4.843c0-2.668-2.175-4.844-4.843-4.844zm0 1.55c1.83 0 3.293 1.464 3.293 3.294s-1.464 3.293-3.293 3.293c-1.83 0-3.293-1.464-3.293-3.293 0-1.83 1.463-3.294 3.293-3.294z"/><path d="m292.265 140.007c-2.667 0-4.843 2.176-4.843 4.844 0 2.667 2.176 4.843 4.843 4.843s4.868-2.176 4.868-4.843c0-2.668-2.201-4.844-4.868-4.844zm0 1.55c1.83 0 3.318 1.464 3.318 3.294s-1.488 3.293-3.318 3.293-3.293-1.464-3.293-3.293c-.001-1.83 1.463-3.294 3.293-3.294z"/><path d="m311.151 140.007c-2.668 0-4.844 2.176-4.844 4.844 0 2.667 2.176 4.843 4.844 4.843s4.843-2.176 4.843-4.843c0-2.668-2.175-4.844-4.843-4.844zm0 1.55c1.829 0 3.293 1.464 3.293 3.294s-1.464 3.293-3.293 3.293c-1.828 0-3.294-1.464-3.294-3.293 0-1.83 1.466-3.294 3.294-3.294z"/><path d="m330.023 140.007c-2.669 0-4.844 2.176-4.844 4.844 0 2.667 2.175 4.843 4.844 4.843 2.667 0 4.868-2.176 4.868-4.843.001-2.668-2.201-4.844-4.868-4.844zm0 1.55c1.83 0 3.318 1.464 3.318 3.294s-1.488 3.293-3.318 3.293c-1.831 0-3.294-1.464-3.294-3.293 0-1.83 1.463-3.294 3.294-3.294z"/><path d="m125.881 99.828c-1.645 0-3.003 1.358-3.003 3.003v6.466c0 1.646 1.358 3.003 3.003 3.003h62.75c1.646 0 2.979-1.357 2.979-3.003v-6.466c0-1.646-1.333-3.003-2.979-3.003zm0 1.55h62.75c.809 0 1.429.645 1.429 1.453v6.466c0 .808-.621 1.453-1.429 1.453h-62.75c-.808 0-1.453-.646-1.453-1.453v-6.466c.001-.808.646-1.453 1.453-1.453z"/><path d="m135.135 99.828c-1.645 0-3.003 1.358-3.003 3.003v6.103c0 1.646 1.358 3.003 3.003 3.003h24.243c1.646 0 3.003-1.357 3.003-3.003v-6.103c0-1.646-1.358-3.003-3.003-3.003zm0 1.55h24.243c.808 0 1.454.645 1.454 1.453v6.103c0 .808-.646 1.453-1.454 1.453h-24.243c-.808 0-1.453-.645-1.453-1.453v-6.103c0-.808.645-1.453 1.453-1.453z"/><path d="m394.394 187.138c-15.292 0-27.706 12.414-27.706 27.706s12.414 27.706 27.706 27.706 27.705-12.414 27.705-27.706-12.413-27.706-27.705-27.706zm0 1.55c14.455 0 26.155 11.702 26.155 26.156s-11.7 26.156-26.155 26.156c-14.454 0-26.156-11.702-26.156-26.156s11.701-26.156 26.156-26.156z"/><path d="m394.394 192.245c-12.48 0-22.621 10.114-22.621 22.596 0 12.48 10.141 22.621 22.621 22.621 12.481 0 22.621-10.141 22.621-22.621 0-12.482-10.14-22.596-22.621-22.596zm0 1.55c11.645 0 21.071 9.403 21.071 21.046 0 11.644-9.427 21.071-21.071 21.071s-21.07-9.428-21.07-21.071 9.426-21.046 21.07-21.046z"/><path d="m458.261 187.138c-15.291 0-27.706 12.414-27.706 27.706s12.415 27.706 27.706 27.706c15.292 0 27.706-12.414 27.706-27.706s-12.414-27.706-27.706-27.706zm0 1.55c14.455 0 26.156 11.702 26.156 26.156s-11.701 26.156-26.156 26.156c-14.454 0-26.156-11.702-26.156-26.156s11.702-26.156 26.156-26.156z"/><path d="m458.261 192.245c-12.48 0-22.62 10.114-22.62 22.596 0 12.48 10.14 22.621 22.62 22.621 12.481 0 22.596-10.141 22.596-22.621-.001-12.482-10.115-22.596-22.596-22.596zm0 1.55c11.645 0 21.046 9.403 21.046 21.046 0 11.644-9.403 21.071-21.046 21.071s-21.07-9.428-21.07-21.071 9.427-21.046 21.07-21.046z"/><path d="m117.647 141.727c-3.69 0-6.709 2.995-6.709 6.685v19.205c0 1.251-.127 1.826-.194 1.914-.033.043-.041.074-.242.121s-.569.073-1.065.073h-19.811c-3.69 0-6.684 3.019-6.684 6.709v30.854c0 3.689 2.994 6.684 6.684 6.684h19.617c.632 0 1.097.015 1.38.049s.352.105.314.071c-.036-.031-.02-.098 0 .073.021.173 0 .502 0 .945v20.173c0 3.69 3.019 6.709 6.709 6.709h30.854c3.69 0 6.684-3.019 6.684-6.709v-20.101c0-.35.02-.638.048-.8.029-.161.051-.171.073-.193.044-.045.418-.236 1.501-.218h.024 19.666c3.69 0 6.708-2.994 6.708-6.685v-30.854c0-3.689-3.018-6.708-6.708-6.708h-19.736c-.475 0-.813-.02-1.018-.073s-.265-.107-.314-.169c-.1-.124-.243-.668-.243-1.816v-19.256c0-3.689-2.994-6.685-6.684-6.685zm0 1.549h30.854c2.852 0 5.134 2.283 5.134 5.135v19.254c0 1.219.014 2.082.581 2.785.284.352.714.593 1.139.702.424.11.87.122 1.405.122h19.738c2.852 0 5.159 2.306 5.159 5.159v30.854c0 2.852-2.307 5.134-5.159 5.134h-19.666c-1.215-.021-2.056.084-2.64.679-.292.296-.422.667-.485 1.017-.063.348-.072.696-.072 1.065v20.102c0 2.853-2.282 5.159-5.134 5.159h-30.854c-2.853 0-5.159-2.307-5.159-5.159v-20.174c0-.431.018-.763-.024-1.114s-.175-.773-.509-1.065-.718-.384-1.138-.436c-.419-.051-.926-.073-1.574-.073h-19.616c-2.853 0-5.134-2.281-5.134-5.134v-30.854c0-2.853 2.281-5.159 5.134-5.159h19.81c.541 0 .983.003 1.405-.097.421-.098.86-.338 1.138-.702.556-.726.509-1.564.509-2.858v-19.205c0-2.852 2.306-5.134 5.159-5.134z"/><path d="m117.502 146.353c-1.01 0-1.841.831-1.841 1.841v25.938c0 .171-.034.217-.097.217h-26.06c-1.009 0-1.84.855-1.84 1.865v31.098c0 1.009.831 1.84 1.84 1.84h26.01.025c.094.008.157.034.145.024-.014-.012-.024-.053-.024.024v26.495c0 1.01.831 1.84 1.841 1.84h31.121c1.009 0 1.84-.83 1.84-1.84v-26.495c0-.03-.078-.049.146-.049h26.035c1.01 0 1.841-.831 1.841-1.84v-31.098c0-1.009-.831-1.865-1.841-1.865h-26.059c-.054 0-.121-.042-.121-.193v-25.962c0-1.01-.831-1.841-1.84-1.841h-31.121zm0 1.55h31.121c.171 0 .291.119.291.291v25.962c0 .897.699 1.744 1.671 1.744h26.059c.173 0 .291.142.291.314v31.098c0 .171-.118.29-.291.29h-26.035c-.937 0-1.695.78-1.695 1.599v26.495c0 .173-.12.29-.291.29h-31.121c-.171 0-.291-.117-.291-.29v-26.496c0-.437-.177-.896-.509-1.187-.331-.292-.744-.412-1.162-.412h-26.035c-.173 0-.291-.119-.291-.29v-31.098c0-.173.118-.314.291-.314h26.06c.985 0 1.647-.893 1.647-1.768v-25.938c-.001-.171.119-.291.29-.29z"/><path d="m133.075 179.821c-6.629 0-12.037 5.408-12.037 12.037s5.408 12.012 12.037 12.012c6.628 0 12.012-5.383 12.012-12.012s-5.384-12.037-12.012-12.037zm0 1.55c5.791 0 10.462 4.695 10.462 10.487 0 5.791-4.671 10.462-10.462 10.462-5.792 0-10.487-4.671-10.487-10.462 0-5.792 4.695-10.487 10.487-10.487z"/><path d="m104.594 180.644-1.308 1.332-9.324 9.324-.557.557.557.533 9.324 9.348 1.308 1.308v-1.864-1.89h8.234.775v-.774-13.321-.775h-.775-8.234v-1.889-1.89zm-1.551 3.753v.799.775h.775 8.234v11.77h-8.234-.775v.775.775l-7.435-7.436z"/><path d="m125.64 211.311v.774 8.234h-1.889-1.889l1.332 1.332 9.324 9.324.557.557.532-.557 9.349-9.324 1.307-1.332h-1.864-1.889v-8.234-.774h-.775-13.321zm1.55 1.549h11.77v8.234.774h.775.775l-7.46 7.459-7.435-7.459h.799.775v-.774z"/><path d="m161.531 180.644v1.889 1.889h-8.234-.775v.775 13.32.775h.775 8.234v1.889 1.865l1.332-1.309 9.324-9.354.557-.535-.557-.559-9.324-9.322-1.333-1.334zm1.551 3.753 7.459 7.459-7.459 7.436v-.775-.775h-.775-8.235v-11.77h8.235.775v-.775z"/><path d="m133.075 152.193-.557.557-9.324 9.324-1.332 1.308h1.889 1.889v8.234.775h.775 13.321.775v-.775-8.234h1.889 1.864l-1.308-1.308-9.348-9.324zm-.025 2.18 7.46 7.459h-.775-.775v.775 8.234h-11.771v-8.234-.775h-.775-.798z"/><path d="m72.165 72.849c-9.068 0-16.42 7.566-16.42 16.856v167.159c0 9.291 7.352 16.855 16.42 16.855h445.109c9.068 0 16.396-7.564 16.396-16.855v-167.159c0-9.29-7.332-16.856-16.398-16.856h-445.11zm0 1.55h445.109c8.207 0 14.847 6.831 14.847 15.306v167.159c0 8.476-6.64 15.306-14.847 15.306h-445.109c-8.208 0-14.872-6.828-14.872-15.306v-167.159c0-8.476 6.664-15.306 14.872-15.306z"/><path d="m294.923 169.677c-5.3 0-9.614 4.315-9.614 9.615v.774h.775 17.679.775v-.774c0-5.3-4.315-9.615-9.615-9.615zm0 1.55c4.188 0 7.516 3.211 7.92 7.29h-15.839c.405-4.079 3.73-7.29 7.919-7.29z"/><path d="m294.923 166.941c-6.807 0-12.327 5.544-12.327 12.352h1.55c0-5.97 4.809-10.802 10.777-10.802 5.971 0 10.802 4.833 10.802 10.802h1.55c-.001-6.808-5.544-12.352-12.352-12.352z"/></g></svg>