<svg height="350.26" viewBox="0 0 598.189 350.26" width="598.189" xmlns="http://www.w3.org/2000/svg"><g fill="#f4f4f4"><path d="m112.46 40.406-3.78.184c-.464.021-.823.414-.802.878s.414.823.877.803h.003l3.78-.184c.464-.021.822-.414.802-.878-.021-.463-.414-.823-.877-.802-.001-.001-.002-.001-.003-.001z"/><path d="m279.126 32.507c-48.083 0-121.473 3.714-165.961 6.771-.14.01-.275.055-.394.131.162-.104-.02.007-.131.079-.112.071-.277.176-.42.341-.285.329-.464 1.002-.236 1.601v.026c3.549 9.068 14.875 41.947 26.536 75.328 11.66 33.379 23.636 67.252 28.635 78.608 5.396 12.256 11.903 22.935 21.128 30.577 9.225 7.644 21.17 12.179 37.166 12.179h53.148 44.986 53.148c15.995 0 27.915-4.535 37.139-12.179 9.227-7.643 15.733-18.321 21.128-30.577 5.001-11.356 16.976-45.229 28.636-78.608s23.013-66.259 26.562-75.328c0-.009 0-.018 0-.026.228-.599.022-1.272-.263-1.601-.135-.166-.277-.271-.386-.342-.109-.072-.32-.183-.16-.079-.119-.076-.254-.121-.395-.131-44.489-3.057-117.845-6.771-165.928-6.771zm0 1.68h43.937c47.896 0 121.026 3.695 165.508 6.745-3.632 9.292-14.872 41.99-26.509 75.301-11.657 33.377-23.676 67.343-28.581 78.479-5.339 12.129-11.752 22.574-20.682 29.975-8.933 7.398-20.386 11.784-36.063 11.784h-53.148-44.988-53.148c-15.679 0-27.158-4.386-36.089-11.784-8.937-7.4-15.319-17.848-20.661-29.976-4.905-11.137-16.949-45.102-28.606-78.479-11.641-33.309-22.88-66.005-26.511-75.299 44.483-3.052 117.633-6.746 165.541-6.746z"/><path d="m489.543 40.406c-.465.021-.823.414-.804.877.021.464.414.823.878.803h.004l3.779.184c.464.023.858-.334.881-.798.023-.463-.334-.858-.798-.881-.001 0-.002 0-.004 0l-3.753-.184c-.061-.007-.123-.007-.183-.001z"/><path d="m274.481 45.499c-32.078 0-64.393.336-76.377 1.076-10.753.664-23.318 1.775-34.41 4.515-11.091 2.739-20.775 7.078-25.616 14.409-4.913 7.439-3.216 18.877-.21 29.134 3.006 10.256 7.477 19.496 8.478 22.126 1.046 2.745 7.33 19.888 14.304 37.979 6.975 18.091 14.59 37.081 18.478 43.911 4.92 8.645 9.941 16.231 18.373 21.627s20.191 8.53 38.477 8.53h42.755 44.724 42.729c18.286 0 30.046-3.135 38.477-8.53 8.432-5.396 13.451-12.982 18.373-21.627 3.888-6.831 11.502-25.82 18.477-43.911 6.976-18.091 13.284-35.233 14.331-37.979 1.002-2.629 5.444-11.87 8.451-22.126 3.006-10.256 4.729-21.694-.185-29.134-4.821-7.333-14.504-11.671-25.592-14.411-11.095-2.74-23.659-3.851-34.41-4.514-11.984-.74-44.319-1.076-76.403-1.076h-53.202zm0 1.68h53.202c32.066 0 64.471.346 76.299 1.076 10.716.661 23.186 1.768 34.094 4.461 10.909 2.694 20.184 6.983 24.618 13.7 4.364 6.608 2.957 17.655 0 27.742s-7.307 19.058-8.424 21.996c-1.076 2.821-7.362 19.903-14.331 37.979-6.968 18.075-14.658 37.196-18.346 43.675-4.887 8.583-9.736 15.876-17.821 21.048-8.086 5.174-19.493 8.269-37.586 8.269h-42.729-44.724-42.755c-18.093 0-29.474-3.095-37.559-8.269-8.085-5.173-12.935-12.465-17.822-21.048-3.687-6.479-11.403-25.6-18.372-43.675-6.963-18.074-13.22-35.158-14.295-37.979-1.119-2.938-5.495-11.908-8.451-21.996-2.957-10.086-4.364-21.133 0-27.742 4.435-6.717 13.711-11.007 24.619-13.7 10.908-2.694 23.403-3.8 34.121-4.462 11.827-.73 44.205-1.076 76.271-1.076z"/><path d="m209.155 55.84c-2.43 0-4.435 1.979-4.435 4.409v145.537c0 2.431 2.005 4.409 4.435 4.409h183.885c2.431 0 4.409-1.979 4.409-4.409v-145.537c0-2.43-1.979-4.409-4.409-4.409zm0 1.679h183.885c1.523 0 2.729 1.208 2.729 2.73v145.537c0 1.522-1.206 2.729-2.729 2.729h-183.885c-1.523 0-2.756-1.207-2.756-2.729v-145.537c0-1.522 1.232-2.73 2.756-2.73z"/><path d="m219.074 69.356c-.893 0-1.627.734-1.627 1.627v123.808c0 .892.734 1.627 1.627 1.627h164.013c.894 0 1.627-.735 1.627-1.627v-123.807c0-.894-.733-1.627-1.627-1.627h-164.013zm.053 1.68h163.912v123.699h-163.912z"/><path d="m182.564 109.907c-2.173 0-3.937 1.789-3.937 3.963s1.763 3.963 3.937 3.963 3.963-1.788 3.963-3.963c0-2.174-1.789-3.963-3.963-3.963z"/><path d="m98.051 105.682c-18.936 0-34.304 15.369-34.304 34.304 0 18.936 15.369 34.305 34.304 34.305s34.304-15.369 34.304-34.305c0-18.931-15.37-34.3-34.305-34.3zm0 1.679c18.027 0 32.625 14.597 32.625 32.624 0 18.028-14.597 32.625-32.625 32.625s-32.625-14.597-32.625-32.625c-.001-18.023 14.596-32.621 32.624-32.621z"/><path d="m98.051 109.382c-16.886 0-30.577 13.718-30.577 30.603 0 16.887 13.692 30.577 30.577 30.577 16.886 0 30.604-13.691 30.604-30.577-.001-16.885-13.718-30.603-30.604-30.603zm0 1.68c15.978 0 28.924 12.946 28.924 28.924 0 15.979-12.946 28.897-28.924 28.897s-28.897-12.92-28.897-28.897 12.92-28.924 28.897-28.924z"/><path d="m98.077 110.721c-3.387-.008-6.771.396-9.16 1.365-.32.129-.528.442-.525.787v14.672h-1.076c-.463.004-.837.383-.833.847.001.212.083.417.229.571l10.734 10.734c.323.333.854.342 1.188.02.006-.007.013-.013.02-.02l10.734-10.734c.319-.337.305-.868-.033-1.187-.154-.146-.358-.229-.571-.23h-1.076v-14.672c.003-.345-.205-.657-.525-.786-2.349-.932-5.72-1.356-9.108-1.365zm0 1.679c3.014.008 5.943.437 7.953 1.129v14.777.079c.009.417.322.763.735.815l-8.713 8.718-8.714-8.718c.17-.031.326-.114.446-.236l.052-.053c.157-.162.243-.38.237-.605v-14.777c2.033-.716 4.99-1.138 8.004-1.13z"/><path d="m86.267 128.409c-.392.087-.666.439-.656.84v1.076h-14.673c-.336.007-.635.214-.761.525-.933 2.349-1.383 5.72-1.391 9.108-.009 3.387.421 6.771 1.391 9.16.133.301.431.496.761.499h14.672v1.103c.003.464.382.837.847.833.225-.002.44-.094.597-.256l10.733-10.726c.323-.327.323-.854 0-1.181l-10.734-10.734c-.204-.211-.502-.3-.788-.236zm1.023 2.835 8.714 8.714-8.714 8.74c-.03-.172-.113-.331-.237-.454l-.078-.059c-.151-.159-.359-.252-.578-.26h-14.803c-.713-2.033-1.136-4.965-1.128-7.979.008-3.012.437-5.943 1.128-7.953h14.803.053c.435.002.798-.328.839-.761z"/><path d="m97.867 140.016c-.16.036-.306.118-.42.236l-10.734 10.734c-.333.323-.342.854-.02 1.188.163.169.389.261.624.256h1.076v14.646c0 .353.22.667.551.787 2.349.934 5.694 1.357 9.081 1.366 3.387.008 6.771-.396 9.16-1.366.32-.129.528-.442.524-.787v-14.646h1.076c.464.012.85-.354.862-.817.006-.236-.087-.463-.257-.627l-10.734-10.734c-.204-.211-.503-.3-.789-.236zm.184 2.021 8.713 8.714c-.16.036-.306.118-.42.236l-.079.05c-.156.161-.241.379-.236.604v14.802c-2.033.715-4.989 1.11-8.004 1.103-3.014-.008-5.943-.41-7.953-1.103v-14.802-.053c.003-.426-.313-.787-.735-.84l8.714-8.714z"/><path d="m109.546 128.409c-.188.02-.364.104-.499.236l-10.734 10.733c-.324.327-.324.854 0 1.181l10.734 10.734c.323.333.854.342 1.188.02.162-.156.254-.371.256-.597v-1.103h14.672c.335-.007.635-.213.761-.525.933-2.349 1.382-5.694 1.391-9.081.008-3.388-.421-6.772-1.391-9.16-.126-.312-.426-.518-.761-.525h-14.672v-1.076c.003-.464-.37-.843-.833-.847-.036.002-.074.004-.112.01zm-.708 2.861c.029.157.101.303.21.42l.079.079c.155.15.362.234.577.236h14.803c.714 2.033 1.136 4.99 1.129 8.005-.008 3.003-.441 5.917-1.129 7.926h-14.803-.052c-.417-.005-.775.297-.84.708l-8.709-8.684 8.74-8.685z"/><path d="m79.468 120.01c-.361 0-.727.123-.997.394-.54.541-.54 1.455 0 1.995l3.019 2.992c.542.54 1.427.54 1.968 0 .541-.541.541-1.455 0-1.994l-2.992-2.993c-.271-.26-.637-.386-.998-.386z"/><path d="m82.487 154.16c-.361 0-.727.123-.997.394l-2.992 3.018v.026c-.524.542-.561 1.408-.026 1.942.541.543 1.453.54 1.995 0l2.992-2.992c.541-.541.542-1.453 0-1.995-.271-.27-.611-.393-.972-.393z"/><path d="m113.642 154.16c-.361 0-.728.124-.998.394-.543.541-.541 1.454 0 1.995l2.992 2.992c.541.542 1.454.543 1.995 0 .545-.541.54-1.429 0-1.969l-2.991-3.015c-.271-.271-.637-.394-.998-.394z"/><path d="m116.633 120.01c-.361 0-.727.122-.998.394l-2.992 2.99c-.541.541-.542 1.453 0 1.995.541.539 1.428.539 1.969 0l3.018-2.992c.545-.54.544-1.454 0-1.995-.27-.271-.636-.394-.997-.394z"/><path d="m107.447 39.698c-12.747.911-22.584 1.73-28.004 2.362-11.929 1.392-18.883 2.148-23.491 5.119-2.303 1.485-3.965 3.538-5.223 6.352-1.257 2.813-2.156 6.395-3.044 11.076-8.778 46.281-9.938 126.563-8.346 165.978.795 19.674 1.139 35.518 8.11 47.323s20.524 19.261 47.085 22.257c52.991 5.979 156.345 6.772 179.03 6.772h55.065c22.682 0 126.008-.794 178.996-6.772 26.562-2.996 40.115-10.451 47.086-22.257s7.341-27.648 8.137-47.323c1.593-39.422.405-119.7-8.373-165.978-.888-4.681-1.787-8.263-3.044-11.076-1.258-2.813-2.92-4.867-5.224-6.352-4.606-2.97-11.535-3.726-23.465-5.119-5.421-.632-15.259-1.451-28.005-2.362-.062-.007-.123-.007-.184 0-.388.052-.777.168-1.103.42-.314.244-.496.599-.63.945-.001.005-.025-.004-.026 0s.001.022 0 .026c-1.605 4.104-4.82 13.078-8.949 24.829-.004.011.004.016 0 .026-.338.952-.396 1.915 0 2.729.398.822 1.197 1.407 2.179 1.785 6.35 2.45 10.813 8.646 10.813 15.879 0 9.427-7.604 17.06-17.033 17.06-1.767 0-3.465-.289-5.065-.788v.026c-1.051-.348-2.015-.288-2.757.105-.741.393-1.214 1.038-1.548 1.653-.03.042-.057.085-.079.131-13.499 38.692-28.876 82.539-34.409 95.251-9.726 22.344-27.233 40.841-59.921 40.841h-50.761-48.372-50.761c-32.687 0-50.194-18.497-59.92-40.841-4.855-11.155-17.304-46.313-29.396-80.891-12.088-34.566-23.841-68.557-27.455-77.795-.002-.007.002-.02 0-.026h-.026c-.151-.355-.332-.71-.646-.954-.323-.251-.716-.368-1.102-.42-.052-.005-.105-.005-.158 0zm.026 1.68c.1.023.192.064.21.079.025.019.067.037.131.21v.026c3.548 9.066 15.334 43.158 27.428 77.742 12.093 34.583 24.471 69.648 29.422 81.022 9.888 22.716 28.144 41.837 61.469 41.837h50.761 48.373 50.762c33.323 0 51.58-19.121 61.469-41.837 5.635-12.946 20.919-56.608 34.409-95.276.007-.013.02-.014.026-.026.234-.422.519-.748.84-.918.331-.176.724-.265 1.443-.026h.026c1.761.548 3.627.866 5.564.866 10.335 0 18.714-8.404 18.714-18.739 0-7.928-4.9-14.757-11.891-17.454-.734-.283-1.1-.617-1.259-.945s-.195-.757.052-1.444c4.141-11.778 7.374-20.773 8.953-24.807 0-.009 0-.018 0-.026.064-.172.107-.191.131-.21.017-.012.107-.058.185-.079 12.683.907 22.505 1.739 27.847 2.362 11.928 1.392 18.73 2.243 22.783 4.855 2.025 1.306 3.431 3.045 4.592 5.643 1.161 2.597 2.035 6.052 2.914 10.682 8.717 45.959 9.934 126.318 8.347 165.617-.796 19.687-1.254 35.254-7.901 46.509-6.646 11.255-19.508 18.501-45.825 21.469-52.766 5.953-156.177 6.745-178.82 6.745h-55.064c-22.643 0-126.05-.792-178.82-6.745-26.319-2.973-39.208-10.221-45.854-21.475-6.646-11.256-7.079-26.818-7.874-46.505-1.587-39.298-.397-119.659 8.32-165.617.878-4.631 1.779-8.085 2.939-10.683 1.161-2.598 2.567-4.337 4.593-5.643 4.052-2.612 10.829-3.464 22.756-4.856 5.341-.623 15.164-1.455 27.847-2.362z"/><path d="m484.975 71.482c-.519-.129-1.114-.201-1.707.052-.591.253-1.016.785-1.313 1.496-.01.018-.018.035-.026.053l-8.24 24.382v.026c-.185.505-.293.944-.315 1.365-.023.429.057.863.289 1.208.463.69 1.135.87 1.811 1.128.025.01.052.019.079.026 1.427.432 2.921.657 4.487.657 8.605 0 15.618-6.984 15.618-15.59 0-6.86-4.438-12.692-10.604-14.777-.028-.009-.053-.018-.079-.026zm-1.051 1.601c.08-.034.29-.054.631.026.013.004.011-.003.026 0 5.456 1.881 9.396 7.069 9.396 13.176 0 7.698-6.239 13.91-13.938 13.91-1.401 0-2.743-.193-4.015-.577-.606-.24-.949-.439-.972-.473-.011-.018-.036-.018-.026-.184.009-.166.079-.465.236-.892 0-.009 0-.018 0-.026l8.241-24.357c.011-.024.017-.004.026-.026v-.026c.179-.389.318-.518.395-.551z"/><path d="m485.083 84.396c-1.62 0-2.939 1.346-2.939 2.966 0 1.621 1.319 2.939 2.939 2.939s2.966-1.319 2.966-2.939c0-1.621-1.346-2.966-2.966-2.966z"/><path d="m481.849 144.837c-8.304 0-15.038 6.735-15.038 15.039s6.735 15.066 15.038 15.066c8.304 0 15.066-6.762 15.066-15.066 0-8.303-6.762-15.039-15.066-15.039zm0 1.68c7.396 0 13.388 5.963 13.388 13.359s-5.99 13.386-13.388 13.386c-7.396 0-13.358-5.99-13.358-13.386-.001-7.396 5.963-13.359 13.358-13.359z"/><path d="m521.014 114.815c-8.304 0-15.04 6.761-15.04 15.065s6.736 15.039 15.04 15.039c8.303 0 15.065-6.735 15.065-15.039 0-8.302-6.762-15.065-15.065-15.065zm0 1.68c7.396 0 13.386 5.99 13.386 13.386s-5.99 13.359-13.386 13.359-13.359-5.963-13.359-13.359c-.001-7.396 5.962-13.386 13.359-13.386z"/><path d="m521.014 111.481c-10.152 0-18.399 8.247-18.399 18.399 0 .189-.006.363 0 .551.001.009 0 .018 0 .026.001.479.048.933 0 1.26-.049.333-.128.489-.341.656-3.986 3.023-8.026 6.496-12.048 10.367-.492.335-.886.276-1.521.053-.008-.004-.019.003-.026 0-2.112-.845-4.415-1.313-6.824-1.313-10.15 0-18.399 8.247-18.399 18.398 0 3.652 1.076 7.058 2.914 9.921v.026c.215.331.326.586.368.814.037.206.03.424-.105.734-.015.034-.008.042-.026.079-6.972 10.869-11.634 21.352-13.49 30.131-1.861 8.8-.944 16.026 3.675 19.947 2.9 2.462 6.903 3.271 11.496 2.729 4.592-.541 9.824-2.428 15.433-5.433 11.217-6.011 23.922-16.55 35.537-30.236 11.616-13.686 19.961-27.928 24.068-39.973 2.054-6.022 3.047-11.496 2.835-16.116s-1.667-8.431-4.567-10.893c-1.274-1.081-2.753-1.84-4.409-2.31-.061-.012-.123-.018-.185-.017-.248-.011-.925-.172-1.496-.761-3.369-4.286-8.618-7.034-14.488-7.034zm0 1.681c5.375 0 10.141 2.522 13.202 6.457.023.028.05.054.078.079.832.856 1.736 1.135 2.414 1.207.008.001.021-.001.026 0 1.44.411 2.703 1.082 3.78 1.995 2.461 2.089 3.765 5.371 3.963 9.685s-.748 9.627-2.756 15.512c-4.015 11.768-12.252 25.873-23.753 39.423s-24.078 23.969-35.039 29.842c-5.48 2.937-10.54 4.717-14.829 5.223-4.29.507-7.748-.246-10.209-2.336-3.919-3.326-4.949-9.815-3.149-18.319 1.798-8.504 6.392-18.865 13.307-29.632.019-.025.036-.051.053-.079.315-.639.394-1.318.289-1.89-.106-.571-.368-1.013-.63-1.417-1.67-2.602-2.625-5.704-2.625-9.029 0-9.245 7.476-16.719 16.718-16.719 2.201 0 4.298.435 6.222 1.207h.025c.854.302 2.035.469 3.071-.236.036-.023.071-.05.104-.079 4.012-3.87 8.056-7.333 12.021-10.34.606-.475.885-1.172.971-1.758.087-.586.026-1.119.026-1.522 0-.009 0-.018 0-.026-.006-.177 0-.347 0-.525 0-9.245 7.475-16.719 16.719-16.719z"/><path d="m98.051 101.246c-8.17 0-15.708 2.588-21.995 6.824-2.41 1.624-4.535 2.004-6.483 1.732s-3.746-1.219-5.249-2.415c-3.007-2.392-4.83-5.669-4.83-5.669-.229-.407-.746-.551-1.153-.322s-.551.746-.322 1.153c.001.003.003.006.005.009 0 0 1.95 3.496 5.276 6.142 1.662 1.322 3.693 2.456 6.036 2.782s4.963-.202 7.664-2.021c6.036-4.067 13.237-6.535 21.049-6.535 20.48 0 37.06 16.581 37.06 37.06 0 10.772-.557 29.182-7.48 46.036s-20.093 32.134-45.668 36.954c-.457.086-.758.526-.672.981.085.459.525.759.982.673.001 0 .003-.001.005-.001 26.111-4.921 39.854-20.757 46.929-37.978 7.075-17.223 7.585-35.838 7.585-46.667 0-21.384-17.353-38.738-38.739-38.738z"/><path d="m195.238 31.772-45.85 2.283c-.463.014-.829.401-.814.865 0 .009 0 .019.001.027l.134 2.914c.021.464.414.823.877.802.464-.021.824-.414.803-.878 0-.001 0-.002 0-.003l-.105-2.1 44.199-2.178.105 2.073c.021.464.414.823.877.802.464-.021.823-.414.802-.877 0-.001 0-.002 0-.003l-.131-2.939c-.028-.463-.426-.816-.889-.787h-.009z"/></g></svg>