<svg enable-background="new 0 0 598.189 350.26" height="350.26" viewBox="0 0 598.189 350.26" width="598.189" xmlns="http://www.w3.org/2000/svg"><g fill="#f4f4f4"><path d="m105.619 240.402c0-14.178 11.491-25.669 25.668-25.672 14.175.003 25.667 11.494 25.667 25.672 0 14.174-11.491 25.665-25.667 25.668-14.177-.003-25.668-11.494-25.668-25.668zm2.367 0c.025 12.866 10.434 23.272 23.301 23.297 12.865-.024 23.274-10.431 23.298-23.297-.024-12.871-10.434-23.276-23.298-23.301-12.868.025-23.276 10.43-23.301 23.301z"/><path d="m112.429 240.402c.002-10.415 8.442-18.856 18.858-18.856 10.413 0 18.854 8.441 18.854 18.856 0 10.412-8.44 18.854-18.854 18.854-10.416.001-18.856-8.442-18.858-18.854zm2.369 0c.017 9.104 7.384 16.468 16.489 16.485 9.104-.018 16.47-7.382 16.486-16.485-.017-9.106-7.382-16.471-16.486-16.488-9.105.018-16.472 7.382-16.489 16.488z"/><path d="m457.859 240.402c.003-14.179 11.492-25.668 25.672-25.671 14.173.003 25.664 11.492 25.667 25.671-.003 14.174-11.494 25.665-25.667 25.668-14.179-.003-25.669-11.494-25.672-25.668zm2.373 0c.021 12.865 10.428 23.273 23.299 23.296 12.864-.022 23.272-10.431 23.295-23.296-.022-12.87-10.431-23.276-23.295-23.298-12.871.022-23.277 10.428-23.299 23.298z"/><path d="m464.674 240.402c0-10.414 8.44-18.854 18.853-18.854 10.415 0 18.858 8.44 18.858 18.854 0 10.413-8.443 18.854-18.858 18.854-10.413.001-18.853-8.441-18.853-18.854zm2.368 0c.018 9.106 7.383 16.467 16.484 16.484 9.107-.018 16.472-7.378 16.489-16.484-.018-9.106-7.382-16.471-16.489-16.488-9.101.018-16.466 7.382-16.484 16.488z"/><path d="m220.286 287.542c0-3.928 3.18-7.108 7.107-7.108 3.925 0 7.106 3.181 7.108 7.108-.002 3.923-3.184 7.104-7.108 7.107-3.927-.003-7.107-3.184-7.107-7.107zm2.369 0c.006 2.612 2.122 4.729 4.738 4.737 2.616-.009 4.732-2.125 4.738-4.737-.006-2.619-2.122-4.736-4.738-4.74-2.616.004-4.732 2.121-4.738 4.74z"/><path d="m308.148 301.954v-1.187-1.186h11.847c6.649-.012 12.03-5.393 12.042-12.04-.012-6.655-5.393-12.036-12.042-12.048h-11.847c-6.651.012-12.034 5.393-12.044 12.048.01 6.647 5.393 12.028 12.044 12.04v1.186 1.187c-7.962-.002-14.414-6.455-14.414-14.412 0-7.963 6.452-14.417 14.414-14.417h11.847c7.961 0 14.41 6.454 14.414 14.417-.004 7.957-6.453 14.41-14.414 14.412z"/><path d="m308.938 295.636v-1.185-1.187h11.453c3.378-.007 6.112-2.738 6.12-6.119-.008-3.383-2.742-6.115-6.12-6.122h-11.453c-3.38.007-6.115 2.739-6.123 6.122.008 3.381 2.743 6.112 6.123 6.119v1.187 1.185c-4.688 0-8.49-3.802-8.49-8.49 0-4.691 3.802-8.49 8.49-8.493h11.453c4.688.003 8.487 3.802 8.487 8.493 0 4.688-3.799 8.49-8.487 8.49z"/><path d="m358.101 301.954v-1.187-1.186h11.85c6.649-.012 12.029-5.393 12.042-12.04-.013-6.655-5.393-12.036-12.042-12.048h-11.85c-6.65.012-12.032 5.393-12.042 12.048.01 6.647 5.392 12.028 12.042 12.04v1.186 1.187c-7.962-.002-14.411-6.455-14.414-14.412.003-7.963 6.452-14.417 14.414-14.417h11.85c7.959 0 14.412 6.454 14.412 14.417 0 7.957-6.453 14.41-14.412 14.412z"/><path d="m408.647 301.954v-1.187-1.186h11.848c6.649-.012 12.03-5.393 12.041-12.04-.011-6.655-5.392-12.036-12.041-12.048h-11.848c-6.652.012-12.032 5.393-12.045 12.048.013 6.647 5.393 12.028 12.045 12.04v1.186 1.187c-7.964-.002-14.414-6.455-14.414-14.412 0-7.963 6.45-14.417 14.414-14.417h11.848c7.961 0 14.41 6.454 14.413 14.417-.003 7.957-6.452 14.41-14.413 14.412z"/><path d="m358.894 295.636v-1.185-1.187h11.453c3.377-.007 6.109-2.738 6.118-6.119-.009-3.383-2.741-6.115-6.118-6.122h-11.453c-3.383.007-6.117 2.741-6.126 6.122.009 3.378 2.743 6.112 6.126 6.121v1.185 1.185c-4.691 0-8.492-3.802-8.492-8.49 0-4.691 3.801-8.49 8.492-8.493h11.453c4.688.003 8.485 3.802 8.485 8.493 0 4.688-3.797 8.49-8.485 8.49z"/><path d="m204.619 235.117c-6.542 0-11.845-5.302-11.847-11.845v-134.264c.002-6.543 5.305-11.845 11.847-11.847l204.556.002c6.542 0 11.844 5.302 11.848 11.845v134.265h-.004c0 6.543-5.302 11.845-11.844 11.847zm-9.476-146.109v134.265c.01 5.232 4.244 9.468 9.477 9.477h204.556c5.232-.009 9.467-4.244 9.477-9.477v-134.265c-.01-5.233-4.244-9.467-9.477-9.477h-204.557c-5.232.01-9.467 4.243-9.476 9.477z"/><path d="m205.806 227.813c-3.271 0-5.923-2.652-5.923-5.923v-131.499c0-3.272 2.651-5.923 5.923-5.923h202.184c3.271 0 5.923 2.651 5.923 5.923v131.499c0 3.271-2.651 5.923-5.923 5.923zm-3.554-137.422v131.499c.004 1.96 1.593 3.55 3.554 3.553l202.184.002c1.959-.005 3.55-1.595 3.554-3.555v-131.499c-.004-1.963-1.595-3.552-3.554-3.555h-202.184c-1.961.003-3.55 1.592-3.554 3.555z"/><path d="m176.584 268.584c-3.273 0-5.924-2.65-5.924-5.921v-209.689c0-3.271 2.65-5.921 5.924-5.923h260.627c3.272.002 5.923 2.653 5.923 5.923v209.689c0 3.271-2.65 5.921-5.923 5.923zm-3.556-215.61v209.689c.006 1.961 1.594 3.549 3.556 3.552h260.627c1.96-.003 3.549-1.591 3.554-3.552v-209.689c-.005-1.961-1.594-3.55-3.554-3.553h-260.627c-1.962.003-3.55 1.592-3.556 3.553z"/><path d="m83.751 316.07c-1.31 0-2.37-1.059-2.37-2.368v-279.977c0-1.309 1.061-2.37 2.37-2.37h445.832c1.308 0 2.368 1.058 2.37 2.37v279.978h-.002c0 1.31-1.061 2.368-2.368 2.371zm0-282.345v279.978h445.83l.002-279.978-445.832-.003z"/><path d="m73.287 330.879c-3.927 0-7.108-3.182-7.108-7.108l-.003-300.116c.002-3.926 3.184-7.108 7.11-7.108h466.76c3.928 0 7.108 3.182 7.108 7.108v300.115c0 3.927-3.181 7.108-7.108 7.108h-466.759zm-4.739-307.224v300.115c.005 2.616 2.121 4.734 4.739 4.74h466.76c2.618-.006 4.733-2.122 4.739-4.74l-.002-300.115c-.004-2.617-2.119-4.734-4.737-4.739h-466.76c-2.618.005-4.734 2.122-4.739 4.739z"/><path d="m108.924 105.89c-3.924 0-7.106-3.181-7.106-7.107v-36.726c0-3.927 3.183-7.107 7.106-7.107h44.623c3.927 0 7.108 3.18 7.108 7.107v36.726c0 3.926-3.182 7.107-7.108 7.107zm-4.739-43.833v36.726c.005 2.615 2.125 4.733 4.739 4.739h44.623c2.617-.005 4.734-2.124 4.738-4.739h.002l-.002-36.726c-.004-2.615-2.121-4.734-4.738-4.739h-44.623c-2.614.005-4.734 2.124-4.739 4.739z"/></g></svg>