<svg height="350.26" viewBox="0 0 598.189 350.26" width="598.189" xmlns="http://www.w3.org/2000/svg"><g fill="#f4f4f4"><path d="m237.668 208.918c-1.735 0-3.158 1.424-3.158 3.158v11.21c0 .039.002-.002 0 .021h-11.23c-1.735 0-3.158 1.423-3.158 3.158v12.066c0 1.735 1.423 3.158 3.158 3.158h11.23c.004.031 0-.012 0 .042v11.189c0 1.735 1.423 3.158 3.158 3.158h12.066c1.734 0 3.159-1.423 3.159-3.158v-11.189c0-.076-.005-.016 0-.042h11.229c1.736 0 3.159-1.423 3.159-3.158v-12.066c0-1.735-1.423-3.158-3.159-3.158h-11.209c-.032 0 0 .003-.021 0v-11.23c0-1.734-1.424-3.158-3.158-3.158h-12.066zm0 1.339h12.066c1.011 0 1.82.809 1.82 1.819v11.272c0 .391.163.813.48 1.046.318.231.634.251.879.251h11.209c1.013 0 1.82.808 1.82 1.819v12.067c0 1.012-.808 1.819-1.82 1.819h-11.229c-.354-.001-.774.074-1.046.397s-.293.679-.293.983v11.188c0 1.013-.809 1.819-1.82 1.819h-12.066c-1.011 0-1.82-.807-1.82-1.819v-11.188c0-.252.029-.558-.209-.9-.236-.341-.678-.481-1.065-.481h-11.294c-1.012 0-1.819-.808-1.819-1.819v-12.067c0-1.012.807-1.819 1.819-1.819h11.293c.297 0 .656-.06.941-.355s.335-.663.335-1.004v-11.209c.001-1.012.809-1.82 1.819-1.819z"/><path d="m239.09 210.344c-1.735 0-3.158 1.423-3.158 3.158v11.209c0 .038.002-.001 0 .021h-11.23c-1.734 0-3.158 1.424-3.158 3.158v9.223c0 1.734 1.424 3.158 3.158 3.158h11.23c.004.031 0-.012 0 .042v11.188c0 1.734 1.423 3.158 3.158 3.158h9.243c1.734 0 3.137-1.424 3.137-3.158v-11.188c0-.077-.004-.018 0-.042h11.23c1.735 0 3.159-1.424 3.159-3.158v-9.223c0-1.735-1.424-3.158-3.159-3.158h-11.209c-.033 0-.001.003-.021 0v-11.23c0-1.735-1.402-3.158-3.137-3.158zm0 1.338h9.243c1.011 0 1.799.808 1.799 1.82v11.272c0 .39.162.813.48 1.045.319.232.636.252.879.252h11.209c1.012 0 1.82.808 1.82 1.819v9.223c0 1.011-.809 1.819-1.82 1.819h-11.229c-.354 0-.774.074-1.045.397s-.294.678-.294.983v11.188c0 1.011-.788 1.819-1.799 1.819h-9.243c-1.011 0-1.82-.809-1.82-1.819v-11.188c0-.252.029-.558-.209-.899-.238-.342-.7-.481-1.087-.481h-11.272c-1.012 0-1.819-.808-1.819-1.819v-9.223c0-1.012.808-1.819 1.819-1.819h11.272c.297 0 .676-.06.962-.355.285-.297.334-.663.334-1.005v-11.209c0-1.013.809-1.82 1.82-1.82z"/><path d="m280.331 269.858c-.468.021-.933.122-1.381.335l-15.309 7.302c-1.787.852-2.547 3.021-1.694 4.811.853 1.785 3.002 2.545 4.789 1.693l15.309-7.299c1.786-.852 2.566-3.001 1.716-4.789-.64-1.34-2.029-2.11-3.431-2.05zm.063 1.339c.88-.041 1.749.426 2.154 1.275.54 1.135.067 2.472-1.066 3.013l-15.309 7.298c-1.135.541-2.471.067-3.013-1.066-.541-1.135-.067-2.47 1.067-3.011l15.309-7.3c.283-.135.565-.195.858-.209z"/><path d="m280.23 267.416c-.823.017-1.649.188-2.447.544l-15.037 6.713c-3.188 1.425-4.624 5.177-3.2 8.364 1.425 3.188 5.198 4.626 8.387 3.2l15.016-6.712c3.188-1.426 4.625-5.178 3.2-8.366-1.069-2.391-3.45-3.791-5.919-3.743zm.041 1.339c1.948-.041 3.818 1.054 4.664 2.949 1.13 2.527-.002 5.479-2.53 6.608l-15.019 6.705c-2.529 1.13-5.479-.004-6.608-2.53-1.129-2.528.003-5.479 2.53-6.608l15.016-6.713c.633-.282 1.297-.405 1.945-.419z"/><path d="m312.12 269.858c-.468.021-.934.122-1.38.335l-15.31 7.299c-1.786.853-2.546 3.022-1.693 4.811.852 1.785 3.002 2.545 4.788 1.694l15.31-7.299c1.787-.854 2.545-3.003 1.694-4.79-.639-1.34-2.008-2.109-3.409-2.05zm.063 1.339c.88-.041 1.749.426 2.154 1.275.54 1.134.067 2.472-1.066 3.013l-15.31 7.298c-1.134.541-2.471.067-3.011-1.066-.542-1.135-.068-2.47 1.066-3.011l15.309-7.3c.283-.135.565-.195.858-.209z"/><path d="m312.02 267.416c-.823.017-1.649.188-2.447.544l-15.038 6.713c-3.188 1.425-4.623 5.177-3.199 8.364 1.425 3.188 5.178 4.626 8.366 3.2l15.036-6.712c3.188-1.426 4.624-5.178 3.2-8.366-1.069-2.391-3.45-3.791-5.918-3.743zm.021 1.339c1.947-.041 3.816 1.054 4.663 2.949 1.13 2.527.018 5.479-2.511 6.608l-15.037 6.705c-2.526 1.13-5.458-.004-6.587-2.53-1.13-2.528-.02-5.479 2.51-6.608l15.036-6.713c.633-.282 1.275-.405 1.925-.419z"/><path d="m321.911 295.959c-.362.036-.729.149-1.067.335-1.349.738-1.849 2.457-1.107 3.806l12.695 23.11c.739 1.349 2.436 1.848 3.785 1.107 1.349-.739 1.849-2.437 1.107-3.785l-12.682-23.129c-.554-1.013-1.653-1.551-2.74-1.442zm.691 1.381c.356.104.683.354.877.711l12.676 23.115c.393.715.148 1.596-.564 1.987-.715.393-1.595.149-1.986-.565l-12.674-23.13c-.393-.713-.15-1.596.564-1.986.356-.196.751-.229 1.107-.126z"/><path d="m331.025 290.967c-.361.036-.729.149-1.066.335-1.35.738-1.85 2.457-1.108 3.806l12.674 23.109c.74 1.35 2.458 1.87 3.807 1.13 1.35-.739 1.849-2.457 1.108-3.806l-12.674-23.131c-.555-1.012-1.655-1.552-2.741-1.443zm.692 1.38c.356.104.682.354.877.711l12.674 23.131c.393.714.129 1.575-.585 1.967-.715.392-1.596.149-1.987-.565l-12.673-23.131c-.393-.713-.129-1.596.585-1.986.357-.198.75-.232 1.109-.127z"/><path d="m340.127 285.987c-.361.036-.729.129-1.066.314-1.349.738-1.849 2.456-1.108 3.806l12.694 23.131c.737 1.343 2.439 1.835 3.785 1.107.01-.004.013-.016.021-.021 1.33-.747 1.845-2.444 1.108-3.785l-12.694-23.131c-.554-1.01-1.653-1.529-2.74-1.421zm.69 1.36c.358.104.683.354.879.711l12.674 23.131c.393.715.15 1.596-.565 1.986-.713.393-1.596.128-1.986-.585l-12.674-23.131c-.393-.714-.149-1.596.564-1.986.358-.198.752-.23 1.108-.126z"/><path d="m349.242 280.988c-.361.036-.729.129-1.066.313-1.349.74-1.849 2.459-1.108 3.807l12.674 23.131c.739 1.348 2.458 1.849 3.807 1.108 1.351-.739 1.849-2.457 1.109-3.807l-12.683-23.115c-.556-1.013-1.654-1.552-2.74-1.443zm.691 1.381c.357.104.683.333.879.689l12.674 23.131c.393.715.129 1.595-.585 1.986-.715.392-1.596.129-1.987-.586l-12.669-23.128c-.392-.714-.128-1.574.585-1.966.358-.196.751-.23 1.109-.126z"/><path d="m358.338 275.989c-.356.035-.715.155-1.046.335-.006.003-.016-.004-.021 0v.021c-1.329.746-1.844 2.424-1.108 3.765l12.695 23.13c.739 1.35 2.457 1.849 3.807 1.108 1.348-.74 1.848-2.457 1.108-3.807l-12.696-23.108c-.556-1.012-1.655-1.552-2.739-1.444zm.711 1.38c.357.104.661.333.857.69l12.674 23.131c.393.715.15 1.594-.564 1.987-.715.391-1.596.128-1.987-.586l-12.675-23.103c-.393-.715-.15-1.596.564-1.987.356-.195.771-.229 1.129-.125z"/><path d="m367.459 270.99c-.361.036-.729.149-1.066.334-1.349.74-1.85 2.458-1.108 3.807l12.675 23.109c.738 1.349 2.456 1.849 3.806 1.108 1.349-.738 1.85-2.457 1.108-3.807l-12.683-23.107c-.554-1.014-1.653-1.552-2.739-1.443zm.689 1.38c.359.104.684.354.879.712l12.676 23.115c.393.714.129 1.595-.585 1.987-.716.392-1.597.129-1.987-.586l-12.669-23.109c-.393-.713-.129-1.595.585-1.986.358-.197.751-.23 1.109-.126z"/><path d="m291.227 324.047c-.232 0-.479.077-.69.251-.213.175-.355.471-.355.753v4.058c0 .263-.042.478.063.795.053.159.186.354.377.48.19.127.398.168.564.168h1.213c.183 0 .439-.073.606-.23.167-.156.217-.344.251-.481.069-.274.063-.477.063-.731v-4.058c0-.183-.033-.441-.229-.669-.198-.228-.513-.335-.773-.335h-1.09zm.293 1.339h.46v3.723c-.001.065.002.052 0 .104h-.46c-.004-.056 0-.031 0-.104z"/><path d="m295.349 324.047c-.572 0-1.024.439-1.024 1.004v4.058c0 .295-.009.516.083.795.046.139.127.304.293.438.167.137.398.21.565.21h1.337c.214 0 .473-.13.607-.293.136-.164.183-.317.209-.439.052-.244.042-.449.042-.711v-4.058c0-.24-.087-.495-.272-.689-.184-.195-.452-.313-.711-.313zm.313 1.339h.46v3.723c0 .057.002.057 0 .104h-.46c-.003-.053 0-.035 0-.104z"/><path d="m207.656 41.776c-.438 0-.877.272-1.066.607-.189.333-.23.681-.23 1.004v279.863c0 4.022 3.276 7.299 7.299 7.299h74.225c.355 0 .702-.229.879-.503.175-.273.229-.587.229-.94v-4.058c0-.229-.073-.529-.293-.731s-.51-.271-.752-.271h-10.625c-1.91 0-3.451-1.521-3.451-3.431s1.541-3.45 3.451-3.45h21.269c1.911 0 3.451 1.541 3.451 3.45 0 1.617-1.101 2.947-2.593 3.326v.021c-.31.081-.506.325-.586.522s-.104.377-.104.564v4.058c.001.222-.023.427.063.732.044.151.129.354.314.502.184.146.419.209.606.209h49.439c23.18 0 41.975-18.816 41.975-41.996v-245.383c0-.325-.092-.643-.313-.92-.222-.278-.602-.481-1.004-.481h-182.181zm.084 1.339h182.053c.006.013.021.022.021.063v245.383c0 22.456-18.18 40.657-40.636 40.657h-49.085c-.002-.053.001-.04 0-.104v-3.995c1.901-.636 3.284-2.391 3.284-4.497 0-2.632-2.156-4.789-4.79-4.789h-21.269c-2.634 0-4.789 2.157-4.789 4.789 0 2.634 2.155 4.769 4.789 4.769h10.331v3.723c0 .087-.011.069-.021.104h-73.971c-3.301.007-5.962-2.657-5.962-5.956v-279.864c0-.153.028-.229.042-.272z"/><path d="m335.63 224.331c-6.817 0-12.359 5.542-12.359 12.359 0 6.818 5.542 12.36 12.359 12.36 6.818 0 12.36-5.542 12.36-12.36 0-6.817-5.542-12.359-12.36-12.359zm0 1.338c6.095 0 11.021 4.927 11.021 11.021s-4.927 11.022-11.021 11.022-11.021-4.927-11.021-11.022c-.001-6.094 4.926-11.021 11.021-11.021z"/><path d="m335.63 225.188c-6.344 0-11.503 5.158-11.503 11.503 0 6.344 5.158 11.503 11.503 11.503s11.503-5.159 11.503-11.503-5.158-11.503-11.503-11.503zm0 1.337c5.621 0 10.164 4.544 10.164 10.165 0 5.62-4.542 10.164-10.164 10.164-5.62 0-10.164-4.543-10.164-10.164s4.543-10.165 10.164-10.165z"/><path d="m366.121 210.363c-6.818 0-12.36 5.542-12.36 12.36 0 6.819 5.542 12.36 12.36 12.36s12.36-5.541 12.36-12.36c0-6.818-5.542-12.36-12.36-12.36zm0 1.338c6.095 0 11.021 4.928 11.021 11.022s-4.927 11.021-11.021 11.021-11.022-4.927-11.022-11.021c0-6.093 4.927-11.022 11.022-11.022z"/><path d="m366.121 211.22c-6.345 0-11.504 5.159-11.504 11.504 0 6.344 5.159 11.502 11.504 11.502 6.344 0 11.502-5.157 11.502-11.502s-5.158-11.504-11.502-11.504zm0 1.339c5.62 0 10.164 4.544 10.164 10.165 0 5.62-4.544 10.164-10.164 10.164-5.621 0-10.165-4.544-10.165-10.164 0-5.621 4.544-10.165 10.165-10.165z"/><path d="m226.939 50.288c-3.892 0-7.048 3.177-7.048 7.069v104.883c0 3.893 3.156 7.068 7.048 7.068h126.151c5.978 0 11.936-3.028 16.418-7.549 4.484-4.518 7.509-10.561 7.509-16.685v-87.717c0-3.893-3.179-7.068-7.066-7.068zm0 1.338h143.01c3.169 0 5.73 2.562 5.73 5.73v87.71c0 5.682-2.857 11.436-7.132 15.748-4.274 4.312-9.935 7.153-15.455 7.153h-126.151c-3.169 0-5.709-2.561-5.709-5.73v-104.882c0-3.169 2.541-5.731 5.709-5.731z"/><path d="m250.509 63.799c-.95 0-1.735.786-1.735 1.736v88.066c0 .95.785 1.735 1.735 1.735h96.832c.95 0 1.736-.786 1.736-1.735v-88.066c0-.95-.786-1.736-1.736-1.736zm0 1.338h96.832c.227 0 .397.171.397.397v88.066c0 .227-.171.398-.397.398h-96.832c-.227 0-.397-.171-.397-.398v-88.065c-.001-.227.17-.398.397-.398z"/><path d="m232.754 91.74c-1.866 0-3.388 1.522-3.388 3.388s1.522 3.388 3.388 3.388c1.865 0 3.388-1.522 3.388-3.388s-1.523-3.388-3.388-3.388z"/><path d="m234.175 25.024c-.221 0-.472.111-.607.251-.134.14-.192.281-.23.397-.074.233-.083.431-.083.606v2.991c0 .24.087.495.272.69s.474.293.732.293h1.109c.572 0 1.045-.417 1.045-.983v-2.991c0-.218-.001-.456-.146-.732-.146-.276-.549-.523-.879-.523h-1.213zm.418 1.339h.481v2.551h-.481z"/><path d="m238.253 25.024c-.206 0-.454.125-.585.272s-.182.266-.209.376c-.057.221-.063.411-.063.606v2.991c0 .181.054.42.251.648s.512.335.774.335h1.088c.231 0 .477-.057.689-.23s.355-.469.355-.752v-2.991c0-.182-.013-.41-.125-.669-.112-.26-.484-.586-.878-.586zm.481 1.339h.48v2.551h-.48z"/><path d="m223.927 25.024c-.446 0-.845.246-1.066.523-.22.277-.312.569-.313.899v12.966c0 .607.501 1.108 1.108 1.108h150.096c.44 0 .699-.34.816-.606s.167-.542.167-.899v-12.485c0-.437-.125-.866-.418-1.15-.287-.284-.661-.355-.956-.355h-130.542c-.288 0-.703.136-.9.439-.196.304-.187.575-.187.816v2.991c0 .228.093.508.313.711s.489.271.731.271h16.313c1.91 0 3.451 1.541 3.451 3.451 0 1.911-1.541 3.451-3.451 3.451h-26.958c-1.91 0-3.45-1.54-3.45-3.451 0-1.617 1.123-2.97 2.614-3.346.307-.083.505-.326.584-.522.08-.197.084-.377.084-.565v-2.991c0-.282-.067-.571-.251-.816-.185-.244-.517-.439-.879-.439h-6.901-.005zm149.469 1.318c-.034-.032 0-.026 0 .188v12.485c0 .104-.011.105-.021.167h-149.495v-12.735c0 .019.002-.061.021-.084s0 0 .021 0h6.692v2.844c-1.893.639-3.284 2.396-3.284 4.497 0 2.634 2.156 4.79 4.79 4.79h26.958c2.634 0 4.79-2.155 4.79-4.79 0-2.634-2.156-4.79-4.79-4.79h-16.02v-2.551h130.294c.089 0 .075.012.041-.021z"/><path d="m214.579 25.024c-4.53 0-8.219 3.689-8.219 8.219v6.127c0 .282.12.653.397.878.278.226.602.272.92.272h12.297c.606 0 1.108-.501 1.108-1.108v-12.965c0-.346-.104-.654-.313-.92s-.568-.502-.984-.502h-5.206zm0 1.339h5.124c.013.024.042.058.042.084v12.736h-12.046v-5.939c-.001-3.807 3.074-6.881 6.88-6.881z"/><path d="m377.726 25.024c-.415 0-.753.235-.962.502s-.335.574-.335.92v12.966c0 .607.522 1.108 1.13 1.108h12.297c.318 0 .642-.046.92-.272.278-.225.377-.596.377-.878v-6.127c0-4.53-3.667-8.22-8.191-8.22h-5.229zm.083 1.339h5.146c3.807 0 6.859 3.074 6.859 6.881v5.939h-12.046v-12.736c0-.026.029-.06.041-.084z"/><path d="m206.736 39.811v2.614h1.338v-2.614z"/><path d="m220.393 26.049v1.339h2.845v-1.339z"/><path d="m231.226 26.049v1.339h2.845v-1.339z"/><path d="m235.681 26.049v1.339h2.489v-1.339z"/><path d="m239.906 26.049v1.339h2.488v-1.339z"/><path d="m374.278 26.049v1.339h2.845v-1.339z"/><path d="m389.19 39.853v2.488h1.337v-2.488z"/><path d="m234.489 31.299-.502.271-3.158 1.736-.523.293.523.292 3.158 1.736.502.272v-.564-3.472z"/><path d="m256.992 31.299v.564 3.472.564l.48-.272 3.158-1.736.544-.293-.544-.292-3.158-1.736z"/><path d="m243.712 226.024c-3.565 0-6.483 2.896-6.483 6.462s2.918 6.483 6.483 6.483 6.463-2.918 6.463-6.483-2.898-6.462-6.463-6.462zm0 1.338c2.842 0 5.124 2.282 5.124 5.124 0 2.843-2.282 5.145-5.124 5.145s-5.145-2.302-5.145-5.145c0-2.841 2.303-5.124 5.145-5.124z"/></g></svg>