<svg height="350.26" viewBox="0 0 598.189 350.26" width="598.189" xmlns="http://www.w3.org/2000/svg"><g fill="#f4f4f4"><path d="m145.037 32.153c-3.655.311-9.813 1.512-20.59 4.579-10.644 3.027-26.682 5.284-41.103 7.417-7.21 1.066-14.01 2.094-19.574 3.213-5.565 1.119-9.834 2.25-12.21 3.749-8.917 5.621-10.239 16.402-10.791 20.27-.161 1.122.032 2.065.481 2.758.45.692 1.12 1.068 1.741 1.286.572.199 1.109.251 1.554.268.039.916.228 2.371 1.687 3.669l1.151-1.286c-1.305-1.156-1.21-3.186-1.21-3.186l.081-1.045-1.044.134s-.911.101-1.66-.16c-.376-.132-.664-.318-.858-.617-.193-.298-.333-.755-.214-1.579.56-3.921 1.847-13.934 9.987-19.065 1.888-1.191 6.12-2.401 11.62-3.508 5.502-1.106 12.317-2.148 19.521-3.213 14.409-2.131 30.426-4.354 41.29-7.444h.026c10.729-3.052 16.808-4.233 20.244-4.525 1.718-.146 2.771-.067 3.374.081.603.146.744.286.884.455l1.312-1.098c-.334-.388-.917-.801-1.8-1.018-.891-.217-2.081-.289-3.907-.134h.008z"/><path d="m45.691 83.27c-.906.206-1.845.201-2.838.375-.993.175-2.051.587-2.918 1.607-1.736 2.039-2.775 6.06-3.428 15.29-1.301 18.391-4.64 82.148-5.382 101.272-.369 9.486-1.952 23.285-.83 36.979s4.954 27.347 15.584 36.363c3.19 2.72 6.673 5.235 10.016 6.881 3.342 1.647 6.587 2.482 9.345 1.635l-.509-1.635c-2.063.635-4.939-.002-8.087-1.552-3.147-1.552-6.525-3.959-9.64-6.615-10.135-8.611-13.919-21.755-15.022-35.225s.483-27.18.857-36.791c.74-19.07 4.06-82.872 5.355-101.187.645-9.126 1.842-12.908 3.025-14.3.592-.696 1.143-.906 1.928-1.045.786-.138 1.786-.144 2.919-.401l-.375-1.661z"/><path d="m189.988 25.03c-11.778 0-19.029.76-28.009 3.535s-19.653 7.526-38.559 15.558c-37.736 16.034-50.787 14.877-61.822 16.253-5.971.745-9.905 2.969-12.451 8.007-2.544 5.036-3.87 12.744-5.355 24.875-2.969 24.241-7.913 69.997-8.408 105.659-.247 17.75-2.011 34.894.481 49.535 2.493 14.645 9.402 26.81 26.241 34.061 31.131 13.407 50.328 12.191 83.33 25.491 33.322 13.429 84.784 19.815 138.246 19.815h31.167.856c53.464 0 104.933-6.387 138.246-19.815 33.002-13.3 52.199-12.084 83.329-25.491 16.84-7.25 23.749-19.415 26.241-34.061 2.493-14.642.729-31.786.482-49.535-.494-35.667-5.44-81.421-8.407-105.659-1.487-12.131-2.812-19.839-5.355-24.875-2.546-5.051-6.479-7.276-12.452-8.021-11.035-1.375-24.084-.219-61.83-16.253-18.902-8.032-29.604-12.782-38.584-15.558-8.979-2.775-16.202-3.535-27.976-3.535h-90.751-37.941-90.724zm0 1.714h90.723 37.942 90.75c11.706 0 18.655.729 27.473 3.455 8.816 2.724 19.508 7.466 38.425 15.503 37.902 16.103 51.532 15.047 62.282 16.388 5.677.707 8.783 2.457 11.112 7.068 2.331 4.612 3.716 12.22 5.196 24.314 2.964 24.209 7.915 69.945 8.406 105.47.25 17.847 1.979 34.953-.454 49.242-2.433 14.29-8.861 25.729-25.225 32.775-30.857 13.29-50.055 12.039-83.303 25.439-32.751 13.197-83.731 19.637-136.746 19.706-.287 0-.568 0-.854 0h-32.026c-53.327 0-104.674-6.439-137.603-19.706-33.246-13.394-52.44-12.142-83.299-25.432-16.363-7.053-22.792-18.492-25.225-32.775-2.432-14.292-.703-31.396-.456-49.245.494-35.524 5.444-81.263 8.409-105.478 1.482-12.094 2.838-19.702 5.167-24.314 2.331-4.611 5.463-6.361 11.14-7.068 10.751-1.341 24.381-.286 62.285-16.388 18.911-8.036 29.579-12.779 38.396-15.504s15.792-3.454 27.497-3.454z"/><path d="m454.361 32.153c-1.826-.155-3.021-.083-3.908.134s-1.473.629-1.794 1.018l1.303 1.098c.14-.168.28-.308.883-.455.603-.148 1.654-.227 3.375-.081 3.436.292 9.514 1.474 20.243 4.525l.24.054c10.86 3.06 26.763 5.274 41.076 7.39 7.205 1.066 13.992 2.107 19.494 3.213 5.5 1.106 9.759 2.318 11.646 3.508 8.141 5.132 9.429 15.145 9.988 19.065.117.825-.021 1.28-.214 1.58-.194.299-.482.485-.856.616-.75.262-1.661.16-1.661.16l-1.071-.134.107 1.044s.096 2.031-1.205 3.187l1.125 1.286c1.459-1.298 1.676-2.752 1.713-3.669.445-.016.981-.067 1.554-.268.621-.217 1.291-.594 1.74-1.286s.643-1.635.481-2.758c-.551-3.867-1.874-14.649-10.791-20.269-2.376-1.499-6.646-2.63-12.211-3.749-5.552-1.121-12.346-2.149-19.553-3.215-14.42-2.133-30.46-4.389-41.104-7.417-10.778-3.067-16.939-4.269-20.59-4.579z"/><path d="m553.697 83.27-.374 1.661c1.133.257 2.105.263 2.892.401s1.362.349 1.955 1.044c1.179 1.386 2.352 5.17 2.998 14.218v.08c1.296 18.319 4.643 82.119 5.383 101.187.372 9.61 1.933 23.324.83 36.792-1.104 13.468-4.86 26.615-14.996 35.211-3.113 2.657-6.492 5.064-9.639 6.613-3.147 1.553-6.024 2.189-8.087 1.554l-.497 1.636c2.759.851 6.003.016 9.345-1.633 3.343-1.646 6.825-4.16 10.016-6.88 10.63-9.017 14.464-22.671 15.584-36.364 1.121-13.694-.463-27.492-.83-36.979-.742-19.121-4.082-82.878-5.382-101.272-.653-9.229-1.692-13.25-3.427-15.29-.869-1.019-1.953-1.432-2.946-1.606s-1.904-.169-2.811-.375z"/><path d="m291.261 58.395c-63.826 0-97.306 5.218-110.964 6.694-7.051.763-11.483 3.747-14.191 8.73-2.709 4.982-3.81 11.825-4.74 20.564-1.87 17.573-9.105 127.885-5.543 160.394.492 4.481.939 10.866 5.383 17.004 4.444 6.14 12.82 11.936 28.893 15.612 31.975 7.311 74.084 11.782 91.658 11.782h35.881c17.572 0 59.682-4.472 91.658-11.782 16.073-3.677 24.448-9.473 28.892-15.612 4.444-6.138 4.892-12.521 5.382-17.004 3.563-32.509-3.699-142.82-5.568-160.394-.93-8.739-2.032-15.583-4.74-20.564-2.708-4.983-7.14-7.967-14.19-8.73-13.655-1.476-47.138-6.694-110.964-6.694h-16.843zm0 1.713h16.841c63.733 0 96.988 5.177 110.775 6.668 6.668.721 10.397 3.307 12.879 7.872 2.483 4.565 3.629 11.233 4.552 19.921 1.838 17.284 9.031 128.187 5.544 160.019-.498 4.541-.915 10.447-5.061 16.174-4.147 5.728-12.085 11.351-27.901 14.968-31.803 7.273-73.974 11.729-91.255 11.729h-35.882c-17.282 0-59.48-4.454-91.28-11.729-15.817-3.617-23.756-9.24-27.901-14.968-4.147-5.727-4.563-11.633-5.061-16.174-3.488-31.833 3.73-142.735 5.569-160.019.925-8.688 2.043-15.356 4.525-19.921 2.483-4.565 6.212-7.151 12.88-7.872 13.785-1.491 47.044-6.668 110.776-6.668z"/><path d="m181.291 83.136c-1.487 0-2.705 1.218-2.705 2.705v155.494c0 1.485 1.218 2.704 2.705 2.704h236.819c1.486 0 2.704-1.219 2.704-2.704v-.857-154.638c0-1.486-1.218-2.705-2.704-2.705h-236.819zm0 1.713h236.819c.561 0 .991.43.991.991v155.494c0 .562-.431.99-.991.99h-236.819c-.561 0-.991-.429-.991-.99v-155.494c0-.561.43-.991.991-.991z"/><path d="m129.542 228.164c0-5.183 4.201-9.384 9.386-9.384v.857.855c-4.238.009-7.665 3.438-7.673 7.671.008 4.236 3.435 7.665 7.673 7.671 4.236-.006 7.663-3.435 7.671-7.671-.008-4.233-3.435-7.662-7.671-7.671v-.855-.857c5.183 0 9.384 4.201 9.384 9.384 0 5.183-4.201 9.384-9.384 9.386-5.184-.002-9.386-4.203-9.386-9.386z"/><path d="m96.121 226.993c-4.25-1.081-7.08-4.896-7.08-9.089 0-.765.093-1.542.29-2.314 1.079-4.25 4.895-7.082 9.091-7.082.762 0 1.539.092 2.313.292l40.496 10.271-.422 1.659-40.498-10.271c-.634-.163-1.266-.238-1.889-.238-3.424 0-6.55 2.314-7.43 5.794-.162.63-.238 1.264-.238 1.89 0 3.422 2.313 6.549 5.79 7.428l40.494 10.271h.002l-.422 1.662z"/><path d="m129.542 257.58c.002-5.183 4.201-9.384 9.386-9.386v.858.856c-4.236.008-7.665 3.437-7.671 7.671.006 4.236 3.435 7.662 7.671 7.671 4.237-.009 7.665-3.435 7.671-7.671-.006-4.234-3.434-7.663-7.671-7.671v-.856-.858c5.185.002 9.384 4.203 9.384 9.386 0 5.183-4.202 9.384-9.384 9.386-5.183-.002-9.385-4.203-9.386-9.386z"/><path d="m96.123 256.409c-4.251-1.077-7.083-4.896-7.083-9.091 0-.765.094-1.542.291-2.313 1.079-4.249 4.894-7.082 9.089-7.082.765 0 1.542.093 2.315.293l40.497 10.271-.422 1.661-40.499-10.271c-.634-.164-1.266-.238-1.892-.238-3.422 0-6.548 2.313-7.428 5.791-.162.63-.237 1.264-.237 1.89 0 3.426 2.313 6.551 5.789 7.43l40.495 10.271v.002l-.422 1.658z"/><path d="m514.796 204.944c-.441-.072-.905-.085-1.365.027l-55.722 13.576c-1.845.447-2.966 2.334-2.518 4.176.448 1.844 2.307 2.994 4.151 2.544l55.722-13.574c1.842-.448 2.991-2.336 2.543-4.179-.335-1.381-1.482-2.35-2.811-2.57zm-.936 1.714c.941-.229 1.859.316 2.088 1.259.229.942-.344 1.887-1.286 2.115l-55.722 13.549c-.943.229-1.86-.315-2.089-1.258s.343-1.887 1.286-2.115z"/><path d="m514.796 215.92c-.441-.071-.905-.058-1.365.055l-55.722 13.576c-1.844.449-2.966 2.335-2.518 4.178.448 1.842 2.308 2.965 4.151 2.518l55.722-13.55c1.842-.448 2.991-2.333 2.543-4.178-.335-1.381-1.482-2.378-2.812-2.597v-.002zm-.936 1.716c.941-.23 1.859.343 2.088 1.283.229.945-.344 1.887-1.286 2.117l-55.722 13.547c-.944.23-1.858-.313-2.089-1.257-.229-.944.343-1.887 1.286-2.116z"/><path d="m514.796 226.923c-.441-.072-.905-.058-1.365.055l-55.722 13.574c-1.844.448-2.966 2.309-2.518 4.151.448 1.844 2.308 2.993 4.151 2.544l55.722-13.548c1.842-.448 2.991-2.335 2.543-4.178-.335-1.382-1.482-2.377-2.811-2.598zm-.936 1.714c.941-.23 1.859.343 2.088 1.286.229.942-.344 1.859-1.286 2.089l-55.722 13.575c-.944.229-1.858-.342-2.089-1.285-.229-.941.343-1.859 1.286-2.088l55.713-13.574z"/><path d="m514.796 237.934c-.441-.073-.905-.058-1.365.053l-55.729 13.582c-1.844.448-2.965 2.308-2.517 4.15s2.307 2.994 4.149 2.545l55.723-13.577c1.843-.448 2.993-2.308 2.544-4.15-.337-1.382-1.485-2.377-2.812-2.598zm-.936 1.713c.941-.229 1.859.342 2.088 1.284.229.943-.344 1.859-1.286 2.09l-55.729 13.572c-.943.23-1.859-.342-2.089-1.286-.229-.942.343-1.859 1.284-2.089l55.722-13.574z"/><path d="m514.796 248.936c-.441-.073-.905-.059-1.365.054l-55.722 13.549c-1.844.448-2.966 2.333-2.518 4.178.448 1.842 2.308 2.992 4.151 2.543l55.722-13.575c1.842-.45 2.991-2.309 2.543-4.151-.335-1.384-1.482-2.38-2.811-2.598zm-.936 1.713c.941-.23 1.859.344 2.088 1.285.229.943-.344 1.859-1.286 2.089l-55.722 13.577c-.944.229-1.86-.344-2.089-1.286s.343-1.858 1.286-2.088l55.713-13.572z"/><path d="m475.356 143.302c-10.089 0-18.262 8.202-18.262 18.29 0 10.086 8.173 18.288 18.262 18.288 10.087 0 18.287-8.201 18.287-18.288.001-10.088-8.2-18.29-18.287-18.29zm0 1.715c9.161 0 16.574 7.412 16.574 16.575 0 9.16-7.413 16.575-16.574 16.575-9.163 0-16.548-7.414-16.548-16.575.001-9.162 7.385-16.575 16.548-16.575z"/><path d="m524.915 126.568c-10.086 0-18.261 8.201-18.261 18.288 0 10.089 8.175 18.291 18.261 18.291 10.089 0 18.29-8.202 18.29-18.291 0-10.087-8.2-18.288-18.29-18.288zm0 1.714c9.163 0 16.576 7.414 16.576 16.574 0 9.164-7.413 16.575-16.576 16.575-9.16 0-16.547-7.412-16.547-16.575 0-9.161 7.387-16.574 16.547-16.574z"/><path d="m475.888 73.496c-3.263 0-5.918 2.656-5.918 5.917 0 3.262 2.655 5.917 5.918 5.917 3.26 0 5.917-2.656 5.917-5.917s-2.658-5.917-5.917-5.917zm0 1.713c2.334 0 4.202 1.869 4.202 4.204s-1.868 4.204-4.202 4.204c-2.337 0-4.205-1.868-4.205-4.204s1.868-4.204 4.205-4.204z"/><path d="m90.034 116.525c-2.102 0-3.802 1.729-3.802 3.83v17.967c0 .493-.109.538-.107.536.001-.002-.094.054-.375.054h-18.075c-2.102 0-3.829 1.726-3.829 3.829v21.501c0 2.101 1.728 3.829 3.829 3.829h17.994c.262 0 .36.063.428.134.069.071.134.191.134.429v17.968c0 2.102 1.701 3.829 3.802 3.829h21.529c2.101 0 3.802-1.728 3.802-3.829v-17.914c0-.453.112-.567.107-.562-.004.004.077-.055.482-.054h17.968c2.102 0 3.829-1.728 3.829-3.828v-21.503c0-2.102-1.728-3.829-3.829-3.829h-17.94c-.342 0-.438-.088-.483-.134-.043-.045-.133-.134-.133-.455v-17.967c0-2.101-1.702-3.829-3.802-3.829zm0 1.714h21.529c1.175 0 2.088.941 2.088 2.117v17.967c0 .606.181 1.21.617 1.66.435.449 1.067.642 1.713.642h17.941c1.175 0 2.115.94 2.115 2.116v21.501c0 1.175-.939 2.116-2.115 2.116h-17.967c-.614 0-1.253.094-1.714.562s-.59 1.108-.59 1.768v17.914c0 1.175-.913 2.115-2.088 2.115h-21.529c-1.175 0-2.088-.94-2.088-2.115v-17.968c0-.597-.199-1.203-.616-1.634s-1.026-.641-1.66-.641h-17.995c-1.175 0-2.115-.941-2.115-2.116v-21.503c0-1.175.939-2.116 2.115-2.116h18.075c.431 0 .985-.043 1.472-.455.489-.411.724-1.075.724-1.847v-17.968c0-1.174.913-2.115 2.088-2.115z"/><path d="m94.371 118.754c-3.125 0-5.677 2.552-5.677 5.677v16.601c0 .316-.074.371-.053.348.02-.022.07 0-.107 0h-16.789c-3.125 0-5.676 2.551-5.676 5.678v12.852c0 3.124 2.551 5.676 5.676 5.676h16.655c.038 0 .11.033.16.081s.134.13.134.455v16.414c0 3.126 2.551 5.678 5.677 5.678h12.853c3.125 0 5.678-2.552 5.678-5.678v-16.656c0-.299.023-.259 0-.241-.024.018.109-.054.455-.054h16.495c3.125 0 5.676-2.551 5.676-5.677v-12.852c0-3.126-2.55-5.678-5.676-5.678h-16.547c-.276 0-.29-.039-.321-.081-.033-.04-.08-.182-.08-.401l-.004-16.487c0-3.125-2.551-5.677-5.676-5.677h-12.856zm0 1.714h12.853c2.2 0 3.963 1.764 3.963 3.963v16.467c0 .476.095 1.018.455 1.473.36.456.994.724 1.66.724h16.548c2.199 0 3.963 1.763 3.963 3.963v12.852c0 2.198-1.765 3.962-3.963 3.962h-16.494c-.505 0-1.029.042-1.5.402-.47.361-.669 1.009-.669 1.606v16.655c0 2.198-1.764 3.964-3.963 3.964h-12.853c-2.198 0-3.963-1.766-3.963-3.964v-16.414c0-.695-.24-1.3-.643-1.686-.403-.388-.91-.563-1.365-.563h-16.656c-2.199 0-3.963-1.764-3.963-3.962v-12.853c0-2.2 1.764-3.963 3.963-3.963h16.79c.472 0 1.019-.152 1.392-.562.374-.411.482-.936.482-1.5v-16.602c-.001-2.197 1.765-3.962 3.963-3.962z"/><path d="m100.798 145.205c-4.559 0-8.274 3.716-8.274 8.274s3.716 8.273 8.274 8.273c4.559 0 8.274-3.715 8.274-8.273s-3.715-8.274-8.274-8.274zm0 1.714c3.633 0 6.561 2.926 6.561 6.56 0 3.632-2.928 6.56-6.561 6.56s-6.561-2.928-6.561-6.56c0-3.634 2.928-6.56 6.561-6.56z"/><path d="m95.909 140.716c-1.406-.002-2.549-1.138-2.549-2.549 0-.589.202-1.136.538-1.565l4.605-8.3c.41-.854 1.284-1.443 2.295-1.443 1.001 0 1.869.575 2.266 1.377l4.981 8.917v.04c.125.3.194.631.194.974-.002 1.409-1.142 2.549-2.549 2.549zm4.115-11.628-4.7 8.476-.053.065c-.123.149-.196.332-.196.538 0 .461.375.833.835.835h9.781c.461-.002.833-.375.835-.835 0-.141-.037-.272-.096-.385l-.048-.092-4.834-8.656c-.137-.274-.422-.464-.75-.464-.33.001-.616.195-.774.518z"/><path d="m83.922 160.389-8.304-4.604c-.852-.409-1.441-1.287-1.441-2.296 0-1.001.577-1.868 1.379-2.266l10-5.586v.414c1.373.038 2.477 1.162 2.477 2.548v9.779c0 1.41-1.141 2.549-2.549 2.551-.587-.002-1.133-.205-1.562-.54zm-7.566-7.653c-.277.14-.468.423-.466.751-.002.334.193.618.515.775l8.481 4.7.062.053c.147.124.332.195.536.197.461-.002.835-.375.837-.837v-9.779c-.002-.46-.375-.833-.837-.835-.146.002-.272.035-.385.092z"/><path d="m98.535 178.726-4.98-8.916v-.036c-.125-.302-.195-.633-.193-.979 0-1.409 1.14-2.548 2.549-2.548h9.779c1.409 0 2.549 1.142 2.549 2.548 0 .588-.201 1.134-.535 1.563l-4.606 8.304c-.411.853-1.288 1.44-2.297 1.442-1.001.001-1.869-.575-2.266-1.378zm1.516-.799c.14.276.42.465.749.465.333 0 .617-.193.775-.516l4.7-8.479.054-.064c.123-.146.195-.331.195-.537 0-.46-.375-.835-.835-.835h-9.779c-.461 0-.835.375-.835.835 0 .142.033.272.095.389h-.001.001l.023.043zm-5.64-8.345.165-.086z"/><path d="m113.564 158.376v-9.781c0-1.41 1.141-2.549 2.549-2.549.592-.002 1.141.204 1.571.541l8.294 4.6c.856.411 1.443 1.287 1.443 2.296 0 1-.575 1.866-1.379 2.266l-8.579 4.786-.01.013-.154.082c-.355.189-.763.293-1.186.293-1.408 0-2.549-1.139-2.549-2.547zm1.713-9.78v9.781c0 .46.374.833.835.833.121 0 .229-.025.327-.067l8.801-4.908c.277-.14.468-.425.466-.751 0-.334-.191-.616-.515-.775l-8.476-4.7-.063-.051c-.15-.125-.336-.197-.54-.197-.459-.001-.835.375-.835.835z"/><path d="m475.356 140.655c-11.557 0-20.941 9.384-20.941 20.94 0 11.557 9.385 20.939 20.941 20.939 11.555 0 20.939-9.383 20.939-20.939.001-11.556-9.384-20.94-20.939-20.94zm0 1.714c10.629 0 19.226 8.595 19.226 19.226s-8.597 19.226-19.226 19.226c-10.631 0-19.227-8.595-19.227-19.226.001-10.63 8.596-19.226 19.227-19.226z"/><path d="m524.915 123.921c-11.555 0-20.939 9.383-20.939 20.939 0 11.557 9.385 20.94 20.939 20.94 11.557 0 20.941-9.383 20.941-20.94 0-11.556-9.384-20.939-20.941-20.939zm0 1.713c10.629 0 19.227 8.595 19.227 19.226 0 10.629-8.597 19.226-19.227 19.226-10.628 0-19.226-8.597-19.226-19.226 0-10.63 8.598-19.226 19.226-19.226z"/></g></svg>