<svg height="300" viewBox="0 0 400 300" width="400" xmlns="http://www.w3.org/2000/svg"><g transform="translate(0 -100)"><path d="m203.57327 145.74204h-6.94468-6.94468" fill-rule="evenodd"/><g fill="none" stroke="#fff" stroke-width=".808084"><path d="m277.12109 178.67795c-7.98308 1.51111-16.72978 7.61377-16.72978 11.67197 0 5.24851 4.88972 7.08771 9.81742 3.69375 3.93456-2.70951 7.27922-4.04204 10.24731-4.08163 7.42549-.0994 10.71844-7.29862 4.9479-10.81782-2.139-1.30426-3.46425-1.3786-8.28285-.46627"/><path d="m96.249147 185.91111c-13.371374 5.70831-11.558032 3.81336-17.362503 18.13907l-4.825073 11.90713 4.885679 11.45137c6.077604 14.24733 4.524466 12.71439 18.572206 18.33463l11.880454 4.75234 12.20612-5.20164 12.20692-5.20164 4.84932-11.6639c5.90225-14.19481 5.8877-11.66307.14384-25.20899-5.72205-13.49259-4.3079-12.1035-17.95968-17.63645-13.30915-5.39397-11.1257-5.42305-24.597283.32808"/><path d="m310.15557 193.54023c-3.48769 2.16406-3.76324 4.61256-1.05697 9.40773 1.7091 3.0287 2.04364 4.3685 2.37658 9.52246.55839 8.6457 4.87194 11.88369 9.57096 7.18387 7.01578-7.01497-2.99235-31.01347-10.89057-26.11406"/><path d="m105.80232 196.96086c-15.22835 2.80728-20.829184 20.93747-9.765699 31.60984 9.202469 8.87681 23.554049 6.17942 29.308419-5.50871 6.41861-13.03845-5.32366-28.72174-19.54272-26.10113"/><path d="m278.84957 201.36815c-11.7148 5.79882-11.85056 21.8102-.23515 27.64619 14.03077 7.05053 28.34276-10.30954 18.80655-22.81142-4.30466-5.64447-12.58268-7.79882-18.5714-4.83477"/><path d="m192.3611 205.08211c-5.95558 3.63153-5.95558 11.52733 0 15.15805 7.38024 4.50022 16.34593-4.46628 11.84652-11.84571-2.62386-4.30386-7.83115-5.76003-11.84652-3.31234" stroke-opacity=".992157"/><path d="m250.29025 226.9715c-8.37822 3.44891-9.18549 14.40895-1.39718 18.97301 11.26874 6.60367 21.27444-9.89741 10.73541-17.70351-1.7293-1.28081-7.42792-2.05576-9.33823-1.2695"/><path d="m231.7641 258.32599-8.74023 3.89335-3.82952 9.36732-3.82951 9.3665 2.09537 5.15397c1.15232 2.83395 3.00041 7.15073 4.10587 9.59116l2.01132 4.4388 8.91318 3.61052c10.78631 4.37012 9.15802 4.36366 19.25826.0776 10.19884-4.32649 9.17418-3.29376 13.41421-13.52572 4.34022-10.47439 4.33941-8.7758.008-18.92534-4.44204-10.40732-3.33093-9.31236-13.73825-13.53703-10.42914-4.23355-8.98671-4.26911-19.66797.48889"/><path d="m142.98875 260.59994c-.35959.67152-.65293 3.51274-.65293 6.31276v5.09254h-5.24608c-7.61055 0-7.6364.0315-7.48044 9.22833.15515 9.10711.13252 9.07963 7.48044 9.07963h5.24608v5.55559c0 7.18225-.14141 7.07074 8.92852 7.07074 9.12004 0 9.37944-.21334 9.37944-7.71641v-4.90992h5.2679c7.17742 0 7.35843-.22788 7.35843-9.26388 0-8.81377-.18991-9.04408-7.46752-9.04408h-5.15881v-4.90992c0-7.51761-.24485-7.7164-9.48368-7.7164-6.78629 0-7.58144.11879-8.17135 1.22102"/><path d="m235.92897 268.91432c-10.01943 4.96002-10.35479 18.13503-.61414 24.15688 10.89378 6.73538 24.77829-6.18831 18.91079-17.6017-3.58951-6.98266-11.62025-9.86024-18.29665-6.55518"/><path d="m112.66078 158.89946-1.11068-1.22835c-11.11601-10.60288-35.537942-.82748-38.416339 15.37784-.366871 2.06304.763465 3.0678-3.063624 6.64195"/><path d="m315.05265 172.69721c-.26963-.80648-.66135-.69839.8934-3.07093 3.57497-5.45619-12.35803-15.00694-33.74318-20.22555-12.43885-3.03597-20.14393-2.29011-21.73263 2.10425-.41858 1.15799-.95677 2.10507-1.19597 2.10507-.23918 0 1.20347.96778-2.04665.30111"/></g><path d="m192.92773 114.21289c-12.90846.0412-25.80718.95596-38.5882 2.76774-28.45319 3.77949-56.592025 10.20673-83.818797 19.28921-17.011318 6.53326-32.028284 19.44757-39.166904 36.44742-3.937965 8.95837-5.213674 18.71406-6.02013 28.38204-2.582318 21.66421-5.266506 43.35874-5.827224 65.19178-1.133558 27.49316-1.279537 55.19511 2.65682 82.48063 1.290249 7.35396 4.52045 14.83493 10.715625 19.37589 7.523177 5.97855 18.51031 7.67743 27.206109 3.27678 7.570927-3.49592 13.133768-10.96292 14.266565-19.2093 3.575413-15.0816 6.06893-30.45405 11.056439-45.16924 2.90034-8.90977 5.600887-17.97183 9.963095-26.29816.491808-1.25524.933276-1.38778 1.243246.0656 1.28927 2.91925 2.703777 5.79076 3.734856 8.80847 1.66849 4.16386 2.92347 8.53581 5.42052 12.31648 8.09567 13.65066 23.71087 23.02326 39.76978 22.11303 11.88713-.47991 23.93092-5.50133 31.6126-14.78528 3.79849-4.85498 7.41976-9.9916 9.44698-15.87276 2.80195-7.55435 3.14367-16.00838.78761-23.71941-2.94432-10.37992-9.61846-19.23834-17.27046-26.66249-3.79673-4.0916-7.96484-8.03117-10.57279-13.03488-.50462-.88987 1.4164-.68899 2.00371-1.07131 5.5757-1.16022 11.01166-2.92779 16.64089-3.85432 12.57822-2.27055 25.53002-2.57878 38.17632-.67413 8.11884.95143 16.31593 2.28618 23.92858 5.3679 1.08488.35166-.72498 1.52516-.91536 2.24098-5.63386 8.64367-14.40215 14.67113-20.01622 23.33177-6.58587 9.54851-10.11179 21.69399-7.50214 33.18074 2.8698 13.64085 12.55779 25.64102 25.31464 31.28776 12.1022 5.65114 26.78358 5.70386 38.72259-.4421 10.70567-5.29986 18.47513-15.30859 22.61411-26.35655 1.51335-4.15759 2.78774-8.40181 4.58902-12.45204 2.74527 3.43798 4.0802 7.74256 5.8325 11.72219 2.4764 5.84706 4.82037 11.74902 6.61804 17.84618 4.58309 14.8867 7.24534 30.34697 11.06704 45.38085 1.73439 5.89169 5.14699 11.72348 10.74219 14.70117 7.13544 4.39123 16.56255 5.71624 24.17023 1.70187 8.83195-4.46521 14.18197-13.82565 16.0233-23.30393 1.89263-9.09446 1.99729-18.4363 2.79524-27.67261 2.53725-40.67503-.62322-81.47341-5.92841-121.80682-1.00757-10.68731-2.67273-21.64952-8.07565-31.1001-6.70833-12.89085-18.34112-24.22495-32.08347-29.20631-15.66097-6.43763-31.86581-9.67798-48.18764-14.07936-14.33572-3.72126-28.9014-6.56126-43.6281-8.16843-14.80376-1.80304-29.72616-2.53022-44.63548-2.33611-1.62723-.0121-3.25443-.0102-4.88167-.00086zm2.84766 1.10742c33.04917-.0108 66.1378 4.0136 98.09726 12.47309 5.96944 1.87406 12.23093 3.0702 18.1436 5.16009-.32726.37449-1.86026.0435-2.66351.12387-9.13885.0171-18.33425 1.71753-26.64873 5.5421-13.76517 6.05224-25.48419 16.9945-31.50211 30.87817-4.9305 11.02174-6.26992 23.2688-6.41203 35.24879-.16152 6.85308.30655 13.96321-2.24057 20.47627-.40673 1.21658-.81209 2.4329-1.29149 3.62301-3.68859-1.22755-7.33081-2.62094-11.1845-3.26168-14.79317-3.24888-30.1888-4.92847-45.25204-2.62351-8.80707 1.33078-17.43054 3.60716-26.12986 5.47894-1.2167-2.49065-2.68116-5.00818-2.72017-7.87399-1.37342-6.80634-.44506-13.78729-.95757-20.66673-.36396-12.40184-2.56909-25.13906-9.00925-35.9014-7.99962-13.9461-21.81651-24.1602-37.27227-28.32006-7.74195-2.58047-15.998256-2.39424-24.062345-2.51471-.480074-.45421 2.067156-.78834 2.827879-1.12836 6.09355-1.7736 12.288136-3.21699 18.466046-4.61376 5.04326-1.71039 10.37483-2.32719 15.53496-3.60148 20.65923-4.31212 41.67952-6.67658 62.71293-8.19974 3.85081-.20709 7.70778-.28469 11.56377-.29891zm-105.083984 18.75977c24.057334-.19769 47.286144 14.80692 57.434304 36.54032 3.686 7.6499 5.45824 16.13891 5.42027 24.61938.25195 10.53302-.73151 21.50724 3.20988 31.50241 2.8489 7.16423 8.59361 12.62119 13.75053 18.16839 5.05868 5.19275 9.75489 10.87757 12.76346 17.52743 4.36563 9.21992 5.64847 20.12918 2.26707 29.87729-4.88128 15.4696-18.68459 28.18292-34.94122 30.40345-15.54199 2.24949-31.69283-5.17689-40.90668-17.73298-4.5748-5.99786-7.45541-13.05113-9.835504-20.14983-4.188769-10.40668-11.834951-19.86443-22.367169-24.27786-7.976078-3.57162-16.470865-6.26261-23.555802-11.54087-13.114828-9.06644-22.711487-23.38967-25.155921-39.23577-3.568671-19.87147 2.198415-41.58097 16.391518-56.15728 11.715628-12.29003 28.508053-19.64909 45.525264-19.54408zm218.773434.125c25.49824-.0297 50.27511 16.92466 58.88842 41.01909 8.37986 22.07792 3.25048 48.76908-13.18138 65.82271-8.11076 8.63801-18.72247 14.62325-29.95997 18.18458-7.33152 2.71901-13.79867 7.57873-18.46803 13.85232-4.5918 5.9736-7.49478 12.98837-9.72731 20.12219-5.02003 12.70989-15.31475 23.76881-28.56403 27.87249-13.92704 4.45257-29.76444.63466-40.85879-8.67026-8.65383-7.15255-14.58379-17.85895-14.89761-29.1957-.62139-13.55187 5.4994-26.76008 14.80189-36.38286 6.14048-6.55746 13.42714-12.71012 16.33316-21.50791 2.55768-7.64327 2.36939-15.83131 2.50939-23.79164-.11157-7.95583.50504-16.01952 3.09665-23.58983 2.73712-8.98883 7.54768-17.33743 14.10593-24.08578 9.69265-10.19884 22.88596-16.87034 36.78053-18.92087 3.02335-.46281 6.08197-.70159 9.14115-.72853zm64.30664 64.97656c1.19618 13.0738 2.4354 26.14269 3.65333 39.21358 2.53553 29.85502 2.48171 59.88 1.07631 89.79174-.63119 9.28754-1.32825 17.50792-3.9528 26.48786-3.8279 9.18251-12.44762 17.35662-22.29178 17.76825-8.22873.48107-17.09927-2.95399-21.54281-10.16158-4.27846-7.38046-4.76574-16.10868-6.69462-24.24613-4.17257-20.32652-11.17769-40.01946-20.11872-58.72091 1.06606-2.48613 2.4282-4.84913 4.35729-6.7666 5.82246-6.84672 13.93233-11.36318 22.39282-14.13389 15.20175-5.76794 28.64052-16.85919 35.96904-31.47082 1.70199-3.91612 3.23486-8.01764 4.41171-12.05447 1.17824-5.23259 1.94913-10.56442 2.41889-15.88572.0995-.52471.21217-.0386.32134.17869zm-346.966792 5.10156c.958326 9.02612 2.726042 18.25378 7.682912 26.03648 8.647168 14.46756 22.897826 25.2773 38.896408 30.32466 8.437473 3.12396 16.26413 8.52133 21.060844 16.26316.519975.71866 1.069168 1.46732.522526 2.33585-.928848 2.66402-2.658395 4.91905-3.571309 7.58728-7.224983 16.55429-12.808555 33.90476-15.85379 51.73225-1.363771 6.8044-2.310769 13.77624-4.84306 20.2711-3.912539 8.26539-13.049938 13.56224-22.152985 13.10188-9.521422-.20736-18.680981-6.22074-22.459551-14.99936-2.498127-5.30511-2.785772-11.24781-3.148764-16.99999-2.445201-25.19021-2.935018-50.55702-1.638818-75.82978.558582-14.60993 1.754535-29.19637 3.741438-43.6826.630938-5.42396.859063-10.90631 1.43947-16.32097.09855-.54282.213577-.059.324679.18004z" fill="#fff" fill-rule="evenodd" transform="matrix(.8080845 0 0 .8080845 34.981505 54.63367)"/></g></svg>