<svg height="350.26" viewBox="0 0 598.189 350.26" width="598.189" xmlns="http://www.w3.org/2000/svg"><g fill="#f4f4f4"><path d="m233.999 19.117c-2.48 0-4.514 2.011-4.514 4.492v308.506c0 2.479 2.034 4.491 4.514 4.491h132.707c2.227 0 3.999-1.646 4.358-3.772h.157v-.719-308.507c0-2.48-2.036-4.492-4.516-4.492h-132.706zm0 1.437h132.707c1.701 0 3.078 1.351 3.078 3.054v307.788.719c0 1.701-1.374 3.054-3.078 3.054h-132.707c-1.702 0-3.076-1.351-3.076-3.054v-308.507c0-1.703 1.374-3.054 3.076-3.054z"/><path d="m251.517 56.173c-8.753 0-15.855 7.124-15.855 15.878v123.545c0 8.751 7.102 15.877 15.855 15.877h97.673c8.751 0 15.855-7.125 15.855-15.877v-.719-122.826c0-8.753-7.104-15.878-15.855-15.878zm0 1.437h97.673c7.976 0 14.418 6.464 14.418 14.44v123.545c0 7.976-6.443 14.439-14.418 14.439h-97.673c-7.978 0-14.418-6.464-14.418-14.439v-123.544c0-7.977 6.442-14.441 14.418-14.441z"/><path d="m258.097 65.335c-5.231 0-9.479 4.269-9.479 9.5v114.382c0 5.231 4.247 9.499 9.479 9.499h84.507c5.229 0 9.478-4.268 9.478-9.499v-114.382c0-5.231-4.247-9.5-9.478-9.5zm0 1.438h84.507c4.454 0 8.04 3.608 8.04 8.063v114.382c0 4.455-3.586 8.062-8.04 8.062h-84.507c-4.454 0-8.041-3.606-8.041-8.062v-114.383c0-4.454 3.586-8.062 8.041-8.062z"/><path d="m300.363 216.409c-28.234 0-51.138 22.903-51.138 51.137s22.903 51.138 51.138 51.138 51.137-22.904 51.137-51.138-22.902-51.137-51.137-51.137zm0 1.438c27.456 0 49.7 22.242 49.7 49.699 0 27.458-22.244 49.7-49.7 49.7-27.458 0-49.7-22.242-49.7-49.7 0-27.457 22.243-49.699 49.7-49.699z"/><path d="m300.363 230.739c-20.64 0-37.393 16.754-37.393 37.393 0 20.64 16.753 37.393 37.393 37.393s37.37-16.753 37.37-37.393-16.73-37.393-37.37-37.393zm0 1.438c19.862 0 35.933 16.092 35.933 35.955 0 19.862-16.07 35.956-35.933 35.956-19.864 0-35.956-16.094-35.956-35.956.003-19.864 16.095-35.955 35.958-35.955z"/><path d="m243.409 16.22c-.83 0-1.527.676-1.527 1.505v1.976h1.437v-1.976c0-.05.04-.067.09-.067h113.886c.05 0 .09.017.09.067v2.088h1.437v-2.088c.009-.829-.689-1.505-1.522-1.505h-113.881z"/><path d="m258.635 99.395c-2.16 0-3.908-1.75-3.908-3.908v-19.129c0-2.158 1.748-3.906 3.908-3.906h20.327c2.158 0 3.909 1.748 3.909 3.906v19.13h-.002c-.001 2.157-1.749 3.904-3.906 3.906h-20.328zm-2.47-23.037v19.128c.002 1.364 1.106 2.468 2.47 2.47h20.327c1.362-.002 2.468-1.106 2.47-2.47v-19.128c-.002-1.362-1.108-2.468-2.47-2.47h-20.327c-1.364.002-2.468 1.106-2.47 2.47zm25.318 19.395.662-.265z"/><path d="m268.809 75.374c-5.818 0-10.555 4.737-10.555 10.556s4.737 10.556 10.555 10.556 10.533-4.737 10.533-10.556c0-5.818-4.715-10.556-10.533-10.556zm0 1.438c5.042 0 9.095 4.077 9.095 9.118s-4.054 9.118-9.095 9.118-9.118-4.077-9.118-9.118 4.077-9.118 9.118-9.118z"/><path d="m290.19 99.395c-2.158 0-3.907-1.749-3.907-3.907v-19.129c0-2.158 1.749-3.907 3.907-3.907h20.329c2.156 0 3.906 1.749 3.906 3.907v20.665l-.238-.199c-.547 1.5-1.985 2.57-3.671 2.57zm-2.469-23.036v19.128c.002 1.364 1.106 2.467 2.469 2.47h20.326c1.362-.002 2.466-1.106 2.47-2.47v-1.532l.002.001v-17.597c-.002-1.365-1.105-2.469-2.469-2.472h-20.329c-1.363.003-2.467 1.107-2.469 2.472zm25.523 19.681.46-.55z"/><path d="m300.363 75.374c-5.819 0-10.556 4.737-10.556 10.556s4.737 10.556 10.556 10.556c5.817 0 10.532-4.737 10.532-10.556.001-5.818-4.714-10.556-10.532-10.556zm0 1.438c5.041 0 9.096 4.077 9.096 9.118s-4.056 9.118-9.096 9.118c-5.042 0-9.118-4.077-9.118-9.118s4.076-9.118 9.118-9.118z"/><path d="m321.744 99.395c-2.156 0-3.905-1.749-3.905-3.908v-19.127c0-2.159 1.747-3.908 3.905-3.908h20.328c2.156 0 3.908 1.749 3.908 3.908v19.127.002c-.002 2.158-1.752 3.906-3.908 3.906zm-2.471-23.035v19.127c.004 1.365 1.108 2.469 2.471 2.471h20.328c1.362-.002 2.467-1.106 2.471-2.471v-19.127c-.004-1.365-1.108-2.469-2.471-2.471h-20.328c-1.364.002-2.467 1.106-2.471 2.471z"/><path d="m331.915 75.374c-5.817 0-10.555 4.737-10.555 10.556s4.737 10.556 10.555 10.556 10.533-4.737 10.533-10.556c0-5.818-4.715-10.556-10.533-10.556zm0 1.438c5.042 0 9.097 4.077 9.097 9.118s-4.055 9.118-9.097 9.118c-5.041 0-9.117-4.077-9.117-9.118s4.076-9.118 9.117-9.118z"/><path d="m258.635 130.44c-2.16 0-3.908-1.748-3.908-3.907v-19.13c0-2.159 1.75-3.909 3.908-3.909h20.327c2.158.002 3.909 1.748 3.909 3.909v20.868l-.282-.282c-.577 1.437-1.982 2.451-3.626 2.451zm-2.47-23.037v19.13c.002 1.365 1.106 2.468 2.47 2.471h20.327c1.362-.002 2.468-1.106 2.47-2.471v-19.13c-.002-1.365-1.108-2.468-2.47-2.47h-20.327c-1.366.002-2.468 1.106-2.47 2.47zm25.477 19.639.509-.509z"/><path d="m268.809 106.411c-5.818 0-10.555 4.737-10.555 10.556s4.737 10.556 10.555 10.556 10.533-4.737 10.533-10.556c0-5.818-4.715-10.556-10.533-10.556zm0 1.438c5.042 0 9.095 4.077 9.095 9.118s-4.054 9.119-9.095 9.119-9.118-4.077-9.118-9.119c0-5.041 4.077-9.118 9.118-9.118z"/><path d="m290.19 130.441c-2.158 0-3.907-1.75-3.907-3.907v-19.132c0-2.159 1.749-3.907 3.907-3.907h20.329c2.156 0 3.906 1.749 3.906 3.907v20.129l-.122-.041c-.426 1.695-1.962 2.949-3.787 2.951zm-2.469-23.039v19.132c.002 1.363 1.106 2.467 2.469 2.469h20.326c1.362-.002 2.466-1.106 2.47-2.469v-.997h.002v-18.136c-.002-1.363-1.105-2.467-2.469-2.469h-20.329c-1.363.003-2.467 1.107-2.469 2.47zm25.756 19.812.229-.679z"/><path d="m300.363 106.411c-5.819 0-10.556 4.737-10.556 10.556s4.737 10.556 10.556 10.556c5.817 0 10.532-4.737 10.532-10.556.001-5.818-4.714-10.556-10.532-10.556zm0 1.438c5.041 0 9.096 4.077 9.096 9.118s-4.056 9.119-9.096 9.119c-5.042 0-9.118-4.077-9.118-9.119 0-5.041 4.076-9.118 9.118-9.118z"/><path d="m321.744 130.441c-2.156 0-3.905-1.749-3.905-3.908v-19.131c0-2.159 1.747-3.908 3.905-3.908h20.328c2.156.002 3.908 1.749 3.908 3.908v19.131.002c-.002 2.158-1.752 3.906-3.908 3.906zm-2.471-23.039v19.131c.004 1.365 1.108 2.469 2.471 2.471h20.328c1.362-.002 2.467-1.106 2.471-2.471v-19.131c-.004-1.363-1.108-2.467-2.471-2.471h-20.328c-1.364.005-2.467 1.107-2.471 2.471z"/><path d="m331.915 106.411c-5.817 0-10.555 4.737-10.555 10.556s4.737 10.556 10.555 10.556 10.533-4.737 10.533-10.556c0-5.818-4.715-10.556-10.533-10.556zm0 1.438c5.042 0 9.097 4.077 9.097 9.118s-4.055 9.119-9.097 9.119c-5.041 0-9.117-4.077-9.117-9.119 0-5.041 4.076-9.118 9.117-9.118z"/><path d="m257.778 161.486c-2.159 0-3.908-1.749-3.908-3.906v-19.132c0-2.157 1.749-3.906 3.908-3.906h20.327c2.159 0 3.908 1.747 3.908 3.906v19.132.086l-.001.005c-.05 2.115-1.78 3.815-3.907 3.815zm-2.471-23.038v19.132c.002 1.363 1.106 2.467 2.471 2.469h20.327c1.363-.002 2.467-1.106 2.469-2.469v-.09l.002-.008v-19.034c-.004-1.365-1.106-2.467-2.471-2.469h-20.327c-1.364.002-2.468 1.106-2.471 2.469z"/><path d="m267.933 137.472c-5.818 0-10.533 4.716-10.533 10.533 0 5.818 4.715 10.556 10.533 10.556s10.556-4.737 10.556-10.556c0-5.818-4.737-10.533-10.556-10.533zm0 1.437c5.042 0 9.119 4.054 9.119 9.095 0 5.042-4.077 9.119-9.119 9.119-5.041 0-9.095-4.077-9.095-9.119 0-5.041 4.054-9.095 9.095-9.095z"/><path d="m289.333 161.486c-2.158 0-3.907-1.749-3.907-3.907v-19.132c0-2.158 1.749-3.905 3.907-3.907h20.328c2.156.002 3.904 1.749 3.904 3.907v19.13.002c0 2.158-1.746 3.907-3.904 3.907zm-2.472-23.039v19.132c.004 1.363 1.108 2.467 2.472 2.472h20.328c1.363-.004 2.468-1.108 2.47-2.472v-.002-19.13c-.002-1.363-1.106-2.467-2.47-2.469h-20.328c-1.363.002-2.467 1.106-2.472 2.469z"/><path d="m299.487 137.472c-5.818 0-10.533 4.715-10.533 10.533 0 5.819 4.715 10.556 10.533 10.556 5.819 0 10.556-4.737 10.556-10.556s-4.737-10.533-10.556-10.533zm0 1.437c5.042 0 9.119 4.054 9.119 9.095 0 5.042-4.076 9.119-9.119 9.119-5.042 0-9.096-4.076-9.096-9.119 0-5.041 4.054-9.095 9.096-9.095z"/><path d="m320.881 161.486c-2.158 0-3.905-1.749-3.905-3.905v-19.133c0-2.158 1.747-3.905 3.905-3.905h20.328c2.158 0 3.907 1.747 3.907 3.905v19.131.002c0 2.156-1.749 3.905-3.907 3.905zm-2.469-23.039v19.133c.002 1.362 1.104 2.466 2.469 2.469h20.328c1.364-.002 2.469-1.106 2.471-2.469v-.002-19.131c-.002-1.364-1.106-2.466-2.471-2.468h-20.328c-1.364.002-2.467 1.106-2.469 2.468z"/><path d="m331.039 137.472c-5.818 0-10.532 4.716-10.532 10.533 0 5.818 4.715 10.556 10.532 10.556s10.557-4.737 10.557-10.556c0-5.818-4.739-10.533-10.557-10.533zm0 1.437c5.041 0 9.119 4.054 9.119 9.095 0 5.042-4.077 9.119-9.119 9.119-5.041 0-9.095-4.077-9.095-9.119 0-5.041 4.054-9.095 9.095-9.095z"/><path d="m257.779 192.532c-2.159 0-3.908-1.749-3.908-3.906v-19.132c0-2.157 1.749-3.908 3.908-3.908h20.326c2.159 0 3.908 1.749 3.908 3.908v19.132.04.002c-.024 2.136-1.763 3.864-3.908 3.864zm-2.47-23.038v19.132c.002 1.364 1.104 2.467 2.47 2.469h20.326c1.364-.002 2.468-1.106 2.47-2.469v-.004-19.128c-.002-1.364-1.104-2.468-2.47-2.472h-20.326c-1.364.004-2.468 1.108-2.47 2.472z"/><path d="m267.933 168.511c-5.818 0-10.533 4.737-10.533 10.555 0 5.817 4.715 10.532 10.533 10.532s10.556-4.715 10.556-10.532c0-5.818-4.737-10.555-10.556-10.555zm0 1.437c5.042 0 9.119 4.076 9.119 9.118 0 5.041-4.077 9.095-9.119 9.095-5.041 0-9.095-4.054-9.095-9.095s4.054-9.118 9.095-9.118z"/><path d="m289.333 192.532c-2.157 0-3.906-1.749-3.906-3.906v-19.132c0-2.157 1.747-3.908 3.906-3.908h20.328c2.158 0 3.907 1.749 3.907 3.908v19.128.004c0 2.155-1.747 3.906-3.907 3.906zm-2.471-23.038v19.132c.002 1.364 1.106 2.467 2.47 2.469h20.328c1.363-.002 2.468-1.106 2.47-2.469v-.004-19.128c-.002-1.364-1.106-2.468-2.47-2.472h-20.328c-1.364.004-2.468 1.108-2.47 2.472z"/><path d="m299.487 168.511c-5.818 0-10.533 4.736-10.533 10.555 0 5.818 4.715 10.532 10.533 10.532 5.819 0 10.556-4.715 10.556-10.532 0-5.818-4.737-10.555-10.556-10.555zm0 1.437c5.042 0 9.119 4.076 9.119 9.118 0 5.041-4.076 9.095-9.119 9.095-5.042 0-9.096-4.054-9.096-9.095 0-5.042 4.054-9.118 9.096-9.118z"/><path d="m320.881 192.531c-2.158 0-3.905-1.747-3.905-3.905v-19.133c0-2.156 1.747-3.907 3.905-3.907h20.328c2.158 0 3.907 1.751 3.907 3.907v19.129.004c0 2.156-1.749 3.905-3.907 3.905zm-2.469-23.038v19.133c.002 1.364 1.104 2.466 2.469 2.471h20.328c1.364-.005 2.469-1.108 2.471-2.471v-.004-19.129c-.002-1.362-1.106-2.468-2.471-2.47h-20.328c-1.362.001-2.467 1.107-2.469 2.47z"/><path d="m331.039 168.511c-5.818 0-10.532 4.737-10.532 10.555 0 5.817 4.715 10.532 10.532 10.532s10.557-4.715 10.557-10.532c0-5.818-4.739-10.555-10.557-10.555zm0 1.437c5.041 0 9.119 4.076 9.119 9.118 0 5.041-4.077 9.095-9.119 9.095-5.041 0-9.095-4.054-9.095-9.095s4.054-9.118 9.095-9.118z"/></g></svg>