<svg height="350.26" viewBox="0 0 598.189 350.26" width="598.189" xmlns="http://www.w3.org/2000/svg"><g fill="#f4f4f4"><path d="m205.004 44.494c-2.364 0-4.299 1.936-4.299 4.299v138.192c0 2.364 1.936 4.301 4.299 4.301h184.914c2.363 0 4.276-1.937 4.276-4.301v-138.192c0-2.363-1.912-4.299-4.276-4.299zm0 1.433h184.914c1.589 0 2.843 1.276 2.843 2.866v138.192c0 1.59-1.254 2.866-2.843 2.866h-184.914c-1.59 0-2.866-1.276-2.866-2.866v-138.192c0-1.589 1.277-2.866 2.866-2.866z"/><path d="m192.667 27.187c-2.364 0-4.299 1.935-4.299 4.299v253.314c0 2.365 1.935 4.3 4.299 4.3h209.568c2.362 0 4.299-1.935 4.299-4.3v-253.315c0-2.364-1.937-4.299-4.299-4.299h-209.568zm0 1.432h209.568c1.59 0 2.865 1.276 2.865 2.866v253.315c0 1.591-1.275 2.865-2.865 2.865h-209.568c-1.589 0-2.866-1.274-2.866-2.865v-253.315c0-1.589 1.277-2.866 2.866-2.866z"/><path d="m190.876 16.059c-5.658 0-10.254 4.596-10.254 10.254v256.904c0 5.658 4.597 10.254 10.254 10.254h213.149c5.659 0 10.255-4.597 10.255-10.254v-256.897c0-5.663-4.592-10.26-10.253-10.26h-213.15zm0 1.433h213.149c4.884 0 8.821 3.937 8.821 8.821v256.897c0 4.885-3.939 8.822-8.821 8.822h-213.149c-4.882.007-8.82-3.934-8.82-8.813v-256.905c0-4.883 3.938-8.821 8.82-8.822z"/><path d="m201.176 242.62c-1.046 0-1.903.881-1.903 1.927v13.412c0 1.044.857 1.903 1.903 1.903h13.523c1.047 0 1.903-.859 1.903-1.903v-13.412c0-1.046-.857-1.927-1.903-1.927zm0 1.434h13.523c.271 0 .47.221.47.493v13.412c0 .27-.199.47-.47.47h-13.523c-.271 0-.47-.2-.47-.47v-13.412c0-.273.199-.493.47-.493z"/><path d="m351.881 305.155c-1.927 0-3.493 1.591-3.493 3.515v15.001c0 1.924 1.566 3.494 3.493 3.494h32.263c1.925 0 3.491-1.57 3.491-3.494v-15.001c0-1.924-1.566-3.515-3.491-3.515zm0 1.433h32.263c1.15 0 2.06.932 2.06 2.082v15.001c0 1.15-.909 2.06-2.06 2.06h-32.263c-1.15 0-2.061-.909-2.061-2.06v-15.001c0-1.15.91-2.082 2.061-2.082z"/><path d="m371.268 308.199c-.826 0-1.501.674-1.501 1.5v11.599c0 .828.675 1.5 1.501 1.5h10.635c.827 0 1.523-.672 1.523-1.5v-11.599c0-.826-.698-1.5-1.523-1.5zm0 1.435h10.635c.054 0 .09.015.09.065v11.599c0 .052-.038.067-.09.067h-10.635c-.052 0-.067-.016-.067-.067v-11.599c-.001-.051.015-.065.067-.065z"/><path d="m358.6 220.854c-2.582 0-4.701 2.118-4.701 4.703v.648c0 .224-.05.376-.112.446-.062.073-.157.158-.56.158h-60.631c-1.705 0-3.112 1.408-3.112 3.112v6.649c0 1.706 1.408 3.112 3.112 3.112h60.631c.451 0 .547.07.583.113.033.041.089.229.089.625v1.321c0 2.583 2.119 4.702 4.701 4.702h33.205c2.582 0 4.701-2.119 4.701-4.702v-16.187c0-2.585-2.117-4.703-4.701-4.703h-33.205zm0 1.433h33.205c1.81 0 3.268 1.461 3.268 3.271v16.187c0 1.81-1.458 3.269-3.268 3.269h-33.205c-1.81 0-3.269-1.459-3.269-3.269v-1.321c0-.531-.045-1.067-.426-1.521-.379-.456-1.003-.651-1.679-.651h-60.631c-.93 0-1.679-.747-1.679-1.679v-6.649c0-.931.749-1.68 1.679-1.68h60.631c.691 0 1.296-.226 1.657-.649.36-.424.447-.949.447-1.388v-.648c.001-1.812 1.461-3.272 3.27-3.272z"/><path d="m299.441 229.747c-.827 0-1.5.673-1.5 1.499v3.718c0 .825.673 1.499 1.5 1.499h61.369c.245 0 .256.057.246.046-.009-.013.046.057.046.313v5.888c0 .825.674 1.522 1.499 1.522h23.601c.825 0 1.5-.696 1.5-1.522v-11.464c0-.826-.675-1.499-1.5-1.499h-86.758zm0 1.433h86.758c.052 0 .066.015.066.066v11.464c0 .052-.015.089-.066.089h-23.601c-.051 0-.066-.036-.066-.089v-5.888c0-.439-.077-.91-.403-1.276-.323-.368-.837-.516-1.321-.516h-61.369c-.051 0-.068-.017-.068-.066v-3.718c0-.052.017-.066.068-.066z"/><path d="m392.003 236.331c-1.018 0-1.859.818-1.859 1.834 0 1.019.842 1.86 1.859 1.86s1.858-.842 1.858-1.86c0-1.016-.84-1.834-1.858-1.834z"/><path d="m197.033 292.437-1.208.784c2.469 3.905 6.82 6.493 11.777 6.493 4.954 0 9.329-2.592 11.8-6.493l-1.209-.761c-2.217 3.5-6.136 5.82-10.59 5.82-4.458 0-8.353-2.338-10.57-5.843z"/><path d="m201.668 292.999c1.616 1.33 3.678 2.127 5.934 2.127 2.28 0 4.377-.815 6-2.173"/><path d="m185.995 291.563v40.369c0 2.364 1.936 4.276 4.299 4.276h214.339c2.364 0 4.298-1.912 4.298-4.276v-39.965h-1.431v39.965c0 1.589-1.277 2.843-2.866 2.843h-214.34c-1.59 0-2.867-1.254-2.867-2.843v-40.369z"/><path d="m298.546 48.188c-24.74.04-49.859 1.377-76.275 3.895h-.022c-8.093.952-14.464 7.604-14.464 15.853v99.883c0 8.25 6.372 14.921 14.464 15.875h.022c52.839 5.037 100.427 5.354 150.395 0 8.11-.869 14.464-7.626 14.464-15.875v-99.883c0-8.248-6.354-14.983-14.464-15.853-24.983-2.677-49.363-3.936-74.111-3.896zm0 1.433c24.695-.04 49.022 1.224 73.953 3.896 7.413.794 13.188 6.907 13.188 14.419v99.883c0 7.514-5.775 13.647-13.188 14.441-49.855 5.345-97.325 5.026-150.078 0-.007-.001-.016 0-.022 0-7.402-.881-13.188-6.936-13.188-14.441v-99.883c0-7.505 5.785-13.538 13.188-14.419h.022c26.373-2.514 51.436-3.856 76.125-3.896z"/></g></svg>