<svg enable-background="new 0 0 598.189 350.26" height="350.26" viewBox="0 0 598.189 350.26" width="598.189" xmlns="http://www.w3.org/2000/svg" xmlns:xlink="http://www.w3.org/1999/xlink"><linearGradient id="a" gradientTransform="matrix(.85272086 0 0 .873558 38.488855 21.331839)" gradientUnits="userSpaceOnUse" x1="303.68307" x2="300.72803" y1="343.59225" y2="2.743041"><stop offset="0" stop-opacity="0"/><stop offset="1" stop-opacity="0"/></linearGradient><path d="m289.8533 21.319896c-78.39379 0-146.99586 27.938269-174.78778 42.396568-14.39461 7.490682-35.004844 21.715401-51.246527 42.261786-16.241692 20.54289-28.107304 47.46023-24.785529 80.12676 4.263953 41.93247 23.082152 76.06246 43.117362 100.17083 10.017605 12.05156 20.336404 21.59079 29.315604 28.36504 8.97917 6.77424 16.56534 10.80998 21.40296 11.76915 6.93117 1.37362 15.53967 1.47179 23.9095-1.69422 8.37075-3.16517 16.45912-9.64546 22.25901-21.29981 11.46637-23.04148 17.97566-45.67251 40.92394-57.64799 23.05394-12.03138 52.94166-14.30282 59.33905-14.30282h28.45956c6.39821 0 36.28428 2.27232 59.33736 14.30282l.16155.087c22.81442 11.99819 29.32664 34.58141 40.76573 57.56611 5.7999 11.65435 13.8866 18.13465 22.25734 21.29979 8.37068 3.16515 16.98 3.06873 23.91116 1.69424 4.83677-.95917 12.42293-4.99493 21.40296-11.76915 39.34272-31.16743 67.47162-85.50975 72.43463-128.53587 3.32178-32.66828-8.5455-59.58462-24.78718-80.13188-16.23744-20.542018-36.84796-34.765986-51.23488-42.256668-27.79191-14.457424-96.39399-42.396568-174.78777-42.396568h-7.35306l-.0117-.0051z" fill="url(#a)" stroke="#f4f4f4" stroke-width="1.898769"/><g fill="#f4f4f4" stroke-width=".870967"><path d="m157.35132 72.561589c-43.83044 0-79.366934 36.766811-79.366934 82.112731 0 45.34591 35.537354 82.14018 79.366934 82.14018 43.82957 0 79.39347-36.79427 79.39347-82.14018 0-45.34592-35.5639-82.112731-79.39347-82.112731zm0 1.771809c42.90307 0 77.68091 35.952662 77.68091 80.340922 0 44.38825-34.77698 80.36837-77.68091 80.36837-42.90394 0-77.654373-35.98012-77.654373-80.36837 0-44.38826 34.750433-80.340922 77.654373-80.340922z"/><path d="m157.35132 89.920003c-34.57062 0-62.588974 28.986797-62.588974 64.754317 0 35.76662 28.017494 64.78177 62.588974 64.78177 34.57061 0 62.61551-29.01603 62.61551-64.78177 0-35.76663-28.0449-64.754317-62.61551-64.754317zm0 1.771809c33.64583 0 60.90295 28.172658 60.90295 62.982508s-27.25712 63.00996-60.90295 63.00996c-33.64584 0-60.876413-28.20011-60.876413-63.00996s27.230573-62.982508 60.876413-62.982508z"/><path d="m157.35132 106.11523c-25.92219 0-46.93531 21.7401-46.93531 48.5582 0 26.81899 21.01312 48.58567 46.93531 48.58567 25.92218 0 46.96184-21.76668 46.96184-48.58567s-21.03966-48.5582-46.96184-48.5582zm0 1.7718c24.99654 0 45.24928 20.92596 45.24928 46.7864 0 25.86133-20.25274 46.81386-45.24928 46.81386-24.99655 0-45.22275-20.95253-45.22275-46.81386s20.22706-46.7864 45.22275-46.7864z"/><path d="m148.83989 109.76958c-1.55843 0-2.83686 1.32089-2.83686 2.935v24.6946c0 1.87634-.53346 3.19457-1.4454 4.0973-.91194.90274-2.2837 1.4396-4.14782 1.4396h-23.62735c-1.55929 0-2.83686 1.32177-2.83686 2.935v17.63482c0 1.61323 1.27757 2.935 2.83686 2.935h23.6282c1.73054 0 3.11515.55635 4.06733 1.52287.95219.96652 1.52504 2.38308 1.52504 4.26386v24.44565c0 1.61323 1.27757 2.935 2.83686 2.935h17.04512c1.55843 0 2.83685-1.32177 2.83685-2.935v-24.36238c0-1.87368.45126-3.32214 1.31097-4.29132.85885-.96918 2.20663-1.57779 4.36189-1.57779h23.54772c1.55928 0 2.83685-1.32177 2.83685-2.93501v-17.63481c0-1.61235-1.27757-2.935-2.83685-2.935h-23.52117c-2.24517 0-3.60409-.59445-4.44239-1.49541-.83829-.90008-1.25787-2.22096-1.25787-4.04238v-24.6946c0-1.61323-1.27843-2.935-2.83686-2.935zm0 1.77181h17.04512c.63364 0 1.12429.50585 1.12429 1.16319v24.6946c0 2.09605.50007 3.95645 1.73911 5.28796 1.23904 1.33063 3.13912 2.02075 5.67286 2.02075h23.52117c.6345 0 1.12429.50762 1.12429 1.16319v17.63482c0 .65468-.48979 1.16319-1.12429 1.16319h-23.54772c-2.47722 0-4.40984.76631-5.64631 2.15984-1.23561 1.39264-1.73911 3.32303-1.73911 5.48197v24.36238c0 .65734-.48893 1.16319-1.12429 1.16319h-17.04512c-.63365 0-1.1243-.50585-1.1243-1.16319v-24.44476c0-2.26526-.75181-4.18147-2.06021-5.50945-1.3084-1.32797-3.15111-2.04909-5.24472-2.04909h-23.6282c-.63194 0-1.1243-.50763-1.1243-1.1632v-17.63481c0-.65469.49065-1.1632 1.1243-1.1632h23.6282c2.17924 0 4.03051-.65645 5.32521-1.93835 1.29384-1.28102 1.98058-3.13876 1.98058-5.37124v-24.6946c0-.65734.49065-1.16407 1.12344-1.16319z"/><path d="m166.98447 123.35936c0 11.12165 9.23156 21.37245 20.68431 21.37245v-1.77181c-10.45689 0-18.97175-9.49956-18.97175-19.60064z"/><path d="m187.05569 122.66835-.96332.41549-7.49245 3.29468-.61567.24894.48209.47042 4.41498 4.29132.45468.44295.24062-.58115 3.07747-7.586zm-1.57898 1.66108-2.46181 5.97985-3.47907-3.40542z"/><path d="m157.35132 144.15154c-5.61977 0-10.16834 4.70593-10.16834 10.52012s4.54857 10.54758 10.16834 10.54758c5.61976 0 10.19487-4.73339 10.19487-10.54758s-4.57511-10.52012-10.19487-10.52012zm0 1.77181c4.69412 0 8.48231 3.89178 8.48231 8.74831s-3.78819 8.77577-8.48231 8.77577c-4.69413 0-8.45577-3.91924-8.45577-8.77577s3.76164-8.74831 8.45577-8.74831z"/><path d="m146.03129 123.33278c0 10.81867-9.1819 19.62811-18.94521 19.62811v1.7718c10.74974 0 20.65777-9.55093 20.65777-21.39991z"/><path d="m126.42246 123.97063.4016.99665 3.1845 7.75166.24062.63697.45468-.49877 4.14783-4.56772.42814-.47042-.56172-.24894-7.33233-3.18394zm1.60553 1.63273 5.77989 2.54697-3.29154 3.59943z"/><path d="m127.06467 164.64251v1.77181c10.45604 0 18.97175 9.49779 18.97175 19.60064h1.71257c0-11.12253-9.23242-21.37245-20.68432-21.37245z"/><path d="m131.39745 177.54129-.24061.58115-3.07748 7.586-.40159.99664.96331-.41549 7.49246-3.29468.61566-.24894-.48208-.47041-4.41498-4.29132zm.32111 1.52287 3.47906 3.37795-5.94087 2.60279z"/><path d="m187.64652 164.64251c-10.74975 0-20.65777 9.55183-20.65777 21.39992h1.71256c0-10.81779 9.1819-19.62811 18.94521-19.62811z"/><path d="m184.48684 176.01753-.45468.49876-4.14782 4.56773-.42814.47041.56172.24894 7.33233 3.18394.96331.41549-.40159-.99664-3.18451-7.75167zm-.29456 1.60614 2.51576 6.14641-5.7799-2.54698z"/><path d="m469.03742 92.189691c-3.4842.06821-7.19018.264885-11.05115.609502-15.44473 1.37581-33.39409 5.194059-49.98538 13.316037-12.38438 6.06224-26.45564 15.21807-38.53262 24.77786-12.07698 9.55891-22.15027 19.48636-26.5447 27.32484-4.41155 7.87038-4.96985 18.16991-3.29154 27.93258 1.67831 9.76355 5.58381 19.00176 10.43635 24.80532 9.62288 11.51322 26.1979 18.0069 47.33604 12.15462 10.55623-2.9226 17.3157-7.27239 24.3235-12.34774s14.27591-10.89309 26.11656-16.94293c23.72411-12.12094 43.90322-16.6364 54.88244-20.32088 5.5487-1.86305 11.31404-5.08598 15.70847-10.96307 4.39272-5.87797 7.39741-14.37557 7.5464-26.68787.14985-12.42039-4.84312-22.036-11.4793-28.90264-6.63703-6.86665-14.88986-11.021541-21.51404-12.734881-4.98527-1.290763-13.49755-2.226278-23.95103-2.020748zm.0539 1.799272c10.35586-.194013 18.7474.716697 23.46637 1.938359 6.31421 1.632722 14.36153 5.667128 20.73911 12.264468 6.37587 6.59733 11.11452 15.7062 10.97067 27.62959-.14471 12.02793-3.03552 20.10383-7.17135 25.63631-4.13498 5.53247-9.54496 8.56404-14.87788 10.35445-10.76173 3.61006-31.1335 8.18222-54.98948 20.34746l-.13358.0833c-11.98022 6.1216-19.39646 12.01287-26.35717 17.05367-6.96156 5.04168-13.43761 9.24087-23.76178 12.09791-20.6218 5.70965-36.39877-.59622-45.59694-11.60004-4.55798-5.45274-8.43094-14.46593-10.06129-23.94688-1.62951-9.48007-1.03867-19.40131 3.07747-26.74369 4.13412-7.37427 14.13034-17.31146 26.11655-26.79862 11.98622-9.48715 25.97699-18.59425 38.21152-24.58385 16.3464-8.003262 34.13648-11.787846 49.42366-13.150368 3.82072-.340187 7.49245-.516482 10.94412-.582039z"/><path d="m481.9587 103.34677c-7.25184-.22679-14.96693 1.25799-22.45082 4.26386-19.70644 7.91113-44.37931 17.94489-55.95365 24.08598-9.20587 4.88488-21.42842 10.05767-31.81511 16.91546-10.38668 6.85779-19.01456 15.45904-20.68431 27.24157-3.3138 23.38433 16.64952 40.65416 37.75684 36.59849 10.44234-2.00658 17.52292-6.35725 24.83213-11.6275s14.88815-11.43791 26.57124-17.33007c11.69422-5.89835 24.13341-10.14803 35.00047-13.56585 10.8662-3.41782 20.11146-6.00555 25.55483-8.66504 5.55298-2.71352 10.59733-8.65971 13.05828-16.14029s2.30254-16.50706-2.67588-25.24828c-4.98012-8.74477-12.96408-13.8591-22.12971-15.72481-2.29141-.46599-4.64703-.72733-7.06431-.80352zm-.0531 1.77181c2.32994.0718 4.60336.32867 6.79715.77517 8.77345 1.78598 16.25477 6.57164 20.97887 14.86637 4.72582 8.29738 4.86111 16.76043 2.5423 23.80868-2.31881 7.04826-7.14223 12.65604-12.17545 15.11531-5.14368 2.51331-14.41891 5.09926-25.31422 8.52683-10.89532 3.42756-23.43469 7.70825-35.26848 13.67659-11.84493 5.97454-19.56516 12.27067-26.81272 17.49662-7.24841 5.22684-14.01988 9.37464-24.16338 11.32275-20.06522 3.85545-38.90339-12.32294-35.74971-34.57775 1.56443-11.0366 9.7068-19.28703 19.90852-26.02344 10.20173-6.73554 22.36776-11.88973 31.68238-16.83219 11.36456-6.03035 36.11877-16.09335 55.81922-24.0027 7.2938-2.92792 14.76656-4.3684 21.75552-4.15224z"/><path d="m383.03261 152.31958c-14.47114 0-26.22359 12.15904-26.22359 27.13083 0 14.9709 11.75245 27.13083 26.22359 27.13083s26.22359-12.15993 26.22359-27.13083c0-14.97179-11.75245-27.13083-26.22359-27.13083zm0 1.77181c13.5455 0 24.51103 11.34489 24.51103 25.35902 0 14.01324-10.96553 25.35902-24.51103 25.35902-13.54465 0-24.51103-11.34578-24.51103-25.35902 0-14.01413 10.96553-25.35902 24.51103-25.35902z"/><path d="m383.03261 157.3338c-11.79098 0-21.35393 9.92036-21.35393 22.12015 0 12.19891 9.56209 22.12016 21.35393 22.12016s21.38047-9.92036 21.38047-22.12016c0-12.19979-9.58863-22.12015-21.38047-22.12015zm0 1.77181c10.8662 0 19.66791 9.10621 19.66791 20.34834 0 11.24125-8.80086 20.34835-19.66791 20.34835-10.86535 0-19.64136-9.10622-19.64136-20.34835s8.77516-20.34834 19.64136-20.34834z"/><path d="m431.57515 126.32714c-14.47114 0-26.22359 12.13158-26.22359 27.10337 0 14.97178 11.75245 27.13082 26.22359 27.13082 14.47029 0 26.19705-12.15992 26.19705-27.13082 0-14.97091-11.72591-27.10337-26.19705-27.10337zm0 1.77181c13.54465 0 24.48449 11.31655 24.48449 25.33156 0 14.01412-10.93813 25.35901-24.48449 25.35901s-24.51103-11.34578-24.51103-25.35901c0-14.01324 10.96553-25.33156 24.51103-25.33156z"/><path d="m431.57515 131.3325c-11.79184 0-21.38132 9.8929-21.38132 22.09269s9.58863 22.12015 21.38132 22.12015c11.79184 0 21.35392-9.92036 21.35392-22.12015s-9.56208-22.09269-21.35392-22.09269zm0 1.77181c10.86534 0 19.64136 9.07787 19.64136 20.32088 0 11.24213-8.7743 20.34834-19.64136 20.34834s-19.66876-9.10621-19.66876-20.34834 8.80256-20.32088 19.66876-20.32088z"/><path d="m482.95198 107.13933c-14.472 0-26.22359 12.15816-26.22359 27.13083s11.75159 27.13083 26.22359 27.13083c14.47114 0 26.22359-12.15816 26.22359-27.13083s-11.75159-27.13083-26.22359-27.13083zm0 1.77181c13.5455 0 24.51103 11.34401 24.51103 25.35902s-10.96553 25.35902-24.51103 25.35902c-13.54636 0-24.51103-11.34401-24.51103-25.35902s10.96467-25.35902 24.51103-25.35902z"/><path d="m482.95198 112.15267c-11.79184 0-21.35392 9.92036-21.35392 22.12015s9.56208 22.12015 21.35392 22.12015 21.38047-9.92036 21.38047-22.12015-9.58863-22.12015-21.38047-22.12015zm0 1.7718c10.86535 0 19.66791 9.10622 19.66791 20.34835s-8.80171 20.34834-19.66791 20.34834-19.64136-9.10621-19.64136-20.34834 8.77431-20.34835 19.64136-20.34835z"/><path d="m417.1297 64.22877c-1.60724-.114282-3.25387.116053-4.87053.691891l-35.19312 12.513403c-6.46492 2.303352-9.90717 9.616494-7.68084 16.30596 2.22804 6.689466 9.29492 10.278266 15.7607 7.973146l35.19398-12.54087c6.46492-2.304238 9.90631-9.616495 7.67998-16.30596-1.66974-5.015992-6.07017-8.293839-10.89017-8.63757zm-.10704 1.771809c4.15639.291463 7.92145 3.109525 9.366 7.446914 1.92577 5.784071-1.01897 12.043873-6.60963 14.036273l-35.18457 12.540864c-5.59065 1.99329-11.64113-1.05334-13.5669-6.838297-1.92578-5.784957 1.01983-12.072221 6.60962-14.063735l35.18457-12.540866c1.39745-.497878 2.81631-.678602 4.20091-.581153z"/><path d="m416.21348 69.98715c-.91023-.06556-1.86755.03366-2.78291.359677l-34.06199 12.153725c-3.66231 1.304938-5.5975 5.457173-4.33534 9.247072 1.2613 3.7899 5.27468 5.818622 8.93785 4.512798l34.03715-12.153725c3.66231-1.304937 5.62234-5.457172 4.3619-9.247072-.94619-2.841982-3.4217-4.675804-6.15495-4.872475h-.002zm-.13358 1.74346c2.06877.144402 3.96201 1.546789 4.683 3.710168.95989 2.884506-.5035 6.010863-3.29155 7.003962l-34.06369 12.126262c-2.78719.993985-5.80986-.520026-6.76975-3.405417-.9599-2.883619.50434-6.010863 3.29154-7.003962l34.07226-12.126262c.69615-.248053 1.39745-.35259 2.08761-.304751z"/></g></svg>