<svg height="350.26" viewBox="0 0 598.189 350.26" width="598.189" xmlns="http://www.w3.org/2000/svg"><g fill="#f4f4f4"><path d="m82.189 26.116v83.276h-3.15v1.708h4.005.854v-.854-84.13z"/><path d="m47.081 25.262v.854 84.129.854h.854 27.768.854v-.854-84.129-.854h-.854-27.768zm1.708 1.709h26.058v82.42h-26.058z"/><path d="m269.116 25.262v.854 84.129.854h.854 280.184.854v-.854-84.129-.854h-.854-280.184zm1.708 1.709h278.476v82.42h-278.476z"/><path d="m89.532 26.116v83.276h-3.15v1.708h4.004.854v-.854-84.13z"/><path d="m96.874 26.116v83.276h-3.15v1.708h4.005.854v-.854-84.13z"/><path d="m104.243 26.116v83.276h-3.177v1.708h4.032.854v-.854-84.13z"/><path d="m111.585 26.116v83.276h-3.177v1.708h4.032.854v-.854-84.13z"/><path d="m118.928 26.116v83.276h-3.177v1.708h4.032.854v-.854-84.13z"/><path d="m126.271 26.116v83.276h-3.177v1.708h4.031.855v-.854-84.13z"/><path d="m133.611 26.116v83.276h-3.177v1.708h4.032.854v-.854-84.13z"/><path d="m140.959 26.116v83.276h-3.177v1.708h4.032.854v-.854-84.13z"/><path d="m148.298 26.116v83.276h-3.177v1.708h4.031.854v-.854-84.13z"/><path d="m155.638 26.116v83.276h-3.177v1.708h4.032.854v-.854-84.13z"/><path d="m162.985 26.116v83.276h-3.177v1.708h4.032.854v-.854-84.13z"/><path d="m170.324 26.116v83.276h-3.178v1.708h4.032.854v-.854-84.13z"/><path d="m177.663 26.116v83.276h-3.177v1.708h4.032.854v-.854-84.13z"/><path d="m185.011 26.116v83.276h-3.177v1.708h4.032.854v-.854-84.13z"/><path d="m192.35 26.116v83.276h-3.178v1.708h4.032.854v-.854-84.13z"/><path d="m199.689 26.116v83.276h-3.177v1.708h4.032.854v-.854-84.13z"/><path d="m207.037 26.116v83.276h-3.177v1.708h4.032.854v-.854-84.13z"/><path d="m214.376 26.116v83.276h-3.178v1.708h4.032.855v-.854-84.13z"/><path d="m221.724 26.116v83.276h-3.178v1.708h4.032.854v-.854-84.13z"/><path d="m229.063 26.116v83.276h-3.177v1.708h4.032.854v-.854-84.13z"/><path d="m236.402 26.116v83.276h-3.178v1.708h4.032.855v-.854-84.13z"/><path d="m243.749 26.116v83.276h-3.177v1.708h4.032.854v-.854-84.13z"/><path d="m251.088 26.116v83.276h-3.177v1.708h4.032.854v-.854-84.13z"/><path d="m258.436 26.116v83.276h-3.177v1.708h4.032.854v-.854-84.13z"/><path d="m265.775 26.116v83.276h-3.178v1.708h4.032.854v-.854-84.13z"/><path d="m341.737 35.461c-.906 0-1.656.749-1.656 1.655v32.893c0 .905.75 1.656 1.656 1.656h196.883c.906 0 1.655-.75 1.655-1.656v-32.893c0-.905-.749-1.655-1.655-1.655zm.054 1.708h196.772v32.787h-196.772z"/><path d="m347.53 40.24c-1.128 0-2.082.928-2.082 2.056v22.534c0 1.128.954 2.056 2.082 2.056h148.261c.799 0 1.368-.527 1.708-1.201h.348v-.855-22.534c0-1.128-.926-2.056-2.056-2.056zm0 1.709h148.261c.205 0 .347.142.347.347v21.68.854c0 .205-.142.347-.347.347h-148.261c-.204 0-.373-.143-.373-.347v-22.534c0-.205.169-.347.373-.347z"/><path d="m349.794 43.043c-.684 0-1.255.568-1.255 1.255v18.529c0 .687.571 1.255 1.255 1.255h143.988c.686 0 1.256-.571 1.256-1.255v-18.529c0-.685-.57-1.255-1.256-1.255zm.454 1.709h143.082v17.622h-143.082z"/><path d="m520.482 41.842c-6.465 0-11.721 5.257-11.721 11.722 0 6.464 5.255 11.721 11.721 11.721 6.465 0 11.722-5.257 11.722-11.721 0-6.465-5.257-11.722-11.722-11.722zm0 1.709c5.54 0 10.013 4.471 10.013 10.013 0 5.541-4.473 10.012-10.013 10.012-5.541 0-10.012-4.471-10.012-10.012.001-5.542 4.471-10.013 10.012-10.013z"/><path d="m52.287 114.276c-.906 0-1.682.748-1.682 1.655v208.519c0 .906.774 1.656 1.682 1.656h493.505c.906 0 1.656-.751 1.656-1.656v-208.518c0-.905-.752-1.655-1.656-1.655h-493.505zm.026 1.709h493.429v208.415h-493.429z"/><path d="m52.287 16.852c-.907 0-1.682.749-1.682 1.655v7.716h1.708v-7.663h493.429v7.45h1.708v-7.503c0-.906-.752-1.656-1.658-1.656h-493.513z"/><path d="m75.354 167.06c-1.795 0-3.284 1.487-3.284 3.284v15.993c0 1.796 1.487 3.284 3.284 3.284h15.993c1.796 0 3.258-1.487 3.258-3.284v-.854-15.139c0-1.795-1.462-3.284-3.258-3.284zm0 1.708h15.993c.874 0 1.549.704 1.549 1.576v15.993c0 .872-.677 1.575-1.549 1.575h-15.993c-.872 0-1.575-.704-1.575-1.575v-15.993c0-.874.702-1.576 1.575-1.576z"/><path d="m99.224 167.06c-1.795 0-3.284 1.487-3.284 3.284v15.993c0 1.796 1.487 3.284 3.284 3.284h15.993c1.796 0 3.284-1.487 3.284-3.284v-15.993c0-1.796-1.489-3.284-3.284-3.284zm0 1.708h15.993c.874 0 1.575.704 1.575 1.576v15.993c0 .872-.702 1.575-1.575 1.575h-15.993c-.873 0-1.575-.704-1.575-1.575v-15.993c-.001-.874.701-1.576 1.575-1.576z"/><path d="m123.093 167.06c-1.794 0-3.284 1.487-3.284 3.284v15.993c0 1.795 1.487 3.284 3.284 3.284h15.993c1.795 0 3.284-1.487 3.284-3.284v-15.993c0-1.795-1.488-3.284-3.284-3.284zm0 1.708h15.993c.873 0 1.575.704 1.575 1.576v15.993c0 .872-.703 1.575-1.575 1.575h-15.993c-.873 0-1.575-.704-1.575-1.575v-15.993c0-.874.703-1.576 1.575-1.576z"/><path d="m146.965 167.06c-1.794 0-3.256 1.487-3.256 3.284v15.993c0 1.796 1.46 3.284 3.256 3.284h15.994c1.796 0 3.284-1.487 3.284-3.284v-15.993c0-1.796-1.489-3.284-3.284-3.284zm0 1.708h15.994c.874 0 1.575.704 1.575 1.576v15.993c0 .872-.702 1.575-1.575 1.575h-15.994c-.872 0-1.548-.704-1.548-1.575v-15.993c0-.874.674-1.576 1.548-1.576z"/><path d="m170.828 167.06c-1.794 0-3.257 1.487-3.257 3.284v15.993c0 1.795 1.46 3.284 3.257 3.284h16.02c1.795 0 3.257-1.487 3.257-3.284v-15.993c0-1.795-1.462-3.284-3.257-3.284zm0 1.708h16.02c.874 0 1.548.704 1.548 1.576v15.993c0 .872-.676 1.575-1.548 1.575h-16.02c-.873 0-1.548-.704-1.548-1.575v-15.993c0-.874.675-1.576 1.548-1.576z"/><path d="m194.699 167.06c-1.795 0-3.257 1.487-3.257 3.284v15.993c0 1.796 1.461 3.284 3.257 3.284h16.02c1.796 0 3.257-1.487 3.257-3.284v-15.993c0-1.796-1.462-3.284-3.257-3.284zm0 1.708h16.02c.874 0 1.549.704 1.549 1.576v15.993c0 .872-.676 1.575-1.549 1.575h-16.02c-.872 0-1.548-.704-1.548-1.575v-15.993c0-.874.675-1.576 1.548-1.576z"/><path d="m218.597 167.06c-1.794 0-3.284 1.487-3.284 3.284v15.993c0 1.796 1.488 3.284 3.284 3.284h15.993c1.795 0 3.257-1.487 3.257-3.284v-15.993c0-1.796-1.463-3.284-3.257-3.284zm0 1.708h15.993c.872 0 1.548.704 1.548 1.576v15.993c0 .872-.678 1.575-1.548 1.575h-15.993c-.871 0-1.575-.704-1.575-1.575v-15.993c-.001-.874.703-1.576 1.575-1.576z"/><path d="m242.468 167.06c-1.794 0-3.284 1.487-3.284 3.284v15.993c0 1.796 1.489 3.284 3.284 3.284h15.993c1.795 0 3.284-1.487 3.284-3.284v-15.993c0-1.796-1.49-3.284-3.284-3.284zm0 1.708h15.993c.871 0 1.576.704 1.576 1.576v15.993c0 .872-.705 1.575-1.576 1.575h-15.993c-.871 0-1.576-.704-1.576-1.575v-15.993c0-.874.704-1.576 1.576-1.576z"/><path d="m266.331 167.06c-1.794 0-3.257 1.487-3.257 3.284v15.993c0 1.795 1.46 3.284 3.257 3.284h15.993c1.797 0 3.284-1.487 3.284-3.284v-15.993c0-1.796-1.488-3.284-3.284-3.284zm0 1.708h15.993c.874 0 1.575.704 1.575 1.576v15.993c0 .872-.702 1.575-1.575 1.575h-15.993c-.873 0-1.548-.704-1.548-1.575v-15.993c-.001-.874.675-1.576 1.548-1.576z"/><path d="m290.202 167.06c-1.795 0-3.258 1.487-3.258 3.284v15.993c0 1.795 1.461 3.284 3.258 3.284h15.993c1.796 0 3.284-1.487 3.284-3.284v-15.993c0-1.795-1.488-3.284-3.284-3.284zm0 1.708h15.993c.872 0 1.575.704 1.575 1.576v15.993c0 .872-.704 1.575-1.575 1.575h-15.993c-.873 0-1.549-.704-1.549-1.575v-15.993c0-.874.676-1.576 1.549-1.576z"/><path d="m454.755 132.723c-1.795 0-3.283 1.462-3.283 3.257v16.018c0 1.796 1.488 3.257 3.283 3.257h15.993c1.794 0 3.284-1.46 3.284-3.257v-16.018c0-1.796-1.489-3.257-3.284-3.257zm0 1.708h15.993c.871 0 1.575.677 1.575 1.549v16.018c0 .874-.704 1.549-1.575 1.549h-15.993c-.875 0-1.575-.675-1.575-1.549v-16.018c0-.874.702-1.549 1.575-1.549z"/><path d="m478.618 132.723c-1.796 0-3.258 1.461-3.258 3.257v16.018c0 1.796 1.462 3.257 3.258 3.257h15.992c1.796 0 3.284-1.461 3.284-3.257v-16.018c0-1.795-1.486-3.257-3.284-3.257zm0 1.708h15.992c.874 0 1.576.676 1.576 1.549v16.018c0 .874-.702 1.549-1.576 1.549h-15.992c-.873 0-1.549-.675-1.549-1.549v-16.018c0-.873.678-1.549 1.549-1.549z"/><path d="m502.489 132.723c-1.794 0-3.258 1.461-3.258 3.257v16.018c0 1.796 1.464 3.257 3.258 3.257h16.02c1.794 0 3.258-1.46 3.258-3.257v-16.018c0-1.796-1.463-3.257-3.258-3.257zm0 1.708h16.02c.871 0 1.549.677 1.549 1.549v16.018c0 .874-.678 1.549-1.549 1.549h-16.02c-.872 0-1.549-.675-1.549-1.549v-16.018c0-.873.679-1.549 1.549-1.549z"/><path d="m314.073 167.06c-1.796 0-3.257 1.487-3.257 3.284v15.993c0 1.796 1.46 3.284 3.257 3.284h16.021c1.793 0 3.256-1.487 3.256-3.284v-15.993c0-1.796-1.463-3.284-3.256-3.284zm0 1.708h16.021c.872 0 1.548.704 1.548 1.576v15.993c0 .871-.68 1.575-1.548 1.575h-16.021c-.872 0-1.549-.704-1.549-1.575v-15.993c0-.872.677-1.576 1.549-1.576z"/><path d="m337.944 167.06c-1.794 0-3.258 1.487-3.258 3.284v15.993c0 1.795 1.46 3.284 3.258 3.284h16.02c1.796 0 3.258-1.487 3.258-3.284v-15.993c0-1.795-1.462-3.284-3.258-3.284zm0 1.708h16.02c.873 0 1.549.704 1.549 1.576v15.993c0 .872-.678 1.575-1.549 1.575h-16.02c-.873 0-1.548-.704-1.548-1.575v-15.993c0-.874.675-1.576 1.548-1.576z"/><path d="m361.841 167.06c-1.794 0-3.284 1.487-3.284 3.284v15.993c0 1.796 1.488 3.284 3.284 3.284h15.992c1.798 0 3.258-1.487 3.258-3.284v-15.993c0-1.795-1.462-3.284-3.258-3.284zm0 1.708h15.992c.875 0 1.549.704 1.549 1.576v15.993c0 .872-.675 1.575-1.549 1.575h-15.992c-.871 0-1.576-.704-1.576-1.575v-15.993c0-.872.703-1.576 1.576-1.576z"/><path d="m385.703 167.06c-1.794 0-3.284 1.487-3.284 3.284v15.993c0 1.795 1.489 3.284 3.284 3.284h15.993c1.797 0 3.284-1.487 3.284-3.284v-15.993c0-1.795-1.488-3.284-3.284-3.284zm0 1.708h15.993c.874 0 1.575.704 1.575 1.576v15.993c0 .872-.703 1.575-1.575 1.575h-15.993c-.871 0-1.575-.704-1.575-1.575v-15.993c0-.874.702-1.576 1.575-1.576z"/><path d="m409.576 167.06c-1.796 0-3.258 1.487-3.258 3.284v15.993c0 1.796 1.461 3.284 3.258 3.284h15.993c1.793 0 3.283-1.487 3.283-3.284v-15.993c0-1.796-1.49-3.284-3.283-3.284zm0 1.708h15.993c.871 0 1.575.704 1.575 1.576v15.993c0 .871-.706 1.575-1.575 1.575h-15.993c-.873 0-1.549-.704-1.549-1.575v-15.993c0-.872.676-1.576 1.549-1.576z"/><path d="m87.556 214.854c-1.795 0-3.284 1.463-3.284 3.258v15.992c0 1.797 1.489 3.284 3.284 3.284h21.227c1.795 0 3.284-1.487 3.284-3.284v-.854-15.138c0-1.795-1.487-3.258-3.284-3.258zm0 1.709h21.227c.873 0 1.575.678 1.575 1.549v15.992c0 .874-.702 1.576-1.575 1.576h-21.227c-.873 0-1.575-.701-1.575-1.576v-15.992c-.001-.873.704-1.549 1.575-1.549z"/><path d="m116.659 214.854c-1.796 0-3.257 1.461-3.257 3.258v15.992c0 1.796 1.46 3.284 3.257 3.284h15.993c1.795 0 3.285-1.487 3.285-3.284v-15.992c0-1.797-1.489-3.258-3.285-3.258zm0 1.709h15.993c.874 0 1.576.676 1.576 1.549v15.992c0 .873-.702 1.576-1.576 1.576h-15.993c-.873 0-1.549-.704-1.549-1.576v-15.992c0-.875.676-1.549 1.549-1.549z"/><path d="m140.532 214.854c-1.795 0-3.258 1.461-3.258 3.258v15.992c0 1.795 1.461 3.284 3.258 3.284h16.02c1.795 0 3.257-1.487 3.257-3.284v-15.992c0-1.795-1.461-3.258-3.257-3.258zm0 1.709h16.02c.873 0 1.548.676 1.548 1.549v15.992c0 .873-.676 1.576-1.548 1.576h-16.02c-.873 0-1.549-.704-1.549-1.576v-15.992c0-.875.677-1.549 1.549-1.549z"/><path d="m164.395 214.854c-1.795 0-3.257 1.461-3.257 3.258v15.992c0 1.796 1.461 3.284 3.257 3.284h16.02c1.796 0 3.258-1.487 3.258-3.284v-15.992c0-1.797-1.462-3.258-3.258-3.258zm0 1.709h16.02c.874 0 1.549.676 1.549 1.549v15.992c0 .873-.675 1.576-1.549 1.576h-16.02c-.873 0-1.549-.704-1.549-1.576v-15.992c0-.875.675-1.549 1.549-1.549z"/><path d="m188.292 214.854c-1.794 0-3.284 1.461-3.284 3.258v15.992c0 1.795 1.488 3.284 3.284 3.284h15.993c1.795 0 3.257-1.487 3.257-3.284v-15.992c0-1.795-1.461-3.258-3.257-3.258zm0 1.709h15.993c.873 0 1.548.676 1.548 1.549v15.992c0 .873-.676 1.576-1.548 1.576h-15.993c-.873 0-1.575-.704-1.575-1.576v-15.992c-.001-.875.702-1.549 1.575-1.549z"/><path d="m212.163 214.854c-1.796 0-3.284 1.461-3.284 3.258v15.992c0 1.796 1.487 3.284 3.284 3.284h15.993c1.796 0 3.285-1.487 3.285-3.284v-15.992c0-1.797-1.488-3.258-3.285-3.258zm0 1.709h15.993c.874 0 1.576.676 1.576 1.549v15.992c0 .873-.702 1.576-1.576 1.576h-15.993c-.873 0-1.575-.704-1.575-1.576v-15.992c0-.875.702-1.549 1.575-1.549z"/><path d="m236.034 214.854c-1.794 0-3.284 1.461-3.284 3.258v15.992c0 1.797 1.489 3.284 3.284 3.284h15.993c1.796 0 3.284-1.487 3.284-3.284v-15.992c0-1.797-1.488-3.258-3.284-3.258zm0 1.709h15.993c.874 0 1.575.676 1.575 1.549v15.992c0 .873-.702 1.576-1.575 1.576h-15.993c-.871 0-1.575-.704-1.575-1.576v-15.992c0-.875.704-1.549 1.575-1.549z"/><path d="m259.897 214.854c-1.794 0-3.257 1.461-3.257 3.258v15.992c0 1.796 1.462 3.284 3.257 3.284h15.993c1.794 0 3.284-1.487 3.284-3.284v-15.992c0-1.797-1.489-3.258-3.284-3.258zm0 1.709h15.993c.871 0 1.576.676 1.576 1.549v15.992c0 .873-.705 1.576-1.576 1.576h-15.993c-.871 0-1.549-.704-1.549-1.576v-15.992c0-.875.677-1.549 1.549-1.549z"/><path d="m283.769 214.854c-1.795 0-3.258 1.461-3.258 3.258v15.992c0 1.795 1.461 3.284 3.258 3.284h16.019c1.796 0 3.258-1.487 3.258-3.284v-15.992c0-1.795-1.461-3.258-3.258-3.258zm0 1.709h16.019c.875 0 1.549.676 1.549 1.549v15.992c0 .873-.676 1.576-1.549 1.576h-16.019c-.873 0-1.549-.704-1.549-1.576v-15.992c0-.875.676-1.549 1.549-1.549z"/><path d="m307.64 214.854c-1.796 0-3.257 1.461-3.257 3.258v15.992c0 1.795 1.461 3.284 3.257 3.284h16.02c1.795 0 3.256-1.487 3.256-3.284v-15.992c0-1.795-1.46-3.258-3.256-3.258zm0 1.709h16.02c.874 0 1.548.676 1.548 1.549v15.992c0 .873-.676 1.576-1.548 1.576h-16.02c-.871 0-1.549-.704-1.549-1.576v-15.992c0-.875.678-1.549 1.549-1.549z"/><path d="m331.536 214.854c-1.795 0-3.283 1.461-3.283 3.258v15.992c0 1.796 1.488 3.284 3.283 3.284h15.994c1.795 0 3.257-1.487 3.257-3.284v-15.992c0-1.797-1.462-3.258-3.257-3.258zm0 1.709h15.994c.872 0 1.548.676 1.548 1.549v15.992c0 .872-.678 1.576-1.548 1.576h-15.994c-.873 0-1.574-.704-1.574-1.576v-15.992c0-.875.701-1.549 1.574-1.549z"/><path d="m355.407 214.854c-1.794 0-3.284 1.461-3.284 3.258v15.992c0 1.795 1.489 3.284 3.284 3.284h15.993c1.796 0 3.284-1.487 3.284-3.284v-15.992c0-1.795-1.488-3.258-3.284-3.258zm0 1.709h15.993c.873 0 1.575.676 1.575 1.549v15.992c0 .873-.702 1.576-1.575 1.576h-15.993c-.872 0-1.574-.704-1.574-1.576v-15.992c0-.875.702-1.549 1.574-1.549z"/><path d="m379.271 214.854c-1.794 0-3.258 1.461-3.258 3.258v15.992c0 1.796 1.462 3.284 3.258 3.284h15.993c1.796 0 3.284-1.487 3.284-3.284v-15.992c0-1.795-1.488-3.258-3.284-3.258zm0 1.709h15.993c.872 0 1.575.676 1.575 1.549v15.992c0 .873-.703 1.576-1.575 1.576h-15.993c-.873 0-1.549-.704-1.549-1.576v-15.992c0-.875.675-1.549 1.549-1.549z"/><path d="m403.141 214.854c-1.793 0-3.257 1.461-3.257 3.258v15.992c0 1.795 1.462 3.284 3.257 3.284h16.021c1.796 0 3.258-1.487 3.258-3.284v-15.992c0-1.795-1.462-3.258-3.258-3.258zm0 1.709h16.021c.872 0 1.548.676 1.548 1.549v15.992c0 .873-.676 1.576-1.548 1.576h-16.021c-.872 0-1.548-.704-1.548-1.576v-15.992c0-.875.676-1.549 1.548-1.549z"/><path d="m92.79 238.725c-1.796 0-3.284 1.487-3.284 3.284v15.992c0 1.796 1.488 3.285 3.284 3.285h27.26c1.795 0 3.284-1.488 3.284-3.285v-15.992c0-1.796-1.487-3.284-3.284-3.284zm0 1.708h27.26c.872 0 1.575.704 1.575 1.576v15.992c0 .874-.703 1.577-1.575 1.577h-27.26c-.873 0-1.576-.704-1.576-1.577v-15.992c0-.872.704-1.576 1.576-1.576z"/><path d="m127.925 238.725c-1.795 0-3.257 1.487-3.257 3.284v15.992c0 1.796 1.461 3.285 3.257 3.285h16.02c1.796 0 3.257-1.488 3.257-3.285v-15.992c0-1.796-1.46-3.284-3.257-3.284zm0 1.708h16.02c.872 0 1.548.704 1.548 1.576v15.992c0 .874-.675 1.577-1.548 1.577h-16.02c-.873 0-1.548-.704-1.548-1.577v-15.992c0-.872.677-1.576 1.548-1.576z"/><path d="m151.793 238.725c-1.796 0-3.257 1.487-3.257 3.284v15.992c0 1.796 1.46 3.285 3.257 3.285h16.019c1.796 0 3.258-1.488 3.258-3.285v-15.992c0-1.796-1.461-3.284-3.258-3.284zm0 1.708h16.019c.873 0 1.548.704 1.548 1.576v15.992c0 .874-.675 1.577-1.548 1.577h-16.019c-.873 0-1.549-.704-1.549-1.577v-15.992c0-.872.677-1.576 1.549-1.576z"/><path d="m175.69 238.725c-1.796 0-3.284 1.489-3.284 3.284v15.992c0 1.796 1.488 3.285 3.284 3.285h15.993c1.796 0 3.257-1.488 3.257-3.285v-15.992c0-1.796-1.46-3.284-3.257-3.284zm0 1.708h15.993c.873 0 1.549.704 1.549 1.576v15.992c0 .874-.675 1.577-1.549 1.577h-15.993c-.874 0-1.575-.704-1.575-1.577v-15.992c0-.873.701-1.576 1.575-1.576z"/><path d="m199.561 238.725c-1.796 0-3.284 1.489-3.284 3.284v15.992c0 1.796 1.487 3.285 3.284 3.285h15.993c1.796 0 3.284-1.488 3.284-3.285v-15.992c0-1.796-1.487-3.284-3.284-3.284zm0 1.708h15.993c.873 0 1.575.704 1.575 1.576v15.992c0 .874-.702 1.577-1.575 1.577h-15.993c-.872 0-1.575-.704-1.575-1.577v-15.992c-.001-.873.702-1.576 1.575-1.576z"/><path d="m223.432 238.725c-1.796 0-3.284 1.489-3.284 3.284v15.992c0 1.796 1.488 3.285 3.284 3.285h15.993c1.796 0 3.284-1.488 3.284-3.285v-15.992c0-1.796-1.488-3.284-3.284-3.284zm0 1.708h15.993c.873 0 1.575.704 1.575 1.576v15.992c0 .874-.702 1.577-1.575 1.577h-15.993c-.873 0-1.575-.704-1.575-1.577v-15.992c0-.873.702-1.576 1.575-1.576z"/><path d="m247.294 238.725c-1.795 0-3.257 1.487-3.257 3.284v15.992c0 1.796 1.461 3.285 3.257 3.285h15.994c1.795 0 3.284-1.488 3.284-3.285v-15.992c0-1.795-1.488-3.284-3.284-3.284zm0 1.708h15.994c.872 0 1.576.704 1.576 1.576v15.992c0 .874-.704 1.577-1.576 1.577h-15.994c-.873 0-1.548-.704-1.548-1.577v-15.992c0-.872.677-1.576 1.548-1.576z"/><path d="m271.166 238.725c-1.795 0-3.257 1.487-3.257 3.284v15.992c0 1.797 1.461 3.285 3.257 3.285h16.02c1.796 0 3.257-1.488 3.257-3.285v-15.992c0-1.795-1.46-3.284-3.257-3.284zm0 1.708h16.02c.873 0 1.549.704 1.549 1.576v15.992c0 .874-.677 1.577-1.549 1.577h-16.02c-.871 0-1.548-.704-1.548-1.577v-15.992c0-.872.676-1.576 1.548-1.576z"/><path d="m295.063 238.725c-1.796 0-3.284 1.487-3.284 3.284v15.992c0 1.796 1.487 3.285 3.284 3.285h15.993c1.795 0 3.257-1.488 3.257-3.285v-15.992c0-1.795-1.46-3.284-3.257-3.284zm0 1.708h15.993c.872 0 1.548.704 1.548 1.576v15.992c0 .874-.676 1.577-1.548 1.577h-15.993c-.873 0-1.575-.704-1.575-1.577v-15.992c0-.872.703-1.576 1.575-1.576z"/><path d="m318.934 238.725c-1.795 0-3.283 1.487-3.283 3.284v15.992c0 1.797 1.488 3.285 3.283 3.285h15.993c1.796 0 3.258-1.488 3.258-3.285v-15.992c0-1.795-1.46-3.284-3.258-3.284zm0 1.708h15.993c.873 0 1.55.704 1.55 1.576v15.992c0 .874-.677 1.577-1.55 1.577h-15.993c-.872 0-1.574-.704-1.574-1.577v-15.992c-.001-.872.703-1.576 1.574-1.576z"/><path d="m342.797 238.725c-1.795 0-3.283 1.487-3.283 3.284v15.992c0 1.796 1.488 3.285 3.283 3.285h15.993c1.796 0 3.284-1.488 3.284-3.285v-.854-15.139c0-1.795-1.487-3.284-3.284-3.284h-15.993zm0 1.708h15.993c.872 0 1.576.704 1.576 1.576v15.992c0 .874-.704 1.577-1.576 1.577h-15.993c-.873 0-1.575-.704-1.575-1.577v-15.992c0-.872.704-1.576 1.575-1.576z"/><path d="m366.669 238.725c-1.796 0-3.258 1.487-3.258 3.284v15.992c0 1.797 1.462 3.285 3.258 3.285h15.992c1.795 0 3.284-1.488 3.284-3.285v-15.992c0-1.795-1.487-3.284-3.284-3.284zm0 1.708h15.992c.873 0 1.575.704 1.575 1.576v15.992c0 .874-.702 1.577-1.575 1.577h-15.992c-.874 0-1.55-.704-1.55-1.577v-15.992c0-.872.678-1.576 1.55-1.576z"/><path d="m390.539 238.725c-1.795 0-3.257 1.487-3.257 3.284v15.992c0 1.796 1.462 3.285 3.257 3.285h28.89c1.795 0 3.283-1.488 3.283-3.285v-15.992c0-1.795-1.486-3.284-3.283-3.284zm0 1.708h28.89c.872 0 1.574.704 1.574 1.576v15.992c0 .874-.702 1.577-1.574 1.577h-28.89c-.873 0-1.549-.704-1.549-1.577v-15.992c0-.872.678-1.576 1.549-1.576z"/><path d="m127.952 262.621c-1.795 0-3.284 1.462-3.284 3.258v16.02c0 1.796 1.488 3.258 3.284 3.258h15.993c1.796 0 3.284-1.462 3.284-3.258v-.854-15.165c0-1.796-1.487-3.258-3.284-3.258h-15.993zm0 1.71h15.993c.872 0 1.575.677 1.575 1.548v16.02c0 .873-.703 1.549-1.575 1.549h-15.993c-.872 0-1.575-.678-1.575-1.549v-16.02c0-.871.703-1.548 1.575-1.548z"/><path d="m151.818 262.621c-1.795 0-3.284 1.462-3.284 3.258v16.02c0 1.796 1.488 3.258 3.284 3.258h15.994c1.795 0 3.284-1.462 3.284-3.258v-16.02c0-1.796-1.489-3.258-3.284-3.258zm0 1.71h15.994c.872 0 1.575.677 1.575 1.548v16.02c0 .873-.704 1.549-1.575 1.549h-15.994c-.872 0-1.575-.678-1.575-1.549v-16.02c0-.871.703-1.548 1.575-1.548z"/><path d="m175.69 262.621c-1.796 0-3.257 1.462-3.257 3.258v16.02c0 1.796 1.461 3.258 3.257 3.258h186.279c1.796 0 3.284-1.462 3.284-3.258v-16.02c0-1.795-1.486-3.258-3.284-3.258zm0 1.71h186.279c.873 0 1.575.677 1.575 1.548v16.02c0 .873-.702 1.549-1.575 1.549h-186.279c-.872 0-1.549-.678-1.549-1.549v-16.02c0-.871.677-1.548 1.549-1.548z"/><path d="m80.588 190.956c-1.795 0-3.284 1.461-3.284 3.258v16.02c0 1.796 1.489 3.258 3.284 3.258h22.027c1.49 0 2.708-1.032 3.097-2.403h.187v-.854-16.02c0-1.796-1.487-3.258-3.284-3.258h-22.027zm0 1.709h22.027c.873 0 1.575.677 1.575 1.549v15.165.854c0 .873-.702 1.549-1.575 1.549h-22.027c-.871 0-1.575-.678-1.575-1.549v-16.02c0-.872.704-1.548 1.575-1.548z"/><path d="m110.491 190.956c-1.795 0-3.284 1.461-3.284 3.258v16.02c0 1.796 1.488 3.258 3.284 3.258h15.993c1.796 0 3.284-1.462 3.284-3.258v-16.02c0-1.796-1.487-3.258-3.284-3.258zm0 1.709h15.993c.873 0 1.575.677 1.575 1.549v16.02c0 .873-.702 1.549-1.575 1.549h-15.993c-.873 0-1.575-.677-1.575-1.549v-16.02c0-.873.703-1.549 1.575-1.549z"/><path d="m134.363 190.956c-1.795 0-3.257 1.461-3.257 3.258v16.02c0 1.796 1.461 3.258 3.257 3.258h15.993c1.796 0 3.284-1.462 3.284-3.258v-16.02c0-1.796-1.487-3.258-3.284-3.258zm0 1.709h15.993c.873 0 1.575.677 1.575 1.549v16.02c0 .873-.702 1.549-1.575 1.549h-15.993c-.873 0-1.548-.677-1.548-1.549v-16.02c0-.873.676-1.549 1.548-1.549z"/><path d="m158.226 190.956c-1.796 0-3.257 1.462-3.257 3.258v16.02c0 1.795 1.461 3.258 3.257 3.258h16.02c1.796 0 3.257-1.462 3.257-3.258v-16.02c0-1.796-1.461-3.258-3.257-3.258zm0 1.709h16.02c.873 0 1.548.677 1.548 1.549v16.02c0 .873-.675 1.549-1.548 1.549h-16.02c-.873 0-1.548-.676-1.548-1.549v-16.02c0-.874.675-1.549 1.548-1.549z"/><path d="m182.097 190.956c-1.795 0-3.257 1.461-3.257 3.258v16.02c0 1.796 1.461 3.258 3.257 3.258h16.02c1.796 0 3.258-1.462 3.258-3.258v-16.02c0-1.796-1.461-3.258-3.258-3.258zm0 1.709h16.02c.875 0 1.549.676 1.549 1.549v16.02c0 .873-.675 1.549-1.549 1.549h-16.02c-.873 0-1.548-.677-1.548-1.549v-16.02c0-.873.676-1.549 1.548-1.549z"/><path d="m205.994 190.956c-1.796 0-3.284 1.462-3.284 3.258v16.02c0 1.795 1.487 3.258 3.284 3.258h15.993c1.796 0 3.257-1.462 3.257-3.258v-16.02c0-1.796-1.461-3.258-3.257-3.258zm0 1.709h15.993c.873 0 1.548.677 1.548 1.549v16.02c0 .873-.675 1.549-1.548 1.549h-15.993c-.874 0-1.575-.676-1.575-1.549v-16.02c0-.874.701-1.549 1.575-1.549z"/><path d="m229.866 190.956c-1.795 0-3.284 1.461-3.284 3.258v16.02c0 1.796 1.488 3.258 3.284 3.258h15.993c1.796 0 3.285-1.462 3.285-3.258v-16.02c0-1.796-1.488-3.258-3.285-3.258zm0 1.709h15.993c.873 0 1.576.676 1.576 1.549v16.02c0 .873-.704 1.549-1.576 1.549h-15.993c-.873 0-1.575-.677-1.575-1.549v-16.02c0-.873.703-1.549 1.575-1.549z"/><path d="m253.737 190.956c-1.795 0-3.257 1.461-3.257 3.258v16.02c0 1.796 1.462 3.258 3.257 3.258h15.993c1.796 0 3.284-1.462 3.284-3.258v-16.02c0-1.796-1.487-3.258-3.284-3.258zm0 1.709h15.993c.873 0 1.575.677 1.575 1.549v16.02c0 .873-.702 1.549-1.575 1.549h-15.993c-.872 0-1.548-.678-1.548-1.549v-16.02c-.001-.873.676-1.549 1.548-1.549z"/><path d="m277.6 190.956c-1.795 0-3.258 1.461-3.258 3.258v16.02c0 1.796 1.462 3.258 3.258 3.258h15.993c1.796 0 3.284-1.462 3.284-3.258v-16.02c0-1.796-1.487-3.258-3.284-3.258zm0 1.709h15.993c.873 0 1.575.676 1.575 1.549v16.02c0 .873-.703 1.549-1.575 1.549h-15.993c-.873 0-1.549-.677-1.549-1.549v-16.02c0-.873.677-1.549 1.549-1.549z"/><path d="m301.472 190.956c-1.796 0-3.258 1.461-3.258 3.258v16.02c0 1.796 1.461 3.258 3.258 3.258h16.02c1.795 0 3.257-1.462 3.257-3.258v-16.02c0-1.796-1.462-3.258-3.257-3.258zm0 1.709h16.02c.873 0 1.548.676 1.548 1.549v16.02c0 .873-.677 1.549-1.548 1.549h-16.02c-.873 0-1.549-.678-1.549-1.549v-16.02c0-.873.676-1.549 1.549-1.549z"/><path d="m325.343 190.956c-1.796 0-3.258 1.461-3.258 3.258v16.02c0 1.796 1.462 3.258 3.258 3.258h16.019c1.797 0 3.259-1.462 3.259-3.258v-16.02c0-1.796-1.462-3.258-3.259-3.258zm0 1.709h16.019c.873 0 1.55.676 1.55 1.549v16.02c0 .873-.677 1.549-1.55 1.549h-16.019c-.874 0-1.55-.677-1.55-1.549v-16.02c0-.873.676-1.549 1.55-1.549z"/><path d="m349.24 190.956c-1.796 0-3.284 1.461-3.284 3.258v16.02c0 1.796 1.486 3.258 3.284 3.258h15.993c1.794 0 3.258-1.462 3.258-3.258v-16.02c0-1.796-1.462-3.258-3.258-3.258zm0 1.709h15.993c.872 0 1.548.676 1.548 1.549v16.02c0 .873-.677 1.549-1.548 1.549h-15.993c-.874 0-1.576-.678-1.576-1.549v-16.02c0-.873.703-1.549 1.576-1.549z"/><path d="m373.103 190.956c-1.795 0-3.283 1.461-3.283 3.258v16.02c0 1.796 1.486 3.258 3.283 3.258h15.993c1.794 0 3.284-1.461 3.284-3.258v-16.02c0-1.796-1.489-3.258-3.284-3.258zm0 1.709h15.993c.873 0 1.575.677 1.575 1.549v16.02c0 .873-.704 1.549-1.575 1.549h-15.993c-.874 0-1.577-.677-1.577-1.549v-16.02c-.001-.873.704-1.549 1.577-1.549z"/><path d="m396.974 190.956c-1.796 0-3.257 1.461-3.257 3.258v16.02c0 1.796 1.46 3.258 3.257 3.258h28.488c1.794 0 3.258-1.462 3.258-3.258v-16.02c0-1.796-1.462-3.258-3.258-3.258zm0 1.709h28.488c.873 0 1.549.676 1.549 1.549v16.02c0 .873-.677 1.549-1.549 1.549h-28.488c-.872 0-1.548-.677-1.548-1.549v-16.02c0-.873.676-1.549 1.548-1.549z"/><path d="m96.767 131.953c-1.796 0-3.257 1.461-3.257 3.257v16.02c0 1.795 1.461 3.257 3.257 3.257h25.685c1.794 0 3.257-1.461 3.257-3.257v-16.02c0-1.796-1.462-3.257-3.257-3.257zm0 1.71h25.685c.871 0 1.548.675 1.548 1.548v16.02c0 .873-.677 1.549-1.548 1.549h-25.685c-.873 0-1.548-.676-1.548-1.549v-16.02c0-.874.676-1.548 1.548-1.548z"/><path d="m131.93 131.953c-1.796 0-3.284 1.461-3.284 3.257v16.02c0 1.794 1.488 3.257 3.284 3.257h25.658c1.795 0 3.284-1.461 3.284-3.257v-16.02c0-1.796-1.489-3.257-3.284-3.257zm0 1.71h25.658c.871 0 1.575.675 1.575 1.548v16.02c0 .873-.704 1.549-1.575 1.549h-25.658c-.873 0-1.576-.676-1.576-1.549v-16.02c0-.874.704-1.548 1.576-1.548z"/><path d="m167.069 131.953c-1.796 0-3.257 1.462-3.257 3.257v16.02c0 1.794 1.46 3.257 3.257 3.257h25.684c1.795 0 3.257-1.461 3.257-3.257v-16.02c0-1.796-1.462-3.257-3.257-3.257zm0 1.71h25.684c.872 0 1.548.675 1.548 1.548v16.02c0 .873-.677 1.549-1.548 1.549h-25.684c-.874 0-1.549-.676-1.549-1.549v-16.02c.001-.875.677-1.548 1.549-1.548z"/><path d="m202.227 131.953c-1.796 0-3.285 1.462-3.285 3.257v16.02c0 1.794 1.488 3.257 3.285 3.257h25.657c1.796 0 3.285-1.461 3.285-3.257v-.854-15.166c0-1.796-1.489-3.257-3.285-3.257zm0 1.71h25.657c.872 0 1.576.675 1.576 1.548v16.02c0 .873-.703 1.549-1.576 1.549h-25.657c-.874 0-1.576-.676-1.576-1.549v-16.02c0-.875.703-1.548 1.576-1.548z"/><path d="m237.367 131.953c-1.795 0-3.257 1.461-3.257 3.257v16.02c0 1.794 1.461 3.257 3.257 3.257h25.685c1.795 0 3.257-1.461 3.257-3.257v-16.02c0-1.795-1.461-3.257-3.257-3.257zm0 1.71h25.685c.873 0 1.548.674 1.548 1.548v16.02c0 .873-.676 1.549-1.548 1.549h-25.685c-.872 0-1.548-.676-1.548-1.549v-16.02c-.001-.874.676-1.548 1.548-1.548z"/><path d="m361.919 131.953c-1.795 0-3.283 1.461-3.283 3.257v16.02c0 1.796 1.488 3.257 3.283 3.257h25.657c1.797 0 3.257-1.461 3.257-3.257v-16.02c0-1.795-1.46-3.257-3.257-3.257zm0 1.71h25.657c.874 0 1.548.674 1.548 1.548v16.02c0 .873-.674 1.549-1.548 1.549h-25.657c-.871 0-1.575-.676-1.575-1.549v-16.02c0-.873.704-1.548 1.575-1.548z"/><path d="m397.05 131.953c-1.795 0-3.257 1.461-3.257 3.257v16.02c0 1.796 1.462 3.257 3.257 3.257h25.684c1.796 0 3.258-1.461 3.258-3.257v-16.02c0-1.794-1.46-3.257-3.258-3.257zm0 1.71h25.684c.873 0 1.549.674 1.549 1.548v16.02c0 .873-.676 1.549-1.549 1.549h-25.684c-.872 0-1.548-.676-1.548-1.549v-16.02c0-.873.678-1.548 1.548-1.548z"/><path d="m486.845 184.549c-3.623 0-7.254 1.384-10.013 4.135l-24.675 24.675c-5.514 5.513-5.514 14.481 0 19.997l24.296 24.271c5.516 5.516 14.484 5.513 19.998 0l24.671-24.671c5.507-5.506 5.515-14.453.026-19.972l-.026-.026-24.297-24.269c-2.757-2.758-6.365-4.139-9.986-4.139zm0 1.682c3.181 0 6.354 1.228 8.784 3.657l24.297 24.297c4.862 4.862 4.862 12.706 0 17.568l-24.671 24.669c-4.861 4.862-12.707 4.864-17.567 0l-24.296-24.296c-4.862-4.862-4.86-12.709 0-17.567l24.669-24.671c2.431-2.431 5.604-3.657 8.784-3.657z"/><path d="m486.657 185.882c-3.104 0-6.207 1.187-8.569 3.551l-12.202 12.201-.16.16-.454.427.026.027-.16.133-12.201 12.201c-4.728 4.729-4.728 12.413 0 17.142l12.201 12.201.16.134-.026.026.454.427.16.16 12.202 12.201c4.727 4.729 12.413 4.729 17.141 0l12.199-12.201.16-.16.428-.427.16-.16 12.202-12.201c4.728-4.728 4.728-12.412 0-17.14l-12.202-12.202-.16-.16-.428-.427-.16-.161-12.199-12.199c-2.364-2.364-5.467-3.551-8.571-3.551v-.002zm0 1.709c2.664 0 5.332 1.007 7.369 3.044l11.586 11.585-18.957 18.958-18.955-18.958 11.586-11.585c2.038-2.037 4.705-3.044 7.369-3.044zm-20.931 16.607 18.957 18.956-18.957 18.957-11.588-11.587c-4.073-4.075-4.073-10.662 0-14.738l11.586-11.594zm41.864 0 11.586 11.587c4.075 4.074 4.075 10.662 0 14.738l-11.584 11.593-18.96-18.959 18.96-18.957zm-20.933 20.906 18.957 18.983-11.588 11.586c-4.073 4.077-10.662 4.077-14.738 0l-11.594-11.61 18.96-18.959z"/><path d="m451.628 182.438c-3.129 0-5.687 2.558-5.687 5.687v70.061c0 3.129 2.558 5.687 5.687 5.687h70.059c3.132 0 5.687-2.558 5.687-5.687v-70.061c0-3.129-2.555-5.687-5.687-5.687zm0 1.708h70.059c2.207 0 3.979 1.772 3.979 3.978v70.061c0 2.206-1.771 3.979-3.979 3.979h-70.059c-2.204 0-3.979-1.773-3.979-3.979v-70.061c0-2.205 1.775-3.978 3.979-3.978z"/><path d="m77.25 137.584c-.908 0-1.655.75-1.655 1.656v6.968c0 .905.749 1.682 1.655 1.682h9.131c.907 0 1.655-.776 1.655-1.682v-6.968c0-.906-.748-1.656-1.655-1.656zm.053 1.709h9.024v6.889h-9.024z"/><path d="m68.119 222.653c-.906 0-1.655.776-1.655 1.683v2.67c0 .905.75 1.655 1.655 1.655h7.796c.905 0 1.655-.747 1.655-1.655v-2.67c0-.907-.748-1.683-1.655-1.683z"/><path d="m431.789 222.653c-.906 0-1.656.776-1.656 1.683v2.67c0 .905.751 1.655 1.656 1.655h7.769c.906 0 1.656-.747 1.656-1.655v-2.67c0-.906-.748-1.683-1.656-1.683z"/><path d="m51.779 110.594v4.486h1.709v-4.486z"/><path d="m543.927 110.329v4.699h1.709v-4.699z"/><path d="m369.42 44.779c-.906 0-1.655.775-1.655 1.682v14.178c0 .906.749 1.655 1.655 1.655h.508c.905 0 1.654-.75 1.654-1.655v-14.178c0-.905-.749-1.682-1.654-1.682zm.054 1.709h.4v14.098h-.4z"/><path d="m474.294 44.779c-.906 0-1.655.777-1.655 1.682v14.178c0 .905.749 1.655 1.655 1.655h.508c.906 0 1.655-.749 1.655-1.655v-14.178c0-.906-.749-1.682-1.655-1.682zm.054 1.709h.4v14.098h-.4z"/></g></svg>