<svg height="350.26" viewBox="0 0 598.189 350.26" width="598.189" xmlns="http://www.w3.org/2000/svg"><g fill="#f4f4f4"><path d="m415.095 188.464v-25.334h37.499v-138c-.009-4.418-3.582-7.992-8-8h-289.999c-4.42.008-7.994 3.582-8 8l-.002 138h37.501v24.75h-2v-22.75h-37.5v-140.002c0-5.522 4.478-9.999 10.001-9.999h289.999c5.523 0 10.001 4.477 10.001 9.999v140.002l-37.5-.002v23.336z"/><path d="m154.595 337.128c-5.525 0-10-4.478-10-10v-149h1.999v149c.008 4.42 3.583 7.992 8.001 8.002h289.999c4.419-.01 7.991-3.582 8.001-8.002v-149h1.999v149c0 5.522-4.478 10-10 10z"/><path d="m156.259 189.464v-.002-1-1l286.67.002c5.337-.012 9.654-4.328 9.663-9.668-.009-5.336-4.326-9.656-9.663-9.666h-286.67c-5.337.009-9.655 4.328-9.666 9.666.011 5.34 4.328 9.658 9.666 9.668v.998 1c-6.441 0-11.664-5.223-11.666-11.666.002-6.444 5.225-11.666 11.666-11.666h286.67c6.441 0 11.663 5.222 11.663 11.666 0 6.443-5.222 11.666-11.663 11.666h-286.67z"/><path d="m223.763 156.796c-2.765 0-5-2.238-5.003-5v-115.334c.003-2.761 2.238-5 5.003-5h151.666c2.763 0 4.997 2.238 4.997 5v115.333c0 2.761-2.234 5-4.997 5h-151.666zm-3.003-120.334v115.333c.005 1.656 1.345 2.996 3.003 3h151.666c1.655-.004 2.996-1.344 3-3v-115.333c-.004-1.657-1.345-2.996-3-3h-151.666c-1.659.004-2.998 1.345-3.003 3z"/><path d="m229.095 149.796c-1.658-.002-3-1.342-3.002-3l.002-105.333c0-1.657 1.342-3 3-3h140.999c1.657 0 2.999 1.344 2.999 3v105.333c0 1.656-1.342 3-2.999 3zm-1-108.334-.002 105.333c.002.549.45.998 1.002 1h140.999c.554-.002.998-.447 1-1v-105.333c-.002-.552-.446-.998-1-1h-140.999c-.552.002-1 .449-1 1z"/><path d="m218.345 317.255v-119.752c0-2.209 1.79-3.998 4-3.998l154.499-.002c2.21.002 4 1.791 4 4v119.752c0 2.207-1.79 3.998-4 3.998l-154.499.002c-2.21-.002-4-1.793-4-4zm1.999-119.752v119.752c.003 1.104.897 1.996 2.001 1.998h154.499c1.104-.002 1.997-.896 1.999-1.998h.002l-.002-119.752c-.002-1.104-.895-1.998-1.999-2h-154.499c-1.104.002-1.998.896-2.001 2z"/><path d="m227.969 312.753c-1.104 0-1.999-.896-1.999-1.998v-106.75c0-1.107.895-2.002 1.999-2.002h143.25c1.104 0 1.999.895 1.999 2.002v106.75c0 1.104-.895 1.998-1.999 1.998zm0-108.748v106.75h143.25v-106.75-.002h-143.25z"/><path d="m173.845 267.003c-1.105 0-2.001-.895-2.001-2v-12.062h-12.063c-1.105 0-1.999-.896-1.999-1.999v-13.251c0-1.104.894-2 1.999-2h12.063v-12.063c0-1.104.896-1.998 2.001-1.998h13.249c1.105 0 2 .895 2 1.998v12.063h12.063c1.105 0 1.999.896 1.999 2v13.251c0 1.104-.893 1.999-1.999 1.999h-12.063v12.063c0 1.104-.896 1.998-2 1.998h-13.249zm0-2h13.249v-12.188c.006-.307.025-.742.354-1.199.334-.469.956-.693 1.502-.675h12.208v-13.25h-12.146c-.395 0-.891-.083-1.317-.455-.43-.376-.608-.954-.6-1.481v-12.127h-13.249v12.168c-.002.375-.075.842-.417 1.266-.343.428-.929.645-1.458.631h-12.188v13.249h12.085c.391.015.823-.008 1.34.345.53.393.648 1.022.638 1.469v12.247z"/><path d="m407.763 219.794c0-5.246 4.253-9.5 9.499-9.5 5.247 0 9.5 4.254 9.5 9.5 0 5.246-4.253 9.5-9.5 9.5-5.246 0-9.499-4.252-9.499-9.5zm1.998 0c.008 4.143 3.359 7.494 7.501 7.502 4.144-.008 7.493-3.359 7.5-7.502-.007-4.143-3.356-7.492-7.5-7.5-4.142.008-7.493 3.358-7.501 7.5z"/><path d="m407.763 255.296c0-5.25 4.253-9.502 9.499-9.502 5.247 0 9.5 4.252 9.5 9.502 0 5.244-4.253 9.498-9.5 9.498-5.246 0-9.499-4.252-9.499-9.498zm1.998 0c.008 4.141 3.359 7.49 7.501 7.5 4.144-.01 7.493-3.359 7.5-7.5-.007-4.146-3.356-7.494-7.5-7.502-4.142.008-7.493 3.357-7.501 7.502z"/><path d="m390.095 237.628c0-5.246 4.256-9.5 9.501-9.5 5.246 0 9.5 4.254 9.5 9.5 0 5.246-4.254 9.5-9.5 9.5-5.245 0-9.501-4.252-9.501-9.5zm2.001 0c.009 4.144 3.358 7.492 7.5 7.502 4.143-.01 7.492-3.358 7.5-7.502-.008-4.142-3.357-7.494-7.5-7.5-4.142.006-7.493 3.359-7.5 7.5z"/><path d="m425.931 237.628c0-5.246 4.252-9.5 9.5-9.5 5.245 0 9.499 4.254 9.499 9.5 0 5.248-4.254 9.5-9.499 9.5-5.248 0-9.5-4.252-9.5-9.5zm1.999 0c.009 4.144 3.357 7.492 7.501 7.502 4.142-.01 7.493-3.358 7.499-7.502-.006-4.142-3.357-7.492-7.499-7.5-4.144.008-7.494 3.359-7.501 7.5z"/><path d="m390.429 295.128c0-2.946 2.387-5.334 5.334-5.334 2.943 0 5.331 2.388 5.331 5.334 0 2.945-2.388 5.332-5.331 5.332-2.95 0-5.334-2.385-5.334-5.332zm1.998 0c.004 1.84 1.493 3.33 3.336 3.332 1.84-.002 3.327-1.492 3.331-3.332-.004-1.842-1.491-3.33-3.331-3.334-1.843.004-3.332 1.494-3.336 3.334z"/><path d="m390.429 312.796c0-2.947 2.388-5.334 5.333-5.334 2.945 0 5.332 2.387 5.332 5.334 0 2.945-2.387 5.332-5.332 5.332-2.947 0-5.333-2.387-5.333-5.332zm1.998 0c.005 1.84 1.493 3.328 3.335 3.332 1.841-.004 3.33-1.492 3.332-3.332-.002-1.842-1.491-3.33-3.332-3.334-1.842.004-3.33 1.492-3.335 3.334z"/><path d="m185.135 162.63c-1.657 0-2.999-1.344-2.999-3v-5.25c0-1.658 1.342-3 2.999-3h5.251c1.656 0 2.998 1.342 3 3v5.25c-.002 1.656-1.344 3-3 3zm-.999-8.252v5.252c0 .549.447.996.999.998h5.251c.55-.002.997-.449 1-.998v-5.252c-.002-.551-.45-.998-1-.998h-5.251c-.552 0-.999.447-.999.998z"/><path d="m408.803 162.628c-1.657 0-2.999-1.342-2.999-2.998v-5.252c0-1.655 1.342-2.998 2.999-2.998h5.251c1.656 0 2.997 1.34 2.999 2.998v5.252c-.002 1.658-1.343 2.998-2.999 2.998zm-1.001-8.25v5.252c.002.552.448.998 1.001.998h5.251c.549 0 .997-.447.999-.998v-5.252c-.002-.549-.45-.998-.999-1h-5.251c-.553.002-.999.449-1.001 1z"/><path d="m185.136 38.629c-1.658 0-3-1.344-3-3v-5.251c0-1.656 1.342-3 3-3h5.25c1.658 0 3 1.343 3 3v5.251c0 1.656-1.341 3-3 3zm-1.001-8.251v5.251c.002.55.449.999 1 .999h5.25c.552 0 .999-.449 1-.999v-5.251c-.002-.55-.448-.999-1-1h-5.25c-.551.002-.998.451-1 1z"/><path d="m408.803 38.628c-1.657 0-2.999-1.343-2.999-2.999v-5.251c0-1.656 1.342-2.999 2.999-2.999h5.251c1.656 0 2.997 1.341 2.999 2.999v5.251c-.002 1.658-1.343 2.999-2.999 2.999zm-1.001-8.249v5.251c.002.553.448.999 1.001.999h5.251c.549 0 .997-.448.999-.999v-5.251c-.002-.551-.45-.999-.999-1.001h-5.251c-.553.002-.999.449-1.001 1.001z"/><path d="m434.262 183.798c0 .553-.448 1-1 1h-.332c-.552 0-1-.447-1-1v-12c0-.553.448-1 1-1h.332c.552 0 1 .447 1 1z"/><path d="m439.596 183.798c0 .553-.448 1-1 1h-.332c-.552 0-1-.447-1-1v-12c0-.553.448-1 1-1h.332c.552 0 1 .447 1 1z"/><path d="m301.345 179.38c0 .828-.672 1.5-1.5 1.5-.828 0-1.5-.672-1.5-1.5v-5.25c0-.83.672-1.5 1.5-1.5.828 0 1.5.67 1.5 1.5z"/><circle cx="405.563" cy="90.942" r="1.563"/><circle cx="417.188" cy="90.942" r="1.563"/><circle cx="428.813" cy="90.942" r="1.563"/><circle cx="405.563" cy="102.317" r="1.563"/><circle cx="417.188" cy="102.317" r="1.563"/><circle cx="428.813" cy="102.317" r="1.563"/><circle cx="170.376" cy="90.942" r="1.563"/><circle cx="182.001" cy="90.942" r="1.563"/><circle cx="193.626" cy="90.942" r="1.563"/><circle cx="170.376" cy="102.317" r="1.563"/><circle cx="182.001" cy="102.317" r="1.563"/><circle cx="193.626" cy="102.317" r="1.563"/></g></svg>