<svg enable-background="new 0 0 598.189 350.26" height="350.26" viewBox="0 0 598.189 350.26" width="598.189" xmlns="http://www.w3.org/2000/svg"><g fill="#f4f4f4"><path d="m59.865 151.554v-15.136h27.786v14.136 1zm26.786-1.001v-1zm-24.786-1h23.785v-11.135h-23.785z"/><path d="m96.865 151.554v-15.136h27.786v14.136 1zm26.786-1.001v-1zm-24.785-1h23.785v-11.137h-23.785z"/><path d="m133.867 151.554v-15.136h27.784v14.136 1zm26.785-1.001v-1zm-24.784-1h23.783v-11.137h-23.783z"/><path d="m170.868 151.554v-15.136h27.786v14.136 1zm26.786-1.001v-1zm-24.785-1h23.784l-.002-11.137h-23.782z"/><path d="m207.868 151.554v-15.136h27.786v14.136 1zm26.786-1.001v-1zm-24.785-1h23.785v-11.137h-23.785z"/><path d="m244.871 151.554v-15.136h27.784v14.136 1zm26.784-1.001v-1zm-24.784-1h23.783v-11.137h-23.783z"/><path d="m281.872 151.554v-15.136h27.785v14.135 1h-27.785zm26.785-1.001v-1zm-24.786-1h23.785v-11.136h-23.785z"/><path d="m318.872 151.554v-15.136h27.786v14.135 1.001zm26.785-1.001v-1.001zm-24.785-1.001h23.784l-.001-11.135h-23.783z"/><path d="m355.873 151.553v-15.135h27.786v14.136.999zm26.785-.999v-1.001zm-24.785-1.001h23.784v-11.135h-23.784z"/><path d="m392.874 151.553v-15.136h27.784v14.137 1h-27.784zm26.784-.999v-1.001zm-24.785-1.002h23.784v-11.134h-23.784z"/><path d="m429.876 151.552v-15.136h27.785v14.137 1h-27.785zm26.784-.999v-1zm-24.783-1h23.783l-.002-11.136h-23.781z"/><path d="m466.877 151.552v-15.134h27.784v14.134 1zm26.783-1v-1zm-24.783-1h23.783v-11.135h-23.783z"/><path d="m503.877 151.553v-15.135h27.786v14.135 1zm26.786-1v-1zm-24.784-1h23.782v-11.135h-23.782z"/><path d="m42.837 188.041v-15.135h27.787v14.135 1zm26.785-1v-1.001zm-24.784-1.001h23.784v-11.135h-23.784z"/><path d="m79.837 188.041v-15.135h27.787v14.135 1zm26.786-1v-1.001zm-24.784-1.001h23.784v-11.135h-23.784z"/><path d="m116.841 188.041v-15.135h27.784v14.135 1zm26.783-1v-1.001zm-24.784-1.001h23.784v-11.135h-23.784z"/><path d="m153.841 188.041v-15.135h27.785v14.135 1zm26.784-1v-1.001zm-24.784-1.001h23.784v-11.135h-23.784z"/><path d="m190.842 188.041v-15.135h27.785v14.135 1zm26.784-1v-1.001zm-24.784-1.001h23.786v-11.135h-23.786z"/><path d="m227.843 188.041v-15.135h27.785v14.135 1zm26.784-1v-1.001zm-24.784-1.001h23.786v-11.135h-23.786z"/><path d="m264.844 188.041v-15.135h27.785v14.135 1zm26.786-1v-1.001zm-24.787-1.001h23.786v-11.135h-23.786z"/><path d="m301.845 188.04v-15.136h27.782v14.137.999zm26.785-.999v-1.001zm-24.785-1.001h23.783l-.002-11.136h-23.781z"/><path d="m338.844 188.04v-15.135h27.787v14.136.999zm26.787-.999v-1.001zm-24.785-1.001h23.783v-11.135h-23.783z"/><path d="m375.845 188.04v-15.136h27.787v14.136 1zm26.787-1v-1.001zm-24.786-1.001h23.785v-11.134h-23.785z"/><path d="m412.848 188.041v-15.137h27.786v14.137 1zm26.785-1v-1.002zm-24.785-1.002h23.784v-11.133h-23.784z"/><path d="m449.848 188.04v-15.135h27.786v14.135 1zm26.787-1v-1zm-24.788-1h23.785v-11.135h-23.785z"/><path d="m486.848 188.041v-15.136h27.787v14.136 1zm26.787-1v-1.002zm-24.785-1.002h23.783v-11.134h-23.783z"/><path d="m521.878 188.041v-15.135h27.785v14.135 1zm26.785-1v-1.002zm-24.785-1.002h23.785v-11.133h-23.785z"/><path d="m53.541 224.527v-15.137h27.784v14.136 1.001zm26.785-1.001v-1.001zm-24.785-1.001h23.784v-11.135h-23.784z"/><path d="m90.541 224.527v-15.137h27.786v14.136 1.001zm26.785-1.001v-1.001zm-24.785-1.001h23.784v-11.135h-23.784z"/><path d="m127.543 224.527v-15.137h27.784v14.136 1.001zm26.785-1.001v-1.001zm-24.785-1.001h23.784v-11.133h-23.784z"/><path d="m164.543 224.527v-15.137h27.786v14.136 1.001zm26.785-1.001v-1.001zm-24.785-1.001h23.784v-11.135h-23.784z"/><path d="m201.545 224.527v-15.137h27.784v14.136 1.001zm26.785-1.001v-1.001zm-24.785-1.001h23.784v-11.135h-23.784z"/><path d="m238.545 224.527v-15.137h27.786v14.136 1.001zm26.785-1.001v-1.001zm-24.785-1.001h23.784v-11.133h-23.784z"/><path d="m275.547 224.527v-15.137h27.784v14.136 1.001zm26.786-1.001v-1.001zm-24.786-1.001h23.784l-.002-11.133h-23.782z"/><path d="m312.547 224.527v-15.137h27.787v14.136 1.001zm26.785-1.001v-1.001zm-24.785-1.001h23.784v-11.133h-23.784z"/><path d="m349.55 224.526v-15.135h27.785v14.136.999zm26.785-.999v-1.002zm-24.787-1.002h23.786l-.002-11.135h-23.784z"/><path d="m386.548 224.527v-15.136h27.785v14.135 1.001zm26.787-1.001v-1.001zm-24.785-1.001h23.784l-.002-11.134h-23.782z"/><path d="m423.552 224.527v-15.136h27.785v14.135 1.001zm26.784-1.001v-1.001zm-24.784-1.001h23.783v-11.134h-23.783z"/><path d="m460.551 224.526v-15.135h27.786v14.136.999zm26.785-.999v-1.001zm-24.784-1.001h23.782v-11.135h-23.782z"/><path d="m497.552 224.527v-15.136h60.383v14.135 1.001zm59.381-1.001v-1.001zm-57.38-1.001h56.379v-11.134h-56.379z"/><path d="m72.514 261.015v-15.136h27.785v14.136 1zm26.786-1v-1.001zm-24.785-1.001h23.784v-11.135h-23.784z"/><path d="m109.516 261.015v-15.136h27.784v14.136 1zm26.784-1v-1.001zm-24.783-1.001h23.783v-11.135h-23.783z"/><path d="m146.516 261.015v-15.136h27.785v14.136 1zm26.785-1v-1.001zm-24.785-1.001h23.784v-11.135h-23.784z"/><path d="m183.518 261.015v-15.136h27.784v14.136 1zm26.783-1v-1.001zm-24.783-1.001h23.783v-11.135h-23.783z"/><path d="m220.517 261.015v-15.136h27.787v14.136 1zm26.785-1v-1.001zm-24.784-1.001h23.786l-.002-11.135h-23.784z"/><path d="m257.519 261.015v-15.136h27.784v14.136 1zm26.785-1v-1.001zm-24.784-1.001h23.783v-11.135h-23.783z"/><path d="m294.521 261.015v-15.136h27.785v14.136 1zm26.785-1v-1.001zm-24.785-1.001h23.783v-11.135h-23.783z"/><path d="m331.52 261.015v-15.136h27.787v14.136 1zm26.785-1v-1.001zm-24.784-1.001h23.783v-11.135h-23.783z"/><path d="m368.521 261.015v-15.137h27.787v14.137 1zm26.787-1v-1.001zm-24.786-1.001h23.785l-.002-11.135h-23.783z"/><path d="m405.523 261.015v-15.137h27.785v14.138.999zm26.784-.999v-1.001zm-24.783-1.001h23.783v-11.135h-23.783z"/><path d="m442.523 261.015v-15.137h27.787v14.138.999zm26.786-.999v-1.001zm-24.786-1.001h23.785v-11.137h-23.785z"/><path d="m479.524 261.016v-15.138h27.787v14.137 1.001zm26.785-1.001v-1.001zm-24.784-1.001h23.783v-11.135h-23.783z"/><path d="m143.543 297.503v-15.137h27.784v14.136 1.001zm26.785-1.001v-1zm-24.786-1h23.786l-.002-11.135h-23.784z"/><path d="m180.545 297.503v-15.137h27.784v14.136 1.001zm26.785-1.001v-1zm-24.786-1h23.784v-11.135h-23.784z"/><path d="m217.546 297.503v-15.137h175.924v14.136 1.001zm174.923-1.001v-1zm-172.922-1h171.922v-11.135h-171.922z"/><path d="m402.441 297.503v-15.137h27.786v14.136 1.001zm26.786-1.001v-1zm-24.785-1h23.784v-11.137h-23.784z"/><path d="m439.443 297.503v-15.137h27.786v14.136 1.001zm26.785-1.001v-1.001zm-24.786-1.001h23.785v-11.136h-23.785z"/><path d="m31.513 108.903c-1.247-.017-2.251-.07-3.074-.846-.775-.824-.83-1.826-.845-3.073v-90.976c0-2.972 2.407-5.378 5.378-5.38h532.231c2.972.002 5.378 2.409 5.38 5.38v90.976c-.017 1.247-.072 2.25-.847 3.073-.822.775-1.825.829-3.073.846zm535.15-2.001c1.17.015 1.626-.181 1.658-.259.081-.032.276-.488.259-1.659l.003-90.976c-.005-1.865-1.513-3.375-3.38-3.379h-532.231c-1.865.004-3.375 1.514-3.377 3.379v90.976c-.017 1.17.18 1.627.259 1.659.032.079.489.274 1.659.259z"/><path d="m29.215 107.93 1.999-.055 5.515 208.546-2 .054z"/><path d="m560.96 316.422 5.513-208.546 2.001.053-5.514 208.546z"/><path d="m37.513 342.422c-2.972 0-5.379-2.407-5.379-5.379v-17.188c0-1.327.265-2.486 1.089-3.316.832-.825 1.991-1.091 3.318-1.091l525.257.002c1.326-.002 2.485.264 3.317 1.089.824.83 1.089 1.989 1.089 3.316v17.188c-.002 2.972-2.409 5.379-5.379 5.379zm-2.877-24.47c-.273.266-.501.811-.503 1.902v17.188c.004 1.868 1.514 3.375 3.379 3.379h523.312c1.866-.004 3.375-1.511 3.377-3.379v-17.188c0-1.092-.227-1.637-.503-1.902-.265-.276-.809-.503-1.901-.503h-525.256c-1.093 0-1.637.227-1.905.503z"/><path d="m455.741 46.63c-2.701 0-4.893-2.189-4.893-4.891v-17.028c0-2.702 2.191-4.891 4.893-4.893l76.381.002c2.701 0 4.891 2.189 4.893 4.891v17.028c-.002 2.702-2.191 4.891-4.893 4.891zm-2.892-21.919v17.028c.002 1.597 1.295 2.89 2.892 2.892h76.381c1.595-.002 2.89-1.295 2.892-2.892v-17.028c-.002-1.597-1.297-2.89-2.892-2.892h-76.381c-1.597.002-2.89 1.295-2.892 2.892z"/></g></svg>