<svg height="350.26" viewBox="0 0 598.189 350.26" width="598.189" xmlns="http://www.w3.org/2000/svg"><g fill="#f4f4f4"><path d="m122.456 80.856c-39.209 0-71.001 31.792-71.001 71.001s31.792 71.031 71.001 71.031c39.208 0 71.031-31.822 71.031-71.031s-31.823-71.001-71.031-71.001zm0 1.891c38.187 0 69.14 30.923 69.14 69.11s-30.953 69.14-69.14 69.14-69.11-30.953-69.11-69.14c-.001-38.187 30.923-69.11 69.11-69.11z"/><path d="m122.456 96.279c-30.683 0-55.548 24.896-55.548 55.578s24.866 55.578 55.548 55.578 55.578-24.896 55.578-55.578-24.896-55.578-55.578-55.578zm0 1.891c29.66 0 53.687 24.026 53.687 53.687 0 29.66-24.026 53.687-53.687 53.687s-53.657-24.026-53.657-53.687c-.001-29.66 23.996-53.687 53.657-53.687z"/><path d="m122.456 138.738c-7.234 0-13.119 5.885-13.119 13.119s5.885 13.119 13.119 13.119 13.119-5.884 13.119-13.119-5.885-13.119-13.119-13.119zm0 1.891c6.212 0 11.228 5.016 11.228 11.228s-5.016 11.228-11.228 11.228-11.228-5.016-11.228-11.228 5.015-11.228 11.228-11.228z"/><path d="m499.119 93.532c-2.552 0-4.639 2.087-4.639 4.639s2.087 4.639 4.639 4.639c2.553 0 4.64-2.087 4.64-4.639s-2.087-4.639-4.64-4.639zm0 1.891c1.529 0 2.748 1.218 2.748 2.748s-1.219 2.748-2.748 2.748c-1.53 0-2.747-1.218-2.747-2.748s1.217-2.748 2.747-2.748z"/><path d="m513.656 84.579c-2.552 0-4.668 2.087-4.668 4.639s2.116 4.639 4.668 4.639c2.553 0 4.64-2.087 4.64-4.639s-2.087-4.639-4.64-4.639zm0 1.891c1.529 0 2.748 1.218 2.748 2.748s-1.219 2.748-2.748 2.748c-1.53 0-2.777-1.218-2.777-2.748s1.247-2.748 2.777-2.748z"/><path d="m533.275 96.22c-2.552 0-4.639 2.087-4.639 4.639s2.087 4.639 4.639 4.639c2.553 0 4.64-2.087 4.64-4.639s-2.087-4.639-4.64-4.639zm0 1.891c1.529 0 2.748 1.218 2.748 2.748s-1.219 2.748-2.748 2.748c-1.53 0-2.747-1.218-2.747-2.748s1.217-2.748 2.747-2.748z"/><path d="m549.763 111.969c-2.552 0-4.639 2.087-4.639 4.639 0 2.551 2.087 4.639 4.639 4.639 2.553 0 4.639-2.087 4.639-4.639-.001-2.552-2.087-4.639-4.639-4.639zm0 1.891c1.529 0 2.748 1.218 2.748 2.748s-1.219 2.748-2.748 2.748c-1.531 0-2.748-1.218-2.748-2.748s1.216-2.748 2.748-2.748z"/><path d="m562.32 131.027c-2.552 0-4.639 2.117-4.639 4.668s2.087 4.639 4.639 4.639 4.639-2.087 4.639-4.639c0-2.551-2.087-4.668-4.639-4.668zm0 1.89c1.529 0 2.748 1.248 2.748 2.778s-1.219 2.748-2.748 2.748c-1.531 0-2.748-1.218-2.748-2.748s1.217-2.778 2.748-2.778z"/><path d="m570.239 152.448c-2.553 0-4.64 2.087-4.64 4.639s2.087 4.639 4.64 4.639c2.552 0 4.639-2.087 4.639-4.639s-2.087-4.639-4.639-4.639zm0 1.891c1.528 0 2.747 1.218 2.747 2.748s-1.219 2.748-2.747 2.748c-1.531 0-2.748-1.218-2.748-2.748s1.217-2.748 2.748-2.748z"/><path d="m573.135 175.081c-2.553 0-4.64 2.088-4.64 4.639s2.087 4.64 4.64 4.64c2.552 0 4.639-2.089 4.639-4.64s-2.087-4.639-4.639-4.639zm0 1.891c1.528 0 2.747 1.219 2.747 2.748 0 1.53-1.219 2.748-2.747 2.748-1.531 0-2.748-1.218-2.748-2.748s1.217-2.748 2.748-2.748z"/><path d="m570.889 197.773c-2.552 0-4.639 2.087-4.639 4.639 0 2.551 2.087 4.64 4.639 4.64 2.553 0 4.639-2.089 4.639-4.64-.001-2.552-2.087-4.639-4.639-4.639zm0 1.892c1.529 0 2.748 1.217 2.748 2.747 0 1.529-1.219 2.748-2.748 2.748-1.53 0-2.748-1.219-2.748-2.748 0-1.53 1.217-2.747 2.748-2.747z"/><path d="m563.562 219.402c-2.553 0-4.639 2.086-4.639 4.639 0 2.55 2.086 4.639 4.639 4.639 2.552 0 4.639-2.089 4.639-4.639-.001-2.553-2.088-4.639-4.639-4.639zm0 1.891c1.529 0 2.748 1.217 2.748 2.748 0 1.528-1.219 2.748-2.748 2.748-1.531 0-2.748-1.22-2.748-2.748-.001-1.531 1.216-2.748 2.748-2.748z"/><path d="m551.595 238.814c-2.552 0-4.639 2.087-4.639 4.639 0 2.55 2.087 4.639 4.639 4.639s4.639-2.089 4.639-4.639c-.001-2.552-2.088-4.639-4.639-4.639zm0 1.891c1.529 0 2.748 1.217 2.748 2.748 0 1.529-1.219 2.748-2.748 2.748-1.531 0-2.748-1.219-2.748-2.748 0-1.531 1.216-2.748 2.748-2.748z"/><path d="m535.551 255.035c-2.552 0-4.639 2.087-4.639 4.64 0 2.55 2.087 4.639 4.639 4.639s4.639-2.089 4.639-4.639c-.001-2.553-2.087-4.64-4.639-4.64zm0 1.892c1.529 0 2.748 1.217 2.748 2.748 0 1.528-1.219 2.747-2.748 2.747-1.531 0-2.748-1.219-2.748-2.747 0-1.531 1.217-2.748 2.748-2.748z"/><path d="m516.257 267.238c-2.553 0-4.639 2.087-4.639 4.639 0 2.551 2.086 4.64 4.639 4.64 2.552 0 4.639-2.089 4.639-4.64 0-2.552-2.087-4.639-4.639-4.639zm0 1.891c1.529 0 2.748 1.218 2.748 2.748 0 1.529-1.219 2.748-2.748 2.748-1.531 0-2.748-1.219-2.748-2.748 0-1.53 1.217-2.748 2.748-2.748z"/><path d="m517.113 101.687c-2.552 0-4.639 2.087-4.639 4.639s2.087 4.639 4.639 4.639c2.553 0 4.639-2.087 4.639-4.639s-2.086-4.639-4.639-4.639zm0 1.891c1.529 0 2.748 1.218 2.748 2.748s-1.219 2.748-2.748 2.748c-1.53 0-2.748-1.218-2.748-2.748 0-1.531 1.218-2.748 2.748-2.748z"/><path d="m532.803 113.683c-2.552 0-4.639 2.087-4.639 4.639s2.087 4.639 4.639 4.639 4.639-2.087 4.639-4.639c-.001-2.552-2.088-4.639-4.639-4.639zm0 1.891c1.529 0 2.748 1.218 2.748 2.748s-1.219 2.748-2.748 2.748c-1.53 0-2.748-1.218-2.748-2.748s1.217-2.748 2.748-2.748z"/><path d="m545.39 128.87c-2.552 0-4.639 2.087-4.639 4.639 0 2.551 2.087 4.639 4.639 4.639 2.553 0 4.639-2.087 4.639-4.639-.001-2.552-2.087-4.639-4.639-4.639zm0 1.891c1.529 0 2.748 1.218 2.748 2.748s-1.219 2.748-2.748 2.748c-1.53 0-2.748-1.218-2.748-2.748s1.217-2.748 2.748-2.748z"/><path d="m554.225 146.539c-2.552 0-4.639 2.087-4.639 4.639s2.087 4.639 4.639 4.639 4.639-2.087 4.639-4.639-2.088-4.639-4.639-4.639zm0 1.891c1.528 0 2.748 1.218 2.748 2.748s-1.22 2.748-2.748 2.748c-1.531 0-2.748-1.218-2.748-2.748 0-1.531 1.216-2.748 2.748-2.748z"/><path d="m558.863 165.715c-2.552 0-4.639 2.087-4.639 4.639s2.087 4.639 4.639 4.639 4.639-2.087 4.639-4.639-2.087-4.639-4.639-4.639zm0 1.89c1.529 0 2.748 1.218 2.748 2.748s-1.219 2.748-2.748 2.748c-1.531 0-2.748-1.218-2.748-2.748 0-1.529 1.217-2.748 2.748-2.748z"/><path d="m559.1 185.452c-2.552 0-4.639 2.087-4.639 4.639 0 2.551 2.087 4.64 4.639 4.64s4.639-2.089 4.639-4.64c-.001-2.552-2.088-4.639-4.639-4.639zm0 1.892c1.529 0 2.748 1.217 2.748 2.747 0 1.529-1.219 2.748-2.748 2.748-1.531 0-2.748-1.219-2.748-2.748 0-1.53 1.216-2.747 2.748-2.747z"/><path d="m554.845 204.717c-2.552 0-4.639 2.087-4.639 4.64 0 2.55 2.087 4.668 4.639 4.668 2.553 0 4.639-2.118 4.639-4.668-.001-2.553-2.087-4.64-4.639-4.64zm0 1.891c1.529 0 2.748 1.217 2.748 2.748 0 1.528-1.219 2.777-2.748 2.777-1.531 0-2.748-1.249-2.748-2.777 0-1.531 1.216-2.748 2.748-2.748z"/><path d="m546.395 222.563c-2.552 0-4.639 2.087-4.639 4.639 0 2.551 2.087 4.639 4.639 4.639s4.639-2.088 4.639-4.639c-.001-2.552-2.088-4.639-4.639-4.639zm0 1.891c1.529 0 2.748 1.218 2.748 2.748 0 1.529-1.219 2.748-2.748 2.748-1.531 0-2.748-1.219-2.748-2.748-.001-1.53 1.216-2.748 2.748-2.748z"/><path d="m534.133 238.046c-2.553 0-4.64 2.087-4.64 4.639 0 2.551 2.087 4.64 4.64 4.64 2.552 0 4.639-2.089 4.639-4.64-.001-2.552-2.087-4.639-4.639-4.639zm0 1.891c1.528 0 2.747 1.218 2.747 2.748 0 1.529-1.219 2.748-2.747 2.748-1.531 0-2.748-1.219-2.748-2.748 0-1.531 1.217-2.748 2.748-2.748z"/><path d="m518.709 250.367c-2.552 0-4.639 2.087-4.639 4.639 0 2.551 2.087 4.639 4.639 4.639s4.639-2.088 4.639-4.639c0-2.552-2.087-4.639-4.639-4.639zm0 1.891c1.529 0 2.748 1.217 2.748 2.748 0 1.529-1.219 2.748-2.748 2.748-1.531 0-2.748-1.219-2.748-2.748 0-1.531 1.217-2.748 2.748-2.748z"/><path d="m500.922 258.906c-2.552 0-4.639 2.087-4.639 4.639 0 2.551 2.087 4.639 4.639 4.639s4.639-2.088 4.639-4.639c0-2.552-2.087-4.639-4.639-4.639zm0 1.891c1.529 0 2.748 1.217 2.748 2.748 0 1.529-1.219 2.748-2.748 2.748-1.531 0-2.748-1.219-2.748-2.748 0-1.531 1.217-2.748 2.748-2.748z"/><path d="m96.897 63.837c-2.552 0-4.639 2.117-4.639 4.668s2.087 4.639 4.639 4.639 4.639-2.087 4.639-4.639-2.087-4.668-4.639-4.668zm0 1.891c1.53 0 2.748 1.248 2.748 2.777s-1.218 2.748-2.748 2.748-2.748-1.218-2.748-2.748 1.218-2.777 2.748-2.777z"/><path d="m82.36 54.884c-2.552 0-4.639 2.087-4.639 4.639s2.087 4.639 4.639 4.639 4.639-2.087 4.639-4.639c0-2.551-2.087-4.639-4.639-4.639zm0 1.891c1.53 0 2.748 1.218 2.748 2.748s-1.218 2.748-2.748 2.748-2.748-1.218-2.748-2.748 1.218-2.748 2.748-2.748z"/><path d="m62.741 66.526c-2.552 0-4.639 2.087-4.639 4.639s2.087 4.639 4.639 4.639 4.639-2.087 4.639-4.639-2.087-4.639-4.639-4.639zm0 1.891c1.53 0 2.748 1.218 2.748 2.748s-1.218 2.748-2.748 2.748-2.748-1.218-2.748-2.748 1.218-2.748 2.748-2.748z"/><path d="m46.254 82.274c-2.552 0-4.639 2.087-4.639 4.639s2.087 4.639 4.639 4.639 4.639-2.087 4.639-4.639-2.087-4.639-4.639-4.639zm0 1.891c1.53 0 2.748 1.218 2.748 2.748s-1.218 2.748-2.748 2.748-2.748-1.218-2.748-2.748 1.218-2.748 2.748-2.748z"/><path d="m33.696 101.361c-2.552 0-4.639 2.087-4.639 4.639s2.087 4.639 4.639 4.639 4.639-2.087 4.639-4.639-2.087-4.639-4.639-4.639zm0 1.891c1.53 0 2.748 1.218 2.748 2.748s-1.218 2.748-2.748 2.748-2.748-1.218-2.748-2.748 1.219-2.748 2.748-2.748z"/><path d="m25.778 122.753c-2.552 0-4.639 2.087-4.639 4.639 0 2.551 2.087 4.639 4.639 4.639s4.639-2.087 4.639-4.639c0-2.551-2.087-4.639-4.639-4.639zm0 1.892c1.53 0 2.748 1.218 2.748 2.748s-1.218 2.748-2.748 2.748-2.748-1.218-2.748-2.748c0-1.531 1.218-2.748 2.748-2.748z"/><path d="m22.882 145.386c-2.552 0-4.639 2.087-4.639 4.639s2.087 4.639 4.639 4.639 4.639-2.087 4.639-4.639-2.087-4.639-4.639-4.639zm0 1.891c1.53 0 2.748 1.218 2.748 2.748s-1.218 2.748-2.748 2.748-2.748-1.218-2.748-2.748 1.219-2.748 2.748-2.748z"/><path d="m25.128 168.079c-2.552 0-4.639 2.087-4.639 4.639 0 2.551 2.087 4.639 4.639 4.639s4.639-2.088 4.639-4.639c0-2.552-2.087-4.639-4.639-4.639zm0 1.891c1.53 0 2.748 1.218 2.748 2.748 0 1.529-1.218 2.748-2.748 2.748s-2.748-1.219-2.748-2.748c0-1.53 1.218-2.748 2.748-2.748z"/><path d="m32.456 189.707c-2.552 0-4.668 2.087-4.668 4.639 0 2.551 2.117 4.64 4.668 4.64s4.639-2.089 4.639-4.64c-.001-2.552-2.088-4.639-4.639-4.639zm0 1.892c1.53 0 2.748 1.217 2.748 2.747 0 1.529-1.218 2.748-2.748 2.748s-2.777-1.219-2.777-2.748c-.001-1.531 1.247-2.747 2.777-2.747z"/><path d="m44.422 209.119c-2.552 0-4.639 2.087-4.639 4.64 0 2.55 2.087 4.639 4.639 4.639s4.639-2.089 4.639-4.639c0-2.553-2.087-4.64-4.639-4.64zm0 1.892c1.53 0 2.748 1.217 2.748 2.748 0 1.528-1.218 2.748-2.748 2.748s-2.748-1.22-2.748-2.748c0-1.531 1.218-2.748 2.748-2.748z"/><path d="m60.466 225.341c-2.552 0-4.639 2.087-4.639 4.639 0 2.551 2.087 4.669 4.639 4.669s4.639-2.118 4.639-4.669c0-2.552-2.087-4.639-4.639-4.639zm0 1.89c1.53 0 2.748 1.218 2.748 2.748 0 1.529-1.218 2.777-2.748 2.777s-2.748-1.248-2.748-2.777c0-1.53 1.218-2.748 2.748-2.748z"/><path d="m79.76 237.544c-2.552 0-4.639 2.087-4.639 4.639 0 2.55 2.087 4.639 4.639 4.639 2.551 0 4.639-2.089 4.639-4.639 0-2.552-2.087-4.639-4.639-4.639zm0 1.891c1.53 0 2.748 1.217 2.748 2.748 0 1.529-1.218 2.748-2.748 2.748s-2.748-1.219-2.748-2.748c0-1.532 1.218-2.748 2.748-2.748z"/><path d="m78.903 71.992c-2.552 0-4.639 2.087-4.639 4.639s2.087 4.639 4.639 4.639 4.639-2.087 4.639-4.639-2.087-4.639-4.639-4.639zm0 1.891c1.53 0 2.748 1.218 2.748 2.748s-1.218 2.748-2.748 2.748-2.748-1.218-2.748-2.748 1.218-2.748 2.748-2.748z"/><path d="m63.214 83.988c-2.552 0-4.639 2.087-4.639 4.639s2.087 4.639 4.639 4.639 4.639-2.087 4.639-4.639-2.087-4.639-4.639-4.639zm0 1.891c1.53 0 2.748 1.218 2.748 2.748s-1.218 2.748-2.748 2.748-2.748-1.218-2.748-2.748 1.218-2.748 2.748-2.748z"/><path d="m50.627 99.175c-2.552 0-4.639 2.087-4.639 4.639s2.087 4.668 4.639 4.668 4.639-2.117 4.639-4.668-2.087-4.639-4.639-4.639zm0 1.891c1.53 0 2.748 1.218 2.748 2.748s-1.218 2.777-2.748 2.777-2.748-1.248-2.748-2.777 1.218-2.748 2.748-2.748z"/><path d="m41.792 116.844c-2.552 0-4.639 2.087-4.639 4.639s2.087 4.639 4.639 4.639c2.551 0 4.639-2.087 4.639-4.639s-2.087-4.639-4.639-4.639zm0 1.891c1.53 0 2.748 1.218 2.748 2.748s-1.218 2.748-2.748 2.748-2.748-1.218-2.748-2.748 1.218-2.748 2.748-2.748z"/><path d="m37.153 136.02c-2.552 0-4.639 2.087-4.639 4.639 0 2.551 2.087 4.639 4.639 4.639s4.639-2.087 4.639-4.639-2.087-4.639-4.639-4.639zm0 1.891c1.53 0 2.748 1.218 2.748 2.748s-1.218 2.748-2.748 2.748-2.748-1.218-2.748-2.748c.001-1.53 1.219-2.748 2.748-2.748z"/><path d="m36.917 155.757c-2.552 0-4.639 2.087-4.639 4.639 0 2.551 2.087 4.639 4.639 4.639s4.639-2.087 4.639-4.639c0-2.551-2.087-4.639-4.639-4.639zm0 1.891c1.53 0 2.748 1.218 2.748 2.748s-1.218 2.748-2.748 2.748-2.748-1.218-2.748-2.748 1.218-2.748 2.748-2.748z"/><path d="m41.172 175.052c-2.551 0-4.639 2.088-4.639 4.639s2.087 4.639 4.639 4.639 4.639-2.088 4.639-4.639-2.088-4.639-4.639-4.639zm0 1.89c1.529 0 2.748 1.219 2.748 2.748s-1.219 2.748-2.748 2.748-2.748-1.219-2.748-2.748 1.219-2.748 2.748-2.748z"/><path d="m49.622 192.869c-2.551 0-4.639 2.087-4.639 4.639 0 2.55 2.087 4.639 4.639 4.639s4.639-2.089 4.639-4.639c0-2.552-2.087-4.639-4.639-4.639zm0 1.891c1.53 0 2.748 1.217 2.748 2.748 0 1.529-1.218 2.748-2.748 2.748s-2.748-1.219-2.748-2.748c.001-1.531 1.218-2.748 2.748-2.748z"/><path d="m61.884 208.352c-2.552 0-4.639 2.087-4.639 4.639 0 2.55 2.087 4.639 4.639 4.639s4.639-2.089 4.639-4.639c0-2.553-2.087-4.639-4.639-4.639zm0 1.89c1.53 0 2.748 1.217 2.748 2.748 0 1.529-1.218 2.748-2.748 2.748s-2.748-1.219-2.748-2.748c0-1.531 1.218-2.748 2.748-2.748z"/><path d="m77.308 220.673c-2.552 0-4.639 2.086-4.639 4.639 0 2.55 2.087 4.639 4.639 4.639s4.639-2.089 4.639-4.639c0-2.553-2.088-4.639-4.639-4.639zm0 1.89c1.53 0 2.748 1.217 2.748 2.748 0 1.529-1.218 2.748-2.748 2.748s-2.748-1.219-2.748-2.748c0-1.531 1.218-2.748 2.748-2.748z"/><path d="m95.095 229.212c-2.551 0-4.639 2.086-4.639 4.639 0 2.55 2.087 4.639 4.639 4.639s4.639-2.089 4.639-4.639c0-2.553-2.088-4.639-4.639-4.639zm0 1.891c1.53 0 2.748 1.217 2.748 2.748 0 1.529-1.218 2.748-2.748 2.748s-2.748-1.219-2.748-2.748c0-1.532 1.218-2.748 2.748-2.748z"/><path d="m458.049 105.055c-16.909 0-30.64 13.731-30.64 30.641 0 16.909 13.73 30.64 30.64 30.64 16.908 0 30.611-13.731 30.611-30.64 0-16.91-13.703-30.641-30.611-30.641zm0 1.891c15.888 0 28.72 12.862 28.72 28.75 0 15.887-12.832 28.749-28.72 28.749-15.887 0-28.749-12.862-28.749-28.749 0-15.888 12.862-28.75 28.749-28.75z"/><path d="m458.049 113.978c-11.99 0-21.746 9.728-21.746 21.717s9.756 21.717 21.746 21.717c11.989 0 21.718-9.728 21.718-21.717s-9.729-21.717-21.718-21.717zm0 1.891c10.968 0 19.826 8.858 19.826 19.826 0 10.967-8.858 19.826-19.826 19.826-10.967 0-19.855-8.858-19.855-19.826-.001-10.967 8.888-19.826 19.855-19.826z"/><path d="m458.049 196.119c-16.909 0-30.64 13.729-30.64 30.64 0 16.908 13.73 30.641 30.64 30.641 16.908 0 30.611-13.732 30.611-30.641 0-16.91-13.703-30.64-30.611-30.64zm0 1.891c15.888 0 28.72 12.862 28.72 28.749 0 15.888-12.832 28.749-28.72 28.749-15.887 0-28.749-12.861-28.749-28.749 0-15.887 12.862-28.749 28.749-28.749z"/><path d="m458.049 205.013c-11.99 0-21.746 9.756-21.746 21.746 0 11.989 9.756 21.717 21.746 21.717 11.989 0 21.718-9.728 21.718-21.717 0-11.99-9.729-21.746-21.718-21.746zm0 1.89c10.968 0 19.826 8.889 19.826 19.855 0 10.968-8.858 19.826-19.826 19.826-10.967 0-19.855-8.858-19.855-19.826-.001-10.966 8.888-19.855 19.855-19.855z"/><path d="m403.003 149.789c-16.91 0-30.64 13.731-30.64 30.64s13.729 30.641 30.64 30.641c16.908 0 30.641-13.731 30.641-30.641 0-16.909-13.733-30.64-30.641-30.64zm0 1.891c15.888 0 28.75 12.862 28.75 28.749 0 15.888-12.862 28.75-28.75 28.75-15.887 0-28.749-12.862-28.749-28.75 0-15.887 12.862-28.749 28.749-28.749z"/><path d="m403.003 158.712c-11.99 0-21.717 9.728-21.717 21.717s9.727 21.718 21.717 21.718c11.989 0 21.747-9.729 21.747-21.718s-9.758-21.717-21.747-21.717zm0 1.891c10.968 0 19.855 8.858 19.855 19.826 0 10.969-8.888 19.827-19.855 19.827s-19.825-8.858-19.825-19.827c0-10.968 8.858-19.826 19.825-19.826z"/><path d="m512.268 149.789c-16.91 0-30.64 13.731-30.64 30.64s13.729 30.641 30.64 30.641c16.908 0 30.641-13.731 30.641-30.641-.001-16.909-13.733-30.64-30.641-30.64zm0 1.891c15.888 0 28.749 12.862 28.749 28.749 0 15.888-12.861 28.75-28.749 28.75-15.887 0-28.749-12.862-28.749-28.75 0-15.887 12.862-28.749 28.749-28.749z"/><path d="m512.268 158.712c-11.99 0-21.717 9.728-21.717 21.717s9.727 21.718 21.717 21.718c11.989 0 21.747-9.729 21.747-21.718s-9.758-21.717-21.747-21.717zm0 1.891c10.968 0 19.855 8.858 19.855 19.826 0 10.969-8.888 19.827-19.855 19.827s-19.826-8.858-19.826-19.827c-.001-10.968 8.859-19.826 19.826-19.826z"/><path d="m138.706 99.648c-3.81 4.599-7.014 12.519-8.391 20.358-1.377 7.838-1.012 15.661 3.162 19.855 4.509 4.533 12.249 5.746 20.18 4.846 7.932-.901 16.114-3.958 21.628-8.451l-1.182-1.448c-5.123 4.174-13.056 7.145-20.653 8.007s-14.798-.419-18.644-4.284c-3.344-3.361-3.958-10.647-2.63-18.201s4.527-15.306 7.978-19.471z"/><path d="m97.399 159.096c-1.913-.057-3.897.041-5.88.266-7.931.901-16.084 3.958-21.599 8.45l1.182 1.448c5.123-4.174 13.056-7.144 20.653-8.007s14.798.419 18.644 4.285c3.344 3.362 3.957 10.647 2.629 18.202-1.328 7.553-4.527 15.305-7.978 19.471l1.448 1.212c3.81-4.599 7.014-12.521 8.392-20.358 1.377-7.838 1.012-15.661-3.162-19.855-3.38-3.401-8.589-4.941-14.329-5.114z"/><path d="m148.516 159.066c-5.702-.282-10.889.712-14.035 3.841-4.532 4.51-5.717 12.25-4.816 20.181.9 7.932 3.928 16.114 8.421 21.628l1.477-1.182c-4.174-5.123-7.174-13.056-8.037-20.653s.419-14.799 4.284-18.645c3.361-3.343 10.647-3.958 18.201-2.629 7.554 1.328 15.335 4.526 19.501 7.978l1.182-1.448c-4.599-3.811-12.519-7.014-20.358-8.392-1.959-.343-3.919-.584-5.82-.679z"/><path d="m106.825 99.618-1.448 1.211c4.174 5.123 7.144 13.027 8.007 20.624s-.419 14.798-4.284 18.644c-3.361 3.344-10.647 3.987-18.201 2.659s-15.307-4.527-19.472-7.978l-1.211 1.448c4.598 3.81 12.519 7.014 20.358 8.391 7.839 1.378 15.66 1.012 19.855-3.162 4.532-4.509 5.747-12.278 4.846-20.21-.9-7.93-3.958-16.113-8.45-21.627z"/><path d="m383.089 69.924-.266.207-.178.118-.089.089-.059.088-146.493 192.676-.029.03-.029.059-.237.384-.827 1.419h1.655 157.928c2.829 0 5.969 2.984 5.969 2.984l.029.029.03.029c19.593 16.626 44.979 26.651 72.685 26.651 62.061 0 112.396-50.31 112.396-112.367 0-62.059-50.338-112.396-112.396-112.396h-89.763-.326zm.738 1.89h89.35c61.037 0 110.506 49.469 110.506 110.506s-49.469 110.477-110.506 110.477c-27.22 0-52.128-9.834-71.385-26.149 0 0-.058-.06-.06-.06-.096-.103-3.3-3.486-7.269-3.486h-156.095z"/><path d="m123.224 40.229c-62.06 0-112.396 50.338-112.396 112.396s50.337 112.368 112.396 112.368h106.191.414l.266-.296.384-.384.029-.029.03-.06 146.464-192.646.562-.738-.709-.591-.178-.118-.266-.207h-.325-173.086c-1.719 0-3.858-.964-5.496-1.98-1.637-1.016-2.777-2.039-2.777-2.039h-.029c-19.427-16.032-44.324-25.676-71.474-25.676zm0 1.891c26.704 0 51.161 9.47 70.263 25.233v-.03h.029c.016.014 1.214 1.118 2.984 2.216 1.781 1.105 4.127 2.275 6.5 2.275h171.432l-145.342 191.199-.059.089h-.03-105.777c-61.038 0-110.505-49.439-110.505-110.476s49.467-110.506 110.505-110.506z"/><path d="m375.643 70.958v1.891h7.032v-1.891z"/><path d="m230.213 262.127v1.891h6.766v-1.891z"/><path d="m122.456 142.934c-4.92 0-8.923 4.002-8.923 8.923 0 4.92 4.003 8.923 8.923 8.923s8.953-4.002 8.953-8.923c-.001-4.92-4.033-8.923-8.953-8.923zm0 1.891c3.898 0 7.062 3.134 7.062 7.032s-3.164 7.032-7.062 7.032-7.032-3.134-7.032-7.032c-.001-3.898 3.133-7.032 7.032-7.032z"/></g></svg>