<svg height="350.26" viewBox="0 0 598.189 350.26" width="598.189" xmlns="http://www.w3.org/2000/svg"><g fill="#f4f4f4"><path d="m98.749 320.09c-12.79 0-23.154-10.365-23.156-23.154l.002-99.69c0-12.787 10.364-23.154 23.154-23.154h99.692c12.788 0 23.152 10.367 23.154 23.154v99.69c-.002 12.789-10.367 23.154-23.154 23.154zm-21.154-122.845v99.69c.021 11.685 9.471 21.133 21.154 21.154h99.692c11.681-.021 21.131-9.47 21.152-21.154l.002-99.69c-.023-11.683-9.473-21.133-21.154-21.154h-99.692c-11.683.021-21.133 9.472-21.154 21.154z"/><path d="m112.703 291.706c-8.684-.002-15.723-7.041-15.723-15.726v-71.781c0-8.685 7.039-15.724 15.723-15.726h71.782c8.685.002 15.724 7.041 15.724 15.726v71.781c0 8.685-7.039 15.724-15.724 15.726zm-13.724-87.507v71.781c.015 7.58 6.145 13.71 13.724 13.725h71.782c7.579-.015 13.711-6.145 13.724-13.725v-71.781c-.013-7.58-6.145-13.71-13.724-13.725h-71.782c-7.577.015-13.709 6.148-13.724 13.725z"/><path d="m253.748 320.09c-12.787 0-23.154-10.365-23.154-23.154v-99.69c0-12.787 10.367-23.154 23.154-23.154h99.692c12.787 0 23.153 10.367 23.153 23.154v99.69c0 12.789-10.366 23.154-23.153 23.154zm-21.154-122.845v99.69c.021 11.685 9.471 21.133 21.154 21.154h99.692c11.683-.021 21.133-9.47 21.153-21.154v-99.69c-.021-11.683-9.471-21.133-21.153-21.154h-99.692c-11.683.021-21.133 9.472-21.154 21.154z"/><path d="m267.704 291.706c-8.684-.002-15.724-7.041-15.724-15.726l-.002-71.781c.002-8.685 7.042-15.724 15.726-15.726h71.782c8.685.002 15.724 7.041 15.724 15.726v71.781c0 8.685-7.041 15.724-15.724 15.726zm-13.724-87.507v71.781c.012 7.58 6.145 13.71 13.724 13.725h71.782c7.579-.015 13.709-6.145 13.724-13.725v-71.781c-.015-7.58-6.146-13.71-13.724-13.725h-71.782c-7.579.015-13.712 6.148-13.724 13.725z"/><path d="m253.749 166.091c-12.788-.002-23.153-10.366-23.155-23.154v-99.692c.002-12.788 10.368-23.154 23.155-23.154h99.69c12.788 0 23.153 10.366 23.155 23.154v99.692c-.002 12.788-10.367 23.152-23.155 23.154zm-21.155-122.846v99.692c.021 11.684 9.471 21.132 21.155 21.153h99.69c11.684-.021 21.133-9.469 21.153-21.153v-99.692c-.021-11.682-9.47-21.132-21.153-21.153h-99.69c-11.684.02-21.134 9.471-21.155 21.153z"/><path d="m267.703 137.705c-8.683 0-15.723-7.038-15.725-15.723v-71.781c.002-8.685 7.04-15.725 15.725-15.725h71.781c8.686 0 15.725 7.04 15.725 15.725v71.781c0 8.685-7.041 15.723-15.725 15.723zm-13.725-87.504v71.781c.015 7.58 6.146 13.709 13.725 13.723h71.781c7.58-.014 13.711-6.143 13.726-13.723l-.002-71.781c-.013-7.58-6.146-13.711-13.724-13.726h-71.781c-7.578.015-13.71 6.148-13.725 13.726z"/><path d="m408.749 320.09c-12.789 0-23.154-10.365-23.156-23.154l.002-99.69c0-12.788 10.365-23.153 23.154-23.153h99.69c12.788 0 23.153 10.365 23.153 23.153v99.69c0 12.789-10.365 23.154-23.153 23.154zm-21.154-122.845v99.69c.021 11.684 9.471 21.134 21.154 21.154h99.69c11.683-.021 21.133-9.471 21.153-21.154v-99.69c-.021-11.683-9.471-21.133-21.153-21.153h-99.69c-11.684.02-21.134 9.471-21.154 21.153z"/><path d="m406.979 275.98v-71.78c0-8.687 7.039-15.726 15.726-15.726h71.78c8.687 0 15.723 7.039 15.723 15.726v71.78c0 8.685-7.039 15.724-15.723 15.724l-71.78.002c-8.685-.002-15.726-7.041-15.726-15.726zm1.999-71.78v71.78c.015 7.581 6.146 13.71 13.727 13.725h71.78c7.579-.015 13.711-6.144 13.727-13.725l-.003-71.78c-.013-7.579-6.145-13.711-13.724-13.726h-71.78c-7.58.015-13.713 6.147-13.727 13.726z"/><path d="m295.038 90.629-7.701-23.053-7.651 23.053h-8.014l-11.198-39.8h9.258l6.854 24.332 7.637-24.332h6.261l7.938 23.714 6.566-23.714h7.941v1.001-1h1.333l-11.653 39.8h-7.571zm1.44-2h4.633l10.483-35.8h-5.087l-7.904 28.558-9.559-28.558h-3.351l-9.21 29.349-8.266-29.349h-5.105l10.076 35.8h5.054l9.089-27.382z"/><path d="m134.293 244.629-3.238-9.128h-11.17l-3.241 9.128h-9.307l14.16-39.8h7.943l13.683 38.465-.941.336v-1.001 1.001l.941-.336.477 1.335zm-1.828-11.125 3.243 9.125h5.057l-12.734-35.801h-5.123l-12.733 35.801h5.059l3.238-9.125zm-12.323-4.697 5.293-15.068 4.891 13.733-.941.335v-.999.999l.941-.335.477 1.335zm2.823-1.999h5.002l-2.52-7.071z"/><path d="m269.082 244.546c-2.297-.556-4.097-1.224-5.433-2.071l-.522-.334 1.086-10.563 1.482 1.457c1.021 1.002 2.507 1.901 4.487 2.652 1.938.733 4.163 1.109 6.693 1.109 2.15.006 3.676-.345 4.541-.884.853-.552 1.182-1.136 1.211-2.237-.004-.639-.145-1.157-.427-1.63-.315-.528-.715-.984-1.222-1.385-.531-.419-1.109-.775-1.741-1.069-.666-.31-1.321-.564-1.993-.778l-5.134-1.813-2.15-.913c-2.366-.979-4.169-2.164-5.366-3.646-1.219-1.514-1.833-3.54-1.949-6.025 0-1.565.296-3.094.881-4.558.595-1.486 1.511-2.82 2.724-3.973 1.23-1.168 2.774-2.09 4.603-2.774 1.868-.701 4.021-1.037 6.455-1.037 1.238 0 2.484.096 3.739.282 1.233.185 2.409.415 3.524.692 1.12.282 2.138.61 3.057.993.894.374 1.634.73 2.235 1.091l.543.323-.913 9.206-1.325-.719c-4.083-2.219-7.628-3.282-10.591-3.28-.885 0-1.71.068-2.474.201-.748.13-1.378.336-1.903.607-.514.265-.889.58-1.167.949-.236.323-.363.69-.369 1.238.004.785.185 1.244.433 1.534.317.371.856.763 1.65 1.117.83.373 1.901.768 3.208 1.172 1.362.423 2.927.98 4.71 1.671l2.909 1.132c.835.319 1.688.766 2.565 1.338.908.593 1.742 1.32 2.499 2.173.775.875 1.416 1.896 1.922 3.042.529 1.204.786 2.546.786 3.993 0 1.235-.153 2.548-.454 3.938-.327 1.51-1.063 2.919-2.165 4.194-1.146 1.331-2.768 2.376-4.814 3.193-2.125.842-4.846 1.228-8.2 1.231v-1.002-.999c3.197.002 5.695-.384 7.46-1.089 1.839-.733 3.172-1.632 4.041-2.642.915-1.063 1.472-2.156 1.723-3.311.276-1.273.411-2.444.411-3.515-.002-1.215-.213-2.267-.618-3.189-.431-.977-.96-1.812-1.588-2.519-.649-.73-1.346-1.336-2.092-1.825-.779-.508-1.511-.887-2.194-1.146l-2.913-1.134c-1.75-.678-3.278-1.22-4.58-1.624-1.36-.423-2.5-.839-3.434-1.258-.973-.438-1.765-.965-2.345-1.637-.653-.754-.92-1.752-.918-2.84-.004-.892.247-1.746.767-2.438.475-.633 1.109-1.148 1.854-1.528.736-.38 1.563-.641 2.474-.798.892-.154 1.829-.23 2.817-.23 3.082.002 6.479.966 10.221 2.832l.49-4.951c-.399-.206-.876-.428-1.428-.657-.811-.336-1.735-.639-2.774-.897-1.047-.262-2.159-.479-3.336-.657-1.159-.173-2.306-.258-3.442-.26-2.25 0-4.163.313-5.751.91-1.627.609-2.926 1.399-3.927 2.352-1.022.975-1.76 2.053-2.246 3.268-.495 1.236-.738 2.499-.74 3.766.102 2.169.638 3.744 1.507 4.818.892 1.113 2.401 2.158 4.58 3.057l2.103.896 5.046 1.779c.726.231 1.458.518 2.198.86.769.358 1.486.796 2.144 1.316.682.541 1.254 1.188 1.694 1.926.475.792.711 1.703.709 2.656.029 1.645-.767 3.123-2.167 3.944-1.385.837-3.234 1.173-5.583 1.177-2.727 0-5.2-.406-7.4-1.239-1.409-.535-2.635-1.151-3.675-1.865l-.554 5.401c1.03.552 2.472 1.068 4.303 1.509 2.144.52 4.531.783 7.164.783v.999 1.002c-2.766-.002-5.312-.279-7.632-.84z"/><path d="m436.899 244.628h-15.148v-39.798h15.148c2.842 0 5.481.458 7.894 1.389 2.405.929 4.494 2.268 6.233 4.006 1.739 1.739 3.093 3.843 4.057 6.28.97 2.455 1.447 5.204 1.447 8.224 0 3.02-.478 5.777-1.447 8.249-.962 2.456-2.317 4.564-4.061 6.286-1.739 1.721-3.826 3.049-6.229 3.975-2.412.933-5.052 1.392-7.894 1.392zm-13.147-1.999h13.147v.999 1-1-.999c2.628 0 5.013-.423 7.173-1.257 2.171-.836 4.006-2.012 5.544-3.531 1.531-1.515 2.732-3.367 3.606-5.592.865-2.209 1.307-4.708 1.307-7.521 0-2.812-.441-5.301-1.307-7.488-.874-2.209-2.075-4.063-3.613-5.601-1.535-1.536-3.369-2.716-5.537-3.554-2.16-.834-4.545-1.255-7.173-1.258h-13.147zm13.147-4.589h-8.236v-26.623h8.236v1 .999-.999-1c3.786-.01 6.884 1.161 8.987 3.568 2.095 2.385 3.086 5.687 3.084 9.743.002 4.057-.989 7.359-3.084 9.745-2.093 2.394-5.168 3.566-8.927 3.566-.019.001-.039.001-.06.001zm-6.235-1.999h6.235c3.413-.01 5.807-.988 7.484-2.887 1.683-1.918 2.584-4.673 2.586-8.426-.002-3.753-.903-6.508-2.586-8.425-1.678-1.898-4.071-2.875-7.484-2.886v-.002h-6.235z"/></g></svg>