<svg height="268.557131" viewBox="0 0 400 268.55713094" width="400" xmlns="http://www.w3.org/2000/svg"><path d="m288.98047 24.421875c-5.93059.302488-12.24579 1.331288-17.04492 5.082031-1.51496 1.559591-3.54934 2.4966-5.08789 4.013672-2.07693 2.736976-2.31675 6.350704-3.03249 9.601366-.83552 4.783029-1.50015 9.593796-2.2097 14.396681-19.21449.0608-38.43142-.114651-57.6442.166781-1.54429-.04512-3.03177.233035-4.48861.583219-6.70691.425356-13.45684.446785-20.1615-.02358-2.72544-.801047-5.64248-.517304-8.4638-.638542-17.25401-.195397-34.5134.09907-51.76463-.287605-.69444-.140843-1.9747.266609-1.95635-.812925-1.50938-6.852466-1.83998-13.956763-3.84839-20.697022-.5635-2.169036-2.53218-3.381651-4.27785-4.532044-2.01822-1.621743-3.96137-3.428461-6.46303-4.283674-7.060291-2.674477-14.890278-3.167681-22.309073-1.9122-4.332234.756243-8.605368 2.46186-11.772568 5.600193-1.766197 1.426381-4.228866 2.355061-4.937245 4.736265-1.615541 5.003949-1.981793 10.306684-2.929359 15.460082-.40463 1.96774-.462099 4.077007-1.095133 5.959591-2.369784 2.427917-5.404865 4.099478-7.804043 6.50929-7.109186 6.489829-12.329748 14.923928-15.247054 24.084735-1.472572 3.377031-1.638703 7.125782-2.371457 10.70037-5.453286 33.038601-9.836149 66.242931-14.992698 99.325751-.792922 5.36273-.978542 11.06416 1.368949 16.09197 6.827229 16.78176 26.366495 27.11862 44.081868 23.41856 7.54904-1.57915 14.538387-6.03571 18.74394-12.56023 5.909188-8.8532 10.582915-18.45333 15.561651-27.84495 3.912622-7.55655 7.784672-15.134 11.663162-22.7081 3.48259 5.11444 8.04736 9.57683 13.6457 12.31183 12.87961 6.57253 29.91194 4.57685 40.33041-5.66612 2.96197-2.8713 5.28243-6.3697 6.90475-10.15547h36.57617c3.42448 6.36891 8.41233 12.01181 14.82357 15.47452 10.83584 6.12042 25.01493 5.7652 35.42927-1.1023 4.54489-2.86248 8.18314-6.94917 11.09091-11.41714.73864.17557.96529 1.33101 1.39721 1.91854 7.79377 15.54623 15.80432 31.00971 24.31022 46.18284 4.86989 8.75917 13.993 15.06033 23.99976 16.13493 11.60904 1.34183 23.4633-3.22888 31.98656-11.04353 6.5976-6.07047 11.2852-14.76577 11.01719-23.89005-.83156-7.22151-2.26678-14.36255-3.23332-21.56846-3.98577-26.35475-7.40562-52.79723-11.82221-79.0853-1.52491-8.664512-3.10275-17.555991-7.61601-25.250334-4.80888-8.537737-12.00064-15.627442-20.38901-20.660361-1.14681-6.543908-1.79806-13.195904-3.45087-19.638182-.47998-2.124267-1.92333-3.960424-3.96124-4.783693-2.25212-1.429146-4.0228-3.580973-6.57813-4.542969-4.99253-2.197481-10.57049-2.795888-15.97851-2.648437zm-200.716798 1.134766c4.90292.06109 9.973741.447233 14.477428 2.543078 1.03958.512175 2.04794 1.104584 2.96007 1.820203-7.237679-2.057558-14.872386-2.231225-22.347654-1.992188-4.226112.182893-8.448557.748847-12.482422 2.050782 3.072397-2.675384 7.29179-3.353161 11.173828-3.984375 2.061039-.27616 4.139471-.418522 6.21875-.4375zm202.833988.02539c5.45953-.01308 11.08063.724317 15.77929 3.6875 1.5324 1.015661-.6587.185648-1.42383.04883-8.0392-1.827119-16.42538-1.833939-24.59179-.935547-2.595.274105-5.14048.942565-7.66992 1.466797 2.42664-2.285447 5.90337-2.825426 9.04078-3.491974 2.91753-.503889 5.8928-.755064 8.86547-.775604zm-201.291019 3.328125c6.432089.04695 13.253629.570275 18.982419 3.59961 2.12617 1.110291 3.87622 3.099457 4.04298 5.577963 1.17959 6.033248 2.10528 12.112609 3.05273 18.185709-7.04374-3.722194-14.70851-6.428574-22.691937-7.066512-10.608977-.998077-21.363591 1.46408-30.780509 6.348726-.37843.05693-1.760949 1.079518-1.449103.0684.901219-6.084036 1.721256-12.232548 2.96256-18.270536.973382-3.868476 4.965386-5.834975 8.563142-6.762306 5.605944-1.535995 11.534096-1.582746 17.317718-1.681054zm198.703129.03711c7.54101-.01025 15.48048.04072 22.35742 3.542968 1.98149 1.023165 3.74739 2.784862 3.88105 5.131568 1.21461 5.882707 2.20118 11.826117 3.00371 17.786401-12.79478-6.936997-28.39197-8.244058-42.22908-3.817406-4.47452 1.334038-8.64978 3.464932-12.71623 5.711937.22466-3.147802.95328-6.517717 1.41042-9.743393.69692-3.79356 1.1039-7.663244 2.06211-11.397454 1.54032-3.33438 5.43782-4.679428 8.75989-5.646262 4.38012-1.158512 8.92513-1.626005 13.47071-1.568359zm3.36718 21.017578c15.52574.06662 30.92964 7.12008 40.85098 19.154919 10.78091 12.751724 15.10992 30.749519 10.91399 46.969927-3.71919 14.99456-14.31512 28.17254-28.26041 34.90164-12.18488 6.06352-26.76398 7.16025-39.70277 2.91734-1.9805-.25674-1.76569-2.55673-2.10448-4.01731-1.70455-10.46045-8.42004-20.00283-17.87533-24.86915-4.20099-2.28622-8.93573-3.47671-13.60294-4.15941-.99823-.74337-.9447-2.27473-1.4188-3.36417-4.03208-13.95164-1.73262-29.405486 5.89961-41.720729 8.56334-14.169448 23.86465-24.203288 40.44956-25.599532 1.61169-.151745 3.23204-.211234 4.85059-.213525zm-202.935544.08203c14.431914.05612 28.696864 6.321521 38.445314 17.007813 10.9419 11.736121 16.21622 28.555723 13.62131 44.420303-.531 2.92171-1.04285 5.8867-2.11741 8.65782-1.06151 1.30075-3.02613.82972-4.4934 1.2868-12.99407 2.24529-24.62687 12.19004-27.90503 25.10187-.67887 2.23706-.66324 4.611-1.13601 6.87077-1.03482 1.20621-2.9166 1.09896-4.31941 1.6208-14.25132 3.64567-29.9466.72463-42.072464-7.55286-13.146546-8.74111-22.114248-23.48436-23.490344-39.19793-1.470608-14.657621 3.523283-29.76378 13.472774-40.60458 10.063599-11.19832 24.933196-17.814605 39.99467-17.610806zm83.861324 8.445313c1.88762.09637 3.92205-.09895 5.65821.716796 5.95494.626468 11.97286.435976 17.9525.322137 1.9064-.04314 3.83006-.145236 5.65486-.660811 10.05436-.437194 20.12773-.187074 30.1899-.278712l28.79649-.0096c-3.15652 2.282682-6.04887 4.894491-8.83789 7.607422h-124.07618c-2.64815-2.656673-5.45912-5.138921-8.4414-7.414062 27.54774-.127932 28.66428-.115527 53.10351-.28317zm-84.634761 3.695313c-4.040047.118119-8.126569-.225183-12.136719.34375-1.501667.412466-2.997284 1.494109-3.062298 3.189763-.570876 5.477395-.265081 11.009655-.423494 16.509211l-.04155 4.60376c-6.510134.144204-13.030963-.03029-19.534931.270193-1.882495.06968-4.123652.833361-4.607084 2.885444-.932088 3.798539-.389324 7.772116-.521564 11.643539.141139 4.37352-.392243 8.81729.423345 13.14223.3241 1.96959 2.234048 3.13226 4.112705 3.21722 5.421865.44366 10.880196.13869 16.315877.30815 1.267947.0124 2.535893.0247 3.80384.0371.137363 6.47597-.01926 12.96082.248787 19.43176.05011 1.89882.809347 4.17683 2.911936 4.61661 3.916713.87182 7.98773.35611 11.967767.52839 4.219048-.0991 8.519386.46386 12.682874-.39369 2.04618-.34811 3.11786-2.41122 3.18277-4.3276.33945-5.81738.0252-11.6558.12891-17.48125.0151-1.24317-.43363-2.94561 1.39994-2.38773 6.1608-.14733 12.33205.0429 18.48698-.24221 1.89064-.0393 4.04079-.97544 4.39298-3.03593.82119-4.16043.26713-8.44791.40449-12.6603-.13133-4.097274.41659-8.274375-.42102-12.315944-.37562-2.068091-2.56951-2.955372-4.4587-2.987807-6.41894-.271496-12.85322-.09986-19.27765-.243215-1.13837-.114722-.24226-2.245129-.52761-3.20499-.11198-5.614064.22415-11.243244-.13628-16.847972-.0619-1.881137-1.15183-3.86004-3.14829-4.188356-3.985695-.773994-8.131277-.300427-12.166011-.410126zm203.835941.666016c-4.04089.115944-8.1272-.221983-12.13868.34375-1.50164.416766-2.9963 1.496789-3.06034 3.193669-.57003 5.417148-.26361 10.889436-.4216 16.328752l-.0435 4.821329c-6.68399.101629-13.38754-.212827-20.05859.271484-1.83343.04718-3.42142 1.18738-4.4375 2.609375v25.744145c1.12547 1.35524 2.61101 2.49321 4.44727 2.52929 6.66876.4801 13.36789.16885 20.04882.26953.1447 6.51657-.0457 13.04443.26454 19.55445.047 1.96678.95257 4.2482 3.10168 4.66236 4.16347.88526 8.47388.32613 12.69784.47061 3.98202-.12533 8.05314.39924 11.9725-.47571 2.15848-.4344 2.97408-2.77199 3.00279-4.72944.22153-6.47345-.00012-12.95779.0759-19.43539 6.56126-.1416 13.13101.004 19.68764-.24461 1.86618-.0423 4.09718-.81561 4.53531-2.86313.89076-3.89257.3328-7.94133.46558-11.89888-.14431-4.351875.39844-8.766691-.36822-13.075412-.28947-1.958463-2.21099-3.067551-4.05667-3.130834-5.36543-.375141-10.75899-.101813-16.13481-.264124l-4.12883-.04059c-.0801-6.503646.1541-13.014789-.0823-19.513831-.0481-1.883605-.80813-4.128512-2.86049-4.610401-3.87979-.938318-7.93408-.383275-11.88644-.519082-.20731.000896-.41462.0018-.62192.0027zm-203.320316.496093c4.011068.02276 8.022135.04558 12.033206.06836.7532 1.031427 2.21027 1.794968 1.83593 3.25664.0759 6.781835-.16815 13.576002.18106 20.350018-.0775.863902.67932 1.282397 1.4631 1.117062 7.06769.204107 14.13969.10466 21.20936.129795.77712.942654 2.2432 1.599932 1.83398 3.033985v23.758981c-.94259.77727-1.60012 2.24275-3.03398 1.83399-7.00548.07-14.03789-.16796-21.02656.22851-.85367.93136-.37927 2.47529-.58203 3.63672-.0747 6.29846-.0339 12.59769-.0449 18.89649-.83503.72643-1.26947 2.31051-2.621089 1.92578h-24.324219c-.773801-.98043-2.234926-1.67841-1.867248-3.12761-.104033-7.1313-.21112-14.26257-.314393-21.39388-7.504579-.0536-15.009123-.11498-22.513672-.17383-.769582-.97836-2.230265-1.67422-1.850244-3.11987.02302-7.43434-.32905-14.879716.02336-22.307387-.01295-1.334011.866176-2.627653 1.987819-3.183691 7.450913-.05789 14.901812-.119517 22.35274-.174203.10924-7.528012.222115-15.055979.332031-22.583985.878953-1.229814 2.182227-2.123036 3.746249-2.056839 3.719051-.235985 7.455406-.09864 11.179533-.115036zm199.183596.564453c5.53146.07259 11.10121-.127908 16.60351.46875 1.91894.660398 1.57645 2.954385 1.75 4.566407.19058 6.605692.22415 13.214934.33789 19.822265 7.67124.109246 15.34244.221986 23.01368.332032.8022.940162 1.87441 1.778065 1.5039 3.151953v23.394921c-.80669.93584-1.46916 2.17694-2.90376 1.77045-7.20459.10498-14.40918.2113-21.61382.31354-.16206 6.80606-.0857 13.62012-.32693 20.42199-.0175 1.77506-.78811 3.89913-2.80393 4.14636-4.41102.6677-8.90067.0966-13.34331.20156-3.47475-.0281-6.94951-.0562-10.42426-.0844-.8047-1.04133-2.47289-1.71745-2.08228-3.26432-.10574-7.14105-.21314-14.28209-.31616-21.42318-7.51694-.0552-15.03386-.11735-22.55078-.17578-1.12149-.86405-1.9547-2.07988-1.85428-3.54727-.21247-7.71095.052-15.428723.0535-23.142182.94294-.804774 1.5773-2.328036 3.0398-1.9292 7.10393-.05361 14.20783-.112224 21.31176-.16455.10888-7.528027.22236-15.055995.33398-22.583985.96014-1.11945 2.10792-2.371774 3.74276-2.128347 2.17433-.110786 4.35209-.126566 6.52873-.147044zm3.52343 2.21875c-5.62881-.03411-10.53317 4.637814-11.36821 10.097061-1.05833 5.307901 2.05799 11.017975 7.08239 13.018218 4.65284 2.112151 10.58572.985942 13.9354-2.939574 3.74868-3.877329 4.12912-10.303623 1.09847-14.708908-2.29668-3.579802-6.5158-5.662043-10.74805-5.466797zm-203.210932.644532c-1.590087.410422-2.500113 2.049447-3.738081 3.024025-.778607.809266-1.679787 1.529984-2.312701 2.464256 1.33535.518179 2.918299.17429 4.34022.316759 2.277823-.110194 4.647699.294877 6.870718-.267931.794237-.716504-.555979-1.563511-.976563-2.097656-1.369347-1.079005-2.343259-2.807059-4.015625-3.433594-.05609.0016-.112602-.0097-.167968-.0059zm203.712892.357422c5.47067-.172009 10.55673 4.269947 11.07638 9.689705.88042 5.886077-3.88473 11.816736-9.74781 12.36949-5.56836.711815-11.30848-3.44956-12.15279-9.033805-.94186-5.04035 2.04688-10.467386 6.8825-12.239921 1.25072-.500886 2.59551-.760722 3.94172-.785469zm-101.73047.453125c20.235.02631 40.47071-.0185 60.70508.154297-3.83837 4.660637-7.1483 9.79801-9.29669 15.463769-4.67652 11.887808-5.16219 25.420663-1.05488 37.542093-10.71805.27612-21.47026 4.92772-28.24546 13.37625-6.31493 7.63112-8.75358 18.11318-6.87806 27.80013.69558 1.51251-.36171 1.67479-1.64294 1.54977-9.60259.1453-19.213.2292-28.81386-.002-.85417.0894-1.5232-.1837-.89624-1.10453 2.70456-10.59641-1.21492-22.05655-8.53299-29.9118-6.32314-6.96046-15.44229-11.35221-24.88159-11.57173-1.56511.28004-.18283-1.36148-.11595-2.17926 3.97371-12.46929 2.37489-26.289649-2.88548-38.136041-2.05529-4.700893-4.97954-8.941498-8.11328-12.980468h60.65234zm-101.416016.583984c1.112454 1.116725 2.222587 2.235755 3.332031 3.355469h-7.966797c1.379833-1.280205 2.757746-2.562474 4.134766-3.845703zm-4.021485 7.257813c-1.423135.189571-3.190019-.291607-4.365234.716796-1.153547 1.636731-.59328 3.835285-.707031 5.707032.247536 2.770894-.151437 5.666311.699218 8.347656 1.191544 2.094247 3.544482 3.158407 5.310942 4.698566 1.177408.981095 2.966237 1.8588 4.323824.668621 2.226838-1.75965 4.717789-3.303309 6.570313-5.472656.354441-3.474839.06457-7.030786-.08629-10.527806-.221546-1.068929.09773-2.451859-.593396-3.343288-3.21835-.819287-6.615172-.670788-9.917969-.798828l-1.234375.0039zm-.560547 1.15039c3.639893.10807 7.323755-.198224 10.933594.314453.503992 1.406741.284757 3.124444.435787 4.644016.02566 2.792183.214607 5.615218-.133052 8.389187-2.233124 1.925372-4.570176 3.822064-7.128907 5.275391-2.642878-1.415143-4.854948-3.500705-7.25-5.283203-.04047-3.904995-.51265-7.816699-.324218-11.716797.139779-1.758349 2.204744-1.558312 3.466796-1.623047zm232.326168 14.570313c-6.00579.326759-11.37592 5.574562-11.51196 11.653199-.34993 5.32328 3.25308 10.57462 8.38411 12.08737 5.56617 2.06292 12.11721-.98692 14.68437-6.20447 2.51242-4.63305 1.20165-10.738266-2.70883-14.185421-2.35767-2.214398-5.59631-3.527831-8.84769-3.350678zm-50.53906.03516c-5.96616.350657-11.17805 5.666787-11.25491 11.674489-.30939 5.34552 3.35896 10.57581 8.51608 12.0513 4.66033 1.66465 10.15475-.0796 13.10993-4.02267 3.33589-4.05136 3.69619-10.32215.48332-14.546064-2.44675-3.390717-6.67671-5.407698-10.85442-5.157055zm51.10156 1.041015c4.96636-.100047 9.5878 3.566019 10.73145 8.381194 1.59162 5.29311-1.60469 11.36904-6.7776 13.15055-4.85573 1.93246-10.72456-.30354-13.34642-4.66847-3.03239-4.55949-1.55704-11.070396 2.63086-14.39257 1.85793-1.547074 4.29496-2.481529 6.76171-2.470704zm-49.76757.002c5.5116.04263 10.39355 4.825498 10.59679 10.324704.52147 5.87772-4.31872 11.55916-10.19098 11.87063-5.52548.5133-11.00475-3.7587-11.75738-9.24221-1.06338-5.512904 2.84467-11.216419 8.22141-12.561908 1.01544-.290683 2.07561-.406753 3.13016-.391216zm-194.173832 1.722606c-3.387762.208737-6.810997.0052-10.179687.402344-1.820592.383654-1.698209 2.641462-1.741749 4.075113.08022 3.487491-.206818 6.997461.124561 10.471761.101097 1.61309 1.842285 2.14838 3.207791 2.04199 3.832123-.0615 7.758332-.0303 11.53049-.22558 1.797432-2.46337 4.051263-4.63473 5.501954-7.33008.769234-2.04521-1.315268-3.678503-2.316062-5.195215-1.373545-1.442198-2.315504-3.728292-4.420245-4.214826-.563625-.09137-1.139872-.0299-1.707053-.02551zm33.703122.261719c-2.14642.05229-4.39129-.102765-6.47851.07422-1.850659 2.524982-4.209707 4.718305-5.692005 7.488209-.696702 1.93282 1.379441 3.3892 2.277399 4.83063 1.516806 1.88728 2.983872 4.53311 5.738826 4.5796 3.40031.14012 6.83184.23703 10.22461-.0352 1.58397-.0704 2.38093-1.66531 2.33662-3.08605.0763-3.74822.19093-7.51816-.0632-11.25965-.0303-1.518685-1.40807-2.541592-2.85351-2.515626-1.82562-.147153-3.66091-.0614-5.49024-.07617zm-28.740231 4.242187c.844967 1.379789 2.622659 2.564092 2.517578 4.337892-.950066 2.25277-2.922302 3.91089-4.304203 5.90202-.553658 1.42496-2.00699.98159-3.22275 1.03157h-10.646875v-14.28906c4.295197-.172175 8.590366-.347425 12.886719-.488281zm28.898441-3.177734c2.23509.08355 4.54305-.09405 6.73046.351562.79134 3.188676.57322 6.557154.57336 9.825514-.13661 1.4387.0463 3.03321-.57336 4.35613-2.0794.69535-4.38488.26539-6.5496.41601h-5.7375c-2.079489-2.22776-4.098501-4.62062-5.719074-7.21836-.257151-1.52225 1.322221-2.58107 2.048616-3.752391 1.059147-1.322227 2.108893-2.651939 3.162638-3.978465zm11.25976 1.320312c.10757 3.598674-.22144 7.231804.17969 10.810544.24871 1.08069 1.42296.24578 1.79101-.29297 1.2013-1.47224 2.92417-2.63924 3.67579-4.41796.0438-1.59501-1.73757-2.46303-2.60761-3.577303-1.01368-.999543-2.02607-2.000399-3.03888-3.000826zm-60.550779.197266c-2.075631 1.577488-3.804996 3.617708-5.433594 5.646488-.0869.89604 1.157726 1.4901 1.611328 2.21875 1.309306 1.23617 2.466849 2.70744 3.994141 3.67382.5994-1.14585.205859-2.64216.376354-3.90898-.05145-2.50898.165393-5.082877-.26112-7.551953-.01491-.153425-.194981-.09487-.287109-.07813zm-.523438 2.601562c.02484 2.376236.0262 4.752566.02344 7.128906-1.264762-1.30166-2.528997-2.60383-3.792969-3.90625 1.244386-1.37317 2.469886-2.751073 3.74414-4.095702.0085.291015.01693.582031.02539.873046zm63.800777.994136c.66193.70994 1.43133 1.38437 1.92579 2.2129-1.02653 1.42454-2.35891 2.56005-3.58594 3.82031v-7.675783c.55338.547526 1.10677 1.095052 1.66015 1.642573zm37.3711-.845698c-2.63795.134862-5.35131-.07773-7.93946.451172-.71516 2.003896-.38963 4.259616-.45507 6.363286.17855 1.03749-.16727 2.44203.60742 3.24023 4.33081.59033 8.74355.36156 13.10603.29508 1.07394-.17765 2.45544.16036 3.33342-.53727.64585-2.71046.42008-5.58248.17168-8.33957.0252-.77222-.39839-1.536619-1.27318-1.36634-2.51255-.163881-5.03445-.112647-7.55084-.106588zm55.67187.0098c-1.95751.224287-2.30691 2.676008-2.35156 4.259758.0673 2.02662.13529 4.48467 1.73242 5.95117 1.16018.54621 2.39881-.45758 3.53749-.6948 3.3637-1.30946 6.84383-2.45211 9.99572-4.2173.0844-.74269-1.23227-.83751-1.75814-1.2183-3.66635-1.46952-7.32896-3.09857-11.15593-4.080528zm-55.36914 1.064448h7.64063v8.27539h-15.28125v-8.27539zm55.67774.11914c3.49148.82862 6.76525 2.4231 10.0679 3.80484 1.26952.38632-.78425.67228-1.16165.98422-3.06859 1.14289-6.10852 2.48998-9.25977 3.35547-1.15418-.79267-.753-2.5584-.90645-3.79916.12767-1.38534-.34496-3.05429.48848-4.20865.22248-.15361.51242-.16242.77149-.13672zm132.07422 4.69336c2.99093 17.6581 5.43952 35.40395 8.02627 53.12486 1.89252 13.24715 3.75239 26.52594 5.99718 39.70354 1.01251 6.74146.14768 13.98401-3.72625 19.73648-7.13152 10.84384-19.47733 18.42434-32.58831 18.68248-9.67696.29539-19.75499-3.85736-25.39341-11.95465-5.5631-7.9175-9.80741-16.65444-14.35659-25.16638-4.79976-9.22314-9.50979-18.49254-14.24405-27.74938 2.35988-4.50703 3.52866-9.58509 3.97461-14.6289.10067-.77396-.12955-1.912.2207-2.45899 7.52529 2.38059 15.5168 3.44821 23.38301 2.4938 19.25459-2.07758 37.03278-15.03365 44.47641-32.97909 2.67076-6.17845 3.8271-12.89229 4.07808-19.59088.0508.26237.10156.52474.15235.78711zm-312.253911-.1387c.471822 8.30686 2.50975 16.57806 6.580692 23.8711 8.820178 16.26833 26.367812 27.37427 44.856297 28.32389 6.450748.42208 12.930421-.55068 19.107932-2.33952.98763.17018.56697 1.70001.79958 2.4394.36826 5.25015 1.86124 10.39103 4.29417 15.05474-8.12984 16.24946-16.199749 32.5529-25.442367 48.20782-2.752413 4.9961-6.769042 9.28737-11.833022 11.98358-9.949193 5.43476-22.502554 4.79968-32.500287-.27856-6.86094-3.45807-12.763368-8.85688-16.841217-15.3755-4.278399-6.98294-3.666437-15.5646-2.433459-23.33275 4.573197-28.88569 8.197943-57.9172 13.043584-86.75996.101926-.55918.255886-1.39523.368097-1.79424zm53.966797 3.7207c-2.197055.32955-3.6843 2.29716-5.460213 3.45495-1.51499 1.06642-3.114447 2.4844-3.043693 4.5138-.0647 3.44935-.183506 6.91845.04492 10.36133.04436 1.57071 1.641159 2.32204 3.031568 2.25775 3.759021.0426 7.531897.14115 11.286791-.039 1.412733.0213 2.504745-1.16835 2.472657-2.55859.11859-3.56038.273631-7.13994.101562-10.69922-.284462-2.57452-3.062431-3.6706-4.725608-5.25543-1.113874-.79757-2.241863-2.01588-3.707986-2.03559zm.111328.95508c2.674401 1.43461 4.913352 3.54686 7.337891 5.35156-.07465 4.1764.195386 8.38605-.316406 12.53907-.298975 1.38944-2.211934.43348-3.273438.71484-3.321887-.11809-6.677127.2494-9.978515-.17188-1.72696-.4221-1.323104-2.59579-1.396485-3.92304.0266-2.9455.01553-5.89114.01758-8.83672 2.324315-2.12181 4.803096-4.2525 7.609375-5.67383zm202.943356 6.39063c-7.28193.18755-12.97371 8.15918-10.977 15.11934 1.37976 5.91971 7.70842 10.03444 13.68393 9.00137 6.32841-.86229 11.30193-7.39906 10.11534-13.74376-.9179-6.08904-6.6113-10.8689-12.82227-10.37695zm1.05274 1.04101c5.02852-.0234 9.72638 3.86292 10.564 8.8666 1.23689 5.49771-2.39694 11.52573-7.84283 12.9304-5.99307 1.73867-12.88624-2.54199-13.84617-8.70716-.99632-5.21457 2.2983-10.91137 7.43945-12.51171 1.18541-.39596 2.43567-.59367 3.68555-.57813zm-103.625.77734c-5.06229.22801-9.54734 4.24617-10.40537 9.22638-1.28793 5.70858 2.28693 12.04223 7.92295 13.71503 6.16931 2.00117 13.51135-2.11902 14.90542-8.47978 1.32419-5.14711-1.41322-10.90115-6.20294-13.1809-1.90702-.97733-4.0815-1.42616-6.22006-1.28073zm.94336 1c3.66393-.13146 7.20058 1.87639 9.01488 5.04539 2.76659 4.14085 2.01752 10.22802-1.65551 13.59524-4.49718 4.27171-12.75044 3.32072-16.02118-1.94624-3.25965-5.08748-1.71191-12.91079 3.93525-15.60259 1.46334-.72868 3.09448-1.08744 4.72656-1.0918zm-50.00586 2.78711c11.0303-.10941 22.07294 5.41439 28.13595 14.70741 7.32835 10.78192 7.81645 25.92239.66625 36.96239-6.54159 10.32858-19.09369 16.77459-31.36017 15.37608-12.69057-1.19583-24.26262-10.06989-28.47822-22.10055-3.73559-10.1136-2.11822-22.03306 4.25448-30.74131 6.07771-8.59279 16.22444-14.14447 26.78171-14.20402zm100.10547.006c11.51491.0882 22.80346 6.4376 28.60583 16.42836 5.98566 9.83037 6.40491 22.84683.79891 32.95722-4.90865 9.24684-14.2538 16.15317-24.7337 17.46466-12.67124 1.8202-26.0894-4.22376-32.94727-15.04046-5.83264-8.95561-7.2271-20.80044-2.99061-30.68438 5.02882-12.39721 17.78137-21.35771 31.26684-21.1254zm-.44532 6.48438c-5.81844.4763-11.75609 2.08296-16.35278 5.83864-9.42363 7.36704-12.75924 21.31507-7.80571 32.18004 4.21424 9.58839 14.43661 16.37819 24.99959 15.83663 11.71203-.3321 22.90339-8.82823 25.66645-20.3372 2.10172-8.40475-.31225-17.73314-6.21875-24.07021-5.09356-5.66098-12.53379-9.70011-20.2888-9.4479zm-100.16406.11133c-9.91613.61886-19.38038 6.81253-23.49023 15.93164-3.9146 8.2305-3.09917 18.47926 2.20117 25.91797 4.99815 7.29623 13.58408 12.2779 22.54214 11.96577 11.84646-.16618 23.10023-8.84331 25.89013-20.42594 2.11117-8.51261-.13292-18.1318-6.34921-24.43501-5.32524-5.58985-12.97895-9.28544-20.794-8.95443zm1.1875 1.0957c9.82448.0768 19.27985 6.14702 23.24263 15.15956 3.93618 8.40632 2.79786 18.84049-2.84569 26.20699-5.06501 7.05933-13.94907 11.01812-22.56495 10.16696-9.71005-.71238-18.82918-7.22224-22.12873-16.46115-3.20648-8.32768-1.65484-18.22839 3.96019-25.14641 4.83536-6.17752 12.47574-10.04478 20.33655-9.92595zm99.48633.0547c8.94454.0774 17.69999 5.08119 22.06618 12.95245 4.6977 7.9858 4.60757 18.60532-.35524 26.40887-4.77418 7.96107-13.95702 12.72634-23.20887 12.18225-9.13929-.34372-17.79294-5.87657-21.77446-14.13264-4.02326-7.71768-3.53984-17.49551 1.06373-24.89599 4.57459-7.6807 13.20209-12.76102 22.20866-12.51494zm-.69727 2.16211c-9.12251.27767-17.78628 6.23305-21.2032 14.71666-3.29904 7.59971-2.07698 16.9117 3.13584 23.36602 4.74504 6.31056 12.84656 9.89012 20.70936 8.97164 9.00131-.82304 17.25751-7.19976 20.07675-15.82971 2.17226-6.1002 1.63161-13.10017-1.64871-18.70244-4.18202-7.44694-12.39877-12.77306-21.07004-12.52217zm-99.65625.0254c-8.70715.3478-17.02825 5.80501-20.57457 13.80713-3.8627 8.13-2.65721 18.50906 3.43093 25.24005 5.32821 6.17201 13.98199 9.38417 22.0193 7.68433 9.54111-1.7706 17.70821-9.81358 19.05403-19.51276 1.38263-8.69572-2.68019-17.84184-9.87084-22.86025-4.04859-2.91938-9.0526-4.56445-14.05885-4.3585zm-57.226558 1.01367c1.886381 1.72546 3.468347 3.81876 5.517578 5.3457 1.366046.5109 2.246772-1.23666 3.196937-1.88471.873199-1.0445 2.402132-1.75989 2.795251-3.12505-.473288-.94442-1.892351-.51496-2.752727-.66977-3.031588-.0142-6.063296-.002-9.09493-.006.11263.11329.225261.22657.337891.33985zm156.832028.10351c7.83572-.11684 15.72731 3.93358 19.66016 10.8086 4.98151 8.24651 4.1276 19.70929-2.5332 26.79883-5.80899 6.36108-15.38693 9.12531-23.60874 6.18861-8.96228-2.94098-15.64986-11.85612-15.45283-21.36985-.0415-9.17218 6.28752-17.81382 14.77324-21.08292 2.29322-.73892 4.74357-1.30955 7.16137-1.34327zm-99.69531.004c7.21132-.17311 14.54228 3.06453 18.76349 9.00986 5.47207 7.29336 5.89471 18.02218.70303 25.6263-4.5473 6.99235-13.03066 11.2979-21.3875 10.15245-8.70967-.94554-16.60569-7.52455-18.84365-16.08292-2.09883-7.19474-.20582-15.27283 4.68833-20.9138 3.3897-4.11297 8.32152-6.8674 13.617-7.53052.80734-.18561 1.6324-.25385 2.4593-.26137zm-51.15039.61914h3.984375c-1.274157 1.28509-2.548233 2.57026-3.822266 3.85547-1.328178-1.27419-2.650849-2.55433-3.996093-3.81055 1.277396-.0429 2.556086-.0276 3.833984-.0449zm118.63281 33.22852c.60218 1.31636 1.10679 2.56395-.86172 2.06836-10.90963-.0676-21.82593.1562-32.73108-.18061-1.70948.29605-.41496-1.40187-.26071-2.30768.14892-1.4828.89225-2.14586 2.38203-1.77951 10.22877-.001 20.45755-.002 30.68633-.004.26172.73438.52343 1.46875.78515 2.20313z" fill="#fff" fill-rule="evenodd"/></svg>