<svg height="350.26" viewBox="0 0 598.189 350.26" width="598.189" xmlns="http://www.w3.org/2000/svg"><g fill="#f4f4f4"><path d="m39.845 85.162c.893-1.426 4.216-6.902 6.056-9.507 4.764-7.16 12.915-11.879 22.161-11.879h38.659v2.001h-38.659c-8.555-.002-16.083 4.362-20.512 11.009-1.775 2.513-5.108 7.996-6.009 9.435v.002z"/><path d="m68.982 303.271c-9.246 0-17.395-4.717-22.143-11.855-1.858-2.626-5.181-8.103-6.072-9.529l1.695-1.061c.9 1.44 4.232 6.924 6.023 9.459 4.412 6.625 11.941 10.988 20.496 10.986l38.661.002v2z"/><path d="m548.069 76.762c-4.41-6.624-11.938-10.987-20.496-10.987h-38.658v-2h38.658c9.249 0 17.398 4.72 22.146 11.856 1.857 2.627 5.18 8.104 6.072 9.528v.002l-1.693 1.06c-.904-1.44-4.235-6.923-6.029-9.459z"/><path d="m132.685 272.844c-1.739 0-3.151-1.409-3.151-3.15v-187.714c0-1.741 1.41-3.151 3.151-3.151h330.268c1.741 0 3.148 1.41 3.15 3.151v187.713h-.002c0 1.741-1.41 3.15-3.148 3.15h-330.268zm-1.152-190.864v187.713c.002.636.514 1.149 1.152 1.149l330.268.002c.636-.002 1.147-.516 1.149-1.151v-187.713c-.002-.636-.517-1.149-1.149-1.151h-330.268c-.636.002-1.15.515-1.152 1.151z"/><path d="m103.197 121.587c-2.269 0-4.109-1.84-4.109-4.109 0-2.27 1.84-4.109 4.109-4.109h6.758c2.27 0 4.109 1.839 4.109 4.109 0 2.269-1.839 4.109-4.109 4.109z"/><path d="m486.167 121.587c-2.27 0-4.109-1.84-4.109-4.109 0-2.27 1.84-4.109 4.109-4.109h6.759c2.27 0 4.109 1.839 4.109 4.109 0 2.269-1.84 4.109-4.109 4.109z"/><path d="m242.617 291.092c-1.046 0-1.894-.849-1.894-1.893 0-1.049.848-1.896 1.894-1.896h4.455c1.046 0 1.895.848 1.895 1.896 0 1.044-.848 1.893-1.895 1.893z"/><path d="m53.491 246.307c.002-11.773 9.545-21.316 21.316-21.318 11.773.002 21.314 9.545 21.316 21.318-.002 11.771-9.543 21.315-21.316 21.318-11.771-.003-21.314-9.547-21.316-21.318zm2.002 0c.019 10.667 8.649 19.297 19.314 19.315 10.667-.019 19.297-8.648 19.316-19.315-.019-10.668-8.649-19.298-19.316-19.316-10.665.018-19.295 8.648-19.314 19.316z"/><path d="m27.977 227.222c0 1.738-1.409 3.147-3.148 3.147s-3.149-1.409-3.149-3.147c0-1.741 1.41-3.15 3.149-3.15s3.148 1.408 3.148 3.15z"/><path d="m71.049 163.092c-1.24 0-2.392-.439-3.282-1.172l-.043-.035-9.49-9.753c-.796-.907-1.281-2.106-1.281-3.41v-16.369c0-.866.351-1.659.942-2.258.361-.345.893-.731 1.599-.908 3.708-1.014 7.604-1.381 11.555-1.381h.152c3.954 0 7.85.368 11.547 1.377.714.181 1.248.566 1.638.94.563.571.911 1.365.911 2.229v16.369c0 1.302-.482 2.502-1.315 3.451l-9.451 9.708-.045.039c-.893.731-2.042 1.172-3.284 1.172v-1-1c.757-.002 1.44-.26 1.988-.698l9.323-9.578c.491-.561.784-1.287.784-2.094v-16.369c0-.329-.125-.612-.306-.796-.252-.228-.404-.341-.759-.439-3.479-.953-7.201-1.312-11.03-1.312h-.152c-3.829 0-7.548.359-11.038 1.313-.347.097-.499.208-.718.407-.211.217-.339.501-.339.827v16.369c0 .805.296 1.534.75 2.055l9.369 9.626c.544.432 1.227.689 1.977.689h.152v1 1h-.154z"/><path d="m59.5 208.407c-.712-.182-1.243-.565-1.639-.941-.558-.569-.908-1.362-.908-2.228v-16.369c0-1.303.485-2.502 1.317-3.45l9.451-9.709.048-.039c.89-.729 2.04-1.17 3.28-1.17v1.001 1c-.751 0-1.433.256-1.978.688l-9.331 9.586c-.492.562-.787 1.288-.787 2.094v16.369c0 .326.128.611.305.797.252.228.407.341.762.442 3.48.949 7.199 1.309 11.028 1.309h.153c3.828 0 7.548-.359 11.037-1.312.347-.099.502-.212.719-.406.212-.219.338-.504.34-.83v-16.369c-.002-.806-.295-1.532-.75-2.053l-9.369-9.628c-.543-.432-1.229-.688-1.977-.688h-.153v-1-.999l.153-.002c1.241 0 2.391.442 3.283 1.17l.043.035 9.489 9.752c.797.909 1.282 2.108 1.282 3.411l-.002 16.369c.002.865-.349 1.658-.941 2.261-.361.345-.892.727-1.598.906-3.706 1.014-7.604 1.379-11.555 1.379l-.153.002c-3.952-.001-7.849-.366-11.549-1.378z"/><path d="m91.199 182.966c-1.303.002-2.5-.481-3.451-1.313l-9.714-9.459-.034-.039c-.73-.891-1.171-2.042-1.171-3.282v-.152c0-1.241.44-2.391 1.171-3.282l.033-.041 9.756-9.493c.909-.796 2.107-1.28 3.41-1.28h16.37c.866 0 1.658.35 2.261.942.344.362.727.893.903 1.597 1.015 3.708 1.383 7.604 1.383 11.557v.152c0 3.953-.368 7.848-1.378 11.545-.181.715-.566 1.247-.938 1.639-.574.565-1.369.911-2.23.911zm-2.095-2.782c.562.488 1.288.782 2.095.782l16.37.002c.329-.002.613-.128.796-.305.228-.255.339-.405.44-.764.951-3.479 1.311-7.197 1.311-11.027v-.152c0-3.83-.36-7.548-1.313-11.038-.099-.348-.21-.5-.405-.72-.216-.209-.504-.337-.829-.337h-16.37c-.805 0-1.531.294-2.056.749l-9.625 9.369c-.433.545-.687 1.225-.688 1.978v.152c.002.752.255 1.434.688 1.977z"/><path d="m34.683 182.966c-.864.002-1.656-.346-2.261-.94-.342-.36-.727-.893-.903-1.597-1.015-3.708-1.383-7.604-1.383-11.556v-.152c0-3.953.368-7.848 1.378-11.546.181-.716.566-1.247.94-1.64.57-.562 1.364-.91 2.229-.91h16.37c1.303 0 2.5.483 3.449 1.315l9.713 9.456.037.043c.73.891 1.171 2.04 1.169 3.282l.002.152c0 1.241-.44 2.391-1.171 3.282l-.035.041-9.754 9.492c-.91.795-2.107 1.28-3.41 1.28zm-.799-26.035c-.227.251-.337.403-.438.759-.951 3.482-1.311 7.2-1.311 11.03v.152c0 3.83.358 7.547 1.313 11.038.097.346.209.5.405.72.216.21.502.336.829.336h16.37c.805 0 1.531-.294 2.054-.747l9.618-9.36c.437-.545.695-1.231.697-1.986v-.152c-.002-.75-.258-1.433-.691-1.98l-9.585-9.332c-.562-.49-1.288-.784-2.093-.784h-16.37c-.327 0-.611.127-.798.306z"/><path d="m25.577 168.796c.002-25.155 20.394-45.547 45.549-45.547 25.156 0 45.547 20.392 45.547 45.547 0 25.155-20.392 45.547-45.547 45.549-25.155-.002-45.547-20.394-45.549-45.549zm14.756-30.793c-7.882 7.883-12.755 18.764-12.755 30.792 0 12.028 4.873 22.908 12.755 30.792 7.883 7.883 18.765 12.756 30.792 12.756 12.028 0 22.908-4.873 30.792-12.756 7.883-7.884 12.755-18.764 12.755-30.792 0-12.028-4.873-22.91-12.755-30.792-7.884-7.882-18.764-12.753-30.792-12.755-12.027.002-22.909 4.873-30.792 12.755z"/><path d="m490.574 185.438 1.812-.844c3.477 7.489 9.425 13.603 16.792 17.281h.002l-.896 1.79c-7.774-3.884-14.045-10.327-17.71-18.227z"/><path d="m540.75 202.306c7.43-3.46 13.503-9.361 17.18-16.671v.003l1.785.896c-3.879 7.711-10.279 13.931-18.119 17.585z"/><path d="m541.691 136.767h.002l.894-1.788c7.785 3.903 14.056 10.371 17.705 18.301l-1.818.835c-3.456-7.513-9.407-13.651-16.783-17.348z"/><path d="m491.033 152.227c3.895-7.824 10.377-14.125 18.332-17.792l.835 1.816c-7.537 3.473-13.687 9.454-17.377 16.868z"/><path d="m508.75 135.847c0-9.491 7.691-17.182 17.18-17.182 9.488 0 17.18 7.691 17.182 17.182-.002 9.489-7.693 17.18-17.182 17.18-9.491 0-17.18-7.691-17.18-17.18zm2.001 0c.015 8.384 6.795 15.165 15.179 15.179 8.384-.015 15.167-6.795 15.18-15.179-.013-8.385-6.796-15.167-15.18-15.181-8.384.015-15.164 6.796-15.179 15.181z"/><path d="m541.689 169.829c.002-9.489 7.693-17.181 17.181-17.181 9.489 0 17.181 7.691 17.183 17.181-.002 9.487-7.693 17.179-17.183 17.181-9.487-.002-17.179-7.694-17.181-17.181zm2.002 0c.015 8.384 6.797 15.164 15.179 15.181 8.385-.017 15.166-6.797 15.181-15.181-.015-8.384-6.796-15.166-15.181-15.181-8.382.015-15.164 6.797-15.179 15.181z"/><path d="m507.709 202.771c0-9.49 7.689-17.183 17.18-17.183 9.489 0 17.18 7.692 17.18 17.183h.002c-.002 9.487-7.692 17.18-17.182 17.18-9.491-.001-17.18-7.693-17.18-17.18zm2 0c.015 8.384 6.797 15.164 15.18 15.179 8.385-.015 15.166-6.795 15.179-15.179h.003c-.016-8.387-6.797-15.167-15.182-15.182-8.383.015-15.165 6.795-15.18 15.182z"/><path d="m474.77 168.788c0-9.488 7.689-17.18 17.18-17.18 9.488 0 17.178 7.692 17.178 17.18h.002c-.002 9.488-7.691 17.18-17.18 17.182-9.491-.002-17.18-7.695-17.18-17.182zm2.001 0c.012 8.383 6.795 15.167 15.179 15.181 8.381-.015 15.164-6.798 15.179-15.181-.015-8.383-6.798-15.165-15.179-15.179-8.387.014-15.168 6.795-15.179 15.179z"/><path d="m174.437 297.155v-1.001-1h5.174c3.18-.006 5.752-2.578 5.758-5.76-.006-3.18-2.579-5.753-5.758-5.757h-5.174c-3.18.004-5.752 2.577-5.759 5.757.006 3.18 2.581 5.754 5.759 5.76v1 1.001c-4.284-.002-7.757-3.474-7.759-7.761.002-4.286 3.476-7.758 7.759-7.758h5.174c4.285 0 7.757 3.472 7.759 7.758-.002 4.285-3.474 7.759-7.759 7.761z"/><path d="m212.074 297.155v-1.001-1h5.172c3.18-.006 5.754-2.578 5.758-5.76-.004-3.18-2.579-5.753-5.758-5.757h-5.172c-3.182.004-5.754 2.577-5.761 5.757.006 3.182 2.581 5.754 5.761 5.76v1 1.001c-4.286-.002-7.759-3.476-7.759-7.761 0-4.286 3.474-7.758 7.759-7.758h5.172c4.286 0 7.759 3.472 7.759 7.758 0 4.285-3.474 7.759-7.759 7.761z"/><path d="m382.582 297.155v-1.001-1h5.175c3.177-.006 5.752-2.578 5.758-5.76-.006-3.18-2.578-5.753-5.758-5.757h-5.175c-3.18.004-5.754 2.577-5.759 5.757.005 3.18 2.581 5.754 5.759 5.76v1 1.001c-4.285-.002-7.76-3.474-7.76-7.761 0-4.286 3.477-7.758 7.76-7.758h5.175c4.283 0 7.757 3.472 7.759 7.758-.002 4.285-3.474 7.759-7.759 7.761z"/><path d="m358.006 297.155v-1.001-1h5.173c3.18-.006 5.754-2.58 5.758-5.76-.004-3.18-2.578-5.753-5.758-5.757h-5.173c-3.182.004-5.756 2.577-5.761 5.757.005 3.182 2.579 5.754 5.761 5.76v1 1.001c-4.287-.002-7.761-3.476-7.761-7.761 0-4.286 3.474-7.758 7.761-7.758h5.173c4.283 0 7.759 3.472 7.759 7.758 0 4.287-3.476 7.759-7.759 7.761z"/><circle cx="560.803" cy="255.362" r="3.149"/><circle cx="34.889" cy="255.408" r="3.149"/><circle cx="570.738" cy="229.094" r="3.149"/><path d="m110.867 303.635c-3.488-.009-6.423-1.269-8.168-3.02-2.173-2.201-4.784-5.297-7.025-8.009-2.222-2.692-4.152-5.069-4.68-5.552-2.962-2.782-6.878-4.542-11.23-4.542s-28.303.077-37.33.077c-1.22 0-2.456-.435-3.282-1.427-18.513-22.505-30.45-65.229-30.478-93.558v-8.168c.028-28.328 11.965-71.053 30.478-93.559.824-.989 2.062-1.426 3.282-1.428 9.027 0 37.33.079 37.328.079 4.354-.002 8.27-1.76 11.232-4.542.527-.485 2.458-2.862 4.68-5.552 2.241-2.711 4.852-5.81 7.025-8.011 1.745-1.751 4.68-3.011 8.168-3.02h374.393c3.488.008 6.423 1.268 8.17 3.02 2.173 2.201 4.782 5.299 7.023 8.011 2.222 2.69 4.152 5.067 4.68 5.552 2.96 2.782 6.878 4.54 11.232 4.542s28.303-.079 37.33-.079c1.218.002 2.456.438 3.279 1.428 18.516 22.505 30.45 65.23 30.48 93.559v8.168c-.03 28.328-11.965 71.053-30.48 93.558-.823.992-2.062 1.427-3.279 1.427-9.027 0-37.33-.077-37.328-.077-4.356 0-8.274 1.76-11.234 4.542-.527.482-2.458 2.859-4.68 5.552-2.241 2.712-4.851 5.808-7.025 8.009-1.745 1.751-4.68 3.011-8.168 3.02zm374.393-2c2.99.006 5.477-1.131 6.747-2.425 2.081-2.106 4.678-5.182 6.905-7.878 2.252-2.716 4.057-4.978 4.851-5.735 3.292-3.097 7.701-5.084 12.607-5.084.038 0 28.304.078 37.325.078.751 0 1.4-.28 1.736-.7 18.073-21.86 30.05-64.494 30.021-92.285v-8.168c.029-27.792-11.947-70.425-30.021-92.286-.336-.419-.985-.703-1.736-.7-9.021 0-37.287.077-37.328.077-4.903.002-9.313-1.986-12.604-5.082-.794-.758-2.599-3.02-4.851-5.735-2.228-2.697-4.824-5.774-6.905-7.879-1.271-1.296-3.757-2.432-6.747-2.426h-374.393c-2.99-.006-5.476 1.13-6.744 2.426-2.083 2.105-4.68 5.182-6.908 7.879-2.251 2.715-4.056 4.978-4.85 5.735-3.292 3.096-7.702 5.084-12.607 5.082-.036 0-28.303-.077-37.324-.077-.751-.002-1.4.281-1.739.7-18.07 21.86-30.048 64.494-30.02 92.286v8.168c-.028 27.791 11.95 70.425 30.02 92.285.336.42.985.7 1.739.698 9.021.002 37.288-.076 37.328-.076 4.903 0 9.311 1.987 12.603 5.084.794.758 2.599 3.02 4.85 5.735 2.229 2.696 4.825 5.771 6.908 7.878 1.266 1.294 3.754 2.431 6.744 2.425z"/><path d="m126.614 298.96v-.002-.998-1.001h17.356c4.24-.007 7.671-3.438 7.68-7.68-.008-4.241-3.439-7.672-7.68-7.678l-17.356-.002c-4.243.008-7.674 3.438-7.68 7.68.006 4.242 3.437 7.673 7.68 7.68v1.001.998c-5.347 0-9.679-4.332-9.679-9.679 0-5.345 4.333-9.68 9.679-9.68h17.356c5.347 0 9.679 4.335 9.681 9.68-.002 5.347-4.334 9.679-9.681 9.681z"/><path d="m451.656 298.958v-.998-1h17.359c4.239-.009 7.673-3.439 7.681-7.681-.008-4.239-3.441-7.671-7.681-7.679h-17.359c-4.237.008-7.67 3.439-7.677 7.679.007 4.241 3.439 7.672 7.677 7.681v1 .998c-5.345 0-9.677-4.332-9.677-9.679 0-5.345 4.332-9.679 9.677-9.679h17.359c5.345 0 9.679 4.332 9.681 9.679-.002 5.347-4.336 9.679-9.681 9.679z"/><path d="m413.256 298.959v-1-1.002l17.357.003c4.238-.009 7.671-3.44 7.679-7.68-.008-4.241-3.44-7.673-7.679-7.679h-17.357c-4.243.006-7.673 3.438-7.681 7.679.008 4.241 3.438 7.671 7.681 7.677v1.002 1c-5.348 0-9.681-4.333-9.681-9.679 0-5.347 4.333-9.68 9.681-9.68h17.357c5.345 0 9.678 4.333 9.68 9.68-.002 5.346-4.335 9.679-9.68 9.679z"/></g></svg>