<svg enable-background="new 0 0 598.189 350.26" height="350.26" viewBox="0 0 598.189 350.26" width="598.189" xmlns="http://www.w3.org/2000/svg"><g fill="#f4f4f4"><path d="m58.296 111.342c-1.11 0-2.005-.897-2.005-2.005v-22.777c0-1.107.897-2.005 2.005-2.005h22.776c1.108 0 2.005.897 2.005 2.005v22.776c0 1.108-.897 2.005-2.005 2.005h-22.776zm-.007-24.782v22.776l.006.006h22.776l.006-.006h-.002l.002-22.776-.006-.006h-22.775z"/><path d="m86.065 111.342c-1.107 0-2.003-.897-2.005-2.005v-22.777c.002-1.107.897-2.005 2.005-2.005h22.778c1.107.002 2.003.897 2.005 2.005v22.776c0 1.108-.897 2.005-2.005 2.005h-22.778zm-.004-24.782v22.776l.004.006h22.778l.006-.006h-.002l.002-22.776-.006-.006h-22.778z"/><path d="m113.837 111.342c-1.107 0-2.005-.897-2.005-2.005v-22.777c0-1.107.897-2.005 2.005-2.005h22.778c1.106 0 2.003.897 2.005 2.005v22.776h-.002c0 1.108-.896 2.005-2.003 2.005h-22.778zm-.004-24.782-.002 22.776.006.006h22.778l.004-.006v-22.776l-.004-.006h-22.778s-.006.006-.004.006z"/><path d="m141.609 111.342c-1.107 0-2.005-.897-2.005-2.005v-22.777c0-1.107.898-2.005 2.005-2.005h22.776c1.107 0 2.005.897 2.005 2.005v22.776c0 1.108-.896 2.005-2.005 2.005h-22.776zm-.007-24.782v22.776l.006.006h22.776l.006-.006h-.002l.002-22.776-.006-.006h-22.776z"/><path d="m169.38 111.342c-1.109 0-2.005-.897-2.007-2.005v-22.777c0-1.107.899-2.005 2.007-2.005h22.776c1.108 0 2.005.897 2.005 2.005v22.776c-.002 1.108-.897 2.005-2.005 2.005h-22.776zm-.006-24.782v22.776l.006.006h22.776l.004-.006v-22.776l-.004-.006h-22.776z"/><path d="m197.15 111.342c-1.108 0-2.003-.897-2.005-2.005v-22.777c0-1.107.897-2.005 2.005-2.005h22.776c1.108.002 2.005.897 2.007 2.005v22.776c0 1.108-.897 2.005-2.007 2.005h-22.776zm-.004-24.782v22.776l.004.006h22.776l.006-.006v-22.776l-.006-.006h-22.776z"/><path d="m224.922 111.342c-1.109 0-2.004-.897-2.006-2.005l.002-22.777c0-1.108.897-2.005 2.004-2.005h22.778c1.107 0 2.004.897 2.004 2.005v22.777c-.002 1.108-.897 2.005-2.004 2.005zm22.777-1.999.004-.006v-22.777l-.004-.004h-22.778l-.006.004v22.777s.006.006.006.004z"/><path d="m252.693 111.341c-1.109 0-2.005-.898-2.005-2.003v-22.777c0-1.107.898-2.005 2.005-2.005h22.777c1.107 0 2.003.898 2.003 2.005v22.777c0 1.105-.896 2.003-2.003 2.005zm-.006-24.78v22.777l.006.004h22.777l.004-.004v-22.777l-.004-.006h-22.777z"/><path d="m280.463 111.342c-1.107 0-2.004-.897-2.006-2.004l.002-22.777c0-1.109.897-2.006 2.004-2.006h22.777c1.108.002 2.004.897 2.006 2.006v22.777c-.002 1.105-.897 2.002-2.006 2.004zm-.004-24.781v22.777l.004.004h22.777l.006-.004v-22.777l-.006-.006h-22.777z"/><path d="m308.234 111.342c-1.108 0-2.005-.898-2.005-2.004v-22.778c0-1.109.898-2.005 2.005-2.005h22.777c1.106 0 2.005.896 2.007 2.005v22.777h-.002c0 1.108-.896 2.004-2.005 2.004h-22.777zm-.004-24.782-.002 22.777.006.004h22.777l.007-.004h-.002l.002-22.777s-.007-.006-.007-.004l-22.777-.002s-.006.006-.004.006z"/><path d="m336.008 111.341c-1.11 0-2.008-.897-2.008-2.005v-22.775c0-1.108.899-2.005 2.008-2.007l22.775.002c1.106.002 2.001.896 2.005 2.005v22.776h-.002c0 1.108-.895 2.005-2.003 2.007zm-.007-24.78-.002 22.776.009.006h22.775l.004-.006v-22.776l-.004-.006h-22.775c0-.001-.009.006-.007.006z"/><path d="m363.778 111.342c-1.11 0-2.006-.898-2.008-2.006l.002-22.775c.002-1.108.896-2.003 2.006-2.007l22.775.002c1.107 0 2.005.896 2.007 2.005v22.775h-.002c0 1.108-.897 2.006-2.005 2.006zm-.007-24.781v22.775l.007.006h22.775l.006-.006v-22.775l-.006-.006h-22.775z"/><path d="m100.64 139.056c-1.107 0-2.006-.896-2.006-2.005v-22.776c0-1.107.899-2.006 2.006-2.006h22.778c1.107 0 2.004.898 2.004 2.006v22.776c0 1.109-.896 2.005-2.004 2.005zm-.006-24.782v22.776l.006.006h22.778l.004-.006v-22.776s-.004-.006-.004-.004l-22.778-.002z"/><path d="m128.41 139.056c-1.107 0-2.004-.896-2.004-2.005v-22.776c0-1.107.896-2.006 2.004-2.006h22.778c1.107.002 2.004.898 2.006 2.006v22.776c-.002 1.109-.898 2.003-2.006 2.005zm-.004-24.782v22.776l.004.006h22.778l.006-.006h-.002l.002-22.776s-.006-.006-.006-.004l-22.778-.002z"/><path d="m156.182 139.056c-1.107 0-2.006-.896-2.006-2.005v-22.776c0-1.107.899-2.006 2.006-2.006h22.776c1.107 0 2.006.898 2.006 2.006v22.776c0 1.109-.898 2.005-2.006 2.005zm-.005-24.782v22.776l.006.006h22.776l.006-.006v-22.776s-.006-.006-.006-.004l-22.776-.002z"/><path d="m183.953 139.056c-1.107 0-2.004-.896-2.006-2.005l.002-22.776c0-1.107.896-2.006 2.004-2.006h22.778c1.107 0 2.004.898 2.004 2.006v22.776c0 1.109-.896 2.005-2.004 2.005zm-.005-24.782v22.776l.004.006h22.778l.004-.006v-22.776s-.004-.006-.004-.004l-22.778-.002z"/><path d="m211.725 139.056c-1.107 0-2.006-.896-2.006-2.005v-22.776c0-1.107.899-2.006 2.006-2.006h22.776c1.107 0 2.006.898 2.006 2.006v22.776c0 1.109-.898 2.005-2.006 2.005zm-.006-24.782v22.776l.006.006h22.776l.006-.006v-22.776s-.006-.006-.006-.004l-22.776-.002z"/><path d="m239.495 139.055c-1.107 0-2.004-.896-2.004-2.004v-22.778c0-1.107.897-2.004 2.004-2.006l22.777.002c1.107 0 2.004.896 2.006 2.004v22.778h-.002c0 1.107-.896 2.004-2.004 2.006zm-.004-24.782v22.778l.004.004h22.777l.006-.004h-.002l.002-22.778s-.006-.006-.006-.004l-22.777-.002z"/><path d="m267.266 139.056c-1.107 0-2.005-.897-2.005-2.005v-22.777c0-1.107.898-2.005 2.005-2.005h22.777c1.109 0 2.004.897 2.006 2.005v22.777h-.002c0 1.107-.896 2.005-2.004 2.005zm22.777-1.999.006-.006v-22.777s-.006-.006-.006-.004l-22.777-.002-.004.006v22.777s.004.006.004.004z"/><path d="m295.039 139.057c-1.109 0-2.005-.898-2.007-2.005l.002-22.778c0-1.107.896-2.005 2.005-2.005h22.776c1.106.002 2.003.898 2.005 2.005v22.778h-.002c0 1.107-.896 2.003-2.003 2.005zm-.006-24.784v22.778l.006.004h22.776l.004-.004v-22.778l-.004-.004h-22.776z"/><path d="m322.808 139.055c-1.106 0-2.004-.896-2.006-2.004l.002-22.777c0-1.108.897-2.006 2.004-2.006h22.778c1.106 0 2.004.897 2.007 2.006v22.777h-.003c0 1.108-.897 2.004-2.004 2.006zm22.779-1.997.005-.006v-22.777l-.005-.006h-22.778s-.006.006-.004.006l-.002 22.777s.006.006.006.004z"/><path d="m350.578 139.056c-1.105 0-2.004-.896-2.004-2.004v-22.776c0-1.108.898-2.006 2.004-2.006h22.779c1.107 0 2.004.898 2.006 2.006v22.776h-.002c0 1.108-.896 2.004-2.004 2.004zm-.004-24.781v22.776l.004.004h22.779l.006-.004h-.002l.002-22.776-.006-.006h-22.779z"/><path d="m378.351 139.055c-1.108-.002-2.003-.897-2.007-2.005l.002-22.776c.002-1.108.896-2.003 2.005-2.007l22.775.002c1.107.002 2.003.897 2.007 2.005v22.776h-.002c-.002 1.107-.897 2.003-2.005 2.007zm-.005-24.781-.002 22.776.007.006h22.775l.007-.006h-.002l.002-22.776-.007-.006h-22.775s-.007.006-.005.006z"/><path d="m406.122 139.055c-1.106 0-2.005-.896-2.007-2.003l.002-22.777c0-1.109.898-2.005 2.005-2.005h22.777c1.107 0 2.005.896 2.008 2.005v22.777h-.003c0 1.107-.897 2.003-2.005 2.005zm-.006-24.781v22.777l.006.004h22.777l.006-.004v-22.777l-.006-.006h-22.777z"/><path d="m107.526 166.77c-1.107 0-2.004-.897-2.006-2.004l.002-22.778c0-1.107.897-2.004 2.004-2.004h22.778c1.107 0 2.004.897 2.004 2.004v22.778c0 1.107-.897 2.004-2.004 2.004zm22.777-1.999.004-.006v-22.778s-.004-.006-.004-.004l-22.778-.002-.006.006v22.778s.006.006.006.004z"/><path d="m135.296 166.77c-1.107 0-2.004-.897-2.004-2.004v-22.778c0-1.107.897-2.004 2.004-2.004h22.778c1.107 0 2.006.897 2.006 2.004v22.778c0 1.107-.899 2.004-2.006 2.004zm22.777-1.999.006-.006v-22.778s-.006-.006-.006-.004l-22.778-.002-.004.006v22.778s.004.006.004.004z"/><path d="m163.068 166.77c-1.109 0-2.004-.897-2.007-2.004l.002-22.778c0-1.107.895-2.004 2.004-2.004h22.777c1.107 0 2.004.897 2.004 2.004v22.778c0 1.107-.897 2.004-2.004 2.004zm22.777-1.999.004-.006v-22.778s-.004-.006-.004-.004l-22.777-.002s-.006.006-.004.006l-.002 22.778s.006.006.006.004z"/><path d="m190.84 166.77c-1.109 0-2.006-.897-2.006-2.004v-22.778c0-1.107.897-2.004 2.006-2.004h22.778c1.107 0 2.002.897 2.004 2.004v22.778h-.002c0 1.107-.895 2.004-2.002 2.004zm22.778-1.999.004-.006h-.002l.002-22.778s-.004-.006-.004-.004l-22.778-.002-.006.006v22.778s.006.006.006.004z"/><path d="m218.61 166.77c-1.107 0-2.004-.897-2.006-2.004l.002-22.778c0-1.107.897-2.004 2.004-2.004h22.778c1.107 0 2.004.897 2.004 2.004v22.778c0 1.107-.897 2.004-2.004 2.004zm22.778-1.999.004-.006v-22.778s-.004-.006-.004-.004l-22.778-.002-.006.006v22.778s.006.006.006.004z"/><path d="m246.38 166.77c-1.107 0-2.004-.897-2.004-2.004v-22.778c0-1.107.897-2.004 2.004-2.004h22.778c1.107 0 2.006.897 2.006 2.004v22.778c0 1.107-.899 2.004-2.006 2.004zm22.778-1.999.006-.006v-22.778s-.006-.006-.006-.004l-22.778-.002-.004.006v22.778s.004.006.004.004z"/><path d="m274.152 166.769c-1.108 0-2.004-.896-2.004-2.004v-22.776c0-1.108.896-2.006 2.004-2.006h22.778c1.108 0 2.004.898 2.004 2.006v22.776c0 1.108-.896 2.004-2.004 2.006zm-.004-24.78v22.776l.004.006h22.778l.004-.006v-22.776l-.004-.006h-22.778z"/><path d="m301.925 166.77c-1.107-.002-2.005-.897-2.007-2.005v-22.776c.002-1.108.899-2.003 2.007-2.005h22.776c1.107 0 2.003.897 2.005 2.005v22.776h-.002c0 1.106-.896 2.005-2.003 2.005zm22.776-1.999.004-.006v-22.776l-.004-.006h-22.776l-.007.006v22.776s.007.006.007.004z"/><path d="m329.695 166.769c-1.107 0-2.006-.896-2.006-2.003v-22.777c0-1.109.898-2.005 2.006-2.005h22.775c1.106.002 2.003.898 2.007 2.005v22.777h-.002c-.002 1.107-.898 2.003-2.005 2.006zm-.006-24.781v22.777l.006.004h22.775l.006-.004v-22.777l-.006-.006h-22.775z"/><path d="m357.465 166.771c-1.107 0-2.004-.899-2.004-2.006v-22.777c0-1.107.896-2.004 2.004-2.006l22.778.002c1.107 0 2.005.895 2.005 2.004v22.777c0 1.109-.897 2.004-2.005 2.006zm-.004-24.783v22.777l.004.006h22.778l.005-.006v-22.777s-.005-.006-.005-.004l-22.778-.002z"/><path d="m385.237 166.77c-1.108-.002-2.005-.898-2.007-2.004l.002-22.776c0-1.108.896-2.004 2.005-2.006h22.776c1.106 0 2.004.898 2.004 2.006v22.776c0 1.108-.897 2.004-2.004 2.004zm22.776-1.999.006-.006h-.002l.002-22.776-.006-.006h-22.776l-.006.006v22.776s.006.006.006.004z"/><path d="m413.008 167.114c-1.106 0-2.006-.897-2.006-2.005v-22.777c0-1.108.899-2.005 2.006-2.005h17.685c.683-.048.639-.069.83-.344.19-.324.355-1.251.352-2.758h-.002l.002-22.779c0-1.107.897-2.004 2.006-2.006l22.777.002c.547-.021 1.138.285 1.421.717.293.426.366.872.371 1.287l-.003 50.664c0 1.106-.896 2.005-2.005 2.005h-43.434zm-.006-24.782v22.777l.006.004h43.434s.006-.004.004-.004l.002-50.664c0-.001 0-.003 0-.004h-22.568l-.007.004v22.779h-.999l.999.002c-.019 1.616-.104 2.741-.58 3.687-.476.995-1.604 1.463-2.601 1.413-1.679 0-13.813 0-17.685 0z"/><path d="m121.297 194.482c-1.108 0-2.005-.896-2.005-2.003v-22.778c0-1.108.898-2.005 2.005-2.007l22.778.002c1.107 0 2.003.896 2.003 2.005v22.778c0 1.107-.896 2.003-2.003 2.006zm22.778-1.998.004-.005v-22.778l-.004-.006h-22.778l-.006.006v22.778s.006.005.006.003z"/><path d="m58.294 194.482c-1.108 0-2.003-.896-2.005-2.003v-22.778c0-1.108.898-2.005 2.005-2.005h57.894c1.106 0 2.005.896 2.005 2.005v22.778c-.002 1.107-.898 2.003-2.005 2.006zm57.894-1.998.004-.005v-22.778s-.004-.006-.004-.004l-57.894-.002-.004.006v22.778s.004.005.004.003z"/><path d="m149.068 194.482c-1.108 0-2.005-.896-2.005-2.003v-22.778c0-1.108.896-2.005 2.005-2.007l22.776.002c1.109 0 2.005.896 2.007 2.005v22.778h-.002c0 1.107-.896 2.003-2.005 2.006zm22.776-1.998.006-.005v-22.778l-.006-.006h-22.776s-.006.006-.004.006l-.002 22.778s.006.005.006.003z"/><path d="m176.84 194.482c-1.109 0-2.005-.896-2.007-2.003l.002-22.778c0-1.108.896-2.005 2.005-2.007l22.776.002c1.108 0 2.005.896 2.005 2.005v22.778c0 1.107-.896 2.003-2.005 2.006zm22.776-1.998.004-.005v-22.778l-.004-.006h-22.776l-.006.006v22.778s.006.005.006.003z"/><path d="m204.611 194.482c-1.109 0-2.005-.896-2.007-2.003v-22.778c0-1.108.898-2.005 2.007-2.007l22.776.002c1.108 0 2.005.896 2.005 2.005v22.778c-.002 1.107-.896 2.003-2.005 2.006zm22.776-1.998.004-.005v-22.778l-.004-.006h-22.776l-.006.006v22.778s.006.005.006.003z"/><path d="m232.38 194.482c-1.106 0-2.003-.896-2.005-2.003v-22.778c.002-1.108.898-2.003 2.005-2.007l22.779.002c1.106.002 2.003.896 2.005 2.005v22.778c-.002 1.107-.898 2.003-2.005 2.006zm22.779-1.998.004-.005v-22.778l-.004-.006h-22.779l-.004.006v22.778s.004.005.004.003z"/><path d="m260.152 194.482c-1.108 0-2.003-.896-2.005-2.003v-22.778c0-1.108.896-2.005 2.005-2.007l22.776.002c1.109 0 2.007.896 2.007 2.005v22.778c-.002 1.107-.898 2.003-2.007 2.006zm22.776-1.998.006-.005v-22.778l-.006-.006h-22.776l-.004.006v22.778s.004.005.004.003z"/><path d="m287.923 194.482c-1.108 0-2.005-.896-2.005-2.003v-22.778c0-1.108.896-2.005 2.005-2.007l22.779.002c1.106.002 2 .898 2.003 2.005v22.778c0 1.107-.896 2.003-2.003 2.006zm22.779-1.998.004-.005h-.002l.002-22.778-.004-.006h-22.779s-.006.006-.004.006l-.002 22.778s.006.005.006.003z"/><path d="m315.694 194.483c-1.11 0-2.005-.898-2.005-2.004v-22.778c.002-1.107.897-2.006 2.005-2.006h22.779c1.107 0 2 .899 2.004 2.006v22.778h-.002c0 1.105-.895 2.004-2.002 2.004zm-.005-24.781v22.778l.005.004h22.779l.004-.004h-.002l.002-22.778-.004-.006h-22.779z"/><path d="m343.466 194.482c-1.109 0-2.005-.896-2.007-2.003l.002-22.777c0-1.109.897-2.007 2.005-2.007h22.777c1.107 0 2.001.899 2.005 2.007v22.777h-.002c0 1.104-.894 2.003-2.003 2.005zm-.006-24.78v22.777l.006.004h22.777l.005-.004v-22.777l-.005-.006h-22.777z"/><path d="m371.235 194.483c-1.109-.002-2.003-.896-2.006-2.004v-22.777c0-1.108.899-2.007 2.006-2.007h22.779c1.106 0 2.003.899 2.005 2.007v22.777h-.002c0 1.107-.896 2.002-2.003 2.004zm22.779-1.999.004-.005v-22.777s-.004-.008-.004-.006l-22.779-.002-.004.008v22.777s.004.005.004.003z"/><path d="m399.009 194.483c-1.11 0-2.005-.896-2.008-2.004l.003-22.777c0-1.108.896-2.005 2.005-2.008h56.859c1.106 0 2.003.899 2.006 2.008v22.777h-.003c0 1.107-.896 2.002-2.003 2.004zm-.006-24.78-.002 22.777.008.005h56.859l.004-.005v-22.777l-.004-.006h-56.859c0-.001-.008.006-.006.006z"/><path d="m462.295 111.342c-1.108 0-2.006-.898-2.006-2.004v-22.778c0-1.108.897-2.004 2.006-2.006h22.777c1.106.002 2.004.898 2.006 2.006v22.777h-.002c0 1.106-.896 2.004-2.004 2.004h-22.777zm-.006-24.782v22.777l.006.004h22.777l.007-.004h-.003l.003-22.777-.007-.006h-22.777z"/><path d="m489.32 111.341c-1.109 0-2.004-.897-2.006-2.004l.002-22.777c.002-1.108.896-2.002 2.004-2.006l22.777.002c1.105 0 2.004.896 2.006 2.004v22.777h-.002c0 1.107-.896 2.004-2.004 2.006zm22.777-1.998.006-.006h-.002l.002-22.777s-.006-.006-.006-.004l-22.777-.002s-.006.006-.004.006l-.002 22.777s.006.006.006.004z"/><path d="m516.518 111.341c-1.108 0-2.006-.896-2.008-2.004l.002-22.777c0-1.109.897-2.004 2.006-2.006l22.777.002c1.106 0 2.004.896 2.006 2.004v22.777h-.001c0 1.109-.897 2.004-2.004 2.006zm-.006-24.781-.002 22.777.008.006h22.777l.006-.006h-.001l.002-22.777s-.006-.006-.006-.004l-22.777-.002c-.001 0-.009.006-.007.006z"/><path d="m462.295 139.057c-1.108-.002-2.006-.898-2.006-2.006v-22.777c0-1.108.897-2.004 2.006-2.004h22.777c1.106 0 2.004.896 2.006 2.004v22.777h-.002c0 1.108-.897 2.004-2.004 2.006zm-.006-24.784v22.777l.006.006h22.777l.007-.006h-.003l.003-22.777-.007-.004h-22.777z"/><path d="m489.32 139.055c-1.107 0-2.002-.896-2.006-2.004l.002-22.777c.002-1.106.896-2.002 2.004-2.007l22.777.002c1.105 0 2.004.896 2.006 2.004v22.777h-.002c0 1.107-.898 2.004-2.004 2.006zm22.777-1.998.006-.006h-.002l.002-22.777s-.006-.006-.006-.004l-22.777-.002s-.006.006-.004.006l-.002 22.777s.006.006.006.004z"/><path d="m516.518 139.056c-1.108 0-2.006-.897-2.008-2.004l.002-22.776c0-1.109.897-2.007 2.006-2.007h22.777c1.106 0 2.004.897 2.006 2.007v22.776h-.001c0 1.107-.897 2.004-2.004 2.004zm-.006-24.781-.002 22.776.008.004h22.777l.006-.004h-.001l.002-22.776-.006-.006h-22.777c-.001 0-.009.006-.007.006z"/><path d="m462.295 166.77c-1.108 0-2.006-.898-2.006-2.004v-22.777c0-1.108.897-2.006 2.006-2.006h22.777c1.106 0 2.004.898 2.006 2.006v22.777h-.002c0 1.106-.897 2.004-2.004 2.004zm-.006-24.782v22.777l.006.004h22.777l.007-.004h-.003l.003-22.777-.007-.006h-22.777z"/><path d="m489.32 166.771c-1.107-.002-2.002-.899-2.006-2.007l.002-22.777c.002-1.105.896-2.002 2.004-2.004h22.777c1.105 0 2.004.896 2.006 2.004v22.777h-.002c0 1.108-.898 2.007-2.004 2.007zm-.004-24.784-.002 22.777.006.006h22.777l.006-.006h-.002l.002-22.777s-.006-.006-.006-.004l-22.777-.002s-.006.006-.004.006z"/><path d="m516.518 166.77c-1.108 0-2.006-.897-2.008-2.004l.002-22.778c0-1.107.897-2.004 2.006-2.004h22.777c1.106 0 2.004.897 2.006 2.004v22.778h-.001c0 1.107-.897 2.004-2.004 2.004zm-.006-24.783-.002 22.778.008.004h22.777l.006-.004h-.001l.002-22.778-.006-.004h-22.777c-.001 0-.009.004-.007.004z"/><path d="m462.295 194.482c-1.108 0-2.004-.896-2.006-2.004v-22.777c0-1.108.897-2.004 2.006-2.006h22.777c1.106.002 2.004.898 2.006 2.006v22.777h-.002c0 1.108-.896 2.004-2.004 2.006zm22.777-1.998.007-.006h-.003l.003-22.777-.007-.006h-22.777l-.006.006v22.777s.006.006.006.004z"/><path d="m489.32 194.482c-1.109 0-2.004-.896-2.006-2.002l.002-22.779c.002-1.107.896-2.004 2.004-2.006l22.777.002c1.105 0 2.004.897 2.006 2.004v22.779h-.002c0 1.105-.896 2.002-2.004 2.004zm22.777-1.998.006-.004h-.002l.002-22.779s-.006-.006-.006-.004l-22.777-.002s-.006.006-.004.006l-.002 22.779s.006.004.006.002z"/><path d="m516.518 194.482c-1.108 0-2.006-.896-2.008-2.002l.002-22.779c0-1.109.897-2.006 2.006-2.006h22.777c1.106 0 2.004.897 2.006 2.006v22.779h-.001c0 1.106-.897 2.002-2.004 2.004zm22.778-1.998.006-.004h-.002l.002-22.779-.006-.006h-22.777s-.008.006-.006.006l-.002 22.779s.008.004.008.002z"/><path d="m462.295 222.197c-1.106 0-2.006-.896-2.006-2.004v-22.777c.002-1.108.897-2.004 2.006-2.006h22.777c1.108.002 2.004.897 2.006 2.006v22.777h-.002c0 1.108-.897 2.004-2.004 2.004zm-.006-24.781v22.777l.006.004h22.777l.007-.004h-.003l.003-22.777-.007-.006h-22.777z"/><path d="m489.32 222.196c-1.107-.003-2.004-.897-2.006-2.003l.002-22.778c0-1.108.895-2.005 2.004-2.005h22.777c1.107 0 2.004.896 2.006 2.005v22.778h-.002c0 1.108-.898 2.003-2.004 2.005zm22.777-1.998.006-.005h-.002l.002-22.778-.006-.005h-22.777s-.006.005-.004.005l-.002 22.778s.006.005.006.003z"/><path d="m516.518 222.197c-1.108 0-2.006-.896-2.008-2.003l.002-22.778c0-1.109.897-2.005 2.006-2.007l22.777.002c1.106 0 2.004.896 2.006 2.005v22.778h-.001c0 1.107-.897 2.003-2.004 2.003zm22.778-1.998.006-.005h-.002l.002-22.778s-.006-.007-.006-.004l-22.777-.003s-.008.007-.006.007l-.002 22.778s.008.005.008.002z"/><path d="m391.548 111.342c-1.106 0-2.006-.896-2.006-2.006v-22.776c0-1.107.899-2.004 2.006-2.006l22.777.002c1.107.002 2.002.899 2.006 2.004v22.777h-.002c0 1.107-.895 2.006-2.004 2.006h-22.777zm-.006-24.782v22.777l.006.006h22.777l.006-.006h-.002l.002-22.777-.006-.004h-22.777z"/><path d="m420.294 111.343c-1.106-.002-2.006-.897-2.006-2.005v-22.778c0-1.108.899-2.006 2.006-2.006h36.205c1.106.002 2.001.899 2.005 2.006v22.777h-.002c0 1.106-.895 2.005-2.003 2.005h-36.205zm-.005-24.783-.002 22.777.007.004h36.205l.004-.004v-22.777s-.004-.006-.004-.004l-36.205-.002s-.007.006-.005.006z"/><path d="m413.065 222.196c-1.109 0-2.006-.894-2.008-2.002l.002-22.779c0-1.108.896-2.003 2.006-2.006l43.434.003c1.108 0 2.003.896 2.005 2.003v22.779h-.002c0 1.106-.896 2-2.003 2.004zm43.434-1.997.004-.005v-22.779s-.004-.006-.004-.004l-43.434-.002-.007.006v22.779s.007.005.007.002z"/><path d="m58.296 222.196c-1.108 0-2.006-.896-2.006-2.002v-22.778c0-1.108.897-2.006 2.006-2.006h41.367c1.108 0 2.005.897 2.005 2.006v22.778c0 1.108-.899 2.002-2.005 2.004zm41.367-1.997.006-.005v-22.778s-.006-.007-.006-.004l-41.367-.003-.006.007v22.778s.006.005.006.002z"/><path d="m58.295 166.77c-1.107 0-2.005-.897-2.005-2.004v-22.778c0-1.107.897-2.004 2.005-2.004h43.434c1.109 0 2.006.897 2.006 2.004v22.778c0 1.107-.897 2.004-2.006 2.004zm43.433-1.999.006-.006v-22.778s-.006-.006-.006-.004l-43.434-.002-.004.006v22.778s.004.006.004.004z"/><path d="m58.295 139.056c-1.107 0-2.006-.896-2.006-2.003v-22.778c0-1.107.898-2.006 2.006-2.006h37.236c1.107 0 2.006.898 2.006 2.006v22.778c0 1.107-.898 2.003-2.006 2.003zm-.004-24.782-.002 22.778.006.004h37.236l.006-.004v-22.778s-.006-.006-.006-.004l-37.236-.002s-.006.006-.004.006z"/><path d="m370.029 222.196c-1.106 0-2.004-.895-2.006-2.003l.002-22.779c0-1.106.897-2.004 2.004-2.004h38.271c1.109 0 2.003.897 2.005 2.004v22.779h-.002c0 1.106-.896 2.001-2.003 2.005zm-.004-24.782-.002 22.779.006.005h38.271l.005-.005h-.002l.002-22.779-.005-.004h-38.271s-.006.004-.004.004z"/><path d="m104.943 222.196c-1.108 0-2.005-.894-2.007-2.002l.002-22.778c0-1.108.897-2.006 2.005-2.006h40.335c1.108 0 2.004.897 2.006 2.006v22.778h-.002c0 1.106-.897 2.002-2.004 2.004zm40.335-1.997.004-.005v-22.778s-.004-.007-.004-.004l-40.335-.003-.006.007v22.778s.006.005.006.002z"/><path d="m150.387 222.198c-1.107 0-2.007-.896-2.007-2.005v-22.777c0-1.108.898-2.004 2.007-2.007l214.879.003c1.106 0 2.005.896 2.005 2.004v22.777c0 1.109-.898 2.005-2.005 2.005zm-.006-24.782v22.777l.006.004h214.879l.006-.004h-.002l.002-22.777-.006-.006h-214.879z"/><path d="m49.62 228.18v-150.469h498.522v149.466 1.002h-498.522zm497.522-1.002v-.999zm-495.522-.999h494.52v-146.466h-494.52z"/><path d="m32.675 324.102v-1.001l.999-.032-.999.032v1.001h-.969l-8.843-280.343h550.485l-8.843 280.342h-531.83zm529.893-2.002 8.716-276.341h-546.358l8.716 276.341z"/><path d="m7.403 346.308v-343.345h580.891v342.345 1zm579.89-1v-1.002zm-577.89-1.002h576.888v-339.342h-576.888z"/><path d="m31.674 345.306v-22.204h2v22.204z"/><path d="m197.956 345.049v-21.947h2v21.947z"/><path d="m396.256 345.306v-22.204h2v22.204z"/><path d="m562.537 345.048v-21.945h2.001v21.945z"/><path d="m37.354 44.931v-25.853h-1.442v25.853h-1.999v-27.852h5.442v27.852z"/><path d="m55.37 44.931v-25.853h-1.443v25.853h-2v-27.852h5.442v27.852z"/><path d="m73.384 44.931v-25.853h-1.442v25.853h-1.999v-27.852h5.442v27.852z"/><path d="m91.4 44.931v-25.853h-1.443v25.853h-2v-27.852h5.442v27.852z"/><path d="m109.414 44.931v-25.853h-1.443v25.853h-1.999v-27.852h5.441l.002 27.852z"/><path d="m127.429 44.931v-25.853h-1.442v25.853h-2v-27.852h5.441v27.852z"/><path d="m145.444 44.931v-25.853h-1.443v25.853h-1.999v-27.852h5.441l.002 27.852z"/><path d="m163.459 44.931-.002-25.853h-1.442v25.853h.002-2.001v-27.852h5.442v27.852z"/><path d="m181.474 44.931-.002-25.853h-1.441v25.853h-2v-27.852h5.441v27.852z"/><path d="m199.488 44.932v-25.854h-1.442v25.854h-2.001v-27.853h5.442l.002 27.853z"/><path d="m217.502 44.93v-25.852h-1.441v25.852h-2.001v-27.852h5.441l.003 27.852z"/><path d="m235.517 44.932v-25.854h-1.442v25.854h-2v-27.853h5.442v27.853z"/><path d="m253.532 44.931v-25.853h-1.441v25.853h-2v-27.853h5.441v27.853z"/><path d="m271.548 44.932v-25.853h-1.443v25.853h-2v-27.853h5.441l.002 27.853z"/><path d="m289.562 44.93v-25.852h-1.442v25.852h-2.001v-27.853h5.443v27.853z"/><path d="m307.577 44.932-.002-25.854h-1.441v25.854h-1.999v-27.853h5.44l.002 27.853z"/><path d="m325.591 44.931v-25.853h-1.445v25.853h.003-2.002v-27.852h5.443l.002 27.852z"/><path d="m343.606 44.931v-25.852h-1.443v25.852h.002-2.001v-27.853h5.441l.002 27.853z"/><path d="m361.62 44.932v-25.855h-1.443v25.855h-1.999v-27.854h5.442v27.854z"/><path d="m379.636 44.932-.001-25.855h-1.444v25.855h.002-2.001v-27.853h5.443l.001 27.853z"/><path d="m397.651 44.931v-25.853h-1.444v25.853h.002-2v-27.853h5.441v27.853z"/><path d="m415.666 44.931v-25.853h-1.444v25.853h-2v-27.853h5.442l.002 27.853z"/><path d="m433.68 44.931v-25.852h-1.444v25.852h.002-2v-27.852h5.44l.002 27.852z"/><path d="m451.696 44.932-.002-25.854h-1.441v25.854h-2.001v-27.854h5.442l.002 27.854z"/><path d="m469.711 44.932-.002-25.854h-1.443v25.854h.002-2v-27.853h5.441l.002 27.853z"/><path d="m487.724 44.932v-25.856h-1.443v25.856h.002-2.001v-27.854h5.44l.002 27.854z"/><path d="m505.74 44.932v-25.855h-1.444v25.855h-2.001v-27.853h5.443l.002 27.853z"/><path d="m523.756 44.932-.003-25.855h-1.443v25.855h.002-2.001v-27.853h5.443l.002 27.853z"/><path d="m541.769 44.932v-25.855h-1.443v25.855h-1.999v-27.854h5.441l.002 27.854z"/><path d="m559.784 44.931v-25.854h-1.444v25.854h.002-2.001v-27.852h5.442l.002 27.852z"/><path d="m2.929 73.592c-.002-4.353 1.917-8.264 4.953-10.921l1.317 1.504c-2.619 2.297-4.271 5.66-4.271 9.417 0 3.692 1.596 7.002 4.139 9.297l-1.34 1.484c-2.946-2.651-4.8-6.506-4.798-10.781z"/><path d="m2.929 293.237c-.002-4.354 1.919-8.265 4.953-10.921l1.318 1.504c-2.621 2.297-4.272 5.659-4.272 9.417 0 3.69 1.595 7.002 4.139 9.295v.002l-1.34 1.484c-2.945-2.653-4.8-6.505-4.798-10.781z"/><path d="m586.423 82.889c2.542-2.293 4.138-5.605 4.138-9.297 0-3.756-1.652-7.119-4.27-9.417l1.315-1.503c3.035 2.656 4.955 6.569 4.953 10.92.002 4.276-1.853 8.13-4.798 10.781v.002z"/><path d="m586.423 302.532c2.542-2.294 4.138-5.604 4.138-9.295 0-3.759-1.65-7.119-4.27-9.417l1.315-1.505c3.035 2.657 4.955 6.569 4.955 10.922 0 4.275-1.854 8.128-4.8 10.781z"/></g></svg>