<svg height="350.26" viewBox="0 0 598.189 350.26" width="598.189" xmlns="http://www.w3.org/2000/svg"><g fill="#f4f4f4"><path d="m234.975 7.421c-2.833 0-5.153 2.32-5.153 5.152v324.854c0 2.833 2.32 5.129 5.153 5.129h129.155c2.832 0 5.152-2.296 5.152-5.129v-324.854c0-2.833-2.32-5.152-5.152-5.152zm0 1.534h129.155c2.004 0 3.618 1.615 3.618 3.619v324.854c0 2.005-1.614 3.596-3.618 3.596h-129.155c-2.004 0-3.62-1.591-3.62-3.596v-324.855c0-2.003 1.616-3.618 3.62-3.618z"/><path d="m299.563 84.906c-29.611 0-53.636 24.024-53.636 53.636 0 29.611 24.024 53.636 53.636 53.636 29.61 0 53.612-24.024 53.612-53.636 0-29.611-24.002-53.636-53.612-53.636zm0 1.534c28.782 0 52.077 23.319 52.077 52.102 0 28.782-23.295 52.102-52.077 52.102s-52.103-23.319-52.103-52.102c0-28.782 23.32-52.102 52.103-52.102z"/><path d="m299.563 109.876c-15.829 0-28.687 12.834-28.687 28.663s12.858 28.688 28.687 28.688 28.663-12.858 28.663-28.688-12.834-28.663-28.663-28.663zm0 1.534c15 0 27.129 12.129 27.129 27.129s-12.13 27.154-27.129 27.154c-15 0-27.153-12.154-27.153-27.154s12.153-27.129 27.153-27.129z"/><path d="m299.563 94.516c-1.584 0-2.9 1.292-2.9 2.876v7.597c0 1.583 1.316 2.876 2.9 2.876s2.875-1.293 2.875-2.876v-7.597c0-1.584-1.292-2.876-2.875-2.876zm0 1.533c.752 0 1.341.587 1.341 1.342v7.597c0 .755-.587 1.342-1.341 1.342s-1.366-.588-1.366-1.342v-7.597c0-.754.611-1.342 1.366-1.342z"/><path d="m299.563 91.517c-25.966 0-47.045 21.055-47.045 47.021s21.079 47.045 47.045 47.045c25.965 0 47.02-21.08 47.02-47.045 0-25.968-21.051-47.02-47.02-47.021zm0 1.534c25.136 0 45.487 20.351 45.487 45.487s-20.351 45.511-45.487 45.511c-25.137 0-45.511-20.375-45.511-45.511.001-25.132 20.376-45.485 45.512-45.485z"/><path d="m270.444 106.563c-.74 0-1.477.279-2.037.839-1.12 1.119-1.12 2.955 0 4.074l5.368 5.368c1.12 1.12 2.955 1.12 4.074 0 1.12-1.119 1.12-2.954 0-4.074l-5.369-5.369c-.56-.552-1.297-.836-2.037-.836zm0 1.51c.343 0 .692.141.958.407l5.369 5.369c.533.534.533 1.384 0 1.917-.521.52-1.334.517-1.87.024l-.048-.024-5.369-5.368c-.534-.534-.533-1.384 0-1.917.268-.267.617-.408.96-.408z"/><path d="m258.389 135.66c-1.584 0-2.876 1.292-2.876 2.875s1.292 2.9 2.876 2.9h7.597c1.583 0 2.876-1.317 2.876-2.9.001-1.583-1.293-2.875-2.876-2.875zm0 1.534h7.597c.754 0 1.342.588 1.342 1.342 0 .755-.588 1.366-1.342 1.366h-7.597c-.754 0-1.342-.612-1.342-1.366s.587-1.342 1.342-1.342z"/><path d="m275.813 159.412c-.739-.001-1.477.278-2.037.838l-5.368 5.369c-1.12 1.118-1.12 2.954 0 4.074 1.12 1.119 2.954 1.119 4.074 0l5.369-5.368c1.12-1.119 1.12-2.954 0-4.074-.561-.561-1.299-.839-2.038-.839zm0 1.509c.344 0 .692.141.959.408.533.533.533 1.36 0 1.894l-5.369 5.368c-.534.533-1.384.533-1.917 0-.534-.534-.533-1.36 0-1.893l5.369-5.369c.266-.268.614-.408.958-.408z"/><path d="m299.563 169.235c-1.583 0-2.9 1.293-2.9 2.876v7.597c0 1.584 1.317 2.876 2.9 2.876s2.875-1.292 2.875-2.876v-7.597c0-1.584-1.292-2.876-2.875-2.876zm0 1.534c.752 0 1.341.588 1.341 1.342v7.597c0 .754-.587 1.343-1.341 1.343-.753 0-1.366-.588-1.366-1.343v-7.597c0-.754.612-1.342 1.366-1.342z"/><path d="m323.291 159.412c-.739-.001-1.478.278-2.037.838-1.119 1.119-1.12 2.954 0 4.074l5.368 5.368c1.119 1.119 2.954 1.119 4.074 0 1.119-1.12 1.119-2.955 0-4.074l-5.369-5.369c-.558-.559-1.297-.837-2.036-.837zm0 1.509c.343 0 .692.14.958.408l5.369 5.369c.533.533.533 1.359 0 1.893-.534.533-1.384.533-1.918 0l-5.368-5.368c-.534-.534-.532-1.36 0-1.894.268-.268.615-.408.959-.408z"/><path d="m333.114 135.66c-1.584 0-2.876 1.293-2.876 2.875 0 1.307.909 2.384 2.109 2.732v.167h.767 7.598c1.583 0 2.875-1.317 2.875-2.9s-1.292-2.875-2.875-2.875h-7.598zm0 1.534h7.598c.754 0 1.342.588 1.342 1.342 0 .753-.587 1.366-1.342 1.366h-6.83-.768c-.754 0-1.342-.614-1.342-1.366 0-.755.586-1.342 1.342-1.342z"/><path d="m328.659 106.563c-.739 0-1.478.28-2.037.839l-5.368 5.369c-1.12 1.12-1.12 2.954 0 4.074 1.118 1.12 2.954 1.12 4.073 0l5.369-5.368c1.118-1.119 1.119-2.955 0-4.074-.559-.56-1.298-.84-2.037-.84zm0 1.51c.344 0 .691.141.959.407.533.534.532 1.385 0 1.917l-5.369 5.368c-.532.533-1.385.533-1.917 0-.534-.534-.534-1.383 0-1.917l5.32-5.32.048-.048c.267-.266.615-.407.959-.407z"/><path d="m299.563 121.572c-9.361 0-16.968 7.607-16.968 16.968s7.607 16.968 16.968 16.968 16.967-7.606 16.967-16.968c0-9.361-7.606-16.968-16.967-16.968zm0 1.533c8.532 0 15.433 6.902 15.433 15.434s-6.901 15.434-15.433 15.434-15.434-6.902-15.434-15.434c0-8.531 6.901-15.434 15.434-15.434z"/><path d="m299.563 115.291c-12.828 0-23.247 10.42-23.247 23.247s10.42 23.246 23.247 23.246 23.222-10.419 23.222-23.246c0-12.823-10.392-23.245-23.222-23.245zm0 1.534c11.999 0 21.689 9.715 21.689 21.713s-9.69 21.712-21.689 21.712-21.713-9.715-21.713-21.712c0-11.995 9.715-21.711 21.713-21.711z"/><path d="m236.054 13.795v.767 37.075.767h.767 124.938.767v-.767-37.074-.767h-.767-124.939-.766zm1.533 1.534h123.404v35.542h-123.404z"/><path d="m232.027 5.623c-3.558 0-6.471 2.89-6.471 6.447v81.745c0 3.025 2.092 5.561 4.913 6.255l.359-1.488c-2.147-.529-3.739-2.447-3.739-4.771v-81.744c0-2.729 2.208-4.914 4.937-4.914h5.824c1.397 0 2.651.581 3.547 1.51l1.103-1.079c-1.173-1.217-2.829-1.965-4.65-1.965h-5.823z"/><path d="m361.321 5.623c-1.822 0-3.475.748-4.649 1.965l1.103 1.078c.898-.93 2.147-1.51 3.543-1.51h5.848c2.731 0 4.914 2.184 4.914 4.913v81.745c0 2.32-1.592 4.24-3.739 4.769l.384 1.486c2.821-.695 4.889-3.231 4.889-6.255v-81.744c-.015-3.561-2.898-6.45-6.457-6.45h-5.848z"/></g></svg>