<svg height="350.26" viewBox="0 0 598.189 350.26" width="598.189" xmlns="http://www.w3.org/2000/svg"><g fill="#f4f4f4"><path d="m160.078 38.753v-2h4.97v2z"/><path d="m160.13 28.813v-2h4.973v2z"/><path d="m169.072 38.755v-2h4.972v2z"/><path d="m169.125 28.813v-2h4.972v2z"/><path d="m177.295 38.754v-2h4.972v2z"/><path d="m177.35 28.812v-2h4.97v2z"/><path d="m186.291 38.754v-2h4.971v2z"/><path d="m186.345 28.813v-2h4.971v2z"/><path d="m194.516 38.754v-2h4.971v2z"/><path d="m194.568 28.813v-2h4.97v2z"/><path d="m203.51 38.754v-2h4.971v2z"/><path d="m203.562 28.813v-2h4.971v2z"/><path d="m211.733 38.755v-2.001h4.97v2.001z"/><path d="m211.787 28.813v-2h4.969v2z"/><path d="m220.729 38.754v-2.001h4.969v2.001z"/><path d="m220.782 28.813v-2.001h4.969v2.001z"/><path d="m228.951 38.753v-1.998h4.972v1.998z"/><path d="m229.004 28.813v-2.001h4.971v2.001z"/><path d="m237.947 38.754v-1.999h4.971v1.999z"/><path d="m237.999 28.811v-1.998h4.972v1.998z"/><path d="m246.171 38.754v-1.999h4.969v1.999z"/><path d="m246.224 28.812v-1.999h4.97v1.999z"/><path d="m255.167 38.754v-2.001h4.97v2.001z"/><path d="m255.218 28.813v-2.001h4.972v2.001z"/><path d="m263.389 38.754v-2.001h4.97v2.001z"/><path d="m263.441 28.812v-1.999h4.971v1.999z"/><path d="m272.384 38.754v-2.001h4.97v2.001z"/><path d="m272.436 28.813v-2.001h4.972v2.001z"/><path d="m280.607 38.754v-2.001h4.971v2.001z"/><path d="m280.661 28.812v-1.999h4.97v1.999z"/><path d="m289.602 38.753v-1.999h4.972v1.999z"/><path d="m289.655 28.812v-1.999h4.97v1.999z"/><path d="m297.825 38.754v-1.999h4.971v1.999z"/><path d="m297.879 28.812v-1.999h4.971v1.999z"/><path d="m306.819 38.755v-2.001h4.973v2.001z"/><path d="m306.873 28.813v-2.001h4.973v2.001z"/><path d="m315.044 38.754v-1.999h4.972v1.999z"/><path d="m315.096 28.812v-1.999h4.972v1.999z"/><path d="m324.04 38.754v-2h4.97v2z"/><path d="m324.091 28.813v-2.001h4.972v2.001z"/><path d="m332.263 38.754v-1.999h4.969v1.999z"/><path d="m332.315 28.813v-2.001h4.971v2.001z"/><path d="m341.258 38.753v-1.999h4.97v1.999z"/><path d="m341.309 28.813v-2.001h4.972v2.001z"/><path d="m349.481 38.754v-2h4.971v2z"/><path d="m349.533 28.812v-1.999h4.969v1.999z"/><path d="m358.476 38.754v-2h4.972v2z"/><path d="m358.529 28.813v-2.001h4.971v2.001z"/><path d="m366.7 38.754v-1.999h4.971v1.999z"/><path d="m366.753 28.813v-2.001h4.971v2.001z"/><path d="m375.694 38.755v-2.002h4.971v2.002z"/><path d="m375.746 28.812v-2h4.973v2z"/><path d="m383.917 38.753v-1.999h4.972v1.999z"/><path d="m383.971 28.813v-2.001h4.97v2.001z"/><path d="m392.913 38.754v-1.999h4.973v1.999z"/><path d="m392.964 28.813v-2h4.973v2z"/><path d="m401.137 38.754v-1.999h4.97v1.999z"/><path d="m401.189 28.813v-2h4.971v2z"/><path d="m410.131 38.754v-2h4.972v2z"/><path d="m410.185 28.812v-2h4.97v2z"/><path d="m418.355 38.753v-1.999h4.969v1.999z"/><path d="m418.407 28.813v-2.001h4.971v2.001z"/><path d="m427.35 38.755v-2.002h4.97v2.002z"/><path d="m427.401 28.812v-1.999h4.973v1.999z"/><path d="m155.447 61.058v-36.823h5.578v18.726c.002.873.707 1.577 1.579 1.579.87-.002 1.574-.706 1.576-1.579v-18.726h5.841l-.002 18.726c.002.873.708 1.577 1.578 1.579.873-.002 1.577-.706 1.579-1.579v-18.726h5.069l-.002 18.726c.002.873.707 1.577 1.579 1.579.872-.002 1.576-.706 1.578-1.579v-18.726h5.839v18.726c.002.873.707 1.577 1.579 1.579.87-.002 1.574-.706 1.576-1.579v-18.726h5.069l-.002 18.726c.002.873.708 1.577 1.579 1.579.872-.002 1.576-.706 1.579-1.579v-18.726h5.839v18.726c.002.873.707 1.577 1.579 1.579.87-.002 1.574-.706 1.576-1.579v-18.726h5.069v18.726c.002.873.706 1.577 1.578 1.579.87-.002 1.574-.706 1.577-1.579v-18.726h5.841l-.002 18.726c.002.873.708 1.577 1.579 1.579.872-.002 1.576-.706 1.579-1.579v-18.726h5.069l-.002 18.726c.002.873.708 1.577 1.578 1.579.87-.002 1.577-.706 1.577-1.579v-18.726h5.841v18.726c.002.873.706 1.577 1.576 1.579.872-.002 1.576-.706 1.579-1.579v-18.726h5.069v18.726c0 .873.707 1.577 1.577 1.579.872-.002 1.576-.706 1.578-1.579v-18.726h5.839v18.726c.002.873.706 1.577 1.578 1.579.87-.002 1.574-.706 1.577-1.579v-18.726h5.069v18.726c.002.873.707 1.577 1.579 1.579.87-.002 1.574-.706 1.576-1.579v-18.726h5.841v18.726c0 .873.704 1.577 1.577 1.579.87-.002 1.576-.706 1.578-1.579v-18.726h5.067v18.726c.002.873.706 1.577 1.578 1.579.87-.002 1.574-.706 1.576-1.579v-18.726h5.841v18.726c.002.873.707 1.577 1.577 1.579.872-.002 1.576-.706 1.578-1.579v-18.726h5.069l-.002 18.726c.002.873.708 1.577 1.578 1.579.872-.002 1.576-.706 1.576-1.579v-18.726h5.842v18.726c.002.873.708 1.577 1.578 1.579.87-.002 1.574-.706 1.576-1.579v-18.726h5.069v18.726c.002.873.706 1.577 1.579 1.579.869-.002 1.573-.706 1.573-1.579v-18.726h5.844l-.002 18.726c.002.873.708 1.577 1.581 1.579.867-.002 1.573-.706 1.573-1.579v-18.726h5.071l-.002 18.726c.002.873.707 1.577 1.576 1.579.873-.002 1.577-.706 1.579-1.579v-18.726h5.841l-.002 18.726c.002.873.708 1.577 1.578 1.579.872-.002 1.577-.706 1.577-1.579v-18.726h5.071l-.003 18.726c.003.873.707 1.577 1.579 1.579.872-.002 1.576-.706 1.576-1.579v-18.726h5.841v18.726c.003.873.707 1.577 1.579 1.579.867-.002 1.574-.706 1.574-1.579v-18.726h5.071v18.726c0 .873.704 1.577 1.576 1.579.872-.002 1.576-.706 1.576-1.579v-18.726h5.844l-.003 18.726c.003.873.709 1.577 1.579 1.579.87-.002 1.576-.706 1.576-1.579v-18.726h5.069v18.726c.002.873.708 1.577 1.578 1.579.868-.002 1.574-.706 1.574-1.579v-18.726h5.844l-.003 18.726c.003.873.709 1.577 1.579 1.579.87-.002 1.576-.706 1.576-1.579v-18.726h5.071l-.002 18.726c.002.873.708 1.577 1.578 1.579.872-.002 1.576-.706 1.578-1.579v-18.726h5.84l-.003 18.726c.003.873.709 1.577 1.581 1.579.868-.002 1.574-.706 1.574-1.579v-18.726h5.071l-.002 18.726c.002.873.706 1.577 1.578 1.579.872-.002 1.576-.706 1.578-1.579v-18.726h5.84v18.726c.002.873.706 1.577 1.578 1.579.868-.002 1.574-.706 1.576-1.579v-18.715l5.842-.062-.003 18.739c.003.87.707 1.574 1.579 1.576.872-.002 1.576-.706 1.578-1.576v-17.729-1h143.29v36.863h-428.287zm2-2h424.287v-32.864h-139.287v16.729c0 1.976-1.603 3.576-3.578 3.576-1.977 0-3.576-1.602-3.578-3.576v-16.718l-1.84.019v16.737c0 1.977-1.603 3.578-3.576 3.578-1.977 0-3.578-1.602-3.578-3.578l-.002-16.726h-1.838v16.726c0 1.977-1.602 3.578-3.578 3.578-1.977 0-3.576-1.602-3.578-3.578v-16.726h-1.07v16.726c0 1.977-1.597 3.578-3.573 3.578-1.977 0-3.578-1.602-3.58-3.578v-16.726h-1.838v16.726c0 1.977-1.602 3.578-3.578 3.578-1.977 0-3.576-1.602-3.578-3.578v-16.726h-1.067v16.726c0 1.977-1.603 3.578-3.578 3.578-1.977 0-3.576-1.602-3.578-3.578v-16.726h-1.843v16.726c0 1.977-1.597 3.578-3.573 3.578-1.977 0-3.578-1.602-3.578-3.578l-.002-16.726h-1.065v16.726c0 1.977-1.603 3.578-3.578 3.578-1.977 0-3.578-1.602-3.578-3.578v-16.726h-1.84v16.726c0 1.977-1.603 3.578-3.578 3.578-1.977 0-3.576-1.602-3.578-3.578v-16.726h-1.068v16.726c0 1.977-1.602 3.578-3.575 3.578-1.977 0-3.578-1.602-3.58-3.578v-16.726h-1.838v16.726c0 1.977-1.603 3.578-3.578 3.578-1.977 0-3.578-1.602-3.578-3.578l-.002-16.726h-1.066v16.726c0 1.977-1.602 3.578-3.578 3.578-1.976 0-3.577-1.602-3.577-3.578v-16.726h-1.841v16.726c0 1.977-1.6 3.578-3.578 3.578-1.976 0-3.575-1.602-3.575-3.578l-.002-16.726h-1.066v16.726c0 1.977-1.602 3.578-3.575 3.578-1.979 0-3.581-1.602-3.581-3.578v-16.726h-1.84v16.726c0 1.977-1.602 3.578-3.575 3.578-1.979 0-3.578-1.602-3.58-3.578v-16.726h-1.068v16.726c0 1.977-1.602 3.578-3.576 3.578-1.978 0-3.578-1.602-3.578-3.578v-16.726h-1.84v16.726c0 1.977-1.602 3.578-3.578 3.578-1.976 0-3.575-1.602-3.578-3.578v-16.726h-1.068v16.726c0 1.977-1.602 3.578-3.578 3.578-1.977 0-3.576-1.602-3.576-3.578v-16.726h-1.842v16.726c0 1.977-1.6 3.578-3.576 3.578-1.976 0-3.578-1.602-3.578-3.578v-16.726h-1.068v16.726c0 1.977-1.602 3.578-3.578 3.578-1.977 0-3.576-1.602-3.578-3.578v-16.726h-1.84v16.726c0 1.977-1.6 3.578-3.576 3.578-1.976 0-3.578-1.602-3.578-3.578v-16.726h-1.07v16.726c0 1.977-1.6 3.578-3.576 3.578-1.976 0-3.578-1.602-3.578-3.578v-16.726h-1.84v16.726c0 1.977-1.602 3.578-3.578 3.578-1.977 0-3.576-1.602-3.578-3.578v-16.726h-1.068v16.726c0 1.977-1.602 3.578-3.578 3.578-1.976 0-3.576-1.602-3.576-3.578v-16.726h-1.84v16.726c-.002 1.977-1.602 3.578-3.578 3.578-1.976 0-3.576-1.602-3.578-3.578v-16.726h-1.068v16.726c-.002 1.977-1.602 3.578-3.578 3.578-1.976 0-3.576-1.602-3.578-3.578v-16.726h-1.84v16.726c0 1.977-1.6 3.578-3.576 3.578-1.976 0-3.578-1.602-3.578-3.578v-16.726h-1.07v16.726c0 1.977-1.6 3.578-3.576 3.578-1.976 0-3.578-1.602-3.578-3.578v-16.726h-1.84v16.726c0 1.977-1.602 3.578-3.578 3.578-1.976 0-3.576-1.602-3.578-3.578v-16.726h-1.068v16.726c0 1.977-1.602 3.578-3.576 3.578-1.976 0-3.578-1.602-3.578-3.578l-.002-16.726h-1.838v16.726c0 1.977-1.602 3.578-3.578 3.578-1.976 0-3.576-1.602-3.578-3.578v-16.726h-1.068v16.726c0 1.977-1.602 3.578-3.578 3.578-1.976 0-3.576-1.602-3.578-3.578v-16.726h-1.84v16.726c0 1.977-1.6 3.578-3.576 3.578-1.977 0-3.578-1.602-3.578-3.578v-16.726h-1.579v32.823zm284-32.864v-1z"/><path d="m436.345 38.715v-2h4.969v2z"/><path d="m436.397 28.773v-1.999h4.972v1.999z"/><path d="m17.418 60.532v-36.402h17.467v35.4 1.001h-17.467zm16.466-1.001v-1zm-14.465-1h13.466l-.002-32.402h-13.464z"/><path d="m6.415 305.785v-231.597h586.646v230.597 1zm585.646-1v-1.001zm-583.646-1.001h582.646l-.001-227.596h-582.645z"/><path d="m6.402 74.653 11.204-15.703 1.627 1.162-11.203 15.702z"/><path d="m581.886 60.582 1.701-1.05 9.326 15.133-1.704 1.047z"/><path d="m584.313 30.443h-1.787v-2.001h3.683l2.049 38.928-1.996.105z"/><path d="m11.85 66.487 3.661-38.78h2.698v2h-.878l-3.491 36.967z"/><path d="m3.5 300.396 2.875-90.98 1.997.063-2.807 88.918h1.703v1.999z"/><path d="m592.225 300.396v-1.998l1.702-.002-2.806-88.917 1.999-.064 2.873 90.981z"/><path d="m37.567 29.392h-3.682v-2.001l3.682.002h118.567v1.999z"/><path d="m36.567 34.335v-5.942h2l-.002 3.941h113.833v-3.626h2v5.627z"/><path d="m132.83 59.06v-1.001l-.002-.473h-8.203v1.263h-60.284v-1.001-.262h-8.311v1.263h-22.146v-2h20.147v-1.263h12.31v.999l-.002.262h56.285v-1.261h12.205v.999.473l21.725.002v2z"/><path d="m45.405 283.828c-10.838 0-19.621-8.784-19.623-19.621l.002-154.02c0-10.837 8.783-19.621 19.621-19.621h507.507c10.835 0 19.619 8.784 19.621 19.621v154.02h-.002c0 10.837-8.784 19.621-19.619 19.621zm-17.622-173.641v154.02c.017 9.732 7.89 17.603 17.622 17.622l507.507-.002c9.729-.018 17.604-7.888 17.62-17.62v-154.02c-.017-9.732-7.891-17.603-17.62-17.622h-507.507c-9.732.019-17.605 7.89-17.622 17.622z"/><path d="m53.61 266.468c-6.129 0-11.099-4.967-11.099-11.097v-136.347c0-6.129 4.97-11.099 11.099-11.099h491.095c6.131 0 11.099 4.97 11.101 11.099v136.347c-.002 6.13-4.972 11.097-11.101 11.097zm-9.099-147.444v136.347c.01 5.022 4.075 9.087 9.1 9.098l491.095-.002c5.024-.009 9.091-4.073 9.1-9.096v-136.347c-.009-5.025-4.075-9.091-9.1-9.1h-491.096c-5.025.009-9.089 4.075-9.099 9.1z"/><path d="m426.93 229.726c0-3.907 3.167-7.075 7.075-7.075 3.907 0 7.073 3.168 7.073 7.075 0 3.908-3.166 7.075-7.073 7.075-3.908 0-7.075-3.167-7.075-7.075zm1.997 0c.007 2.802 2.273 5.069 5.078 5.075 2.803-.006 5.067-2.273 5.074-5.075-.007-2.803-2.271-5.07-5.074-5.076-2.805.005-5.071 2.273-5.078 5.076z"/><path d="m72.548 147.797c-3.168 0-5.735-2.565-5.735-5.733v-16.728c0-3.167 2.567-5.733 5.735-5.735h17.043c3.167.002 5.733 2.567 5.735 5.735v16.728h-.002c0 3.167-2.565 5.733-5.733 5.735zm-3.735-22.46v16.728c.004 2.061 1.672 3.731 3.735 3.733h17.043c2.061-.002 3.731-1.672 3.735-3.733h-.002l.002-16.728c-.004-2.063-1.674-3.731-3.735-3.733l-17.043-.002c-2.063.004-3.731 1.671-3.735 3.735z"/><path d="m76.177 142.59c-3.166 0-5.733-2.566-5.733-5.733v-9.311c0-3.168 2.565-5.733 5.733-5.736h9.311c3.167.002 5.733 2.568 5.735 5.736v9.311h-.002c0 3.167-2.566 5.733-5.733 5.733zm-3.733-15.044-.002 9.311c.004 2.062 1.673 3.73 3.735 3.732l9.311.002c2.062-.004 3.73-1.673 3.735-3.735v-9.311c-.004-2.062-1.673-3.731-3.735-3.735h-9.311c-2.062.005-3.731 1.674-3.733 3.736z"/><path d="m99.44 147.797c-3.167 0-5.733-2.565-5.735-5.733l.002-16.728c0-3.167 2.565-5.733 5.733-5.735h17.043c3.168.002 5.735 2.567 5.735 5.735v16.728c0 3.167-2.567 5.733-5.735 5.735zm-3.732-22.46v16.728c.002 2.061 1.672 3.731 3.733 3.733h17.043c2.062-.002 3.731-1.672 3.735-3.733v-16.728c-.004-2.061-1.674-3.731-3.735-3.733l-17.043-.002c-2.062.004-3.732 1.671-3.733 3.735z"/><path d="m103.07 142.59c-3.168 0-5.733-2.566-5.736-5.733v-9.311c.002-3.168 2.568-5.733 5.736-5.736h9.311c3.167.002 5.733 2.568 5.733 5.736v9.311c0 3.167-2.566 5.733-5.733 5.733zm-3.735-15.044v9.311c.004 2.062 1.673 3.73 3.735 3.732l9.311.002c2.062-.004 3.73-1.673 3.735-3.735h-.002l.002-9.311c-.004-2.062-1.673-3.731-3.735-3.735h-9.311c-2.062.005-3.731 1.674-3.735 3.736z"/><path d="m126.333 147.797c-3.168 0-5.733-2.565-5.733-5.733v-16.728c0-3.167 2.565-5.733 5.733-5.735h17.043c3.167.002 5.733 2.567 5.735 5.735v16.728c-.002 3.167-2.567 5.733-5.735 5.735zm-3.733-22.46v16.728c.004 2.061 1.672 3.731 3.733 3.733h17.043c2.063-.002 3.731-1.672 3.735-3.733v-16.728c-.004-2.063-1.672-3.731-3.735-3.733l-17.043-.002c-2.062.004-3.729 1.671-3.733 3.735z"/><path d="m129.964 142.59c-3.168 0-5.736-2.566-5.736-5.733v-9.311c0-3.168 2.568-5.733 5.736-5.736h9.311c3.166.002 5.731 2.568 5.733 5.736v9.311c-.002 3.167-2.568 5.733-5.733 5.733zm-3.735-15.044v9.311c.004 2.062 1.671 3.73 3.735 3.732h9.311c2.062-.002 3.729-1.67 3.733-3.732v-9.311c-.004-2.062-1.673-3.731-3.733-3.735h-9.311c-2.064.004-3.731 1.673-3.735 3.735z"/><path d="m153.227 147.797c-3.167 0-5.735-2.565-5.735-5.733v-16.728c0-3.167 2.567-5.733 5.735-5.735h17.043c3.166.002 5.733 2.567 5.733 5.735v16.728c0 3.167-2.567 5.733-5.733 5.735zm-3.735-22.46v16.728c.004 2.061 1.672 3.731 3.735 3.733h17.043c2.062-.002 3.729-1.672 3.733-3.733v-16.728c-.004-2.063-1.672-3.731-3.733-3.733l-17.043-.002c-2.063.004-3.731 1.671-3.735 3.735z"/><path d="m156.855 142.59c-3.167 0-5.733-2.566-5.733-5.733v-9.311c0-3.168 2.565-5.733 5.733-5.736h9.311c3.167.002 5.733 2.568 5.735 5.736v9.311c-.002 3.167-2.568 5.733-5.735 5.733zm-3.732-15.044-.002 9.311c.004 2.062 1.673 3.73 3.735 3.732l9.311.002c2.064-.004 3.73-1.673 3.735-3.735v-9.311c-.004-2.062-1.671-3.731-3.735-3.735h-9.311c-2.063.005-3.731 1.674-3.733 3.736z"/><path d="m180.12 147.797c-3.168 0-5.733-2.565-5.735-5.733v-16.728c.002-3.167 2.567-5.733 5.735-5.735h17.043c3.166.002 5.733 2.567 5.735 5.735v16.728c-.002 3.167-2.569 5.733-5.735 5.735zm-3.736-22.46v16.728c.004 2.061 1.672 3.731 3.735 3.733h17.043c2.061-.002 3.731-1.672 3.735-3.733v-16.728c-.004-2.061-1.674-3.731-3.735-3.733l-17.043-.002c-2.063.004-3.731 1.671-3.735 3.735z"/><path d="m183.749 142.59c-3.168 0-5.733-2.566-5.733-5.733v-9.311c0-3.168 2.565-5.733 5.733-5.736h9.311c3.167.002 5.733 2.568 5.733 5.736v9.311c0 3.167-2.565 5.733-5.733 5.733zm-3.733-15.044-.002 9.311c.004 2.062 1.673 3.73 3.735 3.732l9.311.002c2.062-.004 3.73-1.673 3.735-3.735v-9.311c-.004-2.062-1.673-3.731-3.735-3.735h-9.311c-2.062.005-3.731 1.674-3.733 3.736z"/><path d="m207.012 147.797c-3.167 0-5.733-2.565-5.735-5.733v-16.728c.002-3.167 2.567-5.733 5.735-5.735h17.043c3.168.002 5.735 2.567 5.735 5.735v16.728c0 3.167-2.567 5.733-5.735 5.735zm-3.734-22.46-.002 16.728c.004 2.061 1.672 3.731 3.735 3.733h17.043c2.063-.002 3.731-1.672 3.735-3.733v-16.728c-.004-2.063-1.672-3.731-3.735-3.733l-17.043-.002c-2.063.004-3.73 1.671-3.733 3.735z"/><path d="m210.643 142.59c-3.168 0-5.736-2.566-5.736-5.733v-9.311c0-3.168 2.568-5.733 5.736-5.736h9.311c3.166.002 5.733 2.568 5.733 5.736v9.311c0 3.167-2.568 5.733-5.733 5.733zm-3.735-15.044v9.311c.004 2.062 1.67 3.73 3.735 3.732l9.311.002c2.062-.004 3.73-1.673 3.732-3.735v-9.311c-.002-2.062-1.67-3.731-3.732-3.735h-9.311c-2.065.005-3.731 1.674-3.735 3.736z"/><path d="m233.906 147.797c-3.168 0-5.735-2.565-5.735-5.733v-16.728c0-3.167 2.567-5.733 5.735-5.735h17.041c3.167.002 5.735 2.567 5.735 5.735v16.728c0 3.167-2.567 5.733-5.735 5.735zm-3.735-22.46v16.728c.004 2.061 1.672 3.731 3.735 3.733h17.041c2.063-.002 3.731-1.672 3.735-3.733v-16.728c-.004-2.063-1.672-3.731-3.735-3.733l-17.041-.002c-2.063.004-3.731 1.671-3.735 3.735z"/><path d="m237.536 142.59c-3.168 0-5.736-2.566-5.736-5.733v-9.311c0-3.168 2.568-5.733 5.736-5.736h9.308c3.168.002 5.736 2.568 5.736 5.736v9.311c0 3.167-2.568 5.733-5.736 5.733zm-3.735-15.044v9.311c.002 2.062 1.67 3.73 3.735 3.732l9.308.002c2.062-.004 3.731-1.673 3.735-3.735v-9.311c-.004-2.062-1.673-3.731-3.735-3.735h-9.308c-2.064.005-3.733 1.674-3.735 3.736z"/><path d="m260.796 147.799c-3.166-.002-5.731-2.569-5.733-5.735v-16.727c.002-3.168 2.567-5.733 5.733-5.735h17.045c3.166.002 5.733 2.567 5.735 5.735v16.727h-.002c0 3.168-2.567 5.733-5.733 5.735zm-3.732-22.462v16.727c.004 2.063 1.672 3.73 3.732 3.734h17.045c2.06-.004 3.73-1.672 3.734-3.734v-16.727c-.004-2.062-1.674-3.73-3.734-3.734h-17.045c-2.06.003-3.728 1.672-3.732 3.734z"/><path d="m264.429 142.591c-3.168 0-5.734-2.566-5.736-5.734v-9.311c.002-3.167 2.568-5.732 5.736-5.734h9.309c3.168.002 5.734 2.568 5.734 5.734v9.311c0 3.168-2.565 5.734-5.734 5.734zm-3.735-15.046-.002 9.311c.004 2.063 1.674 3.73 3.737 3.734h9.309c2.063-.004 3.73-1.671 3.734-3.734v-9.311c-.004-2.061-1.671-3.73-3.734-3.735h-9.309c-2.063.005-3.733 1.674-3.735 3.735z"/><path d="m287.69 147.798c-3.167 0-5.733-2.565-5.735-5.733l.002-16.727c0-3.168 2.567-5.735 5.733-5.735h17.043c3.166 0 5.733 2.567 5.735 5.735v16.727h-.002c0 3.168-2.567 5.733-5.733 5.733zm-3.734-22.46v16.727c.004 2.061 1.671 3.73 3.734 3.734h17.043c2.063-.004 3.73-1.674 3.734-3.734v-16.727c-.004-2.063-1.671-3.732-3.734-3.734l-17.043-.002c-2.063.003-3.73 1.673-3.734 3.736z"/><path d="m291.32 142.59c-3.167 0-5.732-2.566-5.735-5.732v-9.311c.002-3.169 2.568-5.735 5.735-5.735h9.311c3.167 0 5.732 2.566 5.734 5.735v9.311h-.002c0 3.167-2.565 5.732-5.732 5.734zm-3.735-15.043v9.311c.004 2.062 1.673 3.73 3.735 3.732l9.311.002c2.062-.004 3.73-1.673 3.734-3.734h-.002l.002-9.311c-.004-2.064-1.673-3.73-3.734-3.735h-9.311c-2.062.004-3.73 1.671-3.735 3.735z"/><path d="m314.583 147.798c-3.166 0-5.733-2.567-5.735-5.733l.002-16.728c0-3.168 2.567-5.733 5.733-5.735l17.044.002c3.168 0 5.733 2.565 5.733 5.733v16.728c0 3.166-2.565 5.733-5.733 5.733zm-3.734-22.461v16.728c.004 2.061 1.673 3.73 3.734 3.734h17.044c2.061-.004 3.729-1.673 3.733-3.734v-16.728c-.004-2.063-1.673-3.73-3.733-3.734h-17.044c-2.062.004-3.73 1.673-3.734 3.734z"/><path d="m318.214 142.59c-3.169 0-5.734-2.566-5.737-5.732l.003-9.313c0-3.167 2.565-5.733 5.734-5.735l9.311.002c3.166 0 5.732 2.566 5.734 5.733v9.313h-.002c0 3.167-2.566 5.732-5.732 5.732zm-3.736-15.045v9.313c.004 2.06 1.672 3.73 3.736 3.732h9.311c2.063-.002 3.73-1.67 3.734-3.732h-.002l.002-9.313c-.004-2.063-1.672-3.73-3.734-3.734h-9.311c-2.065.004-3.733 1.674-3.736 3.734z"/><path d="m341.279 147.798c-3.168 0-5.733-2.567-5.735-5.733l.002-16.729c0-3.166 2.565-5.733 5.733-5.733h17.043c3.167 0 5.734 2.565 5.734 5.733v16.729c0 3.166-2.567 5.733-5.734 5.733zm-3.733-22.462-.002 16.729c.004 2.062 1.672 3.729 3.735 3.734h17.043c2.063-.004 3.73-1.672 3.734-3.734v-16.729c-.004-2.062-1.672-3.729-3.734-3.734h-17.043c-2.063.005-3.731 1.673-3.733 3.734z"/><path d="m344.909 142.59c-3.169 0-5.734-2.566-5.736-5.733l.002-9.312c0-3.167 2.565-5.732 5.734-5.734h9.312c3.167.002 5.73 2.568 5.732 5.734v9.312h-.002c0 3.167-2.563 5.733-5.73 5.735zm-3.734-15.045-.002 9.312c.004 2.063 1.672 3.73 3.736 3.734h9.312c2.061-.004 3.728-1.671 3.732-3.734h-.002l.002-9.312c-.005-2.063-1.672-3.73-3.732-3.734h-9.312c-2.064.004-3.732 1.672-3.734 3.734z"/><path d="m368.172 147.799c-3.166-.002-5.733-2.567-5.735-5.733l.002-16.729c0-3.168 2.567-5.733 5.733-5.735l17.043.002c3.168 0 5.733 2.565 5.735 5.733v16.729h-.002c0 3.166-2.565 5.731-5.733 5.733zm-3.734-22.462-.002 16.729c.004 2.06 1.674 3.729 3.735 3.731l17.043.002c2.063-.004 3.731-1.674 3.735-3.734h-.002l.002-16.729c-.004-2.062-1.673-3.731-3.735-3.733l-17.043-.002c-2.061.004-3.731 1.674-3.733 3.736z"/><path d="m371.802 142.591c-3.167-.002-5.735-2.566-5.735-5.735v-9.311c0-3.167 2.568-5.733 5.735-5.735h9.311c3.167.002 5.732 2.568 5.734 5.735v9.311h-.002c0 3.169-2.565 5.733-5.732 5.735zm-3.735-15.045-.002 9.311c.004 2.061 1.673 3.729 3.736 3.734h9.311c2.062-.004 3.729-1.67 3.733-3.734v-9.311c-.004-2.062-1.672-3.73-3.733-3.734h-9.311c-2.063.004-3.732 1.672-3.734 3.734z"/><path d="m395.064 147.797c-3.166 0-5.733-2.565-5.735-5.733l.002-16.727c0-3.168 2.567-5.733 5.733-5.735h17.044c3.166.002 5.733 2.567 5.733 5.735v16.727c0 3.168-2.567 5.733-5.733 5.735zm-3.733-22.46-.002 16.727c.004 2.063 1.673 3.731 3.735 3.733l17.044.002c2.061-.004 3.73-1.673 3.732-3.735v-16.727c-.002-2.063-1.672-3.731-3.732-3.735h-17.044c-2.062.004-3.731 1.673-3.733 3.735z"/><path d="m398.694 142.591c-3.167 0-5.735-2.566-5.735-5.735v-9.31c0-3.168 2.568-5.734 5.735-5.734h9.312c3.166 0 5.732 2.566 5.734 5.734v9.31h-.002c0 3.169-2.566 5.735-5.732 5.735zm-3.733-15.045-.002 9.31c.004 2.062 1.674 3.731 3.735 3.734l9.312.002c2.062-.004 3.729-1.674 3.733-3.736v-9.31c-.004-2.062-1.672-3.731-3.733-3.735h-9.312c-2.061.004-3.731 1.674-3.733 3.735z"/><path d="m468.354 163.105c-3.169 0-5.735-2.567-5.735-5.733v-16.729c0-3.167 2.566-5.733 5.735-5.733h17.042c3.167 0 5.733 2.567 5.735 5.733v16.729h-.002c0 3.167-2.566 5.733-5.733 5.733zm-3.734-22.461-.003 16.729c.005 2.062 1.673 3.73 3.737 3.732h17.042c2.063-.002 3.73-1.67 3.734-3.732v-16.729c-.004-2.062-1.672-3.73-3.734-3.732l-17.042-.002c-2.064.003-3.732 1.672-3.734 3.734z"/><path d="m471.981 157.899c-3.167-.002-5.732-2.567-5.734-5.735l.002-9.312c0-3.167 2.565-5.733 5.732-5.733h9.313c3.165 0 5.732 2.565 5.734 5.733v9.312h-.002c0 3.167-2.565 5.733-5.732 5.735zm-3.732-15.046-.002 9.312c.004 2.061 1.674 3.731 3.734 3.735h9.313c2.061-.004 3.73-1.674 3.734-3.735h-.002l.002-9.312c-.004-2.061-1.674-3.729-3.734-3.733h-9.313c-2.062.004-3.73 1.672-3.732 3.733z"/><path d="m495.246 163.105c-3.167 0-5.733-2.566-5.735-5.733l.002-16.728c0-3.168 2.566-5.735 5.733-5.735h17.044c3.166 0 5.732 2.567 5.734 5.735v16.728h-.002c0 3.167-2.566 5.733-5.732 5.733zm-3.734-22.46v16.728c.004 2.06 1.672 3.73 3.734 3.734h17.044c2.062-.004 3.729-1.671 3.733-3.734v-16.728c-.004-2.062-1.672-3.731-3.733-3.734l-17.044-.002c-2.062.004-3.73 1.674-3.734 3.736z"/><path d="m498.876 157.898c-3.169 0-5.732-2.567-5.734-5.734l.002-9.311c0-3.167 2.563-5.734 5.732-5.734h9.311c3.168 0 5.733 2.567 5.736 5.734v9.311h-.003c0 3.167-2.565 5.734-5.733 5.734zm-3.732-15.044-.002 9.311c.004 2.063 1.673 3.73 3.734 3.734h9.311c2.063-.004 3.731-1.673 3.736-3.734h-.003l.003-9.311c-.005-2.063-1.674-3.73-3.736-3.734h-9.311c-2.062.004-3.73 1.671-3.732 3.734z"/><path d="m522.14 163.106c-3.168-.002-5.734-2.569-5.736-5.734l.002-16.728c0-3.168 2.566-5.734 5.734-5.734h17.042c3.167 0 5.733 2.566 5.733 5.734v16.728c0 3.166-2.566 5.732-5.733 5.734zm-3.736-22.462v16.728c.005 2.063 1.671 3.729 3.735 3.733h17.042c2.063-.004 3.73-1.671 3.735-3.733v-16.728c-.005-2.063-1.673-3.731-3.735-3.733l-17.042-.002c-2.064.004-3.73 1.673-3.735 3.735z"/><path d="m525.767 157.897c-3.166 0-5.73-2.565-5.733-5.733l.003-9.311c0-3.168 2.564-5.733 5.73-5.735l9.313.002c3.167 0 5.734 2.565 5.734 5.733v9.311c0 3.168-2.567 5.733-5.734 5.735zm-3.734-15.043v9.311c.005 2.062 1.675 3.731 3.733 3.733l9.313.002c2.062-.004 3.731-1.674 3.733-3.735v-9.311c-.002-2.062-1.672-3.731-3.733-3.733l-9.313-.002c-2.058.003-3.728 1.673-3.733 3.735z"/><path d="m468.354 189.143c-3.169 0-5.735-2.567-5.735-5.733v-16.727c0-3.167 2.566-5.733 5.735-5.736l17.042.002c3.167 0 5.733 2.564 5.735 5.733v16.727h-.002c0 3.168-2.566 5.733-5.733 5.735zm-3.734-22.46-.003 16.727c.005 2.062 1.675 3.73 3.737 3.734h17.042c2.063-.004 3.73-1.673 3.734-3.734v-16.727c-.004-2.062-1.672-3.73-3.734-3.735h-17.042c-2.064.004-3.732 1.673-3.734 3.735z"/><path d="m471.981 183.936c-3.167 0-5.732-2.567-5.734-5.734l.002-9.31c0-3.167 2.565-5.732 5.732-5.735h9.313c3.165.002 5.732 2.568 5.734 5.735v9.31h-.002c0 3.169-2.567 5.734-5.732 5.734zm-3.732-15.045-.002 9.31c.004 2.063 1.672 3.73 3.734 3.734h9.313c2.061-.004 3.73-1.672 3.734-3.734h-.002l.002-9.31c-.004-2.061-1.674-3.73-3.734-3.732l-9.313-.002c-2.062.004-3.73 1.674-3.732 3.734z"/><path d="m495.246 189.143c-3.167 0-5.733-2.566-5.735-5.732l.002-16.728c0-3.168 2.566-5.735 5.733-5.735h17.044c3.166 0 5.732 2.567 5.734 5.735v16.728h-.002c0 3.166-2.564 5.732-5.732 5.734zm-3.734-22.46v16.728c.004 2.06 1.674 3.729 3.734 3.733h17.044c2.062-.004 3.729-1.674 3.733-3.733v-16.728c-.004-2.062-1.672-3.731-3.733-3.734l-17.044-.002c-2.062.004-3.73 1.674-3.734 3.736z"/><path d="m498.876 183.936c-3.169 0-5.732-2.567-5.734-5.734l.002-9.31c0-3.167 2.563-5.734 5.732-5.734h9.311c3.168 0 5.733 2.567 5.736 5.734v9.31h-.003c0 3.167-2.565 5.734-5.733 5.734zm-3.732-15.044-.002 9.31c.004 2.063 1.673 3.73 3.734 3.734h9.311c2.063-.004 3.731-1.671 3.736-3.734h-.003l.003-9.31c-.005-2.063-1.674-3.73-3.736-3.734h-9.311c-2.062.004-3.73 1.671-3.732 3.734z"/><path d="m522.14 189.143c-3.17 0-5.734-2.566-5.736-5.732l.002-16.728c0-3.167 2.566-5.734 5.734-5.734h17.042c3.167 0 5.733 2.566 5.733 5.734v16.728c0 3.166-2.566 5.732-5.733 5.734zm-3.736-22.46v16.728c.005 2.061 1.673 3.729 3.735 3.733h17.042c2.063-.004 3.73-1.673 3.735-3.733v-16.728c-.005-2.063-1.673-3.731-3.735-3.735h-17.041c-2.065.004-3.731 1.672-3.736 3.735z"/><path d="m525.767 183.936c-3.166 0-5.73-2.566-5.733-5.733l.003-9.31c0-3.168 2.564-5.734 5.73-5.736h9.313c3.167.002 5.734 2.567 5.734 5.736v9.31c0 3.167-2.567 5.733-5.734 5.733zm-3.734-15.043v9.31c.005 2.062 1.675 3.729 3.733 3.733h9.313c2.062-.004 3.731-1.672 3.733-3.733v-9.31c-.002-2.063-1.672-3.731-3.733-3.736h-9.313c-2.058.004-3.728 1.672-3.733 3.736z"/><path d="m468.354 215.339c-3.169 0-5.735-2.566-5.735-5.733v-16.727c0-3.166 2.566-5.735 5.735-5.735h17.042c3.167 0 5.733 2.566 5.735 5.735v16.727h-.002c0 3.169-2.566 5.733-5.733 5.733zm-3.734-22.46-.003 16.727c.005 2.063 1.673 3.73 3.737 3.732l17.042.002c2.063-.004 3.73-1.672 3.734-3.734v-16.727c-.004-2.062-1.672-3.732-3.734-3.734l-17.042-.002c-2.062.003-3.732 1.672-3.734 3.736z"/><path d="m471.981 210.132c-3.167 0-5.732-2.567-5.734-5.734l.002-9.31c0-3.167 2.565-5.733 5.732-5.735l9.313.002c3.165 0 5.732 2.563 5.734 5.733v9.31h-.002c0 3.167-2.565 5.734-5.732 5.734zm-3.732-15.044-.002 9.31c.004 2.063 1.674 3.73 3.734 3.734h9.313c2.061-.004 3.73-1.674 3.734-3.734h-.002l.002-9.31c-.004-2.062-1.674-3.731-3.734-3.733l-9.313-.002c-2.062.003-3.73 1.671-3.732 3.735z"/><path d="m495.246 215.339c-3.167 0-5.733-2.564-5.735-5.732l.002-16.728c0-3.168 2.566-5.735 5.733-5.735h17.044c3.168 0 5.732 2.567 5.734 5.735v16.728h-.002c0 3.166-2.566 5.732-5.732 5.732zm-3.734-22.46v16.728c.004 2.061 1.672 3.729 3.734 3.731l17.044.003c2.062-.005 3.729-1.672 3.733-3.734v-16.728c-.004-2.063-1.672-3.731-3.733-3.734l-17.044-.002c-2.06.004-3.73 1.673-3.734 3.736z"/><path d="m498.876 210.132c-3.169 0-5.732-2.567-5.734-5.734l.002-9.31c0-3.167 2.563-5.734 5.732-5.734h9.311c3.168 0 5.733 2.567 5.736 5.734v9.31h-.003c0 3.167-2.565 5.734-5.733 5.734zm-3.732-15.044-.002 9.31c.004 2.062 1.673 3.73 3.734 3.734h9.311c2.063-.004 3.731-1.673 3.736-3.734h-.003l.003-9.31c-.005-2.063-1.674-3.73-3.736-3.734h-9.311c-2.062.003-3.73 1.67-3.732 3.734z"/><path d="m522.14 215.338c-3.168 0-5.734-2.564-5.736-5.731l.002-16.729c0-3.166 2.564-5.734 5.734-5.734h17.042c3.167 0 5.733 2.568 5.733 5.734v16.729c0 3.167-2.566 5.731-5.733 5.733zm-3.736-22.46v16.729c.005 2.063 1.671 3.729 3.735 3.732h17.042c2.063-.004 3.73-1.67 3.735-3.732v-16.729c-.005-2.063-1.673-3.731-3.735-3.733l-17.042-.002c-2.062.003-3.73 1.672-3.735 3.735z"/><path d="m525.767 210.132c-3.166 0-5.73-2.567-5.733-5.734l.003-9.31c0-3.169 2.566-5.733 5.73-5.736l9.313.003c3.167 0 5.734 2.564 5.734 5.733v9.31c0 3.167-2.567 5.734-5.734 5.734zm-3.734-15.044v9.31c.005 2.062 1.675 3.731 3.733 3.733h9.313c2.062-.002 3.731-1.672 3.733-3.733v-9.31c-.002-2.062-1.672-3.731-3.733-3.733l-9.313-.003c-2.06.004-3.728 1.674-3.733 3.736z"/><path d="m468.354 241.693c-3.169 0-5.735-2.566-5.735-5.733v-16.729c0-3.166 2.566-5.733 5.735-5.735l17.042.002c3.167 0 5.733 2.564 5.735 5.733v16.729h-.002c0 3.167-2.566 5.733-5.733 5.733zm-3.734-22.462-.003 16.729c.005 2.061 1.673 3.73 3.737 3.732l17.042.003c2.063-.005 3.73-1.675 3.734-3.735v-16.729c-.004-2.062-1.672-3.73-3.734-3.734h-17.042c-2.064.004-3.732 1.67-3.734 3.734z"/><path d="m471.981 236.484c-3.167 0-5.732-2.565-5.734-5.732l.002-9.311c0-3.167 2.565-5.734 5.732-5.736l9.313.002c3.167 0 5.732 2.567 5.734 5.734v9.311h-.002c0 3.167-2.567 5.732-5.732 5.732zm-3.732-15.043-.002 9.311c.004 2.061 1.672 3.729 3.734 3.732h9.313c2.061-.004 3.73-1.672 3.734-3.732h-.002l.002-9.311c-.004-2.063-1.674-3.732-3.734-3.734l-9.313-.002c-2.06.004-3.73 1.674-3.732 3.736z"/><path d="m495.246 241.691c-3.167 0-5.733-2.564-5.735-5.73l.002-16.729c0-3.168 2.566-5.734 5.733-5.734h17.044c3.166 0 5.732 2.566 5.734 5.734v16.729h-.002c0 3.166-2.566 5.73-5.732 5.733zm-3.734-22.46v16.729c.004 2.059 1.674 3.729 3.734 3.732h17.044c2.062-.003 3.729-1.674 3.733-3.732v-16.729c-.004-2.063-1.672-3.731-3.733-3.733h-17.044c-2.062.002-3.73 1.671-3.734 3.733z"/><path d="m498.876 236.484c-3.167 0-5.732-2.565-5.734-5.731l.002-9.311c0-3.169 2.563-5.736 5.732-5.736h9.311c3.168 0 5.733 2.567 5.736 5.736v9.311h-.003c0 3.166-2.565 5.731-5.733 5.731zm-3.732-15.042-.002 9.311c.004 2.061 1.671 3.728 3.734 3.731h9.311c2.063-.004 3.731-1.671 3.736-3.731h-.003l.003-9.311c-.005-2.063-1.674-3.732-3.736-3.736h-9.311c-2.062.004-3.73 1.673-3.732 3.736z"/><path d="m522.14 241.692c-3.168 0-5.734-2.566-5.736-5.732l.002-16.729c0-3.166 2.566-5.732 5.734-5.734l17.042.002c3.167 0 5.733 2.566 5.733 5.732v16.729c0 3.166-2.566 5.732-5.733 5.734zm-3.736-22.462v16.729c.005 2.061 1.671 3.729 3.735 3.733h17.042c2.063-.004 3.73-1.673 3.735-3.733v-16.729c-.005-2.063-1.673-3.729-3.735-3.733h-17.041c-2.065.004-3.731 1.671-3.736 3.733z"/><path d="m525.767 236.483c-3.164 0-5.73-2.563-5.733-5.731l.003-9.311c0-3.168 2.564-5.735 5.73-5.735h9.313c3.167 0 5.734 2.567 5.734 5.735v9.311c0 3.168-2.567 5.731-5.734 5.733zm-3.734-15.042v9.311c.005 2.062 1.673 3.729 3.733 3.731l9.313.002c2.062-.004 3.731-1.672 3.733-3.733v-9.311c-.002-2.063-1.672-3.731-3.733-3.735h-9.313c-2.058.004-3.728 1.672-3.733 3.735z"/><path d="m59.923 173.836c-3.167 0-5.733-2.567-5.735-5.733l.002-16.728c0-3.167 2.565-5.735 5.733-5.735h17.044c3.167 0 5.733 2.567 5.733 5.735v16.728c0 3.167-2.565 5.733-5.733 5.733zm-3.733-22.461-.002 16.728c.004 2.062 1.673 3.73 3.735 3.733h17.044c2.062-.002 3.731-1.671 3.733-3.733v-16.728c-.002-2.062-1.671-3.732-3.733-3.735h-17.044c-2.062.003-3.731 1.674-3.733 3.735z"/><path d="m63.552 168.63c-3.166-.002-5.733-2.567-5.735-5.735l.002-9.312c0-3.167 2.567-5.733 5.733-5.733h9.312c3.167 0 5.733 2.566 5.735 5.733v9.312h-.002c0 3.166-2.566 5.733-5.733 5.735zm-3.735-15.046v9.312c.004 2.06 1.674 3.73 3.734 3.734h9.312c2.063-.004 3.73-1.672 3.735-3.734v-9.312c-.004-2.061-1.672-3.73-3.735-3.732h-9.312c-2.059.002-3.729 1.671-3.734 3.732z"/><path d="m86.817 173.836c-3.167 0-5.735-2.565-5.735-5.733v-16.728c0-3.167 2.567-5.735 5.735-5.735h17.042c3.17 0 5.735 2.567 5.735 5.735v16.728c0 3.166-2.567 5.733-5.735 5.733zm-3.735-22.461v16.728c.004 2.062 1.671 3.73 3.735 3.733h17.042c2.064-.002 3.731-1.671 3.735-3.733v-16.728c-.004-2.062-1.673-3.732-3.735-3.735h-17.042c-2.062.003-3.731 1.674-3.735 3.735z"/><path d="m90.445 168.628c-3.167 0-5.733-2.567-5.733-5.733v-9.312c0-3.167 2.568-5.733 5.733-5.733h9.312c3.168 0 5.733 2.566 5.735 5.733v9.312h-.002c0 3.167-2.565 5.733-5.733 5.735zm-3.733-15.044-.002 9.312c.004 2.062 1.674 3.73 3.734 3.734h9.312c2.061-.004 3.73-1.674 3.735-3.734v-9.312c-.004-2.061-1.672-3.73-3.735-3.732l-9.312-.002c-2.061.004-3.729 1.673-3.732 3.734z"/><path d="m113.708 173.836c-3.167 0-5.733-2.565-5.735-5.733v-16.728c.002-3.167 2.567-5.735 5.735-5.735h17.044c3.167 0 5.732 2.567 5.735 5.735v16.728h-.002c0 3.167-2.567 5.733-5.732 5.733zm-3.734-22.461v16.728c.004 2.062 1.673 3.73 3.735 3.733h17.044c2.062-.002 3.73-1.671 3.735-3.733h-.002l.002-16.728c-.004-2.062-1.673-3.732-3.735-3.735h-17.044c-2.062.003-3.731 1.674-3.735 3.735z"/><path d="m117.338 168.628c-3.167 0-5.733-2.567-5.735-5.733l.002-9.312c0-3.167 2.566-5.733 5.733-5.733h9.312c3.165 0 5.733 2.566 5.733 5.733v9.312c0 3.166-2.565 5.733-5.733 5.735zm-3.734-15.044v9.312c.004 2.062 1.672 3.73 3.735 3.734h9.312c2.06-.004 3.73-1.672 3.732-3.734v-9.312c-.002-2.063-1.67-3.73-3.732-3.732l-9.312-.002c-2.063.004-3.731 1.673-3.735 3.734z"/><path d="m140.602 173.836c-3.167 0-5.734-2.565-5.734-5.733v-16.728c0-3.167 2.567-5.735 5.734-5.735h17.044c3.167 0 5.733 2.567 5.733 5.735v16.728c0 3.166-2.567 5.733-5.733 5.733zm-3.735-22.461v16.728c.004 2.062 1.673 3.73 3.735 3.733h17.044c2.062-.002 3.729-1.671 3.733-3.733v-16.728c-.004-2.062-1.671-3.732-3.733-3.735h-17.044c-2.061.003-3.73 1.674-3.735 3.735z"/><path d="m144.231 168.628c-3.167 0-5.733-2.567-5.735-5.733l.002-9.312c0-3.167 2.566-5.733 5.733-5.733h9.31c3.167 0 5.735 2.566 5.735 5.733v9.312c0 3.166-2.567 5.733-5.735 5.735zm-3.734-15.044v9.312c.004 2.062 1.672 3.73 3.734 3.734h9.31c2.062-.004 3.732-1.672 3.734-3.734v-9.312c-.002-2.061-1.672-3.73-3.734-3.732l-9.31-.002c-2.062.004-3.73 1.671-3.734 3.734z"/><path d="m167.494 173.836c-3.167 0-5.733-2.567-5.733-5.733v-16.728c0-3.167 2.565-5.735 5.733-5.735h17.044c3.167 0 5.732 2.567 5.734 5.735v16.728c-.002 3.166-2.567 5.733-5.734 5.733zm-3.733-22.461v16.728c.004 2.062 1.671 3.73 3.733 3.733h17.044c2.062-.002 3.73-1.671 3.734-3.733v-16.728c-.004-2.062-1.673-3.732-3.734-3.735h-17.044c-2.062.003-3.729 1.674-3.733 3.735z"/><path d="m171.125 168.628c-3.167 0-5.733-2.567-5.735-5.733v-9.312c.002-3.167 2.568-5.733 5.735-5.733h9.31c3.167 0 5.735 2.566 5.735 5.733v9.312c0 3.167-2.567 5.733-5.735 5.735zm-3.735-15.044v9.312c.004 2.062 1.672 3.73 3.734 3.734h9.31c2.062-.004 3.732-1.674 3.736-3.734h-.002l.002-9.312c-.004-2.061-1.674-3.73-3.736-3.732l-9.31-.002c-2.062.004-3.73 1.673-3.734 3.734z"/><path d="m194.388 173.836c-3.167 0-5.735-2.565-5.735-5.733v-16.728c0-3.167 2.567-5.735 5.735-5.735h17.044c3.166 0 5.733 2.567 5.733 5.735v16.728c0 3.167-2.567 5.733-5.733 5.733zm-3.735-22.461v16.728c.004 2.062 1.673 3.73 3.735 3.733h17.044c2.06-.002 3.729-1.671 3.733-3.733v-16.728c-.004-2.062-1.673-3.732-3.733-3.735h-17.044c-2.062.003-3.731 1.674-3.735 3.735z"/><path d="m198.018 168.628c-3.167 0-5.733-2.567-5.735-5.733l.002-9.312c0-3.167 2.566-5.733 5.733-5.733h9.31c3.167 0 5.735 2.566 5.735 5.733v9.312c0 3.166-2.568 5.733-5.735 5.735zm-3.735-15.044v9.312c.004 2.062 1.672 3.73 3.734 3.734h9.31c2.063-.004 3.73-1.672 3.734-3.734v-9.312c-.004-2.061-1.672-3.73-3.734-3.732l-9.31-.002c-2.062.004-3.73 1.671-3.734 3.734z"/><path d="m221.282 173.836c-3.167 0-5.735-2.565-5.737-5.733l.002-16.728c0-3.167 2.565-5.735 5.735-5.735h17.042c3.167 0 5.735 2.567 5.735 5.735v16.728c0 3.167-2.567 5.733-5.735 5.733zm-3.735-22.461-.002 16.728c.004 2.062 1.673 3.73 3.737 3.733h17.042c2.062-.002 3.731-1.671 3.735-3.733v-16.728c-.004-2.062-1.673-3.732-3.735-3.735h-17.042c-2.064.003-3.733 1.674-3.735 3.735z"/><path d="m224.911 168.628c-3.167 0-5.733-2.567-5.735-5.733l.002-9.312c0-3.167 2.565-5.733 5.733-5.733h9.31c3.167 0 5.733 2.566 5.735 5.733v9.312h-.002c0 3.166-2.565 5.733-5.733 5.735zm-3.735-15.044v9.312c.004 2.062 1.672 3.73 3.734 3.734h9.31c2.063-.004 3.73-1.672 3.734-3.734v-9.312c-.004-2.063-1.672-3.73-3.734-3.732l-9.31-.002c-2.062.004-3.73 1.671-3.734 3.734z"/><path d="m248.173 173.836c-3.167 0-5.733-2.565-5.735-5.733l.002-16.728c0-3.167 2.565-5.735 5.733-5.735h17.044c3.167 0 5.732 2.567 5.732 5.735v16.728c0 3.166-2.565 5.733-5.732 5.733zm-3.733-22.461-.002 16.728c.004 2.062 1.673 3.73 3.735 3.733h17.044c2.062-.002 3.73-1.671 3.733-3.733v-16.728c-.002-2.062-1.671-3.732-3.733-3.735h-17.044c-2.061.003-3.731 1.674-3.733 3.735z"/><path d="m251.802 168.628c-3.167 0-5.733-2.567-5.733-5.733v-9.312c0-3.167 2.568-5.733 5.733-5.733h9.312c3.167 0 5.733 2.566 5.735 5.733v9.312c-.002 3.167-2.568 5.733-5.735 5.735zm-3.733-15.044-.002 9.312c.004 2.062 1.674 3.73 3.734 3.734h9.312c2.061-.004 3.73-1.674 3.734-3.734v-9.312c-.004-2.061-1.672-3.73-3.734-3.732l-9.312-.002c-2.06.004-3.73 1.673-3.732 3.734z"/><path d="m275.066 173.835c-3.167 0-5.733-2.565-5.735-5.732v-16.728c.002-3.167 2.567-5.735 5.735-5.735h17.044c3.167 0 5.733 2.567 5.733 5.735v16.728c0 3.167-2.565 5.732-5.733 5.735zm-3.734-22.46v16.728c.004 2.062 1.673 3.73 3.735 3.733h17.044c2.062-.002 3.729-1.671 3.733-3.733v-16.728c-.004-2.062-1.671-3.731-3.733-3.735h-17.044c-2.062.004-3.731 1.673-3.735 3.735z"/><path d="m278.696 168.629c-3.168 0-5.734-2.568-5.734-5.734v-9.311c0-3.168 2.566-5.734 5.734-5.734h9.311c3.166 0 5.734 2.566 5.734 5.734v9.311c0 3.166-2.568 5.734-5.734 5.734zm-3.735-15.044v9.311c.004 2.061 1.672 3.731 3.735 3.733h9.311c2.061-.002 3.731-1.672 3.735-3.733v-9.311c-.004-2.063-1.674-3.731-3.735-3.735h-9.311c-2.063.004-3.731 1.672-3.735 3.735z"/><path d="m301.96 173.836c-3.167 0-5.735-2.565-5.735-5.733v-16.727c0-3.168 2.565-5.735 5.735-5.737l17.042.002c3.168 0 5.733 2.567 5.735 5.735v16.727h-.002c0 3.166-2.565 5.733-5.733 5.733zm-3.734-22.46v16.727c.002 2.06 1.672 3.73 3.734 3.732h17.042c2.063-.002 3.731-1.67 3.735-3.732h-.002l.002-16.727c-.004-2.063-1.673-3.733-3.735-3.737h-17.042c-2.063.005-3.732 1.675-3.734 3.737z"/><path d="m305.588 168.63c-3.168-.002-5.731-2.568-5.734-5.734l.003-9.311c0-3.168 2.565-5.734 5.731-5.734h9.313c3.164 0 5.732 2.566 5.734 5.734v9.311h-.002c0 3.166-2.566 5.732-5.732 5.734zm-3.733-15.045-.002 9.311c.004 2.061 1.674 3.731 3.734 3.733l9.313.002c2.06-.004 3.729-1.674 3.733-3.735v-9.311c-.004-2.061-1.674-3.73-3.733-3.735h-9.313c-2.062.004-3.73 1.672-3.732 3.735z"/><path d="m328.853 173.837c-3.167-.002-5.735-2.568-5.735-5.733v-16.728c0-3.167 2.565-5.735 5.735-5.735h17.042c3.168 0 5.733 2.568 5.735 5.735v16.728h-.002c0 3.166-2.565 5.731-5.733 5.733zm-3.735-22.461-.002 16.728c.004 2.061 1.674 3.729 3.736 3.732h17.042c2.063-.004 3.73-1.671 3.735-3.732v-16.728c-.005-2.063-1.674-3.732-3.735-3.736h-17.042c-2.062.004-3.732 1.673-3.734 3.736z"/><path d="m332.483 168.629c-3.171 0-5.735-2.568-5.737-5.734l.002-9.312c0-3.166 2.566-5.732 5.735-5.732h9.308c3.168 0 5.734 2.566 5.736 5.732v9.312h-.002c0 3.166-2.566 5.734-5.734 5.734zm-3.735-15.046-.002 9.312c.004 2.062 1.673 3.731 3.737 3.735h9.308c2.063-.004 3.732-1.673 3.736-3.735h-.002l.002-9.312c-.004-2.06-1.673-3.729-3.736-3.732h-9.308c-2.064.003-3.733 1.67-3.735 3.732z"/><path d="m355.745 173.836c-3.168 0-5.733-2.568-5.735-5.733l.002-16.729c0-3.165 2.565-5.733 5.733-5.735h17.041c3.17.002 5.735 2.567 5.737 5.735v16.729h-.002c0 3.167-2.567 5.733-5.735 5.733zm-3.734-22.461v16.729c.004 2.061 1.673 3.73 3.734 3.732l17.041.002c2.063-.004 3.732-1.673 3.736-3.734v-16.729c-.004-2.061-1.673-3.73-3.736-3.734h-17.041c-2.061.004-3.73 1.672-3.734 3.734z"/><path d="m359.375 168.63c-3.168-.002-5.734-2.568-5.736-5.734l.002-9.311c0-3.168 2.566-5.732 5.734-5.734h9.31c3.166.002 5.734 2.566 5.736 5.734v9.311h-.002c0 3.166-2.566 5.732-5.734 5.734zm-3.734-15.046-.002 9.311c.004 2.061 1.674 3.73 3.736 3.734h9.31c2.063-.004 3.732-1.674 3.736-3.734h-.002l.002-9.311c-.004-2.06-1.674-3.73-3.736-3.734h-9.31c-2.062.004-3.732 1.672-3.734 3.734z"/><path d="m382.638 173.836c-3.168 0-5.733-2.567-5.735-5.733l.002-16.729c0-3.167 2.565-5.735 5.733-5.735h17.043c3.167 0 5.732 2.568 5.734 5.735v16.729h-.002c0 3.166-2.565 5.733-5.732 5.733zm-3.735-22.461v16.729c.004 2.062 1.672 3.73 3.734 3.732l17.043.002c2.062-.004 3.729-1.672 3.733-3.734v-16.729c-.004-2.062-1.672-3.732-3.733-3.734l-17.043-.002c-2.062.004-3.73 1.674-3.734 3.736z"/><path d="m386.267 168.628c-3.168 0-5.732-2.566-5.734-5.734l.002-9.31c0-3.166 2.564-5.732 5.732-5.732h9.313c3.165 0 5.731 2.566 5.731 5.732v9.31c0 3.168-2.566 5.734-5.731 5.734zm-3.733-15.045-.002 9.31c.004 2.063 1.674 3.732 3.734 3.736h9.313c2.061-.004 3.729-1.673 3.733-3.736h-.002l.002-9.31c-.004-2.061-1.673-3.73-3.733-3.734h-9.313c-2.06.005-3.73 1.674-3.732 3.734z"/><path d="m408.677 173.835c-3.167 0-5.734-2.565-5.734-5.732v-16.727c0-3.169 2.567-5.734 5.734-5.736h17.042c3.167.002 5.734 2.567 5.734 5.736v16.727c0 3.167-2.567 5.732-5.734 5.734zm-3.736-22.459v16.727c.004 2.062 1.673 3.729 3.735 3.733h17.042c2.062-.004 3.73-1.671 3.735-3.733v-16.727c-.005-2.062-1.674-3.733-3.735-3.735l-17.042-.002c-2.062.004-3.731 1.675-3.735 3.737z"/><path d="m412.306 168.63c-3.168-.002-5.734-2.568-5.734-5.736v-9.311c0-3.167 2.566-5.733 5.734-5.733h9.31c3.168 0 5.733 2.566 5.733 5.733v9.311c0 3.167-2.565 5.733-5.733 5.736zm-3.734-15.046-.003 9.311c.005 2.063 1.675 3.731 3.736 3.735h9.31c2.062-.004 3.731-1.672 3.735-3.735h-.002l.002-9.311c-.004-2.063-1.672-3.729-3.735-3.733h-9.31c-2.063.004-3.731 1.67-3.733 3.733z"/><path d="m66.235 200.031c-3.167 0-5.732-2.566-5.735-5.732v-16.729c.002-3.167 2.567-5.732 5.735-5.734l17.045.002c3.165 0 5.732 2.565 5.732 5.732v16.729c0 3.166-2.565 5.732-5.732 5.735zm-3.735-22.462v16.729c.004 2.061 1.672 3.73 3.734 3.732l17.045.002c2.06-.004 3.73-1.674 3.732-3.734v-16.729c-.002-2.062-1.672-3.729-3.732-3.734h-17.044c-2.062.005-3.731 1.673-3.735 3.734z"/><path d="m69.866 194.823c-3.169 0-5.735-2.567-5.735-5.732v-9.311c0-3.167 2.565-5.735 5.735-5.735h9.311c3.166 0 5.733 2.568 5.733 5.735v9.311c0 3.165-2.567 5.732-5.733 5.735zm-3.736-15.043v9.311c.004 2.061 1.673 3.729 3.736 3.734h9.311c2.061-.005 3.73-1.674 3.734-3.734h-.002l.002-9.311c-.004-2.063-1.673-3.732-3.734-3.734l-9.311-.002c-2.063.004-3.732 1.674-3.736 3.736z"/><path d="m93.128 200.031c-3.167 0-5.732-2.566-5.734-5.732v-16.729c.002-3.167 2.567-5.732 5.734-5.734l17.043.002c3.167 0 5.734 2.565 5.734 5.732v16.729c0 3.166-2.567 5.732-5.734 5.735zm-3.734-22.462v16.729c.004 2.061 1.672 3.73 3.734 3.732l17.043.002c2.062-.004 3.73-1.674 3.734-3.734v-16.729c-.004-2.062-1.672-3.729-3.734-3.734h-17.043c-2.062.005-3.73 1.673-3.734 3.734z"/><path d="m96.758 194.823c-3.169 0-5.735-2.565-5.735-5.732v-9.311c0-3.17 2.565-5.735 5.735-5.735h9.311c3.167 0 5.733 2.568 5.735 5.735v9.311h-.002c0 3.165-2.565 5.732-5.733 5.735zm-3.736-15.043v9.311c.004 2.061 1.673 3.729 3.736 3.734h9.311c2.061-.005 3.73-1.674 3.734-3.734v-9.311c-.004-2.063-1.673-3.732-3.734-3.734l-9.311-.002c-2.062.004-3.732 1.674-3.736 3.736z"/><path d="m120.021 200.031c-3.167 0-5.732-2.566-5.734-5.732v-16.729c.002-3.167 2.567-5.732 5.734-5.734l17.043.002c3.167 0 5.732 2.565 5.734 5.732v16.729c-.002 3.166-2.567 5.732-5.734 5.735zm-3.734-22.462v16.729c.004 2.061 1.672 3.73 3.734 3.732l17.043.002c2.062-.004 3.73-1.674 3.734-3.734v-16.729c-.004-2.062-1.672-3.729-3.734-3.734h-17.043c-2.062.005-3.73 1.673-3.734 3.734z"/><path d="m123.651 194.823c-3.167 0-5.733-2.567-5.735-5.732v-9.311c.002-3.167 2.568-5.735 5.735-5.735h9.31c3.167 0 5.733 2.568 5.733 5.735v9.311c0 3.165-2.565 5.732-5.733 5.735zm-3.734-15.043v9.311c.002 2.061 1.671 3.729 3.734 3.734h9.31c2.061-.005 3.73-1.674 3.734-3.734v-9.311c-.004-2.063-1.673-3.732-3.734-3.734l-9.31-.002c-2.063.004-3.732 1.674-3.734 3.736z"/><path d="m146.915 200.031c-3.167 0-5.735-2.566-5.735-5.732v-16.729c0-3.167 2.567-5.732 5.735-5.734l17.042.002c3.167 0 5.733 2.565 5.735 5.732v16.729c-.002 3.166-2.567 5.732-5.735 5.735zm-3.735-22.462-.002 16.729c.004 2.061 1.672 3.73 3.737 3.732l17.042.002c2.062-.004 3.73-1.674 3.734-3.734v-16.729c-.004-2.062-1.672-3.729-3.734-3.734h-17.042c-2.065.005-3.733 1.673-3.735 3.734z"/><path d="m150.544 194.823c-3.167 0-5.733-2.567-5.735-5.732l.002-9.311c0-3.167 2.565-5.735 5.733-5.735h9.31c3.167 0 5.733 2.568 5.733 5.735v9.311c0 3.165-2.566 5.732-5.733 5.735zm-3.734-15.043v9.311c.004 2.061 1.671 3.729 3.734 3.734h9.31c2.061-.005 3.73-1.674 3.734-3.734v-9.311c-.004-2.063-1.673-3.732-3.734-3.734l-9.31-.002c-2.063.004-3.73 1.674-3.734 3.736z"/><path d="m173.808 200.031c-3.167 0-5.734-2.566-5.734-5.732v-16.729c0-3.167 2.567-5.732 5.734-5.734l17.043.002c3.167 0 5.732 2.565 5.734 5.732v16.729h-.002c0 3.166-2.565 5.732-5.732 5.735zm-3.735-22.462v16.729c.004 2.061 1.672 3.73 3.734 3.732l17.043.002c2.062-.004 3.73-1.674 3.734-3.734h-.002l.002-16.729c-.004-2.062-1.672-3.729-3.734-3.734h-17.043c-2.061.005-3.73 1.673-3.734 3.734z"/><path d="m177.437 194.823c-3.167 0-5.733-2.567-5.735-5.732v-9.311c.002-3.167 2.568-5.735 5.735-5.735h9.311c3.167 0 5.733 2.568 5.735 5.735v9.311h-.002c0 3.165-2.566 5.732-5.733 5.735zm-3.735-15.043v9.311c.004 2.061 1.673 3.729 3.734 3.734h9.311c2.063-.005 3.729-1.674 3.734-3.734v-9.311c-.004-2.063-1.671-3.732-3.734-3.734l-9.311-.002c-2.061.004-3.729 1.674-3.734 3.736z"/><path d="m200.701 200.031c-3.169 0-5.734-2.566-5.734-5.732v-16.729c0-3.167 2.565-5.732 5.734-5.734l17.043.002c3.167 0 5.732 2.565 5.734 5.732v16.729h-.002c0 3.166-2.565 5.732-5.732 5.735zm-3.735-22.462v16.729c.002 2.061 1.672 3.73 3.734 3.732l17.043.002c2.06-.004 3.73-1.674 3.734-3.734h-.002l.002-16.729c-.004-2.062-1.672-3.729-3.734-3.734h-17.043c-2.063.005-3.731 1.673-3.734 3.734z"/><path d="m204.329 194.823c-3.167 0-5.733-2.567-5.735-5.732l.002-9.311c0-3.167 2.565-5.735 5.733-5.735h9.311c3.167 0 5.733 2.568 5.735 5.735v9.311h-.002c0 3.165-2.566 5.732-5.733 5.735zm-3.734-15.043v9.311c.004 2.061 1.673 3.729 3.734 3.734h9.311c2.061-.005 3.73-1.674 3.734-3.734v-9.311c-.004-2.063-1.673-3.732-3.734-3.734l-9.311-.002c-2.06.004-3.73 1.674-3.734 3.736z"/><path d="m227.592 200.031c-3.167 0-5.732-2.566-5.734-5.732l.002-16.729c0-3.167 2.565-5.732 5.732-5.734l17.045.002c3.166 0 5.732 2.565 5.735 5.732v16.729h-.002c0 3.166-2.565 5.732-5.732 5.735zm-3.732-22.462-.002 16.729c.004 2.061 1.674 3.73 3.734 3.732l17.045.002c2.06-.004 3.73-1.674 3.734-3.734h-.002l.002-16.729c-.004-2.062-1.672-3.729-3.734-3.734h-17.045c-2.062.005-3.73 1.673-3.732 3.734z"/><path d="m231.222 194.823c-3.167 0-5.733-2.567-5.735-5.732l.002-9.311c0-3.167 2.565-5.735 5.733-5.735h9.311c3.169 0 5.735 2.568 5.735 5.735v9.311c0 3.165-2.565 5.732-5.735 5.735zm-3.734-15.043v9.311c.004 2.061 1.671 3.729 3.734 3.734h9.311c2.063-.005 3.732-1.674 3.736-3.734h-.002l.002-9.311c-.004-2.063-1.673-3.732-3.736-3.734l-9.311-.002c-2.063.004-3.73 1.674-3.734 3.736z"/><path d="m254.485 200.031c-3.167 0-5.733-2.566-5.735-5.732v-16.729c.002-3.167 2.567-5.732 5.735-5.734l17.042.002c3.169 0 5.735 2.565 5.735 5.732v16.729c0 3.166-2.565 5.732-5.735 5.735zm-3.734-22.462v16.729c.004 2.061 1.672 3.73 3.734 3.732l17.042.002c2.064-.004 3.732-1.674 3.736-3.734h-.002l.002-16.729c-.004-2.062-1.672-3.729-3.736-3.734h-17.042c-2.062.005-3.73 1.673-3.734 3.734z"/><path d="m258.116 194.823c-3.169 0-5.735-2.567-5.735-5.732v-9.311c0-3.167 2.566-5.735 5.735-5.735h9.311c3.167 0 5.733 2.568 5.733 5.735v9.311c0 3.165-2.565 5.732-5.733 5.735zm-3.734-15.043-.002 9.311c.004 2.061 1.673 3.729 3.736 3.734h9.311c2.061-.005 3.73-1.674 3.734-3.734h-.002l.002-9.311c-.004-2.063-1.673-3.732-3.734-3.734l-9.311-.002c-2.062.004-3.732 1.674-3.734 3.736z"/><path d="m281.378 200.031c-3.167 0-5.734-2.566-5.734-5.732v-16.729c0-3.167 2.567-5.732 5.734-5.734l17.043.002c3.167 0 5.734 2.565 5.734 5.732v16.729c0 3.166-2.567 5.732-5.734 5.735zm-3.734-22.462v16.729c.004 2.061 1.672 3.73 3.734 3.732l17.043.002c2.062-.004 3.73-1.674 3.734-3.734v-16.729c-.004-2.062-1.672-3.729-3.734-3.734h-17.043c-2.062.005-3.73 1.673-3.734 3.734z"/><path d="m285.007 194.826c-3.167-.003-5.733-2.57-5.733-5.735v-9.311c0-3.167 2.566-5.735 5.733-5.735h9.313c3.167 0 5.732 2.568 5.732 5.735v9.311c0 3.165-2.565 5.732-5.732 5.735zm-3.732-15.046-.002 9.311c.004 2.061 1.673 3.729 3.734 3.734h9.313c2.061-.005 3.73-1.674 3.734-3.734h-.002l.002-9.311c-.004-2.063-1.673-3.732-3.734-3.734h-9.313c-2.061.002-3.73 1.672-3.732 3.734z"/><path d="m308.271 200.032c-3.168 0-5.733-2.567-5.735-5.733l.002-16.729c0-3.168 2.565-5.733 5.733-5.733h17.043c3.168 0 5.732 2.567 5.735 5.733v16.729h-.003c0 3.166-2.564 5.733-5.732 5.733zm-3.734-22.462v16.729c.003 2.06 1.672 3.729 3.734 3.733h17.043c2.062-.004 3.73-1.674 3.733-3.733v-16.729c-.003-2.062-1.67-3.729-3.733-3.733h-17.043c-2.062.004-3.731 1.671-3.734 3.733z"/><path d="m311.9 194.823c-3.168 0-5.734-2.565-5.734-5.732v-9.312c0-3.168 2.566-5.734 5.734-5.734h9.312c3.167 0 5.732 2.568 5.735 5.734v9.312h-.003c0 3.165-2.565 5.732-5.732 5.734zm-3.733-15.044-.002 9.312c.004 2.062 1.675 3.729 3.735 3.731l9.312.003c2.062-.005 3.729-1.673 3.734-3.734h-.003l.003-9.312c-.005-2.063-1.673-3.731-3.734-3.733l-9.312-.002c-2.06.004-3.731 1.675-3.733 3.735z"/><path d="m335.164 200.031c-3.168 0-5.733-2.567-5.735-5.731l.002-16.729c0-3.167 2.565-5.735 5.733-5.735h17.043c3.168 0 5.733 2.567 5.735 5.735v16.729h-.002c0 3.166-2.565 5.731-5.733 5.733zm-3.735-22.46v16.729c.005 2.061 1.674 3.729 3.735 3.731l17.043.002c2.063-.005 3.731-1.673 3.735-3.733h-.002l.002-16.729c-.004-2.064-1.673-3.73-3.735-3.735h-17.043c-2.063.005-3.73 1.671-3.735 3.735z"/><path d="m338.794 194.823c-3.169 0-5.734-2.566-5.734-5.733v-9.311c0-3.166 2.565-5.732 5.734-5.734h9.311c3.167.002 5.732 2.568 5.734 5.734v9.311h-.002c0 3.167-2.565 5.733-5.732 5.735zm-3.733-15.044-.002 9.311c.004 2.062 1.674 3.731 3.735 3.733l9.311.002c2.062-.004 3.729-1.674 3.733-3.735v-9.311c-.004-2.062-1.672-3.731-3.733-3.733l-9.311-.002c-2.062.004-3.731 1.674-3.733 3.735z"/><path d="m411.045 200.031c-3.17 0-5.736-2.566-5.736-5.731v-16.73c0-3.168 2.566-5.734 5.736-5.734h17.041c3.166 0 5.733 2.566 5.736 5.734v16.73h-.003c0 3.165-2.567 5.731-5.733 5.733zm-3.736-22.461v16.73c.005 2.061 1.672 3.729 3.736 3.731l17.041.002c2.061-.004 3.731-1.673 3.734-3.733v-16.73c-.003-2.063-1.674-3.73-3.734-3.734h-17.041c-2.065.004-3.732 1.672-3.736 3.734z"/><path d="m414.672 194.823c-3.168 0-5.734-2.565-5.734-5.733v-9.311c0-3.167 2.566-5.733 5.734-5.733h9.312c3.168 0 5.733 2.566 5.733 5.733v9.311c0 3.166-2.565 5.733-5.733 5.735zm-3.734-15.044v9.311c.003 2.062 1.674 3.73 3.734 3.734h9.312c2.062-.004 3.729-1.673 3.734-3.734h-.002l.002-9.311c-.005-2.062-1.673-3.73-3.734-3.734h-9.312c-2.061.004-3.732 1.673-3.734 3.734z"/><path d="m106.791 226.07c-3.167 0-5.732-2.567-5.734-5.734l.002-16.727c0-3.167 2.565-5.734 5.732-5.736l17.043.002c3.169 0 5.734 2.567 5.736 5.734v16.727h-.002c0 3.167-2.565 5.734-5.734 5.736zm-3.734-22.461v16.727c.004 2.063 1.673 3.731 3.734 3.734l17.043.002c2.063-.005 3.731-1.674 3.736-3.736h-.002l.002-16.727c-.004-2.063-1.673-3.731-3.736-3.735h-17.043c-2.061.004-3.73 1.673-3.734 3.735z"/><path d="m110.422 220.863c-3.169 0-5.735-2.568-5.735-5.735v-9.311c0-3.167 2.568-5.732 5.735-5.734l9.311.002c3.165 0 5.732 2.565 5.732 5.732v9.311c0 3.167-2.565 5.735-5.732 5.735zm-3.735-15.046v9.311c.004 2.063 1.672 3.731 3.735 3.733l9.311.003c2.061-.005 3.729-1.673 3.733-3.736v-9.311c-.004-2.062-1.672-3.729-3.733-3.733h-9.311c-2.063.004-3.732 1.672-3.735 3.733z"/><path d="m66.393 226.071c-3.167 0-5.734-2.568-5.734-5.735v-16.727c0-3.169 2.567-5.734 5.734-5.734h30.932c3.167 0 5.732 2.567 5.734 5.734v16.727h-.002c0 3.167-2.565 5.735-5.732 5.735zm-3.734-22.462v16.727c.004 2.062 1.673 3.731 3.734 3.735h30.932c2.06-.004 3.729-1.674 3.733-3.735v-16.727c-.004-2.063-1.673-3.732-3.733-3.736h-30.932c-2.06.004-3.729 1.674-3.734 3.736z"/><path d="m70.023 220.863c-3.167 0-5.734-2.568-5.734-5.735v-9.311c0-3.167 2.567-5.732 5.734-5.734l23.197.002c3.167 0 5.734 2.565 5.734 5.732v9.311c0 3.167-2.567 5.735-5.734 5.735zm-3.733-15.046-.002 9.311c.004 2.063 1.674 3.731 3.735 3.733l23.197.003c2.061-.005 3.731-1.673 3.735-3.736h-.002l.002-9.311c-.004-2.062-1.672-3.729-3.735-3.733h-23.197c-2.063.004-3.731 1.672-3.733 3.733z"/><path d="m375.484 226.071c-3.168 0-5.733-2.567-5.733-5.735v-16.728c0-3.166 2.565-5.733 5.733-5.733h30.929c3.168 0 5.733 2.567 5.735 5.733v16.728h-.002c0 3.168-2.565 5.735-5.733 5.735zm-3.733-22.463-.002 16.728c.004 2.063 1.674 3.732 3.735 3.737h30.929c2.062-.005 3.73-1.674 3.734-3.737v-16.728c-.004-2.062-1.673-3.73-3.734-3.735h-30.929c-2.061.005-3.731 1.674-3.733 3.735z"/><path d="m379.113 220.862c-3.168 0-5.734-2.566-5.734-5.733v-9.312c0-3.166 2.566-5.732 5.734-5.734l23.198.002c3.166 0 5.732 2.564 5.734 5.732v9.312h-.002c0 3.167-2.566 5.733-5.732 5.735zm-3.732-15.045-.003 9.312c.005 2.063 1.673 3.731 3.735 3.733l23.198.002c2.06-.004 3.73-1.673 3.734-3.735h-.002l.002-9.312c-.004-2.062-1.672-3.73-3.734-3.732l-23.198-.002c-2.062.004-3.73 1.673-3.732 3.734z"/><path d="m361.95 200.032c-3.169 0-5.734-2.566-5.734-5.732v-16.728c0-3.168 2.565-5.734 5.734-5.734h39.452c3.166 0 5.732 2.566 5.732 5.734v16.728c0 3.166-2.566 5.732-5.732 5.734zm-3.733-22.46-.002 16.728c.005 2.063 1.673 3.73 3.735 3.732h39.452c2.062-.002 3.729-1.67 3.732-3.732v-16.728c-.004-2.062-1.671-3.73-3.732-3.734h-39.452c-2.062.004-3.73 1.672-3.733 3.734z"/><path d="m365.579 194.826c-3.168 0-5.733-2.568-5.733-5.735v-9.308c0-3.169 2.565-5.736 5.733-5.736h31.72c3.167 0 5.733 2.567 5.735 5.736v9.308h-.002c0 3.167-2.566 5.735-5.733 5.735zm-3.732-15.043-.002 9.308c.004 2.063 1.674 3.732 3.734 3.735h31.72c2.063-.003 3.73-1.672 3.735-3.735h-.002l.002-9.308c-.005-2.065-1.672-3.733-3.735-3.737h-31.72c-2.06.004-3.73 1.672-3.732 3.737z"/><path d="m133.303 252.424c-3.167 0-5.733-2.566-5.733-5.733v-16.729c0-3.167 2.567-5.733 5.733-5.733h205.149c3.167 0 5.733 2.566 5.733 5.733v16.729c0 3.167-2.566 5.733-5.733 5.735zm-3.733-22.462v16.729c.002 2.063 1.672 3.731 3.733 3.733l205.149.002c2.061-.004 3.731-1.673 3.735-3.735h-.002l.002-16.729c-.004-2.061-1.673-3.731-3.735-3.733h-205.149c-2.063.001-3.731 1.672-3.733 3.733z"/><path d="m136.933 247.216c-3.167 0-5.734-2.567-5.734-5.732v-9.312c0-3.167 2.568-5.734 5.734-5.734h197.416c3.167 0 5.732 2.567 5.734 5.734v9.312h-.002c0 3.165-2.565 5.732-5.732 5.734zm-3.735-15.044v9.312c.004 2.062 1.673 3.729 3.735 3.733h197.416c2.063-.004 3.73-1.672 3.735-3.733h-.003l.003-9.312c-.005-2.062-1.672-3.73-3.735-3.733l-197.416-.002c-2.061.004-3.731 1.673-3.735 3.735z"/><path d="m133.685 226.07c-3.167 0-5.734-2.567-5.734-5.734v-16.727c0-3.167 2.567-5.734 5.734-5.736l17.043.002c3.167 0 5.734 2.567 5.734 5.734v16.727c0 3.167-2.567 5.734-5.734 5.736zm-3.734-22.461v16.727c.004 2.063 1.671 3.731 3.734 3.734l17.043.002c2.063-.005 3.731-1.674 3.734-3.736v-16.727c-.002-2.063-1.671-3.731-3.734-3.735h-17.043c-2.063.004-3.73 1.673-3.734 3.735z"/><path d="m137.315 220.863c-3.169 0-5.734-2.568-5.737-5.735l.002-9.311c0-3.167 2.567-5.732 5.734-5.734l9.309.002c3.167 0 5.734 2.565 5.734 5.732v9.311c0 3.167-2.567 5.735-5.734 5.735zm-3.735-15.046v9.311c.004 2.063 1.672 3.731 3.735 3.733l9.309.003c2.061-.005 3.731-1.673 3.735-3.736v-9.311c-.004-2.062-1.672-3.729-3.735-3.733h-9.309c-2.063.004-3.732 1.672-3.735 3.733z"/><path d="m160.578 226.07c-3.169 0-5.734-2.567-5.736-5.734l.002-16.727c0-3.167 2.565-5.734 5.734-5.736l17.043.002c3.167 0 5.734 2.565 5.734 5.734v16.727c0 3.167-2.567 5.734-5.734 5.736zm-3.736-22.461v16.727c.004 2.063 1.673 3.731 3.736 3.734l17.043.002c2.061-.005 3.729-1.674 3.734-3.736v-16.727c-.004-2.063-1.673-3.731-3.734-3.735h-17.043c-2.062.004-3.732 1.673-3.736 3.735z"/><path d="m164.208 220.863c-3.169 0-5.734-2.568-5.736-5.735l.002-9.311c0-3.167 2.567-5.732 5.734-5.734l9.309.002c3.167 0 5.735 2.565 5.735 5.732v9.311c0 3.167-2.566 5.735-5.735 5.735zm-3.735-15.046v9.311c.004 2.063 1.672 3.731 3.735 3.733l9.309.003c2.063-.005 3.731-1.673 3.735-3.736v-9.311c-.004-2.062-1.672-3.729-3.735-3.733h-9.309c-2.063.004-3.731 1.672-3.735 3.733z"/><path d="m187.472 226.07c-3.169 0-5.734-2.567-5.734-5.734v-16.727c0-3.167 2.565-5.734 5.734-5.736l17.041.002c3.169 0 5.734 2.565 5.736 5.734v16.727h-.002c0 3.167-2.565 5.734-5.734 5.736zm-3.734-22.461-.002 16.727c.004 2.063 1.673 3.731 3.736 3.734l17.041.002c2.063-.005 3.732-1.674 3.736-3.736v-16.727c-.004-2.063-1.673-3.731-3.736-3.735h-17.041c-2.063.004-3.732 1.673-3.734 3.735z"/><path d="m191.099 220.863c-3.167 0-5.732-2.568-5.732-5.735v-9.311c0-3.167 2.565-5.732 5.732-5.734l9.313.002c3.165 0 5.732 2.565 5.732 5.732v9.311c0 3.167-2.568 5.735-5.732 5.735zm-3.733-15.046v9.311c.004 2.063 1.672 3.731 3.733 3.733l9.313.003c2.061-.005 3.729-1.673 3.733-3.736h-.002l.002-9.311c-.004-2.062-1.672-3.729-3.733-3.733h-9.313c-2.061.004-3.729 1.672-3.733 3.733z"/><path d="m214.363 226.072c-3.167-.002-5.734-2.569-5.734-5.736v-16.727c0-3.169 2.567-5.734 5.734-5.736l17.043.002c3.167 0 5.734 2.567 5.734 5.734v16.727c0 3.167-2.567 5.734-5.734 5.736zm-3.734-22.463v16.727c.002 2.063 1.673 3.731 3.734 3.734l17.043.002c2.063-.005 3.729-1.674 3.734-3.736v-16.727c-.004-2.063-1.671-3.731-3.734-3.735h-17.043c-2.06.004-3.732 1.673-3.734 3.735z"/><path d="m217.993 220.863c-3.167 0-5.733-2.568-5.735-5.735v-9.311c.002-3.167 2.567-5.732 5.735-5.734l9.311.002c3.167 0 5.733 2.565 5.735 5.732v9.311h-.002c0 3.167-2.565 5.735-5.733 5.735zm-3.734-15.046v9.311c.002 2.063 1.672 3.731 3.734 3.733l9.311.003c2.062-.005 3.729-1.673 3.734-3.736v-9.311c-.004-2.062-1.672-3.729-3.734-3.733h-9.311c-2.062.004-3.732 1.672-3.734 3.733z"/><path d="m241.257 226.07c-3.169 0-5.734-2.567-5.736-5.734l.002-16.727c0-3.167 2.565-5.734 5.734-5.736l17.043.002c3.167 0 5.732 2.565 5.734 5.734v16.727c-.002 3.167-2.567 5.734-5.734 5.736zm-3.734-22.461-.002 16.727c.004 2.063 1.673 3.731 3.736 3.734l17.043.002c2.061-.005 3.73-1.674 3.734-3.736v-16.727c-.004-2.063-1.673-3.731-3.734-3.735h-17.043c-2.063.004-3.732 1.673-3.734 3.735z"/><path d="m244.886 220.863c-3.167 0-5.733-2.568-5.735-5.735v-9.311c.002-3.167 2.568-5.732 5.735-5.734l9.311.002c3.167 0 5.732 2.565 5.734 5.732v9.311c-.002 3.167-2.567 5.735-5.734 5.735zm-3.734-15.046v9.311c.002 2.063 1.672 3.731 3.733 3.733l9.311.003c2.061-.005 3.729-1.673 3.733-3.736v-9.311c-.004-2.062-1.672-3.729-3.733-3.733h-9.311c-2.063.004-3.731 1.672-3.733 3.733z"/><path d="m268.148 226.07c-3.167 0-5.734-2.567-5.734-5.734v-16.727c0-3.169 2.567-5.734 5.734-5.736l17.045.002c3.167 0 5.732 2.565 5.734 5.734v16.727c-.002 3.169-2.567 5.734-5.734 5.736zm-3.733-22.461v16.727c.004 2.063 1.673 3.731 3.734 3.734l17.045.002c2.061-.005 3.73-1.674 3.734-3.736v-16.727c-.004-2.063-1.673-3.731-3.734-3.735h-17.045c-2.061.004-3.73 1.673-3.734 3.735z"/><path d="m271.779 220.863c-3.167 0-5.735-2.568-5.735-5.735v-9.311c0-3.167 2.568-5.732 5.735-5.734l9.311.002c3.167 0 5.732 2.565 5.734 5.732v9.311h-.002c0 3.167-2.565 5.735-5.732 5.735zm-3.734-15.046-.002 9.311c.004 2.063 1.674 3.731 3.735 3.733l9.311.003c2.061-.005 3.729-1.673 3.733-3.736v-9.311c-.004-2.062-1.672-3.729-3.733-3.733h-9.311c-2.06.004-3.731 1.672-3.733 3.733z"/><path d="m295.042 226.072c-3.167-.002-5.734-2.567-5.736-5.736l.002-16.727c0-3.169 2.567-5.734 5.734-5.736l17.043.002c3.167 0 5.731 2.567 5.734 5.734v16.727h-.003c0 3.167-2.564 5.734-5.731 5.736zm-3.734-22.463-.002 16.727c.004 2.063 1.676 3.731 3.736 3.734l17.043.002c2.061-.005 3.729-1.674 3.733-3.736v-16.727c-.004-2.063-1.673-3.731-3.733-3.735h-17.043c-2.06.004-3.731 1.673-3.734 3.735z"/><path d="m298.672 220.863c-3.167 0-5.734-2.568-5.734-5.735v-9.311c0-3.167 2.567-5.732 5.734-5.734l9.311.002c3.165 0 5.735 2.565 5.735 5.732v9.311c0 3.17-2.568 5.735-5.735 5.735zm-3.734-15.046-.002 9.311c.004 2.063 1.674 3.731 3.735 3.733l9.311.003c2.06-.005 3.731-1.675 3.736-3.736h-.003l.003-9.311c-.005-2.062-1.675-3.729-3.736-3.733h-9.311c-2.062.004-3.731 1.672-3.733 3.733z"/><path d="m321.934 226.07c-3.167 0-5.732-2.567-5.734-5.734l.002-16.727c0-3.167 2.565-5.734 5.732-5.736l17.045.002c3.167 0 5.734 2.565 5.734 5.734v16.727c0 3.167-2.567 5.734-5.734 5.736zm-3.733-22.461-.002 16.727c.005 2.063 1.674 3.731 3.734 3.734l17.045.002c2.063-.005 3.731-1.674 3.735-3.736h-.002l.002-16.727c-.004-2.063-1.673-3.731-3.735-3.735h-17.045c-2.06.004-3.729 1.673-3.732 3.735z"/><path d="m325.564 220.863c-3.167 0-5.734-2.565-5.736-5.735l.002-9.311c0-3.167 2.567-5.732 5.734-5.734l9.31.002c3.167 0 5.734 2.565 5.734 5.732v9.311c0 3.167-2.565 5.735-5.734 5.735zm-3.735-15.046v9.311c.004 2.062 1.675 3.731 3.735 3.733l9.31.003c2.063-.005 3.731-1.673 3.735-3.736h-.002l.002-9.311c-.004-2.062-1.673-3.729-3.735-3.733h-9.31c-2.062.004-3.731 1.672-3.735 3.733z"/><path d="m348.827 226.071c-3.167 0-5.733-2.568-5.733-5.735v-16.727c0-3.167 2.566-5.734 5.733-5.736l17.044.002c3.167 0 5.732 2.565 5.734 5.734v16.727h-.002c0 3.167-2.565 5.735-5.732 5.735zm-3.733-22.462v16.727c.004 2.063 1.672 3.731 3.733 3.735h17.044c2.06-.004 3.73-1.673 3.732-3.735v-16.727c-.002-2.062-1.673-3.733-3.732-3.735h-17.044c-2.061.002-3.729 1.672-3.733 3.735z"/><path d="m352.457 220.862c-3.167 0-5.733-2.566-5.735-5.734l.002-9.31c0-3.169 2.566-5.733 5.733-5.735l9.311.002c3.167 0 5.733 2.564 5.735 5.733v9.31h-.002c0 3.168-2.566 5.734-5.733 5.736zm-3.733-15.044-.002 9.31c.005 2.063 1.675 3.731 3.735 3.735h9.311c2.06-.004 3.73-1.673 3.735-3.735h-.002l.002-9.31c-.005-2.063-1.673-3.731-3.735-3.733l-9.311-.002c-2.062.004-3.73 1.673-3.733 3.735z"/><path d="m217.624 108.767v-17.253h2.001v17.253z"/><path d="m373.538 108.874v-17.36h2v17.36z"/></g></svg>