<svg height="350.26" viewBox="0 0 598.189 350.26" width="598.189" xmlns="http://www.w3.org/2000/svg"><g fill="#f4f4f4"><path d="m180.012 7.94c-4.947 0-8.98 4.033-8.98 8.98v315.1c0 4.947 4.033 8.955 8.98 8.955h238.458c4.947 0 8.98-4.008 8.98-8.955v-.796-314.304c0-4.946-4.029-8.979-8.98-8.979zm0 1.592h238.458c4.087 0 7.388 3.301 7.388 7.388v315.1c0 4.086-3.302 7.363-7.388 7.363h-238.458c-4.085.008-7.387-3.273-7.387-7.363v-315.1c0-4.086 3.302-7.388 7.387-7.388z"/><path d="m215.087 33.338c-8.276 0-15 6.725-15 15v52.14.796h.796 68.383.796v-.796-66.344-.796h-.796zm0 1.592h53.383v64.752h-66.791v-51.344c0-7.415 5.993-13.408 13.408-13.408z"/><path d="m271.482 33.338v.796 68.235h-70.374-.796v.796 195.695c0 8.276 6.725 15 15 15h167.866c8.277 0 15.001-6.725 15.001-15v-250.526c0-8.276-6.724-15-15.001-15h-110.893-.796zm1.592 1.592h110.099c7.417 0 13.408 5.992 13.408 13.408v250.525c0 7.415-5.991 13.409-13.408 13.409h-167.866c-7.415 0-13.408-5.994-13.408-13.409v-194.899h70.374.796v-.796-68.234z"/><path d="m219.391 106.122c-5.424.002-9.826 4.403-9.826 9.826v117.741c.001 5.422 4.402 9.825 9.826 9.825h159.698c5.422 0 9.825-4.402 9.826-9.825v-117.741c-.001-5.423-4.404-9.825-9.826-9.826zm0 1.592h159.698c4.554.001 8.221 3.682 8.234 8.234v.025 117.716c-.001 4.563-3.673 8.234-8.234 8.234h-159.698c-4.564 0-8.232-3.671-8.234-8.234v-117.716-.025c.014-4.552 3.678-8.233 8.234-8.234zm0 1.866c-3.519.006-6.387 2.849-6.394 6.368v117.741c.008 3.518 2.875 6.386 6.394 6.392h159.698c3.518-.006 6.386-2.874 6.394-6.392v-117.741c-.008-3.52-2.875-6.362-6.394-6.368zm0 1.592h159.698c2.652.004 4.783 2.125 4.802 4.776v.025 117.716c-.007 2.662-2.141 4.796-4.802 4.802h-159.698c-2.662-.007-4.796-2.14-4.801-4.802v-117.716c0-.009 0-.017 0-.025.017-2.651 2.147-4.772 4.801-4.776z"/><path d="m299.24 125.68c-2.409 0-4.81.928-6.643 2.761l-4.303 4.279c-2.78 2.908-4.33 3.781-9.278 3.781h-5.921c-5.185 0-9.402 4.218-9.402 9.402v5.597c0 2.452-.125 3.951-.572 5.199-.447 1.247-1.245 2.344-2.811 4.005l-4.697 4.696c-3.667 3.666-3.667 9.643 0 13.309l4.502 4.502h.025v.025c1.443 1.275 2.284 2.27 2.811 3.731s.747 3.469.747 6.716v4.528c0 5.185 4.219 9.402 9.403 9.402h5.597c5.245 0 6.943 1.182 9.577 3.731l4.328 4.329c3.667 3.666 9.617 3.666 13.284 0l4.079-4.055c1.686-1.696 2.721-2.675 3.932-3.234 1.209-.562 2.713-.771 5.473-.771h6.02c5.186 0 9.403-4.218 9.403-9.402v-5.498c0-3.162.4-5.07 1.169-6.567.767-1.497 1.959-2.653 3.731-4.254l.024-.024 3.159-3.159c3.667-3.666 3.667-9.643 0-13.309l-3.433-3.434-.024-.024c-1.69-1.464-2.814-2.523-3.532-3.98-.721-1.455-1.095-3.39-1.095-6.667v-5.397c0-5.186-4.22-9.402-9.403-9.402h-6.02c-2.729 0-4.357-.36-5.697-1.045-1.34-.686-2.447-1.744-4.029-3.284l-3.757-3.731c-1.833-1.833-4.233-2.761-6.642-2.761zm0 1.592c1.997 0 3.993.759 5.522 2.289l3.756 3.731v.025c1.582 1.539 2.814 2.731 4.428 3.557s3.549 1.219 6.418 1.219h6.02c4.324 0 7.812 3.486 7.812 7.811v5.398c0 3.396.396 5.596 1.269 7.363.865 1.751 2.165 2.985 3.855 4.452.015.013.035.012.05.025l3.384 3.383c3.058 3.057 3.058 8.011 0 11.069l-3.135 3.109-.025.025c-1.775 1.604-3.14 2.917-4.055 4.7-.919 1.794-1.343 3.996-1.343 7.289v5.497c0 4.325-3.485 7.812-7.811 7.812h-6.021c-2.838 0-4.613.211-6.144.92s-2.686 1.854-4.378 3.558l-4.068 4.044c-3.059 3.059-7.986 3.059-11.045 0l-4.329-4.328h-.025v-.025c-2.725-2.638-5.154-4.179-10.671-4.179h-5.597c-4.324 0-7.811-3.486-7.811-7.812v-4.527c0-3.315-.21-5.501-.846-7.264-.632-1.751-1.697-3.013-3.208-4.354l-.025-.024-4.478-4.453c-3.058-3.057-3.058-8.012 0-11.069l4.727-4.701.025-.025c1.619-1.717 2.605-3.007 3.159-4.552s.647-3.25.647-5.746v-5.597c0-4.325 3.486-7.811 7.811-7.811h5.92c5.169 0 7.52-1.217 10.423-4.254l4.278-4.279c1.529-1.53 3.525-2.289 5.523-2.289z"/><path d="m299.24 130.704c-2.166 0-4.323.814-5.971 2.463l-3.831 3.831c-2.468 2.58-3.817 3.333-8.208 3.333h-5.249c-4.661 0-8.458 3.796-8.458 8.458v4.975c0 2.181-.105 3.509-.498 4.603-.392 1.094-1.096 2.058-2.487 3.532l-4.179 4.179c-3.296 3.296-3.296 8.67 0 11.965l4.005 4.005v.025h.025c1.28 1.132 2 1.999 2.463 3.283s.671 3.059.671 5.945v4.03c0 4.662 3.796 8.458 8.458 8.458h4.975c4.653 0 6.121 1.046 8.458 3.309l3.856 3.855c3.295 3.298 8.644 3.298 11.939 0l3.633-3.632c1.498-1.509 2.398-2.37 3.457-2.86 1.059-.491 2.4-.672 4.852-.672h5.373c4.661 0 8.433-3.796 8.433-8.458v-4.876c0-2.808.345-4.48 1.021-5.796.674-1.315 1.731-2.357 3.308-3.781l.025-.024 2.811-2.812c3.295-3.296 3.295-8.669 0-11.965l-3.034-3.034-.025-.025-.024-.024c-1.502-1.303-2.479-2.229-3.11-3.508-.631-1.278-.97-2.986-.97-5.895v-4.801c0-4.661-3.771-8.458-8.433-8.458h-5.373c-2.42 0-3.849-.319-5.025-.92-1.174-.601-2.158-1.549-3.557-2.911h-.025l-3.309-3.333h-.025c-1.649-1.65-3.807-2.464-5.972-2.464zm0 1.567c1.755 0 3.506.67 4.851 2.015l3.334 3.358h.024c1.407 1.369 2.503 2.441 3.955 3.183 1.45.743 3.187 1.096 5.747 1.095h5.373c3.799 0 6.841 3.066 6.841 6.866v4.801c0 3.027.334 5.002 1.118 6.592.781 1.579 1.972 2.669 3.482 3.98.011.009.016.017.025.024l3.017 3.01c2.687 2.687 2.687 7.038 0 9.727l-2.786 2.762c-1.594 1.44-2.829 2.616-3.656 4.229s-1.194 3.604-1.194 6.542v4.876c0 3.802-3.04 6.865-6.841 6.865h-5.373c-2.529 0-4.119.183-5.498.821s-2.422 1.667-3.93 3.185l-3.633 3.632c-2.688 2.689-7.014 2.688-9.701 0l-3.856-3.881h-.025c-2.428-2.35-4.627-3.757-9.552-3.757h-4.975c-3.801 0-6.865-3.063-6.865-6.865v-4.03c0-2.954-.2-4.906-.771-6.492-.565-1.567-1.52-2.689-2.86-3.88l-.025-.025-3.98-3.979c-2.688-2.688-2.688-7.039 0-9.728l4.204-4.179v-.024c1.444-1.531 2.337-2.689 2.836-4.08.498-1.392.597-2.925.597-5.149v-4.975c0-3.8 3.064-6.866 6.865-6.866h5.249c4.604 0 6.744-1.133 9.329-3.831h.025l3.806-3.805c1.344-1.344 3.096-2.016 4.851-2.015h-.008z"/><path d="m299.24 149.012c-12.714 0-23.036 10.346-23.036 23.06s10.321 23.036 23.036 23.036c12.713 0 23.035-10.321 23.035-23.036 0-12.714-10.322-23.06-23.035-23.06zm0 1.592c11.852 0 21.442 9.614 21.442 21.468s-9.589 21.444-21.442 21.444-21.443-9.59-21.443-21.444c0-11.853 9.589-21.468 21.443-21.468z"/><path d="m299.24 156.772c-8.434 0-15.299 6.865-15.299 15.299 0 8.435 6.864 15.275 15.299 15.275 8.433 0 15.299-6.841 15.299-15.275 0-8.433-6.864-15.299-15.299-15.299zm0 1.593c7.573 0 13.706 6.133 13.706 13.706 0 7.574-6.133 13.683-13.706 13.683-7.574 0-13.707-6.108-13.707-13.683 0-7.573 6.133-13.706 13.707-13.706z"/><path d="m272.573 40.005c-.44.02-.781.391-.761.831s.392.78.832.761h.004 108.809c4.325 0 7.812 3.486 7.812 7.811v248.383c0 4.324-3.486 7.812-7.812 7.812h-164.428c-4.325 0-7.812-3.488-7.812-7.812v-194.58c.006-.44-.345-.802-.785-.808-.439-.006-.801.345-.807.785v.023 194.58c0 5.184 4.218 9.403 9.403 9.403h164.426c5.186 0 9.403-4.22 9.403-9.403v-248.383c0-5.185-4.218-9.403-9.403-9.403h-108.807c-.024-.001-.049-.001-.074 0z"/><path d="m217.027 40.005c-5.185 0-9.403 4.218-9.403 9.403v51.095c-.006.44.345.801.785.807.439.006.801-.345.807-.785 0-.007 0-.015 0-.022v-51.095c0-4.325 3.487-7.811 7.811-7.811h52.14c.439.006.801-.345.807-.785.006-.439-.345-.801-.785-.807-.007 0-.015 0-.022 0z"/></g></svg>