<svg height="350.26" viewBox="0 0 598.189 350.26" width="598.189" xmlns="http://www.w3.org/2000/svg"><g fill="#f4f4f4"><path d="m237.748 96.47c0-6.771 5.488-12.26 12.258-12.26 6.77 0 12.258 5.488 12.258 12.26h.002c-.002 6.771-5.49 12.258-12.26 12.258-6.77.001-12.258-5.487-12.258-12.258zm1.999 0c.01 5.664 4.593 10.248 10.259 10.257 5.667-.01 10.25-4.593 10.26-10.257-.01-5.667-4.593-10.25-10.26-10.26-5.666.01-10.249 4.593-10.259 10.26z"/><path d="m208.472 84.46c0-6.772 5.489-12.259 12.259-12.261 6.772.002 12.259 5.489 12.259 12.261 0 6.77-5.487 12.257-12.259 12.259-6.77-.002-12.259-5.489-12.259-12.259zm2 0c.01 5.664 4.593 10.247 10.26 10.259 5.666-.012 10.249-4.595 10.259-10.259-.01-5.667-4.593-10.25-10.259-10.26-5.665.01-10.25 4.593-10.26 10.26z"/><path d="m164.768 89.664c-1.588 0-2.875-1.287-2.876-2.875v-12.428c.002-.281-.026-.476-.055-.564-.008-.075-.021-.059-.021-.063 0 .002-.006-.008-.069-.028-.083-.027-.261-.057-.527-.055h-12.463c-1.59-.002-2.877-1.289-2.877-2.876v-12.51c0-1.59 1.287-2.876 2.877-2.876h12.478c.45-.004.548-.1.548-.104.008 0 .11-.124.11-.594v-12.441c.002-1.588 1.289-2.875 2.876-2.877l12.51.002c1.588 0 2.877 1.284 2.877 2.875v12.486c.004.497.089.554.091.554 0-.002.033.022.125.049.091.024.244.049.488.049h12.433c1.588 0 2.875 1.287 2.876 2.876v12.511c-.002 1.588-1.289 2.875-2.876 2.876h-12.447c-.479.002-.574.098-.574.102-.004 0-.116.135-.116.656v12.38c0 1.588-1.289 2.875-2.877 2.875zm-16.889-31.399v12.511c0 .482.393.875.877.875h12.463c.769 0 1.527.145 2.077.739.525.604.59 1.301.596 1.973v12.427c0 .482.391.875.875.875h12.51c.485 0 .875-.393.877-.875v-12.38c0-.747.139-1.484.682-2.052.554-.562 1.295-.707 2.007-.707h12.447c.482 0 .875-.393.875-.875v-12.511c0-.482-.393-.877-.875-.877h-12.431c-.686-.002-1.393-.104-1.971-.629-.574-.535-.737-1.285-.733-2.021v-12.488c-.002-.482-.393-.875-.877-.875h-12.51c-.484 0-.875.391-.875.875v12.439c0 .717-.148 1.441-.68 1.993-.542.547-1.272.707-1.979.704h-12.478c-.485 0-.877.396-.877.879z"/><path d="m153.936 55.96c1.841-3.668 4.824-6.661 8.49-8.51l.9 1.787c-3.28 1.654-5.955 4.337-7.604 7.62l.002.002z"/><path d="m153.97 73.146 1.782-.905c1.659 3.274 4.344 5.947 7.629 7.59l-.895 1.788c-3.67-1.835-6.664-4.816-8.516-8.473z"/><path d="m178.743 79.792c3.256-1.649 5.917-4.313 7.562-7.572l1.786.903c-1.839 3.641-4.806 6.61-8.444 8.453z"/><path d="m178.744 49.249.903-1.786c3.653 1.851 6.627 4.835 8.464 8.494l-1.788.897c-1.644-3.273-4.312-5.953-7.579-7.605z"/><path d="m164.862 64.521c.002-3.404 2.758-6.161 6.162-6.163 3.402.002 6.158 2.758 6.161 6.163-.002 3.402-2.758 6.158-6.161 6.16-3.403-.003-6.16-2.759-6.162-6.16zm2.001 0c.004 2.295 1.863 4.155 4.162 4.16 2.297-.004 4.156-1.863 4.16-4.16-.004-2.299-1.862-4.158-4.16-4.162-2.299.003-4.158 1.862-4.162 4.162z"/><path d="m131.122 332.163c-10.888-.308-27.272-7.633-29.486-35.109-.388-8.817-.572-17.086-.572-24.879-.01-60.639 11.272-92.535 26.92-129.803 2.229-5.316 3.191-10.547 3.191-16.011.008-11.805-4.55-24.758-10.714-41.431l.002.002 1.875-.694c6.154 16.684 10.83 29.792 10.838 42.123.002 5.701-1.015 11.224-3.347 16.784-15.614 37.227-26.754 68.625-26.764 129.029 0 7.76.184 15.998.566 24.752 2.292 26.607 17.434 32.793 27.563 33.236.176.006.36.008.554.008 10.131.006 28.966-9.506 31.822-33.282 3.004-24.783 12.75-111.408 15.397-125.048 2.603-13.643 9.672-27.791 27.542-29.329 5.774-.503 9.888-.671 12.817-.673 5.864.019 6.965.625 7.34.836l-1.111 1.664-.013.011c-.122-.042-.379-.115-.824-.19-.893-.156-2.539-.322-5.393-.318-2.852-.002-6.911.164-12.646.662-16.658 1.463-23.099 14.34-25.751 27.719-2.606 13.383-12.377 100.15-15.375 124.906-3.042 24.85-22.646 35.037-33.807 35.041-.205 0-.413 0-.624-.006z"/><path d="m336.321 96.47c0-6.773 5.486-12.259 12.259-12.261 6.771.002 12.259 5.488 12.261 12.261-.002 6.769-5.49 12.257-12.261 12.257-6.771.002-12.259-5.488-12.259-12.257zm12.259 10.259c5.666-.011 10.249-4.593 10.261-10.257-.012-5.666-4.595-10.25-10.261-10.261-5.666.011-10.249 4.595-10.259 10.261.01 5.663 4.593 10.246 10.259 10.257z"/><path d="m365.593 84.459c.002-6.772 5.491-12.259 12.262-12.261 6.771.002 12.26 5.491 12.26 12.261 0 6.77-5.489 12.259-12.26 12.259-6.771 0-12.26-5.487-12.262-12.259zm12.26 10.258c5.666-.008 10.25-4.593 10.26-10.258-.01-5.666-4.594-10.25-10.26-10.26-5.664.011-10.248 4.595-10.26 10.26.011 5.666 4.595 10.25 10.26 10.258z"/><path d="m421.308 89.665c-1.59-.002-2.877-1.289-2.877-2.877v-12.379c0-.52-.107-.656-.114-.656s-.098-.101-.572-.103h-12.45c-1.588 0-2.875-1.287-2.877-2.875v-12.51c.002-1.588 1.289-2.875 2.877-2.877h12.434c.484.002.612-.09.612-.096-.007-.008.088-.059.092-.556v-12.485c0-1.59 1.287-2.877 2.878-2.877h12.511c1.587 0 2.873 1.287 2.873 2.877v12.438c.003.469.104.595.112.595 0 .004.098.101.547.103h12.479c1.589.002 2.875 1.289 2.878 2.877l-.003 12.511c0 1.588-1.286 2.875-2.875 2.877l-12.463-.002c-.403-.002-.559.06-.594.08-.002.003-.021.029-.037.1-.025.101-.047.283-.044.53v12.427c-.003 1.589-1.289 2.875-2.876 2.877h-12.511zm-.876-15.256v12.378c0 .484.392.876.876.876h12.512c.481 0 .874-.392.874-.876l.002-12.427c.005-.67.068-1.366.596-1.972.549-.595 1.31-.74 2.079-.737h12.462c.484 0 .876-.392.876-.876v-12.51c0-.484-.394-.876-.876-.876l-12.479-.002c-.705.004-1.438-.155-1.978-.705-.532-.551-.682-1.276-.68-1.993l-.002-12.438c0-.484-.393-.876-.874-.876l-12.512-.002c-.484.002-.875.394-.878.878v12.483c.005.74-.158 1.488-.732 2.024-.578.522-1.284.625-1.97.629l-12.435-.002c-.48.002-.876.396-.876.878v12.511c0 .482.395.876.876.876h12.45c.709-.002 1.45.145 2.004.706.545.567.684 1.304.685 2.053z"/><path d="m435.262 49.236.9-1.786c3.664 1.851 6.647 4.84 8.489 8.511h.002l-1.789.896c-1.646-3.282-4.324-5.966-7.602-7.621z"/><path d="m435.205 79.831c3.284-1.642 5.969-4.315 7.629-7.589l1.783.904c-1.854 3.66-4.849 6.639-8.518 8.473v.002z"/><path d="m410.494 73.123h.002l1.785-.902c1.645 3.258 4.306 5.922 7.563 7.571l-.903 1.785c-3.639-1.845-6.606-4.815-8.447-8.454z"/><path d="m410.476 55.956c1.836-3.657 4.811-6.642 8.463-8.492l.904 1.785c-3.27 1.653-5.937 4.332-7.58 7.606z"/><path d="m421.4 64.521c.002-3.404 2.76-6.16 6.161-6.162 3.401.002 6.159 2.758 6.161 6.162-.002 3.402-2.76 6.16-6.161 6.16-3.403-.002-6.159-2.76-6.161-6.16zm6.162 4.157c2.299-.004 4.156-1.863 4.16-4.159-.004-2.298-1.861-4.157-4.16-4.161-2.298.004-4.156 1.863-4.16 4.161.003 2.296 1.863 4.155 4.16 4.159z"/><path d="m240.05 135.564-.047-.008-85.933-20.442.23-.974.298-.955-.298.955-.23.974-.039-.011-.027-.009c-21.646-6.732-37.356-26.919-37.359-50.778 0-29.362 23.806-53.166 53.17-53.168 5.151 0 10.135.734 14.789 2.087.785.191 2.231.853 4.596 1.973 2.33 1.111 5.43 2.652 9.068 4.497 7.273 3.692 16.695 8.602 26.357 13.726 19.335 10.258 39.567 21.333 45.583 25.287 11.246 7.595 18.64 20.466 18.642 35.062-.002 23.354-18.932 42.283-42.285 42.283-2.215 0-4.391-.169-6.515-.499zm6.515-1.5c11.127-.002 21.192-4.507 28.485-11.799 7.292-7.293 11.799-17.358 11.799-28.485 0-13.909-7.043-26.164-17.751-33.397-10.212-6.725-64.609-35.664-80.761-43.37-2.271-1.093-3.904-1.781-4.23-1.841-4.534-1.317-9.329-2.021-14.291-2.021-14.135 0-26.919 5.726-36.183 14.985-9.26 9.264-14.985 22.048-14.985 36.181-.002 22.957 15.12 42.383 35.94 48.865l85.794 20.41c2.015.311 4.079.472 6.183.472z"/><path d="m309.737 93.778c0-14.592 7.396-27.467 18.65-35.069 10.476-6.881 64.696-35.716 80.997-43.501 2.365-1.119 3.813-1.781 4.535-1.958 4.713-1.367 9.697-2.101 14.853-2.101 29.362 0 53.166 23.803 53.168 53.169-.002 23.857-15.713 44.046-37.358 50.776l-.025.007-85.985 20.455-.036.006c-2.122.33-4.299.5-6.513.5-23.355.001-42.286-18.928-42.286-42.284zm104.681-78.59c-.264.042-1.897.732-4.171 1.826-2.305 1.102-5.396 2.637-9.023 4.477-7.259 3.682-16.674 8.59-26.325 13.709-19.293 10.233-39.594 21.353-45.398 25.176-10.719 7.243-17.764 19.497-17.762 33.403 0 11.129 4.507 21.193 11.798 28.486 7.293 7.291 17.357 11.797 28.486 11.8 2.096 0 4.153-.162 6.164-.47l85.84-20.42c20.808-6.491 35.916-25.91 35.912-48.856 0-14.134-5.726-26.92-14.984-36.184-9.264-9.259-22.049-14.985-36.181-14.985-4.964-.001-9.759.704-14.356 2.038z"/><path d="m433.034 297.13c-3-24.758-12.771-111.525-15.378-124.908-2.652-13.379-9.091-26.256-25.752-27.717-5.734-.5-9.795-.664-12.647-.664-4.275-.004-5.849.381-6.213.51l-.013-.012-1.112-1.662c.375-.215 1.473-.816 7.338-.838 2.932.002 7.043.17 12.82.672 17.87 1.541 24.941 15.687 27.543 29.33 2.648 13.639 12.393 100.266 15.398 125.049 2.852 23.777 21.687 33.287 31.819 33.283.191 0 .377-.002.554-.008 10.131-.447 25.271-6.631 27.562-33.197.381-8.795.565-17.032.565-24.793-.011-60.404-11.148-91.803-26.762-129.028-2.338-5.56-3.35-11.084-3.35-16.783.011-12.331 4.686-25.44 10.84-42.125h.002l1.875.693c-6.164 16.673-10.727 29.626-10.715 41.431 0 5.465.96 10.691 3.191 16.008 15.648 37.268 26.93 69.166 26.918 129.805-.002 7.791-.188 16.062-.571 24.918-2.21 27.438-18.597 34.764-29.485 35.07-.211.008-.42.01-.624.01-11.16-.007-30.767-10.195-33.803-35.044z"/><path d="m232.868 210.938c-4.077-.002-7.381-3.305-7.381-7.381v-72.059h2l-.002 72.059c.006 2.973 2.41 5.374 5.382 5.38h132.852c2.974-.006 5.374-2.407 5.38-5.38v-72.059h2.002l-.003 72.059c0 4.076-3.303 7.379-7.379 7.381z"/><path d="m250.38 49.554v-1.998h97.957v1.998z"/><path d="m262.267 56.311v-2h73.561v2z"/><path d="m290.888 70.447c-.713 0-1.378-.247-1.844-.619l-10.096-6.928-.058-.056c-.584-.555-.951-1.349-.951-2.217.002-1.693 1.374-3.064 3.065-3.064h36.578c1.691 0 3.063 1.372 3.063 3.064.002.869-.365 1.663-.95 2.219l-.06.054-10.04 6.889c-.52.411-1.186.658-1.896.658v-1-1c.252 0 .475-.084.712-.268l9.953-6.83c.176-.192.281-.44.281-.721 0-.587-.478-1.064-1.063-1.064h-36.578c-.588 0-1.062.477-1.064 1.064 0 .281.106.53.282.72l10.008 6.87c.184.145.404.229.658.229h16.811v1 1z"/><path d="m294.954 66.804c0 .622-.504 1.126-1.126 1.126h-.281c-.622 0-1.126-.504-1.126-1.126v-6.287c0-.622.504-1.126 1.126-1.126h.281c.622 0 1.126.504 1.126 1.126z"/><path d="m300.562 66.804c0 .622-.506 1.126-1.127 1.126h-.28c-.622 0-1.128-.504-1.128-1.126v-6.287c0-.622.506-1.126 1.128-1.126h.28c.621 0 1.127.504 1.127 1.126z"/><path d="m306.166 66.804c0 .622-.504 1.126-1.126 1.126h-.281c-.621 0-1.126-.504-1.126-1.126v-6.287c0-.622.505-1.126 1.126-1.126h.281c.622 0 1.126.504 1.126 1.126z"/><path d="m240.874 178.663c-5.735 0-10.383-4.65-10.383-10.384v-14.011h2v14.011c.008 4.63 3.752 8.373 8.384 8.382h115.845c4.627-.01 8.373-3.754 8.383-8.382v-14.011h.002 1.996l.002 14.011c-.002 5.735-4.648 10.384-10.383 10.384z"/><path d="m148.631 64.521c0-3.027.602-5.918 1.692-8.554l1.847.762c-.991 2.399-1.54 5.029-1.54 7.792 0 2.759.546 5.384 1.538 7.781l-1.849.764c-1.088-2.633-1.688-5.523-1.688-8.545z"/><path d="m162.591 85.271.753-1.854c2.371.963 4.96 1.494 7.681 1.494 2.739 0 5.349-.538 7.734-1.517l.759 1.85c-2.619 1.075-5.491 1.667-8.493 1.667-2.982.001-5.831-.583-8.434-1.64z"/><path d="m189.888 72.279c.985-2.392 1.528-5.01 1.53-7.761-.002-2.72-.532-5.313-1.5-7.684h.002l1.851-.754c1.061 2.604 1.646 5.455 1.646 8.438 0 3.015-.597 5.896-1.68 8.525z"/><path d="m162.446 43.828c2.644-1.097 5.542-1.701 8.579-1.701 3.018 0 5.903.598 8.536 1.685l-.765 1.849c-2.396-.987-5.019-1.534-7.771-1.534-2.771 0-5.406.551-7.81 1.55z"/><path d="m405.168 64.521c0-3.027.603-5.918 1.694-8.555l1.85.765c-.995 2.399-1.543 5.028-1.543 7.79 0 2.758.548 5.384 1.538 7.781h.002l-1.851.765c-1.087-2.635-1.69-5.525-1.69-8.546z"/><path d="m419.13 85.271.753-1.853c2.37.964 4.961 1.495 7.681 1.495 2.739 0 5.351-.54 7.733-1.518v.002l.759 1.849c-2.619 1.075-5.49 1.667-8.492 1.667-2.982-.001-5.833-.584-8.434-1.642z"/><path d="m446.426 72.28c.985-2.391 1.529-5.011 1.529-7.762 0-2.721-.532-5.313-1.497-7.684l1.852-.754c1.063 2.606 1.646 5.458 1.646 8.438.002 3.015-.599 5.897-1.678 8.524z"/><path d="m418.985 43.829c2.641-1.096 5.542-1.702 8.576-1.702 3.021 0 5.903.6 8.537 1.686l-.766 1.849c-2.395-.989-5.018-1.533-7.771-1.533-2.77 0-5.404.55-7.81 1.547z"/></g></svg>