<svg height="204.081633" viewBox="0 0 400 204.08163265" width="400" xmlns="http://www.w3.org/2000/svg"><g fill="#c83737" fill-rule="evenodd" transform="matrix(.88412566 0 0 .84665516 29.31579 13.864839)"><path d="m207.40234 4.6679688c.57141-.083849-.42469-.4492539 0 0zm36.625 13.0175782c-.20317.58932.56323-.120845 0 0zm.78711.423828c-.0435.668589.63588-.276667 0 0zm-24.51757 11.644531c.0961.607026.52964-.343049 0 0zm-.70508.447266c-.15952.517756.32137-.09607 0 0zm-25.18164 3.824219c-.0696.600418.5819-.224194 0 0zm67.19922 1.320312c.001.170107.12036-.142206 0 0zm-242.160161 7.261719c.676263.114154.05206-.532217 0 0zm188.193361 18.361328c.38365.68282.4499-.426596 0 0zm53.91406 6.466797c.0834.261223.24509-.109881 0 0zm70.62305 4.378906c.76283.04368-.0215.08003 0 0zm-.82031.574219c.8123.269775-.1267-.624358 0 0zm-.84766.273437c.12131.461762.51192-.203339 0 0zm-.80078.25586c-.17683.505062.63081.330942 0 0zm-.76367.542969c.04.453028.50318-.10918 0 0zm-.82227.328124c-.22912.606758.62566-.05868 0 0zm19.31445 5.976563c-.31981.512488.65741.173397 0 0zm-32.33203.701172c.14558.226983.0514-.224888 0 0zm-.88867.246094c-.24564.487761.68706.251436 0 0zm-.84766.419921c-.11558.514514.56412.0019 0 0zm-.83593.482422c.0928.520785.5836-.118769 0 0zm-.77344.453125c.2449.539966.44539-.348841 0 0zm-.76367.310547c-.25434.555271.58703-.04294 0 0zm-.86328.429688c-.14973.480932.62744-.162024 0 0zm-.79883.394531c-.17525.559853.55506-.156498 0 0zm-.85742.414063c-.0562.734042.57458-.0702 0 0zm-62.88672.484374c.27117.565773.43838-.479017 0 0zm-.76563.333985c-.0734.587453.52927-.199466 0 0zm-229.929686 5.722656c-.07259.396992.321742-.07127 0 0zm.328125.808594c-.04821.563882.549445-.238885 0 0zm305.363281 2.517578c.16351-.0701-.19788-.09702 0 0zm-.85156.117187c-.17519.537533.58362-.07432 0 0zm-284.367189.03906c-.08298.697827.641271-.22634 0 0zm283.531249.384766c-.0695.600418.5819-.224194 0 0zm-282.605468.07617c-.08035.250165.191873-.110338 0 0zm251.439458.119141c-.0703.469019.52894.01341 0 0zm-.90821.574219c.40658.27315.42198-.556564 0 0zm30.42383.210941c.14042.291937.12275-.238665 0 0zm-314.0722656 1.523438c.041229.24505.2261904-.07701 0 0zm202.5371056.736328c-.30066.633497.69053.04251 0 0zm41.76758.960937c-.0316.411547.25611-.17255 0 0zm-10.88672 2.541018c.10197.39857.39074-.2365 0 0zm1.00586 1.25c.17869.0216-.14714-.17497 0 0zm34.13672.39844c.0873.62092.57816-.33234 0 0zm-.87305.51367c-.006.13071.13656-.11113 0 0zm30.50391.0723c-.13393.51277.53625-.17906 0 0zm-.80859.38477c-.15371.64899.62795-.16766 0 0zm-40.58399 5.12109c-.4958.43487.53803.22327 0 0zm27.89649 1.45703c.0183.67682.55088-.32239 0 0zm-.76172.38086c-.26581.59799.55279-.11755 0 0zm-11.0586 5.79102c.0977.52676.52088-.3097 0 0zm-.81835.33984c-.0734.58746.52926-.19946 0 0zm108.65039 1.98242c.38309.5477.43009-.5145 0 0zm-150.51563 4.07618c.32611.4796.39361-.63674 0 0zm21.51367 4.74218c.40616.46847.31952-.39763 0 0zm116.48828 4.08594c-.15157.6425.59818-.17218 0 0zm-.8457.44922c.33792.61495.30477-.41368 0 0zm-132.00195 3.85352c-.0537.70884.61733-.22204 0 0zm-.85742.43554c-.0805.55751.64752-.2655 0 0zm-13.06055 6.91211c.0548.61247.57233-.29848 0 0zm-26.41602 4.78906c-.0446.65223.54087-.24936 0 0zm12.42578 27.49415c-.063.18632.15014-.0834 0 0zm-57.61718 10.34374c-.18416.53841.58837-.10657 0 0zm-4.52344 4.56446c.0297.57488.52911-.25226 0 0zm5.76172 12.5c.13725.8805.48136-.39258 0 0z" fill="#800000"/><path d="m226.18555 5.5605469c-17.2111.6890484-32.81901 12.3761051-40.16743 27.6934791-2.48106 4.976578-3.49082 10.536718-3.51592 16.066427-.32098 8.326201.93651 16.974394 5.52423 24.099729 7.92344 13.233957 22.20356 23.102848 37.82692 23.820592 18.62434.66813 36.4774-11.506629 43.90806-28.421785 3.44348-7.744201 5.29838-16.600131 3.24999-24.999526-2.6284-11.639354-9.40353-22.445141-19.1657-29.403447-8.00534-5.7259754-17.80806-9.0270971-27.66015-8.8554691zm1.2539 3.1386719c15.90783-.131977 31.90216 9.0311232 38.77344 23.5605472 5.28278 11.969333 5.08838 26.096283.11549 38.126974-6.33734 13.796998-21.00045 22.882883-36.03204 23.523653-14.10393.900866-28.86228-5.21709-37.093-16.924141-11.15758-15.377117-10.6956-38.226384 1.45806-52.922499 7.12384-8.930709 18.13774-14.5296807 29.53215-15.1693149 1.07973-.096526 2.16308-.1480753 3.2459-.1952193zm-187.486325 33.7148432c-15.55486-.075187-30.3617504 11.572411-33.7174206 26.827278-2.3032448 9.885903-.9199438 20.718374 4.3091526 29.448179 4.699218 7.272331 12.001263 12.207051 18.793697 17.345791 11.695683 8.73163 23.176594 17.74944 34.828637 26.54329 24.130578 18.37103 48.356019 36.64661 72.883589 54.48585 5.99412 2.58133 13.49686 2.1852 18.91211-1.51172 5.72426-4.69134 8.08577-13.54346 4.2415-20.11574-2.64162-4.95567-6.38467-9.19918-9.45117-13.88207-15.59216-21.44123-31.86743-42.38779-47.783-63.594938-11.953909-15.708902-23.869878-31.478881-36.67731-46.512105-6.998266-6.610337-16.909119-9.246868-26.339785-9.033815zm2.394531 2.105469c11.586937.163731 22.421083 7.137741 28.442244 16.865565 28.316626 36.823659 56.58855 73.693744 83.79637 111.346494 1.5572 2.35943 3.51705 4.58717 4.40982 7.29771 1.96505 8.22921-5.58155 17.09098-14.03613 16.38468-4.10929-.18165-7.64425-2.57494-10.70202-5.11775-14.25989-10.38949-28.19522-21.22114-42.322566-31.79064-25.936672-19.65046-51.922436-39.25004-77.134593-59.827856-7.7760554-8.626954-9.2728442-21.703218-5.280772-32.380826 4.474245-11.455221 15.207493-20.273194 27.320484-22.399929 1.819612-.286927 3.665899-.390901 5.507163-.377448zm.125 22.292969c-7.120192.626345-12.6844 8.743635-9.992631 15.540372 2.065236 6.181741 9.894882 9.937747 15.852006 7.078769 5.904902-2.618144 9.050309-10.873479 5.300564-16.473416-2.365786-3.775314-6.661502-6.333595-11.159939-6.145725zm312.673824 2.732422c-9.77342.71916-18.06751 6.544666-26.7871 10.505859-40.0782 20.243679-80.2409 40.349969-119.46094 62.222659-7.31101 5.72827-8.33933 18.04264-1.44192 24.52517 5.00377 4.92673 12.73546 6.30911 19.31467 4.1271 46.70057-9.39741 93.58707-18.03504 139.94173-29.02161 6.80636-1.59199 13.37843-4.87291 17.79337-10.42157 7.28821-8.33812 11.51498-19.72366 9.90573-30.85535-1.4939-11.120752-9.0999-20.848511-18.88465-26.094057-6.22044-3.369894-13.30889-5.14549-20.38089-4.988201zm4.25782 2.748047c12.012.101824 23.65855 7.573921 28.55947 18.578496 5.76594 11.340655 5.2727 26.111625-2.67792 36.311605-5.89041 7.64204-15.29328 11.84482-24.71216 12.94939-46.87325 10.05352-93.81504 19.81161-140.92135 28.70348-7.5564.60652-14.273-6.44928-14.21093-13.84766-.18321-4.78593 2.68181-9.61184 7.17358-11.42757 7.79253-4.13188 15.59812-8.24358 23.38735-12.38592 36.971-19.45393 73.98515-38.854842 111.59829-57.038444 3.76982-1.366277 7.80445-1.889327 11.80367-1.843377zm-2.61328 22.207031c-7.36243.819512-12.83896 9.63714-9.55319 16.48056 2.63969 6.29893 11.45345 9.20062 17.10331 5.11722 5.12699-3.16246 7.19276-10.74587 3.60808-15.79114-2.32282-3.700509-6.75999-6.041521-11.1582-5.80664z" fill="#fff"/></g></svg>