<svg height="720pt" preserveAspectRatio="xMidYMid meet" viewBox="0 0 1280 720" width="1280pt" xmlns="http://www.w3.org/2000/svg"><g fill="#f4f4f4" transform="matrix(.1 0 0 -.1 0 720)"><path d="m2990 6214c-566-25-844-122-1092-382-249-261-387-636-439-1192-15-161-21-1709-8-1955 34-630 175-1048 448-1329 244-251 487-334 1045-356 323-13 6857-13 7051 0 353 24 561 77 758 193 92 54 287 246 352 347 170 262 266 593 305 1050 14 163 21 1606 9 1888-28 636-167 1071-434 1361-211 227-465 330-895 360-123 9-6914 23-7100 15zm-551-739c214-57 361-247 361-468 0-29-8-83-19-119-38-138-127-243-261-307-66-31-86-36-171-39-149-6-248 29-351 126-168 157-199 417-71 609 110 167 322 249 512 198zm8214 0c241-63 393-290 355-533-27-177-158-330-329-383-72-23-191-25-265-5-246 65-402 328-339 569 57 219 238 363 460 366 34 1 87-6 118-14zm-1405-1878 2-1637-2812 2-2813 3-3 1625c-1 894 0 1631 3 1638 3 10 571 12 2812 10l2808-3zm999 792c107-52 126-205 34-282-66-55-155-56-221-1-42 36-60 75-60 131 0 66 33 120 89 150 55 29 102 29 158 2zm-7377-229 5-165 165-5 165-5 3-119c2-89-1-121-10-128-7-4-84-8-170-8h-158v-164c0-140-2-165-16-170-30-11-219-7-232 6-8 8-12 60-12 170v158h-159c-123 0-161 3-170 14-8 9-11 52-9 127l3 114 165 5 165 5 3 155c1 85 4 161 7 168 3 9 35 12 127 10l123-3zm6987-186c60-45 88-113 73-181-18-78-75-125-157-130-47-3-66 1-97 19-47 27-86 95-86 148s39 121 86 148c49 29 139 27 181-4zm805 4c112-63 115-228 4-293-49-29-121-33-165-10-70 36-112 128-92 197 33 110 155 161 253 106zm-412-403c163-83 86-343-96-322-92 10-154 79-154 172 0 128 134 209 250 150zm-449-630c40-21 69-71 69-120 0-108-121-173-211-112-41 28-59 60-59 110 0 104 108 170 201 122zm0-517c79-44 93-153 26-215-48-43-94-51-149-24-53 25-78 65-78 123 0 54 27 99 71 121 46 22 84 21 130-5z"/><path d="m2244 5400c-71-14-137-52-200-115-83-82-108-146-109-275 0-86 3-101 31-160 120-253 456-308 643-105 83 90 122 214 103 325-41 228-247 374-468 330zm148-31c244-52 364-310 247-530-37-69-89-118-169-157-47-23-67-27-145-27-77 0-98 4-147 27-79 37-142 98-181 177-29 59-32 74-32 156 0 76 4 99 26 145 48 103 133 176 239 204 68 18 95 19 162 5z"/><path d="m10462 5399c-204-40-349-248-312-446 70-384 577-455 743-105 29 61 32 75 32 167 0 88-3 107-27 158-54 114-168 204-289 227-59 11-87 11-147-1zm198-44c62-21 139-81 178-139 125-186 53-437-153-533-52-24-72-28-150-28-78 1-98 5-149 30-222 107-279 392-115 570 103 111 248 149 389 100z"/><path d="m3732 3598 3-1533 2685-3c1477-1 2695 0 2708 3l22 5-2 1528-3 1527-2708 3-2707 2zm5366 7c2-1383 1-1481-15-1493-22-16-5263-18-5294-2-19 11-19 38-19 1480 0 807 3 1475 6 1484 6 15 247 16 2663 14l2656-3z"/><path d="m2710 4125v-56l33 3c31 3 32 4 32 53s-1 50-32 53l-33 3z"/><path d="m2430 3865v-35h50 50v35 35h-50-50z"/><path d="m2957 3894c-4-4-7-20-7-36 0-27 1-28 56-28h55l-3 33c-3 30-5 32-48 35-25 2-49 0-53-4z"/><path d="m2710 3600v-50h35 35v50 50h-35-35z"/></g></svg>