<svg height="350.26" viewBox="0 0 598.189 350.26" width="598.189" xmlns="http://www.w3.org/2000/svg"><g fill="#f4f4f4"><path d="m32.841 289.71c-4.099-16.084-16.586-50.963-16.58-110.748l.002-10.332c-.011-65.41 17.306-106.833 22.832-123.292 5.539-16.884 21.091-29.221 39.659-30.004 18.504-.295 98.828-2.039 184.507-2.039h79.334c11.516 0 22.771-.004 33.686-.002 74.392.002 132.889.145 151.438 2.58 16.291 2.678 29.537 14.357 34.472 29.765.702 2.2 1.237 4.479 1.587 6.807.744 4.688 2.092 18.341 3.701 36.737 4.657 53.359 11.444 146.229 11.448 172.113-.002 15.287-8.725 28.541-21.403 35.014-12.142 7.273-65.34 29.635-128.932 29.654-42.695-.004-86.715-1.664-115.826-6.348-.004 0-.009 0-.013-.002-.643-.01-1.306-.015-1.983-.015-33.201-.005-109.069 10.721-133.124 12.028-24.687 1.334-57.696 2.334-85.386 2.336-28.057 0-51.763-18.635-59.419-44.252zm45.973-272.377c-17.691.744-32.534 12.524-37.82 28.635-5.566 16.578-22.725 57.571-22.733 122.663v10.332c.008 59.549 12.377 94.006 16.506 110.215 7.399 24.746 30.34 42.787 57.495 42.787 27.643 0 60.634-1 85.278-2.33 21.894-1.184 87.544-10.316 124.1-11.823-23.591-3.823-58.608-9.257-82.385-9.254-8.482-.007-15.537.704-19.98 2.348l-.692-1.88c4.889-1.786 12.074-2.462 20.673-2.468 28.139.004 71.391 7.476 93.669 11.063.233.004.464.008.691.012h.002l-.002.099c28.896 4.584 72.604 6.235 114.979 6.233 63.076.021 116.206-22.328 127.961-29.399 12.097-6.181 20.374-18.755 20.372-33.267.005-25.68-6.784-118.641-11.44-171.94-1.603-18.366-2.96-32.071-3.686-36.607-.333-2.23-.843-4.4-1.515-6.5-4.704-14.697-17.354-25.851-32.856-28.395-18.171-2.4-76.806-2.563-151.147-2.561-10.914 0-22.168.004-33.686.004h-79.334c-85.659-.005-165.96 1.738-184.45 2.033z"/><path d="m164.008 285.376c-1.671-4.94-19.072-63.811-19.08-129.412-.013-68.136 17.991-113.225 19.69-119.297 1.381-6.297 6.621-11.137 13.178-11.93 6.572-.397 32.784-1.106 90.049-1.106 120.614.009 194.821 14.465 197.77 15.274l.04.011.035.013c2.936 1.07 5.252 3.404 6.301 6.349.621 1.383 2.167 6.683 4.307 14.833 2.161 8.263 4.856 19.303 7.493 31.443 5.269 24.284 10.3 52.919 10.304 72.577-.008 26.371-4.346 86.813-6.383 96.746-.135.596-.204.976-.393 1.367-.889 4.113-3.713 7.922-7.919 9.002-1.366.409-7.601 1.575-17.063 3.201-9.6 1.643-22.379 3.709-36.089 5.736-27.429 4.051-58.545 7.941-75.527 7.945-2.853 0-5.172-2.271-5.248-5.104l-.269-.991c-1.482-4.861-6.007-8.404-11.359-8.402h-22.249c-4.231 0-7.938 2.209-10.046 5.541-.428.881-.664 2.063-1.527 3.154l-.028.035-.029.031c-1.041 1.07-2.506 1.736-4.119 1.736-1.453 0-2.79-.543-3.801-1.437l-.073-.063-2.639-3.354-.025-.042c-2.098-3.365-5.828-5.604-10.085-5.604h-72.624c-6.56.013-11.864 5.316-11.877 11.875v2.418c0 3.521-2.853 6.373-6.375 6.373l-11.749.002c-5.817 0-10.764-3.719-12.591-8.92zm13.969-258.648c-5.643.679-10.209 4.899-11.42 10.422-1.787 6.373-19.616 50.949-19.629 118.814-.008 65.229 17.371 124.056 18.973 128.759 1.55 4.411 5.752 7.577 10.695 7.575h11.749c2.416-.004 4.371-1.957 4.375-4.375v-2.418c0-7.662 6.21-13.875 13.876-13.875h72.624c4.953 0 9.307 2.601 11.759 6.504l2.453 3.117c.655.549 1.492.879 2.413.879 1.042 0 1.974-.42 2.657-1.104.482-.591.735-1.619 1.277-2.787l.024-.055.03-.044c2.449-3.908 6.806-6.511 11.763-6.511h22.249c6.252 0 11.54 4.133 13.281 9.85l.343 1.264v.137c.004 1.797 1.454 3.246 3.252 3.25 25.105.006 82.541-8.732 111.278-13.654 9.543-1.63 16.081-2.883 16.843-3.148l.044-.018.027-.005c3.282-.808 5.744-4.009 6.472-7.593l.038-.187.103-.155h-.003c.013-.035.034-.1.061-.182.049-.166.107-.41.171-.717.126-.612.27-1.473.42-2.533.301-2.126.641-5.068.994-8.613.715-7.093 1.499-16.598 2.229-26.894 1.461-20.591 2.698-44.354 2.698-58.302.01-29.031-11.268-78.819-17.731-103.515-2.136-8.193-3.816-13.786-4.203-14.535l-.024-.05-.02-.057c-.837-2.382-2.714-4.282-5.077-5.154-3.22-.843-77.393-15.198-197.193-15.19-57.239.001-83.474.712-89.871 1.1z"/><path d="m185.261 246.298c-2.525-.002-4.742-1.34-5.969-3.344l-.029-.049-.023-.048c-.365-.799-1.185-3.481-2.34-8.013-1.141-4.5-2.555-10.713-3.932-18.188-2.756-14.951-5.374-34.947-5.374-56.363v-12.998c.002-32.125 5.885-61.059 9.306-74.553 1.156-4.53 1.976-7.212 2.34-8.011l.023-.051.029-.046c1.227-2.003 3.443-3.341 5.969-3.341h270.333c2.523 0 4.74 1.338 5.97 3.341l.026.048.023.048c.364.799 1.187 3.481 2.34 8.011 1.142 4.501 2.555 10.713 3.935 18.189 2.756 14.949 5.371 34.949 5.371 56.363v13h.002c-.002 32.121-5.887 61.055-9.308 74.549-1.153 4.531-1.976 7.214-2.34 8.013l-.023.048-.026.049c-1.229 2.004-3.445 3.342-5.97 3.344h-270.333zm0-2.002h270.333c1.786 0 3.347-.933 4.234-2.34.233-.535 1.11-3.33 2.188-7.603 1.132-4.455 2.536-10.629 3.905-18.058 2.739-14.859 5.34-34.75 5.338-56h.002l-.002-13c.002-31.879-5.852-60.689-9.243-74.061-1.077-4.271-1.954-7.067-2.188-7.602-.89-1.408-2.448-2.339-4.234-2.339h-270.333c-1.786 0-3.348.932-4.236 2.339-.233.535-1.111 3.331-2.188 7.602-1.13 4.455-2.534 10.629-3.903 18.058-2.741 14.861-5.339 34.749-5.339 56.002v13c-.002 31.877 5.851 60.688 9.243 74.058 1.077 4.271 1.955 7.065 2.188 7.603.888 1.409 2.45 2.341 4.235 2.341z"/><path d="m186.594 236.96c-1.104 0-1.999-.894-2.001-1.996l.002-162.334c0-1.105.894-1.999 1.999-2.001h269c1.105 0 1.999.896 2.001 2.001v162.334h-.002c0 1.104-.894 1.996-1.999 1.996zm0-1.996h269v-162.335h-269z"/><path d="m75.675 296.001c-15.797-1.281-28.914-12.028-33.665-26.556-5.025-14.678-12.411-51.385-12.417-107.481.015-49.541 14.26-98.24 19.365-110.23 5.08-12.43 16.423-21.63 30.11-23.675 13.653-2.089 75.965-11.428 173.525-11.428 123.073 0 216.363 14.994 233.998 17.501l-.141.99.161-.986c18.424 2.997 32.479 18.979 32.479 38.247-.005 19.166 1.859 41.099 3.03 46.796 1.146 5.479 4.094 10.3 8.226 13.835 8.683 8.016 18.976 17.685 24.489 23.573 5.653 5.906 9.365 13.601 10.478 22.117 1.405 10.774 2.65 37.231 2.779 46.678-.002 16.943-10.874 31.347-26.044 36.617-14.984 4.957-96.754 25.611-182.875 32.629-9.318.762-13.107 1.986-15.484 3.049-2.336 1.047-3.718 2.203-7.528 2.451-3.141.213-49.291 1-148.067 1.002-43.305-.002-97.01-4.254-112.419-5.129zm3.693-265.966c-12.977 1.937-23.743 10.668-28.564 22.47-4.976 11.627-19.223 60.333-19.208 109.458-.006 55.902 7.39 92.502 12.313 106.849 4.507 13.784 16.952 23.985 31.905 25.194 15.433.877 69.087 5.123 112.282 5.123 98.722.002 145.002-.793 147.93-.996 3.438-.252 4.186-1.082 6.85-2.28 2.623-1.181 6.711-2.454 16.139-3.22 85.879-6.984 167.685-27.651 182.396-32.528 14.367-4.993 24.687-18.653 24.687-34.711-.122-9.319-1.379-35.86-2.764-46.433-1.059-8.101-4.581-15.397-9.945-21-5.433-5.803-15.728-15.479-24.364-23.453-4.43-3.791-7.616-8.998-8.857-14.926-1.229-6.045-3.064-27.869-3.068-47.202.002-18.273-13.34-33.432-30.805-36.272-17.698-2.518-110.815-17.48-233.697-17.48-97.443 0-159.628 9.328-173.23 11.407z"/><path d="m559.428 61.255v-2.002h4.375v2.002z"/><path d="m554.095 55.878v-1.999h9.125v1.999z"/><path d="m562.387 69.17v-1.999h2.166v1.999z"/><path d="m560.761 63.796v-2.001h3.292v2.001z"/><path d="m561.47 77.087v-1.999h3.833v1.999z"/><path d="m562.469 71.713v-2.001h2.459v2.001z"/><path d="m556.301 85.003v-2h9.71v2z"/><path d="m560.428 79.628v-1.999h5.208v1.999z"/><path d="m524.22 70.255c0-10.709 8.767-19.356 19.563-19.375 10.796.02 19.56 8.666 19.562 19.375-.002 10.708-8.766 19.354-19.562 19.374-10.798-.02-19.563-8.667-19.563-19.374zm1.999 0c.019 9.586 7.854 17.375 17.563 17.375 9.707 0 17.544-7.788 17.563-17.375-.019-9.59-7.854-17.376-17.563-17.376-9.709-.001-17.546 7.787-17.563 17.376z"/><path d="m564.334 88.346c-.813-.392-2.118-.587-3.662-.583-4.612-.011-11.118 1.611-15.035 1.781l-.083-1.998c3.542-.129 10.133-1.775 15.118-1.784 1.696.004 3.238.18 4.517.774 1.277.568 2.278 1.765 2.403 3.33l-1.993.191c-.113-.89-.453-1.292-1.265-1.711zm-18.7 1.199h.003z"/><path d="m562.292 54.315c-.907-.046-1.552-.475-2.568-1.094-.771-.521-3.118-1.157-7.074-1.141-3.514 0-8.32.454-14.608 1.696l-.389-1.96c6.388-1.264 11.313-1.734 14.997-1.734 4.17.015 6.705.558 8.15 1.455.354.229.667.411.916.54-.005-.025-.01-.05-.015-.076l1.956-.409c.076.377.127.708.127 1.043-.002.341-.04.716-.313 1.104-.262.383-.764.578-1.129.578-.017-.001-.032-.001-.05-.002zm-24.254-.538h.002z"/><path d="m542.427 237.452-.051-.039-13.964-14.431c-1.11-.929-1.818-2.333-1.818-3.896 0-1.401.569-2.678 1.478-3.584l14.117-14.582.047-.041c1.801-1.533 4.143-2.459 6.691-2.459 4.255.002 7.91 2.57 9.482 6.22 1.663 3.649 1.795 9.024 1.81 15.552.013 8.198-.683 11.197-2.373 14.449-1.791 3.057-5.118 5.111-8.919 5.111-2.459.001-4.729-.861-6.5-2.3zm6.5.301c3.068 0 5.744-1.655 7.166-4.078 1.488-2.908 2.113-5.309 2.126-13.482.016-6.475-.227-11.744-1.636-14.734-1.278-2.965-4.227-5.039-7.656-5.037-2.046 0-3.91.734-5.361 1.955l-14.067 14.529c-.56.563-.903 1.327-.903 2.184 0 .967.44 1.82 1.137 2.391l-.632.775-.719.695.719-.695.632-.775.047.036 13.959 14.424c1.423 1.134 3.22 1.812 5.188 1.812z"/><path d="m91.567 222.712c-1.401-.012-2.673-.596-3.567-1.512l-14.456-14.271-.029-.035c-1.494-1.792-2.396-4.104-2.394-6.615 0-.021-.002-.066 0-.102.043-4.252 2.648-7.883 6.313-9.42 3.226-1.438 7.77-1.658 13.264-1.672.75 0 1.519.006 2.305.018 8.199.066 11.19.793 14.425 2.514 3.013 1.805 5.024 5.105 5.024 8.867v.104c-.025 2.459-.909 4.719-2.368 6.478l-.033.041-14.561 13.814c-.921 1.088-2.3 1.781-3.829 1.791l-.017.002h-.077zm-2.151-2.92c.544.551 1.281.896 2.112.922.048-.004.073-.004.083-.004.006.002.011.002.011.002.954 0 1.798-.43 2.367-1.109l.037-.046 14.551-13.808c1.157-1.414 1.856-3.209 1.877-5.144-.002-.06-.002-.104-.002-.122 0-3.035-1.621-5.691-4.004-7.124-2.895-1.515-5.289-2.165-13.468-2.258-.778-.011-1.54-.015-2.281-.015-5.421-.012-9.822.291-12.465 1.504-2.976 1.252-5.078 4.176-5.113 7.647v.039c.002 2.021.716 3.863 1.911 5.308z"/><path d="m77.459 276.929c-3.689-1.545-6.295-5.176-6.337-9.398-.002-.068-.002-.117-.002-.136 0-2.509.9-4.823 2.396-6.612l.023-.027 14.45-14.268c.894-.914 2.142-1.494 3.519-1.521.058-.006.084-.004.096-.004h.013c1.542 0 2.936.692 3.867 1.787l14.57 13.824.034.04c1.458 1.759 2.343 4.019 2.366 6.522v.057c0 3.758-2.012 7.063-5.073 8.896-3.187 1.695-6.179 2.42-14.38 2.486-.779.004-1.542.012-2.29.014-5.502-.014-10.047-.233-13.252-1.66zm-4.339-9.534c0 .039 0 .052.002.083.031 3.434 2.135 6.357 5.135 7.619 2.621 1.199 7.024 1.502 12.452 1.49.737 0 1.496-.006 2.272-.01 8.177-.095 10.571-.744 13.417-2.232 2.433-1.461 4.054-4.119 4.054-7.152 0-.021 0-.061 0-.081-.021-1.968-.716-3.761-1.868-5.175l-14.515-13.773.687-.725.769-.641-.769.641-.687.725-.048-.045-.033-.041c-.571-.685-1.418-1.115-2.373-1.115h-.021-.008c-.854.012-1.615.361-2.183.938l-14.374 14.192c-1.193 1.441-1.909 3.287-1.909 5.302z"/><path d="m125.04 254.503c-2.459-.021-4.719-.908-6.479-2.364l-.046-.04-13.811-14.557c-1.098-.932-1.795-2.326-1.793-3.873.001-.002-.004-.015 0-.09.024-1.386.604-2.642 1.512-3.531l14.26-14.443.048-.038c1.788-1.495 4.098-2.396 6.607-2.396.009 0 .052-.002.124.002 4.247.051 7.869 2.654 9.404 6.313 1.438 3.231 1.658 7.783 1.668 13.288 0 .741-.004 1.5-.01 2.277-.069 8.199-.794 11.193-2.516 14.428-1.807 3.01-5.108 5.021-8.87 5.021-.025-.002-.025 0-.025 0l-.038.002h-.035zm-.011-2c.036-.002.063-.002.082-.002h.029c3.037.002 5.693-1.619 7.127-4.002 1.514-2.896 2.167-5.289 2.258-13.465.006-.775.012-1.527.012-2.261.011-5.435-.291-9.842-1.504-12.487-1.25-2.978-4.175-5.082-7.606-5.113l-.052-.002-.035-.004v.002.002c-2.01 0-3.848.711-5.288 1.898l-14.215 14.396c-.565.557-.916 1.315-.924 2.172l-.002.058c.008.94.438 1.78 1.115 2.345l-.64.77-.725.688.725-.688.64-.77.042.035 13.808 14.553c1.408 1.151 3.192 1.848 5.153 1.875z"/><path d="m58.492 254.503-.027-.002c-.002.002 0 0-.033.002-3.76-.002-7.061-2.015-8.895-5.071-1.695-3.187-2.42-6.181-2.488-14.378-.008-.781-.013-1.545-.013-2.285.011-5.503.231-10.053 1.66-13.258 1.541-3.678 5.155-6.278 9.393-6.338.087-.006.132-.002.144-.002 2.509-.002 4.821.899 6.612 2.396l.033.028 14.26 14.443c.926.907 1.51 2.18 1.522 3.582l.002.067-.002.019c-.01 1.525-.699 2.905-1.783 3.828l-13.817 14.561-.05.044c-1.757 1.456-4.018 2.343-6.477 2.364zm-.295-39.332-.052.002c-3.432.031-6.356 2.137-7.615 5.138-1.203 2.62-1.506 7.03-1.494 12.458 0 .734.002 1.488.013 2.264.091 8.178.741 10.571 2.231 13.418 1.46 2.432 4.117 4.055 7.152 4.055.007 0 .044-.004.107 0 1.961-.026 3.749-.725 5.158-1.877l13.766-14.506.042-.047.044-.035c.683-.568 1.111-1.414 1.111-2.367.001 0-.001-.014.001-.067-.017-.843-.366-1.59-.934-2.149l-14.213-14.395c-1.44-1.184-3.276-1.891-5.281-1.893-.005 0-.01 0-.014 0z"/><path d="m503.327 261.187c-3.131-1.654-5.329-4.891-5.494-8.68-.006-.152-.011-.307-.011-.463-.002-2.287.748-4.42 2.026-6.14l.043-.058 13.8-14.565c.879-1.153 2.255-1.924 3.813-1.991.06-.004.135-.008.229-.008 1.313 0 2.524.506 3.42 1.327l15.188 13.478.036.039c1.608 1.73 2.639 4.03 2.748 6.58.006.153.008.307.011.451-.003 4.063-2.366 7.62-5.813 9.288-3.574 1.822-8.939 2.188-15.458 2.485-1.632.07-3.053.105-4.307.105-.043 0-.084 0-.127 0-4.982.001-7.474-.62-10.104-1.848zm-3.507-9.143c0 .117.004.238.01.369.134 3.064 1.903 5.666 4.383 6.981 2.4 1.097 4.388 1.63 9.347 1.642 1.219 0 2.61-.031 4.22-.105 6.469-.266 11.724-.734 14.647-2.273 2.799-1.355 4.71-4.229 4.708-7.5 0-.127-.002-.248-.007-.367-.088-2.043-.905-3.877-2.188-5.274l-15.127-13.423c-.556-.506-1.281-.809-2.08-.812-.027 0-.07.003-.137.007-.968.043-1.801.519-2.34 1.238l-.036.049-13.802 14.568c-1.007 1.379-1.596 3.074-1.598 4.9z"/><path d="m62.19 262.208 20.165-26.272.044-.045c.27-.235.582-1.077.567-1.986.004-.836-.229-1.707-.565-2.175l-20.379-26.08 1.397-1.407 26.192 20.104c.752.494 1.51.72 2.243.72.707 0 1.404-.204 2.081-.64l26.042-20.354 1.408 1.396-20.163 26.269c-.389.438-.709 1.283-.703 2.154 0 .729.204 1.462.653 2.058l20.379 26.078-1.396 1.41-26.2-20.111c-.38-.299-1.373-.549-2.31-.533-.925-.026-1.84.271-1.969.433l-26.079 20.379zm6.376-5.024 19.845-15.505c.877-.701 2.011-.861 3.236-.889 1.218.014 2.485.219 3.504.933l19.982 15.338-15.546-19.894c-.755-1.004-1.067-2.176-1.067-3.274.006-1.317.42-2.558 1.152-3.416l15.336-19.981-19.905 15.557-.04.027c-.979.645-2.086.989-3.208.986-1.163.003-2.327-.367-3.377-1.072l.555-.83-.607.793-19.984-15.338 15.565 19.918c.686.99.955 2.203.958 3.367-.014 1.229-.282 2.438-1.076 3.32z"/><path d="m37.912 233.839c.002-29.756 24.122-53.875 53.876-53.877 29.755.002 53.875 24.121 53.875 53.877 0 29.754-24.12 53.873-53.875 53.875-29.755-.002-53.874-24.121-53.876-53.875zm17.193-36.68c-9.387 9.389-15.191 22.352-15.193 36.68 0 14.328 5.806 27.291 15.193 36.682 9.391 9.391 22.355 15.193 36.683 15.193 14.328 0 27.29-5.805 36.681-15.193 9.389-9.391 15.193-22.354 15.193-36.682 0-14.328-5.804-27.291-15.193-36.68-9.392-9.39-22.353-15.193-36.681-15.193-14.33-.002-27.292 5.804-36.683 15.193z"/><path d="m94.825 74.864c-1.364-.01-2.603-.579-3.473-1.469l-13.979-13.803-.028-.035c-1.449-1.737-2.325-3.981-2.323-6.415 0-.021-.002-.067 0-.102.042-4.125 2.571-7.646 6.125-9.136 3.129-1.394 7.521-1.607 12.833-1.618.728 0 1.471.004 2.233.012 7.928.065 10.83.768 13.965 2.437 2.922 1.75 4.873 4.955 4.873 8.602v.1c-.021 2.386-.882 4.579-2.294 6.283l-.041.049-14.072 13.352c-.905 1.068-2.263 1.744-3.768 1.744 0-.001-.006-.001-.051-.001zm.051-2c.913 0 1.719-.411 2.264-1.063l.039-.046 14.076-13.356c1.109-1.361 1.777-3.086 1.799-4.939-.002-.063-.002-.104-.002-.122 0-2.922-1.561-5.48-3.854-6.858-2.794-1.463-5.099-2.091-13.005-2.181-.754-.008-1.492-.012-2.211-.012-5.239-.01-9.488.285-12.035 1.451-2.865 1.205-4.891 4.02-4.924 7.362v.043c0 1.933.682 3.698 1.82 5.087l13.925 13.753c.532.541 1.26.874 2.03.882.021 0 .037-.001.048-.001.023-.001.03 0 .03 0z"/><path d="m81.171 127.284c-3.58-1.5-6.106-5.021-6.147-9.113-.004-.071-.002-.119-.002-.137 0-2.436.874-4.68 2.324-6.414l.029-.035 13.966-13.791c.87-.89 2.085-1.455 3.426-1.482.053-.004.081-.004.093-.002h.01c1.507 0 2.868.678 3.774 1.747l14.072 13.354.041.047c1.414 1.705 2.271 3.898 2.295 6.328v.055c0 3.646-1.954 6.849-4.922 8.627-3.087 1.644-5.99 2.346-13.919 2.41-.757.006-1.497.013-2.221.013-5.315-.011-9.711-.224-12.819-1.607zm-4.151-9.25c0 .041 0 .045.002.082.031 3.305 2.058 6.121 4.947 7.336 2.524 1.156 6.777 1.451 12.021 1.438.714 0 1.45-.005 2.203-.011 7.904-.09 10.21-.717 12.955-2.151 2.342-1.407 3.903-3.968 3.903-6.888 0-.021 0-.061 0-.078-.02-1.9-.691-3.629-1.805-4.992l-14.025-13.307.688-.724.769-.641-.769.641-.688.724-.047-.045-.035-.041c-.546-.655-1.356-1.066-2.271-1.066h-.024c-.818.01-1.544.344-2.089.896l-13.906 13.732c-1.143 1.388-1.827 3.16-1.829 5.095z"/><path d="m120.905 103.308-.049-.041-13.351-14.071c-1.067-.906-1.746-2.265-1.746-3.77.001 0-.004-.023.003-.108.027-1.34.591-2.556 1.47-3.417l13.806-13.979.031-.026c1.736-1.448 3.978-2.321 6.409-2.321.021 0 .069-.002.106.002 4.126.039 7.647 2.568 9.139 6.124 1.395 3.133 1.605 7.535 1.615 12.857 0 .72-.004 1.454-.01 2.205-.065 7.929-.769 10.833-2.438 13.967-1.752 2.921-4.955 4.873-8.602 4.873-.041 0-.055 0-.1.002-2.385-.022-4.578-.884-6.283-2.297zm6.258.297c.065-.002.104-.002.125-.002 2.921 0 5.481-1.561 6.86-3.855 1.462-2.795 2.091-5.1 2.18-13.002.006-.749.01-1.479.01-2.188.012-5.25-.281-9.51-1.45-12.06-1.204-2.864-4.021-4.892-7.36-4.924 0 .002-.008 0-.051.002-1.94 0-3.712.687-5.1 1.834l-13.734 13.907c-.541.534-.875 1.261-.883 2.081v.057l-.001.011c.014.894.421 1.69 1.064 2.227l-.638.769-.724.688.724-.688.638-.769.045.035 13.358 14.078c1.363 1.109 3.087 1.778 4.937 1.799z"/><path d="m54.157 100.683c-1.642-3.086-2.344-5.991-2.409-13.918-.01-.755-.015-1.493-.015-2.213.013-5.32.223-9.72 1.61-12.827 1.499-3.58 5.021-6.109 9.108-6.148.075-.004.12-.002.143-.002 2.434 0 4.675.873 6.414 2.321l.039.033 13.784 13.963c.902.883 1.469 2.121 1.481 3.533s0 .004.002.004c0 1.504-.68 2.861-1.746 3.767l-13.349 14.071-.051.041c-1.706 1.414-3.898 2.274-6.324 2.294s-.019 0-.059.002c-3.647-.001-6.849-1.955-8.628-4.921zm8.353-33.107c-3.305.031-6.122 2.058-7.335 4.947-1.159 2.523-1.452 6.782-1.44 12.029 0 .714.004 1.442.012 2.193.09 7.905.716 10.209 2.152 12.957 1.406 2.342 3.965 3.902 6.887 3.902h.082c1.892-.018 3.618-.688 4.98-1.798l13.315-14.033.035-.037.051-.043c.655-.545 1.065-1.354 1.065-2.264s-.002-.015 0-.033c-.008-.818-.343-1.544-.896-2.089l-13.729-13.907c-1.39-1.142-3.158-1.826-5.095-1.828-.041.002-.045.002-.084.004z"/><path d="m66.393 112.999 19.501-25.407.043-.043c.251-.216.553-1.023.537-1.897.006-.804-.219-1.64-.537-2.083l-19.706-25.215 1.397-1.409 25.339 19.447c.719.472 1.438.681 2.137.681.675 0 1.344-.197 1.995-.616l25.174-19.674 1.409 1.395-19.498 25.402c-.369.421-.678 1.229-.671 2.063 0 .699.196 1.399.625 1.967l19.706 25.218-1.396 1.408-25.33-19.445c-.357-.28-1.315-.522-2.216-.51-.89-.027-1.772.263-1.882.41l-25.218 19.706zm6.379-5.024 18.979-14.829c.864-.688 1.962-.837 3.151-.864 1.183.012 2.41.21 3.408.906l19.114 14.67-14.872-19.03c-.735-.977-1.04-2.118-1.04-3.186.008-1.282.411-2.485 1.123-3.322l14.674-19.12-19.048 14.886-.039.027c-.952.627-2.028.962-3.118.962-1.131 0-2.265-.359-3.286-1.043l.558-.832-.61.792-19.114-14.67 14.891 19.056c.668.964.927 2.142.933 3.273-.016 1.207-.28 2.389-1.071 3.255z"/><path d="m42.912 85.59c.002-28.79 23.338-52.125 52.125-52.125 28.788 0 52.124 23.336 52.125 52.125-.002 28.788-23.338 52.124-52.125 52.124-28.788 0-52.123-23.336-52.125-52.124zm16.682-35.444c-9.072 9.075-14.681 21.6-14.681 35.445 0 13.844 5.609 26.37 14.681 35.444 9.075 9.071 21.598 14.68 35.443 14.68 13.844 0 26.369-5.607 35.443-14.68 9.072-9.074 14.682-21.6 14.682-35.444 0-13.846-5.609-26.371-14.682-35.445-9.074-9.072-21.6-14.679-35.443-14.681-13.846 0-26.369 5.607-35.443 14.681z"/><path d="m313.596 297.394v-.934-.932h17.869c5.19-.011 9.39-4.209 9.399-9.4-.01-5.191-4.209-9.392-9.399-9.401h-17.869c-5.191.011-9.392 4.21-9.401 9.401.011 5.191 4.209 9.391 9.401 9.4v.932.934c-6.222 0-11.267-5.044-11.267-11.266 0-6.224 5.045-11.267 11.267-11.267h17.869c6.222 0 11.265 5.043 11.265 11.267 0 6.222-5.043 11.266-11.265 11.266z"/><path d="m258.844 295.462v-1.002-1h17.667c3.636-.006 6.578-2.945 6.584-6.582-.006-3.637-2.948-6.578-6.584-6.584h-17.667c-3.634.006-6.576 2.947-6.582 6.584.006 3.637 2.948 6.576 6.582 6.582v1 1.002c-4.741-.002-8.582-3.844-8.582-8.584 0-4.74 3.841-8.584 8.582-8.584h17.667c4.741 0 8.583 3.844 8.583 8.584 0 4.74-3.843 8.582-8.583 8.584z"/><path d="m208.679 295.462v-1.002-1h17.667c3.634-.006 6.576-2.945 6.582-6.582-.006-3.637-2.948-6.578-6.582-6.584h-17.667c-3.636.006-6.578 2.947-6.584 6.584.006 3.637 2.948 6.576 6.584 6.582v1 1.002c-4.741-.002-8.583-3.844-8.583-8.584 0-4.74 3.841-8.584 8.583-8.584h17.667c4.741 0 8.582 3.844 8.582 8.584 0 4.74-3.841 8.582-8.582 8.584z"/></g></svg>