<svg height="350.26" viewBox="0 0 598.189 350.26" width="598.189" xmlns="http://www.w3.org/2000/svg"><g fill="#f4f4f4"><path d="m35.325 4.909c-2.444 0-4.725-.055-6.587.65-.931.352-1.752.943-2.318 1.81s-.848 1.962-.848 3.308v325.047c0 1.345.277 2.418.876 3.224.599.805 1.471 1.274 2.403 1.499 1.865.447 4.084.169 6.475.169h526.988c2.391 0 4.609.278 6.475-.169.934-.225 1.806-.694 2.404-1.499.448-.604.658-1.412.763-2.318h.113v-.905-325.048c0-1.346-.254-2.441-.82-3.308s-1.415-1.457-2.347-1.81c-1.863-.701-4.144-.646-6.587-.646h-526.988zm0 1.809h526.988c2.447 0 4.595.029 5.938.537.672.253 1.141.597 1.471 1.103.335.504.543 1.217.543 2.318v324.143.904c0 1.101-.212 1.749-.509 2.149-.298.4-.716.631-1.386.791-1.341.322-3.549.142-6.051.142h-526.988c-2.501 0-4.71.181-6.051-.142-.669-.163-1.087-.398-1.384-.796-.298-.398-.509-1.05-.509-2.154v-325.036c0-1.101.208-1.814.537-2.318.33-.506.798-.85 1.471-1.103 1.343-.509 3.49-.537 5.937-.537h-.007z"/><path d="m52.318 96.32c-8.13 0-15.267 4.208-19.368 10.574l1.499.99c3.78-5.868 10.365-9.755 17.87-9.755h492.489c7.604 0 14.257 3.983 18.011 9.98l1.528-.958c-4.073-6.509-11.299-10.83-19.538-10.83h-492.489z"/><path d="m42.14 106.047c-3.426 0-6.545 1.346-8.85 3.533l1.244 1.33c1.982-1.882 4.653-3.054 7.606-3.054h512.847c3.265 0 6.176 1.43 8.199 3.676l1.357-1.217c-2.353-2.611-5.77-4.27-9.557-4.27z"/><path d="m50.114 133.308c-1.712 0-3.11 1.398-3.11 3.11v17.926c0 1.712 1.398 3.139 3.11 3.139h28.783c1.711 0 3.139-1.427 3.139-3.139v-.905h-.028v-17.021c0-1.712-1.399-3.11-3.11-3.11zm0 1.809h28.783c.733 0 1.301.567 1.301 1.301v17.926.057c-.035.701-.591 1.272-1.301 1.272h-28.783c-.734 0-1.301-.595-1.301-1.329v-17.926c0-.733.566-1.301 1.301-1.301z"/><path d="m97.898 133.308c-1.712 0-3.11 1.398-3.11 3.11v17.926c0 1.712 1.398 3.139 3.11 3.139h28.783c1.712 0 3.11-1.427 3.11-3.139v-.905-17.021c0-1.711-1.398-3.11-3.11-3.11zm0 1.809h28.783c.734 0 1.301.567 1.301 1.301v17.926c0 .734-.568 1.329-1.301 1.329h-28.783c-.733 0-1.301-.595-1.301-1.329v-17.926c.001-.733.569-1.301 1.301-1.301z"/><path d="m145.683 133.308c-1.712 0-3.11 1.398-3.11 3.11v17.926c0 1.711 1.398 3.139 3.11 3.139h28.783c1.711 0 3.11-1.427 3.11-3.139v-17.926c0-1.712-1.399-3.11-3.11-3.11zm0 1.809h28.783c.733 0 1.301.567 1.301 1.301v17.926c0 .734-.568 1.329-1.301 1.329h-28.783c-.734 0-1.301-.594-1.301-1.329v-17.926c0-.733.567-1.301 1.301-1.301z"/><path d="m193.465 133.308c-1.712 0-3.139 1.398-3.139 3.11v17.926c0 1.711 1.427 3.139 3.139 3.139h28.783c1.712 0 3.11-1.427 3.11-3.139v-17.926c0-1.711-1.398-3.11-3.11-3.11zm0 1.809h28.783c.734 0 1.301.567 1.301 1.301v17.926c0 .735-.566 1.329-1.301 1.329h-28.783c-.735 0-1.33-.594-1.33-1.329v-17.926c0-.733.596-1.301 1.33-1.301z"/><path d="m241.256 133.308c-1.711 0-3.139 1.398-3.139 3.11v17.926c0 1.711 1.426 3.139 3.139 3.139h28.783c1.712 0 3.11-1.427 3.11-3.139v-17.926c0-1.712-1.398-3.11-3.11-3.11zm0 1.809h28.783c.733 0 1.301.567 1.301 1.301v17.926c0 .734-.568 1.329-1.301 1.329h-28.783c-.734 0-1.329-.594-1.329-1.329v-17.926c0-.733.596-1.301 1.329-1.301z"/><path d="m289.011 133.308c-1.712 0-3.11 1.398-3.11 3.11v17.926c0 1.712 1.398 3.139 3.11 3.139h28.783c1.711 0 3.139-1.427 3.139-3.139v-17.926c0-1.711-1.426-3.11-3.139-3.11zm0 1.809h28.783c.734 0 1.329.567 1.329 1.301v17.926c0 .734-.596 1.329-1.329 1.329h-28.783c-.733 0-1.301-.595-1.301-1.329v-17.926c0-.733.568-1.301 1.301-1.301z"/><path d="m336.793 133.308c-1.712 0-3.11 1.398-3.11 3.11v17.926c0 1.711 1.398 3.139 3.11 3.139h28.783c1.712 0 3.139-1.427 3.139-3.139v-17.926c0-1.711-1.426-3.11-3.139-3.11zm0 1.809h28.783c.734 0 1.329.567 1.329 1.301v17.926c0 .734-.596 1.329-1.329 1.329h-28.783c-.735 0-1.301-.594-1.301-1.329v-17.926c0-.733.567-1.301 1.301-1.301z"/><path d="m384.575 133.308c-1.712 0-3.11 1.398-3.11 3.11v17.926c0 1.711 1.398 3.139 3.11 3.139h28.783c1.711 0 3.11-1.427 3.11-3.139v-17.926c0-1.711-1.397-3.11-3.11-3.11zm0 1.809h28.783c.734 0 1.301.567 1.301 1.301v17.926c0 .734-.567 1.329-1.301 1.329h-28.783c-.734 0-1.301-.594-1.301-1.329v-17.926c0-.733.568-1.301 1.301-1.301z"/><path d="m432.357 133.308c-1.712 0-3.11 1.398-3.11 3.11v17.926c0 1.711 1.397 3.139 3.11 3.139h28.782c1.713 0 3.11-1.427 3.11-3.139v-17.926c0-1.711-1.397-3.11-3.11-3.11zm0 1.809h28.782c.735 0 1.301.567 1.301 1.301v17.926c0 .734-.566 1.329-1.301 1.329h-28.782c-.734 0-1.301-.594-1.301-1.329v-17.926c.001-.733.568-1.301 1.301-1.301z"/><path d="m480.148 133.308c-1.711 0-3.138 1.398-3.138 3.11v17.926c0 1.711 1.426 3.139 3.138 3.139h28.783c1.712 0 3.11-1.427 3.11-3.139v-17.926c0-1.711-1.398-3.11-3.11-3.11zm0 1.809h28.783c.734 0 1.301.567 1.301 1.301v17.926c0 .734-.567 1.329-1.301 1.329h-28.783c-.733 0-1.329-.594-1.329-1.329v-17.926c0-.733.596-1.301 1.329-1.301z"/><path d="m75.363 180.014c-1.712 0-3.11 1.397-3.11 3.11v17.954c0 1.711 1.398 3.11 3.11 3.11h28.783c1.712 0 3.11-1.398 3.11-3.11v-17.954c0-1.713-1.397-3.11-3.11-3.11zm0 1.809h28.783c.734 0 1.3.567 1.3 1.301v17.954c0 .732-.566 1.301-1.3 1.301h-28.783c-.733 0-1.301-.569-1.301-1.301v-17.954c0-.735.568-1.301 1.301-1.301z"/><path d="m123.144 180.014c-1.712 0-3.139 1.397-3.139 3.11v17.954c0 1.711 1.426 3.11 3.139 3.11h28.783c1.712 0 3.11-1.399 3.11-3.11v-17.954c0-1.712-1.397-3.11-3.11-3.11zm0 1.809h28.783c.734 0 1.301.566 1.301 1.301v17.954c0 .733-.566 1.301-1.301 1.301h-28.783c-.734 0-1.329-.569-1.329-1.301v-17.954c0-.735.595-1.301 1.329-1.301z"/><path d="m170.936 180.014c-1.712 0-3.139 1.397-3.139 3.11v17.954c0 1.711 1.426 3.11 3.139 3.11h28.783c1.712 0 3.11-1.398 3.11-3.11v-17.954c0-1.713-1.397-3.11-3.11-3.11zm0 1.809h28.783c.734 0 1.301.567 1.301 1.301v17.954c0 .732-.566 1.301-1.301 1.301h-28.783c-.734 0-1.33-.569-1.33-1.301v-17.954c0-.735.596-1.301 1.33-1.301z"/><path d="m218.69 180.014c-1.712 0-3.11 1.397-3.11 3.11v17.954c0 1.711 1.397 3.11 3.11 3.11h28.783c1.711 0 3.139-1.398 3.139-3.11v-17.954c0-1.712-1.426-3.11-3.139-3.11zm0 1.809h28.783c.734 0 1.329.566 1.329 1.301v17.954c0 .732-.596 1.301-1.329 1.301h-28.783c-.734 0-1.301-.569-1.301-1.301v-17.954c.001-.735.567-1.301 1.301-1.301z"/><path d="m266.473 180.014c-1.712 0-3.11 1.397-3.11 3.11v17.954c0 1.711 1.397 3.11 3.11 3.11h28.783c1.712 0 3.139-1.399 3.139-3.11v-17.954c0-1.712-1.426-3.11-3.139-3.11zm0 1.809h28.783c.734 0 1.329.566 1.329 1.301v17.954c0 .733-.595 1.301-1.329 1.301h-28.783c-.734 0-1.301-.569-1.301-1.301v-17.954c0-.735.567-1.301 1.301-1.301z"/><path d="m314.255 180.014c-1.712 0-3.111 1.396-3.111 3.11v17.954c0 1.711 1.398 3.11 3.111 3.11h28.783c1.711 0 3.139-1.398 3.139-3.11v-17.954c0-1.713-1.427-3.11-3.139-3.11zm0 1.809h28.783c.732 0 1.329.567 1.329 1.301v17.954c0 .732-.598 1.301-1.329 1.301h-28.783c-.734 0-1.301-.569-1.301-1.301v-17.954c0-.734.568-1.301 1.301-1.301z"/><path d="m362.046 180.014c-1.712 0-3.11 1.397-3.11 3.11v17.954c0 1.711 1.397 3.11 3.11 3.11h28.783c1.712 0 3.11-1.398 3.11-3.11v-17.954c0-1.712-1.397-3.11-3.11-3.11zm0 1.809h28.783c.733 0 1.301.566 1.301 1.301v17.954c0 .732-.568 1.301-1.301 1.301h-28.783c-.733 0-1.301-.569-1.301-1.301v-17.954c0-.735.568-1.301 1.301-1.301z"/><path d="m409.828 180.014c-1.712 0-3.11 1.397-3.11 3.11v17.954c0 1.71 1.396 3.11 3.11 3.11h28.783c1.712 0 3.11-1.398 3.11-3.11v-17.954c0-1.713-1.398-3.11-3.11-3.11zm0 1.809h28.783c.734 0 1.301.567 1.301 1.301v17.954c0 .732-.568 1.301-1.301 1.301h-28.783c-.735 0-1.3-.568-1.3-1.301v-17.954c0-.735.565-1.301 1.3-1.301z"/><path d="m457.61 180.014c-1.712 0-3.139 1.396-3.139 3.11v17.954c0 1.711 1.426 3.11 3.139 3.11h28.783c1.712 0 3.109-1.398 3.109-3.11v-17.954c0-1.712-1.396-3.11-3.109-3.11zm0 1.809h28.783c.733 0 1.3.566 1.3 1.301v17.954c0 .732-.567 1.301-1.3 1.301h-28.783c-.732 0-1.329-.569-1.329-1.301v-17.954c0-.734.598-1.301 1.329-1.301z"/><path d="m505.392 180.014c-1.711 0-3.138 1.397-3.138 3.11v17.954c0 1.711 1.426 3.11 3.138 3.11h28.784c1.712 0 3.11-1.399 3.11-3.11v-17.954c0-1.712-1.398-3.11-3.11-3.11zm0 1.809h28.784c.733 0 1.301.566 1.301 1.301v17.954c0 .733-.567 1.301-1.301 1.301h-28.784c-.733 0-1.328-.569-1.328-1.301v-17.954c-.001-.735.595-1.301 1.328-1.301z"/><path d="m87.549 226.728c-1.712 0-3.138 1.427-3.138 3.139v17.926c0 1.711 1.426 3.11 3.138 3.11h28.784c1.711 0 3.11-1.398 3.11-3.11v-.905-17.021c0-1.711-1.398-3.139-3.11-3.139zm0 1.81h28.784c.733 0 1.3.595 1.3 1.328v17.926c0 .734-.567 1.301-1.3 1.301h-28.784c-.733 0-1.329-.567-1.329-1.301v-17.926c.001-.734.596-1.328 1.329-1.328z"/><path d="m135.304 226.728c-1.712 0-3.11 1.427-3.11 3.139v17.926c0 1.711 1.398 3.11 3.11 3.11h28.784c1.712 0 3.138-1.399 3.138-3.11v-17.926c0-1.711-1.426-3.139-3.138-3.139zm0 1.81h28.784c.733 0 1.329.595 1.329 1.328v17.926c0 .735-.594 1.301-1.329 1.301h-28.784c-.734 0-1.3-.567-1.3-1.301v-17.926c0-.734.566-1.328 1.3-1.328z"/><path d="m183.086 226.728c-1.711 0-3.11 1.427-3.11 3.139v17.926c0 1.711 1.398 3.11 3.11 3.11h28.784c1.712 0 3.138-1.398 3.138-3.11v-17.926c0-1.712-1.426-3.139-3.138-3.139zm0 1.81h28.784c.733 0 1.329.595 1.329 1.328v17.926c0 .734-.594 1.301-1.329 1.301h-28.784c-.733 0-1.3-.567-1.3-1.301v-17.926c0-.734.568-1.328 1.3-1.328z"/><path d="m230.878 226.728c-1.712 0-3.11 1.427-3.11 3.139v17.926c0 1.711 1.398 3.11 3.11 3.11h28.783c1.711 0 3.138-1.398 3.138-3.11v-17.926c0-1.712-1.426-3.139-3.138-3.139zm0 1.81h28.783c.733 0 1.329.595 1.329 1.328v17.926c0 .734-.595 1.301-1.329 1.301h-28.783c-.734 0-1.301-.567-1.301-1.301v-17.926c0-.734.567-1.328 1.301-1.328z"/><path d="m278.66 226.728c-1.711 0-3.11 1.427-3.11 3.139v17.926c0 1.711 1.398 3.11 3.11 3.11h28.784c1.711 0 3.11-1.398 3.11-3.11v-17.926c0-1.711-1.398-3.139-3.11-3.139zm0 1.81h28.784c.733 0 1.301.595 1.301 1.328v17.926c0 .734-.567 1.301-1.301 1.301h-28.784c-.734 0-1.3-.567-1.3-1.301v-17.926c-.001-.734.567-1.328 1.3-1.328z"/><path d="m326.442 226.728c-1.713 0-3.11 1.427-3.11 3.139v17.926c0 1.711 1.397 3.11 3.11 3.11h28.783c1.711 0 3.11-1.398 3.11-3.11v-17.926c0-1.711-1.398-3.139-3.11-3.139zm0 1.81h28.783c.734 0 1.301.595 1.301 1.328v17.926c0 .734-.567 1.301-1.301 1.301h-28.783c-.734 0-1.301-.567-1.301-1.301v-17.926c.001-.734.568-1.328 1.301-1.328z"/><path d="m374.225 226.728c-1.712 0-3.139 1.427-3.139 3.139v17.926c0 1.711 1.426 3.11 3.139 3.11h28.782c1.712 0 3.11-1.398 3.11-3.11v-17.926c0-1.711-1.396-3.139-3.11-3.139zm0 1.81h28.782c.734 0 1.301.595 1.301 1.328v17.926c0 .734-.566 1.301-1.301 1.301h-28.782c-.734 0-1.329-.567-1.329-1.301v-17.926c0-.734.595-1.328 1.329-1.328z"/><path d="m422.016 226.728c-1.712 0-3.139 1.427-3.139 3.139v17.926c0 1.711 1.426 3.11 3.139 3.11h28.783c1.711 0 3.11-1.398 3.11-3.11v-17.926c0-1.711-1.398-3.139-3.11-3.139zm0 1.81h28.783c.734 0 1.301.595 1.301 1.328v17.926c0 .734-.567 1.301-1.301 1.301h-28.783c-.735 0-1.329-.567-1.329-1.301v-17.926c0-.734.594-1.328 1.329-1.328z"/><path d="m469.771 226.728c-1.712 0-3.109 1.427-3.109 3.139v17.926c0 1.711 1.396 3.11 3.109 3.11h28.783c1.712 0 3.139-1.399 3.139-3.11v-17.926c0-1.71-1.425-3.139-3.139-3.139zm0 1.81h28.783c.735 0 1.329.594 1.329 1.328v17.926c0 .735-.595 1.301-1.329 1.301h-28.783c-.735 0-1.3-.566-1.3-1.301v-17.926c0-.734.565-1.328 1.3-1.328z"/><path d="m110.084 273.46c-1.71 0-3.139 1.398-3.139 3.11v17.927c0 1.711 1.427 3.138 3.139 3.138h28.783c1.712 0 3.11-1.427 3.11-3.138v-17.927c0-1.712-1.398-3.11-3.11-3.11zm0 1.81h28.783c.735 0 1.301.566 1.301 1.301v17.927c0 .733-.566 1.328-1.301 1.328h-28.783c-.733 0-1.329-.596-1.329-1.328v-17.928c0-.735.595-1.3 1.329-1.3z"/><path d="m50.735 273.46c-1.711 0-3.11 1.398-3.11 3.11v17.927c0 1.711 1.398 3.138 3.11 3.138h37.209c1.711 0 3.11-1.426 3.11-3.138v-.905-17.022c0-1.712-1.399-3.11-3.11-3.11zm0 1.81h37.209c.735 0 1.301.566 1.301 1.301v17.927c0 .733-.567 1.328-1.301 1.328h-37.209c-.733 0-1.301-.596-1.301-1.328v-17.928c.001-.735.567-1.3 1.301-1.3z"/><path d="m157.87 273.46c-1.71 0-3.138 1.398-3.138 3.11v17.927c0 1.71 1.426 3.138 3.138 3.138h28.784c1.711 0 3.11-1.426 3.11-3.138v-17.927c0-1.712-1.398-3.11-3.11-3.11zm0 1.81h28.784c.733 0 1.3.566 1.3 1.301v17.927c0 .733-.567 1.328-1.3 1.328h-28.784c-.734 0-1.329-.596-1.329-1.328v-17.928c0-.735.595-1.3 1.329-1.3z"/><path d="m205.625 273.46c-1.711 0-3.11 1.398-3.11 3.11v17.927c0 1.711 1.398 3.138 3.11 3.138h28.783c1.712 0 3.139-1.426 3.139-3.138v-17.927c0-1.712-1.427-3.11-3.139-3.11zm0 1.81h28.783c.735 0 1.329.566 1.329 1.301v17.927c0 .733-.594 1.328-1.329 1.328h-28.783c-.733 0-1.301-.596-1.301-1.328v-17.928c0-.735.567-1.3 1.301-1.3z"/><path d="m253.407 273.46c-1.711 0-3.11 1.398-3.11 3.11v17.927c0 1.71 1.398 3.138 3.11 3.138h28.783c1.711 0 3.139-1.426 3.139-3.138v-17.927c0-1.712-1.427-3.11-3.139-3.11zm0 1.81h28.783c.733 0 1.329.566 1.329 1.301v17.927c0 .733-.596 1.328-1.329 1.328h-28.783c-.734 0-1.301-.596-1.301-1.328v-17.928c0-.736.566-1.3 1.301-1.3z"/><path d="m301.189 273.46c-1.712 0-3.11 1.398-3.11 3.11v17.927c0 1.71 1.398 3.138 3.11 3.138h28.783c1.712 0 3.11-1.427 3.11-3.138v-17.927c0-1.712-1.398-3.11-3.11-3.11zm0 1.81h28.783c.735 0 1.3.565 1.3 1.301v17.927c0 .733-.564 1.328-1.3 1.328h-28.783c-.735 0-1.301-.596-1.301-1.328v-17.928c.001-.736.566-1.3 1.301-1.3z"/><path d="m348.98 273.46c-1.711 0-3.11 1.398-3.11 3.11v17.927c0 1.71 1.398 3.138 3.11 3.138h28.783c1.712 0 3.11-1.426 3.11-3.138v-17.927c0-1.712-1.397-3.11-3.11-3.11zm0 1.81h28.783c.736 0 1.301.566 1.301 1.301v17.927c0 .733-.566 1.328-1.301 1.328h-28.783c-.734 0-1.301-.596-1.301-1.328v-17.928c.001-.736.568-1.3 1.301-1.3z"/><path d="m396.763 273.46c-1.711 0-3.11 1.398-3.11 3.11v17.927c0 1.71 1.397 3.138 3.11 3.138h28.783c1.712 0 3.11-1.426 3.11-3.138v-17.927c0-1.712-1.398-3.11-3.11-3.11zm0 1.81h28.783c.736 0 1.301.566 1.301 1.301v17.927c0 .733-.565 1.328-1.301 1.328h-28.783c-.736 0-1.301-.596-1.301-1.328v-17.928c0-.736.565-1.3 1.301-1.3z"/><path d="m444.545 273.46c-1.711 0-3.139 1.398-3.139 3.11v17.927c0 1.71 1.426 3.138 3.139 3.138h28.783c1.711 0 3.11-1.426 3.11-3.138v-17.927c0-1.712-1.398-3.11-3.11-3.11zm0 1.81h28.783c.734 0 1.301.566 1.301 1.301v17.927c0 .733-.567 1.328-1.301 1.328h-28.783c-.734 0-1.329-.596-1.329-1.328v-17.928c0-.735.596-1.3 1.329-1.3z"/><path d="m493.458 273.46c-1.71 0-3.11 1.398-3.11 3.11v17.927c0 1.71 1.398 3.138 3.11 3.138h49.623c1.711 0 3.109-1.426 3.109-3.138v-17.927c0-1.712-1.398-3.11-3.109-3.11zm0 1.81h49.623c.734 0 1.3.566 1.3 1.301v17.927c0 .733-.567 1.328-1.3 1.328h-49.623c-.734 0-1.301-.596-1.301-1.328v-17.928c0-.735.567-1.3 1.301-1.3z"/><path d="m517.553 226.728c-1.712 0-3.11 1.427-3.11 3.139v17.926c0 1.711 1.398 3.11 3.11 3.11h28.783c1.712 0 3.139-1.398 3.139-3.11v-17.926c0-1.711-1.425-3.139-3.139-3.139zm0 1.81h28.783c.735 0 1.329.595 1.329 1.328v17.926c0 .734-.594 1.301-1.329 1.301h-28.783c-.734 0-1.301-.566-1.301-1.301v-17.926c0-.734.567-1.328 1.301-1.328z"/><path d="m507.094 296.424-14.618 34.156 1.668.706 14.59-34.155z"/><path d="m527.025 249.8-10.349 24.204 1.669.706 10.349-24.203z"/><path d="m570.229 148.743-33.533 78.406 1.669.707 33.532-78.406z"/><path d="m514.269 296.506-14.533 33.957 1.668.735 14.533-33.985z"/><path d="m534.21 249.882-10.292 24.09 1.64.707 10.323-24.095-1.664-.706z"/><path d="m570.311 165.429-26.465 61.893 1.668.706 26.466-61.893z"/><path d="m521.543 296.397-14.788 34.608 1.668.706 14.788-34.607z"/><path d="m541.476 249.764-10.35 24.231 1.669.706 10.35-24.23z"/><path d="m570.148 182.728-22.507 52.592 1.668.707 22.507-52.592z"/><path d="m528.637 296.705-14.59 34.184 1.668.707 14.59-34.185-1.665-.706z"/><path d="m570.456 198.878-32.148 75.239 1.64.735 32.177-75.269z"/><path d="m536.02 296.397-14.621 34.183 1.664.733 14.622-34.211-1.668-.707z"/><path d="m570.43 215.897-25.958 60.706 1.669.707 25.957-60.707z"/><path d="m45.562 14.042v.905 13.176.905h.905 25.221v.311h-25.335-.905v.905 4.863.905h.905 33.76.905v-.905-12.527-.905h-.905-26.777v-.17h27.116.905v-.905-5.655-.905h-.905-33.986zm1.809 1.809h32.176v3.845h-27.115-.905v.905 1.979.905h.905 26.776v10.716h-31.95v-3.054h25.334.905v-.905-2.121-.905h-.905-25.221z"/><path d="m81.696 13.815v.904 20.386.905h.905 6.871.905v-.905-20.385-.904h-.905-6.871-.905zm1.81 1.81h5.061v18.576h-5.061z"/><path d="m81.498 9.065v.905 2.714.905h.905 7.125.905v-.905-2.714-.905h-.905-7.125zm1.81 1.81h5.316v.905h-5.316z"/><path d="m205.254 13.815v.904 20.839.905h.905 6.871.905v-.905-20.838-.904h-.905-6.871-.905zm1.809 1.81h5.062v19.029h-5.062z"/><path d="m205.028 9.065v.905 2.714.905h.905 7.153.905v-.905-2.714-.905h-.905-7.153zm1.809 1.81h5.344v.905h-5.344z"/><path d="m90.575 14.042v.905 20.047.905h.905 6.022.905v-.905-13.092h18.463v13.26.905h.905 6.079.905v-.905-20.217-.905h-.905-32.375zm1.809 1.809h30.565v18.407h-4.27v-13.26-.905h-.905-20.272-.904v.905 13.091h-4.213v-18.238z"/><path d="m125.442 13.759v.905 20.611.905h.904 33.93.905v-.905-6.164-.905h-.905-25.448v-6.361h25.023.905v-.905-6.277-.905h-.905-33.506-.903zm1.81 1.809h31.696v4.467h-25.023-.905v.905 8.171.905h.905 25.447v4.354h-32.12z"/><path d="m161.091 9.348v.905 25.022.905h.905 6.701.905v-.905-25.023-.904h-.905-6.701zm1.809 1.809h4.892v23.213h-4.892z"/><path d="m169.578 13.759v.905 5.429.905h.905 26.38v1.301h-26.352-.905v.904 12.074.905h.905 33.45.905v-.905-20.613-.905h-.905-33.478zm1.81 1.809h31.668v18.802h-31.64v-10.264h26.352.905v-.905-3.11-.905h-.905-26.38z"/><path d="m213.687 13.759v.905 20.837.905h.905 6.813.905v-.905-14.109h27.087.905v-.905-5.825-.905h-.905-34.806zm1.81 1.809h32.997v4.015h-27.088-.904v.905 14.109h-5.005z"/><path d="m176.645 26.284v.905 4.043.905h.904 20.16.905v-.905-4.043-.905h-.905-20.16zm1.809 1.81h18.35v2.234h-18.35z"/><path d="m26.419 330.154v1.81h544.74v-1.81z"/></g></svg>